<svg width="127" height="19" viewBox="0 0 127 19" fill="none" xmlns="http://www.w3.org/2000/svg">
<g id="Enthought" clip-path="url(#clip0_3845_1655)">
<path id="Vector" d="M123.618 7.16027V13.9554H121.971V7.16027H118.994V5.48328H126.7V7.16027H123.618Z" fill="#8E98A8" fill-opacity="0.56"/>
<path id="Vector_2" d="M113.884 13.9554V10.4054H109.408V13.9554H107.782V5.48328H109.408V8.68481H113.884V5.48328H115.51V13.9554H113.884Z" fill="#8E98A8" fill-opacity="0.56"/>
<path id="Vector_3" d="M99.9273 14.2384C97.3302 14.2384 94.9443 12.6267 94.9443 9.70834C94.9443 6.78994 97.3091 5.17828 99.9062 5.17828C101.279 5.1565 102.609 5.52674 103.77 6.26723L102.799 7.96601C101.933 7.29086 100.877 6.92061 99.8006 6.89883C98.1748 6.89883 96.5912 7.85711 96.5912 9.68656C96.5912 11.516 98.0903 12.4961 99.7161 12.4961C100.603 12.5178 101.49 12.2347 102.229 11.7338V10.7102H100.223V9.1203H103.918V12.6703C102.82 13.6939 101.384 14.2384 99.9062 14.2166L99.9273 14.2384Z" fill="#8E98A8" fill-opacity="0.56"/>
<path id="Vector_4" d="M90.8694 12.8881C90.0882 13.9117 88.6314 14.2384 87.4278 14.2384C85.1475 14.2384 83.564 13.1277 83.564 10.6231V5.46143H85.2109V10.6231C85.2109 12.3654 86.2877 12.4743 87.6812 12.4743C88.2302 12.4743 88.7792 12.3436 89.2648 12.1041C89.7293 11.8427 89.856 11.4942 89.856 10.6013V5.46143H91.4818V10.6231C91.5662 11.4507 91.3551 12.2565 90.8694 12.8881Z" fill="#8E98A8" fill-opacity="0.56"/>
<path id="Vector_5" d="M74.5691 14.2384C71.9721 14.2384 69.5439 12.5396 69.5439 9.68658C69.5439 6.83351 72.0354 5.20007 74.5902 5.20007C77.145 5.20007 79.6576 6.70283 79.6576 9.64302C79.6365 12.5832 77.1661 14.2384 74.5691 14.2384ZM74.5902 6.9424C72.9433 6.9424 71.1909 7.7918 71.1909 9.73014C71.1909 11.6685 72.9855 12.5179 74.6113 12.5179C76.2371 12.5179 77.9896 11.516 77.9896 9.6648C77.9896 7.81357 76.1738 6.92063 74.5902 6.9424Z" fill="#8E98A8" fill-opacity="0.56"/>
<path id="Vector_6" d="M63.9067 13.9554V10.4054H59.4305V13.9554H57.8047V5.48328H59.4305V8.68481H63.9067V5.48328H65.5325V13.9554H63.9067Z" fill="#8E98A8" fill-opacity="0.56"/>
<path id="Vector_7" d="M41.6314 13.9554L37.0496 8.20567V13.9554H35.4238V5.48328H37.0496L41.6314 11.2112V5.48328H43.2572V13.9554H41.6314Z" fill="#8E98A8" fill-opacity="0.56"/>
<path id="Vector_8" d="M51.2802 7.16027V13.9554H49.6545V7.16027H46.6562V5.48328H54.384V7.16027H51.2802Z" fill="#8E98A8" fill-opacity="0.56"/>
<path id="Vector_9" d="M24.5713 13.9554V5.48328H31.8345V7.18205H26.1971V8.75015H29.1742V10.4271H26.1971V12.2566H32.0457V13.9554H24.5713Z" fill="#8E98A8" fill-opacity="0.56"/>
<path id="Vector_10" d="M16.0619 5.09116L16.0408 5.06938L8.03851 0.321533L0.0362509 5.06938L0.0151367 5.09116L2.54883 6.59392L8.03851 3.32705L10.9734 5.09116L5.4837 8.35804L8.03851 9.86079L16.0619 5.09116Z" fill="#8E98A8" fill-opacity="0.56"/>
<path id="Vector_11" d="M2.54883 12.5614V6.59395L0.0151367 5.09119V14.0642L8.03851 18.8338V15.8283L2.54883 12.5614Z" fill="#8E98A8" fill-opacity="0.56"/>
<path id="Vector_12" d="M16.0408 14.0642V11.0587L8.03857 15.8284V18.8339L16.0619 14.0642H16.0408Z" fill="#8E98A8" fill-opacity="0.56"/>
</g>
<defs>
<clipPath id="clip0_3845_1655">
<rect width="127" height="19" fill="white"/>
</clipPath>
</defs>
</svg>
