<svg width="710" height="684" viewBox="0 0 710 684" fill="none" xmlns="http://www.w3.org/2000/svg">
<path d="M170.679 41.1113C146.833 74.1349 174.793 127.674 139.409 152.511C104.966 176.687 62.6544 137.058 30.1943 157.87C-17.9584 188.741 -9.16493 330.005 61.2371 417.775C82.4093 444.17 100.1 454.441 107.935 484.293C124.76 548.392 65.6306 586.523 76.8826 618.226C102.218 689.609 491.865 749.507 648.208 534.978C721.227 434.784 732.152 290.103 666.912 180.217C549.024 -18.3453 224.184 -32.9876 170.679 41.1113Z" fill="#FEF9EC" fill-opacity="0.6"/>
<path d="M502.959 463.405C533.837 463.607 573.204 459.601 610.906 443.1C620.528 438.889 679.968 412.875 672.948 386.68C670.475 377.453 661.844 375.996 658.315 363.715C654.133 349.163 663.574 341.895 670.119 323.759C674.024 312.938 685.452 281.268 665.844 263.733C654.126 253.255 631.856 248.298 614.904 252.128C590.04 257.744 581.491 281.162 567.736 321.028C555.542 356.368 558.675 365.043 549.435 390.343C542.578 409.119 529.666 434.971 502.959 463.405Z" fill="url(#paint0_linear_4279_9806)"/>
<mask id="mask0_4279_9806" style="mask-type:luminance" maskUnits="userSpaceOnUse" x="502" y="250" width="175" height="214">
<path d="M502.967 463.405C533.845 463.607 573.211 459.601 610.914 443.1C620.536 438.889 679.975 412.875 672.955 386.68C670.483 377.453 661.852 375.996 658.323 363.715C654.141 349.163 663.582 341.895 670.127 323.759C674.032 312.938 685.46 281.268 665.852 263.733C654.134 253.255 631.863 248.298 614.912 252.128C590.048 257.744 581.499 281.162 567.744 321.028C555.55 356.368 558.683 365.043 549.443 390.343C542.586 409.119 529.674 434.971 502.967 463.405Z" fill="white"/>
</mask>
<g mask="url(#mask0_4279_9806)">
<g opacity="0.5">
<path d="M425.397 479.715C407.515 479.716 389.214 477.322 370.643 472.537L371.017 471.173C404.809 479.878 437.688 480.616 468.745 473.367C510.115 463.709 546 439.728 575.404 402.091C606.034 362.885 621.96 318.686 629.926 288.511C635.439 267.633 634.374 244.514 626.763 219.794L628.16 219.392C635.849 244.359 636.918 267.732 631.339 288.86C623.34 319.161 607.344 363.549 576.568 402.942C546.956 440.847 510.794 465.002 469.087 474.739C454.872 478.057 440.279 479.715 425.397 479.715Z" fill="white"/>
<path d="M609.052 348.803L608.64 348.31C608.553 348.207 599.879 337.748 592.873 321.786C586.399 307.035 580.053 284.419 586.588 260.44L587.998 260.799C576.421 303.278 605.563 342.094 609.371 346.921C674.733 305.746 674.086 258.698 672.321 245.229C672.273 244.86 672.248 244.629 672.248 244.544L672.978 244.551L673.707 244.545C673.71 244.623 673.734 244.794 673.768 245.051C675.565 258.765 676.249 306.751 609.603 348.458L609.052 348.803Z" fill="white"/>
<path d="M601.493 404.405C593.803 404.405 585.446 403.845 576.392 402.557L576.006 402.502L575.839 402.161C575.66 401.796 558.007 365.118 561.879 315.254L565.782 265L567.237 265.106L563.334 315.36C559.691 362.281 575.232 397.409 576.996 401.216C599.083 404.311 630.897 404.822 657.819 389.941C674.005 380.994 680.827 370.564 680.893 370.46L682.133 371.204C681.854 371.64 675.098 381.992 658.626 391.12C646.858 397.641 628.208 404.405 601.493 404.405Z" fill="white"/>
</g>
</g>
<path d="M469.715 463.163C446.017 449.015 413.59 424.843 392.981 385.695C365.954 334.352 383.002 302.359 361.049 210.746C347.168 152.82 336.877 112.529 301.957 96.7727C274.592 84.425 235.377 88.6221 215.331 109.011C198.664 125.964 193.297 156.096 194.059 176.699C194.68 193.491 199.406 204.841 191.53 215.302C183.481 225.993 171.765 223.146 163.882 231.443C147.894 248.269 167.903 289.634 171.136 296.319C207.109 370.685 292.682 408.764 330.217 424.939C361.251 438.313 408.416 454.991 469.715 463.163Z" fill="#EDE76D"/>
<mask id="mask1_4279_9806" style="mask-type:luminance" maskUnits="userSpaceOnUse" x="157" y="89" width="313" height="375">
<path d="M469.717 463.163C446.019 449.015 413.592 424.843 392.983 385.695C365.956 334.352 383.004 302.359 361.051 210.746C347.17 152.82 336.879 112.529 301.959 96.7727C274.594 84.425 235.379 88.6221 215.333 109.011C198.666 125.964 193.299 156.096 194.061 176.699C194.682 193.491 199.408 204.841 191.532 215.302C183.483 225.993 171.767 223.146 163.884 231.443C147.896 248.269 167.904 289.634 171.138 296.319C207.111 370.685 292.684 408.764 330.219 424.939C361.253 438.313 408.418 454.991 469.717 463.163Z" fill="white"/>
</mask>
<g mask="url(#mask1_4279_9806)">
<g opacity="0.5">
<path d="M495.509 473.025C458.143 467.104 425.09 457.771 397.271 445.285C356.098 426.807 327.63 401.872 312.658 371.173C300.948 347.162 297.558 319.303 293.266 284.032C289.708 254.793 289.912 233.778 290.092 215.236C290.325 191.198 290.509 172.211 282.189 146.445C273.736 120.269 259.029 95.4803 238.479 72.7685L239.575 71.8389C260.261 94.6994 275.067 119.659 283.581 146.025C291.97 172.002 291.784 191.087 291.55 215.249C291.371 233.749 291.168 254.717 294.715 283.867C299.158 320.384 302.368 346.768 313.977 370.57C328.8 400.962 357.03 425.669 397.884 444.005C425.584 456.436 458.509 465.731 495.745 471.632L495.509 473.025Z" fill="white"/>
<path d="M291.629 263.27L291.241 262.566C264.275 213.688 228.658 186.799 203.529 172.848C176.322 157.745 155.256 154.149 155.047 154.114L155.292 152.723C155.504 152.758 176.826 156.397 204.255 171.624C229.427 185.598 265.049 212.464 292.13 261.183C295.499 258.73 311.046 246.795 324.76 226.086C338.96 204.641 354.045 169.12 345.268 121.68L346.703 121.432C355.569 169.348 340.314 205.232 325.955 226.897C310.397 250.372 292.483 262.69 292.303 262.811L291.629 263.27Z" fill="white"/>
<path d="M303.39 341.792L302.862 341.749C268.368 338.916 225.974 302.574 196.484 272.586C164.592 240.156 140.499 207.973 140.26 207.652L141.442 206.826C141.681 207.147 165.726 239.262 197.552 271.624C226.714 301.277 268.52 337.177 302.462 340.297C304.267 336.244 317.507 307.082 336.33 280.12C356.602 251.082 413.829 231.16 414.404 230.962L414.892 232.292C414.321 232.488 357.541 252.258 337.539 280.91C317.439 309.701 303.732 341.006 303.596 341.319L303.39 341.792Z" fill="white"/>
<path d="M366.776 440.766C353.951 440.766 335.024 440.092 312.92 437.194C274.959 432.217 219.58 419.475 171.332 387.04L78.1602 324.405L78.9921 323.246L172.164 385.881C220.162 418.148 275.287 430.832 313.078 435.79C348.956 440.498 376.423 439.325 382.897 438.945C371.592 426.139 365.43 411.66 364.577 395.888C363.877 382.937 366.739 369.102 373.083 354.767C383.86 330.412 401.223 312.789 401.398 312.614L402.449 313.593C402.276 313.766 385.076 331.23 374.408 355.357C368.161 369.487 365.344 383.106 366.036 395.835C366.899 411.716 373.265 426.268 384.956 439.086L385.917 440.141L384.469 440.256C384.33 440.267 377.811 440.766 366.776 440.766Z" fill="white"/>
</g>
</g>
<path d="M461.96 460.024C427.128 485.981 378.928 514.24 321.493 526.944C306.836 530.187 216.289 550.216 200.937 514.665C195.529 502.143 204.019 493.299 197.091 476.434C188.882 456.45 171.708 456.075 148.148 440.965C134.09 431.949 92.948 405.562 99.5765 369.342C103.538 347.698 124.378 323.522 147.006 313.739C180.197 299.391 210.731 318.821 261.806 352.562C307.082 382.473 311.25 394.919 344.242 415.907C368.727 431.483 406.374 450.037 461.96 460.024Z" fill="url(#paint1_linear_4279_9806)"/>
<mask id="mask2_4279_9806" style="mask-type:luminance" maskUnits="userSpaceOnUse" x="98" y="308" width="364" height="228">
<path d="M461.962 460.025C427.13 485.982 378.93 514.241 321.495 526.945C306.838 530.188 216.291 550.217 200.939 514.666C195.531 502.144 204.021 493.3 197.093 476.435C188.884 456.451 171.71 456.076 148.15 440.966C134.092 431.949 92.9499 405.563 99.5784 369.343C103.54 347.699 124.38 323.523 147.008 313.74C180.199 299.392 210.732 318.822 261.808 352.563C307.084 382.474 311.252 394.92 344.244 415.908C368.729 431.484 406.376 450.038 461.962 460.025Z" fill="white"/>
</mask>
<g mask="url(#mask2_4279_9806)">
<g opacity="0.5">
<path d="M409.703 464.444C382.399 464.444 354.05 460.468 324.781 452.509C254.878 433.499 197.274 396.519 161.26 368.845C136.175 349.569 116.62 322.22 103.139 287.558L104.503 287.061C117.89 321.48 137.292 348.625 162.168 367.74C198.077 395.334 255.506 432.204 325.175 451.15C392.081 469.344 454.181 466.63 509.751 443.082C551.464 425.407 588.129 397.143 618.728 359.078L619.878 359.945C589.129 398.197 552.274 426.604 510.336 444.375C478.777 457.749 445.122 464.444 409.703 464.444Z" fill="white"/>
<path d="M216.433 419.083C120.592 419.083 83.6854 370.447 74.2405 354.611C74.0369 354.27 73.9079 354.048 73.8438 353.962L74.9997 353.102C75.0917 353.216 75.2013 353.398 75.504 353.906C85.5208 370.7 126.809 424.788 237.956 416.888C237.988 413.407 237.833 396.02 232.261 374.742C226.54 352.895 213.771 322.352 185.429 300.916L186.327 299.804C215.008 321.495 227.911 352.362 233.686 374.436C239.937 398.333 239.41 417.376 239.404 417.566L239.384 418.2L238.73 418.247C230.971 418.815 223.532 419.083 216.433 419.083Z" fill="white"/>
<path d="M205.504 508.456C187.822 508.456 177.007 504.537 176.871 504.487L177.393 503.169C177.563 503.231 194.623 509.395 221.004 506.053C245.308 502.975 282.71 490.972 323.018 451.288C321.853 446.36 308.384 392.978 261.995 342.264L212.847 288.535L213.939 287.6L263.088 341.329C311.8 394.582 324.409 450.802 324.53 451.363L324.611 451.733L324.337 452.002C283.595 492.228 245.707 504.366 221.098 507.465C215.458 508.175 210.235 508.456 205.504 508.456Z" fill="white"/>
</g>
</g>
<path d="M453.644 490.48C450.996 486.998 435.067 466.704 409.858 465.859C388.754 465.152 372.614 478.459 368.876 481.542C353.822 493.954 355.561 503.855 343.402 507.874C328.962 512.646 318.599 501.299 309.261 507.85C302.819 512.369 300.932 522.552 303.544 529.653C308.128 542.117 327.664 548.057 342.479 545.077C362.89 540.971 363.351 522.146 386.527 516.098C399.994 512.584 403.917 517.877 418.243 514.481C434.878 510.538 446.424 499.409 453.644 490.48Z" fill="url(#paint2_linear_4279_9806)"/>
<mask id="mask3_4279_9806" style="mask-type:luminance" maskUnits="userSpaceOnUse" x="302" y="465" width="152" height="81">
<path d="M453.65 490.481C451.002 486.999 435.073 466.705 409.864 465.86C388.76 465.153 372.62 478.46 368.882 481.543C353.828 493.955 355.567 503.856 343.407 507.875C328.968 512.647 318.605 501.3 309.267 507.851C302.825 512.37 300.938 522.553 303.55 529.654C308.134 542.118 327.67 548.058 342.485 545.078C362.896 540.972 363.357 522.147 386.532 516.099C400 512.585 403.923 517.878 418.249 514.482C434.884 510.538 446.429 499.41 453.65 490.481Z" fill="white"/>
</mask>
<g mask="url(#mask3_4279_9806)">
<g opacity="0.5">
<path d="M337.705 526.643C325.183 526.643 309.936 520.598 292.178 508.568L292.597 507.99C316.384 524.105 335.57 529.405 349.618 523.743C358.472 520.175 362.859 513.448 367.502 506.326C372.728 498.312 378.131 490.025 390.393 486.069C399.823 483.028 410.743 484.484 432.5 487.385C443.373 488.835 454.238 490.936 464.794 493.63L464.607 494.312C454.08 491.626 443.245 489.53 432.402 488.084C410.755 485.198 399.891 483.749 390.623 486.739C378.609 490.615 373.277 498.793 368.119 506.703C363.412 513.922 358.966 520.741 349.899 524.395C346.178 525.894 342.109 526.643 337.705 526.643Z" fill="white"/>
<path d="M312.788 547.07L312.623 546.382C338.466 540.579 345.479 526.513 346.103 525.147C343.783 517.422 337.014 510.891 331.729 506.764C325.952 502.252 320.648 499.558 320.594 499.531L320.932 498.905C321.145 499.013 342.371 509.868 346.839 525.073L346.873 525.188L346.829 525.299C346.765 525.454 340.196 540.914 312.788 547.07Z" fill="white"/>
<path d="M371.601 538.978C369.002 531.421 371.35 520.234 378.578 505.73C383.419 496.017 388.943 488.005 390.022 486.469C378.35 477.267 349.809 499.118 349.52 499.341L349.064 498.79C349.139 498.733 356.529 493.046 365.28 488.663C377.131 482.726 385.699 481.877 390.749 486.139L390.995 486.347L390.808 486.606C390.562 486.949 366.231 521.123 372.293 538.756L371.601 538.978Z" fill="white"/>
<path d="M396.888 528.434C390.014 502.907 425.38 488.822 429.602 487.242C417.47 467 387.172 463.168 386.865 463.131L386.955 462.431C387.267 462.468 418.282 466.392 430.448 487.253L430.66 487.617L430.253 487.758C429.854 487.896 390.49 501.879 397.593 528.256L396.888 528.434Z" fill="white"/>
</g>
</g>
<path d="M303.69 213.325C307.72 215.305 312.784 213.487 314.999 209.265C317.215 205.042 315.744 200.014 311.713 198.034C311.505 197.931 311.292 197.845 311.078 197.763C311.827 195.426 312.391 193.071 312.77 190.715C313.001 190.715 313.233 190.711 313.468 190.691C318.066 190.294 321.716 186.206 321.619 181.559C321.523 176.912 317.717 173.466 313.119 173.863C312.879 173.884 312.643 173.92 312.408 173.961C311.928 171.658 311.27 169.408 310.439 167.231C310.651 167.111 310.861 166.987 311.067 166.848C315.001 164.181 316.259 158.918 313.876 155.092C311.494 151.266 306.373 150.326 302.439 152.993C302.238 153.129 302.048 153.277 301.861 153.427C300.307 151.765 298.602 150.225 296.759 148.819C296.888 148.613 297.015 148.405 297.13 148.186C299.346 143.963 302.241 139.351 298.179 137.432C288.783 132.994 284.751 136.793 282.535 141.016C282.42 141.235 282.321 141.457 282.226 141.679C279.965 141.069 277.674 140.646 275.371 140.413C275.385 140.179 275.396 139.943 275.391 139.705C275.295 135.058 276.72 132.544 272.104 132.457C262.039 132.268 258.643 136.495 258.74 141.141C258.745 141.384 258.766 141.622 258.791 141.858C256.484 142.494 254.219 143.307 252.014 144.291C251.909 144.083 251.801 143.878 251.676 143.677C249.293 139.852 244.173 138.912 240.239 141.579C236.304 144.246 235.047 149.509 237.429 153.335C237.551 153.531 237.685 153.714 237.821 153.895C236.079 155.581 234.447 157.412 232.939 159.376C232.744 159.257 232.547 159.142 232.338 159.039C228.308 157.059 223.244 158.877 221.028 163.1C218.813 167.323 220.284 172.351 224.314 174.331C224.523 174.433 224.736 174.52 224.95 174.602C224.201 176.939 223.636 179.293 223.258 181.649C223.027 181.65 222.795 181.653 222.56 181.673C217.961 182.07 214.312 186.159 214.408 190.806C214.504 195.453 218.31 198.898 222.908 198.501C223.148 198.481 223.385 198.444 223.619 198.404C224.1 200.707 224.758 202.956 225.588 205.133C225.376 205.253 225.166 205.377 224.96 205.516C221.027 208.183 219.769 213.447 222.151 217.273C224.534 221.099 232.421 222.876 236.355 220.209C236.557 220.073 233.98 219.087 234.167 218.937C235.721 220.599 237.425 222.14 239.269 223.546C239.139 223.751 239.012 223.96 238.897 224.178C236.682 228.401 238.153 233.429 242.183 235.409C246.214 237.389 251.277 235.571 253.493 231.349C253.607 231.13 253.706 230.908 253.802 230.685C256.063 231.296 258.353 231.718 260.657 231.951C260.643 232.186 260.631 232.421 260.636 232.659C260.733 237.306 264.538 240.752 269.136 240.355C273.735 239.959 277.384 235.87 277.288 231.223C277.283 230.98 277.262 230.743 277.237 230.507C279.543 229.871 281.809 229.058 284.014 228.074C284.118 228.281 284.227 228.487 284.352 228.687C286.734 232.513 291.855 233.453 295.789 230.786C299.723 228.119 300.981 222.855 298.598 219.029C298.476 218.833 298.342 218.65 298.207 218.469C299.949 216.783 301.58 214.953 303.088 212.989C303.283 213.107 303.481 213.223 303.69 213.325ZM253.448 213.942C238.815 206.753 233.473 188.497 241.518 173.166C249.563 157.834 267.947 151.233 282.58 158.422C297.214 165.611 302.555 183.868 294.51 199.199C286.465 214.53 268.081 221.131 253.448 213.942Z" fill="#D8DEE8"/>
<path d="M313.47 190.691C318.068 190.294 321.718 186.206 321.621 181.559C321.525 176.912 317.719 173.466 313.121 173.863C312.88 173.883 312.645 173.92 312.41 173.961C311.93 171.658 311.271 169.408 310.441 167.231C310.653 167.111 310.863 166.988 311.069 166.848C315.003 164.181 319.87 157.738 317.094 154.168C311.826 147.394 306.375 150.326 302.441 152.993C302.239 153.13 302.05 153.277 301.862 153.427C300.308 151.765 298.604 150.225 296.76 148.819C296.89 148.613 297.017 148.405 297.131 148.186C298.337 145.888 298.444 143.354 297.647 141.2C293.848 147.671 290.099 154.17 286.417 160.703C298.091 168.981 301.808 185.292 294.511 199.199C288.328 210.983 276.036 217.601 264.034 216.772C263.498 218.115 262.973 219.466 262.399 220.796C260.844 224.407 259.076 227.943 257.307 231.475C258.42 231.678 259.537 231.838 260.658 231.951C260.644 232.186 260.633 232.422 260.638 232.66C260.734 237.307 263.65 241.255 271.983 240.827C276.593 240.59 277.386 235.87 277.289 231.224C277.284 230.981 277.263 230.743 277.239 230.507C279.545 229.871 281.81 229.058 284.015 228.074C284.12 228.282 284.229 228.487 284.353 228.687C286.736 232.513 295.001 234.139 298.935 231.472C302.869 228.805 300.982 222.856 298.6 219.03C298.478 218.834 298.344 218.65 298.208 218.469C299.95 216.784 301.582 214.953 303.089 212.989C303.284 213.108 303.482 213.223 303.691 213.326C307.721 215.306 312.785 213.488 315.001 209.265C317.216 205.043 315.745 200.014 311.715 198.034C311.506 197.932 311.293 197.845 311.079 197.763C311.828 195.426 312.393 193.072 312.771 190.716C313.002 190.715 313.234 190.711 313.47 190.691Z" fill="#D8DEE8"/>
<path d="M308.025 213.803C312.055 215.783 317.119 213.965 319.335 209.742C321.55 205.519 320.079 200.491 316.049 198.511C315.84 198.409 315.627 198.322 315.413 198.24C316.162 195.903 316.727 193.549 317.105 191.193C317.336 191.192 317.568 191.188 317.804 191.168C322.402 190.771 326.051 186.683 325.955 182.036C325.859 177.389 322.053 173.944 317.455 174.34C317.215 174.361 316.979 174.398 316.744 174.438C316.263 172.135 315.606 169.886 314.775 167.708C314.987 167.589 315.197 167.465 315.403 167.325C319.337 164.659 320.594 159.395 318.212 155.569C315.83 151.743 310.709 150.804 306.775 153.47C306.574 153.607 306.384 153.755 306.196 153.904C304.643 152.242 302.938 150.702 301.094 149.296C301.224 149.091 301.351 148.882 301.466 148.664C303.682 144.441 302.211 139.413 298.18 137.433C294.15 135.453 289.087 137.271 286.871 141.493C286.756 141.712 286.657 141.934 286.562 142.157C284.301 141.546 282.01 141.124 279.707 140.891C279.721 140.656 279.732 140.421 279.727 140.183C279.631 135.536 275.825 132.09 271.227 132.487C266.629 132.883 262.979 136.972 263.075 141.619C263.08 141.862 263.101 142.099 263.126 142.335C260.82 142.971 258.555 143.785 256.35 144.768C256.245 144.561 256.136 144.355 256.012 144.155C253.629 140.329 248.508 139.389 244.574 142.056C240.64 144.723 239.383 149.987 241.765 153.813C241.887 154.009 242.021 154.192 242.157 154.373C240.415 156.059 238.783 157.889 237.275 159.853C237.08 159.735 236.883 159.619 236.674 159.517C232.644 157.537 227.58 159.355 225.364 163.577C223.149 167.8 224.62 172.828 228.65 174.808C228.859 174.911 229.072 174.997 229.286 175.079C228.537 177.416 227.972 179.771 227.594 182.126C227.363 182.127 227.131 182.131 226.896 182.151C222.297 182.548 218.648 186.636 218.744 191.283C218.84 195.93 222.646 199.375 227.244 198.979C227.484 198.958 227.721 198.922 227.955 198.881C228.436 201.184 229.094 203.434 229.924 205.611C229.712 205.731 229.502 205.854 229.296 205.994C225.362 208.66 224.105 213.924 226.487 217.75C228.87 221.576 233.99 222.516 237.924 219.849C238.126 219.712 238.315 219.565 238.503 219.415C240.056 221.077 241.761 222.617 243.605 224.023C243.475 224.229 243.348 224.437 243.233 224.656C241.018 228.878 242.489 233.907 246.519 235.886C250.549 237.866 255.613 236.048 257.828 231.826C257.943 231.607 258.042 231.385 258.137 231.162C260.398 231.773 262.689 232.195 264.993 232.428C264.978 232.663 264.967 232.898 264.972 233.136C265.068 237.783 268.874 241.229 273.472 240.832C278.07 240.436 281.72 236.347 281.624 231.7C281.618 231.457 281.598 231.22 281.573 230.984C283.879 230.348 286.144 229.534 288.349 228.551C288.454 228.758 288.563 228.964 288.687 229.164C291.07 232.99 296.191 233.93 300.124 231.263C304.059 228.596 305.316 223.332 302.934 219.506C302.812 219.31 302.678 219.127 302.542 218.946C304.284 217.26 305.916 215.43 307.424 213.466C307.619 213.584 307.817 213.7 308.025 213.803ZM257.783 214.419C243.15 207.231 237.809 188.974 245.854 173.643C253.898 158.311 272.282 151.711 286.916 158.9C301.549 166.088 306.89 184.345 298.845 199.676C290.801 215.008 272.417 221.608 257.783 214.419Z" fill="white"/>
<path d="M570.939 158.897C566.988 146.518 560.816 140.532 556.113 137.368C546.038 130.589 532.383 129.814 532.764 127.217C532.929 126.09 535.629 125.322 536.438 125.092C540.391 123.968 542.603 125.9 544.803 124.628C546.443 123.679 546.888 121.637 547.214 120.037C548.861 111.941 544.032 101.977 541.465 94.6718C541.286 94.1627 540.883 92.9875 541.279 92.7089C541.707 92.4082 542.843 93.3042 543.226 93.6064C547.311 96.8257 552.411 111.197 552.405 111.199C552.404 111.2 552.412 109.551 550.876 104.863C548.199 96.6935 545.29 92.9033 545.545 86.423C545.594 85.1572 545.648 84.0188 546.101 83.889C548.392 83.2322 556.629 109.633 558.152 109.145C558.535 109.023 558.321 107.262 558.215 106.386C557.224 98.1975 552.566 95.7521 552.961 89.1343C553.024 88.093 553.115 86.5738 553.703 86.413C555.679 85.8736 560.923 101.304 563.527 108.363C567.416 118.902 572.358 134.032 576.484 153.232C574.636 155.12 572.788 157.008 570.939 158.897Z" fill="url(#paint3_linear_4279_9806)"/>
<path d="M402.539 138.907C395.252 136.705 393.298 128.544 392.525 125.319C390.699 117.693 391.408 104.529 399.662 100.879C406.292 97.9463 413.701 102.965 414.62 103.606C423.961 110.129 422.207 122.623 422.002 123.93C421.541 126.859 420.59 132.902 415.099 136.658C414.711 136.923 408.841 140.812 402.539 138.907Z" fill="url(#paint4_linear_4279_9806)"/>
<g opacity="0.3">
<path d="M412.195 120.141C407.365 115.509 400.537 117.537 397.658 113.321C396.221 111.216 395.852 107.665 398.753 101.344C391.362 105.533 390.77 117.986 392.526 125.32C393.299 128.545 395.253 136.706 402.54 138.908C408.842 140.813 414.712 136.925 415.1 136.659C415.341 136.494 415.57 136.323 415.794 136.15C416.6 130.088 416.14 123.924 412.195 120.141Z" fill="url(#paint5_linear_4279_9806)"/>
</g>
<path d="M396.777 301.183C396.777 301.183 367.452 212.933 367.551 179.732C367.65 146.531 397.58 133.627 410.868 130.558C424.15 127.491 452.325 130.865 460.998 168.242C469.668 205.607 463.409 289.382 463.409 289.382L396.777 301.183Z" fill="url(#paint6_linear_4279_9806)"/>
<path opacity="0.3" d="M421.125 212.329C442.252 209.829 446.935 190.529 466.356 188.297C468.237 188.081 470.353 188.016 472.691 188.237C472.399 184.576 472.036 181.055 471.592 177.726C468.949 177.411 466.578 177.463 464.494 177.702C445.072 179.93 440.389 199.231 419.26 201.727C402.027 203.762 394.339 192.204 379.757 197.234C376.001 198.529 372.827 200.569 370.152 202.93C370.759 206.285 371.46 209.775 372.234 213.352C374.863 211.071 377.969 209.105 381.625 207.844C396.205 202.812 403.892 214.368 421.125 212.329Z" fill="white"/>
<path opacity="0.8" d="M422.926 246.163C407.123 247.913 399.896 236.265 386.572 241.043C384.066 241.941 381.851 243.24 379.895 244.775C387.873 274.391 396.776 301.182 396.776 301.182L463.407 289.381C463.407 289.381 465.86 256.552 465.568 222.833C465.078 222.858 464.603 222.896 464.143 222.945C446.329 224.852 442.302 244.018 422.926 246.163Z" fill="url(#paint7_linear_4279_9806)"/>
<path opacity="0.3" d="M458.348 189.972C440.53 191.868 436.502 211.034 417.122 213.167C401.315 214.908 394.087 203.255 380.761 208.025C377.419 209.221 374.594 211.128 372.211 213.357C374.367 223.476 377.072 234.302 379.894 244.775C381.851 243.241 384.066 241.942 386.572 241.043C399.895 236.266 407.123 247.913 422.926 246.164C442.302 244.018 446.329 224.852 464.143 222.946C464.602 222.897 460.074 189.788 458.348 189.972Z" fill="url(#paint8_linear_4279_9806)"/>
<path d="M307.331 363.724C294.474 347.516 312.164 310.825 331.583 290.153C354.175 266.103 383.097 259.483 401.447 255.531C462.186 242.45 481.672 269.038 512.33 253.787C559.887 230.131 549.451 147.914 570.94 145.642C588.586 143.777 616.386 197.042 608.71 249.864C602.754 290.851 562.467 331.17 521.793 349.121C492.285 362.144 496.765 358.687 429.577 362.442C351.695 366.796 320.004 379.7 307.331 363.724Z" fill="#1861A1"/>
<path d="M380.352 260.63C392.819 256.284 413.201 255.302 412.986 212.199C412.986 212.199 438.807 210.619 439.786 210.932C440.712 211.227 432.946 253.984 469.03 253.693C471.484 253.673 472.128 257.011 470.158 258.52C463.633 263.522 448.916 271.269 427.124 271.514C413.33 271.669 397.595 274.661 380.279 265.841C377.908 264.633 377.737 261.542 380.352 260.63Z" fill="url(#paint9_linear_4279_9806)"/>
<path d="M468.699 342.129C461.393 342.218 463.927 282.476 442.07 194.77C437.536 176.577 433.09 161.744 429.943 151.781C437.713 150.818 445.48 149.856 453.245 148.894C466.742 173.993 486.844 220.696 483.017 281.214C481.218 309.668 474.074 342.064 468.699 342.129Z" fill="url(#paint10_linear_4279_9806)"/>
<path d="M468.699 342.129C461.393 342.218 463.927 282.476 442.07 194.77C437.536 176.577 433.09 161.744 429.943 151.781C437.713 150.818 445.48 149.856 453.245 148.894C466.742 173.993 486.844 220.696 483.017 281.214C481.218 309.668 474.074 342.064 468.699 342.129Z" fill="url(#paint11_linear_4279_9806)"/>
<path d="M387.564 186.869C388.553 192.487 393.122 234.166 425.965 227.278C455.959 220.987 448.063 191.52 444.539 176.637C444.539 176.637 440.788 163.383 430.008 161.646C430.008 161.646 440.72 167.43 443.516 184.186C443.516 184.186 439.618 175.751 417.56 180.047C395.485 184.347 392.559 194.837 392.559 194.837C392.559 194.837 385.834 179.536 395.567 168.828C395.567 168.828 388.037 172.85 387.564 186.869Z" fill="url(#paint12_linear_4279_9806)"/>
<g opacity="0.3">
<path d="M601.48 182.798C605.594 205.898 601.181 220.818 594.747 230.861C580.258 253.477 554.641 252.783 523.102 288.48C505.447 308.464 504.303 319.063 493.328 334.396C488.29 341.435 481.708 348.733 472.914 355.775C496.621 356.414 501.206 358.207 521.794 349.121C562.468 331.169 602.755 290.851 608.711 249.864C612.199 225.862 608.361 201.769 601.48 182.798Z" fill="#B8C3FF"/>
</g>
<path d="M609.105 360.112L195.294 346.299C186.556 346.007 179.309 352.783 179.309 361.243V619.303C179.309 628.002 186.953 634.865 195.918 634.214L609.729 604.173C617.792 603.588 624.026 597.087 624.026 589.263V375.055C624.026 366.998 617.428 360.389 609.105 360.112Z" fill="url(#paint13_linear_4279_9806)"/>
<path d="M616.217 360.112L202.406 346.299C193.668 346.007 186.42 352.783 186.42 361.243V619.303C186.42 628.002 194.064 634.865 203.029 634.214L616.84 604.173C624.904 603.588 631.137 597.087 631.137 589.263V375.055C631.137 366.998 624.539 360.389 616.217 360.112Z" fill="url(#paint14_linear_4279_9806)"/>
<path d="M453.752 503.615L627.147 365.05C624.435 362.142 620.567 360.257 616.217 360.112L202.406 346.299C198.468 346.168 194.837 347.474 192.031 349.72L423.834 504.85C432.968 510.963 445.188 510.459 453.752 503.615Z" fill="url(#paint15_linear_4279_9806)"/>
<path d="M453.752 503.616C445.189 510.459 432.969 510.964 423.834 504.85L192.031 349.721C188.611 352.459 186.42 356.595 186.42 361.243V619.304C186.42 628.002 194.064 634.865 203.029 634.214L616.84 604.174C624.904 603.589 631.137 597.087 631.137 589.263V375.056C631.137 371.21 629.623 367.705 627.147 365.05L453.752 503.616Z" fill="url(#paint16_linear_4279_9806)"/>
<path opacity="0.37" d="M627.149 365.05L453.754 503.616C445.191 510.459 432.971 510.964 423.836 504.85L192.033 349.721C188.613 352.459 186.422 356.595 186.422 361.243V399.302C194.797 395.896 201.884 395.243 207.644 395.708C223.569 396.996 227.372 406.615 257.866 420.501C286.377 433.485 289.368 427.952 301.938 437.361C326.152 455.488 315.562 476.41 336.785 495.872C358.885 516.138 377.952 500.407 409.555 519.673C442.949 540.032 432.259 564.061 459.776 578.185C498.329 597.972 537.697 560.243 570.468 580.168C580.377 586.193 586.712 595.687 590.796 606.065L616.842 604.174C624.906 603.588 631.139 597.087 631.139 589.263V375.056C631.139 371.21 629.625 367.705 627.149 365.05Z" fill="url(#paint17_linear_4279_9806)"/>
<path d="M316.485 282.173C318.389 283.108 320.781 282.249 321.828 280.254C322.874 278.26 322.179 275.885 320.275 274.949C320.177 274.901 320.076 274.86 319.975 274.821C320.329 273.717 320.596 272.605 320.774 271.492C320.883 271.492 320.993 271.49 321.104 271.481C323.276 271.293 325 269.362 324.955 267.167C324.909 264.972 323.112 263.344 320.94 263.531C320.826 263.541 320.715 263.559 320.604 263.578C320.377 262.49 320.066 261.427 319.674 260.399C319.774 260.342 319.873 260.284 319.97 260.218C321.828 258.958 322.422 256.472 321.297 254.664C320.172 252.857 317.753 252.414 315.894 253.673C315.799 253.738 315.71 253.807 315.621 253.878C314.887 253.093 314.082 252.366 313.211 251.701C313.272 251.604 313.332 251.506 313.386 251.403C314.433 249.408 315.801 247.229 313.882 246.323C309.443 244.226 307.539 246.021 306.492 248.016C306.438 248.119 306.391 248.224 306.346 248.329C305.278 248.04 304.196 247.841 303.108 247.731C303.115 247.62 303.12 247.509 303.118 247.396C303.072 245.201 303.745 244.013 301.565 243.973C296.811 243.883 295.207 245.88 295.252 248.075C295.254 248.19 295.264 248.302 295.276 248.413C294.186 248.714 293.116 249.098 292.075 249.563C292.025 249.465 291.974 249.367 291.915 249.273C290.79 247.466 288.371 247.022 286.513 248.282C284.654 249.542 284.06 252.028 285.186 253.835C285.243 253.928 285.306 254.014 285.371 254.1C284.548 254.896 283.777 255.761 283.065 256.688C282.973 256.632 282.879 256.578 282.781 256.529C280.877 255.594 278.485 256.453 277.439 258.448C276.392 260.442 277.087 262.817 278.991 263.753C279.089 263.801 279.19 263.842 279.291 263.881C278.937 264.984 278.671 266.097 278.492 267.21C278.383 267.21 278.273 267.212 278.162 267.221C275.99 267.409 274.266 269.34 274.311 271.535C274.357 273.73 276.155 275.357 278.327 275.17C278.44 275.16 278.552 275.143 278.663 275.124C278.889 276.212 279.2 277.274 279.592 278.303C279.493 278.359 279.393 278.418 279.296 278.484C277.438 279.743 276.844 282.23 277.969 284.037C279.095 285.845 282.82 286.684 284.679 285.425C284.774 285.36 283.556 284.894 283.645 284.824C284.379 285.609 285.184 286.336 286.055 287C285.994 287.097 285.934 287.196 285.879 287.299C284.833 289.294 285.528 291.669 287.432 292.604C289.335 293.54 291.727 292.681 292.774 290.686C292.828 290.583 292.875 290.478 292.92 290.373C293.988 290.661 295.07 290.861 296.158 290.971C296.151 291.082 296.146 291.193 296.148 291.306C296.194 293.501 297.992 295.128 300.164 294.941C302.336 294.754 304.059 292.822 304.014 290.627C304.012 290.512 304.002 290.4 303.99 290.289C305.08 289.988 306.15 289.604 307.191 289.139C307.241 289.237 307.292 289.335 307.351 289.429C308.476 291.236 310.895 291.68 312.753 290.421C314.612 289.161 315.206 286.674 314.08 284.867C314.023 284.775 313.96 284.688 313.895 284.603C314.718 283.806 315.489 282.942 316.201 282.014C316.293 282.07 316.387 282.124 316.485 282.173ZM292.753 282.464C285.84 279.068 283.317 270.445 287.117 263.203C290.918 255.96 299.602 252.842 306.514 256.238C313.426 259.634 315.949 268.258 312.149 275.5C308.349 282.742 299.665 285.86 292.753 282.464Z" fill="#D8DEE8"/>
<path d="M321.104 271.481C323.276 271.294 325 269.362 324.954 267.167C324.909 264.972 323.111 263.345 320.939 263.532C320.826 263.542 320.714 263.559 320.603 263.578C320.376 262.491 320.066 261.428 319.674 260.399C319.773 260.343 319.873 260.284 319.97 260.218C321.828 258.959 324.127 255.915 322.816 254.229C320.328 251.029 317.753 252.414 315.894 253.674C315.799 253.738 315.71 253.808 315.621 253.879C314.887 253.093 314.082 252.366 313.211 251.702C313.272 251.605 313.332 251.506 313.386 251.403C313.956 250.317 314.006 249.121 313.63 248.103C311.835 251.16 310.065 254.229 308.325 257.316C313.84 261.226 315.596 268.931 312.149 275.5C309.228 281.066 303.421 284.192 297.752 283.801C297.499 284.435 297.251 285.073 296.98 285.702C296.245 287.407 295.41 289.078 294.574 290.746C295.1 290.842 295.628 290.917 296.158 290.971C296.151 291.082 296.146 291.193 296.148 291.305C296.193 293.501 297.571 295.366 301.507 295.163C303.685 295.052 304.059 292.822 304.013 290.627C304.011 290.512 304.001 290.4 303.989 290.289C305.079 289.988 306.149 289.604 307.191 289.139C307.24 289.237 307.292 289.334 307.35 289.429C308.476 291.236 312.38 292.004 314.238 290.744C316.097 289.484 315.205 286.674 314.08 284.867C314.022 284.774 313.959 284.687 313.895 284.602C314.718 283.806 315.489 282.941 316.201 282.013C316.293 282.069 316.386 282.124 316.485 282.172C318.389 283.108 320.78 282.249 321.827 280.254C322.874 278.26 322.179 275.884 320.275 274.949C320.176 274.901 320.076 274.86 319.975 274.821C320.328 273.717 320.595 272.605 320.774 271.492C320.883 271.493 320.993 271.491 321.104 271.481Z" fill="#D8DEE8"/>
<path d="M318.534 282.398C320.438 283.333 322.83 282.475 323.876 280.48C324.923 278.485 324.228 276.11 322.324 275.175C322.226 275.126 322.125 275.086 322.024 275.047C322.378 273.943 322.644 272.831 322.823 271.718C322.932 271.718 323.042 271.716 323.153 271.706C325.325 271.519 327.049 269.588 327.004 267.393C326.958 265.198 325.16 263.57 322.988 263.757C322.875 263.767 322.763 263.785 322.652 263.804C322.426 262.716 322.115 261.653 321.723 260.625C321.822 260.568 321.922 260.51 322.019 260.444C323.877 259.184 324.471 256.698 323.346 254.89C322.22 253.083 319.802 252.639 317.943 253.899C317.848 253.963 317.759 254.033 317.67 254.104C316.936 253.319 316.131 252.591 315.26 251.927C315.321 251.83 315.381 251.732 315.435 251.628C316.482 249.634 315.787 247.258 313.883 246.323C311.98 245.388 309.588 246.247 308.541 248.241C308.487 248.345 308.44 248.45 308.395 248.555C307.327 248.266 306.245 248.067 305.157 247.957C305.164 247.846 305.169 247.735 305.167 247.622C305.121 245.427 303.324 243.8 301.152 243.987C298.979 244.174 297.255 246.106 297.301 248.301C297.303 248.415 297.313 248.528 297.325 248.639C296.236 248.94 295.165 249.324 294.124 249.788C294.074 249.69 294.023 249.593 293.964 249.499C292.839 247.691 290.42 247.248 288.562 248.507C286.703 249.767 286.109 252.253 287.235 254.061C287.292 254.154 287.355 254.24 287.42 254.325C286.597 255.122 285.826 255.986 285.114 256.914C285.022 256.858 284.928 256.804 284.83 256.755C282.926 255.82 280.534 256.679 279.487 258.673C278.441 260.668 279.136 263.043 281.039 263.979C281.138 264.027 281.239 264.068 281.34 264.107C280.986 265.21 280.719 266.323 280.541 267.436C280.432 267.436 280.322 267.438 280.211 267.447C278.039 267.635 276.315 269.566 276.36 271.761C276.406 273.956 278.203 275.584 280.375 275.396C280.489 275.387 280.601 275.369 280.711 275.35C280.938 276.438 281.249 277.501 281.641 278.529C281.542 278.586 281.442 278.644 281.345 278.71C279.487 279.97 278.892 282.456 280.018 284.264C281.143 286.071 283.562 286.515 285.42 285.255C285.516 285.19 285.605 285.121 285.694 285.05C286.428 285.835 287.233 286.563 288.103 287.227C288.042 287.324 287.982 287.422 287.928 287.525C286.882 289.52 287.576 291.895 289.48 292.831C291.384 293.766 293.776 292.907 294.822 290.912C294.877 290.809 294.923 290.704 294.968 290.599C296.036 290.888 297.118 291.087 298.207 291.197C298.2 291.308 298.195 291.419 298.197 291.532C298.243 293.727 300.04 295.354 302.212 295.167C304.384 294.98 306.108 293.048 306.063 290.853C306.06 290.739 306.05 290.626 306.039 290.515C307.128 290.215 308.198 289.83 309.24 289.366C309.289 289.463 309.341 289.561 309.399 289.655C310.525 291.462 312.943 291.906 314.802 290.647C316.66 289.387 317.254 286.901 316.129 285.093C316.071 285.001 316.008 284.914 315.944 284.829C316.767 284.032 317.538 283.168 318.25 282.24C318.342 282.295 318.436 282.35 318.534 282.398ZM294.801 282.689C287.889 279.294 285.366 270.67 289.166 263.428C292.966 256.186 301.65 253.068 308.563 256.464C315.475 259.86 317.998 268.483 314.198 275.725C310.398 282.967 301.714 286.085 294.801 282.689Z" fill="white"/>
<path opacity="0.3" d="M228.707 399.156V632.352L257.304 657.529L310.946 615.97L228.707 399.156Z" fill="url(#paint18_linear_4279_9806)"/>
<path d="M368.473 403.872L393.172 644.241C393.54 647.82 390.993 650.949 387.503 651.196L267.155 660.949C259.819 661.198 255.86 657.374 255.462 653.587L228.7 399.156C228.298 395.334 231.963 391.951 239.374 392.097L361.361 397.074C364.906 397.203 368.102 400.262 368.473 403.872Z" fill="url(#paint19_linear_4279_9806)"/>
<path d="M373.947 403.566L398.751 645.173C399.12 648.771 396.563 651.916 393.059 652.165L268.289 661.015C264.394 661.291 260.87 658.403 260.47 654.595L233.588 398.816C233.184 394.973 236.101 391.948 240.06 392.093L366.807 396.731C370.366 396.862 373.574 399.937 373.947 403.566Z" fill="#26264F"/>
<path d="M371.317 416.898L394.323 640.832C394.668 644.193 392.274 647.128 388.995 647.353L271.641 655.424C268.018 655.674 264.742 652.977 264.369 649.431L239.558 413.179C239.183 409.604 241.891 406.771 245.568 406.884L364.642 410.551C367.969 410.653 370.969 413.509 371.317 416.898Z" fill="url(#paint20_linear_4279_9806)"/>
<path d="M308.197 402.086C308.331 403.378 307.388 404.392 306.09 404.35C304.79 404.307 303.626 403.223 303.491 401.928C303.357 400.633 304.303 399.62 305.603 399.665C306.902 399.71 308.063 400.794 308.197 402.086Z" fill="white"/>
<g opacity="0.66">
<path d="M297.092 467.136C283.065 474.198 277.059 489.902 283.679 502.21C290.298 514.519 307.035 518.772 321.063 511.709L297.092 467.136Z" fill="#F4F7FA"/>
<path d="M321.062 511.708L297.092 467.135C303.624 463.846 311.674 466.304 315.073 472.624L326.735 494.31C330.134 500.63 327.594 508.419 321.062 511.708Z" fill="#F4F7FA"/>
<path d="M331.096 531.791C317.069 538.854 311.063 554.557 317.683 566.866C324.302 579.174 341.039 583.427 355.067 576.364L331.096 531.791Z" fill="#F4F7FA"/>
<path d="M355.068 576.364L331.098 531.791C337.629 528.503 345.68 530.96 349.079 537.28L360.741 558.966C364.14 565.286 361.6 573.076 355.068 576.364Z" fill="#F4F7FA"/>
<path d="M334.772 562.745L320.183 570.091C301.54 552.527 288.942 529.102 282.391 499.815L296.979 492.47L334.772 562.745Z" fill="#F4F7FA"/>
</g>
<g opacity="0.3">
<path d="M296.648 520.021C284.248 484.569 305.831 466.709 293.608 433.873C286.958 416.007 273.646 402.698 259.001 392.786L240.058 392.093C236.099 391.948 233.183 394.973 233.586 398.816L260.468 654.595C260.868 658.403 264.392 661.291 268.287 661.015L376.008 653.374C375.67 626.667 368.658 607.66 360.859 594.148C339.428 557.018 309.488 556.731 296.648 520.021Z" fill="#F4F7FA"/>
</g>
<defs>
<linearGradient id="paint0_linear_4279_9806" x1="656.017" y1="252.905" x2="586.27" y2="446.39" gradientUnits="userSpaceOnUse">
<stop offset="0.03" stop-color="#F6F195"/>
<stop offset="1" stop-color="#817B09"/>
</linearGradient>
<linearGradient id="paint1_linear_4279_9806" x1="305.011" y1="350.517" x2="249.665" y2="504.053" gradientUnits="userSpaceOnUse">
<stop offset="0.0036" stop-color="#F7F187"/>
<stop offset="1" stop-color="#968F0D"/>
</linearGradient>
<linearGradient id="paint2_linear_4279_9806" x1="302.408" y1="505.834" x2="453.644" y2="505.834" gradientUnits="userSpaceOnUse">
<stop stop-color="#FF9085"/>
<stop offset="1" stop-color="#FB6FBB"/>
</linearGradient>
<linearGradient id="paint3_linear_4279_9806" x1="553.498" y1="166.791" x2="564.052" y2="-99.6821" gradientUnits="userSpaceOnUse">
<stop stop-color="#FFC444"/>
<stop offset="0.9964" stop-color="#F36F56"/>
</linearGradient>
<linearGradient id="paint4_linear_4279_9806" x1="422.329" y1="92.0407" x2="411.382" y2="112.432" gradientUnits="userSpaceOnUse">
<stop stop-color="#444B8C"/>
<stop offset="0.9964" stop-color="#3E4177"/>
</linearGradient>
<linearGradient id="paint5_linear_4279_9806" x1="421.461" y1="92.4628" x2="410.682" y2="112.541" gradientUnits="userSpaceOnUse">
<stop stop-color="#444B8C"/>
<stop offset="0.9964" stop-color="#3E4177"/>
</linearGradient>
<linearGradient id="paint6_linear_4279_9806" x1="438.135" y1="120.438" x2="417.152" y2="230.832" gradientUnits="userSpaceOnUse">
<stop stop-color="#444B8C"/>
<stop offset="0.9964" stop-color="#3E4177"/>
</linearGradient>
<linearGradient id="paint7_linear_4279_9806" x1="452.021" y1="117.488" x2="430.416" y2="231.152" gradientUnits="userSpaceOnUse">
<stop stop-color="#444B8C"/>
<stop offset="0.9964" stop-color="#3E4177"/>
</linearGradient>
<linearGradient id="paint8_linear_4279_9806" x1="438.742" y1="116.889" x2="416.992" y2="231.316" gradientUnits="userSpaceOnUse">
<stop stop-color="#444B8C"/>
<stop offset="0.9964" stop-color="#3E4177"/>
</linearGradient>
<linearGradient id="paint9_linear_4279_9806" x1="429.078" y1="347.325" x2="422.208" y2="193.948" gradientUnits="userSpaceOnUse">
<stop stop-color="#FFC444"/>
<stop offset="0.9964" stop-color="#F36F56"/>
</linearGradient>
<linearGradient id="paint10_linear_4279_9806" x1="476.031" y1="126.573" x2="455.313" y2="235.573" gradientUnits="userSpaceOnUse">
<stop stop-color="#444B8C"/>
<stop offset="0.9964" stop-color="#3E4177"/>
</linearGradient>
<linearGradient id="paint11_linear_4279_9806" x1="476.031" y1="126.573" x2="455.313" y2="235.573" gradientUnits="userSpaceOnUse">
<stop stop-color="#444B8C"/>
<stop offset="0.9964" stop-color="#3E4177"/>
</linearGradient>
<linearGradient id="paint12_linear_4279_9806" x1="423.584" y1="235.279" x2="395.247" y2="3.43107" gradientUnits="userSpaceOnUse">
<stop stop-color="#FFC444"/>
<stop offset="0.9964" stop-color="#F36F56"/>
</linearGradient>
<linearGradient id="paint13_linear_4279_9806" x1="270.695" y1="488.703" x2="87.3719" y2="508.814" gradientUnits="userSpaceOnUse">
<stop stop-color="#FFC444"/>
<stop offset="0.9964" stop-color="#F36F56"/>
</linearGradient>
<linearGradient id="paint14_linear_4279_9806" x1="368.664" y1="411.216" x2="513.203" y2="742.055" gradientUnits="userSpaceOnUse">
<stop stop-color="#FFC444"/>
<stop offset="0.9964" stop-color="#F36F56"/>
</linearGradient>
<linearGradient id="paint15_linear_4279_9806" x1="404.991" y1="454.576" x2="419.068" y2="136.726" gradientUnits="userSpaceOnUse">
<stop stop-color="#FFC444"/>
<stop offset="0.9964" stop-color="#F36F56"/>
</linearGradient>
<linearGradient id="paint16_linear_4279_9806" x1="368.66" y1="411.218" x2="513.199" y2="742.057" gradientUnits="userSpaceOnUse">
<stop stop-color="#FFC444"/>
<stop offset="0.9964" stop-color="#F36F56"/>
</linearGradient>
<linearGradient id="paint17_linear_4279_9806" x1="411.926" y1="392.317" x2="556.465" y2="723.156" gradientUnits="userSpaceOnUse">
<stop stop-color="#FFC444"/>
<stop offset="0.9964" stop-color="#F36F56"/>
</linearGradient>
<linearGradient id="paint18_linear_4279_9806" x1="228.707" y1="528.343" x2="310.946" y2="528.343" gradientUnits="userSpaceOnUse">
<stop stop-color="#AA80F9"/>
<stop offset="0.9964" stop-color="#6165D7"/>
</linearGradient>
<linearGradient id="paint19_linear_4279_9806" x1="226.048" y1="526.013" x2="395.584" y2="529.501" gradientUnits="userSpaceOnUse">
<stop stop-color="#444B8C"/>
<stop offset="0.9964" stop-color="#26264F"/>
</linearGradient>
<linearGradient id="paint20_linear_4279_9806" x1="316.386" y1="529.83" x2="231.823" y2="990.84" gradientUnits="userSpaceOnUse">
<stop offset="0.0036" stop-color="#E3DC67"/>
<stop offset="1" stop-color="#FFF100"/>
</linearGradient>
</defs>
</svg>
