<svg width="197" height="180" viewBox="0 0 197 180" fill="none" xmlns="http://www.w3.org/2000/svg">
<g id="Conda-forge illustration">
<path d="M179.258 123.581L113.537 165.851C110.27 167.689 106.658 168.647 102.993 168.647C99.3291 168.647 95.7166 167.689 92.4496 165.851L44.2982 135.06C43.089 134.453 42.0452 133.505 41.2717 132.31C40.4982 131.115 40.0222 129.716 39.8916 128.252V139.605C40.019 141.072 40.4935 142.476 41.2672 143.675C42.0409 144.874 43.0864 145.825 44.2982 146.434L92.3929 177.204C95.6632 179.042 99.2788 180 102.946 180C106.613 180 110.229 179.042 113.499 177.204L179.221 134.892C180.414 134.301 181.444 133.368 182.205 132.19C182.966 131.012 183.431 129.632 183.551 128.19V116.837C183.445 118.283 182.99 119.671 182.235 120.858C181.48 122.044 180.452 122.984 179.258 123.581Z" fill="#1D1D1B"/>
<path d="M179.182 110.009C185.026 113.758 185.064 119.811 179.182 123.54L113.537 165.851C110.27 167.689 106.658 168.647 102.993 168.647C99.3291 168.647 95.7166 167.689 92.4496 165.851L44.2982 135.06C38.4543 131.332 38.3594 125.257 44.2223 121.487L109.943 79.176C113.212 77.333 116.829 76.3722 120.497 76.3722C124.165 76.3722 127.781 77.333 131.05 79.176L179.182 110.009Z" fill="#878787"/>
<path d="M101.566 151.21L64.6107 127.415L64.4594 68.8913L101.415 92.6652L101.566 151.21Z" fill="#5F5F5F"/>
<path d="M101.415 92.6652L64.4594 68.8913L155.958 10.3887L192.914 34.1626L101.415 92.6652Z" fill="#747474"/>
<path d="M192.914 34.1626L192.914 53.6634L184.649 58.9628C167.873 69.6663 154.389 95.6604 154.389 117.025V117.402L101.566 151.21L101.415 92.6652L192.914 34.1626Z" fill="#1D1D1B"/>
<path d="M197 17.343L196.962 30.8533L170.182 60.7225L170.22 47.2122L197 17.343Z" fill="#3C3C3B"/>
<path d="M170.219 47.2128L170.181 60.7231L106.843 101.505L106.881 87.974L170.219 47.2128Z" fill="#3C3C3B"/>
<path d="M106.881 87.974L106.843 101.505L60.0343 71.573L60.0532 58.0418L106.881 87.974Z" fill="#5F5F5F"/>
<path d="M197 17.343L170.219 47.2128L106.881 87.974L60.0532 58.0418L123.41 17.2806L169.897 0L197 17.343Z" fill="#878787"/>
<path d="M81.1591 74.0025C76.2229 70.8396 71.7028 70.5254 68.4877 72.5991L0.931955 115.79C0.79415 115.906 0.685384 116.06 0.6159 116.236C0.546417 116.412 0.518505 116.604 0.534791 116.795C0.5687 117.317 0.710948 117.823 0.950435 118.273C1.18992 118.724 1.52017 119.107 1.91541 119.393C2.02905 119.474 2.15633 119.529 2.28959 119.554C2.42284 119.579 2.55933 119.574 2.69082 119.539L88.1189 122.43H89.4239C95.0976 122.262 99.0693 117.11 99.0693 108.27C99.0882 95.7236 91.0693 80.3282 81.1591 74.0025Z" fill="#878787"/>
<path d="M0.534398 117.298C0.735284 118.167 1.22988 118.916 1.91541 119.393C2.02905 119.474 2.15633 119.529 2.28959 119.554C2.42284 119.579 2.55933 119.574 2.69082 119.539L88.1189 122.43H89.4239C95.0976 122.262 99.0693 117.11 99.0693 108.27C99.0426 105.439 98.6862 102.623 98.0098 99.8922L0.534398 117.298Z" fill="#1D1D1B"/>
<path d="M107.297 158.29C107.789 158.481 108.215 158.836 108.516 159.307C108.818 159.778 108.979 160.341 108.979 160.918C108.979 161.495 108.818 162.058 108.516 162.529C108.215 163 107.789 163.356 107.297 163.547C106.021 164.26 104.612 164.631 103.183 164.631C101.754 164.631 100.346 164.26 99.0698 163.547C98.578 163.356 98.1519 163 97.8505 162.529C97.5491 162.058 97.3872 161.495 97.3872 160.918C97.3872 160.341 97.5491 159.778 97.8505 159.307C98.1519 158.836 98.578 158.481 99.0698 158.29C100.343 157.567 101.753 157.19 103.183 157.19C104.614 157.19 106.024 157.567 107.297 158.29Z" fill="#1D1D1B"/>
<path d="M53.9627 125.384C54.4545 125.575 54.8806 125.93 55.182 126.401C55.4835 126.872 55.6454 127.435 55.6454 128.012C55.6454 128.59 55.4835 129.153 55.182 129.624C54.8806 130.094 54.4545 130.45 53.9627 130.641C52.687 131.354 51.2781 131.725 49.8492 131.725C48.4204 131.725 47.0115 131.354 45.7358 130.641C45.2439 130.45 44.8179 130.094 44.5165 129.624C44.215 129.153 44.0531 128.59 44.0531 128.012C44.0531 127.435 44.215 126.872 44.5165 126.401C44.8179 125.93 45.2439 125.575 45.7358 125.384C47.0088 124.661 48.4188 124.285 49.8492 124.285C51.2797 124.285 52.6896 124.661 53.9627 125.384Z" fill="#1D1D1B"/>
<path d="M176.876 114.198C177.368 114.389 177.794 114.745 178.095 115.216C178.396 115.686 178.558 116.249 178.558 116.827C178.558 117.404 178.396 117.967 178.095 118.438C177.794 118.909 177.368 119.264 176.876 119.455C175.6 120.168 174.191 120.539 172.762 120.539C171.333 120.539 169.925 120.168 168.649 119.455C168.157 119.264 167.731 118.909 167.43 118.438C167.128 117.967 166.966 117.404 166.966 116.827C166.966 116.249 167.128 115.686 167.43 115.216C167.731 114.745 168.157 114.389 168.649 114.198C169.925 113.485 171.333 113.114 172.762 113.114C174.191 113.114 175.6 113.485 176.876 114.198Z" fill="#1D1D1B"/>
</g>
</svg>
