<svg width="167" height="220" viewBox="0 0 167 220" fill="none" xmlns="http://www.w3.org/2000/svg">
<g id="Illustration-Jupyter">
<g id="Group">
<g id="Group_2">
<path id="Vector" d="M162.226 12.5134C162.336 15.1009 161.684 17.662 160.354 19.8711C159.024 22.0801 157.068 23.8491 154.739 24.9405C152.409 26.0318 149.806 26.4058 147.273 26.0098C144.731 25.6117 142.365 24.4657 140.478 22.7182C138.583 20.9633 137.248 18.6885 136.641 16.179C136.034 13.6707 136.179 11.0304 137.06 8.59254C137.937 6.16785 139.512 4.05652 141.587 2.52422C143.655 0.997412 146.132 0.122446 148.7 0.0115218C152.136 -0.133695 155.492 1.09845 158.029 3.44393C160.565 5.78941 162.072 9.05019 162.221 12.509L162.226 12.5134Z" fill="#767677"/>
<g id="Group_3">
<path id="Vector_2" d="M86.521 166.356C51.9475 166.356 21.7563 153.7 6.07715 134.963C11.9128 151.773 22.7957 166.338 37.2153 176.649C51.6348 186.959 68.8687 192.491 86.543 192.491C104.217 192.491 121.456 186.955 135.871 176.649C150.286 166.343 161.164 151.773 167 134.963C151.286 153.7 121.094 166.356 86.521 166.356Z" fill="#F37726" fill-opacity="0.48"/>
<path id="Vector_3" d="M86.5113 44.488C121.085 44.488 151.28 57.1483 166.955 75.8813C161.119 59.0713 150.236 44.5056 135.817 34.1952C121.397 23.8847 104.168 18.3489 86.4981 18.3489C68.8282 18.3489 51.5855 23.8847 37.1703 34.1908C22.7552 44.4968 11.8679 59.0669 6.03223 75.8769C21.7422 57.1835 51.9378 44.488 86.5113 44.488Z" fill="#F37726" fill-opacity="0.48"/>
</g>
<path id="Vector_4" d="M39.0564 202.789C39.1996 206.047 38.3785 209.275 36.6957 212.069C35.0133 214.859 32.5557 217.086 29.6137 218.459C26.6716 219.832 23.4477 220.307 20.2017 219.805C16.9558 219.304 14.0182 217.86 11.6355 215.651C9.25276 213.442 7.57474 210.577 6.80399 207.405C6.04096 204.234 6.22781 200.908 7.34131 197.842C8.45559 194.78 10.4463 192.122 13.0668 190.185C15.6874 188.249 18.8056 187.167 22.0383 187.035C26.3677 186.859 30.5826 188.416 33.7801 191.369C36.9758 194.334 38.8718 198.439 39.0564 202.793V202.789Z" fill="#989798" fill-opacity="0.23"/>
<path id="Vector_5" d="M10.0189 40.2461C8.12511 40.3341 6.24009 39.8413 4.61492 38.8468C2.98975 37.8522 1.69489 36.3913 0.893319 34.6619C0.0917436 32.9325 -0.176916 30.9874 0.113765 29.0952C0.404446 27.203 1.24566 25.434 2.5317 24.0258C3.81775 22.6176 5.49137 21.6231 7.33235 21.1655C9.17333 20.7078 11.12 20.8222 12.9037 21.4823C14.6875 22.1424 16.2378 23.3173 17.352 24.8707C18.6637 26.6808 19.3114 28.887 19.1863 31.1182C19.0612 33.3494 18.1708 35.4694 16.665 37.1218C14.9473 39.014 12.5514 40.1317 10.0145 40.2461H10.0189Z" fill="#6F7070" fill-opacity="0.53"/>
</g>
</g>
</g>
</svg>
