<svg width="14" height="16" viewBox="0 0 14 16" fill="none" xmlns="http://www.w3.org/2000/svg">
<path id="Vector" d="M10.0057 9.93396H9.37336L9.14923 9.7024C9.93368 8.7247 10.4059 7.4554 10.4059 6.07461C10.4059 2.99571 8.07662 0.5 5.20297 0.5C2.32933 0.5 0 2.99571 0 6.07461C0 9.15352 2.32933 11.6492 5.20297 11.6492C6.49171 11.6492 7.67639 11.1432 8.58891 10.3027L8.80503 10.5429V11.2204L12.8073 15.5L14 14.2221L10.0057 9.93396ZM5.20297 9.93396C3.20983 9.93396 1.60091 8.21012 1.60091 6.07461C1.60091 3.93911 3.20983 2.21527 5.20297 2.21527C7.19611 2.21527 8.80503 3.93911 8.80503 6.07461C8.80503 8.21012 7.19611 9.93396 5.20297 9.93396Z" fill="#B1B4C3"/>
</svg>
