<?xml version="1.0" encoding="UTF-8" standalone="no"?>
<svg
   width="977.46588"
   height="466.5589"
   viewBox="0 0 977.46588 466.5589"
   fill="none"
   version="1.1"
   id="svg3"
   sodipodi:docname="notebook-link-banner-medium.svg"
   inkscape:version="1.4.2 (ebf0e940d0, 2025-05-08)"
   xmlns:inkscape="http://www.inkscape.org/namespaces/inkscape"
   xmlns:sodipodi="http://sodipodi.sourceforge.net/DTD/sodipodi-0.dtd"
   xmlns="http://www.w3.org/2000/svg"
   xmlns:svg="http://www.w3.org/2000/svg">
  <sodipodi:namedview
     id="namedview3"
     pagecolor="#ffffff"
     bordercolor="#000000"
     borderopacity="0.25"
     inkscape:showpageshadow="2"
     inkscape:pageopacity="0.0"
     inkscape:pagecheckerboard="0"
     inkscape:deskcolor="#d1d1d1"
     inkscape:zoom="1.0390729"
     inkscape:cx="488.41619"
     inkscape:cy="220.38878"
     inkscape:window-width="1648"
     inkscape:window-height="961"
     inkscape:window-x="0"
     inkscape:window-y="0"
     inkscape:window-maximized="1"
     inkscape:current-layer="svg3"
     showguides="false" />
  <rect
     style="fill:#fffbd7;fill-opacity:1;stroke:none;stroke-width:1.33902"
     id="rect14"
     width="977.46588"
     height="60.019665"
     x="0"
     y="406.53925" />
  <rect
     width="977.46588"
     height="407.7193"
     fill="url(#paint0_radial_108_381)"
     id="rect1"
     style="fill:url(#paint0_radial_108_381);stroke-width:0.860744"
     x="0"
     y="0" />
  <g
     id="g4"
     transform="matrix(0.30496,0,0,0.30496,90.54265,568.02014)">
    <g
       id="g2"
       transform="translate(107.47178)">
      <g
         id="g14"
         transform="matrix(0.88,0,0,0.88,506.81497,-920.60317)">
        <g
           filter="url(#filter1_d_60_642)"
           id="g1"
           transform="translate(-23.422692,133.15976)"
           style="filter:url(#filter1_d_60_642-1)">
          <path
             d="m 214.598,101.626 -58.286,-0.854 c 0,0 -76.1887,75.396 -67.0082,79.91 7.076,3.507 38.8872,-30.378 75.7312,-20.008 0,0 11.804,-17.843 49.563,-59.079 z"
             fill="#f4ee97"
             id="path1" />
        </g>
        <path
           d="m 67.101408,318.69176 c -1.1285,0 -2.196,-0.244 -3.233,-0.732 -1.7385,-0.854 -2.8975,-2.471 -3.233,-4.423 -1.6775,-10.37 36.6309,-50.782 69.051902,-82.8685 l 1.373,-1.342 70.394,1.0065 -6.893,7.503 c -36.966,40.352 -49.014,58.347 -49.105,58.499 l -1.83,2.776 -3.203,-0.915 c -22.875,-6.436 -43.950002,5.734 -57.889002,13.786 -6.8014,3.934 -11.4984,6.649 -15.4024,6.649 z m 67.648902,-80.154 c -26.443,26.26 -53.741002,55.845 -62.341902,68.686 1.769,-0.946 3.721,-2.074 5.4899,-3.111 13.786,-7.961 36.448002,-21.076 61.763002,-15.464 4.239,-5.886 16.165,-21.563 41.297,-49.44 z"
           fill="#1d1d1b"
           id="path2" />
        <g
           filter="url(#filter2_d_60_642)"
           id="g3"
           transform="translate(-23.422692,133.15976)"
           style="filter:url(#filter2_d_60_642-7)">
          <path
             d="M 287.432,118.218 C 270.626,106.11 258.274,90.6766 251.167,74.7251 212.554,99.8876 166.835,144.326 124.684,222.833 l 115.107,83.021 c 61.274,-64.843 88.999,-122.305 100.65,-166.926 -17.477,-1.647 -36.112,-8.51 -53.009,-20.71 z"
             fill="#ffffff"
             id="path3" />
        </g>
        <path
           d="m 216.36831,443.55776 c -0.945,0 -1.86,-0.274 -2.684,-0.854 l -115.107002,-83.021 c -1.86,-1.342 -2.44,-3.843 -1.342,-5.886 36.356002,-67.741 79.453002,-118.127 128.039002,-149.7551 1.129,-0.732 2.501,-0.915 3.782,-0.549 1.281,0.366 2.349,1.3115 2.898,2.5315 7.076,15.9515 19.093,30.3476 34.739,41.6326 15.738,11.346 33.306,18.208 50.783,19.855 1.342,0.122 2.562,0.824 3.324,1.922 0.763,1.098 1.007,2.47 0.671,3.782 -14.67,56.12 -48.891,112.972 -101.748,168.909 -0.884,0.945 -2.104,1.433 -3.324,1.433 z m -109.159,-88.968 108.58,78.324 c 48.647,-52.186 80.733,-104.951 95.434,-156.953 -17.293,-2.593 -34.434,-9.73 -49.898,-20.893 -15.372,-11.071 -27.511,-24.9791 -35.441,-40.4731 -44.682,30.3781 -84.576,77.4391 -118.706,139.9951 z"
           fill="#1d1d1b"
           id="path4" />
        <g
           filter="url(#filter3_d_60_642)"
           id="g5"
           transform="translate(-23.422692,133.15976)"
           style="filter:url(#filter3_d_60_642-2)">
          <path
             d="m 251.168,74.7861 c 7.106,15.982 19.459,31.3849 36.264,43.4929 16.806,12.109 35.533,19.063 53.009,20.71 15.738,-60.1769 2.196,-96.9904 2.196,-96.9904 0,0 -39.253,-1.22 -91.469,32.7875 z"
             fill="#f4ee97"
             id="path5" />
        </g>
        <path
           d="m 320.46531,277.08976 -3.874,-0.366 c -19.093,-1.8 -38.216,-9.242 -55.266,-21.533 -16.958,-12.231 -30.012,-27.9079 -37.759,-45.3539 l -1.586,-3.5685 3.264,-2.135 c 52.826,-34.404 92.476,-33.5805 94.123,-33.5195 l 3.08,0.0915 1.068,2.8975 c 0.579,1.5555 13.847,38.857 -2.074,99.7049 l -0.976,3.751 z m -86.864,-67.4359 c 7.228,14.5485 18.605,27.6639 33.092,38.0949 14.579,10.522 30.714,17.171 46.909,19.398 11.255,-46.1164 4.88,-77.6534 2.288,-87.3219 -9.974,0.5795 -41.999,4.4835 -82.259,29.7985 z"
           fill="#1d1d1b"
           id="path6" />
        <g
           filter="url(#filter4_d_60_642)"
           id="g7"
           transform="translate(-23.422692,133.15976)"
           style="filter:url(#filter4_d_60_642-3)">
          <path
             d="m 327.479,183.03 20.069,54.717 c 0,0 -45.933,96.838 -53.253,89.67 -5.643,-5.52 15.799,-46.726 -6.161,-78.08 0,0 12.932,-17.049 39.345,-66.307 z"
             fill="#f4ee97"
             id="path7" />
        </g>
        <path
           d="m 271.81731,465.54876 c -1.555,0 -3.019,-0.579 -4.117,-1.677 -3.599,-3.538 -2.471,-9.547 -0.58,-19.52 2.989,-15.83 7.503,-39.742 -6.13,-59.201 l -1.922,-2.745 2.013,-2.653 c 0.122,-0.183 13.115,-17.507 38.979,-65.697 l 4.819,-8.967 24.248,66.093 -0.824,1.739 c -19.55,41.205 -45.018,90.707 -55.357,92.567 -0.366,0.061 -0.732,0.092 -1.098,0.092 z m -1.555,-82.929 c 13.633,22.051 8.784,47.793 5.825,63.409 -0.366,2.013 -0.793,4.209 -1.128,6.222 9.302,-12.352 28.182,-47.915 44.225,-81.557 l -15.921,-43.401 c -17.995,32.94 -28.853,49.379 -33.001,55.327 z"
           fill="#1d1d1b"
           id="path8" />
        <g
           filter="url(#filter5_d_60_642)"
           id="g9"
           transform="translate(-23.422692,133.15976)"
           style="filter:url(#filter5_d_60_642-4)">
          <path
             d="m 213.835,287.096 c 0,0 18.514,41.114 -13.847,43.493 0,0 15.189,20.13 -2.836,38.979 -12.81,13.359 -29.646,-0.945 -40.87,-9.607 0,0 -4.636,46.818 -43.036,22.753 0,0 -9.577,7.015 -16.2869,2.348 -6.71,-4.666 -3.5075,-16.073 -3.5075,-16.073 -36.051,-27.511 6.161,-48.282 6.161,-48.282 -12.0475,-7.442 -31.354,-18.208 -23.363,-34.861 11.3155,-23.516 35.4714,-16.348 35.4714,-16.348 -9.15,-31.11 35.838,-28.243 35.838,-28.243 l 66.246,45.902 z"
             fill="#f4ee97"
             id="path9" />
        </g>
        <path
           d="m 109.40531,527.31176 c -5.917,0 -12.444002,-2.044 -19.551002,-6.1 -5.032,2.775 -12.779,5.032 -18.9706,0.762 -6.1915,-4.27 -6.8015,-12.322 -5.9475,-18.025 -10.1565,-8.418 -14.884,-17.324 -13.969,-26.474 1.0675,-10.919 10.004,-19.093 16.47,-23.668 -12.0475,-7.686 -27.084,-19.52 -18.7575,-36.844 8.2045,-17.08 23.2715,-20.679 33.8856,-19.978 -0.488,-6.008 0.976,-11.193 4.422,-15.494 10.614,-13.267 36.356002,-11.773 37.454002,-11.712 l 1.281,0.092 68.351,47.336 0.518,1.159 c 0.458,1.006 10.889,24.583 2.196,39.192 -2.806,4.728 -7.167,7.93 -12.962,9.577 4.392,9.699 6.313,25.041 -6.802,38.735 -13.298,13.878 -29.646,3.965 -41.083,-4.605 -1.983,7.655 -6.527,18.91 -16.379,23.729 -3.141,1.555 -6.527,2.318 -10.156,2.318 z m -19.795002,-16.989 2.623,1.647 c 9.638002,6.039 17.477002,7.686 23.302002,4.819 8.937,-4.392 12.231,-18.91 12.749,-24.125 l 0.824,-8.235 8.204,6.344 c 12.993,10.126 24.461,17.781 33.093,8.784 15.036,-15.708 3.019,-32.361 2.501,-33.062 l -4.972,-6.68 8.296,-0.61 c 6.283,-0.457 10.431,-2.531 12.688,-6.313 4.88,-8.205 0.458,-23.18 -2.196,-29.616 l -64.08,-44.408 c -6.954,-0.213 -22.57,0.915 -28.487002,8.357 -2.745,3.447 -3.203,8.052 -1.434,14.061 l 2.379,8.052 -8.052,-2.379 c -0.823,-0.244 -20.6176,-5.673 -30.0421,13.969 -5.3985,11.254 5.795,19.306 19.8551,27.907 l 8.815,5.429 -7.412,3.66 c -4.7271,2.349 -17.1711,10.584 -18.1166,20.435 -0.61,6.436 3.66,13.207 12.7185,20.1 l 2.4705,1.891 -0.8235,2.989 c -0.5795,2.165 -1.525,8.845 1.708,11.102 3.3551,2.318 9.5161,-1.22 10.9801,-2.288 l 2.501,-1.83 z"
           fill="#1d1d1b"
           id="path10" />
        <path
           d="m 226.18931,339.79776 c 19.725,0 35.715,-15.991 35.715,-35.716 0,-19.725 -15.99,-35.715 -35.715,-35.715 -19.725,0 -35.716,15.99 -35.716,35.715 0,19.725 15.991,35.716 35.716,35.716 z"
           fill="#f4ee97"
           id="path11" />
        <path
           d="m 226.09831,344.40276 c -8.113,0 -16.043,-2.47 -22.875,-7.198 -8.845,-6.13 -14.793,-15.341 -16.714,-25.925 -1.922,-10.583 0.396,-21.289 6.527,-30.164 6.13,-8.845 15.341,-14.793 25.925,-16.714 10.583,-1.922 21.289,0.396 30.164,6.527 18.27,12.657 22.845,37.82 10.187,56.089 -6.13,8.845 -15.341,14.793 -25.925,16.714 -2.44,0.427 -4.88,0.671 -7.289,0.671 z m 0.152,-71.492 c -1.86,0 -3.751,0.183 -5.642,0.519 -8.174,1.494 -15.311,6.069 -20.039,12.901 -4.727,6.832 -6.527,15.128 -5.032,23.302 1.494,8.174 6.069,15.311 12.901,20.039 14.122,9.79 33.581,6.252 43.341,-7.869 9.79,-14.122 6.252,-33.581 -7.869,-43.341 -5.277,-3.66 -11.407,-5.551 -17.69,-5.551 z"
           fill="#1d1d1b"
           id="path12" />
      </g>
      <path
         d="m 936.02247,-767.61655 1.4552,40.5448 40.5448,1.4552 -40.5448,1.4552 -1.4552,40.5448 -1.4552,-40.5448 -40.5448,-1.4552 40.5448,-1.4552 z"
         fill="#ffffff"
         id="path1-6" />
      <path
         d="m 1773.9445,-1234.0682 2.5986,72.4014 72.4014,2.5986 -72.4014,2.5986 -2.5986,72.4014 -2.5986,-72.4014 -72.4014,-2.5986 72.4014,-2.5986 z"
         fill="#ffffff"
         id="path1-5" />
      <path
         d="m 843.54047,-1230.3195 c 0.4481,4.6515 4.1314,8.3338 8.7862,8.7822 l 2.2714,0.2188 -2.2714,0.2188 c -4.6548,0.4477 -8.3381,4.13 -8.7862,8.7822 l -0.2197,2.2802 -0.2197,-2.2802 c -0.4481,-4.6515 -4.1314,-8.3338 -8.7862,-8.7822 l -2.2724,-0.2188 2.2724,-0.2188 c 4.6548,-0.4477 8.3381,-4.13 8.7862,-8.7822 l 0.2197,-2.2812 z"
         fill="#ffffff"
         stroke="#ffffff"
         id="path1-56-7" />
      <path
         d="m 571.11287,-828.98348 c 0.4128,4.28339 3.8045,7.6737 8.0908,8.0869 v 0 l 1.6523,0.1592 -1.6523,0.1592 c -4.2867,0.4123 -7.679,3.8027 -8.0918,8.0869 l -0.1602,1.6621 -0.1602,-1.6621 c -0.4128,-4.2834 -3.8045,-7.6737 -8.0908,-8.0869 l -1.6533,-0.1592 1.6533,-0.1592 -10e-4,-10e-4 c 4.2867,-0.4122 7.679,-3.80171 8.0918,-8.0859 l 0.1602,-1.66309 z"
         fill="#ffffff"
         stroke="#ffffff"
         id="path1-9" />
      <path
         d="m 1439.8157,-658.73545 c 0.7153,2.54395 2.7565,4.54015 5.3467,5.24805 -2.5899,0.7078 -4.6313,2.7035 -5.3467,5.2471 -0.7156,-2.5438 -2.7574,-4.5395 -5.3477,-5.2471 2.5907,-0.7077 4.6323,-2.7038 5.3477,-5.24805 z"
         fill="#ffffff"
         stroke="#ffffff"
         id="path1-93" />
    </g>
  </g>
  <defs
     id="defs3">
    <radialGradient
       id="paint0_radial_108_381"
       cx="0"
       cy="0"
       r="1"
       gradientUnits="userSpaceOnUse"
       gradientTransform="matrix(482.58767,-694.61195,392.34502,854.37855,335.41764,407.71928)">
      <stop
         offset="0.00181958"
         stop-color="#3A347B"
         id="stop1" />
      <stop
         offset="0.326923"
         stop-color="#5242FF"
         id="stop2" />
      <stop
         offset="1"
         stop-color="#FFFBB4"
         id="stop3" />
    </radialGradient>
    <filter
       id="filter1_d_60_642"
       x="88.536102"
       y="96.772003"
       width="165.062"
       height="96.166"
       filterUnits="userSpaceOnUse"
       color-interpolation-filters="sRGB">
      <feFlood
         flood-opacity="0"
         result="BackgroundImageFix"
         id="feFlood14" />
      <feColorMatrix
         in="SourceAlpha"
         type="matrix"
         values="0 0 0 0 0 0 0 0 0 0 0 0 0 0 0 0 0 0 127 0"
         result="hardAlpha"
         id="feColorMatrix14" />
      <feOffset
         dx="31"
         dy="4"
         id="feOffset14" />
      <feGaussianBlur
         stdDeviation="4"
         id="feGaussianBlur14" />
      <feComposite
         in2="hardAlpha"
         operator="out"
         id="feComposite14" />
      <feColorMatrix
         type="matrix"
         values="0 0 0 0 0 0 0 0 0 0 0 0 0 0 0 0 0 0 0.25 0"
         id="feColorMatrix15" />
      <feBlend
         mode="normal"
         in2="BackgroundImageFix"
         result="effect1_dropShadow_60_642"
         id="feBlend15" />
      <feBlend
         mode="normal"
         in="SourceGraphic"
         in2="effect1_dropShadow_60_642"
         result="shape"
         id="feBlend16" />
    </filter>
    <filter
       id="filter2_d_60_642"
       x="124.684"
       y="70.725098"
       width="254.757"
       height="247.129"
       filterUnits="userSpaceOnUse"
       color-interpolation-filters="sRGB">
      <feFlood
         flood-opacity="0"
         result="BackgroundImageFix"
         id="feFlood16" />
      <feColorMatrix
         in="SourceAlpha"
         type="matrix"
         values="0 0 0 0 0 0 0 0 0 0 0 0 0 0 0 0 0 0 127 0"
         result="hardAlpha"
         id="feColorMatrix16" />
      <feOffset
         dx="31"
         dy="4"
         id="feOffset16" />
      <feGaussianBlur
         stdDeviation="4"
         id="feGaussianBlur16" />
      <feComposite
         in2="hardAlpha"
         operator="out"
         id="feComposite16" />
      <feColorMatrix
         type="matrix"
         values="0 0 0 0 0 0 0 0 0 0 0 0 0 0 0 0 0 0 0.25 0"
         id="feColorMatrix17" />
      <feBlend
         mode="normal"
         in2="BackgroundImageFix"
         result="effect1_dropShadow_60_642"
         id="feBlend17" />
      <feBlend
         mode="normal"
         in="SourceGraphic"
         in2="effect1_dropShadow_60_642"
         result="shape"
         id="feBlend18" />
    </filter>
    <filter
       id="filter3_d_60_642"
       x="251.168"
       y="37.993198"
       width="135.88699"
       height="112.996"
       filterUnits="userSpaceOnUse"
       color-interpolation-filters="sRGB">
      <feFlood
         flood-opacity="0"
         result="BackgroundImageFix"
         id="feFlood18" />
      <feColorMatrix
         in="SourceAlpha"
         type="matrix"
         values="0 0 0 0 0 0 0 0 0 0 0 0 0 0 0 0 0 0 127 0"
         result="hardAlpha"
         id="feColorMatrix18" />
      <feOffset
         dx="31"
         dy="4"
         id="feOffset18" />
      <feGaussianBlur
         stdDeviation="4"
         id="feGaussianBlur18" />
      <feComposite
         in2="hardAlpha"
         operator="out"
         id="feComposite18" />
      <feColorMatrix
         type="matrix"
         values="0 0 0 0 0 0 0 0 0 0 0 0 0 0 0 0 0 0 0.25 0"
         id="feColorMatrix19" />
      <feBlend
         mode="normal"
         in2="BackgroundImageFix"
         result="effect1_dropShadow_60_642"
         id="feBlend19" />
      <feBlend
         mode="normal"
         in="SourceGraphic"
         in2="effect1_dropShadow_60_642"
         result="shape"
         id="feBlend20" />
    </filter>
    <filter
       id="filter4_d_60_642"
       x="288.134"
       y="179.03"
       width="98.414101"
       height="160.76601"
       filterUnits="userSpaceOnUse"
       color-interpolation-filters="sRGB">
      <feFlood
         flood-opacity="0"
         result="BackgroundImageFix"
         id="feFlood20" />
      <feColorMatrix
         in="SourceAlpha"
         type="matrix"
         values="0 0 0 0 0 0 0 0 0 0 0 0 0 0 0 0 0 0 127 0"
         result="hardAlpha"
         id="feColorMatrix20" />
      <feOffset
         dx="31"
         dy="4"
         id="feOffset20" />
      <feGaussianBlur
         stdDeviation="4"
         id="feGaussianBlur20" />
      <feComposite
         in2="hardAlpha"
         operator="out"
         id="feComposite20" />
      <feColorMatrix
         type="matrix"
         values="0 0 0 0 0 0 0 0 0 0 0 0 0 0 0 0 0 0 0.25 0"
         id="feColorMatrix21" />
      <feBlend
         mode="normal"
         in2="BackgroundImageFix"
         result="effect1_dropShadow_60_642"
         id="feBlend21" />
      <feBlend
         mode="normal"
         in="SourceGraphic"
         in2="effect1_dropShadow_60_642"
         result="shape"
         id="feBlend22" />
    </filter>
    <filter
       id="filter5_d_60_642"
       x="74.368202"
       y="241.186"
       width="183.739"
       height="170.40601"
       filterUnits="userSpaceOnUse"
       color-interpolation-filters="sRGB">
      <feFlood
         flood-opacity="0"
         result="BackgroundImageFix"
         id="feFlood22" />
      <feColorMatrix
         in="SourceAlpha"
         type="matrix"
         values="0 0 0 0 0 0 0 0 0 0 0 0 0 0 0 0 0 0 127 0"
         result="hardAlpha"
         id="feColorMatrix22" />
      <feOffset
         dx="31"
         dy="14"
         id="feOffset22" />
      <feGaussianBlur
         stdDeviation="4"
         id="feGaussianBlur22" />
      <feComposite
         in2="hardAlpha"
         operator="out"
         id="feComposite22" />
      <feColorMatrix
         type="matrix"
         values="0 0 0 0 0 0 0 0 0 0 0 0 0 0 0 0 0 0 0.25 0"
         id="feColorMatrix23" />
      <feBlend
         mode="normal"
         in2="BackgroundImageFix"
         result="effect1_dropShadow_60_642"
         id="feBlend23" />
      <feBlend
         mode="normal"
         in="SourceGraphic"
         in2="effect1_dropShadow_60_642"
         result="shape"
         id="feBlend24" />
    </filter>
    <filter
       id="filter1_d_60_642-3"
       x="88.536102"
       y="96.772003"
       width="165.062"
       height="96.166"
       filterUnits="userSpaceOnUse"
       color-interpolation-filters="sRGB">
      <feFlood
         flood-opacity="0"
         result="BackgroundImageFix"
         id="feFlood14-5" />
      <feColorMatrix
         in="SourceAlpha"
         type="matrix"
         values="0 0 0 0 0 0 0 0 0 0 0 0 0 0 0 0 0 0 127 0"
         result="hardAlpha"
         id="feColorMatrix14-6" />
      <feOffset
         dx="31"
         dy="4"
         id="feOffset14-2" />
      <feGaussianBlur
         stdDeviation="4"
         id="feGaussianBlur14-9" />
      <feComposite
         in2="hardAlpha"
         operator="out"
         id="feComposite14-1" />
      <feColorMatrix
         type="matrix"
         values="0 0 0 0 0 0 0 0 0 0 0 0 0 0 0 0 0 0 0.25 0"
         id="feColorMatrix15-2" />
      <feBlend
         mode="normal"
         in2="BackgroundImageFix"
         result="effect1_dropShadow_60_642"
         id="feBlend15-7" />
      <feBlend
         mode="normal"
         in="SourceGraphic"
         in2="effect1_dropShadow_60_642"
         result="shape"
         id="feBlend16-0" />
    </filter>
    <filter
       id="filter2_d_60_642-9"
       x="124.684"
       y="70.725098"
       width="254.757"
       height="247.129"
       filterUnits="userSpaceOnUse"
       color-interpolation-filters="sRGB">
      <feFlood
         flood-opacity="0"
         result="BackgroundImageFix"
         id="feFlood16-3" />
      <feColorMatrix
         in="SourceAlpha"
         type="matrix"
         values="0 0 0 0 0 0 0 0 0 0 0 0 0 0 0 0 0 0 127 0"
         result="hardAlpha"
         id="feColorMatrix16-6" />
      <feOffset
         dx="31"
         dy="4"
         id="feOffset16-0" />
      <feGaussianBlur
         stdDeviation="4"
         id="feGaussianBlur16-6" />
      <feComposite
         in2="hardAlpha"
         operator="out"
         id="feComposite16-2" />
      <feColorMatrix
         type="matrix"
         values="0 0 0 0 0 0 0 0 0 0 0 0 0 0 0 0 0 0 0.25 0"
         id="feColorMatrix17-6" />
      <feBlend
         mode="normal"
         in2="BackgroundImageFix"
         result="effect1_dropShadow_60_642"
         id="feBlend17-1" />
      <feBlend
         mode="normal"
         in="SourceGraphic"
         in2="effect1_dropShadow_60_642"
         result="shape"
         id="feBlend18-8" />
    </filter>
    <filter
       id="filter3_d_60_642-7"
       x="251.168"
       y="37.993198"
       width="135.88699"
       height="112.996"
       filterUnits="userSpaceOnUse"
       color-interpolation-filters="sRGB">
      <feFlood
         flood-opacity="0"
         result="BackgroundImageFix"
         id="feFlood18-9" />
      <feColorMatrix
         in="SourceAlpha"
         type="matrix"
         values="0 0 0 0 0 0 0 0 0 0 0 0 0 0 0 0 0 0 127 0"
         result="hardAlpha"
         id="feColorMatrix18-2" />
      <feOffset
         dx="31"
         dy="4"
         id="feOffset18-0" />
      <feGaussianBlur
         stdDeviation="4"
         id="feGaussianBlur18-2" />
      <feComposite
         in2="hardAlpha"
         operator="out"
         id="feComposite18-3" />
      <feColorMatrix
         type="matrix"
         values="0 0 0 0 0 0 0 0 0 0 0 0 0 0 0 0 0 0 0.25 0"
         id="feColorMatrix19-7" />
      <feBlend
         mode="normal"
         in2="BackgroundImageFix"
         result="effect1_dropShadow_60_642"
         id="feBlend19-5" />
      <feBlend
         mode="normal"
         in="SourceGraphic"
         in2="effect1_dropShadow_60_642"
         result="shape"
         id="feBlend20-9" />
    </filter>
    <filter
       id="filter4_d_60_642-2"
       x="288.134"
       y="179.03"
       width="98.414101"
       height="160.76601"
       filterUnits="userSpaceOnUse"
       color-interpolation-filters="sRGB">
      <feFlood
         flood-opacity="0"
         result="BackgroundImageFix"
         id="feFlood20-2" />
      <feColorMatrix
         in="SourceAlpha"
         type="matrix"
         values="0 0 0 0 0 0 0 0 0 0 0 0 0 0 0 0 0 0 127 0"
         result="hardAlpha"
         id="feColorMatrix20-8" />
      <feOffset
         dx="31"
         dy="4"
         id="feOffset20-9" />
      <feGaussianBlur
         stdDeviation="4"
         id="feGaussianBlur20-7" />
      <feComposite
         in2="hardAlpha"
         operator="out"
         id="feComposite20-3" />
      <feColorMatrix
         type="matrix"
         values="0 0 0 0 0 0 0 0 0 0 0 0 0 0 0 0 0 0 0.25 0"
         id="feColorMatrix21-6" />
      <feBlend
         mode="normal"
         in2="BackgroundImageFix"
         result="effect1_dropShadow_60_642"
         id="feBlend21-1" />
      <feBlend
         mode="normal"
         in="SourceGraphic"
         in2="effect1_dropShadow_60_642"
         result="shape"
         id="feBlend22-2" />
    </filter>
    <filter
       id="filter5_d_60_642-9"
       x="74.368202"
       y="241.186"
       width="183.739"
       height="170.40601"
       filterUnits="userSpaceOnUse"
       color-interpolation-filters="sRGB">
      <feFlood
         flood-opacity="0"
         result="BackgroundImageFix"
         id="feFlood22-3" />
      <feColorMatrix
         in="SourceAlpha"
         type="matrix"
         values="0 0 0 0 0 0 0 0 0 0 0 0 0 0 0 0 0 0 127 0"
         result="hardAlpha"
         id="feColorMatrix22-1" />
      <feOffset
         dx="31"
         dy="14"
         id="feOffset22-9" />
      <feGaussianBlur
         stdDeviation="4"
         id="feGaussianBlur22-4" />
      <feComposite
         in2="hardAlpha"
         operator="out"
         id="feComposite22-7" />
      <feColorMatrix
         type="matrix"
         values="0 0 0 0 0 0 0 0 0 0 0 0 0 0 0 0 0 0 0.25 0"
         id="feColorMatrix23-8" />
      <feBlend
         mode="normal"
         in2="BackgroundImageFix"
         result="effect1_dropShadow_60_642"
         id="feBlend23-4" />
      <feBlend
         mode="normal"
         in="SourceGraphic"
         in2="effect1_dropShadow_60_642"
         result="shape"
         id="feBlend24-5" />
    </filter>
    <filter
       id="filter1_d_60_642-1"
       x="88.536102"
       y="96.772003"
       width="165.062"
       height="96.166"
       filterUnits="userSpaceOnUse"
       color-interpolation-filters="sRGB">
      <feFlood
         flood-opacity="0"
         result="BackgroundImageFix"
         id="feFlood14-7" />
      <feColorMatrix
         in="SourceAlpha"
         type="matrix"
         values="0 0 0 0 0 0 0 0 0 0 0 0 0 0 0 0 0 0 127 0"
         result="hardAlpha"
         id="feColorMatrix14-7" />
      <feOffset
         dx="31"
         dy="4"
         id="feOffset14-1" />
      <feGaussianBlur
         stdDeviation="4"
         id="feGaussianBlur14-1" />
      <feComposite
         in2="hardAlpha"
         operator="out"
         id="feComposite14-5" />
      <feColorMatrix
         type="matrix"
         values="0 0 0 0 0 0 0 0 0 0 0 0 0 0 0 0 0 0 0.25 0"
         id="feColorMatrix15-9" />
      <feBlend
         mode="normal"
         in2="BackgroundImageFix"
         result="effect1_dropShadow_60_642"
         id="feBlend15-77" />
      <feBlend
         mode="normal"
         in="SourceGraphic"
         in2="effect1_dropShadow_60_642"
         result="shape"
         id="feBlend16-6" />
    </filter>
    <filter
       id="filter2_d_60_642-7"
       x="124.684"
       y="70.725098"
       width="254.757"
       height="247.129"
       filterUnits="userSpaceOnUse"
       color-interpolation-filters="sRGB">
      <feFlood
         flood-opacity="0"
         result="BackgroundImageFix"
         id="feFlood16-36" />
      <feColorMatrix
         in="SourceAlpha"
         type="matrix"
         values="0 0 0 0 0 0 0 0 0 0 0 0 0 0 0 0 0 0 127 0"
         result="hardAlpha"
         id="feColorMatrix16-5" />
      <feOffset
         dx="31"
         dy="4"
         id="feOffset16-6" />
      <feGaussianBlur
         stdDeviation="4"
         id="feGaussianBlur16-3" />
      <feComposite
         in2="hardAlpha"
         operator="out"
         id="feComposite16-9" />
      <feColorMatrix
         type="matrix"
         values="0 0 0 0 0 0 0 0 0 0 0 0 0 0 0 0 0 0 0.25 0"
         id="feColorMatrix17-4" />
      <feBlend
         mode="normal"
         in2="BackgroundImageFix"
         result="effect1_dropShadow_60_642"
         id="feBlend17-8" />
      <feBlend
         mode="normal"
         in="SourceGraphic"
         in2="effect1_dropShadow_60_642"
         result="shape"
         id="feBlend18-1" />
    </filter>
    <filter
       id="filter3_d_60_642-2"
       x="251.168"
       y="37.993198"
       width="135.88699"
       height="112.996"
       filterUnits="userSpaceOnUse"
       color-interpolation-filters="sRGB">
      <feFlood
         flood-opacity="0"
         result="BackgroundImageFix"
         id="feFlood18-93" />
      <feColorMatrix
         in="SourceAlpha"
         type="matrix"
         values="0 0 0 0 0 0 0 0 0 0 0 0 0 0 0 0 0 0 127 0"
         result="hardAlpha"
         id="feColorMatrix18-9" />
      <feOffset
         dx="31"
         dy="4"
         id="feOffset18-08" />
      <feGaussianBlur
         stdDeviation="4"
         id="feGaussianBlur18-8" />
      <feComposite
         in2="hardAlpha"
         operator="out"
         id="feComposite18-5" />
      <feColorMatrix
         type="matrix"
         values="0 0 0 0 0 0 0 0 0 0 0 0 0 0 0 0 0 0 0.25 0"
         id="feColorMatrix19-0" />
      <feBlend
         mode="normal"
         in2="BackgroundImageFix"
         result="effect1_dropShadow_60_642"
         id="feBlend19-9" />
      <feBlend
         mode="normal"
         in="SourceGraphic"
         in2="effect1_dropShadow_60_642"
         result="shape"
         id="feBlend20-6" />
    </filter>
    <filter
       id="filter4_d_60_642-3"
       x="288.134"
       y="179.03"
       width="98.414101"
       height="160.76601"
       filterUnits="userSpaceOnUse"
       color-interpolation-filters="sRGB">
      <feFlood
         flood-opacity="0"
         result="BackgroundImageFix"
         id="feFlood20-8" />
      <feColorMatrix
         in="SourceAlpha"
         type="matrix"
         values="0 0 0 0 0 0 0 0 0 0 0 0 0 0 0 0 0 0 127 0"
         result="hardAlpha"
         id="feColorMatrix20-5" />
      <feOffset
         dx="31"
         dy="4"
         id="feOffset20-6" />
      <feGaussianBlur
         stdDeviation="4"
         id="feGaussianBlur20-1" />
      <feComposite
         in2="hardAlpha"
         operator="out"
         id="feComposite20-1" />
      <feColorMatrix
         type="matrix"
         values="0 0 0 0 0 0 0 0 0 0 0 0 0 0 0 0 0 0 0.25 0"
         id="feColorMatrix21-5" />
      <feBlend
         mode="normal"
         in2="BackgroundImageFix"
         result="effect1_dropShadow_60_642"
         id="feBlend21-9" />
      <feBlend
         mode="normal"
         in="SourceGraphic"
         in2="effect1_dropShadow_60_642"
         result="shape"
         id="feBlend22-8" />
    </filter>
    <filter
       id="filter5_d_60_642-4"
       x="74.368202"
       y="241.186"
       width="183.739"
       height="170.40601"
       filterUnits="userSpaceOnUse"
       color-interpolation-filters="sRGB">
      <feFlood
         flood-opacity="0"
         result="BackgroundImageFix"
         id="feFlood22-8" />
      <feColorMatrix
         in="SourceAlpha"
         type="matrix"
         values="0 0 0 0 0 0 0 0 0 0 0 0 0 0 0 0 0 0 127 0"
         result="hardAlpha"
         id="feColorMatrix22-10" />
      <feOffset
         dx="31"
         dy="14"
         id="feOffset22-3" />
      <feGaussianBlur
         stdDeviation="4"
         id="feGaussianBlur22-0" />
      <feComposite
         in2="hardAlpha"
         operator="out"
         id="feComposite22-4" />
      <feColorMatrix
         type="matrix"
         values="0 0 0 0 0 0 0 0 0 0 0 0 0 0 0 0 0 0 0.25 0"
         id="feColorMatrix23-4" />
      <feBlend
         mode="normal"
         in2="BackgroundImageFix"
         result="effect1_dropShadow_60_642"
         id="feBlend23-44" />
      <feBlend
         mode="normal"
         in="SourceGraphic"
         in2="effect1_dropShadow_60_642"
         result="shape"
         id="feBlend24-7" />
    </filter>
  </defs>
</svg>
