<?xml version="1.0" encoding="utf-8"?>
<!-- Generator: Adobe Illustrator 27.5.0, SVG Export Plug-In . SVG Version: 6.00 Build 0)  -->
<svg version="1.1" id="Layer_1" xmlns="http://www.w3.org/2000/svg" xmlns:xlink="http://www.w3.org/1999/xlink" x="0px" y="0px"
	 viewBox="0 0 351.7 45" style="enable-background:new 0 0 351.7 45;" xml:space="preserve">
<style type="text/css">
	.st0{fill:#005151;}
</style>
<g>
	<g>
		<path class="st0" d="M75.7,14.4c-0.2-0.3-0.1-0.5,0.2-0.5h2.2c0.2,0,0.4,0,0.5,0.1c0.2,0.1,0.2,0.2,0.3,0.4l5.6,11.5h0.1l5.6-11.5
			c0.1-0.2,0.2-0.3,0.3-0.4c0.2-0.1,0.4-0.1,0.5-0.1h2.2c0.3,0,0.4,0.2,0.2,0.5L85,31.3c-0.1,0.2-0.2,0.3-0.4,0.3h-0.2
			c-0.2,0-0.3-0.1-0.4-0.3L75.7,14.4z"/>
		<path class="st0" d="M111.1,13.6c2.4,0.1,4.6,1,6.3,2.8c1.7,1.7,2.6,3.9,2.6,6.3s-0.9,4.7-2.6,6.3c-1.7,1.7-3.9,2.7-6.3,2.8
			c-5,0-8.9-3.9-8.9-9S106.1,13.6,111.1,13.6z M111.1,29c3.6,0,6.1-3,6.1-6.5s-2.5-6.5-6.1-6.5s-6,3-6,6.5
			C105.1,26.1,107.5,29,111.1,29L111.1,29z"/>
		<path class="st0" d="M141.7,28.8c0.4,0,0.5,0.1,0.5,0.5v1.5c0,0.4-0.1,0.5-0.5,0.5h-10.2c-0.4,0-0.5-0.1-0.5-0.5V14.4
			c0-0.4,0.1-0.5,0.5-0.5h1.9c0.4,0,0.5,0.1,0.5,0.5v14.4H141.7z"/>
		<path class="st0" d="M162.1,13.9c0.4,0,0.5,0.1,0.5,0.5V16c0,0.4-0.1,0.5-0.5,0.5h-5v14.3c0,0.4-0.1,0.5-0.5,0.5h-1.9
			c-0.4,0-0.5-0.1-0.5-0.5V16.5h-5.1c-0.4,0-0.5-0.1-0.5-0.5v-1.6c0-0.4,0.1-0.5,0.5-0.5H162.1L162.1,13.9z"/>
		<path class="st0" d="M175.6,30.8c0,0.4-0.1,0.5-0.5,0.5h-1.9c-0.4,0-0.5-0.1-0.5-0.5V14.4c0-0.4,0.1-0.5,0.5-0.5h6.5
			c2.9,0,6.2,1.4,6.2,5.5c0,3.2-2,4.8-4.3,5.3l4.2,6c0.3,0.4,0.1,0.7-0.4,0.7h-2c-0.2,0-0.4-0.1-0.5-0.1c-0.2-0.1-0.3-0.2-0.4-0.4
			l-4.1-6h-2.8V30.8z M179.5,22.2c2.7,0,3.5-1.3,3.5-2.9s-0.8-2.9-3.5-2.9h-3.9v5.7L179.5,22.2L179.5,22.2z"/>
		<path class="st0" d="M204.8,13.6c2.4,0.1,4.6,1,6.3,2.8c1.7,1.7,2.6,3.9,2.6,6.3s-0.9,4.7-2.6,6.3c-1.7,1.7-3.9,2.7-6.3,2.8
			c-5,0-8.9-3.9-8.9-9C195.8,17.5,199.7,13.6,204.8,13.6z M204.8,29c3.6,0,6.1-3,6.1-6.5s-2.5-6.5-6.1-6.5s-6,3-6,6.5
			S201.2,29,204.8,29L204.8,29z"/>
		<path class="st0" d="M227.5,20L227.5,20l-0.1,10.9c0,0.4-0.1,0.5-0.5,0.5h-1.8c-0.4,0-0.5-0.1-0.5-0.5v-17c0-0.2,0.1-0.2,0.3-0.2
			h0.1c0.1,0,0.2,0,0.2,0.1c0.1,0.1,0.1,0.1,0.2,0.2l11.1,11.4h0.1v-11c0-0.4,0.1-0.5,0.5-0.5h1.8c0.4,0,0.5,0.1,0.5,0.5v16.9
			c0,0.2-0.1,0.3-0.3,0.3H239c-0.1,0-0.2,0-0.2-0.1c-0.1-0.1-0.1-0.1-0.2-0.2L227.5,20z"/>
		<path class="st0" d="M270.6,13.9c5,0,8.8,3.6,8.8,8.7s-3.8,8.7-8.8,8.7h-6.3c-0.4,0-0.5-0.1-0.5-0.5V14.4c0-0.4,0.1-0.5,0.5-0.5
			H270.6L270.6,13.9z M266.7,16.5v12.3h3.9c3.6,0,5.9-2.8,5.9-6.2s-2.3-6.2-5.9-6.2L266.7,16.5z"/>
		<path class="st0" d="M305.9,30.8c0.2,0.3,0.1,0.5-0.2,0.5h-2.2c-0.2,0-0.4,0-0.5-0.1c-0.2-0.1-0.2-0.2-0.3-0.4l-1.6-3.3h-8
			l-1.6,3.3c-0.1,0.2-0.2,0.3-0.3,0.4c-0.2,0.1-0.4,0.1-0.5,0.1h-2.2c-0.3,0-0.4-0.2-0.2-0.5l8.4-16.9c0.1-0.2,0.2-0.3,0.4-0.3h0.2
			c0.2,0,0.3,0.1,0.4,0.3L305.9,30.8z M297,19.1l-2.9,5.9h5.8L297,19.1L297,19.1z"/>
		<path class="st0" d="M326,13.9c0.4,0,0.5,0.1,0.5,0.5V16c0,0.4-0.1,0.5-0.5,0.5h-5v14.3c0,0.4-0.1,0.5-0.5,0.5h-1.9
			c-0.4,0-0.5-0.1-0.5-0.5V16.5H313c-0.4,0-0.5-0.1-0.5-0.5v-1.6c0-0.4,0.1-0.5,0.5-0.5H326L326,13.9z"/>
		<path class="st0" d="M350.9,30.8c0.2,0.3,0.1,0.5-0.2,0.5h-2.2c-0.2,0-0.4,0-0.5-0.1c-0.2-0.1-0.2-0.2-0.4-0.4l-1.6-3.3h-8
			l-1.6,3.3c-0.1,0.2-0.2,0.3-0.3,0.4c-0.2,0.1-0.4,0.1-0.5,0.1h-2.2c-0.3,0-0.4-0.2-0.2-0.5l8.4-16.9c0.1-0.2,0.2-0.3,0.4-0.3h0.2
			c0.2,0,0.3,0.1,0.4,0.3L350.9,30.8z M342,19.1l-2.9,5.9h5.8L342,19.1L342,19.1z"/>
	</g>
	<g>
		<path class="st0" d="M26.1,0.6L26.1,0.6H13.5H0.8l6.3,10.9l6.3,11l6.3,10.9L26,44.3l6.3-10.9l6.3-10.9l-6.3-10.9L26.1,0.6z
			 M30.8,32.5l-4.7,8.1l-4.7-8.1l-5.8-10l5.8-10l4.7-8.1l4.7,8.1l5.7,10L30.8,32.5z"/>
		<polygon class="st0" points="37.6,0.6 38.8,2.6 48.1,2.6 43.4,10.6 44.5,12.6 51.4,0.6 		"/>
	</g>
</g>
</svg>
