<?xml version="1.0" encoding="UTF-8" standalone="no"?>
<!-- Uploaded to: SVG Repo, www.svgrepo.com, Generator: SVG Repo Mixer Tools -->

<svg
   version="1.1"
   id="Capa_1"
   viewBox="0 0 36.000001 36.000001"
   xml:space="preserve"
   sodipodi:docname="Atom_with_text.svg"
   inkscape:version="1.4.2 (2aeb623e1d, 2025-05-12)"
   width="36"
   height="36"
   xmlns:inkscape="http://www.inkscape.org/namespaces/inkscape"
   xmlns:sodipodi="http://sodipodi.sourceforge.net/DTD/sodipodi-0.dtd"
   xmlns="http://www.w3.org/2000/svg"
   xmlns:svg="http://www.w3.org/2000/svg"><defs
   id="defs3" /><sodipodi:namedview
   id="namedview3"
   pagecolor="#ffffff"
   bordercolor="#000000"
   borderopacity="0.25"
   inkscape:showpageshadow="2"
   inkscape:pageopacity="0.0"
   inkscape:pagecheckerboard="0"
   inkscape:deskcolor="#d1d1d1"
   showgrid="false"
   inkscape:zoom="3.7901756"
   inkscape:cx="24.800962"
   inkscape:cy="-35.354562"
   inkscape:window-width="1648"
   inkscape:window-height="961"
   inkscape:window-x="0"
   inkscape:window-y="0"
   inkscape:window-maximized="1"
   inkscape:current-layer="g2" />
<g
   id="g3"
   transform="translate(-209.86549,-209.86549)">
	<rect
   x="0"
   y="0"
   style="fill:none"
   width="455.73099"
   height="455.73099"
   id="rect1" />
	<g
   id="g2">
		
		
		
	<g
   id="Linkedin"
   transform="translate(208.88599,209.86549)"><circle
     id="Ellipse 2"
     cx="18.9795"
     cy="18"
     r="17.5"
     fill="#ffffff"
     stroke="#000000" /></g><g
   id="g4"
   transform="matrix(0.7,0,0,0.7,57.763293,147.36452)"><path
     style="fill:#000000;stroke-width:0.059049"
     d="m 255.64713,102.17779 c -3.64704,-3.647048 -8.49964,-5.655598 -13.66383,-5.655598 v 3.799698 c 4.14926,0 8.04768,1.61327 10.97709,4.54269 2.92937,2.92942 4.54271,6.82784 4.54271,10.97709 h 3.79968 c -5e-5,-5.16419 -2.00861,-10.01683 -5.65565,-13.66388 z"
     id="path1"
     sodipodi:nodetypes="scccccs" /><path
     style="fill:#000000;stroke-width:0.059049"
     d="m 241.94393,102.95211 v 3.79968 c 5.01213,0 9.08987,4.07768 9.08987,9.08994 h 3.79969 c 0,-7.10737 -5.78219,-12.88962 -12.88956,-12.88962 z"
     id="path2"
     sodipodi:nodetypes="ccccc" /><circle
     style="fill:#000000;stroke-width:0.059049"
     cx="244.64188"
     cy="113.22588"
     r="2.7214503"
     id="circle2" /></g><text
   xml:space="preserve"
   style="font-size:8px;font-family:System-ui;-inkscape-font-specification:'System-ui, Normal';text-align:center;writing-mode:lr-tb;direction:ltr;text-anchor:middle;fill:#000000;stroke:none;stroke-width:4"
   x="228.08548"
   y="237.87492"
   id="text1"><tspan
     sodipodi:role="line"
     id="tspan1"
     x="228.08548"
     y="237.87492">ATOM</tspan></text></g>
</g>
</svg>
