<?xml version="1.0" encoding="UTF-8" standalone="no"?>
<svg
   width="32"
   height="32"
   version="1.1"
   id="svg905"
   xmlns="http://www.w3.org/2000/svg"
   xmlns:svg="http://www.w3.org/2000/svg">
  <defs
     id="defs909" />
  <g
     id="g1"
     transform="matrix(0.88888887,0,0,0.88888896,-0.44444234,3.9736433e-7)">
    <ellipse
       style="opacity:1;fill:#ffffff;fill-opacity:1;stroke:#000000;stroke-width:0.972886;stroke-miterlimit:4;stroke-dasharray:none;stroke-opacity:1"
       id="path1012"
       cx="18.499998"
       cy="17.999998"
       rx="17.513557"
       ry="17.513556" />
    <path
       d="m 12.626805,10.100154 c 2.377331,1.784754 4.934423,5.403484 5.873258,7.345507 0.938906,-1.941881 3.495849,-5.560792 5.873258,-7.345507 1.715353,-1.2878025 4.494677,-2.2842323 4.494677,0.886464 0,0.633226 -0.363055,5.319464 -0.575988,6.080255 -0.740165,2.645045 -3.437296,3.319671 -5.836438,2.911354 4.193655,0.713746 5.260476,3.077922 2.956545,5.442097 -4.375627,4.490032 -6.289048,-1.126566 -6.779564,-2.565742 -0.08988,-0.263839 -0.131933,-0.387264 -0.132555,-0.282307 -6.22e-4,-0.104957 -0.0427,0.01847 -0.132555,0.282307 -0.490296,1.439176 -2.403678,7.055916 -6.779556,2.565742 C 9.283916,23.056149 10.350705,20.69183 14.544424,19.978227 12.145218,20.386544 9.4480479,19.711912 8.7079923,17.066873 8.4950466,16.306011 8.1319981,11.619772 8.1319981,10.986618 c 0,-3.1706963 2.7793959,-2.1742665 4.4946839,-0.886464 z"
       fill="#1185fe"
       id="path903"
       style="fill:#000000;stroke-width:0.0357515" />
  </g>
</svg>
