<svg width="37" height="36" viewBox="0 0 37 36" fill="none" xmlns="http://www.w3.org/2000/svg">
<g id="GH">
<circle id="Ellipse 1" cx="18.9795" cy="18" r="17.5" fill="white" stroke="black"/>
<path id="Vector" d="M25.3387 14.3067C25.5424 13.6493 25.6078 12.9569 25.5306 12.2731C25.4535 11.5892 25.2355 10.9287 24.8903 10.3333C24.8318 10.232 24.7476 10.1478 24.6462 10.0893C24.5449 10.0308 24.4299 9.99998 24.3128 10C23.5363 9.99839 22.7702 10.1784 22.0757 10.5257C21.3811 10.8729 20.7774 11.3778 20.3128 12H18.3128C17.8482 11.3778 17.2445 10.8729 16.55 10.5257C15.8555 10.1784 15.0893 9.99839 14.3128 10C14.1958 9.99998 14.0808 10.0308 13.9794 10.0893C13.878 10.1478 13.7939 10.232 13.7353 10.3333C13.3902 10.9287 13.1722 11.5892 13.095 12.2731C13.0179 12.9569 13.0832 13.6493 13.287 14.3067C12.8751 15.0256 12.6545 15.8382 12.6462 16.6667V17.3333C12.6476 18.4613 13.0571 19.5507 13.799 20.4004C14.541 21.25 15.5653 21.8025 16.6828 21.9558C16.2267 22.5396 15.9791 23.2592 15.9795 24V24.6667H13.9795C13.4491 24.6667 12.9404 24.456 12.5653 24.0809C12.1902 23.7058 11.9795 23.1971 11.9795 22.6667C11.9795 22.2289 11.8933 21.7955 11.7258 21.3911C11.5582 20.9866 11.3127 20.6192 11.0032 20.3096C10.6937 20.0001 10.3262 19.7546 9.92177 19.5871C9.51735 19.4196 9.0839 19.3333 8.64616 19.3333C8.46935 19.3333 8.29978 19.4036 8.17475 19.5286C8.04973 19.6536 7.97949 19.8232 7.97949 20C7.97949 20.1768 8.04973 20.3464 8.17475 20.4714C8.29978 20.5964 8.46935 20.6667 8.64616 20.6667C9.17659 20.6667 9.6853 20.8774 10.0604 21.2525C10.4354 21.6275 10.6462 22.1362 10.6462 22.6667C10.6462 23.5507 10.9973 24.3986 11.6225 25.0237C12.2476 25.6488 13.0954 26 13.9795 26H15.9795V27.3333C15.9795 27.5101 16.0497 27.6797 16.1748 27.8047C16.2998 27.9298 16.4693 28 16.6462 28C16.823 28 16.9925 27.9298 17.1176 27.8047C17.2426 27.6797 17.3128 27.5101 17.3128 27.3333V24C17.3128 23.4696 17.5235 22.9609 17.8986 22.5858C18.2737 22.2107 18.7824 22 19.3128 22C19.8433 22 20.352 22.2107 20.727 22.5858C21.1021 22.9609 21.3128 23.4696 21.3128 24V27.3333C21.3128 27.5101 21.3831 27.6797 21.5081 27.8047C21.6331 27.9298 21.8027 28 21.9795 28C22.1563 28 22.3259 27.9298 22.4509 27.8047C22.5759 27.6797 22.6462 27.5101 22.6462 27.3333V24C22.6466 23.2592 22.399 22.5396 21.9428 21.9558C23.0604 21.8025 24.0847 21.25 24.8266 20.4004C25.5686 19.5507 25.9781 18.4613 25.9795 17.3333V16.6667C25.9712 15.8382 25.7506 15.0256 25.3387 14.3067ZM24.6462 17.3333C24.6462 18.2174 24.295 19.0652 23.6698 19.6904C23.0447 20.3155 22.1969 20.6667 21.3128 20.6667H17.3128C16.4288 20.6667 15.5809 20.3155 14.9558 19.6904C14.3307 19.0652 13.9795 18.2174 13.9795 17.3333V16.6667C13.9877 16 14.1873 15.3498 14.5545 14.7933C14.623 14.7031 14.6673 14.5969 14.6833 14.4848C14.6994 14.3727 14.6866 14.2583 14.6462 14.1525C14.4725 13.7047 14.3889 13.227 14.4002 12.7468C14.4115 12.2666 14.5175 11.7934 14.712 11.3542C15.2576 11.4129 15.783 11.5936 16.2492 11.883C16.7155 12.1724 17.1106 12.563 17.4053 13.0258C17.4654 13.1198 17.548 13.1971 17.6457 13.2508C17.7434 13.3046 17.853 13.3329 17.9645 13.3333H20.6603C20.7722 13.3333 20.8823 13.3052 20.9805 13.2514C21.0787 13.1977 21.1617 13.1201 21.222 13.0258C21.5167 12.5629 21.9118 12.1723 22.3781 11.8829C22.8443 11.5935 23.3697 11.4128 23.9153 11.3542C24.1096 11.7935 24.2152 12.2668 24.2262 12.7469C24.2373 13.2271 24.1534 13.7048 23.9795 14.1525C23.9392 14.2573 23.9257 14.3705 23.9403 14.4818C23.9548 14.5932 23.997 14.6991 24.0628 14.79C24.4337 15.3464 24.6362 15.998 24.6462 16.6667V17.3333Z" fill="black"/>
</g>
</svg>
