<?xml version="1.0" encoding="UTF-8" standalone="no"?>
<svg
   width="32"
   height="32"
   viewBox="0 0 32 32"
   fill="none"
   version="1.1"
   id="svg1"
   xmlns="http://www.w3.org/2000/svg"
   xmlns:svg="http://www.w3.org/2000/svg">
  <defs
     id="defs1" />
  <g
     id="GH"
     transform="translate(-2.9794998,-2)">
    <g
       id="g1"
       transform="matrix(0.88888889,0,0,0.88888889,2.1088333,2)">
      <circle
         id="Ellipse 1"
         cx="18.9795"
         cy="18"
         r="17.5"
         fill="#ffffff"
         stroke="#000000" />
      <path
         id="Vector"
         d="m 25.3387,13.306705 c 0.2037,-0.6574 0.2691,-1.3498 0.1919,-2.0336 -0.0771,-0.6839 -0.2951,-1.3443996 -0.6403,-1.9397996 -0.0585,-0.1013 -0.1427,-0.1855 -0.2441,-0.244 -0.1013,-0.0585 -0.2163,-0.08932 -0.3334,-0.0893 -0.7765,-0.00161 -1.5426,0.1784 -2.2371,0.5257 -0.6946,0.3472 -1.2983,0.8520996 -1.7629,1.4742996 h -2 c -0.4646,-0.6222 -1.0683,-1.1270996 -1.7628,-1.4742996 -0.6945,-0.3473 -1.4607,-0.52731 -2.2372,-0.5257 -0.117,-2e-5 -0.232,0.0308 -0.3334,0.0893 -0.1014,0.0585 -0.1855,0.1427 -0.2441,0.244 -0.3451,0.5954 -0.5631,1.2558996 -0.6403,1.9397996 -0.0771,0.6838 -0.0118,1.3762 0.192,2.0336 -0.4119,0.7189 -0.6325,1.5315 -0.6408,2.36 v 0.6666 c 0.0014,1.128 0.4109,2.2174 1.1528,3.0671 0.742,0.8496 1.7663,1.4021 2.8838,1.5554 -0.4561,0.5838 -0.7037,1.3034 -0.7033,2.0442 v 0.6667 h -2 c -0.5304,0 -1.0391,-0.2107 -1.4142,-0.5858 -0.3751,-0.3751 -0.5858,-0.8838 -0.5858,-1.4142 0,-0.4378 -0.0862,-0.8712 -0.2537,-1.2756 -0.1676,-0.4045 -0.4131,-0.7719 -0.7226,-1.0815 -0.3095,-0.3095 -0.677,-0.555 -1.08143,-0.7225 -0.40442,-0.1675 -0.83787,-0.2538 -1.27561,-0.2538 -0.17681,0 -0.34638,0.0703 -0.47141,0.1953 -0.12502,0.125 -0.19526,0.2946 -0.19526,0.4714 0,0.1768 0.07024,0.3464 0.19526,0.4714 0.12503,0.125 0.2946,0.1953 0.47141,0.1953 0.53043,0 1.03914,0.2107 1.41424,0.5858 0.375,0.375 0.5858,0.8837 0.5858,1.4142 0,0.884 0.3511,1.7319 0.9763,2.357 0.6251,0.6251 1.4729,0.9763 2.357,0.9763 h 2 v 1.3333 c 0,0.1768 0.0702,0.3464 0.1953,0.4714 0.125,0.1251 0.2945,0.1953 0.4714,0.1953 0.1768,0 0.3463,-0.0702 0.4714,-0.1953 0.125,-0.125 0.1952,-0.2946 0.1952,-0.4714 v -3.3333 c 0,-0.5304 0.2107,-1.0391 0.5858,-1.4142 0.3751,-0.3751 0.8838,-0.5858 1.4142,-0.5858 0.5305,0 1.0392,0.2107 1.4142,0.5858 0.3751,0.3751 0.5858,0.8838 0.5858,1.4142 v 3.3333 c 0,0.1768 0.0703,0.3464 0.1953,0.4714 0.125,0.1251 0.2946,0.1953 0.4714,0.1953 0.1768,0 0.3464,-0.0702 0.4714,-0.1953 0.125,-0.125 0.1953,-0.2946 0.1953,-0.4714 v -3.3333 c 4e-4,-0.7408 -0.2472,-1.4604 -0.7034,-2.0442 1.1176,-0.1533 2.1419,-0.7058 2.8838,-1.5554 0.742,-0.8497 1.1515,-1.9391 1.1529,-3.0671 v -0.6666 c -0.0083,-0.8285 -0.2289,-1.6411 -0.6408,-2.36 z m -0.6925,3.0266 c 0,0.8841 -0.3512,1.7319 -0.9764,2.3571 -0.6251,0.6251 -1.4729,0.9763 -2.357,0.9763 h -4 c -0.884,0 -1.7319,-0.3512 -2.357,-0.9763 -0.6251,-0.6252 -0.9763,-1.473 -0.9763,-2.3571 v -0.6666 c 0.0082,-0.6667 0.2078,-1.3169 0.575,-1.8734 0.0685,-0.0902 0.1128,-0.1964 0.1288,-0.3085 0.0161,-0.1121 0.0033,-0.2265 -0.0371,-0.3323 -0.1737,-0.4478 -0.2573,-0.9255 -0.246,-1.4057 0.0113,-0.4802 0.1173,-0.9534 0.3118,-1.3926 0.5456,0.0587 1.071,0.2394 1.5372,0.5288 0.4663,0.2894 0.8614,0.68 1.1561,1.1428 0.0601,0.094 0.1427,0.1713 0.2404,0.225 0.0977,0.0538 0.2073,0.0821 0.3188,0.0825 h 2.6958 c 0.1119,0 0.222,-0.0281 0.3202,-0.0819 0.0982,-0.0537 0.1812,-0.1313 0.2415,-0.2256 0.2947,-0.4629 0.6898,-0.8535 1.1561,-1.1429 0.4662,-0.2894 0.9916,-0.4701 1.5372,-0.5287 0.1943,0.4393 0.2999,0.9126 0.3109,1.3927 0.0111,0.4802 -0.0728,0.9579 -0.2467,1.4056 -0.0403,0.1048 -0.0538,0.218 -0.0392,0.3293 0.0145,0.1114 0.0567,0.2173 0.1225,0.3082 0.3709,0.5564 0.5734,1.208 0.5834,1.8767 z"
         fill="#000000" />
    </g>
  </g>
</svg>
