<?xml version="1.0" encoding="UTF-8" standalone="no"?>
<svg
   width="32"
   height="32"
   viewBox="0 0 32 32"
   fill="none"
   version="1.1"
   id="svg1"
   xmlns="http://www.w3.org/2000/svg"
   xmlns:svg="http://www.w3.org/2000/svg">
  <defs
     id="defs1" />
  <g
     id="Linkedin"
     transform="translate(-2.9794998,-2)">
    <g
       id="g1"
       transform="matrix(0.88888889,0,0,0.88888889,2.1088333,2)">
      <circle
         id="Ellipse 2"
         cx="18.9795"
         cy="18"
         r="17.5"
         fill="#ffffff"
         stroke="#000000" />
      <path
         id="Vector"
         d="m 10.9795,14.6667 h 3.3333 V 26 h -3.3333 z m 1.6567,-1.3334 h -0.0187 c -0.9947,0 -1.638,-0.7413 -1.638,-1.6673 0,-0.946 0.6633,-1.666 1.676,-1.666 1.014,0 1.6387,0.72 1.6573,1.666 0,0.9253 -0.6433,1.6673 -1.6766,1.6673 z M 26.9795,26 h -3.3333 v -6.066 c 0,-1.4653 -0.8167,-2.4653 -2.128,-2.4653 -1.0007,0 -1.542,0.6746 -1.8047,1.3266 -0.096,0.2334 -0.0673,0.8787 -0.0673,1.2047 v 6 H 16.3128 V 14.6667 h 3.3334 v 1.744 c 0.4806,-0.744 1.2333,-1.744 3.1586,-1.744 2.3854,0 4.174,1.5 4.174,4.8493 z"
         fill="#000000" />
    </g>
  </g>
</svg>
