<svg width="37" height="36" viewBox="0 0 37 36" fill="none" xmlns="http://www.w3.org/2000/svg">
<g id="Linkedin">
<circle id="Ellipse 2" cx="18.9795" cy="18" r="17.5" fill="white" stroke="black"/>
<path id="Vector" d="M11.9795 14.6667H15.3128V26H11.9795V14.6667ZM13.6362 13.3333H13.6175C12.6228 13.3333 11.9795 12.592 11.9795 11.666C11.9795 10.72 12.6428 10 13.6555 10C14.6695 10 15.2942 10.72 15.3128 11.666C15.3128 12.5913 14.6695 13.3333 13.6362 13.3333ZM27.9795 26H24.6462V19.934C24.6462 18.4687 23.8295 17.4687 22.5182 17.4687C21.5175 17.4687 20.9762 18.1433 20.7135 18.7953C20.6175 19.0287 20.6462 19.674 20.6462 20V26H17.3128V14.6667H20.6462V16.4107C21.1268 15.6667 21.8795 14.6667 23.8048 14.6667C26.1902 14.6667 27.9788 16.1667 27.9788 19.516L27.9795 26Z" fill="black"/>
</g>
</svg>
