<?xml version="1.0" encoding="UTF-8" standalone="no"?>
<svg
   width="32"
   height="32"
   viewBox="0 0 29.999996 30"
   version="1.1"
   id="svg3157"
   xmlns="http://www.w3.org/2000/svg"
   xmlns:svg="http://www.w3.org/2000/svg">
  <defs
     id="defs3161" />
  <g
     id="g1"
     transform="translate(-2.3437472,-1.8749971)">
    <g
       id="g2"
       transform="matrix(0.8888889,0,0,0.888889,1.9270827,1.8749976)">
      <ellipse
         style="fill:#ffffff;fill-opacity:1;stroke:#000000;stroke-width:0.91208;stroke-miterlimit:4;stroke-dasharray:none;stroke-opacity:1"
         id="path1012"
         cx="17.343746"
         cy="16.874996"
         rx="16.418959"
         ry="16.418957" />
      <g
         id="g2768"
         transform="matrix(0.63812641,0,0,0.65635142,7.7718515,7.0297277)">
        <g
           id="g2763">
          <path
             fill="#2b90d9"
             d="m 28.396037,17.9847 c -0.41135,2.11623 -3.68422,4.43224 -7.44311,4.88109 -1.9601,0.23388 -3.88998,0.44885 -5.94786,0.35446 -3.36549,-0.1542 -6.0210904,-0.80331 -6.0210904,-0.80331 0,0.32763 0.0202,0.63958 0.0606,0.93132 0.43753,3.32136 3.2933904,3.52033 5.9986104,3.6131 2.73043,0.0934 5.16169,-0.67319 5.16169,-0.67319 l 0.11217,2.46843 c 0,0 -1.90983,1.02555 -5.312,1.21417 -1.87606,0.10312 -4.20548,-0.0472 -6.9186204,-0.76532 -5.884342,-1.55748 -6.896315,-7.82989 -7.051157,-14.19428 -0.0472,-1.88963 -0.0181,-3.67145 -0.0181,-5.16169 0,-6.50791 4.26399,-8.41548 4.26399,-8.41548 C 7.4311666,0.44659 11.120397,0.03136 14.955747,0 h 0.0942 c 3.83534,0.0314 7.527,0.44659 9.67685,1.434 0,0 4.26383,1.90757 4.26383,8.41548 0,0 0.0535,4.80158 -0.59464,8.13522"
             id="path3153"
             style="fill:#000000;stroke-width:0.129305" />
          <path
             fill="#ffffff"
             d="m 23.961157,13.69466 v 7.88 h -3.12191 v -7.64838 c 0,-1.61227 -0.67836,-2.43061 -2.03526,-2.43061 -1.50026,0 -2.25217,0.97076 -2.25217,2.89029 v 4.1864 h -3.10347 v -4.1864 c 0,-1.91953 -0.75207,-2.89029 -2.25233,-2.89029 -1.3569004,0 -2.0352604,0.81834 -2.0352604,2.43061 v 7.64838 h -3.12191 v -7.88 c 0,-1.61049 0.41006,-2.89029 1.23373,-3.83712 0.84938,-0.94684 1.96172,-1.43221 3.3425304,-1.43221 1.59757,0 2.80738,0.61403 3.60729,1.84227 l 0.7776,1.30355 0.77777,-1.30355 c 0.79975,-1.22824 2.00956,-1.84227 3.60729,-1.84227 1.38065,0 2.49299,0.48537 3.34253,1.43221 0.82351,0.94683 1.23357,2.22663 1.23357,3.83712"
             id="path3155"
             style="stroke-width:0.129305" />
        </g>
      </g>
    </g>
  </g>
</svg>
