<?xml version="1.0" encoding="UTF-8" standalone="no"?>
<!-- Created with Inkscape (http://www.inkscape.org/) -->

<svg
   xmlns:dc="http://purl.org/dc/elements/1.1/"
   xmlns:cc="http://creativecommons.org/ns#"
   xmlns:rdf="http://www.w3.org/1999/02/22-rdf-syntax-ns#"
   xmlns:svg="http://www.w3.org/2000/svg"
   xmlns="http://www.w3.org/2000/svg"
   xmlns:sodipodi="http://sodipodi.sourceforge.net/DTD/sodipodi-0.dtd"
   xmlns:inkscape="http://www.inkscape.org/namespaces/inkscape"
   width="117.77425mm"
   height="47.309528mm"
   viewBox="0 0 117.77425 47.309528"
   version="1.1"
   id="svg867"
   inkscape:version="0.92.4 (unknown)"
   sodipodi:docname="robostack.svg">
  <defs
     id="defs861" />
  <sodipodi:namedview
     id="base"
     pagecolor="#ffffff"
     bordercolor="#666666"
     borderopacity="1.0"
     inkscape:pageopacity="0.0"
     inkscape:pageshadow="2"
     inkscape:zoom="0.35"
     inkscape:cx="448.27968"
     inkscape:cy="-170.59616"
     inkscape:document-units="mm"
     inkscape:current-layer="layer1"
     showgrid="false"
     fit-margin-top="0"
     fit-margin-left="0"
     fit-margin-right="0"
     fit-margin-bottom="0"
     inkscape:window-width="2560"
     inkscape:window-height="1376"
     inkscape:window-x="0"
     inkscape:window-y="27"
     inkscape:window-maximized="1" />
  <metadata
     id="metadata864">
    <rdf:RDF>
      <cc:Work
         rdf:about="">
        <dc:format>image/svg+xml</dc:format>
        <dc:type
           rdf:resource="http://purl.org/dc/dcmitype/StillImage" />
        <dc:title></dc:title>
      </cc:Work>
    </rdf:RDF>
  </metadata>
  <g
     inkscape:label="Layer 1"
     inkscape:groupmode="layer"
     id="layer1"
     transform="translate(166.98828,-56.386904)">
    <path
       id="path1520-8"
       d="m -136.0687,74.104108 c -0.0147,0.4513 0.0852,0.88055 0.27352,1.2594 l -1.87599,2.144719 c -0.44267,0.50586 -0.46757,1.26066 -0.0587,1.79461 l 1.58204,2.06717 c 0.12065,0.15767 0.30289,0.24033 0.48704,0.24033 0.1299,0 0.26075,-0.0412 0.37213,-0.126039 0.26873,-0.205871 0.3198,-0.590441 0.11394,-0.85917 l -1.58206,-2.06718 c -0.0552,-0.0722 -0.052,-0.174251 0.008,-0.242871 l 1.74993,-2.000469 c 0.41713,0.309269 0.92874,0.499799 1.48598,0.517989 0.0291,9.79e-4 0.0584,10e-4 0.0874,10e-4 0.52438,0 1.01556,-0.15448 1.42886,-0.42128 l 1.61557,2.11088 c 0.0552,0.0722 0.052,0.17427 -0.008,0.24289 l -1.71387,1.95929 c -0.22276,0.25468 -0.19691,0.64182 0.0578,0.86459 0.11617,0.10185 0.2598,0.1516 0.4031,0.1516 0.17075,0 0.34022,-0.0709 0.4615,-0.20936 l 1.71386,-1.9593 c 0.44267,-0.50586 0.46757,-1.26066 0.0587,-1.79462 l -1.73206,-2.26281 c 0.21287,-0.36575 0.34086,-0.78735 0.35554,-1.23896 l 0.0814,-2.49036 c 0.0728,-0.0881 0.1417,-0.18001 0.20713,-0.27543 1.18662,-1.7327 0.74235,-4.10785 -0.99034,-5.294481 l -8.36695,-5.730409 c -0.0814,-0.82598 -0.39862,-1.63726 -0.96289,-2.32633 -0.73725,-0.90034 -1.78089,-1.45949 -2.93878,-1.57472 -1.15758,-0.11521 -2.29122,0.22693 -3.19124,0.96418 l -13.82964,11.32554 c -0.93672,-0.24287 -1.9593,-0.15958 -2.88644,0.29969 -1.89642,0.93959 -2.7824,3.14847 -2.06111,5.13808 l 2.12175,5.853001 c 0.11521,0.318509 0.46724,0.48287 0.78512,0.36734 0.3182,-0.115211 0.48256,-0.466601 0.36703,-0.784791 l -2.12175,-5.853 c -0.50873,-1.402689 0.11617,-2.95985 1.45312,-3.622409 0.72384,-0.358731 1.53035,-0.392241 2.2459,-0.148091 0.0179,0.007 0.0361,0.0141 0.0543,0.0191 0.58373,0.21193 1.10268,0.60991 1.46205,1.16747 l 6.8561,10.64607 c -0.4382,-0.0715 -0.88789,-0.108461 -1.34588,-0.108461 -2.70772,0 -5.11862,1.29417 -6.64673,3.29656 l -0.95811,-2.64261 c -0.11553,-0.31819 -0.4666,-0.482879 -0.78512,-0.367339 -0.3182,0.115489 -0.48256,0.46692 -0.36703,0.785121 l 1.28492,3.544218 c -0.56618,1.126291 -0.88534,2.39717 -0.88534,3.741452 v 1.121828 h -1.19842 c -1.88047,0 -3.41082,1.530051 -3.41082,3.41082 v 2.547181 c 0,0.61182 0.49756,1.109379 1.10907,1.109379 h 23.71484 c 0.6115,0 1.10906,-0.497559 1.10906,-1.109379 v -2.547181 c 0,-1.880769 -1.53003,-3.41082 -3.41081,-3.41082 h -1.19843 v -1.121828 c 0,-3.504642 -2.16802,-6.512042 -5.23351,-7.751952 l -4.44935,-6.908449 10.85097,-8.885931 3.01027,2.061441 c 0.10596,0.0725 0.2266,0.107199 0.34565,0.107199 0.19564,0 0.38745,-0.0931 0.50618,-0.26651 0.19117,-0.27925 0.11999,-0.66065 -0.15926,-0.85183 l -2.71505,-1.859399 1.90599,-1.56099 c 0.77236,-0.63255 1.27088,-1.47704 1.48088,-2.38152 l 7.76697,5.31936 c 1.17513,0.80459 1.47641,2.41568 0.67182,3.59082 -0.0734,0.106911 -0.15351,0.20745 -0.24001,0.300631 -0.003,0.003 -0.006,0.006 -0.009,0.008 -0.0798,0.0855 -0.16436,0.164059 -0.25277,0.236499 -0.002,0.001 -0.004,0.003 -0.006,0.004 -0.005,0.004 -0.01,0.007 -0.0144,0.0113 -0.006,0.006 -0.0128,0.01 -0.0195,0.0156 -2.6e-4,3.18e-4 -7.9e-4,6.88e-4 -0.001,9.79e-4 -0.32203,0.25149 -0.70182,0.42415 -1.11513,0.50139 -0.42256,0.0792 -0.84895,0.0523 -1.24789,-0.0731 -0.003,-9.79e-4 -0.006,-0.001 -0.009,-0.003 -0.006,-0.001 -0.0121,-0.004 -0.0182,-0.006 -0.005,-0.001 -0.009,-0.003 -0.0138,-0.004 -0.004,-0.001 -0.008,-0.003 -0.0118,-0.004 -0.006,-0.003 -0.0128,-0.004 -0.0188,-0.007 -0.002,-3.17e-4 -0.004,-9.79e-4 -0.005,-0.001 -0.19501,-0.0682 -0.38459,-0.16117 -0.56459,-0.27894 -2.6e-4,0 -7.9e-4,-3.18e-4 -0.001,-6.88e-4 -0.015,-0.01 -0.0297,-0.0198 -0.0447,-0.03 l -3.10953,-2.12951 c -0.27926,-0.19117 -0.66033,-0.11999 -0.85183,0.15926 -0.19117,0.27926 -0.12,0.66065 0.15926,0.85182 l 2.88868,1.97846 z m -8.22144,18.44943 c 1.20513,0 2.18558,0.98044 2.18558,2.185569 v 2.430691 h -23.48218 v -2.430691 c 0,-1.205129 0.98045,-2.185569 2.18526,-2.185569 z m -13.0209,-2.73771 c 0,-1.910792 1.55461,-3.465092 3.46539,-3.465092 1.91046,0 3.46507,1.5543 3.46507,3.465092 0,0.5266 -0.11905,1.04331 -0.3466,1.512139 h -6.23726 c -0.22756,-0.468829 -0.3466,-0.985219 -0.3466,-1.512139 z m 10.59724,0.390311 v 1.121828 h -2.69112 c 0.16468,-0.484151 0.2499,-0.994479 0.2499,-1.512139 0,-2.58645 -2.10451,-4.690642 -4.69095,-4.690642 -2.58643,0 -4.69063,2.104192 -4.69063,4.690642 0,0.51734 0.0852,1.027988 0.2499,1.512139 h -2.69112 v -1.121828 c 0,-3.932301 3.19954,-7.131831 7.13217,-7.131831 3.93231,0 7.13185,3.19953 7.13185,7.131831 z m 4.51094,-26.864572 -13.63623,11.167241 -2.48655,-3.861141 c -0.32043,-0.497559 -0.73086,-0.905769 -1.19747,-1.21471 l 13.35346,-10.93522 c 0.64693,-0.52979 1.4611,-0.77618 2.29346,-0.6932 0.83203,0.083 1.58205,0.48479 2.11185,1.13172 1.09374,1.33535 0.89714,3.31188 -0.43852,4.40531 z m 7.35908,10.80244 0.038,-1.15758 c 0.0728,0.0236 0.14649,0.045 0.22054,0.0639 0.002,6.62e-4 0.005,0.001 0.006,0.001 0.01,0.003 0.0198,0.006 0.0297,0.007 0.007,10e-4 0.0147,0.003 0.022,0.006 0.002,3.44e-4 0.005,9.79e-4 0.007,10e-4 0.86012,0.20586 1.7662,0.10466 2.55835,-0.28436 l -0.0479,1.4547 c -0.0255,0.78129 -0.67789,1.39662 -1.46365,1.37077 -0.78129,-0.0256 -1.39631,-0.68205 -1.37077,-1.46364 z m 0,0"
       inkscape:connector-curvature="0"
       style="fill:#000080;stroke:#ffffff;stroke-width:0.35208887" />
    <g
       aria-label="RoboStack"
       style="font-style:normal;font-weight:normal;font-size:17.63857269px;line-height:1.25;font-family:sans-serif;letter-spacing:0px;word-spacing:0px;fill:#000000;fill-opacity:1;stroke:none;stroke-width:0.26458332"
       id="text817-6">
      <path
         d="m -128.00334,97.39301 q 0.0882,0.141109 0.0882,0.264579 0,0.211663 -0.24694,0.352771 -0.14111,0.08819 -0.26458,0.08819 -0.2293,0 -0.35277,-0.229301 l -2.91037,-4.603668 h -3.2455 v 4.268535 q 0,0.458603 -0.4586,0.458603 -0.4586,0 -0.4586,-0.458603 V 87.092084 q 0,-0.458603 0.4586,-0.458603 h 4.12743 q 1.49928,0 2.27537,0.776097 0.7761,0.776097 0.7761,2.275376 v 0.529157 q 0,1.340532 -0.61735,2.09899 -0.59971,0.758459 -1.7815,0.917206 z m -6.93196,-5.044632 h 3.66883 q 1.12887,0 1.62275,-0.49388 0.51151,-0.511518 0.51151,-1.640387 v -0.529157 q 0,-1.11123 -0.51151,-1.622749 -0.49388,-0.511518 -1.62275,-0.511518 h -3.66883 z"
         style="font-style:normal;font-variant:normal;font-weight:normal;font-stretch:normal;font-family:Jura;-inkscape-font-specification:Jura;fill:#000080;stroke-width:0.26458332"
         id="path1458" />
      <path
         d="m -122.46841,97.992722 q -1.65802,0 -2.41648,-0.758459 -0.75846,-0.758459 -0.75846,-2.398846 v -1.993159 q 0,-1.675664 0.75846,-2.434123 0.75846,-0.758458 2.41648,-0.74082 h 1.44636 q 1.65803,0 2.41649,0.758459 0.75846,0.758458 0.75846,2.416484 v 1.97552 q 0,1.658026 -0.75846,2.416485 -0.75846,0.758459 -2.41649,0.758459 z m 1.44636,-0.917206 q 1.25234,0 1.74622,-0.49388 0.51152,-0.511519 0.51152,-1.763858 v -1.97552 q 0,-1.252338 -0.51152,-1.746218 -0.49388,-0.511519 -1.74622,-0.511519 h -1.44636 q -1.25234,-0.01764 -1.76386,0.49388 -0.49388,0.49388 -0.49388,1.763857 v 1.993159 q 0,1.252339 0.49388,1.746219 0.51152,0.49388 1.76386,0.49388 z"
         style="font-style:normal;font-variant:normal;font-weight:normal;font-stretch:normal;font-family:Jura;-inkscape-font-specification:Jura;fill:#000080;stroke-width:0.26458332"
         id="path1460" />
      <path
         d="m -110.18204,89.649677 q 1.65803,0 2.41648,0.776097 0.75846,0.758458 0.75846,2.398846 v 1.993158 q 0,1.640388 -0.75846,2.416485 -0.75845,0.758459 -2.41648,0.758459 h -0.67027 q -2.22246,0 -3.03383,-1.217062 v 0.758459 q 0,0.458603 -0.4586,0.458603 -0.45861,0 -0.45861,-0.458603 V 86.227794 q 0,-0.458603 0.45861,-0.458603 0.4586,0 0.4586,0.458603 v 4.656583 q 0.81137,-1.2347 3.03383,-1.2347 z m 2.25774,3.174943 q 0,-1.252339 -0.49388,-1.746219 -0.49388,-0.511519 -1.76386,-0.511519 h -0.67027 q -1.41108,0 -2.22246,0.458603 -0.81137,0.440965 -0.81137,1.305255 v 2.910364 0.08819 q 0,0.846652 0.81137,1.305254 0.81138,0.440965 2.22246,0.440965 h 0.67027 q 1.26998,0 1.76386,-0.49388 0.49388,-0.511519 0.49388,-1.763858 z"
         style="font-style:normal;font-variant:normal;font-weight:normal;font-stretch:normal;font-family:Jura;-inkscape-font-specification:Jura;fill:#000080;stroke-width:0.26458332"
         id="path1462" />
      <path
         d="m -101.00585,97.992722 q -1.65802,0 -2.41648,-0.758459 -0.75846,-0.758459 -0.75846,-2.398846 v -1.993159 q 0,-1.675664 0.75846,-2.434123 0.75846,-0.758458 2.41648,-0.74082 h 1.446365 q 1.658026,0 2.416484,0.758459 0.758459,0.758458 0.758459,2.416484 v 1.97552 q 0,1.658026 -0.758459,2.416485 -0.758458,0.758459 -2.416484,0.758459 z m 1.446365,-0.917206 q 1.252339,0 1.746219,-0.49388 0.511518,-0.511519 0.511518,-1.763858 v -1.97552 q 0,-1.252338 -0.511518,-1.746218 -0.49388,-0.511519 -1.746219,-0.511519 h -1.446365 q -1.25234,-0.01764 -1.76386,0.49388 -0.49388,0.49388 -0.49388,1.763857 v 1.993159 q 0,1.252339 0.49388,1.746219 0.51152,0.49388 1.76386,0.49388 z"
         style="font-style:normal;font-variant:normal;font-weight:normal;font-stretch:normal;font-family:Jura;-inkscape-font-specification:Jura;fill:#000080;stroke-width:0.26458332"
         id="path1464" />
      <path
         d="m -90.430423,97.975083 q -1.569833,0 -2.328291,-0.687904 -0.758459,-0.705543 -0.811375,-2.222461 -0.01764,-0.211662 0.105832,-0.335132 0.141108,-0.141109 0.352771,-0.141109 0.194025,0 0.317495,0.12347 0.12347,0.12347 0.141108,0.335133 0.03528,1.128869 0.529157,1.569833 0.49388,0.440964 1.693303,0.440964 h 2.539955 q 1.269977,0 1.746218,-0.476241 0.49388,-0.49388 0.49388,-1.746219 0,-1.252339 -0.49388,-1.72858 -0.49388,-0.49388 -1.746218,-0.49388 h -2.416485 q -1.552194,0 -2.275376,-0.723182 -0.723181,-0.723181 -0.723181,-2.275375 0,-1.534556 0.723181,-2.257738 0.723182,-0.723181 2.257738,-0.723181 h 2.487038 q 1.481641,0 2.187183,0.670266 0.723182,0.670265 0.776098,2.081351 0.01764,0.211663 -0.12347,0.335133 -0.12347,0.12347 -0.335133,0.12347 -0.194025,0 -0.317495,-0.12347 -0.12347,-0.12347 -0.141108,-0.317494 -0.01764,-1.023038 -0.49388,-1.428725 -0.458603,-0.423325 -1.552195,-0.423325 h -2.487038 q -1.146508,0 -1.60511,0.458602 -0.458603,0.458603 -0.458603,1.605111 0,1.164145 0.458603,1.622748 0.458602,0.458603 1.622748,0.458603 h 2.416485 q 1.640387,0 2.398846,0.758459 0.758458,0.758458 0.758458,2.381207 0,1.622749 -0.758458,2.381207 -0.758459,0.758459 -2.398846,0.758459 z"
         style="font-style:normal;font-variant:normal;font-weight:normal;font-stretch:normal;font-family:Jura;-inkscape-font-specification:Jura;fill:#000080;stroke-width:0.26458332"
         id="path1466" />
      <path
         d="m -78.292328,97.075516 q 0.476241,0 0.476241,0.458603 0,0.458603 -0.476241,0.458603 -1.622749,0 -2.381207,-0.74082 -0.74082,-0.740821 -0.74082,-2.363569 v -4.303812 h -1.058315 q -0.458603,0 -0.458603,-0.458603 0,-0.458603 0.458603,-0.458603 h 1.058315 v -1.904966 q 0,-0.458602 0.458602,-0.458602 0.458603,0 0.458603,0.458602 v 1.904966 h 2.222461 q 0.458602,0 0.458602,0.458603 0,0.458603 -0.458602,0.458603 h -2.222461 v 4.303812 q 0,1.2347 0.476242,1.710941 0.49388,0.476242 1.72858,0.476242 z"
         style="font-style:normal;font-variant:normal;font-weight:normal;font-stretch:normal;font-family:Jura;-inkscape-font-specification:Jura;fill:#000080;stroke-width:0.26458332"
         id="path1468" />
      <path
         d="m -71.852046,89.667315 q 1.658026,0 2.416484,0.758459 0.758459,0.758458 0.758459,2.416484 v 4.691861 q 0,0.458603 -0.458603,0.458603 -0.458603,0 -0.458603,-0.458603 v -0.86429 q -0.423325,0.652627 -1.199423,0.98776 -0.758458,0.335133 -1.834411,0.335133 h -0.98776 q -1.35817,0 -2.010798,-0.634989 -0.634988,-0.634989 -0.634988,-2.010797 0,-1.375809 0.634988,-2.010798 0.652628,-0.652627 2.010798,-0.652627 h 4.021594 q -0.03528,-1.164146 -0.529157,-1.622749 -0.49388,-0.476241 -1.72858,-0.476241 h -1.023037 q -1.128869,0 -1.640387,0.24694 -0.511519,0.229301 -0.634989,0.811374 -0.07055,0.229302 -0.176386,0.335133 -0.105831,0.08819 -0.299856,0.08819 -0.24694,0 -0.37041,-0.12347 -0.105831,-0.12347 -0.08819,-0.352771 0.12347,-1.005399 0.899567,-1.464002 0.793736,-0.458603 2.310653,-0.458603 z m 2.257737,5.503235 v -1.569833 h -4.021594 q -0.98776,0 -1.35817,0.388049 -0.37041,0.37041 -0.37041,1.35817 0,0.970121 0.37041,1.35817 0.388048,0.37041 1.35817,0.37041 h 0.98776 q 2.733979,0 2.998557,-1.763857 z"
         style="font-style:normal;font-variant:normal;font-weight:normal;font-stretch:normal;font-family:Jura;-inkscape-font-specification:Jura;fill:#000080;stroke-width:0.26458332"
         id="path1470" />
      <path
         d="m -62.59372,97.992722 q -1.640387,0 -2.416484,-0.758459 -0.758459,-0.776097 -0.758459,-2.416485 V 92.82462 q 0,-1.658026 0.758459,-2.416485 0.776097,-0.758458 2.416484,-0.74082 h 1.446363 q 1.305255,0 1.97552,0.440965 0.687905,0.440964 0.811375,1.375808 0.03528,0.211663 -0.08819,0.352772 -0.12347,0.12347 -0.352772,0.12347 -0.388048,0 -0.476241,-0.423326 -0.105831,-0.529157 -0.529157,-0.74082 -0.423326,-0.211663 -1.340532,-0.211663 h -1.446363 q -1.269977,-0.01764 -1.763857,0.476241 -0.49388,0.493881 -0.49388,1.763858 v 1.993158 q 0,1.269978 0.49388,1.763858 0.511519,0.49388 1.763857,0.49388 h 1.446363 q 0.917206,0 1.340532,-0.211663 0.423326,-0.211663 0.529157,-0.74082 0.08819,-0.423326 0.476241,-0.423326 0.229302,0 0.352772,0.141109 0.12347,0.12347 0.08819,0.335133 -0.12347,0.934844 -0.811375,1.375808 -0.670265,0.440965 -1.97552,0.440965 z"
         style="font-style:normal;font-variant:normal;font-weight:normal;font-stretch:normal;font-family:Jura;-inkscape-font-specification:Jura;fill:#000080;stroke-width:0.26458332"
         id="path1472" />
      <path
         d="m -49.355146,97.198986 q 0.141109,0.176386 0.141109,0.317494 0,0.176386 -0.194024,0.335133 -0.176386,0.141109 -0.299856,0.141109 -0.158747,0 -0.335133,-0.176386 l -3.562992,-4.021595 -1.128868,0.98776 v 2.751618 q 0,0.458603 -0.458603,0.458603 -0.458603,0 -0.458603,-0.458603 V 86.227794 q 0,-0.458603 0.458603,-0.458603 0.458603,0 0.458603,0.458603 v 7.320007 l 4.480197,-3.845209 q 0.176386,-0.141108 0.317494,-0.141108 0.176386,0 0.335133,0.194024 0.141109,0.176386 0.141109,0.299856 0,0.158747 -0.194024,0.352771 l -3.245498,2.804533 z"
         style="font-style:normal;font-variant:normal;font-weight:normal;font-stretch:normal;font-family:Jura;-inkscape-font-specification:Jura;fill:#000080;stroke-width:0.26458332"
         id="path1474" />
    </g>
    <g
       aria-label="OPEN SOURCE ROBOTICS SOFTWARE"
       style="font-style:normal;font-weight:normal;font-size:10.58333302px;line-height:1.25;font-family:sans-serif;letter-spacing:0px;word-spacing:0px;fill:#000000;fill-opacity:1;stroke:none;stroke-width:0.26458332"
       id="text1585">
      <path
         d="m -135.08621,103.6541 q -0.48683,0 -0.71966,-0.2286 -0.2286,-0.23283 -0.2286,-0.71967 v -0.9779 q 0,-0.48683 0.23283,-0.71543 0.23283,-0.23283 0.71543,-0.2286 h 0.508 q 0.48684,0 0.71544,0.23283 0.23283,0.2286 0.23283,0.71544 v 0.97366 q 0,0.48684 -0.23283,0.71967 -0.2286,0.2286 -0.71544,0.2286 z m 0.508,-0.3556 q 0.23284,0 0.3556,-0.055 0.127,-0.055 0.18204,-0.1778 0.055,-0.127 0.055,-0.35984 v -0.97366 q 0,-0.2286 -0.055,-0.3556 -0.055,-0.127 -0.18204,-0.18204 -0.127,-0.055 -0.3556,-0.055 h -0.508 q -0.2286,-0.004 -0.3556,0.0508 -0.127,0.055 -0.18203,0.18203 -0.055,0.127 -0.055,0.3556 v 0.9779 q 0,0.23284 0.055,0.35984 0.055,0.12276 0.1778,0.1778 0.127,0.055 0.35983,0.055 z"
         style="font-style:normal;font-variant:normal;font-weight:bold;font-stretch:normal;font-size:4.23333311px;font-family:Jura;-inkscape-font-specification:'Jura Bold';stroke-width:0.26458332"
         id="path1477" />
      <path
         d="m -131.68042,100.7839 q 0.38946,0 0.59266,0.20743 0.20744,0.2032 0.20744,0.59267 v 0.127 q 0,0.38523 -0.20744,0.59267 -0.2032,0.20743 -0.59266,0.20743 h -0.8128 v 0.9652 q 0,0.0847 -0.0466,0.13123 -0.0466,0.0466 -0.13123,0.0466 -0.0847,0 -0.13124,-0.0466 -0.0466,-0.0466 -0.0466,-0.13123 v -2.5146 q 0,-0.0847 0.0466,-0.13123 0.0466,-0.0466 0.13124,-0.0466 z m 0.4445,0.8001 q 0,-0.23707 -0.1016,-0.33867 -0.1016,-0.10583 -0.3429,-0.10583 h -0.8128 v 1.016 h 0.8128 q 0.2413,0 0.3429,-0.1016 0.1016,-0.1016 0.1016,-0.3429 z"
         style="font-style:normal;font-variant:normal;font-weight:bold;font-stretch:normal;font-size:4.23333311px;font-family:Jura;-inkscape-font-specification:'Jura Bold';stroke-width:0.26458332"
         id="path1479" />
      <path
         d="m -128.55503,103.2985 q 0.0847,0 0.13123,0.0466 0.0466,0.0466 0.0466,0.13123 0,0.0847 -0.0466,0.13123 -0.0466,0.0466 -0.13123,0.0466 h -1.51977 q -0.0847,0 -0.13123,-0.0466 -0.0466,-0.0466 -0.0466,-0.13123 v -2.5146 q 0,-0.0847 0.0466,-0.13123 0.0466,-0.0466 0.13123,-0.0466 h 1.51977 q 0.0847,0 0.13123,0.0466 0.0466,0.0466 0.0466,0.13123 0,0.0847 -0.0466,0.13123 -0.0466,0.0466 -0.13123,0.0466 h -1.34197 v 0.889 h 0.84243 q 0.0847,0 0.13124,0.0466 0.0466,0.0466 0.0466,0.13123 0,0.0847 -0.0466,0.13123 -0.0466,0.0466 -0.13124,0.0466 h -0.84243 v 0.9144 z"
         style="font-style:normal;font-variant:normal;font-weight:bold;font-stretch:normal;font-size:4.23333311px;font-family:Jura;-inkscape-font-specification:'Jura Bold';stroke-width:0.26458332"
         id="path1481" />
      <path
         d="m -125.55142,100.7839 q 0.0847,0 0.13124,0.0466 0.0466,0.0466 0.0466,0.13123 v 2.5146 q 0,0.0847 -0.0466,0.13123 -0.0466,0.0466 -0.13124,0.0466 -0.0508,0 -0.0931,-0.0254 -0.0423,-0.0254 -0.0847,-0.0804 l -1.6129,-2.07857 v 2.0066 q 0,0.0847 -0.0466,0.13123 -0.0466,0.0466 -0.13124,0.0466 -0.0847,0 -0.13123,-0.0466 -0.0466,-0.0466 -0.0466,-0.13123 v -2.5146 q 0,-0.0847 0.0466,-0.13123 0.0466,-0.0466 0.13123,-0.0466 0.0508,0 0.0889,0.0254 0.0423,0.0254 0.0889,0.0804 l 1.6129,2.07857 v -2.0066 q 0,-0.0847 0.0466,-0.13123 0.0466,-0.0466 0.13123,-0.0466 z"
         style="font-style:normal;font-variant:normal;font-weight:bold;font-stretch:normal;font-size:4.23333311px;font-family:Jura;-inkscape-font-specification:'Jura Bold';stroke-width:0.26458332"
         id="path1483" />
      <path
         d="m -122.44303,103.6541 q -0.36406,0 -0.56726,-0.14393 -0.19897,-0.14817 -0.24977,-0.45297 -0.008,-0.0889 0.0381,-0.13547 0.0466,-0.0508 0.13547,-0.0508 0.0847,0 0.127,0.0423 0.0423,0.0381 0.0593,0.13123 0.0296,0.14393 0.13124,0.19897 0.10583,0.055 0.32596,0.055 h 0.6096 q 0.18627,0 0.28364,-0.0423 0.1016,-0.0423 0.14393,-0.1397 0.0423,-0.1016 0.0423,-0.28364 0,-0.27093 -0.1016,-0.37253 -0.1016,-0.1016 -0.3683,-0.1016 h -0.52493 q -0.39793,0 -0.59267,-0.19473 -0.19473,-0.19474 -0.19473,-0.5969 0,-0.39794 0.1905,-0.58844 0.19473,-0.19473 0.59267,-0.19473 h 0.50376 q 0.66887,0 0.77047,0.5588 0.0127,0.0889 -0.0339,0.1397 -0.0466,0.0466 -0.1397,0.0466 -0.0847,0 -0.127,-0.0423 -0.0423,-0.0423 -0.055,-0.13123 -0.0339,-0.12277 -0.127,-0.16933 -0.0931,-0.0466 -0.28787,-0.0466 h -0.50376 q -0.17357,0 -0.2667,0.0381 -0.0889,0.0381 -0.127,0.13123 -0.0339,0.0889 -0.0339,0.25824 0,0.17356 0.0381,0.2667 0.0381,0.0889 0.127,0.13123 0.0931,0.0381 0.2667,0.0381 h 0.52493 q 0.4191,0 0.6223,0.2032 0.2032,0.2032 0.2032,0.62653 0,0.4191 -0.2032,0.6223 -0.2032,0.19897 -0.6223,0.19897 z"
         style="font-style:normal;font-variant:normal;font-weight:bold;font-stretch:normal;font-size:4.23333311px;font-family:Jura;-inkscape-font-specification:'Jura Bold';stroke-width:0.26458332"
         id="path1485" />
      <path
         d="m -119.38484,103.6541 q -0.48683,0 -0.71967,-0.2286 -0.2286,-0.23283 -0.2286,-0.71967 v -0.9779 q 0,-0.48683 0.23284,-0.71543 0.23283,-0.23283 0.71543,-0.2286 h 0.508 q 0.48683,0 0.71543,0.23283 0.23284,0.2286 0.23284,0.71544 v 0.97366 q 0,0.48684 -0.23284,0.71967 -0.2286,0.2286 -0.71543,0.2286 z m 0.508,-0.3556 q 0.23283,0 0.3556,-0.055 0.127,-0.055 0.18203,-0.1778 0.055,-0.127 0.055,-0.35984 v -0.97366 q 0,-0.2286 -0.055,-0.3556 -0.055,-0.127 -0.18203,-0.18204 -0.127,-0.055 -0.3556,-0.055 h -0.508 q -0.2286,-0.004 -0.3556,0.0508 -0.127,0.055 -0.18203,0.18203 -0.055,0.127 -0.055,0.3556 v 0.9779 q 0,0.23284 0.055,0.35984 0.055,0.12276 0.1778,0.1778 0.127,0.055 0.35983,0.055 z"
         style="font-style:normal;font-variant:normal;font-weight:bold;font-stretch:normal;font-size:4.23333311px;font-family:Jura;-inkscape-font-specification:'Jura Bold';stroke-width:0.26458332"
         id="path1487" />
      <path
         d="m -116.24152,103.6541 q -0.48684,0 -0.71967,-0.2286 -0.2286,-0.23283 -0.2286,-0.71967 v -1.74413 q 0,-0.1778 0.1778,-0.1778 0.1778,0 0.1778,0.1778 v 1.74413 q 0,0.23284 0.055,0.35984 0.055,0.12276 0.1778,0.1778 0.127,0.055 0.35984,0.055 h 0.508 q 0.23283,0 0.3556,-0.055 0.127,-0.055 0.18203,-0.1778 0.055,-0.127 0.055,-0.35984 v -1.74413 q 0,-0.1778 0.1778,-0.1778 0.1778,0 0.1778,0.1778 v 1.74413 q 0,0.48684 -0.23283,0.71967 -0.2286,0.2286 -0.71543,0.2286 z"
         style="font-style:normal;font-variant:normal;font-weight:bold;font-stretch:normal;font-size:4.23333311px;font-family:Jura;-inkscape-font-specification:'Jura Bold';stroke-width:0.26458332"
         id="path1489" />
      <path
         d="m -111.97915,101.711 q 0,0.33443 -0.15664,0.53763 -0.15663,0.2032 -0.45296,0.24977 l 0.55456,0.92287 q 0.0254,0.0423 0.0254,0.0931 0,0.0931 -0.0931,0.14817 -0.055,0.0339 -0.0974,0.0339 -0.0847,0 -0.14393,-0.0931 l -0.64347,-1.07103 -0.0127,-0.0212 h -0.59266 v 0.9652 q 0,0.0847 -0.0466,0.13123 -0.0466,0.0466 -0.13123,0.0466 -0.0847,0 -0.13124,-0.0466 -0.0466,-0.0466 -0.0466,-0.13123 v -2.5146 q 0,-0.0847 0.0466,-0.13123 0.0466,-0.0466 0.13124,-0.0466 h 0.9906 q 0.38946,0 0.59266,0.20743 0.20744,0.2032 0.20744,0.59267 z m -0.3556,-0.127 q 0,-0.23707 -0.1016,-0.33867 -0.1016,-0.10583 -0.3429,-0.10583 h -0.8128 v 1.016 h 0.8128 q 0.2413,0 0.3429,-0.1016 0.1016,-0.1016 0.1016,-0.3429 z"
         style="font-style:normal;font-variant:normal;font-weight:bold;font-stretch:normal;font-size:4.23333311px;font-family:Jura;-inkscape-font-specification:'Jura Bold';stroke-width:0.26458332"
         id="path1491" />
      <path
         d="m -110.45515,103.6541 q -0.48683,0 -0.71967,-0.2286 -0.2286,-0.23283 -0.2286,-0.71967 v -0.97366 q 0,-0.48684 0.2286,-0.71967 0.23284,-0.23283 0.71544,-0.2286 h 0.51223 q 0.39793,0 0.60537,0.1651 0.21166,0.1651 0.24553,0.51647 0.0127,0.0889 -0.0339,0.13546 -0.0466,0.0466 -0.13546,0.0466 -0.0847,0 -0.13124,-0.0423 -0.0423,-0.0466 -0.055,-0.13547 -0.0212,-0.1905 -0.13123,-0.25823 -0.11007,-0.072 -0.36407,-0.072 h -0.51223 q -0.2286,-0.004 -0.3556,0.0508 -0.127,0.055 -0.18204,0.18203 -0.0508,0.127 -0.0508,0.35984 v 0.97366 q 0,0.23284 0.055,0.35984 0.055,0.12276 0.1778,0.1778 0.127,0.055 0.35983,0.055 h 0.508 q 0.254,0 0.36407,-0.0677 0.11006,-0.072 0.13123,-0.26247 0.0127,-0.0889 0.055,-0.13123 0.0466,-0.0466 0.13124,-0.0466 0.0889,0 0.13546,0.0466 0.0466,0.0466 0.0339,0.13546 -0.0339,0.35137 -0.24553,0.51647 -0.20744,0.1651 -0.60537,0.1651 z"
         style="font-style:normal;font-variant:normal;font-weight:bold;font-stretch:normal;font-size:4.23333311px;font-family:Jura;-inkscape-font-specification:'Jura Bold';stroke-width:0.26458332"
         id="path1493" />
      <path
         d="m -106.66076,103.2985 q 0.0847,0 0.13123,0.0466 0.0466,0.0466 0.0466,0.13123 0,0.0847 -0.0466,0.13123 -0.0466,0.0466 -0.13123,0.0466 h -1.51977 q -0.0847,0 -0.13123,-0.0466 -0.0466,-0.0466 -0.0466,-0.13123 v -2.5146 q 0,-0.0847 0.0466,-0.13123 0.0466,-0.0466 0.13123,-0.0466 h 1.51977 q 0.0847,0 0.13123,0.0466 0.0466,0.0466 0.0466,0.13123 0,0.0847 -0.0466,0.13123 -0.0466,0.0466 -0.13123,0.0466 h -1.34197 v 0.889 h 0.84243 q 0.0847,0 0.13124,0.0466 0.0466,0.0466 0.0466,0.13123 0,0.0847 -0.0466,0.13123 -0.0466,0.0466 -0.13124,0.0466 h -0.84243 v 0.9144 z"
         style="font-style:normal;font-variant:normal;font-weight:bold;font-stretch:normal;font-size:4.23333311px;font-family:Jura;-inkscape-font-specification:'Jura Bold';stroke-width:0.26458332"
         id="path1495" />
      <path
         d="m -102.50376,101.711 q 0,0.33443 -0.15664,0.53763 -0.15663,0.2032 -0.45296,0.24977 l 0.55456,0.92287 q 0.0254,0.0423 0.0254,0.0931 0,0.0931 -0.0931,0.14817 -0.055,0.0339 -0.0974,0.0339 -0.0847,0 -0.14393,-0.0931 l -0.64347,-1.07103 -0.0127,-0.0212 h -0.59266 v 0.9652 q 0,0.0847 -0.0466,0.13123 -0.0466,0.0466 -0.13123,0.0466 -0.0847,0 -0.13124,-0.0466 -0.0466,-0.0466 -0.0466,-0.13123 v -2.5146 q 0,-0.0847 0.0466,-0.13123 0.0466,-0.0466 0.13124,-0.0466 h 0.9906 q 0.38946,0 0.59266,0.20743 0.20744,0.2032 0.20744,0.59267 z m -0.3556,-0.127 q 0,-0.23707 -0.1016,-0.33867 -0.1016,-0.10583 -0.3429,-0.10583 h -0.8128 v 1.016 h 0.8128 q 0.2413,0 0.3429,-0.1016 0.1016,-0.1016 0.1016,-0.3429 z"
         style="font-style:normal;font-variant:normal;font-weight:bold;font-stretch:normal;font-size:4.23333311px;font-family:Jura;-inkscape-font-specification:'Jura Bold';stroke-width:0.26458332"
         id="path1497" />
      <path
         d="m -100.97976,103.6541 q -0.48683,0 -0.71967,-0.2286 -0.2286,-0.23283 -0.2286,-0.71967 v -0.9779 q 0,-0.48683 0.23284,-0.71543 0.23283,-0.23283 0.71543,-0.2286 h 0.508 q 0.486833,0 0.715433,0.23283 0.232834,0.2286 0.232834,0.71544 v 0.97366 q 0,0.48684 -0.232834,0.71967 -0.2286,0.2286 -0.715433,0.2286 z m 0.508,-0.3556 q 0.23283,0 0.3556,-0.055 0.127,-0.055 0.182033,-0.1778 0.05503,-0.127 0.05503,-0.35984 v -0.97366 q 0,-0.2286 -0.05503,-0.3556 -0.05503,-0.127 -0.182033,-0.18204 -0.127,-0.055 -0.3556,-0.055 h -0.508 q -0.2286,-0.004 -0.3556,0.0508 -0.127,0.055 -0.18203,0.18203 -0.055,0.127 -0.055,0.3556 v 0.9779 q 0,0.23284 0.055,0.35984 0.055,0.12276 0.1778,0.1778 0.127,0.055 0.35983,0.055 z"
         style="font-style:normal;font-variant:normal;font-weight:bold;font-stretch:normal;font-size:4.23333311px;font-family:Jura;-inkscape-font-specification:'Jura Bold';stroke-width:0.26458332"
         id="path1499" />
      <path
         d="m -96.938977,102.02427 q 0.334433,0.19473 0.334433,0.69003 v 0.14393 q 0,0.38947 -0.207433,0.59267 -0.2032,0.2032 -0.592667,0.2032 h -1.159933 q -0.08467,0 -0.131234,-0.0466 -0.04657,-0.0466 -0.04657,-0.13123 v -2.5146 q 0,-0.0847 0.04657,-0.13123 0.04657,-0.0466 0.131234,-0.0466 h 1.1049 q 0.334433,0 0.516466,0.1778 0.182034,0.1778 0.182034,0.508 v 0.1143 q 0,0.13547 -0.04657,0.24977 -0.04657,0.1143 -0.131233,0.1905 z m -1.4478,-0.1016 h 0.982133 0.0762 q 0.110067,-0.0127 0.160867,-0.1016 0.0508,-0.0931 0.0508,-0.23707 v -0.1143 q 0,-0.18203 -0.0762,-0.254 -0.0762,-0.0762 -0.2667,-0.0762 h -0.9271 z m 1.426633,0.79163 q 0,-0.23707 -0.1016,-0.33443 -0.1016,-0.1016 -0.3429,-0.1016 h -0.982133 v 1.02023 h 0.982133 q 0.237067,0 0.338667,-0.1016 0.105833,-0.1016 0.105833,-0.33867 z"
         style="font-style:normal;font-variant:normal;font-weight:bold;font-stretch:normal;font-size:4.23333311px;font-family:Jura;-inkscape-font-specification:'Jura Bold';stroke-width:0.26458332"
         id="path1501" />
      <path
         d="m -95.043175,103.6541 q -0.486834,0 -0.719667,-0.2286 -0.2286,-0.23283 -0.2286,-0.71967 v -0.9779 q 0,-0.48683 0.232833,-0.71543 0.232834,-0.23283 0.715434,-0.2286 h 0.508 q 0.486833,0 0.715433,0.23283 0.232833,0.2286 0.232833,0.71544 v 0.97366 q 0,0.48684 -0.232833,0.71967 -0.2286,0.2286 -0.715433,0.2286 z m 0.508,-0.3556 q 0.232833,0 0.3556,-0.055 0.127,-0.055 0.182033,-0.1778 0.05503,-0.127 0.05503,-0.35984 v -0.97366 q 0,-0.2286 -0.05503,-0.3556 -0.05503,-0.127 -0.182033,-0.18204 -0.127,-0.055 -0.3556,-0.055 h -0.508 q -0.2286,-0.004 -0.3556,0.0508 -0.127,0.055 -0.182034,0.18203 -0.05503,0.127 -0.05503,0.3556 v 0.9779 q 0,0.23284 0.05503,0.35984 0.05503,0.12276 0.1778,0.1778 0.127,0.055 0.359834,0.055 z"
         style="font-style:normal;font-variant:normal;font-weight:bold;font-stretch:normal;font-size:4.23333311px;font-family:Jura;-inkscape-font-specification:'Jura Bold';stroke-width:0.26458332"
         id="path1503" />
      <path
         d="m -92.111789,103.6541 q -0.1778,0 -0.1778,-0.1778 v -2.33257 h -0.821267 q -0.1778,0 -0.1778,-0.1778 0,-0.1778 0.1778,-0.1778 h 1.998133 q 0.1778,0 0.1778,0.1778 0,0.1778 -0.1778,0.1778 h -0.821266 v 2.33257 q 0,0.0847 -0.04657,0.13123 -0.04657,0.0466 -0.131233,0.0466 z"
         style="font-style:normal;font-variant:normal;font-weight:bold;font-stretch:normal;font-size:4.23333311px;font-family:Jura;-inkscape-font-specification:'Jura Bold';stroke-width:0.26458332"
         id="path1505" />
      <path
         d="m -90.19713,103.6541 q -0.09313,0 -0.135467,-0.0423 -0.04233,-0.0423 -0.04233,-0.13547 v -2.51037 q 0,-0.0931 0.04233,-0.13546 0.04233,-0.0423 0.135467,-0.0423 0.09313,0 0.135466,0.0423 0.04233,0.0423 0.04233,0.13546 v 2.51037 q 0,0.0931 -0.04233,0.13547 -0.04233,0.0423 -0.135466,0.0423 z"
         style="font-style:normal;font-variant:normal;font-weight:bold;font-stretch:normal;font-size:4.23333311px;font-family:Jura;-inkscape-font-specification:'Jura Bold';stroke-width:0.26458332"
         id="path1507" />
      <path
         d="m -88.288029,103.6541 q -0.486834,0 -0.719667,-0.2286 -0.2286,-0.23283 -0.2286,-0.71967 v -0.97366 q 0,-0.48684 0.2286,-0.71967 0.232833,-0.23283 0.715433,-0.2286 h 0.512234 q 0.397933,0 0.605366,0.1651 0.211667,0.1651 0.245534,0.51647 0.0127,0.0889 -0.03387,0.13546 -0.04657,0.0466 -0.135467,0.0466 -0.08467,0 -0.131233,-0.0423 -0.04233,-0.0466 -0.05503,-0.13547 -0.02117,-0.1905 -0.131234,-0.25823 -0.110066,-0.072 -0.364066,-0.072 h -0.512234 q -0.2286,-0.004 -0.3556,0.0508 -0.127,0.055 -0.182033,0.18203 -0.0508,0.127 -0.0508,0.35984 v 0.97366 q 0,0.23284 0.05503,0.35984 0.05503,0.12276 0.1778,0.1778 0.127,0.055 0.359834,0.055 h 0.508 q 0.254,0 0.364066,-0.0677 0.110067,-0.072 0.131234,-0.26247 0.0127,-0.0889 0.05503,-0.13123 0.04657,-0.0466 0.131233,-0.0466 0.0889,0 0.135467,0.0466 0.04657,0.0466 0.03387,0.13546 -0.03387,0.35137 -0.245534,0.51647 -0.207433,0.1651 -0.605366,0.1651 z"
         style="font-style:normal;font-variant:normal;font-weight:bold;font-stretch:normal;font-size:4.23333311px;font-family:Jura;-inkscape-font-specification:'Jura Bold';stroke-width:0.26458332"
         id="path1509" />
      <path
         d="m -85.475774,103.6541 q -0.364066,0 -0.567266,-0.14393 -0.198967,-0.14817 -0.249767,-0.45297 -0.0085,-0.0889 0.0381,-0.13547 0.04657,-0.0508 0.135467,-0.0508 0.08467,0 0.127,0.0423 0.04233,0.0381 0.05927,0.13123 0.02963,0.14393 0.131234,0.19897 0.105833,0.055 0.325966,0.055 h 0.6096 q 0.186267,0 0.283634,-0.0423 0.1016,-0.0423 0.143933,-0.1397 0.04233,-0.1016 0.04233,-0.28364 0,-0.27093 -0.1016,-0.37253 -0.1016,-0.1016 -0.3683,-0.1016 h -0.524933 q -0.397933,0 -0.592667,-0.19473 -0.194733,-0.19474 -0.194733,-0.5969 0,-0.39794 0.1905,-0.58844 0.194733,-0.19473 0.592667,-0.19473 h 0.503766 q 0.668867,0 0.770467,0.5588 0.0127,0.0889 -0.03387,0.1397 -0.04657,0.0466 -0.1397,0.0466 -0.08467,0 -0.127,-0.0423 -0.04233,-0.0423 -0.05503,-0.13123 -0.03387,-0.12277 -0.127,-0.16933 -0.09313,-0.0466 -0.287867,-0.0466 h -0.503766 q -0.173567,0 -0.2667,0.0381 -0.0889,0.0381 -0.127,0.13123 -0.03387,0.0889 -0.03387,0.25824 0,0.17356 0.0381,0.2667 0.0381,0.0889 0.127,0.13123 0.09313,0.0381 0.2667,0.0381 h 0.524933 q 0.4191,0 0.6223,0.2032 0.2032,0.2032 0.2032,0.62653 0,0.4191 -0.2032,0.6223 -0.2032,0.19897 -0.6223,0.19897 z"
         style="font-style:normal;font-variant:normal;font-weight:bold;font-stretch:normal;font-size:4.23333311px;font-family:Jura;-inkscape-font-specification:'Jura Bold';stroke-width:0.26458332"
         id="path1511" />
      <path
         d="m -81.217637,103.6541 q -0.364067,0 -0.567266,-0.14393 -0.198967,-0.14817 -0.249767,-0.45297 -0.0085,-0.0889 0.0381,-0.13547 0.04657,-0.0508 0.135467,-0.0508 0.08467,0 0.127,0.0423 0.04233,0.0381 0.05927,0.13123 0.02963,0.14393 0.131233,0.19897 0.105834,0.055 0.325967,0.055 h 0.6096 q 0.186267,0 0.283633,-0.0423 0.1016,-0.0423 0.143934,-0.1397 0.04233,-0.1016 0.04233,-0.28364 0,-0.27093 -0.1016,-0.37253 -0.1016,-0.1016 -0.3683,-0.1016 h -0.524933 q -0.397934,0 -0.592667,-0.19473 -0.194733,-0.19474 -0.194733,-0.5969 0,-0.39794 0.1905,-0.58844 0.194733,-0.19473 0.592666,-0.19473 h 0.503767 q 0.668867,0 0.770467,0.5588 0.0127,0.0889 -0.03387,0.1397 -0.04657,0.0466 -0.1397,0.0466 -0.08467,0 -0.127,-0.0423 -0.04233,-0.0423 -0.05503,-0.13123 -0.03387,-0.12277 -0.127,-0.16933 -0.09313,-0.0466 -0.287867,-0.0466 h -0.503767 q -0.173566,0 -0.2667,0.0381 -0.0889,0.0381 -0.127,0.13123 -0.03387,0.0889 -0.03387,0.25824 0,0.17356 0.0381,0.2667 0.0381,0.0889 0.127,0.13123 0.09313,0.0381 0.2667,0.0381 h 0.524933 q 0.4191,0 0.6223,0.2032 0.2032,0.2032 0.2032,0.62653 0,0.4191 -0.2032,0.6223 -0.2032,0.19897 -0.6223,0.19897 z"
         style="font-style:normal;font-variant:normal;font-weight:bold;font-stretch:normal;font-size:4.23333311px;font-family:Jura;-inkscape-font-specification:'Jura Bold';stroke-width:0.26458332"
         id="path1513" />
      <path
         d="m -78.159451,103.6541 q -0.486833,0 -0.719667,-0.2286 -0.2286,-0.23283 -0.2286,-0.71967 v -0.9779 q 0,-0.48683 0.232834,-0.71543 0.232833,-0.23283 0.715433,-0.2286 h 0.508 q 0.486833,0 0.715433,0.23283 0.232833,0.2286 0.232833,0.71544 v 0.97366 q 0,0.48684 -0.232833,0.71967 -0.2286,0.2286 -0.715433,0.2286 z m 0.508,-0.3556 q 0.232833,0 0.3556,-0.055 0.127,-0.055 0.182033,-0.1778 0.05503,-0.127 0.05503,-0.35984 v -0.97366 q 0,-0.2286 -0.05503,-0.3556 -0.05503,-0.127 -0.182033,-0.18204 -0.127,-0.055 -0.3556,-0.055 h -0.508 q -0.2286,-0.004 -0.3556,0.0508 -0.127,0.055 -0.182033,0.18203 -0.05503,0.127 -0.05503,0.3556 v 0.9779 q 0,0.23284 0.05503,0.35984 0.05503,0.12276 0.1778,0.1778 0.127,0.055 0.359833,0.055 z"
         style="font-style:normal;font-variant:normal;font-weight:bold;font-stretch:normal;font-size:4.23333311px;font-family:Jura;-inkscape-font-specification:'Jura Bold';stroke-width:0.26458332"
         id="path1515" />
      <path
         d="m -75.744269,103.6541 q -0.08467,0 -0.131233,-0.0466 -0.04657,-0.0466 -0.04657,-0.13123 v -2.5146 q 0,-0.0847 0.04657,-0.13123 0.04657,-0.0466 0.131233,-0.0466 h 1.557867 q 0.08467,0 0.131233,0.0466 0.04657,0.0466 0.04657,0.13123 0,0.0847 -0.04657,0.13123 -0.04657,0.0466 -0.131233,0.0466 h -1.380067 v 0.889 h 0.8509 q 0.08467,0 0.131234,0.0466 0.04657,0.0466 0.04657,0.13123 0,0.0847 -0.04657,0.13123 -0.04657,0.0466 -0.131234,0.0466 h -0.8509 v 1.0922 q 0,0.0847 -0.04657,0.13123 -0.04657,0.0466 -0.131234,0.0466 z"
         style="font-style:normal;font-variant:normal;font-weight:bold;font-stretch:normal;font-size:4.23333311px;font-family:Jura;-inkscape-font-specification:'Jura Bold';stroke-width:0.26458332"
         id="path1517" />
      <path
         d="m -72.664913,103.6541 q -0.1778,0 -0.1778,-0.1778 v -2.33257 h -0.821267 q -0.1778,0 -0.1778,-0.1778 0,-0.1778 0.1778,-0.1778 h 1.998134 q 0.1778,0 0.1778,0.1778 0,0.1778 -0.1778,0.1778 h -0.821267 v 2.33257 q 0,0.0847 -0.04657,0.13123 -0.04657,0.0466 -0.131233,0.0466 z"
         style="font-style:normal;font-variant:normal;font-weight:bold;font-stretch:normal;font-size:4.23333311px;font-family:Jura;-inkscape-font-specification:'Jura Bold';stroke-width:0.26458332"
         id="path1519" />
      <path
         d="m -67.700011,100.80083 q 0.1143,0.055 0.1143,0.14817 0,0.0339 -0.0127,0.072 l -0.783167,2.48073 q -0.02963,0.0762 -0.07197,0.1143 -0.04233,0.0381 -0.1143,0.0381 h -0.0085 q -0.135467,0 -0.186267,-0.1524 l -0.651933,-2.10397 0.0042,0.0847 -0.626533,2.0193 q -0.02963,0.0804 -0.07197,0.11853 -0.0381,0.0339 -0.1143,0.0339 -0.0635,0 -0.1016,-0.0339 -0.0381,-0.0381 -0.0635,-0.11853 l -0.783167,-2.48073 q -0.0127,-0.0466 -0.0127,-0.0762 0,-0.0466 0.0254,-0.0804 0.02963,-0.0339 0.0889,-0.0635 0.0508,-0.0212 0.08467,-0.0212 0.1016,0 0.148167,0.13546 l 0.643466,2.0447 0.6096,-2.02353 q 0.0254,-0.0762 0.07197,-0.1143 0.0508,-0.0381 0.131233,-0.0381 0.148167,0.004 0.194734,0.1524 l 0.6096,2.02353 0.643466,-2.0447 q 0.04233,-0.13123 0.148167,-0.13123 0.0254,0 0.08467,0.0169 z"
         style="font-style:normal;font-variant:normal;font-weight:bold;font-stretch:normal;font-size:4.23333311px;font-family:Jura;-inkscape-font-specification:'Jura Bold';stroke-width:0.26458332"
         id="path1521" />
      <path
         d="m -64.977378,103.40433 q 0.01693,0.0381 0.01693,0.0847 0,0.1016 -0.1143,0.14817 -0.0381,0.0169 -0.08467,0.0169 -0.1016,0 -0.148167,-0.1143 l -0.2286,-0.55457 h -1.316566 l -0.220133,0.55457 q -0.04657,0.1143 -0.148167,0.1143 -0.04233,0 -0.08043,-0.0169 -0.118534,-0.0423 -0.118534,-0.14817 0,-0.0466 0.01693,-0.0847 l 1.007533,-2.48073 q 0.0635,-0.1397 0.198966,-0.1397 h 0.0085 q 0.1397,0.008 0.186267,0.1397 z m -1.735666,-0.7747 h 1.032933 l -0.529167,-1.2827 z"
         style="font-style:normal;font-variant:normal;font-weight:bold;font-stretch:normal;font-size:4.23333311px;font-family:Jura;-inkscape-font-specification:'Jura Bold';stroke-width:0.26458332"
         id="path1523" />
      <path
         d="m -62.378045,101.711 q 0,0.33443 -0.156634,0.53763 -0.156633,0.2032 -0.452966,0.24977 l 0.554566,0.92287 q 0.0254,0.0423 0.0254,0.0931 0,0.0931 -0.09313,0.14817 -0.05503,0.0339 -0.09737,0.0339 -0.08467,0 -0.143933,-0.0931 l -0.643467,-1.07103 -0.0127,-0.0212 h -0.592666 v 0.9652 q 0,0.0847 -0.04657,0.13123 -0.04657,0.0466 -0.131233,0.0466 -0.08467,0 -0.131234,-0.0466 -0.04657,-0.0466 -0.04657,-0.13123 v -2.5146 q 0,-0.0847 0.04657,-0.13123 0.04657,-0.0466 0.131234,-0.0466 h 0.9906 q 0.389466,0 0.592666,0.20743 0.207434,0.2032 0.207434,0.59267 z m -0.3556,-0.127 q 0,-0.23707 -0.1016,-0.33867 -0.1016,-0.10583 -0.3429,-0.10583 h -0.8128 v 1.016 h 0.8128 q 0.2413,0 0.3429,-0.1016 0.1016,-0.1016 0.1016,-0.3429 z"
         style="font-style:normal;font-variant:normal;font-weight:bold;font-stretch:normal;font-size:4.23333311px;font-family:Jura;-inkscape-font-specification:'Jura Bold';stroke-width:0.26458332"
         id="path1525" />
      <path
         d="m -60.00315,103.2985 q 0.08467,0 0.131233,0.0466 0.04657,0.0466 0.04657,0.13123 0,0.0847 -0.04657,0.13123 -0.04657,0.0466 -0.131233,0.0466 h -1.519767 q -0.08467,0 -0.131233,-0.0466 -0.04657,-0.0466 -0.04657,-0.13123 v -2.5146 q 0,-0.0847 0.04657,-0.13123 0.04657,-0.0466 0.131233,-0.0466 h 1.519767 q 0.08467,0 0.131233,0.0466 0.04657,0.0466 0.04657,0.13123 0,0.0847 -0.04657,0.13123 -0.04657,0.0466 -0.131233,0.0466 h -1.341967 v 0.889 h 0.842433 q 0.08467,0 0.131234,0.0466 0.04657,0.0466 0.04657,0.13123 0,0.0847 -0.04657,0.13123 -0.04657,0.0466 -0.131234,0.0466 h -0.842433 v 0.9144 z"
         style="font-style:normal;font-variant:normal;font-weight:bold;font-stretch:normal;font-size:4.23333311px;font-family:Jura;-inkscape-font-specification:'Jura Bold';stroke-width:0.26458332"
         id="path1527" />
    </g>
    <path
       style="fill:#000080;stroke:none;stroke-width:0.26458332px;stroke-linecap:butt;stroke-linejoin:miter;stroke-opacity:1"
       d="m -164.43787,97.417498 2.31299,-5.141841 h 3.68738 l -2.3078,5.1303 z"
       id="path5336"
       inkscape:connector-curvature="0" />
    <path
       inkscape:connector-curvature="0"
       id="path5342"
       d="m -157.6343,97.417498 2.31299,-5.141841 h 3.68738 l -2.3078,5.1303 z"
       style="fill:#000080;stroke:none;stroke-width:0.26458332px;stroke-linecap:butt;stroke-linejoin:miter;stroke-opacity:1" />
    <path
       style="fill:#000080;stroke:none;stroke-width:0.26458332px;stroke-linecap:butt;stroke-linejoin:miter;stroke-opacity:1"
       d="m -151.06696,97.417498 2.31299,-5.141841 h 3.68738 l -2.3078,5.1303 z"
       id="path5344"
       inkscape:connector-curvature="0" />
    <path
       inkscape:connector-curvature="0"
       id="path5346"
       d="m -144.60357,97.417498 2.07676,-4.52763 0.56907,1.228418 0.48156,3.287753 z"
       style="fill:#000080;stroke:none;stroke-width:0.26458332px;stroke-linecap:butt;stroke-linejoin:miter;stroke-opacity:1"
       sodipodi:nodetypes="ccccc" />
    <path
       style="fill:#000080;stroke:#ffffff;stroke-width:0.35208887"
       inkscape:connector-curvature="0"
       d="m -136.0687,74.104108 c -0.0147,0.4513 0.0852,0.88055 0.27352,1.2594 l -1.87599,2.144719 c -0.44267,0.50586 -0.46757,1.26066 -0.0587,1.79461 l 1.58204,2.06717 c 0.12065,0.15767 0.30289,0.24033 0.48704,0.24033 0.1299,0 0.26075,-0.0412 0.37213,-0.126039 0.26873,-0.205871 0.3198,-0.590441 0.11394,-0.85917 l -1.58206,-2.06718 c -0.0552,-0.0722 -0.052,-0.174251 0.008,-0.242871 l 1.74993,-2.000469 c 0.41713,0.309269 0.92874,0.499799 1.48598,0.517989 0.0291,9.79e-4 0.0584,10e-4 0.0874,10e-4 0.52438,0 1.01556,-0.15448 1.42886,-0.42128 l 1.61557,2.11088 c 0.0552,0.0722 0.052,0.17427 -0.008,0.24289 l -1.71387,1.95929 c -0.22276,0.25468 -0.19691,0.64182 0.0578,0.86459 0.11617,0.10185 0.2598,0.1516 0.4031,0.1516 0.17075,0 0.34022,-0.0709 0.4615,-0.20936 l 1.71386,-1.9593 c 0.44267,-0.50586 0.46757,-1.26066 0.0587,-1.79462 l -1.73206,-2.26281 c 0.21287,-0.36575 0.34086,-0.78735 0.35554,-1.23896 l 0.0814,-2.49036 c 0.0728,-0.0881 0.1417,-0.18001 0.20713,-0.27543 1.18662,-1.7327 0.74235,-4.10785 -0.99034,-5.294481 l -8.36695,-5.730409 c -0.0814,-0.82598 -0.39862,-1.63726 -0.96289,-2.32633 -0.73725,-0.90034 -1.78089,-1.45949 -2.93878,-1.57472 -1.15758,-0.11521 -2.29122,0.22693 -3.19124,0.96418 l -13.82964,11.32554 c -0.93672,-0.24287 -1.9593,-0.15958 -2.88644,0.29969 -1.89642,0.93959 -2.7824,3.14847 -2.06111,5.13808 l 2.12175,5.853001 c 0.11521,0.318509 0.46724,0.48287 0.78512,0.36734 0.3182,-0.115211 0.48256,-0.466601 0.36703,-0.784791 l -2.12175,-5.853 c -0.50873,-1.402689 0.11617,-2.95985 1.45312,-3.622409 0.72384,-0.358731 1.53035,-0.392241 2.2459,-0.148091 0.0179,0.007 0.0361,0.0141 0.0543,0.0191 0.58373,0.21193 1.10268,0.60991 1.46205,1.16747 l 6.8561,10.64607 c -0.4382,-0.0715 -0.88789,-0.108461 -1.34588,-0.108461 -2.70772,0 -5.11862,1.29417 -6.64673,3.29656 l -0.95811,-2.64261 c -0.11553,-0.31819 -0.4666,-0.482879 -0.78512,-0.367339 -0.3182,0.115489 -0.48256,0.46692 -0.36703,0.785121 l 1.28492,3.544218 c -0.56618,1.126291 -0.88534,2.39717 -0.88534,3.741452 v 1.121828 h -1.19842 c -1.88047,0 -3.41082,1.530051 -3.41082,3.41082 v 2.547181 c 0,0.61182 0.49756,1.109379 1.10907,1.109379 h 23.71484 c 0.6115,0 1.10906,-0.497559 1.10906,-1.109379 v -2.547181 c 0,-1.880769 -1.53003,-3.41082 -3.41081,-3.41082 h -1.19843 v -1.121828 c 0,-3.504642 -2.16802,-6.512042 -5.23351,-7.751952 l -4.44935,-6.908449 10.85097,-8.885931 3.01027,2.061441 c 0.10596,0.0725 0.2266,0.107199 0.34565,0.107199 0.19564,0 0.38745,-0.0931 0.50618,-0.26651 0.19117,-0.27925 0.11999,-0.66065 -0.15926,-0.85183 l -2.71505,-1.859399 1.90599,-1.56099 c 0.77236,-0.63255 1.27088,-1.47704 1.48088,-2.38152 l 7.76697,5.31936 c 1.17513,0.80459 1.47641,2.41568 0.67182,3.59082 -0.0734,0.106911 -0.15351,0.20745 -0.24001,0.300631 -0.003,0.003 -0.006,0.006 -0.009,0.008 -0.0798,0.0855 -0.16436,0.164059 -0.25277,0.236499 -0.002,0.001 -0.004,0.003 -0.006,0.004 -0.005,0.004 -0.01,0.007 -0.0144,0.0113 -0.006,0.006 -0.0128,0.01 -0.0195,0.0156 -2.6e-4,3.18e-4 -7.9e-4,6.88e-4 -0.001,9.79e-4 -0.32203,0.25149 -0.70182,0.42415 -1.11513,0.50139 -0.42256,0.0792 -0.84895,0.0523 -1.24789,-0.0731 -0.003,-9.79e-4 -0.006,-0.001 -0.009,-0.003 -0.006,-0.001 -0.0121,-0.004 -0.0182,-0.006 -0.005,-0.001 -0.009,-0.003 -0.0138,-0.004 -0.004,-0.001 -0.008,-0.003 -0.0118,-0.004 -0.006,-0.003 -0.0128,-0.004 -0.0188,-0.007 -0.002,-3.17e-4 -0.004,-9.79e-4 -0.005,-0.001 -0.19501,-0.0682 -0.38459,-0.16117 -0.56459,-0.27894 -2.6e-4,0 -7.9e-4,-3.18e-4 -0.001,-6.88e-4 -0.015,-0.01 -0.0297,-0.0198 -0.0447,-0.03 l -3.10953,-2.12951 c -0.27926,-0.19117 -0.66033,-0.11999 -0.85183,0.15926 -0.19117,0.27926 -0.12,0.66065 0.15926,0.85182 l 2.88868,1.97846 z m -8.22144,18.44943 c 1.20513,0 2.18558,0.98044 2.18558,2.185569 v 2.430691 h -23.48218 v -2.430691 c 0,-1.205129 0.98045,-2.185569 2.18526,-2.185569 z m -13.0209,-2.73771 c 0,-1.910792 1.55461,-3.465092 3.46539,-3.465092 1.91046,0 3.46507,1.5543 3.46507,3.465092 0,0.5266 -0.11905,1.04331 -0.3466,1.512139 h -6.23726 c -0.22756,-0.468829 -0.3466,-0.985219 -0.3466,-1.512139 z m 10.59724,0.390311 v 1.121828 h -2.69112 c 0.16468,-0.484151 0.2499,-0.994479 0.2499,-1.512139 0,-2.58645 -2.10451,-4.690642 -4.69095,-4.690642 -2.58643,0 -4.69063,2.104192 -4.69063,4.690642 0,0.51734 0.0852,1.027988 0.2499,1.512139 h -2.69112 v -1.121828 c 0,-3.932301 3.19954,-7.131831 7.13217,-7.131831 3.93231,0 7.13185,3.19953 7.13185,7.131831 z m 4.51094,-26.864572 -13.63623,11.167241 -2.48655,-3.861141 c -0.32043,-0.497559 -0.73086,-0.905769 -1.19747,-1.21471 l 13.35346,-10.93522 c 0.64693,-0.52979 1.4611,-0.77618 2.29346,-0.6932 0.83203,0.083 1.58205,0.48479 2.11185,1.13172 1.09374,1.33535 0.89714,3.31188 -0.43852,4.40531 z m 7.35908,10.80244 0.038,-1.15758 c 0.0728,0.0236 0.14649,0.045 0.22054,0.0639 0.002,6.62e-4 0.005,0.001 0.006,0.001 0.01,0.003 0.0198,0.006 0.0297,0.007 0.007,10e-4 0.0147,0.003 0.022,0.006 0.002,3.44e-4 0.005,9.79e-4 0.007,10e-4 0.86012,0.20586 1.7662,0.10466 2.55835,-0.28436 l -0.0479,1.4547 c -0.0255,0.78129 -0.67789,1.39662 -1.46365,1.37077 -0.78129,-0.0256 -1.39631,-0.68205 -1.37077,-1.46364 z m 0,0"
       id="path5348" />
  </g>
</svg>
