<?xml version="1.0" encoding="UTF-8" standalone="no"?>
<!-- Generator: Adobe Illustrator 22.1.0, SVG Export Plug-In . SVG Version: 6.00 Build 0)  -->

<svg
   xmlns:dc="http://purl.org/dc/elements/1.1/"
   xmlns:cc="http://creativecommons.org/ns#"
   xmlns:rdf="http://www.w3.org/1999/02/22-rdf-syntax-ns#"
   xmlns:svg="http://www.w3.org/2000/svg"
   xmlns="http://www.w3.org/2000/svg"
   xmlns:sodipodi="http://sodipodi.sourceforge.net/DTD/sodipodi-0.dtd"
   xmlns:inkscape="http://www.inkscape.org/namespaces/inkscape"
   version="1.1"
   id="Calque_1"
   x="0px"
   y="0px"
   viewBox="0 0 126.48704 37.439998"
   xml:space="preserve"
   inkscape:version="0.91 r13725"
   sodipodi:docname="bqplot.svg"><metadata
     id="metadata13"><rdf:RDF><cc:Work
         rdf:about=""><dc:format>image/svg+xml</dc:format><dc:type
           rdf:resource="http://purl.org/dc/dcmitype/StillImage" /><dc:title /></cc:Work></rdf:RDF></metadata><defs
     id="defs11" /><sodipodi:namedview
     pagecolor="#ffffff"
     bordercolor="#666666"
     borderopacity="1"
     objecttolerance="10"
     gridtolerance="10"
     guidetolerance="10"
     inkscape:pageopacity="0"
     inkscape:pageshadow="2"
     inkscape:window-width="1332"
     inkscape:window-height="730"
     id="namedview9"
     showgrid="false"
     fit-margin-top="0"
     fit-margin-left="0"
     fit-margin-right="0"
     fit-margin-bottom="0"
     inkscape:zoom="3.507795"
     inkscape:cx="6.0577783"
     inkscape:cy="13.942223"
     inkscape:window-x="0"
     inkscape:window-y="23"
     inkscape:window-maximized="0"
     inkscape:current-layer="Calque_1" /><style
     type="text/css"
     id="style3">
	.st0{opacity:0.28;fill:#111212;enable-background:new    ;}
</style><g
     style="font-style:normal;font-weight:normal;font-size:40px;line-height:125%;font-family:sans-serif;letter-spacing:0px;word-spacing:0px;fill:#ff9955;fill-opacity:1;stroke:none;stroke-width:1px;stroke-linecap:butt;stroke-linejoin:miter;stroke-opacity:1"
     id="text4141"><path
       d="m -7.6293945e-8,0.44000023 6.399999976293946,0 0,1.15999997 -5,0 0,32.0799998 5,0 0,1.16 -6.399999976293946,0 0,-34.39999977 z"
       style="font-style:normal;font-variant:normal;font-weight:300;font-stretch:normal;font-family:'Source Sans Pro Light';-inkscape-font-specification:'Source Sans Pro Light, Light';fill:#ff9955"
       id="path4138" /><path
       d="m 10.931875,2.2888184e-7 1.76,0 0,8.31999997111816 -0.08,3.7599998 q 1.48,-1.24 3.16,-2.1199998 1.68,-0.88 3.48,-0.88 3.84,0 5.76,2.6799998 1.92,2.64 1.92,7.12 0,2.44 -0.68,4.36 -0.68,1.92 -1.88,3.28 -1.16,1.32 -2.72,2.04 -1.52,0.68 -3.2,0.68 -1.4,0 -2.92,-0.6 -1.48,-0.64 -2.84,-1.68 l -0.08,0 -0.2,1.8 -1.48,0 0,-28.75999977111816 z M 12.691875,25.2 q 1.6,1.36 3.08,1.92 1.48,0.56 2.6,0.56 1.44,0 2.68,-0.64 1.24,-0.64 2.12,-1.8 0.88,-1.16 1.36,-2.76 0.52,-1.64 0.52,-3.6 0,-1.76 -0.36,-3.28 -0.32,-1.52 -1.04,-2.6 -0.72,-1.12 -1.88,-1.72 -1.16,-0.64 -2.8,-0.64 -1.44,0 -3,0.84 -1.56,0.8 -3.28,2.32 l 0,11.4 z"
       style="font-style:normal;font-variant:normal;font-weight:300;font-stretch:normal;font-family:'Source Sans Pro Light';-inkscape-font-specification:'Source Sans Pro Light, Light';fill:#ff9955"
       id="path4140" /><path
       d="m 31.12875,19.2 q 0,-2.32 0.68,-4.2 0.68,-1.88 1.84,-3.2 1.2,-1.32 2.72,-1.9999998 1.56,-0.72 3.28,-0.72 1.76,0 3.04,0.6 1.32,0.5999998 2.68,1.6399998 l 0.08,0 0.2,-1.7599998 1.48,0 0,27.8799998 -1.76,0 0,-7.4 0.08,-3.72 q -1.28,1.16 -2.88,2.04 -1.56,0.88 -3.48,0.88 -3.64,0 -5.8,-2.56 -2.16,-2.6 -2.16,-7.48 z m 1.88,0 q 0,1.92 0.4,3.48 0.44,1.56 1.24,2.68 0.8,1.08 1.96,1.72 1.2,0.6 2.72,0.6 1.6,0 3.04,-0.8 1.48,-0.84 3,-2.36 l 0,-11.4 q -1.52,-1.36 -2.88,-1.92 -1.32,-0.56 -2.72,-0.56 -1.44,0 -2.68,0.68 -1.24,0.64 -2.16,1.8 -0.88,1.12 -1.4,2.72 -0.52,1.56 -0.52,3.36 z"
       style="font-style:normal;font-variant:normal;font-weight:300;font-stretch:normal;font-family:'Source Sans Pro Light';-inkscape-font-specification:'Source Sans Pro Light, Light';fill:#ff9955"
       id="path4142" /><path
       d="m 56.373125,33.68 0,-32.0799998 -5,0 0,-1.15999997 6.4,0 0,34.39999977 -6.4,0 0,-1.16 5,0 z"
       style="font-style:normal;font-variant:normal;font-weight:300;font-stretch:normal;font-family:'Source Sans Pro Light';-inkscape-font-specification:'Source Sans Pro Light, Light';fill:#ff9955"
       id="path4144" /></g><g
     style="font-style:normal;font-weight:normal;font-size:40px;line-height:125%;font-family:sans-serif;letter-spacing:0px;word-spacing:0px;fill:#000000;fill-opacity:1;stroke:none;stroke-width:1px;stroke-linecap:butt;stroke-linejoin:miter;stroke-opacity:1"
     id="text4145"><path
       d="m 67.230794,30.44 0,7 -1.76,0 0,-27.8799998 1.52,0 0.16,2.3999998 0.12,0 q 1.4,-1.12 3.04,-1.9999998 1.68,-0.88 3.48,-0.88 3.84,0 5.76,2.6799998 1.92,2.64 1.92,7.12 0,2.44 -0.68,4.36 -0.68,1.92 -1.88,3.28 -1.16,1.32 -2.72,2.04 -1.52,0.68 -3.2,0.68 -1.36,0 -2.8,-0.6 -1.44,-0.64 -2.96,-1.76 l 0,3.56 z m 0,-5.24 q 1.68,1.36 3.12,1.92 1.44,0.56 2.56,0.56 1.44,0 2.68,-0.64 1.24,-0.64 2.12,-1.8 0.88,-1.16 1.36,-2.76 0.52,-1.64 0.52,-3.6 0,-1.76 -0.36,-3.28 -0.32,-1.52 -1.04,-2.6 -0.72,-1.12 -1.88,-1.72 -1.16,-0.64 -2.8,-0.64 -1.44,0 -3,0.84 -1.52,0.8 -3.28,2.32 l 0,11.4 z"
       style="font-style:normal;font-variant:normal;font-weight:300;font-stretch:normal;font-family:'Source Sans Pro Light';-inkscape-font-specification:'Source Sans Pro Light, Light';fill:#ffffff;fill-opacity:1"
       id="path4147" /><path
       d="m 87.267669,2.2888184e-7 1.76,0 L 89.027669,26.44 q 0,0.64 0.24,0.96 0.24,0.28 0.6,0.28 0.12,0 0.24,0 0.16,0 0.48,-0.08 l 0.32,1.44 q -0.28,0.08 -0.56,0.12 -0.28,0.08 -0.72,0.08 -2.36,0 -2.36,-3.04 l 0,-26.19999977111816 z"
       style="font-style:normal;font-variant:normal;font-weight:300;font-stretch:normal;font-family:'Source Sans Pro Light';-inkscape-font-specification:'Source Sans Pro Light, Light';fill:#ffffff;fill-opacity:1"
       id="path4149" /><path
       d="m 95.120794,19.2 q 0,-2.4 0.68,-4.28 0.72,-1.92 1.88,-3.2 1.2,-1.28 2.759996,-1.9599998 1.56,-0.68 3.28,-0.68 1.72,0 3.28,0.68 1.6,0.6799998 2.76,1.9599998 1.2,1.28 1.88,3.2 0.72,1.88 0.72,4.28 0,2.4 -0.72,4.28 -0.68,1.84 -1.88,3.12 -1.16,1.28 -2.76,1.96 -1.56,0.68 -3.28,0.68 -1.72,0 -3.28,-0.68 -1.559996,-0.68 -2.759996,-1.96 -1.16,-1.28 -1.88,-3.12 -0.68,-1.88 -0.68,-4.28 z m 1.84,0 q 0,1.88 0.52,3.44 0.52,1.56 1.4,2.68 0.92,1.12 2.159996,1.76 1.24,0.6 2.68,0.6 1.44,0 2.68,-0.6 1.28,-0.64 2.16,-1.76 0.92,-1.12 1.44,-2.68 0.52,-1.56 0.52,-3.44 0,-1.92 -0.52,-3.48 -0.52,-1.56 -1.44,-2.68 -0.88,-1.16 -2.16,-1.76 -1.24,-0.64 -2.68,-0.64 -1.44,0 -2.68,0.64 -1.239996,0.6 -2.159996,1.76 -0.88,1.12 -1.4,2.68 -0.52,1.56 -0.52,3.48 z"
       style="font-style:normal;font-variant:normal;font-weight:300;font-stretch:normal;font-family:'Source Sans Pro Light';-inkscape-font-specification:'Source Sans Pro Light, Light';fill:#ffffff;fill-opacity:1"
       id="path4151" /><path
       d="m 118.56704,11.08 -3,0 0,-1.3599998 3.04,-0.16 0.24,-5.56 1.52,0 0,5.56 5.56,0 0,1.5199998 -5.56,0 0,12.52 q 0,0.92 0.12,1.68 0.16,0.72 0.52,1.28 0.36,0.52 0.96,0.84 0.64,0.28 1.64,0.28 0.56,0 1.2,-0.16 0.68,-0.2 1.2,-0.44 l 0.48,1.44 q -0.84,0.32 -1.68,0.52 -0.84,0.2 -1.44,0.2 -1.4,0 -2.32,-0.44 -0.92,-0.4 -1.48,-1.16 -0.56,-0.76 -0.8,-1.84 -0.2,-1.08 -0.2,-2.36 l 0,-12.36 z"
       style="font-style:normal;font-variant:normal;font-weight:300;font-stretch:normal;font-family:'Source Sans Pro Light';-inkscape-font-specification:'Source Sans Pro Light, Light';fill:#ffffff;fill-opacity:1"
       id="path4153" /></g></svg>