<svg id="Calque_1" data-name="Calque 1" xmlns="http://www.w3.org/2000/svg" viewBox="0 0 89.94 22.05"><defs><style>.cls-1{fill:#161628;}.cls-2{fill:#7fd787;}.cls-3{fill:#fff;}</style></defs><title>ipyleaflet</title><rect class="cls-1" width="89.94" height="22.05"/><path class="cls-2" d="M7.56,2.89V16.77H10.2a.37.37,0,0,1,.28.14.53.53,0,0,1,.12.35.57.57,0,0,1-.11.33.36.36,0,0,1-.29.14H7a.5.5,0,0,1-.34-.12.39.39,0,0,1-.14-.3v-15a.39.39,0,0,1,.14-.3A.5.5,0,0,1,7,1.93H10.2a.36.36,0,0,1,.29.14.57.57,0,0,1,.11.33.53.53,0,0,1-.12.35.37.37,0,0,1-.28.14Zm5.24,5c-.32,0-.48.13-.48.4v8.6a.43.43,0,0,0,.14.31.47.47,0,0,0,.34.13.52.52,0,0,0,.35-.14.4.4,0,0,0,.15-.3V8.27C13.3,8,13.13,7.87,12.8,7.87Zm0-4.42a.76.76,0,0,0-.54.21.64.64,0,0,0-.22.49.7.7,0,0,0,.22.52.73.73,0,0,0,.54.22.75.75,0,0,0,.74-.74.64.64,0,0,0-.22-.49A.73.73,0,0,0,12.8,3.45Zm9.32,5.37a3.53,3.53,0,0,1,1.06,2.59v2.32a3.65,3.65,0,0,1-1.07,2.58,3.32,3.32,0,0,1-2.49,1.12A3.13,3.13,0,0,1,18,17a2.8,2.8,0,0,1-1.08-1.08v5.66a.4.4,0,0,1-.15.3.52.52,0,0,1-.35.14.47.47,0,0,1-.34-.13.43.43,0,0,1-.14-.31V8.27c0-.27.16-.4.48-.4a.55.55,0,0,1,.34.11.36.36,0,0,1,.14.29v1a2.87,2.87,0,0,1,2.68-1.52A3.46,3.46,0,0,1,22.12,8.82Zm.08,2.59a2.66,2.66,0,0,0-.81-1.9,2.55,2.55,0,0,0-1.89-.84,2.52,2.52,0,0,0-1.8.75,2.63,2.63,0,0,0-.78,2v3a2.07,2.07,0,0,0,.8,1.34,2.55,2.55,0,0,0,1.82.76,2.46,2.46,0,0,0,1.86-.85,2.76,2.76,0,0,0,.8-1.93Zm9.08-3.68A.43.43,0,0,0,30.9,8l-2.75,7.7L25.32,8A.33.33,0,0,0,25,7.73a.6.6,0,0,0-.39.14.42.42,0,0,0-.18.34.5.5,0,0,0,0,.16L27.65,17q-1.23,4.1-2.9,4.1c-.23,0-.35.15-.35.46a.4.4,0,0,0,.45.46,2.19,2.19,0,0,0,.91-.2,2.27,2.27,0,0,0,.81-.67,10.5,10.5,0,0,0,.64-.84,5.9,5.9,0,0,0,.58-1.12c.22-.5.36-.86.44-1.07L28.66,17l3.16-8.62a.63.63,0,0,0,0-.16.42.42,0,0,0-.18-.34A.64.64,0,0,0,31.28,7.73Zm4.64-5.68a.5.5,0,0,0-.34-.12H32.42a.39.39,0,0,0-.3.14A.52.52,0,0,0,32,2.4a.53.53,0,0,0,.12.35.39.39,0,0,0,.3.14h2.64V16.77H32.42a.39.39,0,0,0-.3.14.53.53,0,0,0-.12.35.52.52,0,0,0,.12.33.39.39,0,0,0,.3.14h3.16a.5.5,0,0,0,.34-.12.39.39,0,0,0,.14-.3v-15A.39.39,0,0,0,35.92,2.05Z"/><path class="cls-3" d="M39.8,2.11a.39.39,0,0,1,.14.3V16.87a.4.4,0,0,1-.15.3.52.52,0,0,1-.35.14.47.47,0,0,1-.34-.13.43.43,0,0,1-.14-.31V2.41a.39.39,0,0,1,.14-.3A.5.5,0,0,1,39.44,2,.52.52,0,0,1,39.8,2.11Zm8.81,6.68a3.46,3.46,0,0,1,1.07,2.58,2.35,2.35,0,0,1-.13.87.84.84,0,0,1-.41.47,1.69,1.69,0,0,1-.51.17,5.32,5.32,0,0,1-.65,0H43.36v.84a2.52,2.52,0,0,0,.9,2,3.45,3.45,0,0,0,2.32.76,3.39,3.39,0,0,0,1.22-.2,3.49,3.49,0,0,0,.76-.4.78.78,0,0,1,.39-.2.4.4,0,0,1,.32.16.51.51,0,0,1,.14.32c0,.25-.28.52-.83.8a4.47,4.47,0,0,1-2,.42,4.36,4.36,0,0,1-3-1,3.4,3.4,0,0,1-1.16-2.68V11.35a3.43,3.43,0,0,1,1.08-2.54,3.68,3.68,0,0,1,5.15,0Zm.13,2.58A2.74,2.74,0,0,0,48,9.47a2.49,2.49,0,0,0-1.92-.84,2.62,2.62,0,0,0-1.91.78,2.51,2.51,0,0,0-.79,1.86v.82h4.26a2,2,0,0,0,.9-.14C48.67,11.86,48.74,11.66,48.74,11.37ZM57,8.84a4.37,4.37,0,0,1,.84,2.75v5.28a.43.43,0,0,1-.14.31.51.51,0,0,1-.68,0,.43.43,0,0,1-.14-.31v-1a3.91,3.91,0,0,1-3,1.52,2.91,2.91,0,0,1-2-.67,2.48,2.48,0,0,1-.77-2,2.13,2.13,0,0,1,1.19-2.09,8.09,8.09,0,0,1,3.47-.59h1.08v-.52a3.43,3.43,0,0,0-.63-2.07,2.18,2.18,0,0,0-1.89-.87,3.53,3.53,0,0,0-1.42.28l-.68.28A.37.37,0,0,1,51.9,9a.65.65,0,0,1-.12-.36c0-.23.28-.44.83-.63a5.35,5.35,0,0,1,1.75-.29A3.09,3.09,0,0,1,57,8.84Zm-.14,4.07h-1q-.86,0-1.44.06a6.8,6.8,0,0,0-1.16.23,1.62,1.62,0,0,0-.88.56,1.58,1.58,0,0,0-.3,1,1.68,1.68,0,0,0,.53,1.35,2.07,2.07,0,0,0,1.39.45,3,3,0,0,0,1.93-.73,2,2,0,0,0,.91-1.43ZM61.6,3a3.33,3.33,0,0,0-1.22,2.68v11.2c0,.28.15.42.46.42a.57.57,0,0,0,.37-.12.37.37,0,0,0,.15-.3V8.73H64a.35.35,0,0,0,.28-.13.45.45,0,0,0,.12-.31A.42.42,0,0,0,64.32,8,.35.35,0,0,0,64,7.87H61.36V5.67a2.64,2.64,0,0,1,.92-2.08,3.19,3.19,0,0,1,2.16-.8,2.93,2.93,0,0,1,2.16.86V16.87a.42.42,0,0,0,.14.3.48.48,0,0,0,.34.14.52.52,0,0,0,.35-.14.4.4,0,0,0,.15-.3V3.37A3.83,3.83,0,0,0,64.46,2,4.32,4.32,0,0,0,61.6,3ZM76.25,8.79a3.46,3.46,0,0,1,1.07,2.58,2.35,2.35,0,0,1-.13.87.84.84,0,0,1-.41.47,1.69,1.69,0,0,1-.51.17,5.32,5.32,0,0,1-.65,0H71v.84a2.52,2.52,0,0,0,.9,2,3.45,3.45,0,0,0,2.32.76,3.39,3.39,0,0,0,1.22-.2,3.16,3.16,0,0,0,.75-.4.85.85,0,0,1,.4-.2.4.4,0,0,1,.32.16.51.51,0,0,1,.14.32c0,.25-.28.52-.83.8a4.47,4.47,0,0,1-2,.42,4.36,4.36,0,0,1-3-1A3.4,3.4,0,0,1,70,13.73V11.35A3.43,3.43,0,0,1,71.1,8.81a3.68,3.68,0,0,1,5.15,0Zm.13,2.58a2.74,2.74,0,0,0-.76-1.9,2.49,2.49,0,0,0-1.92-.84,2.62,2.62,0,0,0-1.91.78A2.51,2.51,0,0,0,71,11.27v.82h4.26a2,2,0,0,0,.9-.14C76.31,11.86,76.38,11.66,76.38,11.37Zm6.52,5h-.5A2.32,2.32,0,0,1,80.8,16a2,2,0,0,1-.46-1.5V8.73H83a.35.35,0,0,0,.26-.13.42.42,0,0,0,.12-.29A.49.49,0,0,0,83.27,8,.32.32,0,0,0,83,7.87H80.34V3.71a.37.37,0,0,0-.15-.3.55.55,0,0,0-.35-.12.52.52,0,0,0-.33.12.37.37,0,0,0-.15.3V14.45c0,1.91,1,2.86,3,2.86h.5a.45.45,0,0,0,.33-.14.44.44,0,0,0,.13-.32.44.44,0,0,0-.46-.46Z"/></svg>