<svg id="Calque_1" data-name="Calque 1" xmlns="http://www.w3.org/2000/svg" viewBox="0 0 265 97.52"><defs><style>.cls-1{fill:#171729;}.cls-2{fill:#80d588;}.cls-3{fill:#fff;}</style></defs><title>ipyvolume</title><rect class="cls-1" width="265" height="97.52"/><path class="cls-2" d="M14.06,13.68V52.94h7.46a1.08,1.08,0,0,1,.8.39,1.55,1.55,0,0,1,.34,1,1.66,1.66,0,0,1-.32.94,1,1,0,0,1-.82.39H12.59a1.4,1.4,0,0,1-1-.34,1.08,1.08,0,0,1-.4-.84V12a1.08,1.08,0,0,1,.4-.85,1.4,1.4,0,0,1,1-.34h8.93a1,1,0,0,1,.71.51,1.57,1.57,0,0,1,.31.93,1.47,1.47,0,0,1-.31,1,1,1,0,0,1-.79.4Zm14.82,1.58a2.17,2.17,0,0,0-1.53.6,1.79,1.79,0,0,0-.62,1.38,2,2,0,0,0,.62,1.47,2,2,0,0,0,1.53.63A2.12,2.12,0,0,0,31,17.24a1.79,1.79,0,0,0-.62-1.38A2.07,2.07,0,0,0,28.88,15.26Zm0,12.51c-.91,0-1.36.36-1.36,1.13V53.22a1.23,1.23,0,0,0,.4.88,1.34,1.34,0,0,0,1,.37,1.51,1.51,0,0,0,1-.4,1.13,1.13,0,0,0,.42-.85V28.9C30.29,28.13,29.81,27.77,28.88,27.77Zm26.36,2.82a10,10,0,0,1,3,7.33v6.56a10.32,10.32,0,0,1-3,7.3,9.38,9.38,0,0,1-7,3.17,8.94,8.94,0,0,1-4.58-1.36,7.9,7.9,0,0,1-3.06-3.06v16a1.13,1.13,0,0,1-.42.85,1.52,1.52,0,0,1-.91.34,1.33,1.33,0,0,1-1-.37,1.21,1.21,0,0,1-.4-.87V28.9c0-.77.46-1.13,1.36-1.13a1.49,1.49,0,0,1,1,.31,1,1,0,0,1,.4.82v2.83a8.1,8.1,0,0,1,7.58-4.3,9.76,9.76,0,0,1,7.1,3Zm.23,7.33a7.51,7.51,0,0,0-2.3-5.37,7.18,7.18,0,0,0-10.43-.26A7.44,7.44,0,0,0,40.53,38v8.48a5.85,5.85,0,0,0,2.26,3.79,7.19,7.19,0,0,0,5.15,2.15,6.94,6.94,0,0,0,5.4-2.57,7.81,7.81,0,0,0,2.27-5.46ZM81.15,27.51a1.23,1.23,0,0,0-1.08.74L72.29,50l-8-21.9a.93.93,0,0,0-1.05-.73,1.65,1.65,0,0,0-1.1.39,1.23,1.23,0,0,0-.51,1,1.69,1.69,0,0,0,0,.45l9.25,24.38q-3.48,11.6-8.2,11.6c-.65,0-1,.42-1,1.3a1.13,1.13,0,0,0,.93,1.29,1.3,1.3,0,0,0,.34,0,6.14,6.14,0,0,0,2.57-.57,6.39,6.39,0,0,0,2.3-1.89c.64-.76,1.24-1.56,1.81-2.38a17.62,17.62,0,0,0,1.64-3.17c.62-1.41,1-2.43,1.27-3l1.19-3.17,8.93-24.38a1.7,1.7,0,0,0,0-.45,1.19,1.19,0,0,0-.5-1,1.85,1.85,0,0,0-1-.42ZM94.27,11.45a1.41,1.41,0,0,0-1-.34H84.46a1.1,1.1,0,0,0-.85.39,1.45,1.45,0,0,0-.34.94,1.49,1.49,0,0,0,.34,1,1.1,1.1,0,0,0,.85.39h7.46V52.94H84.46a1.1,1.1,0,0,0-.85.39,1.49,1.49,0,0,0-.34,1,1.45,1.45,0,0,0,.34.94,1.1,1.1,0,0,0,.85.39h8.93a1.42,1.42,0,0,0,1-.34,1.1,1.1,0,0,0,.39-.84V12a1.1,1.1,0,0,0-.48-.74Z"/><path class="cls-3" d="M120.15,28.13a1,1,0,0,1,.54.88l-.23.91-9,24.21a1.38,1.38,0,0,1-1.36.79,1.28,1.28,0,0,1-1.3-.79L99.93,29.86A5.09,5.09,0,0,1,99.7,29a1.22,1.22,0,0,1,.48-.88,1.57,1.57,0,0,1,1.08-.36,1,1,0,0,1,1.1.67l7.78,21.39,7.78-21c.25-.68.65-1,1.13-1A1.88,1.88,0,0,1,120.15,28.13ZM142,30.54a9.9,9.9,0,0,1,3.12,7.29V44.4A10.09,10.09,0,0,1,142,51.69a9.94,9.94,0,0,1-14,.48c-.16-.15-.32-.31-.47-.48a10.07,10.07,0,0,1-3.11-7.32V37.78a10,10,0,0,1,3-7.27,9.87,9.87,0,0,1,7.3-3.08A10,10,0,0,1,142,30.48Zm.34,7.29a7.59,7.59,0,0,0-2.26-5.37A7.24,7.24,0,0,0,129.86,32c-.17.15-.33.32-.49.49a7.58,7.58,0,0,0-2.23,5.37V44.4a7.8,7.8,0,0,0,2.23,5.46,7.19,7.19,0,0,0,10.15.57,7.66,7.66,0,0,0,.57-.57,7.83,7.83,0,0,0,2.26-5.46Zm11-26.67a1.4,1.4,0,0,0-1,.34,1.11,1.11,0,0,0-.4.85V53.22a1.23,1.23,0,0,0,.4.88,1.36,1.36,0,0,0,1,.37,1.51,1.51,0,0,0,1-.4,1.13,1.13,0,0,0,.42-.85V12.32a1.1,1.1,0,0,0-.39-.85A1.56,1.56,0,0,0,153.33,11.16Zm28.28,16.63a1.6,1.6,0,0,0-1,.34,1,1,0,0,0-.42.8V44.48a7.54,7.54,0,0,1-2.24,5.4,7.26,7.26,0,0,1-10.27.42q-.21-.19-.42-.42a7.53,7.53,0,0,1-2.23-5.4V29a1.1,1.1,0,0,0-.31-.82,1.37,1.37,0,0,0-.94-.36,1.46,1.46,0,0,0-1,.36,1.1,1.1,0,0,0-.42.82v15.5a10,10,0,0,0,3.05,7.24,10.35,10.35,0,0,0,17.65-7.24V28.9a1.06,1.06,0,0,0-.39-.77,1.39,1.39,0,0,0-1-.36Zm35.78-.36a9.11,9.11,0,0,0-4.86,1.44,10.19,10.19,0,0,0-3.62,4.21,9.84,9.84,0,0,0-3.4-4.13,8.49,8.49,0,0,0-4.95-1.52,8.11,8.11,0,0,0-7.58,4.3V28.9a1,1,0,0,0-.39-.77,1.66,1.66,0,0,0-1-.31c-.91,0-1.36.37-1.36,1.13V53.28a1.2,1.2,0,0,0,.39.87,1.34,1.34,0,0,0,1,.37,1.47,1.47,0,0,0,1-.39,1.17,1.17,0,0,0,.42-.85V37.78a7.52,7.52,0,0,1,2.18-5.66,6.94,6.94,0,0,1,5-2.12,6.43,6.43,0,0,1,4.9,2.18,7.64,7.64,0,0,1,2,5.34V53.25c0,.79.45,1.19,1.35,1.19s1.42-.4,1.42-1.19V37.5a7.16,7.16,0,0,1,2.17-5.38,7.05,7.05,0,0,1,5-2.09,6.7,6.7,0,0,1,4.84,2.06A7.61,7.61,0,0,1,224,37.75V53.19a1.19,1.19,0,0,0,.39.85,1.37,1.37,0,0,0,1,.4,1.53,1.53,0,0,0,1-.4,1.13,1.13,0,0,0,.42-.85V37.78A10.29,10.29,0,0,0,224,30.23,8.93,8.93,0,0,0,217.39,27.43ZM235.78,42V44.4a7.1,7.1,0,0,0,2.54,5.65,9.71,9.71,0,0,0,6.56,2.15,9.48,9.48,0,0,0,3.46-.56,10,10,0,0,0,2.14-1.13,2.23,2.23,0,0,1,1.11-.57,1.14,1.14,0,0,1,.9.45,1.43,1.43,0,0,1,.4.91c0,.7-.79,1.47-2.35,2.26a12.69,12.69,0,0,1-5.66,1.19,12.33,12.33,0,0,1-8.48-2.83,9.61,9.61,0,0,1-3.28-7.58V37.61a9.73,9.73,0,0,1,3-7.19,10.42,10.42,0,0,1,14.57,0,9.8,9.8,0,0,1,3,7.3,6.84,6.84,0,0,1-.37,2.46,2.37,2.37,0,0,1-1.16,1.33,4.61,4.61,0,0,1-1.44.48A14.12,14.12,0,0,1,249,42Zm0-2.32h12.05a5.67,5.67,0,0,0,2.54-.39c.43-.26.62-.82.62-1.65a7.7,7.7,0,0,0-2.15-5.37,7,7,0,0,0-5.43-2.37,7.4,7.4,0,0,0-5.4,2.2,7.07,7.07,0,0,0-2.23,5.26Z"/></svg>