<svg id="Calque_1" data-name="Calque 1" xmlns="http://www.w3.org/2000/svg" viewBox="0 0 89.94 22.05"><defs><style>.cls-1{fill:#161628;}.cls-2{fill:#8359b5;}.cls-3{fill:#fff;}</style></defs><title>ipyvolume</title><rect class="cls-1" width="89.94" height="22.05"/><path class="cls-2" d="M3.11,2.89V16.77H5.75a.37.37,0,0,1,.28.14.53.53,0,0,1,.12.35.57.57,0,0,1-.11.33.36.36,0,0,1-.29.14H2.59a.5.5,0,0,1-.34-.12.39.39,0,0,1-.14-.3v-15a.39.39,0,0,1,.14-.3.5.5,0,0,1,.34-.12H5.75A.36.36,0,0,1,6,2.07a.57.57,0,0,1,.11.33A.53.53,0,0,1,6,2.75a.37.37,0,0,1-.28.14Zm5.24.56a.76.76,0,0,0-.54.21.64.64,0,0,0-.22.49.7.7,0,0,0,.22.52.73.73,0,0,0,.54.22.75.75,0,0,0,.74-.74.64.64,0,0,0-.22-.49A.73.73,0,0,0,8.35,3.45Zm0,4.42c-.32,0-.48.13-.48.4v8.6a.43.43,0,0,0,.14.31.47.47,0,0,0,.34.13.52.52,0,0,0,.35-.14.4.4,0,0,0,.15-.3V8.27C8.85,8,8.68,7.87,8.35,7.87Zm9.32,1a3.53,3.53,0,0,1,1.06,2.59v2.32a3.65,3.65,0,0,1-1.07,2.58,3.32,3.32,0,0,1-2.49,1.12A3.13,3.13,0,0,1,13.55,17a2.8,2.8,0,0,1-1.08-1.08v5.66a.4.4,0,0,1-.15.3A.52.52,0,0,1,12,22a.47.47,0,0,1-.34-.13.43.43,0,0,1-.14-.31V8.27c0-.27.16-.4.48-.4a.55.55,0,0,1,.34.11.36.36,0,0,1,.14.29v1a2.87,2.87,0,0,1,2.68-1.52A3.46,3.46,0,0,1,17.67,8.82Zm.08,2.59a2.66,2.66,0,0,0-.81-1.9,2.55,2.55,0,0,0-1.89-.84,2.52,2.52,0,0,0-1.8.75,2.63,2.63,0,0,0-.78,2v3a2.07,2.07,0,0,0,.8,1.34,2.55,2.55,0,0,0,1.82.76A2.46,2.46,0,0,0,17,15.66a2.76,2.76,0,0,0,.8-1.93Zm9.08-3.68a.43.43,0,0,0-.38.26l-2.75,7.7L20.87,8a.33.33,0,0,0-.37-.26.6.6,0,0,0-.39.14.42.42,0,0,0-.18.34.5.5,0,0,0,0,.16L23.2,17q-1.23,4.1-2.9,4.1c-.23,0-.35.15-.35.46a.4.4,0,0,0,.45.46,2.19,2.19,0,0,0,.91-.2,2.27,2.27,0,0,0,.81-.67,10.5,10.5,0,0,0,.64-.84,5.9,5.9,0,0,0,.58-1.12c.22-.5.37-.86.45-1.07L24.21,17l3.16-8.62a.63.63,0,0,0,0-.16.42.42,0,0,0-.18-.34A.64.64,0,0,0,26.83,7.73Zm4.64-5.68a.5.5,0,0,0-.34-.12H28a.39.39,0,0,0-.3.14.52.52,0,0,0-.12.33.53.53,0,0,0,.12.35.39.39,0,0,0,.3.14h2.64V16.77H28a.39.39,0,0,0-.3.14.53.53,0,0,0-.12.35.52.52,0,0,0,.12.33.39.39,0,0,0,.3.14h3.16a.5.5,0,0,0,.34-.12.39.39,0,0,0,.14-.3v-15A.39.39,0,0,0,31.47,2.05Z"/><path class="cls-3" d="M40.62,8a.37.37,0,0,1,.19.31l-.08.32-3.17,8.56a.48.48,0,0,1-.48.28.45.45,0,0,1-.46-.28L33.47,8.61a1.67,1.67,0,0,1-.08-.3A.42.42,0,0,1,33.56,8a.57.57,0,0,1,.38-.13.36.36,0,0,1,.39.24l2.75,7.56,2.75-7.44c.09-.24.23-.36.4-.36A.67.67,0,0,1,40.62,8Zm7.73.85a3.5,3.5,0,0,1,1.1,2.58v2.32a3.57,3.57,0,0,1-1.11,2.58,3.51,3.51,0,0,1-5.13,0,3.57,3.57,0,0,1-1.1-2.59V11.41a3.53,3.53,0,0,1,1.08-2.57,3.49,3.49,0,0,1,2.58-1.09A3.55,3.55,0,0,1,48.35,8.83Zm.12,2.58a2.69,2.69,0,0,0-.8-1.9,2.56,2.56,0,0,0-3.79,0,2.68,2.68,0,0,0-.79,1.9v2.32a2.75,2.75,0,0,0,.79,1.93,2.54,2.54,0,0,0,3.79,0,2.76,2.76,0,0,0,.8-1.93ZM52.35,2a.5.5,0,0,0-.34.12.39.39,0,0,0-.14.3V16.87a.43.43,0,0,0,.14.31.47.47,0,0,0,.34.13.52.52,0,0,0,.35-.14.4.4,0,0,0,.15-.3V2.41a.39.39,0,0,0-.14-.3A.52.52,0,0,0,52.35,2Zm10,5.88A.55.55,0,0,0,62,8a.35.35,0,0,0-.15.28v5.5a2.67,2.67,0,0,1-.79,1.91,2.57,2.57,0,0,1-3.78,0,2.67,2.67,0,0,1-.79-1.91V8.29A.38.38,0,0,0,56.38,8a.48.48,0,0,0-.33-.13A.51.51,0,0,0,55.7,8a.38.38,0,0,0-.15.29v5.48a3.54,3.54,0,0,0,1.08,2.56,3.66,3.66,0,0,0,6.24-2.56V8.27A.37.37,0,0,0,62.73,8,.5.5,0,0,0,62.39,7.87ZM75,7.75a3.22,3.22,0,0,0-1.72.51A3.63,3.63,0,0,0,72,9.75,3.46,3.46,0,0,0,70.8,8.29a3,3,0,0,0-1.75-.54,2.87,2.87,0,0,0-2.68,1.52v-1A.36.36,0,0,0,66.23,8a.55.55,0,0,0-.34-.11c-.32,0-.48.13-.48.4v8.6a.43.43,0,0,0,.14.31.47.47,0,0,0,.34.13.52.52,0,0,0,.35-.14.4.4,0,0,0,.15-.3V11.41a2.66,2.66,0,0,1,.77-2,2.45,2.45,0,0,1,1.77-.75,2.27,2.27,0,0,1,1.73.77,2.69,2.69,0,0,1,.71,1.89v5.56q0,.42.48.42c.33,0,.5-.14.5-.42V11.31a2.53,2.53,0,0,1,.77-1.9,2.48,2.48,0,0,1,1.77-.74,2.37,2.37,0,0,1,1.71.73,2.69,2.69,0,0,1,.75,2v5.46a.42.42,0,0,0,.14.3.48.48,0,0,0,.34.14.52.52,0,0,0,.35-.14.4.4,0,0,0,.15-.3V11.41a3.64,3.64,0,0,0-1-2.67A3.17,3.17,0,0,0,75,7.75Zm6.5,5.16v.84a2.52,2.52,0,0,0,.9,2,3.45,3.45,0,0,0,2.32.76,3.39,3.39,0,0,0,1.22-.2,3.49,3.49,0,0,0,.76-.4.78.78,0,0,1,.39-.2.4.4,0,0,1,.32.16.51.51,0,0,1,.14.32c0,.25-.28.52-.83.8a4.47,4.47,0,0,1-2,.42,4.36,4.36,0,0,1-3-1,3.4,3.4,0,0,1-1.16-2.68V11.35a3.43,3.43,0,0,1,1.08-2.54,3.68,3.68,0,0,1,5.15,0,3.46,3.46,0,0,1,1.07,2.58,2.35,2.35,0,0,1-.13.87.84.84,0,0,1-.41.47,1.69,1.69,0,0,1-.51.17,5.32,5.32,0,0,1-.65,0Zm0-.82h4.26a2,2,0,0,0,.9-.14c.15-.09.22-.29.22-.58a2.74,2.74,0,0,0-.76-1.9,2.49,2.49,0,0,0-1.92-.84,2.62,2.62,0,0,0-1.91.78,2.51,2.51,0,0,0-.79,1.86Z"/></svg>