<svg id="Calque_1" data-name="Calque 1" xmlns="http://www.w3.org/2000/svg" viewBox="0 0 89.94 22.05"><defs><style>.cls-1{fill:#161628;}.cls-2{fill:#40b3c3;}.cls-3{fill:#fff;}</style></defs><title>ipywidgets</title><rect class="cls-1" width="89.94" height="22.05"/><path class="cls-2" d="M2.42,2.89V16.77H5.06a.37.37,0,0,1,.28.14.53.53,0,0,1,.12.35.57.57,0,0,1-.11.33.36.36,0,0,1-.29.14H1.9a.5.5,0,0,1-.34-.12.39.39,0,0,1-.14-.3v-15a.39.39,0,0,1,.14-.3.5.5,0,0,1,.34-.12H5.06a.36.36,0,0,1,.29.14.57.57,0,0,1,.11.33.53.53,0,0,1-.12.35.37.37,0,0,1-.28.14Zm5.24,5c-.32,0-.48.13-.48.4v8.6a.43.43,0,0,0,.14.31.47.47,0,0,0,.34.13A.52.52,0,0,0,8,17.17a.4.4,0,0,0,.15-.3V8.27C8.16,8,8,7.87,7.66,7.87Zm0-4.42a.76.76,0,0,0-.54.21.64.64,0,0,0-.22.49.7.7,0,0,0,.22.52.73.73,0,0,0,.54.22.75.75,0,0,0,.74-.74.64.64,0,0,0-.22-.49A.73.73,0,0,0,7.66,3.45ZM17,8.82A3.53,3.53,0,0,1,18,11.41v2.32A3.65,3.65,0,0,1,17,16.31a3.32,3.32,0,0,1-2.49,1.12A3.13,3.13,0,0,1,12.86,17a2.8,2.8,0,0,1-1.08-1.08v5.66a.4.4,0,0,1-.15.3.52.52,0,0,1-.35.14.47.47,0,0,1-.34-.13.43.43,0,0,1-.14-.31V8.27c0-.27.16-.4.48-.4a.55.55,0,0,1,.34.11.36.36,0,0,1,.14.29v1a2.87,2.87,0,0,1,2.68-1.52A3.46,3.46,0,0,1,17,8.82Zm.08,2.59a2.66,2.66,0,0,0-.81-1.9,2.55,2.55,0,0,0-1.89-.84,2.52,2.52,0,0,0-1.8.75,2.63,2.63,0,0,0-.78,2v3a2.07,2.07,0,0,0,.8,1.34,2.55,2.55,0,0,0,1.82.76,2.46,2.46,0,0,0,1.86-.85,2.76,2.76,0,0,0,.8-1.93Zm9.08-3.68a.43.43,0,0,0-.38.26L23,15.69,20.18,8a.33.33,0,0,0-.37-.26.6.6,0,0,0-.39.14.42.42,0,0,0-.18.34.5.5,0,0,0,0,.16L22.51,17q-1.23,4.1-2.9,4.1c-.23,0-.35.15-.35.46a.4.4,0,0,0,.45.46,2.19,2.19,0,0,0,.91-.2,2.27,2.27,0,0,0,.81-.67,10.5,10.5,0,0,0,.64-.84,5.9,5.9,0,0,0,.58-1.12c.22-.5.36-.86.44-1.07L23.52,17l3.16-8.62a.63.63,0,0,0,0-.16.42.42,0,0,0-.18-.34A.64.64,0,0,0,26.14,7.73Zm4.64-5.68a.5.5,0,0,0-.34-.12H27.28a.39.39,0,0,0-.3.14.52.52,0,0,0-.12.33.53.53,0,0,0,.12.35.39.39,0,0,0,.3.14h2.64V16.77H27.28a.39.39,0,0,0-.3.14.53.53,0,0,0-.12.35.52.52,0,0,0,.12.33.39.39,0,0,0,.3.14h3.16a.5.5,0,0,0,.34-.12.39.39,0,0,0,.14-.3v-15A.39.39,0,0,0,30.78,2.05Z"/><path class="cls-3" d="M44.94,8a.4.4,0,0,1,.16.32.56.56,0,0,1-.08.3L41.9,17.17a.4.4,0,0,1-.38.28.34.34,0,0,1-.35-.25L39,10.14l-2.2,6.94a.45.45,0,0,1-.44.37.43.43,0,0,1-.43-.36l-3.1-8.5a2,2,0,0,1-.08-.28A.39.39,0,0,1,32.87,8a.57.57,0,0,1,.38-.13.41.41,0,0,1,.39.24l2.72,7.5,2.18-6.88a.39.39,0,0,1,.76,0l2.12,7,2.76-7.63c0-.16.16-.24.38-.24A.64.64,0,0,1,44.94,8Zm2.42-.1c-.32,0-.48.13-.48.4v8.6a.43.43,0,0,0,.14.31.47.47,0,0,0,.34.13.52.52,0,0,0,.35-.14.4.4,0,0,0,.15-.3V8.27C47.86,8,47.69,7.87,47.36,7.87Zm0-4.42a.76.76,0,0,0-.54.21.64.64,0,0,0-.22.49.7.7,0,0,0,.22.52.73.73,0,0,0,.54.22.75.75,0,0,0,.74-.74.64.64,0,0,0-.22-.49A.73.73,0,0,0,47.36,3.45Zm9.88-1.34a.39.39,0,0,1,.14.3V16.87a.43.43,0,0,1-.14.31.47.47,0,0,1-.34.13.48.48,0,0,1-.34-.14.42.42,0,0,1-.14-.3v-1A2.76,2.76,0,0,1,55.33,17a3.19,3.19,0,0,1-1.63.44,3.32,3.32,0,0,1-2.49-1.12,3.65,3.65,0,0,1-1.07-2.58V11.41A3.53,3.53,0,0,1,51.2,8.82a3.46,3.46,0,0,1,2.54-1.07A3,3,0,0,1,56.4,9.27V2.41a.39.39,0,0,1,.14-.3A.52.52,0,0,1,56.9,2,.5.5,0,0,1,57.24,2.11Zm-.84,9.3a2.62,2.62,0,0,0-.79-2,2.53,2.53,0,0,0-3.69.08,2.69,2.69,0,0,0-.8,1.9v2.32a2.76,2.76,0,0,0,.8,1.93,2.46,2.46,0,0,0,1.86.85,2.55,2.55,0,0,0,1.82-.76,2.07,2.07,0,0,0,.8-1.34ZM67.29,7.55a.44.44,0,0,1,.13.32.36.36,0,0,1-.36.4,1.45,1.45,0,0,0-1.16.9A3,3,0,0,1,66.42,11v.82a3.2,3.2,0,0,1-3.34,3.32,3.21,3.21,0,0,1-1.58-.38c-.48.24-.72.53-.72.88s.22.6.65.75a6.44,6.44,0,0,0,1.57.3c.61.05,1.22.12,1.83.23a3.22,3.22,0,0,1,1.56.72A2,2,0,0,1,67,19.23a2.36,2.36,0,0,1-1,2.05,4.73,4.73,0,0,1-2.79.73,5.1,5.1,0,0,1-2.85-.72,2.18,2.18,0,0,1-1.09-1.9A2.27,2.27,0,0,1,61,17.19a1.43,1.43,0,0,1-1.16-1.4,1.56,1.56,0,0,1,1-1.42,3.2,3.2,0,0,1-1.06-2.52V11a3.2,3.2,0,0,1,.92-2.36,3.25,3.25,0,0,1,2.4-.92,3.2,3.2,0,0,1,2.36.9,2.74,2.74,0,0,1,.68-.9,1.19,1.19,0,0,1,.76-.34A.53.53,0,0,1,67.29,7.55ZM60.22,19.29a1.61,1.61,0,0,0,.8,1.39,4,4,0,0,0,2.2.53,3.57,3.57,0,0,0,2.09-.52,1.64,1.64,0,0,0,.75-1.42,1.32,1.32,0,0,0-.21-.75,1.59,1.59,0,0,0-.51-.49,2.73,2.73,0,0,0-.76-.3,5.07,5.07,0,0,0-.81-.15l-.87-.07-.72-.08C60.87,17.82,60.22,18.44,60.22,19.29ZM65.48,11a2.49,2.49,0,0,0-.64-1.77,2.27,2.27,0,0,0-1.74-.69,2.23,2.23,0,0,0-1.73.69A2.52,2.52,0,0,0,60.74,11v.8a2.59,2.59,0,0,0,.64,1.81,2.25,2.25,0,0,0,1.74.71,2.21,2.21,0,0,0,1.72-.7,2.56,2.56,0,0,0,.64-1.8Zm9.37-2.24a3.46,3.46,0,0,1,1.07,2.58,2.35,2.35,0,0,1-.13.87.84.84,0,0,1-.41.47,1.69,1.69,0,0,1-.51.17,5.32,5.32,0,0,1-.65,0H69.6v.84a2.52,2.52,0,0,0,.9,2,3.45,3.45,0,0,0,2.32.76,3.39,3.39,0,0,0,1.22-.2,3.16,3.16,0,0,0,.75-.4.85.85,0,0,1,.4-.2.4.4,0,0,1,.32.16.51.51,0,0,1,.14.32c0,.25-.28.52-.83.8a4.47,4.47,0,0,1-2,.42,4.36,4.36,0,0,1-3-1,3.4,3.4,0,0,1-1.16-2.68V11.35A3.43,3.43,0,0,1,69.7,8.81a3.68,3.68,0,0,1,5.15,0ZM75,11.37a2.74,2.74,0,0,0-.76-1.9,2.49,2.49,0,0,0-1.92-.84,2.62,2.62,0,0,0-1.91.78,2.51,2.51,0,0,0-.79,1.86v.82h4.26a2,2,0,0,0,.9-.14C74.91,11.86,75,11.66,75,11.37ZM81.6,8.73a.35.35,0,0,0,.26-.13A.42.42,0,0,0,82,8.31.49.49,0,0,0,81.87,8a.32.32,0,0,0-.27-.13H78.94V3.71a.37.37,0,0,0-.15-.3.55.55,0,0,0-.35-.12.52.52,0,0,0-.33.12.37.37,0,0,0-.15.3V14.45c0,1.91,1,2.86,3,2.86h.5a.45.45,0,0,0,.33-.14.44.44,0,0,0,.13-.32.44.44,0,0,0-.46-.46H81A2.32,2.32,0,0,1,79.4,16a2,2,0,0,1-.46-1.5V8.73Zm7.11,4.59a2.58,2.58,0,0,0-1.25-.84L86,12a4.15,4.15,0,0,1-1.25-.6,1.26,1.26,0,0,1-.51-1.06,1.69,1.69,0,0,1,.53-1.2,2.16,2.16,0,0,1,1.61-.54,3.75,3.75,0,0,1,1.4.27l.7.27a.38.38,0,0,0,.3-.18.58.58,0,0,0,.14-.34c0-.21-.27-.42-.81-.61a5.22,5.22,0,0,0-1.75-.29,3,3,0,0,0-2.27.8,2.59,2.59,0,0,0-.77,1.84,2,2,0,0,0,.51,1.46,2.84,2.84,0,0,0,1.25.77l1.48.44a3.34,3.34,0,0,1,1.23.68A1.63,1.63,0,0,1,88.28,15a1.36,1.36,0,0,1-.54,1.11,2.62,2.62,0,0,1-1.66.43A3.57,3.57,0,0,1,85,16.39a3.16,3.16,0,0,1-.74-.32l-.46-.32a.45.45,0,0,0-.32-.14.31.31,0,0,0-.25.15.53.53,0,0,0-.11.31c0,.31.29.61.87.91a4.65,4.65,0,0,0,2.15.45,3.58,3.58,0,0,0,2.3-.66A2.2,2.2,0,0,0,89.22,15,2.45,2.45,0,0,0,88.71,13.32Z"/></svg>