<svg id="Calque_1" data-name="Calque 1" xmlns="http://www.w3.org/2000/svg" viewBox="0 0 265 97.52"><defs><style>.cls-1{fill:#171729;}.cls-2{fill:#e93f67;}.cls-3{fill:#fff;}</style></defs><title>jlabddrawio</title><rect class="cls-1" width="265" height="97.52"/><path class="cls-2" d="M26.2,54.58a1,1,0,0,1-.8.39H16.67a1.37,1.37,0,0,1-.93-.33,1,1,0,0,1-.39-.83V12.51a1,1,0,0,1,.39-.83,1.37,1.37,0,0,1,.93-.33H25.4a1,1,0,0,1,.8.39,1.55,1.55,0,0,1,0,1.87,1,1,0,0,1-.77.39H18.11V52.32H25.4a1,1,0,0,1,.77.4,1.53,1.53,0,0,1,0,1.86Zm6.38-39a2.05,2.05,0,0,0-1.49.58,1.78,1.78,0,0,0-.61,1.35,1.93,1.93,0,0,0,.61,1.43,2,2,0,0,0,1.49.61,2.08,2.08,0,0,0,2-2A1.78,1.78,0,0,0,34,16.13,2,2,0,0,0,32.58,15.55Zm0,12.2c-.89,0-1.33.37-1.33,1.1v27.5a15.16,15.16,0,0,1-.88,5.91,3.48,3.48,0,0,1-3.54,2,1.31,1.31,0,0,0-.91.33,1.18,1.18,0,0,0-.35.89,1.24,1.24,0,0,0,.38.93,1.35,1.35,0,0,0,1,.39q7,0,7-10.44V28.85C34,28.12,33.5,27.75,32.58,27.75ZM43,11.52a1.38,1.38,0,0,0-.94.33,1,1,0,0,0-.39.82V52.6a1.1,1.1,0,0,0,.39.85,1.31,1.31,0,0,0,.94.36,1.34,1.34,0,0,0,1-.38,1.14,1.14,0,0,0,.42-.83V12.67a1,1,0,0,0-.39-.82A1.48,1.48,0,0,0,43,11.52ZM66.54,30.43A12.12,12.12,0,0,1,68.86,38V52.6a1.1,1.1,0,0,1-.39.85,1.41,1.41,0,0,1-1.88,0,1.12,1.12,0,0,1-.38-.85V50q-3.64,4.2-8.29,4.2a8.09,8.09,0,0,1-5.49-1.85,6.83,6.83,0,0,1-2.13-5.44c0-2.76,1.1-4.69,3.29-5.77s5.38-1.63,9.58-1.63h3V38a9.46,9.46,0,0,0-1.74-5.71,6,6,0,0,0-5.22-2.41,9.87,9.87,0,0,0-3.92.78c-1.21.51-1.84.77-1.87.77a1,1,0,0,1-.89-.5,1.77,1.77,0,0,1-.33-1c0-.63.77-1.21,2.29-1.74a14.65,14.65,0,0,1,4.83-.8Q64.22,27.42,66.54,30.43Zm-.39,11.24h-2.7c-1.59,0-2.91,0-4,.16a17.11,17.11,0,0,0-3.2.64A4.52,4.52,0,0,0,53.84,44,4.38,4.38,0,0,0,53,46.75a4.62,4.62,0,0,0,1.46,3.72,5.74,5.74,0,0,0,3.84,1.25,8.42,8.42,0,0,0,5.33-2q2.51-2,2.51-4ZM93,30.37a9.81,9.81,0,0,1,2.93,7.15v6.41a10,10,0,0,1-3,7.12,9.24,9.24,0,0,1-6.87,3.1,8.74,8.74,0,0,1-4.5-1.22,7.63,7.63,0,0,1-3-3V52.6a1.17,1.17,0,0,1-.39.83,1.27,1.27,0,0,1-.94.38,1.33,1.33,0,0,1-.94-.36,1.09,1.09,0,0,1-.38-.85V12.67a1,1,0,0,1,.38-.82,1.4,1.4,0,0,1,.94-.33,1.49,1.49,0,0,1,1,.33,1,1,0,0,1,.38.82V31.61A8.21,8.21,0,0,1,86,27.42,9.51,9.51,0,0,1,93,30.37Zm.22,7.15A7.4,7.4,0,0,0,91,32.28,6.92,6.92,0,0,0,85.81,30a7,7,0,0,0-5,2.1,7.25,7.25,0,0,0-2.18,5.46v8.29c0,1.07.74,2.3,2.21,3.7a7.1,7.1,0,0,0,5,2.1A6.86,6.86,0,0,0,91,49.26a7.59,7.59,0,0,0,2.21-5.33Zm16.07-25.84a1.4,1.4,0,0,0-.94-.33H99.62a1,1,0,0,0-.83.39,1.4,1.4,0,0,0-.33.91,1.47,1.47,0,0,0,.33,1,1,1,0,0,0,.83.39h7.29V52.32H99.62a1,1,0,0,0-.83.4,1.44,1.44,0,0,0-.33,1,1.35,1.35,0,0,0,.33.9,1,1,0,0,0,.83.39h8.72a1.4,1.4,0,0,0,.94-.33,1,1,0,0,0,.39-.83V12.51A1,1,0,0,0,109.28,11.68Z"/><path class="cls-3" d="M134.9,11.52a1.46,1.46,0,0,0-1,.33,1,1,0,0,0-.39.82V31.61a8.21,8.21,0,0,0-7.34-4.19,9.52,9.52,0,0,0-7,2.95,9.8,9.8,0,0,0-2.92,7.15v6.41a10,10,0,0,0,3,7.12,9.25,9.25,0,0,0,6.88,3.1,8.74,8.74,0,0,0,4.5-1.22,7.7,7.7,0,0,0,3-3V52.6a1.16,1.16,0,0,0,.38.83,1.27,1.27,0,0,0,.94.38,1.33,1.33,0,0,0,.94-.36,1.1,1.1,0,0,0,.39-.85V12.67a1,1,0,0,0-.39-.82A1.4,1.4,0,0,0,134.9,11.52Zm-1.38,34.29c0,1.07-.74,2.3-2.21,3.7a7.09,7.09,0,0,1-5,2.1,6.86,6.86,0,0,1-5.14-2.35,7.59,7.59,0,0,1-2.21-5.33V37.52a7.4,7.4,0,0,1,2.21-5.24A6.92,6.92,0,0,1,126.34,30a7,7,0,0,1,5,2.1,7.25,7.25,0,0,1,2.18,5.46Zm23-18a1.33,1.33,0,0,1,0,1.82,1.16,1.16,0,0,1-.86.36h-2a7.15,7.15,0,0,0-5.22,2.23A7.92,7.92,0,0,0,146.22,38V52.6a1.16,1.16,0,0,1-.41.83,1.37,1.37,0,0,1-1,.38,1.33,1.33,0,0,1-.94-.36,1.09,1.09,0,0,1-.38-.85V28.85c0-.73.44-1.1,1.32-1.1a1.49,1.49,0,0,1,.94.3,1,1,0,0,1,.39.8v2.82a8.16,8.16,0,0,1,3-3,8.49,8.49,0,0,1,4.56-1.21h2A1.16,1.16,0,0,1,156.52,27.78Zm11.18-.36a14.65,14.65,0,0,0-4.83.8c-1.53.53-2.29,1.11-2.29,1.74a1.77,1.77,0,0,0,.33,1,1,1,0,0,0,.88.5s.67-.26,1.88-.77a9.87,9.87,0,0,1,3.92-.78,6,6,0,0,1,5.22,2.41A9.46,9.46,0,0,1,174.55,38v1.44h-3q-6.3,0-9.58,1.63c-2.19,1.08-3.29,3-3.29,5.77a6.83,6.83,0,0,0,2.13,5.44,8.07,8.07,0,0,0,5.49,1.85q4.63,0,8.28-4.2V52.6a1.1,1.1,0,0,0,.39.85,1.41,1.41,0,0,0,1.88,0,1.1,1.1,0,0,0,.39-.85V38a12.12,12.12,0,0,0-2.32-7.59Q172.61,27.42,167.7,27.42Zm6.85,18.33q0,1.94-2.51,4a8.42,8.42,0,0,1-5.33,2,5.74,5.74,0,0,1-3.84-1.25,4.58,4.58,0,0,1-1.46-3.72,4.32,4.32,0,0,1,.83-2.74,4.52,4.52,0,0,1,2.43-1.54,17.11,17.11,0,0,1,3.2-.64c1.07-.11,2.39-.16,4-.16h2.71ZM215.07,28a1,1,0,0,1,.44.88,1.45,1.45,0,0,1-.22.83l-8.61,23.69a1.1,1.1,0,0,1-1,.77.93.93,0,0,1-.95-.7L198.54,34l-6.08,19.16a1.23,1.23,0,0,1-2.41,0l-8.54-23.47a4.1,4.1,0,0,1-.22-.78,1.11,1.11,0,0,1,.46-.91,1.65,1.65,0,0,1,1.05-.36,1.11,1.11,0,0,1,1.08.67l7.51,20.71,6-19a1.06,1.06,0,0,1,2.09.09l5.85,19.27L213,28.36c.11-.44.46-.67,1.05-.67A1.69,1.69,0,0,1,215.07,28Zm8.08.82V52.6a1.14,1.14,0,0,1-.42.83,1.35,1.35,0,0,1-1,.38,1.31,1.31,0,0,1-.93-.36,1.1,1.1,0,0,1-.39-.85V28.85c0-.73.44-1.1,1.32-1.1S223.15,28.12,223.15,28.85Zm0-12.72a1.78,1.78,0,0,1,.61,1.35,1.93,1.93,0,0,1-.61,1.43,2,2,0,0,1-1.44.61,2,2,0,0,1-1.49-.61,2,2,0,0,1-.6-1.43,1.8,1.8,0,0,1,.6-1.35,2.08,2.08,0,0,1,1.49-.58A2,2,0,0,1,223.2,16.13ZM246.61,30.4a9.82,9.82,0,0,0-7.12-3,9.65,9.65,0,0,0-7.12,3,9.75,9.75,0,0,0-3,7.09v6.41a9.87,9.87,0,0,0,3,7.15,9.68,9.68,0,0,0,14.17,0,9.82,9.82,0,0,0,3.06-7.12V37.52A9.62,9.62,0,0,0,246.61,30.4Zm.33,13.53a7.58,7.58,0,0,1-2.2,5.33,7,7,0,0,1-5.25,2.35,6.9,6.9,0,0,1-5.22-2.35,7.64,7.64,0,0,1-2.18-5.33V37.52a7.45,7.45,0,0,1,2.18-5.24A6.91,6.91,0,0,1,239.49,30a7,7,0,0,1,5.25,2.32,7.39,7.39,0,0,1,2.2,5.24Z"/></svg>