<?xml version="1.0" encoding="UTF-8" standalone="no"?>
<!-- Generator: Adobe Illustrator 22.1.0, SVG Export Plug-In . SVG Version: 6.00 Build 0)  -->

<svg
   xmlns:dc="http://purl.org/dc/elements/1.1/"
   xmlns:cc="http://creativecommons.org/ns#"
   xmlns:rdf="http://www.w3.org/1999/02/22-rdf-syntax-ns#"
   xmlns:svg="http://www.w3.org/2000/svg"
   xmlns="http://www.w3.org/2000/svg"
   xmlns:sodipodi="http://sodipodi.sourceforge.net/DTD/sodipodi-0.dtd"
   xmlns:inkscape="http://www.inkscape.org/namespaces/inkscape"
   version="1.1"
   id="Calque_1"
   x="0px"
   y="0px"
   viewBox="0 0 166.01647 37.919997"
   xml:space="preserve"
   inkscape:version="0.91 r13725"
   sodipodi:docname="pythreejs.svg"><metadata
     id="metadata13"><rdf:RDF><cc:Work
         rdf:about=""><dc:format>image/svg+xml</dc:format><dc:type
           rdf:resource="http://purl.org/dc/dcmitype/StillImage" /><dc:title /></cc:Work></rdf:RDF></metadata><defs
     id="defs11" /><sodipodi:namedview
     pagecolor="#ffffff"
     bordercolor="#666666"
     borderopacity="1"
     objecttolerance="10"
     gridtolerance="10"
     guidetolerance="10"
     inkscape:pageopacity="0"
     inkscape:pageshadow="2"
     inkscape:window-width="1375"
     inkscape:window-height="657"
     id="namedview9"
     showgrid="false"
     fit-margin-top="0"
     fit-margin-left="0"
     fit-margin-right="0"
     fit-margin-bottom="0"
     inkscape:zoom="4.9607712"
     inkscape:cx="18.160484"
     inkscape:cy="33.289848"
     inkscape:window-x="0"
     inkscape:window-y="23"
     inkscape:window-maximized="0"
     inkscape:current-layer="Calque_1" /><style
     type="text/css"
     id="style3">
	.st0{opacity:0.28;fill:#111212;enable-background:new    ;}
</style><g
     style="font-style:normal;font-weight:normal;font-size:40px;line-height:125%;font-family:sans-serif;letter-spacing:0px;word-spacing:0px;fill:#000000;fill-opacity:1;stroke:none;stroke-width:1px;stroke-linecap:butt;stroke-linejoin:miter;stroke-opacity:1"
     id="text4141"><path
       d="m -7.6293945e-8,0.35015266 6.399999976293946,0 0,1.16000004 -5,0 0,32.0800003 5,0 0,1.16 -6.399999976293946,0 0,-34.40000034 z"
       style="font-style:normal;font-variant:normal;font-weight:300;font-stretch:normal;font-family:'Source Sans Pro Light';-inkscape-font-specification:'Source Sans Pro Light, Light';fill:#ac93a7"
       id="path4138" /><path
       d="m 12.691875,30.350153 0,7 -1.76,0 0,-27.8800003 1.52,0 0.16,2.4000003 0.12,0 q 1.4,-1.12 3.04,-2.0000003 1.68,-0.88 3.48,-0.88 3.84,0 5.76,2.6800003 1.92,2.64 1.92,7.12 0,2.44 -0.68,4.36 -0.68,1.92 -1.88,3.28 -1.16,1.32 -2.72,2.04 -1.52,0.68 -3.2,0.68 -1.36,0 -2.8,-0.6 -1.44,-0.64 -2.96,-1.76 l 0,3.56 z m 0,-5.24 q 1.68,1.36 3.12,1.92 1.44,0.56 2.56,0.56 1.44,0 2.68,-0.64 1.24,-0.64 2.12,-1.8 0.88,-1.16 1.36,-2.76 0.52,-1.64 0.52,-3.6 0,-1.76 -0.36,-3.28 -0.32,-1.52 -1.04,-2.6 -0.72,-1.12 -1.88,-1.72 -1.16,-0.64 -2.8,-0.64 -1.44,0 -3,0.84 -1.52,0.8 -3.28,2.32 l 0,11.4 z"
       style="font-style:normal;font-variant:normal;font-weight:300;font-stretch:normal;font-family:'Source Sans Pro Light';-inkscape-font-specification:'Source Sans Pro Light, Light';fill:#ac93a7"
       id="path4140" /><path
       d="m 30.40875,35.470153 q 0.32,0.12 0.72,0.2 0.4,0.12 0.84,0.12 1.8,0 3,-1.44 1.2,-1.44 1.92,-3.64 l 0.52,-1.68 -7.88,-19.5600003 1.92,0 4.64,12.0800003 q 0.44,1.2 0.96,2.64 0.56,1.44 1.12,2.72 l 0.16,0 q 0.44,-1.28 0.88,-2.72 0.48,-1.44 0.88,-2.64 l 4.12,-12.0800003 1.8,0 -7.6,21.6000003 q -0.4,1.2 -1,2.32 -0.56,1.16 -1.36,2.04 -0.76,0.92 -1.8,1.44 -1,0.56 -2.28,0.56 -1.08,0 -1.96,-0.4 l 0.4,-1.56 0,0 z"
       style="font-style:normal;font-variant:normal;font-weight:300;font-stretch:normal;font-family:'Source Sans Pro Light';-inkscape-font-specification:'Source Sans Pro Light, Light';fill:#ac93a7"
       id="path4142" /><path
       d="m 52.310625,33.590153 0,-32.0800003 -5,0 0,-1.16000004 6.4,0 0,34.40000034 -6.4,0 0,-1.16 5,0 z"
       style="font-style:normal;font-variant:normal;font-weight:300;font-stretch:normal;font-family:'Source Sans Pro Light';-inkscape-font-specification:'Source Sans Pro Light, Light';fill:#ac93a7"
       id="path4144" /></g><g
     style="font-style:normal;font-weight:normal;font-size:40px;line-height:125%;font-family:sans-serif;letter-spacing:0px;word-spacing:0px;fill:#000000;fill-opacity:1;stroke:none;stroke-width:1px;stroke-linecap:butt;stroke-linejoin:miter;stroke-opacity:1"
     id="text4145"><path
       d="m 61.742723,11.08 -3,0 0,-1.3599998 3.04,-0.16 0.24,-5.56 1.52,0 0,5.56 5.56,0 0,1.5199998 -5.56,0 0,12.52 q 0,0.92 0.12,1.68 0.16,0.72 0.52,1.28 0.36,0.52 0.96,0.84 0.64,0.28 1.64,0.28 0.56,0 1.2,-0.16 0.68,-0.2 1.2,-0.44 l 0.48,1.44 q -0.84,0.32 -1.68,0.52 -0.84,0.2 -1.44,0.2 -1.4,0 -2.32,-0.44 -0.92,-0.4 -1.48,-1.16 -0.56,-0.76 -0.8,-1.84 -0.2,-1.08 -0.2,-2.36 l 0,-12.36 z"
       style="font-style:normal;font-variant:normal;font-weight:300;font-stretch:normal;font-family:'Source Sans Pro Light';-inkscape-font-specification:'Source Sans Pro Light, Light';fill:#ffffff;fill-opacity:1"
       id="path4147" /><path
       d="m 73.802723,2.2888184e-7 1.76,0 0,8.31999997111816 0,4.2399998 q 1.52,-1.52 3.08,-2.48 1.56,-0.9999998 3.56,-0.9999998 3,0 4.4,1.7999998 1.4,1.8 1.4,5.56 l 0,12.32 -1.76,0 0,-12.08 q 0,-3.08 -1.04,-4.52 -1,-1.48 -3.36,-1.48 -1.72,0 -3.12,0.92 -1.4,0.88 -3.16,2.68 l 0,14.48 -1.76,0 0,-28.75999977111816 z"
       style="font-style:normal;font-variant:normal;font-weight:300;font-stretch:normal;font-family:'Source Sans Pro Light';-inkscape-font-specification:'Source Sans Pro Light, Light';fill:#ffffff;fill-opacity:1"
       id="path4149" /><path
       d="m 94.896473,9.5600002 1.52,0 0.16,3.5599998 0.12,0 q 0.96,-1.8 2.32,-2.92 1.399997,-1.1199998 3.119997,-1.1199998 0.56,0 1,0.08 0.44,0.08 0.92,0.32 l -0.4,1.5999998 q -0.48,-0.2 -0.84,-0.24 -0.36,-0.08 -0.92,-0.08 -1.28,0 -2.719997,1.12 -1.4,1.08 -2.52,3.8 l 0,13.08 -1.76,0 0,-19.1999998 z"
       style="font-style:normal;font-variant:normal;font-weight:300;font-stretch:normal;font-family:'Source Sans Pro Light';-inkscape-font-specification:'Source Sans Pro Light, Light';fill:#ffffff;fill-opacity:1"
       id="path4151" /><path
       d="m 105.5621,19.2 q 0,-2.36 0.68,-4.24 0.72,-1.88 1.88,-3.16 1.2,-1.32 2.68,-1.9999998 1.52,-0.72 3.12,-0.72 3.44,0 5.4,2.3199998 1.96,2.32 1.96,6.56 0,0.36 0,0.72 0,0.36 -0.08,0.72 l -13.84,0 q 0.04,1.8 0.56,3.36 0.52,1.52 1.44,2.64 0.96,1.08 2.28,1.72 1.32,0.6 2.96,0.6 1.56,0 2.8,-0.44 1.28,-0.48 2.36,-1.28 l 0.72,1.36 q -1.16,0.68 -2.56,1.28 -1.36,0.6 -3.48,0.6 -1.84,0 -3.48,-0.68 -1.6,-0.68 -2.8,-1.96 -1.2,-1.32 -1.92,-3.16 -0.68,-1.88 -0.68,-4.24 z m 14.04,-1.16 q 0,-3.72 -1.52,-5.56 -1.52,-1.88 -4.12,-1.88 -1.24,0 -2.36,0.52 -1.12,0.52 -2.04,1.48 -0.88,0.96 -1.48,2.36 -0.56,1.36 -0.72,3.08 l 12.24,0 z"
       style="font-style:normal;font-variant:normal;font-weight:300;font-stretch:normal;font-family:'Source Sans Pro Light';-inkscape-font-specification:'Source Sans Pro Light, Light';fill:#ffffff;fill-opacity:1"
       id="path4153" /><path
       d="m 124.85897,19.2 q 0,-2.36 0.68,-4.24 0.72,-1.88 1.88,-3.16 1.2,-1.32 2.68,-1.9999998 1.52,-0.72 3.12,-0.72 3.44,0 5.4,2.3199998 1.96,2.32 1.96,6.56 0,0.36 0,0.72 0,0.36 -0.08,0.72 l -13.84,0 q 0.04,1.8 0.56,3.36 0.52,1.52 1.44,2.64 0.96,1.08 2.28,1.72 1.32,0.6 2.96,0.6 1.56,0 2.8,-0.44 1.28,-0.48 2.36,-1.28 l 0.72,1.36 q -1.16,0.68 -2.56,1.28 -1.36,0.6 -3.48,0.6 -1.84,0 -3.48,-0.68 -1.6,-0.68 -2.8,-1.96 -1.2,-1.32 -1.92,-3.16 -0.68,-1.88 -0.68,-4.24 z m 14.04,-1.16 q 0,-3.72 -1.52,-5.56 -1.52,-1.88 -4.12,-1.88 -1.24,0 -2.36,0.52 -1.12,0.52 -2.04,1.48 -0.88,0.96 -1.48,2.36 -0.56,1.36 -0.72,3.08 l 12.24,0 z"
       style="font-style:normal;font-variant:normal;font-weight:300;font-stretch:normal;font-family:'Source Sans Pro Light';-inkscape-font-specification:'Source Sans Pro Light, Light';fill:#ffffff;fill-opacity:1"
       id="path4155" /><path
       d="m 145.75585,9.5600002 1.8,0 0,22.7599998 q 0,2.84 -1.04,4.2 -1.04,1.4 -3.28,1.4 -0.68,0 -1.36,-0.16 -0.68,-0.12 -1.12,-0.32 l 0.44,-1.44 q 0.36,0.12 0.88,0.24 0.56,0.16 1.12,0.16 1.6,0 2.08,-1.2 0.48,-1.16 0.48,-3 l 0,-22.6399998 z m 0.92,-4.64 q -0.64,0 -1.12,-0.44 -0.48,-0.44 -0.48,-1.12 0,-0.76 0.48,-1.16 0.48,-0.44 1.12,-0.44 0.68,0 1.16,0.44 0.48,0.4 0.48,1.16 0,0.68 -0.48,1.12 -0.48,0.44 -1.16,0.44 z"
       style="font-style:normal;font-variant:normal;font-weight:300;font-stretch:normal;font-family:'Source Sans Pro Light';-inkscape-font-specification:'Source Sans Pro Light, Light';fill:#ffffff;fill-opacity:1"
       id="path4157" /><path
       d="m 153.53647,25.28 q 1.24,1.04 2.64,1.76 1.4,0.68 3.48,0.68 2.28,0 3.4,-1.12 1.16,-1.16 1.16,-2.68 0,-0.88 -0.44,-1.56 -0.4,-0.68 -1.08,-1.16 -0.68,-0.48 -1.52,-0.84 -0.8,-0.36 -1.64,-0.68 -1.08,-0.4 -2.2,-0.84 -1.08,-0.44 -1.96,-1.04 -0.88,-0.64 -1.44,-1.48 -0.52,-0.88 -0.52,-2.12 0,-1.04 0.4,-1.96 0.4,-0.96 1.2,-1.64 0.8,-0.7199998 1.92,-1.1199998 1.16,-0.4 2.68,-0.4 1.52,0 2.96,0.56 1.48,0.5599998 2.52,1.4399998 l -0.96,1.24 q -0.96,-0.72 -2.04,-1.2 -1.08,-0.52 -2.56,-0.52 -1.12,0 -1.92,0.32 -0.8,0.28 -1.36,0.76 -0.52,0.48 -0.8,1.12 -0.24,0.64 -0.24,1.28 0,0.84 0.36,1.44 0.4,0.56 1.04,1 0.64,0.44 1.44,0.8 0.84,0.32 1.68,0.64 1.12,0.44 2.24,0.88 1.12,0.44 2,1.08 0.92,0.64 1.48,1.6 0.56,0.92 0.56,2.32 0,1.08 -0.44,2.08 -0.4,0.96 -1.24,1.72 -0.84,0.72 -2.04,1.16 -1.2,0.44 -2.76,0.44 -2.16,0 -3.96,-0.76 -1.8,-0.8 -3.08,-1.88 l 1.04,-1.32 z"
       style="font-style:normal;font-variant:normal;font-weight:300;font-stretch:normal;font-family:'Source Sans Pro Light';-inkscape-font-specification:'Source Sans Pro Light, Light';fill:#ffffff;fill-opacity:1"
       id="path4159" /></g></svg>