<svg id="Calque_1" data-name="Calque 1" xmlns="http://www.w3.org/2000/svg" viewBox="0 0 265 97.52"><defs><style>.cls-1{fill:#171729;}.cls-2,.cls-3{fill:#96cf41;}.cls-3{opacity:0.28;isolation:isolate;}</style></defs><title>xdata</title><rect class="cls-1" width="265" height="97.52"/><path class="cls-2" d="M61.52,48.29c.38-.67,6.31-9.56,9.65-14.63C73.94,29.46,81,18.84,81.5,18.08a15.24,15.24,0,0,1,4.68-4.88,17.66,17.66,0,0,1,4.4-2,4.29,4.29,0,0,0,.48-.1H55.68c.1,0,.19.1.29.1a20,20,0,0,1,4.4,2,16.38,16.38,0,0,1,4.68,4.88c.39.67,5,7.46,8.22,12.43-.76,1.14-1.43,2.2-2,3,0-.09-.1-.09-.1-.19-3.34-5.07-9.27-14-9.65-14.63a10,10,0,0,0-3.35-3.25,14.07,14.07,0,0,0-3.35-1.53,35.48,35.48,0,0,0-3.92-.67V53.83a18.67,18.67,0,0,0,3.83-.67,13.87,13.87,0,0,0,3.34-1.52A12.84,12.84,0,0,0,61.52,48.29Zm24.57,5.45a16.18,16.18,0,0,1-4.69-4.88c-.38-.67-5-7.45-8.22-12.33C70,41.41,65.44,48.19,65.05,48.86a15.14,15.14,0,0,1-4.68,4.88,17.9,17.9,0,0,1-4.4,2,4.71,4.71,0,0,0-.48.09H90.77c-.1,0-.19-.09-.38-.09A20.48,20.48,0,0,1,86.09,53.74ZM88.48,15.5a9.86,9.86,0,0,0-3.35,3.25c-.38.67-6.31,9.56-9.66,14.63a.2.2,0,0,1-.19.19c.1,0,.1.09.1.19,3.34,5.06,9.27,14,9.65,14.62a10.07,10.07,0,0,0,3.35,3.26,13.83,13.83,0,0,0,3.35,1.52,18.41,18.41,0,0,0,3.82.67v2h.1V13.2a19.25,19.25,0,0,0-3.83.67A12.33,12.33,0,0,0,88.48,15.5Zm98.18,7.36-1-2h-7V13.49h-2.2v7.27h-7.08l-1,2.1h8.13v16a12.1,12.1,0,0,0,.76,5,16.29,16.29,0,0,0,1.72,2.77A16.11,16.11,0,0,0,182,49.15l1.06-2.1a15.24,15.24,0,0,1-2.39-1.92,10.06,10.06,0,0,1-1.34-2.19,8.06,8.06,0,0,1-.67-3.35V23h8Zm15.1-2.77A14.18,14.18,0,0,0,195,21.52L196,23.43a13.3,13.3,0,0,1,5.83-1.24c7.36,0,9.46,4,9.85,10.23-13.39.57-19.89,2.2-19.89,9.08,0,5,2.2,8.41,9.56,8.41h.48c8.79,0,12.24-4.78,12.24-14.91S210.56,20.09,201.76,20.09Zm0,27.63a13,13,0,0,1-5.35-1.06,3.39,3.39,0,0,1-1.15-.76c-.95-1-1.24-2.39-1.24-4.3,0-5.64,6.41-6.6,17.59-7.08a1,1,0,0,0,.1.48C211.8,42.74,210.08,47.72,201.76,47.72ZM127.39,24.58c-1.92-2.87-5-4.4-9.66-4.4-8.51,0-11.86,4.78-11.86,14.82s3.35,14.82,11.86,14.82c4.68,0,7.74-1.44,9.66-4.4v3.83a17.12,17.12,0,0,0,2.19.47V4.89a14.09,14.09,0,0,0-2.19.47Zm-9.66,23.33c-8,0-9.56-5.07-9.56-12.81s1.62-12.81,9.56-12.81,9.56,5.06,9.56,12.81S125.76,47.91,117.73,47.91Zm31.55-27.82a14.22,14.22,0,0,0-6.79,1.43l1,1.91a13.33,13.33,0,0,1,5.83-1.24c7.37,0,9.47,4,9.85,10.23-13.38.57-19.88,2.2-19.88,9.08,0,5,2.19,8.41,9.56,8.41h.47c8.8,0,12.24-4.78,12.24-14.91S158.07,20.09,149.28,20.09ZM159.22,35c0,7.74-1.72,12.81-9.94,12.81a13.17,13.17,0,0,1-5.36-1.05,3.36,3.36,0,0,1-1.14-.77c-1-1.05-1.25-2.39-1.25-4.3,0-5.64,6.41-6.59,17.6-7.07C159.22,34.62,159.22,34.81,159.22,35Z"/><path class="cls-3" d="M75.28,33.47c-.57.77-1.24,1.82-2,3,3.25,4.88,7.84,11.76,8.23,12.43a15.14,15.14,0,0,0,4.68,4.88,17.9,17.9,0,0,0,4.4,2,4.71,4.71,0,0,1,.48.09h4.59v-2.1a18.53,18.53,0,0,1-3.83-.67,13.66,13.66,0,0,1-3.34-1.53,9.86,9.86,0,0,1-3.35-3.25c-.38-.67-6.31-9.56-9.66-14.63h0c-.09,0-.09-.09-.19-.19M55.49,11.1H50.9v2.1a19.39,19.39,0,0,1,3.83.67,14.11,14.11,0,0,1,3.34,1.53,11.13,11.13,0,0,1,3.35,3.35c.38.67,6.31,9.56,9.66,14.63h0c0,.09.09.09.09.19.57-.77,1.24-1.82,2-3C69.93,25.73,65.34,18.84,65,18.17a15.24,15.24,0,0,0-4.69-4.87,17.49,17.49,0,0,0-4.4-2c0-.09-.19-.09-.38-.19"/></svg>