<?xml version="1.0" encoding="utf-8"?>
<!-- Generator: Adobe Illustrator 22.1.0, SVG Export Plug-In . SVG Version: 6.00 Build 0)  -->
<svg version="1.1" id="Calque_1" xmlns="http://www.w3.org/2000/svg" xmlns:xlink="http://www.w3.org/1999/xlink" x="0px" y="0px"
	 viewBox="0 0 170.6 66.4" style="enable-background:new 0 0 170.6 66.4;" xml:space="preserve">
<style type="text/css">
	.st0{fill:#171729;}
	.st1{fill:#97D23D;}
	.st2{opacity:0.28;fill:#97D23D;enable-background:new    ;}
</style>
<rect y="-0.2" class="st0" width="170.7" height="66.8"/>
<path class="st1" d="M11.1,49c0.4-0.7,6.6-10,10.1-15.3c2.9-4.4,10.3-15.5,10.8-16.3c1.2-2,2.9-3.8,4.9-5.1c0-0.1,2.1-1.3,4.6-2.1
	c0.2,0,0.4-0.1,0.5-0.1H5c0.1,0,0.2,0.1,0.3,0.1c2.5,0.8,4.5,2,4.6,2.1c2,1.3,3.6,3.1,4.9,5.1c0.4,0.7,5.2,7.8,8.6,13
	c-0.8,1.2-1.5,2.3-2.1,3.1c0-0.1-0.1-0.1-0.1-0.2C17.7,28,11.5,18.7,11.1,18c-0.8-1.3-2-2.5-3.5-3.4c0,0-1.5-1-3.5-1.6
	c-0.9-0.2-2.3-0.5-4.1-0.7v42.5c1.8-0.2,3.2-0.4,4-0.7c2-0.6,3.5-1.6,3.5-1.6C9,51.5,10.2,50.3,11.1,49z M36.8,54.7
	c-2-1.3-3.6-3.1-4.9-5.1c-0.4-0.7-5.2-7.8-8.6-12.9c-3.3,5.1-8.1,12.2-8.5,12.9c-1.2,2-2.9,3.8-4.9,5.1c0,0.1-2.1,1.3-4.6,2.1
	c-0.2,0-0.4,0.1-0.5,0.1h36.9c-0.1,0-0.2-0.1-0.4-0.1C38.9,56,36.9,54.8,36.8,54.7z M39.3,14.7c-1.5,0.9-2.7,2.1-3.5,3.4
	c-0.4,0.7-6.6,10-10.1,15.3c0,0.1-0.1,0.2-0.2,0.2c0.1,0,0.1,0.1,0.1,0.2c3.5,5.3,9.7,14.6,10.1,15.3c0.8,1.3,2,2.5,3.5,3.4
	c0,0,1.5,1,3.5,1.6c0.8,0.3,2.2,0.5,4,0.7v2.1h0.1V12.3c-1.8,0.2-3.2,0.4-4,0.7C40.8,13.6,39.3,14.7,39.3,14.7z M142,22.4l-1.1-2.1
	h-7.3v-7.7h-2.3v7.6h-7.4l-1.1,2.2h8.5c0,0,0,15.8,0,16.7c-0.1,1.9,0.2,3.6,0.8,5.2c0,0,0.7,1.5,1.8,2.9c0.5,0.7,1.7,1.6,3.2,2.7
	l1.1-2.2c-1.2-0.8-2-1.5-2.5-2c-0.9-1.1-1.4-2.3-1.4-2.3c-0.5-1.1-0.7-2.3-0.7-3.5c0-0.8,0-16.5,0-17.4h8.4V22.4z M157.8,19.5
	c-2.4,0-4.8,0.3-7.1,1.5l1.1,2c1.9-0.9,3.9-1.3,6.1-1.3c7.7,0,9.9,4.2,10.3,10.7c-14,0.6-20.8,2.3-20.8,9.5c0,5.2,2.3,8.8,10,8.8
	h0.5c9.2,0,12.8-5,12.8-15.6C170.6,24.4,167,19.5,157.8,19.5z M157.8,48.4c-1.9,0-3.8-0.3-5.6-1.1c-0.5-0.2-0.9-0.5-1.2-0.8
	c-1-1.1-1.3-2.5-1.3-4.5c0-5.9,6.7-6.9,18.4-7.4c0,0.1,0,0.3,0.1,0.5C168.3,43.2,166.5,48.4,157.8,48.4z M80,24.2
	c-2-3-5.2-4.6-10.1-4.6c-8.9,0-12.4,5-12.4,15.5c0,10.6,3.5,15.5,12.4,15.5c4.9,0,8.1-1.5,10.1-4.6v4c0.8,0.2,1.5,0.4,2.3,0.5V3.6
	c-0.8,0.1-1.6,0.3-2.3,0.5V24.2z M69.9,48.6c-8.4,0-10-5.3-10-13.4s1.7-13.4,10-13.4c8.4,0,10,5.3,10,13.4
	C80,43.2,78.3,48.6,69.9,48.6z M102.9,19.5c-2.4,0-4.8,0.3-7.1,1.5l1.1,2c1.9-0.9,3.9-1.3,6.1-1.3c7.7,0,9.9,4.2,10.3,10.7
	c-14,0.6-20.8,2.3-20.8,9.5c0,5.2,2.3,8.8,10,8.8h0.5c9.2,0,12.8-5,12.8-15.6C115.7,24.4,112.1,19.5,102.9,19.5z M113.3,35.1
	c0,8.1-1.8,13.4-10.4,13.4c-1.9,0-3.8-0.3-5.6-1.1c-0.5-0.2-0.9-0.5-1.2-0.8c-1-1.1-1.3-2.5-1.3-4.5c0-5.9,6.7-6.9,18.4-7.4
	C113.3,34.7,113.3,34.9,113.3,35.1z"/>
<path class="st2" d="M25.5,33.5c-0.6,0.8-1.3,1.9-2.1,3.1c3.4,5.1,8.2,12.3,8.6,13c1.2,2,2.9,3.8,4.9,5.1c0,0.1,2.1,1.3,4.6,2.1
	c0.2,0,0.4,0.1,0.5,0.1h4.8v-2.2c-1.8-0.2-3.2-0.4-4-0.7c-2-0.6-3.5-1.6-3.5-1.6c-1.5-0.9-2.7-2.1-3.5-3.4
	c-0.4-0.7-6.6-10-10.1-15.3l0,0C25.6,33.7,25.6,33.6,25.5,33.5 M4.8,10.1H0v2.2c1.8,0.2,3.2,0.4,4,0.7c2,0.6,3.5,1.6,3.5,1.6
	c1.5,1,2.7,2.2,3.5,3.5c0.4,0.7,6.6,10,10.1,15.3l0,0c0,0.1,0.1,0.1,0.1,0.2c0.6-0.8,1.3-1.9,2.1-3.1c-3.4-5.1-8.2-12.3-8.6-13
	c-1.2-2-2.9-3.8-4.9-5.1c0-0.1-2.1-1.3-4.6-2.1C5.2,10.2,5,10.2,4.8,10.1"/>
</svg>
