<svg id="Calque_1" data-name="Calque 1" xmlns="http://www.w3.org/2000/svg" viewBox="0 0 265 97.52"><defs><style>.cls-1{fill:#171729;}.cls-2{fill:#666;}.cls-3,.cls-4{fill:#41b2c2;}.cls-4{opacity:0.28;isolation:isolate;}</style></defs><title>xeus-cling</title><rect class="cls-1" width="265" height="97.52"/><path class="cls-2" d="M146.35,63.54a6.53,6.53,0,0,0-1,3.92c0,3.49,1.3,5.23,3.92,5.23a12.89,12.89,0,0,0,4-.78v2.78a11.1,11.1,0,0,1-4.26.79,6.59,6.59,0,0,1-5.23-2.09,8.63,8.63,0,0,1-1.83-5.93,9.36,9.36,0,0,1,.87-4.27,6,6,0,0,1,2.53-2.78,8.15,8.15,0,0,1,3.92-1,9.73,9.73,0,0,1,4.53,1.13l-1,2.7a15.81,15.81,0,0,0-1.74-.7,6.31,6.31,0,0,0-1.74-.34A3.06,3.06,0,0,0,146.35,63.54Zm11.07,11.68h3.22V58.66h-3.22Zm7.66,0h3.23V63.28h-3.23Zm1.66-16.56c-1.22,0-1.75.53-1.75,1.57s.61,1.57,1.75,1.57a1.75,1.75,0,0,0,1.3-.44,1.67,1.67,0,0,0,.44-1.22C168.48,59.19,168,58.66,166.74,58.66ZM179.63,63a5.57,5.57,0,0,0-2.18.44,3.06,3.06,0,0,0-1.48,1.3h-.17l-.44-1.48h-2.44V75.22h3.23V69.64a5.49,5.49,0,0,1,.61-3,2.19,2.19,0,0,1,2-.87,1.68,1.68,0,0,1,1.48.61,3,3,0,0,1,.44,1.92v7h3.22V67.46a4.47,4.47,0,0,0-1.05-3.22A4.34,4.34,0,0,0,179.63,63Zm19,1.92-1.83.43a3.2,3.2,0,0,1,.53,1.83,3.53,3.53,0,0,1-1.31,3,5.8,5.8,0,0,1-3.75,1h-.61l-.43-.09a1.06,1.06,0,0,0-.53.87c0,.44.61.7,1.83.7h2a4.31,4.31,0,0,1,3,.87,2.91,2.91,0,0,1,1,2.44,3.71,3.71,0,0,1-1.75,3.22,8.65,8.65,0,0,1-5,1.14,6.78,6.78,0,0,1-3.84-.88,2.79,2.79,0,0,1-1.3-2.43,2.82,2.82,0,0,1,.69-1.83,4,4,0,0,1,2-1,2.15,2.15,0,0,1-.87-.7,1.71,1.71,0,0,1,.08-2.17,4.33,4.33,0,0,1,1.14-.88,3,3,0,0,1-1.48-1.3,4.14,4.14,0,0,1-.53-2.09A3.83,3.83,0,0,1,189,64a5.7,5.7,0,0,1,3.66-1,6.4,6.4,0,0,1,1.22.09,3.16,3.16,0,0,1,.87.17H199v1.75Zm-8.54,10.8a1.19,1.19,0,0,0-.61,1.13,1.15,1.15,0,0,0,.61,1,3.64,3.64,0,0,0,1.83.35,5.64,5.64,0,0,0,2.7-.53,1.42,1.42,0,0,0,1-1.3.93.93,0,0,0-.61-1,4.37,4.37,0,0,0-1.83-.26h-1.65A3.3,3.3,0,0,0,190.08,75.74Zm4.1-8.54c0-1.39-.61-2.18-1.74-2.18s-1.83.7-1.83,2.18a3,3,0,0,0,.43,1.57,1.65,1.65,0,0,0,1.31.52,1.53,1.53,0,0,0,1.31-.52A2.06,2.06,0,0,0,194.18,67.2Z"/><path id="path4143" class="cls-3" d="M69.69,11.27c.09,0,.26.09.35.09a19,19,0,0,1,4.35,2A16.4,16.4,0,0,1,79,18.24c.44.61,5,7.49,8.28,12.37-.79,1.13-1.49,2.18-2,3,0-.09-.08-.09-.08-.17-3.4-5.06-9.33-13.94-9.76-14.64a10.74,10.74,0,0,0-3.31-3.22,15.7,15.7,0,0,0-3.4-1.57,19.51,19.51,0,0,0-3.83-.7V54.13a18.93,18.93,0,0,0,3.83-.69,15.7,15.7,0,0,0,3.4-1.57,12.5,12.5,0,0,0,3.4-3.31C76,48,81.88,39,85.28,33.92,88.07,29.65,95.13,19,95.65,18.33a17.62,17.62,0,0,1,4.62-4.88,18.52,18.52,0,0,1,4.35-2l.44-.18Zm40.07,2.09a19.51,19.51,0,0,0-3.83.7,15.7,15.7,0,0,0-3.4,1.57,11.31,11.31,0,0,0-3.4,3.31c-.43.61-6.36,9.58-9.75,14.63-2.7,4.19-9.76,14.81-10.28,15.51A17.62,17.62,0,0,1,74.48,54a18.47,18.47,0,0,1-4.36,2l-.52.09H105l-.35-.09a18.52,18.52,0,0,1-4.35-2,16.4,16.4,0,0,1-4.62-4.88c-.44-.61-5-7.49-8.28-12.37.79-1.13,1.48-2.18,2-3.05,0,.09.08.09.08.18,3.4,5,9.33,13.93,9.76,14.63a12.36,12.36,0,0,0,3.4,3.31,15.7,15.7,0,0,0,3.4,1.57,30,30,0,0,0,3.83.7v2h.09V13.36Z"/><path id="path7-3" class="cls-4" d="M89.29,33.66c-.52.78-1.22,1.83-2,3.05,3.31,5,7.84,11.85,8.27,12.37A17.62,17.62,0,0,0,100.18,54a18.47,18.47,0,0,0,4.36,2c.17,0,.34.09.52.09h4.62V54a19.65,19.65,0,0,1-3.84-.7,16,16,0,0,1-3.4-1.57,11.16,11.16,0,0,1-3.39-3.31c-.35-.52-6.28-9.41-9.67-14.46h0a.32.32,0,0,0-.09-.26M69.51,11.27H64.9v2.09a19.51,19.51,0,0,1,3.83.7,15.7,15.7,0,0,1,3.4,1.57,11.31,11.31,0,0,1,3.4,3.31c.43.61,6.35,9.58,9.75,14.63h0c0,.09.09.09.09.18.52-.79,1.22-1.83,2-3.05-3.31-5-7.84-11.85-8.27-12.46a17.62,17.62,0,0,0-4.62-4.88,18.94,18.94,0,0,0-4.36-2c-.17,0-.34-.09-.61-.09"/><path class="cls-3" d="M190.52,20.24c-4.62,0-8.8,2.1-8.8,7.41s3.75,7,8.36,8.19c4.27,1.22,7.85,2.09,7.85,6,0,4.7-3.4,6.19-7.15,6.19a17,17,0,0,1-9.06-2.44l-1,1.83A18,18,0,0,0,190.87,50c5,0,9.23-2.18,9.23-8.19,0-5.4-4.18-6.62-9.06-8-4.44-1.22-7-2.36-7-6.1,0-4.27,3-5.49,6.7-5.49a14.07,14.07,0,0,1,6.89,1.48l.87-1.92A18.45,18.45,0,0,0,190.52,20.24Z"/><path class="cls-3" d="M169.18,20.16V36c0,7.06-1.05,12-7.67,12h-.61c-6.71,0-7.67-5-7.67-12V20.24A10.41,10.41,0,0,0,151,21.73v15C151,43,152.1,50,160.55,50h1.31c8.36,0,9.58-7.06,9.67-13.42v-15A17.51,17.51,0,0,0,169.18,20.16Z"/><path class="cls-3" d="M131.54,20.24c-5.23,0-11.41,1.92-11.41,15,0,12.11,5.31,14.9,11.85,14.9a16.87,16.87,0,0,0,9.23-2.27l-.87-1.92A15.52,15.52,0,0,1,132,48c-5.14,0-9.24-1.83-9.59-11.07V35.84h20v-.79C142.43,23.9,138.34,20.24,131.54,20.24Zm-9.23,13.6c.17-9.76,4.53-11.59,9.14-11.59,5.14,0,8.63,2.7,8.63,11.59Z"/></svg>