<?xml version="1.0" encoding="utf-8"?>
<!-- Generator: Adobe Illustrator 19.0.0, SVG Export Plug-In . SVG Version: 6.00 Build 0)  -->
<svg version="1.1" id="Calque_1" xmlns="http://www.w3.org/2000/svg" xmlns:xlink="http://www.w3.org/1999/xlink" x="0px" y="0px"
	 viewBox="-260.2 379.6 173 66" style="enable-background:new -260.2 379.6 173 66;" xml:space="preserve">
<style type="text/css">
	.st0{fill:#171729;}
	.st1{fill:#40B3C3;}
	.st2{opacity:0.28;fill:#40B3C3;enable-background:new    ;}
</style>
<rect x="-260.2" y="379.6" class="st0" width="173" height="66"/>
<g>
	<path id="path4143_3_" class="st1" d="M-238.8,389.4c0.1,0,0.3,0.1,0.4,0.1c2.5,0.8,4.5,2,4.6,2.1c1.9,1.3,3.6,3.1,4.8,5.1
		c0.4,0.6,5.2,7.8,8.6,12.9c-0.8,1.2-1.5,2.3-2.1,3.1c0-0.1-0.1-0.1-0.1-0.2c-3.6-5.2-9.8-14.5-10.2-15.2c-0.9-1.3-2-2.5-3.5-3.4
		c0,0-1.5-1-3.5-1.6c-0.8-0.3-2.2-0.5-4-0.7V434c1.8-0.2,3.2-0.4,4-0.7c2-0.6,3.5-1.6,3.5-1.6c1.5-1,2.7-2.2,3.5-3.4
		c0.4-0.7,6.6-9.9,10.1-15.2c2.9-4.6,10.3-15.6,10.8-16.4c1.2-2,2.9-3.8,4.8-5.1c0-0.1,2.1-1.3,4.6-2.1l0.5-0.1
		C-202.1,389.4-238.8,389.4-238.8,389.4z M-197.2,391.6c-1.8,0.2-3.2,0.4-4,0.7c-2.1,0.6-3.6,1.6-3.6,1.6c-1.5,0.9-2.6,2.1-3.5,3.4
		c-0.4,0.7-6.6,9.9-10.1,15.2c-2.9,4.4-10.3,15.5-10.8,16.2c-1.2,2-2.9,3.8-4.8,5.1c0,0.1-2.1,1.3-4.6,2.1l-0.5,0.1h36.8l-0.4-0.1
		c-2.5-0.8-4.5-2-4.6-2.1c-1.9-1.3-3.6-3.1-4.8-5.1c-0.4-0.6-5.2-7.8-8.6-12.9c0.8-1.2,1.5-2.3,2.1-3.1c0,0.1,0.1,0.1,0.1,0.2
		c3.5,5.3,9.7,14.5,10.1,15.2c0.9,1.3,2,2.5,3.5,3.4c0,0,1.5,1,3.5,1.6c0.8,0.3,2.2,0.5,4,0.7v2.1h0.1L-197.2,391.6L-197.2,391.6z"
		/>
	<path id="path7-3_4_" class="st2" d="M-218.5,412.7c-0.6,0.8-1.3,1.9-2.1,3.1c3.4,5.1,8.1,12.3,8.6,12.9c1.2,2,2.9,3.8,4.8,5.1
		c0,0.1,2.1,1.3,4.6,2.1c0.2,0,0.4,0.1,0.5,0.1h4.8v-2.2c-1.8-0.2-3.2-0.4-4-0.7c-2-0.6-3.5-1.6-3.5-1.6c-1.5-0.9-2.6-2.1-3.5-3.4
		c-0.4-0.7-6.6-9.9-10.1-15.2l0,0C-218.4,412.9-218.4,412.8-218.5,412.7 M-239,389.4h-4.8v2.2c1.8,0.2,3.2,0.4,4,0.7
		c2,0.6,3.5,1.6,3.5,1.6c1.5,0.9,2.6,2.1,3.5,3.4c0.4,0.7,6.6,9.9,10.1,15.2l0,0c0,0.1,0.1,0.1,0.1,0.2c0.6-0.8,1.3-1.9,2.1-3.1
		c-3.4-5.1-8.1-12.3-8.6-12.9c-1.2-2-2.9-3.8-4.8-5.1c0-0.1-2.1-1.3-4.6-2.1C-238.6,389.5-238.8,389.4-239,389.4"/>
	<path class="st1" d="M-103.3,421.3c0,6.3-4.5,8.5-9.6,8.5c-3.9,0-7.6-0.8-10.5-2.7l1-1.9c2.6,1.6,5.9,2.6,9.4,2.6
		c3.9,0,7.4-1.6,7.4-6.5c0-4.1-3.7-5-8.1-6.2c-4.7-1.3-8.7-3-8.7-8.5s4.4-7.7,9.2-7.7c2.7,0,5.5,0.3,8.1,1.6l-0.9,2
		c-2.2-1.1-4.6-1.5-7.2-1.5c-3.9,0-7,1.3-7,5.7c0,3.8,2.7,5,7.4,6.3C-107.6,414.4-103.3,415.6-103.3,421.3z M-135.4,415.2
		c0,7.3-1.1,12.5-8,12.5h-0.6c-6.9,0-8-5.1-8-12.5v-16.4c-0.8,0.4-1.7,0.9-2.4,1.5v15.6c0,6.5,1.2,13.9,10,13.9h1.3
		c8.7,0,10-7.4,10.1-14v-15.6c-0.7-0.6-1.5-1.1-2.4-1.5V415.2z M-163.2,414.3v0.8l0,0H-184v1.2c0.4,9.5,4.6,11.5,10,11.5
		c3.3,0,5.9-0.6,8.7-2.2l0.9,2c-2.8,1.7-6,2.3-9.6,2.3c-6.8,0-12.3-2.8-12.3-15.5c0-13.6,6.4-15.6,11.8-15.6
		C-167.5,398.7-163.2,402.6-163.2,414.3z M-165.6,412.9c0-9.2-3.6-12-9-12c-4.9,0-9.3,1.9-9.5,12H-165.6z"/>
</g>
</svg>
