<svg id="Calque_1" data-name="Calque 1" xmlns="http://www.w3.org/2000/svg" viewBox="0 0 265 97.52"><defs><style>.cls-1{fill:#171729;}.cls-2,.cls-3{fill:#41b2c2;}.cls-3{opacity:0.28;isolation:isolate;}</style></defs><title>xeus</title><rect class="cls-1" width="265" height="97.52"/><path id="path4143" class="cls-2" d="M70.07,11.2c.1,0,.29.09.38.09a19.57,19.57,0,0,1,4.4,2,15.94,15.94,0,0,1,4.59,4.87l8.22,12.34c-.76,1.14-1.43,2.2-2,3,0-.09-.09-.09-.09-.19-3.44-5-9.37-13.86-9.75-14.53a10.85,10.85,0,0,0-3.35-3.25A13.66,13.66,0,0,0,69.12,14a18.67,18.67,0,0,0-3.83-.67V53.83a18.67,18.67,0,0,0,3.83-.67,13.87,13.87,0,0,0,3.34-1.52,12.15,12.15,0,0,0,3.35-3.26c.38-.66,6.31-9.46,9.65-14.53,2.78-4.39,9.85-14.91,10.33-15.68a15.94,15.94,0,0,1,4.59-4.87,17.49,17.49,0,0,1,4.4-2l.47-.09Zm39.87,2.1a18.67,18.67,0,0,0-3.83.67,13.54,13.54,0,0,0-3.44,1.53,10.93,10.93,0,0,0-3.34,3.25c-.39.67-6.31,9.46-9.66,14.53C86.9,37.49,79.82,48.1,79.35,48.77a16.06,16.06,0,0,1-4.59,4.87,17.1,17.1,0,0,1-4.4,2l-.48.1h35.18l-.38-.1a19.33,19.33,0,0,1-4.4-2,16.06,16.06,0,0,1-4.59-4.87L87.47,36.43c.77-1.14,1.44-2.19,2-3,0,.1.09.1.09.19,3.35,5.07,9.28,13.86,9.66,14.53a10.74,10.74,0,0,0,3.35,3.25A13.66,13.66,0,0,0,105.92,53a18.67,18.67,0,0,0,3.83.67v2h.09l.1-42.35Z"/><path id="path7-3" class="cls-3" d="M89.57,33.47c-.57.77-1.24,1.82-2,3,3.25,4.88,7.74,11.76,8.22,12.34a15.94,15.94,0,0,0,4.59,4.87,17.1,17.1,0,0,0,4.4,2,3.62,3.62,0,0,1,.47.1h4.59V53.64A18.41,18.41,0,0,1,106,53a13.85,13.85,0,0,1-3.35-1.53,10.81,10.81,0,0,1-3.34-3.25c-.39-.67-6.31-9.46-9.66-14.53h0a.3.3,0,0,0-.1-.19M69.88,11.2H65.29v2.1a18.67,18.67,0,0,1,3.83.67,13.66,13.66,0,0,1,3.34,1.53,10.85,10.85,0,0,1,3.35,3.25c.38.67,6.31,9.46,9.65,14.53h0c0,.1.1.1.1.19.57-.76,1.24-1.82,2-3-3.25-4.88-7.75-11.76-8.22-12.34a16.06,16.06,0,0,0-4.59-4.87,17.49,17.49,0,0,0-4.4-2,4.71,4.71,0,0,0-.48-.09"/><path class="cls-2" d="M199.71,41.69c0,6-4.3,8.13-9.18,8.13a18.33,18.33,0,0,1-10-2.58l1-1.82a17.29,17.29,0,0,0,9,2.49c3.73,0,7.08-1.53,7.08-6.22,0-3.92-3.54-4.78-7.74-5.92-4.5-1.25-8.32-2.87-8.32-8.13s4.2-7.36,8.79-7.36A17,17,0,0,1,198,21.81l-.86,1.91a15.14,15.14,0,0,0-6.89-1.43c-3.72,0-6.69,1.24-6.69,5.44,0,3.64,2.58,4.78,7.08,6C195.6,35.1,199.71,36.24,199.71,41.69ZM169,35.86c0,7-1.05,12-7.65,12h-.57c-6.6,0-7.65-4.87-7.65-12V20.18a11,11,0,0,0-2.29,1.44V36.53c0,6.21,1.14,13.29,9.56,13.29h1.24c8.32,0,9.56-7.08,9.65-13.39V21.52A9.14,9.14,0,0,0,169,20.09ZM142.44,35v.77H122.56v1.14c.38,9.08,4.4,11,9.56,11a15.6,15.6,0,0,0,8.31-2.11l.87,1.92a17.26,17.26,0,0,1-9.18,2.19c-6.5,0-11.76-2.67-11.76-14.81,0-13,6.12-14.92,11.28-14.92C138.33,20.09,142.44,23.81,142.44,35Zm-2.29-1.34c0-8.79-3.44-11.47-8.61-11.47-4.68,0-8.89,1.82-9.08,11.47Z"/></svg>