<?xml version="1.0" encoding="UTF-8" standalone="no"?>
<svg
   xmlns:dc="http://purl.org/dc/elements/1.1/"
   xmlns:cc="http://creativecommons.org/ns#"
   xmlns:rdf="http://www.w3.org/1999/02/22-rdf-syntax-ns#"
   xmlns:svg="http://www.w3.org/2000/svg"
   xmlns="http://www.w3.org/2000/svg"
   xmlns:sodipodi="http://sodipodi.sourceforge.net/DTD/sodipodi-0.dtd"
   xmlns:inkscape="http://www.inkscape.org/namespaces/inkscape"
   id="Calque_1"
   data-name="Calque 1"
   viewBox="0 0 265 97.52"
   version="1.1"
   sodipodi:docname="xeus-python.svg"
   inkscape:version="0.92.3 (unknown)">
  <metadata
     id="metadata23">
    <rdf:RDF>
      <cc:Work
         rdf:about="">
        <dc:format>image/svg+xml</dc:format>
        <dc:type
           rdf:resource="http://purl.org/dc/dcmitype/StillImage" />
        <dc:title>xeus-cling</dc:title>
      </cc:Work>
    </rdf:RDF>
  </metadata>
  <sodipodi:namedview
     pagecolor="#ffffff"
     bordercolor="#666666"
     borderopacity="1"
     objecttolerance="10"
     gridtolerance="10"
     guidetolerance="10"
     inkscape:pageopacity="0"
     inkscape:pageshadow="2"
     inkscape:window-width="2044"
     inkscape:window-height="1098"
     id="namedview21"
     showgrid="false"
     inkscape:zoom="1.995909"
     inkscape:cx="108.86025"
     inkscape:cy="32.815438"
     inkscape:window-x="0"
     inkscape:window-y="22"
     inkscape:window-maximized="0"
     inkscape:current-layer="Calque_1" />
  <defs
     id="defs4">
    <style
       id="style2">.cls-1{fill:#171729;}.cls-2{fill:#666;}.cls-3,.cls-4{fill:#41b2c2;}.cls-4{opacity:0.28;isolation:isolate;}</style>
  </defs>
  <title
     id="title6">xeus-cling</title>
  <rect
     class="cls-1"
     width="265"
     height="97.52"
     id="rect8" />
  <path
     id="path4143"
     class="cls-3"
     d="M69.69,11.27c.09,0,.26.09.35.09a19,19,0,0,1,4.35,2A16.4,16.4,0,0,1,79,18.24c.44.61,5,7.49,8.28,12.37-.79,1.13-1.49,2.18-2,3,0-.09-.08-.09-.08-.17-3.4-5.06-9.33-13.94-9.76-14.64a10.74,10.74,0,0,0-3.31-3.22,15.7,15.7,0,0,0-3.4-1.57,19.51,19.51,0,0,0-3.83-.7V54.13a18.93,18.93,0,0,0,3.83-.69,15.7,15.7,0,0,0,3.4-1.57,12.5,12.5,0,0,0,3.4-3.31C76,48,81.88,39,85.28,33.92,88.07,29.65,95.13,19,95.65,18.33a17.62,17.62,0,0,1,4.62-4.88,18.52,18.52,0,0,1,4.35-2l.44-.18Zm40.07,2.09a19.51,19.51,0,0,0-3.83.7,15.7,15.7,0,0,0-3.4,1.57,11.31,11.31,0,0,0-3.4,3.31c-.43.61-6.36,9.58-9.75,14.63-2.7,4.19-9.76,14.81-10.28,15.51A17.62,17.62,0,0,1,74.48,54a18.47,18.47,0,0,1-4.36,2l-.52.09H105l-.35-.09a18.52,18.52,0,0,1-4.35-2,16.4,16.4,0,0,1-4.62-4.88c-.44-.61-5-7.49-8.28-12.37.79-1.13,1.48-2.18,2-3.05,0,.09.08.09.08.18,3.4,5,9.33,13.93,9.76,14.63a12.36,12.36,0,0,0,3.4,3.31,15.7,15.7,0,0,0,3.4,1.57,30,30,0,0,0,3.83.7v2h.09V13.36Z" />
  <path
     id="path7-3"
     class="cls-4"
     d="M89.29,33.66c-.52.78-1.22,1.83-2,3.05,3.31,5,7.84,11.85,8.27,12.37A17.62,17.62,0,0,0,100.18,54a18.47,18.47,0,0,0,4.36,2c.17,0,.34.09.52.09h4.62V54a19.65,19.65,0,0,1-3.84-.7,16,16,0,0,1-3.4-1.57,11.16,11.16,0,0,1-3.39-3.31c-.35-.52-6.28-9.41-9.67-14.46h0a.32.32,0,0,0-.09-.26M69.51,11.27H64.9v2.09a19.51,19.51,0,0,1,3.83.7,15.7,15.7,0,0,1,3.4,1.57,11.31,11.31,0,0,1,3.4,3.31c.43.61,6.35,9.58,9.75,14.63h0c0,.09.09.09.09.18.52-.79,1.22-1.83,2-3.05-3.31-5-7.84-11.85-8.27-12.46a17.62,17.62,0,0,0-4.62-4.88,18.94,18.94,0,0,0-4.36-2c-.17,0-.34-.09-.61-.09" />
  <path
     class="cls-3"
     d="M190.52,20.24c-4.62,0-8.8,2.1-8.8,7.41s3.75,7,8.36,8.19c4.27,1.22,7.85,2.09,7.85,6,0,4.7-3.4,6.19-7.15,6.19a17,17,0,0,1-9.06-2.44l-1,1.83A18,18,0,0,0,190.87,50c5,0,9.23-2.18,9.23-8.19,0-5.4-4.18-6.62-9.06-8-4.44-1.22-7-2.36-7-6.1,0-4.27,3-5.49,6.7-5.49a14.07,14.07,0,0,1,6.89,1.48l.87-1.92A18.45,18.45,0,0,0,190.52,20.24Z"
     id="path14" />
  <path
     class="cls-3"
     d="M169.18,20.16V36c0,7.06-1.05,12-7.67,12h-.61c-6.71,0-7.67-5-7.67-12V20.24A10.41,10.41,0,0,0,151,21.73v15C151,43,152.1,50,160.55,50h1.31c8.36,0,9.58-7.06,9.67-13.42v-15A17.51,17.51,0,0,0,169.18,20.16Z"
     id="path16" />
  <path
     class="cls-3"
     d="M131.54,20.24c-5.23,0-11.41,1.92-11.41,15,0,12.11,5.31,14.9,11.85,14.9a16.87,16.87,0,0,0,9.23-2.27l-.87-1.92A15.52,15.52,0,0,1,132,48c-5.14,0-9.24-1.83-9.59-11.07V35.84h20v-.79C142.43,23.9,138.34,20.24,131.54,20.24Zm-9.23,13.6c.17-9.76,4.53-11.59,9.14-11.59,5.14,0,8.63,2.7,8.63,11.59Z"
     id="path18" />
  <path
     style="fill:#666666;stroke-width:0.89547217"
     inkscape:connector-curvature="0"
     id="path4"
     d="m 143.8113,67.91983 v 0 c -1.5223,0 -2.86551,0.268645 -3.85053,0.895472 -0.44773,0.268645 -0.80592,0.537291 -1.16411,0.895473 v 14.058914 l 1.79094,0.626835 v -6.357859 c 1.07457,0.716378 2.14914,0.985024 3.2237,0.985024 1.34321,0 2.41778,-0.626835 3.2237,-1.701402 0.71638,-0.985016 1.07457,-2.238677 1.07457,-3.671433 v 0 c 0,-1.701395 -0.35819,-3.044607 -1.07457,-4.119174 -0.71637,-1.07456 -1.79094,-1.61185 -3.2237,-1.61185 z m -0.35818,9.939748 c -0.80593,0.08954 -1.79095,-0.268645 -2.86552,-0.89548 V 69.97942 c 0.1791,-0.179095 0.53729,-0.358189 0.98502,-0.537284 0.62683,-0.268645 1.25366,-0.358189 1.97004,-0.358189 1.7014,0.08954 2.50732,1.611851 2.50732,4.477363 0,2.775961 -0.89547,4.208717 -2.59686,4.298268 z m 13.79027,-9.671103 h 1.79093 v 9.671103 c 0,1.970032 -0.17909,3.402788 -0.62682,4.119166 -0.35819,0.805922 -1.16411,1.343213 -2.32823,1.790945 -0.89547,0.358189 -1.88049,0.537284 -2.95506,0.626835 l -0.26864,-1.164118 c 1.07456,-0.179095 1.79094,-0.268638 2.23868,-0.44774 0.89547,-0.268638 1.43275,-0.716371 1.79094,-1.343205 0.26865,-0.447733 0.3582,-1.432756 0.3582,-2.775961 v -0.44774 c -1.25367,0.537283 -2.50733,0.805929 -3.85054,0.805929 -0.89547,0 -1.61185,-0.268646 -2.32822,-0.805929 -0.71638,-0.626827 -1.16411,-1.343205 -1.16411,-2.328222 v -7.342874 l 1.79094,-0.626834 v 7.432418 c 0,0.805929 0.26863,1.432763 0.80592,1.880496 0.53728,0.447732 1.16411,0.626834 1.97004,0.626834 0.80593,0 1.7014,-0.358196 2.59687,-0.985023 v -8.68608 z m 6.71603,0 h 1.97004 v 1.164118 h -1.97004 v 6.984678 c 0,0.626827 0.17909,1.164111 0.53729,1.432756 0.26864,0.268638 0.80592,0.358189 1.43275,0.358189 v 0.895473 c -0.17909,0 -0.44773,0 -0.62683,0 -0.98502,0 -1.79094,-0.268646 -2.32823,-0.716378 -0.53728,-0.447733 -0.80593,-1.164118 -0.80593,-1.97004 v -6.984678 h -1.25365 v -1.164118 h 1.25365 v -2.955056 l 1.79095,-0.626834 z m 11.90978,0.895472 c 0.62683,0.626828 0.89547,1.432756 0.89547,2.328229 v 7.432418 h -1.79094 v -6.895135 c 0,-0.716378 -0.1791,-1.343212 -0.44774,-1.790945 -0.35818,-0.537283 -0.89547,-0.895472 -1.61185,-0.895472 -0.80592,0 -1.88048,0.447733 -3.0446,1.253661 v 8.23834 h -1.79095 V 62.457451 l 1.79095,-0.537284 v 7.521969 c 1.16412,-0.805928 2.41778,-1.253661 3.76098,-1.253661 0.89547,-0.08955 1.61185,0.268645 2.23868,0.895472 z m 7.43242,-1.164117 c -1.5223,0 -2.68641,0.53729 -3.58188,1.61185 -0.89548,0.985023 -1.25367,2.328229 -1.25367,3.760985 0,1.61185 0.35819,2.955055 1.16411,3.940079 0.89548,1.16411 2.05959,1.790945 3.67144,1.790945 1.61185,0 2.77597,-0.626835 3.67144,-1.790945 0.80592,-1.074567 1.25366,-2.417773 1.25366,-3.940079 0,-1.5223 -0.44774,-2.775962 -1.25366,-3.760985 -0.98502,-1.07456 -2.23869,-1.61185 -3.67144,-1.61185 z m 0,10.029292 c -1.07457,0 -1.79094,-0.537284 -2.32823,-1.522307 -0.44773,-0.805922 -0.62683,-1.880489 -0.62683,-3.0446 0,-2.686417 0.98502,-4.119173 2.95506,-4.208724 1.07457,0.08955 1.88049,0.537284 2.32823,1.432756 0.44774,0.716378 0.62683,1.611851 0.62683,2.775968 0,3.0446 -0.98502,4.566907 -2.95506,4.566907 z m 15.13348,-7.253324 v 8.148796 h -1.79095 V 71.59127 c 0,-0.805928 -0.26863,-1.432756 -0.71637,-1.880495 -0.44774,-0.447733 -1.16411,-0.626828 -1.88049,-0.626828 -0.80593,0 -1.61185,0.268646 -2.41778,0.805922 v 8.954725 h -1.79095 v -9.133819 c 0.98503,-0.716378 1.97004,-1.253655 2.86552,-1.432749 0.80592,-0.179102 1.5223,-0.358196 2.14913,-0.358196 0.44774,0 0.80593,0 1.16411,0.08955 0.71639,0.179095 1.25366,0.44774 1.7014,0.895473 0.44773,0.537283 0.71638,1.074567 0.71638,1.790945 z m -79.78656,2.596867 h 5.37282 c 1.52231,0 2.68642,-1.253662 2.68642,-2.686418 v -5.10419 c 0,-1.432756 -1.25366,-2.507323 -2.68642,-2.775961 -0.89547,-0.179094 -1.88048,-0.179094 -2.77596,-0.179094 -0.89547,0 -1.79094,0.08954 -2.59686,0.179094 -2.23869,0.358189 -2.68642,1.253662 -2.68642,2.775961 v 2.059584 h 5.37283 v 0.716385 h -5.37283 -1.97004 c -1.52231,0 -2.95506,0.895465 -3.31325,2.68641 -0.53728,2.05959 -0.53728,3.313245 0,5.462379 0.35819,1.61185 1.25367,2.686417 2.86551,2.686417 h 1.8805 V 76.69546 c -0.1791,-1.790945 1.43275,-3.402795 3.2237,-3.402795 z m -0.35819,-7.07423 c -0.53729,0 -0.98503,-0.447739 -0.98503,-0.985016 0,-0.53729 0.44774,-0.985023 0.98503,-0.985023 0.53728,0 0.98501,0.447733 0.98501,0.985023 0,0.447733 -0.44773,0.985016 -0.98501,0.985016 z m 11.10385,1.97004 h -1.97004 v 2.417772 c 0,1.880496 -1.5223,3.402796 -3.31324,3.402796 h -5.37284 c -1.43276,0 -2.68642,1.253661 -2.68642,2.686417 v 5.10419 c 0,1.432756 1.25366,2.328228 2.68642,2.686417 1.7014,0.537284 3.31324,0.626828 5.37284,0 1.3432,-0.358189 2.68641,-1.16411 2.68641,-2.686417 v -2.059583 h -5.37283 v -0.716378 h 5.37283 2.68642 c 1.5223,0 2.14913,-1.074567 2.68641,-2.686418 0.53729,-1.701394 0.53729,-3.313245 0,-5.462379 -0.53728,-1.522299 -1.25366,-2.686417 -2.77596,-2.686417 z m -5.10419,12.984348 c 0.53728,0 0.98502,0.447732 0.98502,0.985016 0,0.537283 -0.44774,0.985023 -0.98502,0.985023 -0.53728,0 -0.98502,-0.44774 -0.98502,-0.985023 0,-0.537284 0.44774,-0.985016 0.98502,-0.985016 z"
     class="st0" />
</svg>
