<svg id="Calque_1" data-name="Calque 1" xmlns="http://www.w3.org/2000/svg" viewBox="0 0 265 97.52"><defs><style>.cls-1{fill:#171729;}.cls-2,.cls-3{fill:#96cf41;}.cls-2{opacity:0.28;isolation:isolate;}</style></defs><title>xframe</title><rect class="cls-1" width="265" height="97.52"/><path class="cls-2" d="M53.2,33.38c-.58.76-1.24,1.81-2,3C54.44,41.21,59,48.1,59.41,48.77a15.14,15.14,0,0,0,4.69,4.87,16.93,16.93,0,0,0,4.39,2,3.48,3.48,0,0,1,.48.1h4.59V53.64A18.41,18.41,0,0,1,69.74,53a13.85,13.85,0,0,1-3.35-1.53,9.82,9.82,0,0,1-3.34-3.25c-.39-.67-6.31-9.56-9.66-14.62h0c-.1,0-.1-.1-.19-.19M33.41,11H28.82v2.11a18.41,18.41,0,0,1,3.82.67A13.63,13.63,0,0,1,36,15.31a11.22,11.22,0,0,1,3.35,3.34c.38.67,6.31,9.56,9.65,14.63h0c0,.1.1.1.1.19.57-.76,1.24-1.82,2-3-3.25-4.88-7.83-11.76-8.22-12.43a15.24,15.24,0,0,0-4.68-4.88,17.66,17.66,0,0,0-4.4-2c0-.1-.19-.1-.38-.2"/><path class="cls-3" d="M64,53.64a16.23,16.23,0,0,1-4.68-4.87c-.39-.67-5-7.46-8.23-12.34C47.94,41.31,43.35,48.1,43,48.77a15.14,15.14,0,0,1-4.69,4.87,16.93,16.93,0,0,1-4.39,2,3.84,3.84,0,0,0-.48.1H68.69c-.1,0-.2-.1-.39-.1A20,20,0,0,1,64,53.64ZM51.19,30.41c-.57.86-1.15,1.72-1.62,2.49.47-.77,1-1.63,1.62-2.49ZM39.43,48.19c.38-.67,6.31-9.56,9.66-14.62a6.15,6.15,0,0,0,.48-.77c-.1.19-.29.38-.39.58,0-.1-.09-.1-.09-.2-3.35-5.06-9.28-13.95-9.66-14.62a9.82,9.82,0,0,0-3.34-3.25,13.85,13.85,0,0,0-3.35-1.53,35.48,35.48,0,0,0-3.92-.67V53.74a18.41,18.41,0,0,0,3.82-.67A13.63,13.63,0,0,0,36,51.54,12.79,12.79,0,0,0,39.43,48.19Zm27-32.79a9.92,9.92,0,0,0-3.34,3.25c-.39.67-6.31,9.56-9.66,14.63a.2.2,0,0,1-.19.19c.09,0,.09.1.09.19,3.35,5.07,9.28,14,9.66,14.63a9.86,9.86,0,0,0,3.35,3.25,13.66,13.66,0,0,0,3.34,1.53,18.53,18.53,0,0,0,3.83.67v2h.09V13.11a18.41,18.41,0,0,0-3.82.67A12.3,12.3,0,0,0,66.39,15.4ZM64.1,13.11a16.93,16.93,0,0,1,4.39-2A3.48,3.48,0,0,0,69,11H33.6c.1,0,.19.1.29.1a18.89,18.89,0,0,1,4.39,2A16.14,16.14,0,0,1,43,18c.38.67,5,7.46,8.22,12.43C54.44,25.54,59,18.65,59.41,18A15.14,15.14,0,0,1,64.1,13.11ZM97.94,11c-5.45,0-7.07,3.73-7.07,7.94v6H85.22l-1,2h6.7v25a15.34,15.34,0,0,0,2.19.48V27h6.41l-1-2H93.06v-6c0-4.4,1.92-5.83,4.78-5.83a9.21,9.21,0,0,1,3.16.48h0l-1-2.3A7.34,7.34,0,0,0,97.94,11Zm97.13,11.76h-1.24c-4.88,0-7.27,2.39-8.51,5.55-1.24-3.25-3.63-5.55-8.51-5.55h-1.24c-8.41,0-9.56,7.08-9.56,13.2V50.87a9.33,9.33,0,0,0,2.29,1.43V36.72c0-7,1-11.85,7.65-11.85h.57c6.6,0,7.65,4.87,7.65,11.85V50.77l2.39-.09v-14c0-7,1.05-11.85,7.65-11.85h.57c6.6,0,7.65,4.87,7.65,11.85V52.4a11.46,11.46,0,0,0,2.3-1.43V36.05C204.63,29.84,203.39,22.76,195.07,22.76Zm30.31,0c-5.17,0-11.28,1.92-11.28,14.92,0,12,5.25,14.82,11.76,14.82A17.85,17.85,0,0,0,235,50.3l-.86-1.92a15.6,15.6,0,0,1-8.31,2.11c-5.17,0-9.18-1.82-9.56-11V38.35h19.88v-.77C236.18,26.4,232.07,22.76,225.38,22.76ZM216.2,36.24c.19-9.75,4.49-11.47,9.08-11.47,5.07,0,8.61,2.68,8.61,11.47ZM142.3,22.57A14.23,14.23,0,0,0,135.51,24l1.05,1.91a13.33,13.33,0,0,1,5.83-1.24c7.37,0,9.47,4,9.85,10.22-13.38.58-19.88,2.2-19.88,9.09,0,5,2.2,8.41,9.56,8.41h.47c8.8,0,12.24-4.78,12.24-14.91S151.09,22.57,142.3,22.57Zm10,14.92c0,7.74-1.72,12.81-10,12.81a13.13,13.13,0,0,1-5.35-1,3.56,3.56,0,0,1-1.15-.77c-.95-1-1.24-2.39-1.24-4.3,0-5.64,6.41-6.6,17.59-7.08A.73.73,0,0,0,152.34,37.49ZM114.86,27.35v-4a14.48,14.48,0,0,0-2.2.47V51.92a15.79,15.79,0,0,0,2.2.48V37.68c0-7.65,1.63-12.72,9.56-12.72h0l-1-1.91C119.35,23.24,116.58,24.68,114.86,27.35Z"/></svg>