<?xml version="1.0" encoding="utf-8"?>
<!-- Generator: Adobe Illustrator 22.1.0, SVG Export Plug-In . SVG Version: 6.00 Build 0)  -->
<svg version="1.1" id="Calque_1" xmlns="http://www.w3.org/2000/svg" xmlns:xlink="http://www.w3.org/1999/xlink" x="0px" y="0px"
	 viewBox="0 0 216.9 66.4" style="enable-background:new 0 0 216.9 66.4;" xml:space="preserve">
<style type="text/css">
	.st0{fill:#171729;}
	.st1{opacity:0.28;fill:#97D23D;enable-background:new    ;}
	.st2{fill:#97D23D;}
</style>
<rect y="-0.2" class="st0" width="216.9" height="66.8"/>
<path class="st1" d="M25.5,33.5c-0.6,0.8-1.3,1.9-2.1,3.1c3.4,5.1,8.2,12.3,8.6,13c1.2,2,2.9,3.8,4.9,5.1c0,0.1,2.1,1.3,4.6,2.1
	c0.2,0,0.4,0.1,0.5,0.1h4.8v-2.2c-1.8-0.2-3.2-0.4-4-0.7c-2-0.6-3.5-1.6-3.5-1.6c-1.5-0.9-2.7-2.1-3.5-3.4
	c-0.4-0.7-6.6-10-10.1-15.3l0,0C25.6,33.7,25.6,33.6,25.5,33.5 M4.8,10.1H0v2.2c1.8,0.2,3.2,0.4,4,0.7c2,0.6,3.5,1.6,3.5,1.6
	c1.5,1,2.7,2.2,3.5,3.5c0.4,0.7,6.6,10,10.1,15.3l0,0c0,0.1,0.1,0.1,0.1,0.2c0.6-0.8,1.3-1.9,2.1-3.1c-3.4-5.1-8.2-12.3-8.6-13
	c-1.2-2-2.9-3.8-4.9-5.1c0-0.1-2.1-1.3-4.6-2.1C5.2,10.2,5,10.2,4.8,10.1"/>
<path class="st2" d="M36.8,54.7c-2-1.3-3.6-3.1-4.9-5.1c-0.4-0.7-5.2-7.8-8.6-12.9c-3.3,5.1-8.1,12.2-8.5,12.9
	c-1.2,2-2.9,3.8-4.9,5.1c0,0.1-2.1,1.3-4.6,2.1c-0.2,0-0.4,0.1-0.5,0.1h36.9c-0.1,0-0.2-0.1-0.4-0.1C38.9,56,36.9,54.8,36.8,54.7z
	 M23.4,30.4c-0.6,0.9-1.2,1.8-1.7,2.6C22.2,32.2,22.8,31.3,23.4,30.4L23.4,30.4z M11.1,49c0.4-0.7,6.6-10,10.1-15.3
	c0.2-0.2,0.3-0.5,0.5-0.8c-0.1,0.2-0.3,0.4-0.4,0.6c0-0.1-0.1-0.1-0.1-0.2C17.7,28,11.5,18.7,11.1,18c-0.8-1.3-2-2.5-3.5-3.4
	c0,0-1.5-1-3.5-1.6c-0.9-0.2-2.3-0.5-4.1-0.7v42.5c1.8-0.2,3.2-0.4,4-0.7c2-0.6,3.5-1.6,3.5-1.6C9,51.5,10.2,50.3,11.1,49z
	 M39.3,14.7c-1.5,0.9-2.7,2.1-3.5,3.4c-0.4,0.7-6.6,10-10.1,15.3c0,0.1-0.1,0.2-0.2,0.2c0.1,0,0.1,0.1,0.1,0.2
	c3.5,5.3,9.7,14.6,10.1,15.3c0.8,1.3,2,2.5,3.5,3.4c0,0,1.5,1,3.5,1.6c0.8,0.3,2.2,0.5,4,0.7v2.1h0.1V12.3c-1.8,0.2-3.2,0.4-4,0.7
	C40.8,13.6,39.3,14.7,39.3,14.7z M36.9,12.3c0-0.1,2.1-1.3,4.6-2.1c0.2,0,0.4-0.1,0.5-0.1H5c0.1,0,0.2,0.1,0.3,0.1
	c2.5,0.8,4.5,2,4.6,2.1c2,1.3,3.6,3.1,4.9,5.1c0.4,0.7,5.2,7.8,8.6,13c3.4-5.1,8.2-12.3,8.6-13C33.2,15.4,34.9,13.6,36.9,12.3z
	 M72.3,10.1c-5.7,0-7.4,3.9-7.4,8.3c0,0.3,0,2.8,0,6.3H59l-1.1,2.1h7c0,10.1,0,25.8,0,26.1c0.7,0.2,1.5,0.4,2.3,0.5
	c0,0,0-16.2,0-26.6h6.7l-1.1-2.1h-5.6c0-3.5,0-6,0-6.3c0-4.6,2-6.1,5-6.1c1,0,2.2,0.1,3.3,0.5l0,0l-1.1-2.4
	C73.7,10.2,73,10.1,72.3,10.1z M173.9,22.4h-1.3c-5.1,0-7.6,2.5-8.9,5.8c-1.3-3.4-3.8-5.8-8.9-5.8h-1.3c-8.8,0-10,7.4-10,13.8v15.6
	c0.7,0.6,1.5,1.1,2.4,1.5V37c0-7.3,1.1-12.4,8-12.4h0.6c6.9,0,8,5.1,8,12.4v14.7l2.5-0.1V37c0-7.3,1.1-12.4,8-12.4h0.6
	c6.9,0,8,5.1,8,12.4v16.4c0.8-0.4,1.7-0.9,2.4-1.5V36.3C183.9,29.8,182.6,22.4,173.9,22.4z M205.6,22.4c-5.4,0-11.8,2-11.8,15.6
	c0,12.6,5.5,15.5,12.3,15.5c3.7,0,6.8-0.7,9.6-2.3l-0.9-2c-2.8,1.6-5.4,2.2-8.7,2.2c-5.4,0-9.6-1.9-10-11.5v-1.2h20.8l0,0v-0.8
	C216.9,26.2,212.6,22.4,205.6,22.4z M196,36.5c0.2-10.2,4.7-12,9.5-12c5.3,0,9,2.8,9,12H196z M118.7,22.2c-2.4,0-4.8,0.3-7.1,1.5
	l1.1,2c1.9-0.9,3.9-1.3,6.1-1.3c7.7,0,9.9,4.2,10.3,10.7c-14,0.6-20.8,2.3-20.8,9.5c0,5.2,2.3,8.8,10,8.8h0.5
	c9.2,0,12.8-5,12.8-15.6C131.5,27.2,127.9,22.2,118.7,22.2z M129.2,37.8c0,8.1-1.8,13.4-10.4,13.4c-1.9,0-3.8-0.3-5.6-1.1
	c-0.5-0.2-0.9-0.5-1.2-0.8c-1-1.1-1.3-2.5-1.3-4.5c0-5.9,6.7-6.9,18.4-7.4C129.1,37.5,129.1,37.6,129.2,37.8z M90,27.2V23
	c-0.8,0.1-1.6,0.3-2.3,0.5v29.4c0.7,0.2,1.5,0.4,2.3,0.5V38.2V38c0-8,1.7-13.3,10-13.3l0,0l-1.1-2C94.7,22.9,91.8,24.4,90,27.2z"/>
</svg>
