<svg id="Calque_1" data-name="Calque 1" xmlns="http://www.w3.org/2000/svg" viewBox="0 0 265 97.52"><defs><style>.cls-1{fill:#171729;}.cls-2,.cls-3{fill:#d51934;}.cls-3{opacity:0.28;isolation:isolate;}</style></defs><title>ipyleaflet</title><rect class="cls-1" width="265" height="97.52"/><g id="Calque_1-2" data-name="Calque 1-2"><path class="cls-2" d="M60.13,15.5a10.83,10.83,0,0,0-3.35,3.25c-.38.67-6.31,9.56-9.65,14.53C44.35,37.49,37.28,48.1,36.8,48.77a15.82,15.82,0,0,1-4.59,4.87,18.38,18.38,0,0,1-4.39,2l-.48.1H62.52l-.29-.1a17.76,17.76,0,0,1-4.3-2,14.93,14.93,0,0,1-4.59-4.87L45.12,36.43c.76-1.14,1.43-2.19,2-3,0,.1.09.1.09.19,3.35,5.07,9.28,14,9.66,14.53a10.9,10.9,0,0,0,3.34,3.25A15.07,15.07,0,0,0,63.57,53a17.88,17.88,0,0,0,3.92.67h0V13.3a23.44,23.44,0,0,0-3.82.67A13.06,13.06,0,0,0,60.13,15.5Zm-27,32.79c.38-.67,6.31-9.56,9.66-14.53,2.77-4.21,9.84-14.82,10.32-15.49a16.09,16.09,0,0,1,4.59-4.88,19.21,19.21,0,0,1,4.3-2l.48-.19H27.43l.39.09a17.76,17.76,0,0,1,4.3,2,14.93,14.93,0,0,1,4.59,4.87l8.22,12.34c-.77,1.14-1.44,2.2-2,3,0-.09-.09-.09-.09-.19-3.35-5-9.28-13.86-9.66-14.53a10.83,10.83,0,0,0-3.35-3.25A15,15,0,0,0,26.48,14a16.79,16.79,0,0,0-3.83-.67V53.83a23.75,23.75,0,0,0,3.83-.67,15.42,15.42,0,0,0,3.34-1.52A12.42,12.42,0,0,0,33.17,48.29Z"/><path class="cls-3" d="M46.94,33.57c-.58.76-1.25,1.91-2,3,3.25,4.88,7.74,11.76,8.22,12.33a16,16,0,0,0,4.59,4.88,19.71,19.71,0,0,0,4.3,2l.48.09H67.3v-2.1a25.86,25.86,0,0,1-3.92-.67A15.07,15.07,0,0,1,60,51.54a10.9,10.9,0,0,1-3.34-3.25c-.38-.67-6.31-9.56-9.66-14.53h0c0-.1,0-.19-.09-.19M27.62,11.2h-5v2.1a23.75,23.75,0,0,1,3.83.67,15,15,0,0,1,3.34,1.53,10.83,10.83,0,0,1,3.35,3.25c.38.67,6.31,9.56,9.66,14.53h0c0,.1.09.1.09.19.57-.76,1.24-1.91,2-3-3.25-4.88-7.75-11.76-8.22-12.34a17.3,17.3,0,0,0-4.59-4.87,17.16,17.16,0,0,0-4.21-2l-.29-.09"/></g><path class="cls-2" d="M137.09,23.53a13.73,13.73,0,0,0-6.6,1.43l1,1.91a12.67,12.67,0,0,1,5.64-1.14c7.17,0,9.18,3.92,9.56,10-13,.57-19.41,2.1-19.41,8.79,0,4.78,2.11,8.13,9.37,8.13h.48c8.51,0,11.85-4.69,11.85-14.53C149,28.12,145.69,23.53,137.09,23.53Zm.09,27a13.73,13.73,0,0,1-5.16-1,3.54,3.54,0,0,1-1.15-.76,6.16,6.16,0,0,1-1.24-4.21c0-5.45,6.22-6.4,17.11-6.88a1,1,0,0,0,.1.48C146.84,45.61,145.22,50.39,137.18,50.49Z"/><path class="cls-2" d="M108,23.62c-5.07,0-11,1.82-11,14.54,0,11.75,5.16,14.43,11.47,14.43a16.27,16.27,0,0,0,9-2.2l-.86-1.81a15.9,15.9,0,0,1-8.13,2.1c-5,0-9-1.82-9.27-10.71V38.82h19.31v-.76C118.54,27.16,114.53,23.62,108,23.62Zm-8.9,13.1c.2-9.46,4.4-11.18,8.9-11.18,5,0,8.31,2.67,8.31,11.18Z"/><path class="cls-2" d="M208.6,23.62c-5.07,0-11,1.82-11,14.54,0,11.75,5.16,14.43,11.47,14.43a16.25,16.25,0,0,0,9-2.2l-.86-1.81a15.86,15.86,0,0,1-8.12,2.1c-5,0-9-1.82-9.28-10.71V38.82h19.32v-.76C219.12,27.16,215.1,23.62,208.6,23.62Zm-9,13.1c.19-9.46,4.4-11.18,8.89-11.18,5,0,8.32,2.67,8.32,11.18Z"/><path class="cls-2" d="M232.69,18.37v7H225.9l-1.05,2h7.84V42.74a11,11,0,0,0,.77,4.69,13.46,13.46,0,0,0,1.62,2.68,18.51,18.51,0,0,0,3,2.48l1-2a13.46,13.46,0,0,1-2.29-1.91,8.32,8.32,0,0,1-1.34-2.1,7.89,7.89,0,0,1-.67-3.25v-16h7.65l-1-1.91h-6.7V18.37Z"/><path class="cls-2" d="M185.75,52.88a36.89,36.89,0,0,1-1-9.66V14.06l2.2-.28V43.41A37,37,0,0,0,188,53l-2.2-.09Z"/><path class="cls-2" d="M83.93,52.88a36.92,36.92,0,0,1-1-9.66V14.06l2.2-.28V43.41A37.43,37.43,0,0,0,86.13,53l-2.2-.09Z"/><path class="cls-2" d="M169.69,11.48c-5.45,0-7.08,3.73-7.08,7.94v6H157l-1.05,2h6.69v25a15.79,15.79,0,0,0,2.2.48V27.45h6.41l-1.05-2h-5.36v-6c0-4.4,1.92-5.83,4.78-5.83a9.44,9.44,0,0,1,3.16.47h0l-1.05-2.29A7.34,7.34,0,0,0,169.69,11.48Z"/></svg>