<?xml version="1.0" encoding="utf-8"?>
<!-- Generator: Adobe Illustrator 22.1.0, SVG Export Plug-In . SVG Version: 6.00 Build 0)  -->
<svg version="1.1" id="Calque_1" xmlns="http://www.w3.org/2000/svg" xmlns:xlink="http://www.w3.org/1999/xlink" x="0px" y="0px"
	 viewBox="0 0 230.1 66.4" style="enable-background:new 0 0 230.1 66.4;" xml:space="preserve">
<style type="text/css">
	.st0{fill:#171729;}
	.st1{fill:#D71433;}
	.st2{opacity:0.28;fill:#D71433;enable-background:new    ;}
</style>
<rect y="-0.2" class="st0" width="229.8" height="66.8"/>
<g id="Calque_2_1_">
	<g id="Calque_1-2">
		<path class="st1" d="M39.2,14.6c-1.4,0.9-2.6,2-3.5,3.4c-0.4,0.7-6.6,10-10.1,15.2c-2.9,4.4-10.3,15.5-10.8,16.2
			c-1.2,2-2.9,3.8-4.8,5.1c-1.4,0.9-3,1.6-4.6,2.1l-0.5,0.1h36.8l-0.3-0.1c-1.6-0.5-3.1-1.2-4.5-2.1c-2-1.3-3.6-3.1-4.8-5.1
			c-0.4-0.6-5.2-7.8-8.6-12.9c0.8-1.2,1.5-2.3,2.1-3.1c0,0.1,0.1,0.1,0.1,0.2c3.5,5.3,9.7,14.6,10.1,15.2c0.9,1.4,2.1,2.5,3.5,3.4
			c1.1,0.7,2.3,1.2,3.5,1.6c1.3,0.4,2.8,0.6,4.1,0.7l0,0l0,0V12.3c-1.4,0.1-2.7,0.4-4,0.7C41.5,13.4,40.3,13.9,39.2,14.6z M11,48.9
			c0.4-0.7,6.6-10,10.1-15.2c2.9-4.4,10.3-15.5,10.8-16.2c1.2-2,2.9-3.8,4.8-5.1c1.4-0.9,3-1.6,4.5-2.1l0.5-0.2H5l0.4,0.1
			c1.6,0.5,3.1,1.2,4.5,2.1c2,1.3,3.6,3.1,4.8,5.1c0.4,0.6,5.2,7.8,8.6,12.9c-0.8,1.2-1.5,2.3-2.1,3.1c0-0.1-0.1-0.1-0.1-0.2
			C17.6,28,11.4,18.7,11,18c-0.9-1.4-2.1-2.5-3.5-3.4C6.4,13.9,5.2,13.4,4,13c-1.3-0.4-2.6-0.6-4-0.7v42.4c1.4-0.1,2.7-0.4,4-0.7
			c1.2-0.4,2.4-0.9,3.5-1.6C8.9,51.4,10.1,50.3,11,48.9z"/>
		<path class="st2" d="M25.4,33.5c-0.6,0.8-1.3,2-2.1,3.1c3.4,5.1,8.1,12.3,8.6,12.9c1.2,2,2.9,3.8,4.8,5.1c1.4,0.9,3,1.6,4.5,2.1
			l0.5,0.1h5v-2.2c-1.4-0.1-2.8-0.4-4.1-0.7c-1.2-0.4-2.4-0.9-3.5-1.6c-1.4-0.9-2.6-2-3.5-3.4c-0.4-0.7-6.6-10-10.1-15.2l0,0
			C25.5,33.6,25.5,33.5,25.4,33.5 M5.2,10.1H0v2.2c1.4,0.1,2.7,0.4,4,0.7c1.2,0.4,2.4,0.9,3.5,1.6c1.4,0.9,2.6,2,3.5,3.4
			c0.4,0.7,6.6,10,10.1,15.2l0,0c0,0.1,0.1,0.1,0.1,0.2c0.6-0.8,1.3-2,2.1-3.1c-3.4-5.1-8.1-12.3-8.6-12.9c-1.2-2-2.9-3.7-4.8-5.1
			c-1.4-0.9-2.8-1.6-4.4-2.1L5.2,10.1"/>
	</g>
</g>
<g>
	<path class="st1" d="M119.7,23c-2.3,0-4.6,0.3-6.9,1.5l1,2c1.9-0.9,3.8-1.2,5.9-1.2c7.5,0,9.6,4.1,10,10.5
		c-13.6,0.6-20.3,2.2-20.3,9.2c0,5,2.2,8.5,9.8,8.5h0.5c8.9,0,12.4-4.9,12.4-15.2C132.2,27.8,128.7,23,119.7,23z M119.8,51.2
		c-1.8,0-3.7-0.3-5.4-1c-0.5-0.2-0.9-0.5-1.2-0.8c-0.9-1-1.3-2.5-1.3-4.4c0-5.7,6.5-6.7,17.9-7.2c0,0.1,0,0.3,0.1,0.5
		C129.9,46.1,128.2,51.1,119.8,51.2z"/>
	<path class="st1" d="M89.3,23.1c-5.3,0-11.5,1.9-11.5,15.2c0,12.3,5.4,15.1,12,15.1c3.6,0,6.7-0.6,9.4-2.3l-0.9-1.9
		c-2.7,1.5-5.3,2.2-8.5,2.2c-5.2,0-9.4-1.9-9.7-11.2V39h20.2l0,0v-0.8C100.3,26.8,96.1,23.1,89.3,23.1z M80,36.8
		c0.2-9.9,4.6-11.7,9.3-11.7c5.2,0,8.7,2.8,8.7,11.7H80z"/>
	<path class="st1" d="M194.5,23.1c-5.3,0-11.5,1.9-11.5,15.2c0,12.3,5.4,15.1,12,15.1c3.6,0,6.7-0.6,9.4-2.3l-0.9-1.9
		c-2.7,1.5-5.3,2.2-8.5,2.2c-5.2,0-9.4-1.9-9.7-11.2V39h20.2l0,0v-0.8C205.5,26.8,201.3,23.1,194.5,23.1z M185.1,36.8
		c0.2-9.9,4.6-11.7,9.3-11.7c5.2,0,8.7,2.8,8.7,11.7H185.1z"/>
	<path class="st1" d="M219.7,17.6v7.3h-7.1l-1.1,2.1h8.2v16.1c-0.1,1.7,0.2,3.4,0.8,4.9c0,0.1,0.7,1.5,1.7,2.8
		c0.6,0.6,1.6,1.6,3.1,2.6l1-2.1c-1.1-0.8-2-1.5-2.4-2c-0.9-1-1.4-2.2-1.4-2.2c-0.5-1.1-0.7-2.3-0.7-3.4V27h8l-1.1-2h-7v-7.4H219.7z
		"/>
	<path class="st1" d="M170.6,53.7c-0.8-2.8-1-6.3-1-10.1V13.1l2.3-0.3v31c0,3.5,0.2,7.2,1,10L170.6,53.7L170.6,53.7z"/>
	<path class="st1" d="M64.1,53.7c-0.8-2.8-1-6.3-1-10.1V13.1l2.3-0.3v31c0,3.5,0.2,7.2,1,10L64.1,53.7L64.1,53.7z"/>
	<path class="st1" d="M153.8,10.4c-5.7,0-7.4,3.9-7.4,8.3c0,0.3,0,2.8,0,6.3h-5.9l-1.1,2.1h7c0,10.1,0,25.8,0,26.1
		c0.7,0.2,1.5,0.4,2.3,0.5c0,0,0-16.2,0-26.6h6.7l-1.1-2.1h-5.6c0-3.5,0-6,0-6.3c0-4.6,2-6.1,5-6.1c1,0,2.2,0.1,3.3,0.5l0,0
		l-1.1-2.4C155.2,10.5,154.5,10.4,153.8,10.4z"/>
</g>
</svg>
