<svg id="Calque_1" data-name="Calque 1" xmlns="http://www.w3.org/2000/svg" viewBox="0 0 265 97.52"><defs><style>.cls-1{fill:#171729;}.cls-2,.cls-3{fill:#ce5ea5;}.cls-3{opacity:0.28;isolation:isolate;}</style></defs><title>xplot</title><rect class="cls-1" width="265" height="97.52"/><path id="path4147" class="cls-2" d="M62.74,10.91a.81.81,0,0,1,.49.19,16.46,16.46,0,0,1,4.37,2A14.91,14.91,0,0,1,72.26,18l8.26,12.44L88.78,18a14.91,14.91,0,0,1,4.66-4.86,18.6,18.6,0,0,1,4.37-2L98.3,11H62.74Zm-4.66,2.14v40.8a16.56,16.56,0,0,0,3.79-.68,14.15,14.15,0,0,0,3.4-1.55,11.21,11.21,0,0,0,3.4-3.31c.39-.68,6.41-9.52,9.71-14.67,0-.09.1-.09.1-.19s-.1-.1-.1-.2c-3.4-5.14-9.32-14-9.71-14.67a11.18,11.18,0,0,0-3.4-3.3,14.15,14.15,0,0,0-3.4-1.55A16,16,0,0,0,58.08,13.05Zm45,0a16,16,0,0,0-3.79.68,12.11,12.11,0,0,0-3.4,1.55,12.3,12.3,0,0,0-3.4,3.3c-.39.68-6.41,9.53-9.72,14.67,0,.1-.09.1-.09.2s.09.1.09.19c3.41,5.15,9.33,14,9.72,14.67a11.1,11.1,0,0,0,3.4,3.31,14.15,14.15,0,0,0,3.4,1.55,17.77,17.77,0,0,0,3.79.68v2H98.4l-.49-.19a16.46,16.46,0,0,1-4.37-2,14.91,14.91,0,0,1-4.66-4.86L80.62,36.36c-3.31,5-7.87,11.86-8.26,12.44a15,15,0,0,1-4.66,4.86,18.55,18.55,0,0,1-4.38,2l-.48.1h40.32V13.05Z"/><path id="path9-3" class="cls-3" d="M82.56,33.35c-.58.78-1.26,1.85-2,3L88.78,48.8a14.91,14.91,0,0,0,4.66,4.86,18.6,18.6,0,0,0,4.37,2,4.08,4.08,0,0,1,.49.1H103v-2a16,16,0,0,1-3.79-.68,14.15,14.15,0,0,1-3.4-1.55,11.18,11.18,0,0,1-3.4-3.3C92,47.54,86,38.7,82.66,33.55h0a.31.31,0,0,0-.1-.2M62.74,10.91H58.08v2a21.27,21.27,0,0,1,3.79.78,14.15,14.15,0,0,1,3.4,1.55,12.3,12.3,0,0,1,3.4,3.3c.39.68,6.41,9.53,9.71,14.67h0c0,.1.1.1.1.2.58-.78,1.26-1.85,2-3L72.26,18a14.91,14.91,0,0,0-4.66-4.86,18.6,18.6,0,0,0-4.37-2c-.1-.09-.3-.09-.49-.19"/><path class="cls-2" d="M148.92,38.21a39.3,39.3,0,0,0,1,9.91h-2.23a38.75,38.75,0,0,1-1-10V7.7l2.23-.29Zm50.72,4.57a8.14,8.14,0,0,1-.68-3.4V22.76h8l-1.07-2H199V13.43h-2.24v7.29h-7.09l-1.07,2h8.16V38.7a11.34,11.34,0,0,0,.78,4.85,11.21,11.21,0,0,0,1.75,2.72,20,20,0,0,0,3.11,2.53l1-2A11,11,0,0,1,201,44.82,9,9,0,0,1,199.64,42.78ZM183,34.13c0,10.1-3.3,14.86-11.85,14.86s-11.85-4.76-11.85-14.86,3.3-14.87,11.85-14.87S183,23.93,183,34.13Zm-2.23,0c0-7.77-1.65-12.83-9.62-12.83s-9.62,5.15-9.62,12.83S163.2,47,171.17,47,180.79,41.8,180.79,34.13Zm-42.65.19c0,10-3.31,14.87-11.86,14.87-4.66,0-7.77-1.46-9.62-4.37V65.61a18.41,18.41,0,0,1-2.23-1.36V21.5a17.22,17.22,0,0,1,2.23-1.36h.1v3.79c1.85-2.92,5-4.37,9.62-4.37C134.73,19.56,138.14,24.32,138.14,34.32Zm-2.24.1c0-7.68-1.65-12.82-9.62-12.82s-9.62,5-9.62,12.82,1.65,12.83,9.62,12.83S135.9,42.1,135.9,34.42Z"/></svg>