<svg id="Calque_1" data-name="Calque 1" xmlns="http://www.w3.org/2000/svg" viewBox="0 0 265 97.52"><defs><style>.cls-1{fill:#171729;}.cls-2,.cls-3{fill:#1a90c5;}.cls-3{opacity:0.28;isolation:isolate;}</style></defs><title>xproperty</title><rect class="cls-1" width="265" height="97.52"/><path id="path4147" class="cls-2" d="M8.84,11.16a.73.73,0,0,1,.48.19,15.53,15.53,0,0,1,4.3,2,14.55,14.55,0,0,1,4.59,4.78c.38.57,4.87,7.36,8.12,12.14C29.58,25.4,34.08,18.61,34.46,18a14.65,14.65,0,0,1,4.59-4.78,18.36,18.36,0,0,1,4.3-2l.48-.09Zm-4.59,2V53.32A16.23,16.23,0,0,0,8,52.65a13.66,13.66,0,0,0,3.34-1.53,10.85,10.85,0,0,0,3.35-3.25c.38-.67,6.31-9.37,9.56-14.44,0-.09.1-.09.1-.19s-.1-.09-.1-.19C20.88,28,15.05,19.28,14.67,18.61a10.85,10.85,0,0,0-3.35-3.25A14.11,14.11,0,0,0,8,13.83C7.31,13.64,6,13.45,4.25,13.17Zm44.26,0a16.71,16.71,0,0,0-3.72.66,12.28,12.28,0,0,0-6.7,4.78c-.38.67-6.31,9.37-9.56,14.44,0,.1-.09.1-.09.19s.09.1.09.19c3.35,5.07,9.18,13.77,9.56,14.44a10.85,10.85,0,0,0,3.35,3.25,13.63,13.63,0,0,0,3.35,1.53,17.19,17.19,0,0,0,3.72.67v2H43.92l-.47-.1a15.68,15.68,0,0,1-4.31-2,14.52,14.52,0,0,1-4.58-4.78c-.39-.57-4.88-7.36-8.13-12.23-3.25,4.87-7.74,11.66-8.13,12.23a14.45,14.45,0,0,1-4.59,4.78,17.28,17.28,0,0,1-4.3,2l-.48.1H48.61V13.17Z"/><path id="path9-3" class="cls-3" d="M28.34,33.24c-.57.77-1.24,1.82-2,3,3.25,4.87,7.75,11.66,8.13,12.23a14.65,14.65,0,0,0,4.59,4.78,17.5,17.5,0,0,0,4.3,2,4.29,4.29,0,0,1,.48.1h4.59v-2a16.23,16.23,0,0,1-3.73-.67,13.85,13.85,0,0,1-3.35-1.53A10.93,10.93,0,0,1,38,47.87c-.39-.67-6.31-9.37-9.56-14.44h0c0-.09,0-.09-.1-.19M8.84,11.16H4.25v2A17,17,0,0,1,8,13.83a14.11,14.11,0,0,1,3.34,1.53,12.08,12.08,0,0,1,3.35,3.25c.38.67,6.31,9.37,9.56,14.44h0c0,.1.1.1.1.19.57-.76,1.24-1.81,2-3-3.25-4.78-7.74-11.57-8.12-12.14a14.55,14.55,0,0,0-4.59-4.78,17.5,17.5,0,0,0-4.3-2,.73.73,0,0,0-.48-.19"/><path class="cls-2" d="M179.87,19.38c-5.16,0-11.18,1.91-11.18,14.72,0,11.95,5.25,14.63,11.66,14.63a17.51,17.51,0,0,0,9.08-2.2l-.86-1.91a15.52,15.52,0,0,1-8.22,2.1c-5.07,0-9.08-1.82-9.47-10.9V34.68h19.7V34.1C190.58,23,186.56,19.38,179.87,19.38Zm-9.08,13.38c.19-9.65,4.4-11.37,9.08-11.37,5.07,0,8.51,2.67,8.51,11.37Zm90-13.19s-8.89,26.67-9.08,27.15a17.24,17.24,0,0,1-2.77,4.88A11.55,11.55,0,0,1,244.69,55l-.29.09-.48-.76a2.76,2.76,0,0,1-.47-.86c-.1-.1-.1-.1.47-.38a10.41,10.41,0,0,0,4.21-3.92,10.18,10.18,0,0,0,1.05-2.3l.19-.57-4.59-13.48c-2.48-7.46-4.58-13.48-4.58-13.58l2.19-.38s1.82,5.64,4,12.53,4,12.52,4,12.52,1.81-5.64,4.11-12.52,4-12.53,4.11-12.53A10.54,10.54,0,0,0,260.75,19.57Zm-33.46,1.72V37.73a8,8,0,0,0,.67,3.35,8.32,8.32,0,0,0,1.34,2.1,11.83,11.83,0,0,0,2.39,1.92l-1,2a21,21,0,0,1-3.06-2.48A13.58,13.58,0,0,1,226,41.94a11.58,11.58,0,0,1-.76-4.87V21.39h-8l1.05-2h7V12.11h2.2v7.17h6.88l1,2ZM210.75,18,211.8,20h0c-7.84.29-9.56,5.07-9.56,12.72V47.39a15.79,15.79,0,0,1-2.2-.48V18.81a13.36,13.36,0,0,1,2.2-.48v4C203.87,19.67,206.64,18.23,210.75,18Zm-93.12,1.34c-8.41,0-11.76,4.68-11.76,14.72s3.35,14.72,11.76,14.72,11.76-4.68,11.76-14.72S126.05,19.28,117.63,19.38Zm0,27.34c-7.93,0-9.56-5.07-9.56-12.71s1.63-12.72,9.56-12.72,9.56,5.07,9.56,12.72S125.57,46.72,117.63,46.72ZM100.52,19.38l1,1.91h0C93.64,21.29,92,26.36,92,34V48.73a15.79,15.79,0,0,1-2.2-.48V20.14a14.48,14.48,0,0,1,2.2-.47v4C93.64,20.91,96.41,19.57,100.52,19.38Zm-29.16,0c-4.59,0-7.65,1.43-9.46,4.4V20h-.1a17.91,17.91,0,0,0-2.2,1.34V63.55A18.45,18.45,0,0,0,61.8,65V44.33c1.82,3,4.88,4.4,9.47,4.4C79.68,48.73,83,44,83,34S79.78,19.38,71.36,19.38Zm0,27.34c-7.93,0-9.46-5.07-9.46-12.71s1.62-12.72,9.46-12.72,9.47,5.16,9.47,12.81S79.3,46.72,71.36,46.72ZM148.7,19.38c-4.58,0-7.64,1.43-9.46,4.4V20h-.1A17.06,17.06,0,0,0,137,21.29V63.55A17.56,17.56,0,0,0,139.14,65V44.33c1.82,3,4.88,4.4,9.47,4.4C157,48.73,160.37,44,160.37,34S157.12,19.38,148.7,19.38Zm0,27.34c-7.93,0-9.46-5.07-9.46-12.71s1.63-12.72,9.46-12.72,9.47,5.16,9.47,12.81S156.64,46.72,148.7,46.72Z"/></svg>