<?xml version="1.0" encoding="utf-8"?>
<!-- Generator: Adobe Illustrator 22.1.0, SVG Export Plug-In . SVG Version: 6.00 Build 0)  -->
<svg version="1.1" id="Calque_1" xmlns="http://www.w3.org/2000/svg" xmlns:xlink="http://www.w3.org/1999/xlink" x="0px" y="0px"
	 viewBox="0 0 268.3 66.4" style="enable-background:new 0 0 268.3 66.4;" xml:space="preserve">
<style type="text/css">
	.st0{fill:#171729;}
	.st1{fill:#0092CA;}
	.st2{opacity:0.28;fill:#0092CA;enable-background:new    ;}
</style>
<rect y="-0.2" class="st0" width="268.3" height="66.8"/>
<g>
	<path id="path4147_5_" class="st1" d="M4.8,10.1c0.2,0,0.4,0.1,0.5,0.2c2.5,0.8,4.5,2,4.5,2.1c2,1.3,3.6,3,4.8,5
		c0.4,0.6,5.1,7.7,8.5,12.7c3.4-5.1,8.1-12.2,8.5-12.8c1.2-2,2.8-3.7,4.8-5c0-0.1,2.1-1.3,4.5-2.1l0.5-0.1
		C41.4,10.1,4.8,10.1,4.8,10.1z M0,12.2v42c1.8-0.2,3.2-0.4,3.9-0.7c2-0.6,3.5-1.6,3.5-1.6c1.5-0.9,2.6-2.1,3.5-3.4
		c0.4-0.7,6.6-9.8,10-15.1c0-0.1,0.1-0.1,0.1-0.2c0-0.1-0.1-0.1-0.1-0.2c-3.5-5.3-9.6-14.4-10-15.1c-0.9-1.3-2-2.5-3.5-3.4
		c0,0-1.5-1-3.5-1.6C3.2,12.7,1.8,12.5,0,12.2z M46.3,12.2c-1.8,0.2-3.2,0.4-3.9,0.7c-2.1,0.6-3.5,1.6-3.5,1.6
		c-1.4,0.9-2.6,2.1-3.5,3.4c-0.4,0.7-6.6,9.8-10,15.1c0,0.1-0.1,0.1-0.1,0.2s0.1,0.1,0.1,0.2c3.5,5.3,9.6,14.4,10,15.1
		c0.9,1.3,2,2.5,3.5,3.4c0,0,1.5,1,3.5,1.6c0.8,0.3,2.1,0.5,3.9,0.7v2.1h-4.8L41,56.2c-2.5-0.8-4.5-2-4.5-2.1c-2-1.3-3.6-3-4.8-5
		c-0.4-0.6-5.1-7.7-8.5-12.8c-3.4,5.1-8.1,12.2-8.5,12.8c-1.2,2-2.8,3.7-4.8,5c0,0.1-2.1,1.3-4.5,2.1l-0.5,0.1h41.5V12.2H46.3z"/>
	<path id="path9-3_5_" class="st2" d="M25.2,33.2c-0.6,0.8-1.3,1.9-2.1,3.1c3.4,5.1,8.1,12.2,8.5,12.8c1.2,2,2.8,3.7,4.8,5
		c0,0.1,2.1,1.3,4.5,2.1c0.2,0,0.4,0.1,0.5,0.1h4.8v-2.1c-1.8-0.2-3.2-0.4-3.9-0.7c-2-0.6-3.5-1.6-3.5-1.6c-1.5-0.9-2.6-2.1-3.5-3.4
		c-0.4-0.7-6.6-9.8-10-15.1l0,0C25.3,33.3,25.3,33.3,25.2,33.2 M4.8,10.1H0v2.1c1.8,0.2,3.2,0.4,3.9,0.7c2,0.6,3.5,1.6,3.5,1.6
		c1.4,0.9,2.6,2.1,3.5,3.4c0.4,0.7,6.6,9.8,10,15.1l0,0c0,0.1,0.1,0.1,0.1,0.2c0.6-0.8,1.3-1.9,2.1-3.1c-3.4-5-8.1-12.1-8.5-12.7
		c-1.2-2-2.8-3.7-4.8-5c0-0.1-2.1-1.3-4.5-2.1C5.2,10.2,5,10.1,4.8,10.1"/>
	<path class="st1" d="M183.7,18.7c-5.4,0-11.7,2-11.7,15.4c0,12.5,5.5,15.3,12.2,15.3c3.6,0,6.8-0.7,9.5-2.3l-0.9-2
		c-2.8,1.6-5.4,2.2-8.6,2.2c-5.3,0-9.5-1.9-9.9-11.4v-1.2h20.6l0,0v-0.6C194.9,22.5,190.7,18.7,183.7,18.7z M174.2,32.7
		c0.2-10.1,4.6-11.9,9.5-11.9c5.3,0,8.9,2.8,8.9,11.9H174.2z M268.3,18.9c0,0-9.3,27.9-9.5,28.4c-0.7,1.9-1.8,3.8-2.9,5.1
		c-1.1,1.5-2.7,2.8-4.4,3.6l-0.3,0.1l-0.5-0.8c-0.3-0.4-0.5-0.8-0.5-0.9c-0.1-0.1-0.1-0.1,0.5-0.4c1.9-1,3.3-2.3,4.4-4.1
		c0.4-0.6,0.9-1.7,1.1-2.4l0.2-0.6l-4.8-14.1c-2.6-7.8-4.8-14.1-4.8-14.2l2.3-0.4c0,0,1.9,5.9,4.2,13.1s4.2,13.1,4.2,13.1
		s1.9-5.9,4.3-13.1s4.2-13.1,4.3-13.1C266.2,18.4,268.3,18.9,268.3,18.9z M233.3,20.7v17.2c0,1.2,0.2,2.4,0.7,3.5
		c0,0,0.5,1.2,1.4,2.2c0.4,0.5,1.3,1.2,2.5,2l-1,2.1c-1.5-1-2.6-2-3.2-2.6c-1.1-1.3-1.8-2.8-1.8-2.8c-0.6-1.5-0.9-3.3-0.8-5.1V20.8
		h-8.4l1.1-2.1h7.3v-7.6h2.3v7.5h7.2l1.1,2.1C241.7,20.7,233.3,20.7,233.3,20.7z M216,17.3l1.1,2l0,0c-8.2,0.3-10,5.3-10,13.3v0.2
		V48c-0.8-0.1-1.6-0.3-2.3-0.5V18.1c0.7-0.2,1.5-0.4,2.3-0.5v4.2C208.8,19,211.7,17.5,216,17.3z M118.6,18.7
		c-8.8,0-12.3,4.9-12.3,15.4s3.5,15.4,12.3,15.4s12.3-4.9,12.3-15.4C130.9,23.5,127.4,18.6,118.6,18.7z M118.6,47.3
		c-8.3,0-10-5.3-10-13.3s1.7-13.3,10-13.3s10,5.3,10,13.3S126.9,47.3,118.6,47.3z M100.7,18.7l1.1,2l0,0c-8.3,0-10,5.3-10,13.3v0.2
		v15.2c-0.8-0.1-1.6-0.3-2.3-0.5V19.5c0.7-0.2,1.5-0.4,2.3-0.5v4.2C93.5,20.3,96.4,18.9,100.7,18.7z M70.2,18.7
		c-4.8,0-8,1.5-9.9,4.6v-4c0,0,0,0-0.1,0c-0.8,0.4-1.6,0.9-2.3,1.4v44.2c0.7,0.6,1.5,1,2.3,1.5V44.8c1.9,3.1,5.1,4.6,9.9,4.6
		c8.8,0,12.3-4.9,12.3-15.4C82.5,23.6,79,18.7,70.2,18.7z M70.2,47.3c-8.3,0-9.9-5.3-9.9-13.3s1.7-13.3,9.9-13.3s9.9,5.4,9.9,13.4
		S78.5,47.3,70.2,47.3z M151.1,18.7c-4.8,0-8,1.5-9.9,4.6v-4c0,0,0,0-0.1,0c-0.8,0.4-1.6,0.9-2.3,1.4v44.2c0.7,0.6,1.5,1,2.3,1.5
		V44.8c1.9,3.1,5.1,4.6,9.9,4.6c8.8,0,12.3-4.9,12.3-15.4C163.4,23.6,159.9,18.7,151.1,18.7z M151.1,47.3c-8.3,0-9.9-5.3-9.9-13.3
		s1.7-13.3,9.9-13.3s9.9,5.4,9.9,13.4S159.4,47.3,151.1,47.3z"/>
</g>
</svg>
