<svg id="Calque_1" data-name="Calque 1" xmlns="http://www.w3.org/2000/svg" viewBox="0 0 265 97.52"><defs><style>.cls-1{fill:#171729;}.cls-2,.cls-3{fill:#d6e24b;}.cls-3{opacity:0.28;isolation:isolate;}</style></defs><title>xsimd</title><rect class="cls-1" width="265" height="97.52"/><path class="cls-2" d="M90.53,13.63A20,20,0,0,1,94.35,13V55.6h-40a4.71,4.71,0,0,0,.48-.09,19.88,19.88,0,0,0,4.39-2,16.18,16.18,0,0,0,4.69-4.88l8.22-12.33L80.3,48.62A15.07,15.07,0,0,0,85,53.5a17.32,17.32,0,0,0,4.39,2,4.22,4.22,0,0,1,.48.09h4.59V53.5a18.41,18.41,0,0,1-3.82-.67,13.63,13.63,0,0,1-3.35-1.53,11,11,0,0,1-3.35-3.25c-.38-.67-6.31-9.46-9.65-14.63a.31.31,0,0,1-.1-.19c0-.09.1-.09.1-.19,3.34-5.07,9.27-14,9.65-14.63a11,11,0,0,1,3.35-3.25A13.77,13.77,0,0,1,90.53,13.63Zm21.61,20.65c-4.4-1.24-7.08-2.39-7.08-6,0-4.21,3-5.45,6.69-5.45a15,15,0,0,1,6.89,1.44l.86-1.92a17.06,17.06,0,0,0-7.75-1.53c-4.49,0-8.79,2.11-8.79,7.36s3.82,6.89,8.32,8.13c4.3,1.15,7.74,2,7.74,5.93,0,4.68-3.35,6.21-7.07,6.21A17.43,17.43,0,0,1,104.87,47l-1,1.81A20.11,20.11,0,0,0,112,50.34c4.88,0,9.18-2.19,9.18-8.12C121.22,36.86,117.11,35.62,112.14,34.28Zm-52,13.77c.38-.67,6.31-9.46,9.66-14.63,0-.09.09-.09.09-.19s-.09-.09-.09-.19c-3.35-5.07-9.28-14-9.66-14.63a10.85,10.85,0,0,0-3.35-3.25,14.11,14.11,0,0,0-3.34-1.53A31.71,31.71,0,0,0,49.61,13V53.5a18.67,18.67,0,0,0,3.83-.67,13.66,13.66,0,0,0,3.34-1.53A11,11,0,0,0,60.13,48.05Zm-1.05-35a16.15,16.15,0,0,1,4.68,4.88L72,30.27l8.23-12.33a15,15,0,0,1,4.68-4.88,17.49,17.49,0,0,1,4.4-2,4.71,4.71,0,0,0,.48-.09H54.39a.7.7,0,0,1,.48.19A16,16,0,0,1,59.08,13.06ZM215.39,5.51V50.34a14.23,14.23,0,0,1-2.2-.47V46c-1.82,3-5,4.4-9.56,4.4-8.51,0-11.86-4.78-11.86-14.82s3.35-14.82,11.76-14.82c4.69,0,7.75,1.44,9.56,4.4V6A17.11,17.11,0,0,1,215.39,5.51Zm-2.2,30.11c0-7.65-1.63-12.81-9.56-12.81s-9.56,5.07-9.56,12.81,1.62,12.81,9.56,12.81S213.19,43.37,213.19,35.62ZM132,50.44l2.2-1.15v-28H132Zm42.26-29.73H173c-4.88,0-7.27,2.39-8.51,5.54-1.25-3.25-3.64-5.54-8.51-5.54h-1.24c-8.42,0-9.56,7.07-9.56,13.19V48.81a8.89,8.89,0,0,0,2.29,1.44V34.67c0-7,1.05-11.86,7.65-11.86h.57c6.6,0,7.65,4.88,7.65,11.86v14l2.29-.1V34.67c0-7,1.06-11.86,7.65-11.86h.58c6.59,0,7.64,4.88,7.64,11.86V50.44a11.46,11.46,0,0,0,2.3-1.43V34C183.84,27.78,182.6,20.71,174.28,20.71ZM132,17.27h2.2V15H132Z"/><path class="cls-3" d="M94.26,53.5v2.1H89.67a4.71,4.71,0,0,1-.48-.09,20.35,20.35,0,0,1-4.4-2,16.15,16.15,0,0,1-4.68-4.88L71.89,36.29c.76-1.15,1.43-2.2,2-3,0,.09.09.09.09.19,3.35,5.07,9.27,14,9.66,14.63A10.93,10.93,0,0,0,87,51.4a14.31,14.31,0,0,0,3.35,1.53C91.2,53,92.54,53.31,94.26,53.5ZM59.08,13.06a17.49,17.49,0,0,0-4.4-2A.77.77,0,0,0,54.2,11H49.61v2.1a21.18,21.18,0,0,1,3.83.57,14.11,14.11,0,0,1,3.34,1.53,10.85,10.85,0,0,1,3.35,3.25c.38.67,6.31,9.47,9.66,14.63,0,.1.09.1.09.19.57-.76,1.24-1.81,2-3L63.67,17.94A14.87,14.87,0,0,0,59.08,13.06Z"/></svg>