<?xml version="1.0" encoding="utf-8"?>
<!-- Generator: Adobe Illustrator 22.1.0, SVG Export Plug-In . SVG Version: 6.00 Build 0)  -->
<svg version="1.1" id="Calque_1" xmlns="http://www.w3.org/2000/svg" xmlns:xlink="http://www.w3.org/1999/xlink" x="0px" y="0px"
	 viewBox="0 0 173.4 66.4" style="enable-background:new 0 0 173.4 66.4;" xml:space="preserve">
<style type="text/css">
	.st0{fill:#171729;}
	.st1{fill:#D8E448;}
	.st2{opacity:0.28;fill:#D8E448;enable-background:new    ;}
</style>
<rect y="-0.2" class="st0" width="173.4" height="66.8"/>
<path class="st1" d="M42.8,12.9c0.8-0.3,2.2-0.5,4-0.7v44.6H4.9c0.2,0,0.4-0.1,0.5-0.1c2.5-0.8,4.5-2,4.6-2.1c2-1.3,3.6-3.1,4.9-5.1
	c0.4-0.6,5.2-7.8,8.6-12.9c3.4,5.1,8.2,12.3,8.6,12.9c1.2,2,2.9,3.8,4.9,5.1c0,0.1,2.1,1.3,4.6,2.1c0.2,0,0.4,0.1,0.5,0.1h4.8v-2.2
	c-1.8-0.2-3.2-0.4-4-0.7c-2-0.6-3.5-1.6-3.5-1.6c-1.5-0.9-2.6-2.1-3.5-3.4c-0.4-0.7-6.6-9.9-10.1-15.3c0,0-0.1-0.1-0.1-0.2
	c0-0.1,0.1-0.1,0.1-0.2c3.5-5.3,9.7-14.6,10.1-15.3c0.9-1.3,2-2.5,3.5-3.4C39.2,14.6,40.7,13.6,42.8,12.9z M65.4,34.5
	C60.8,33.2,58,32,58,28.2c0-4.4,3.1-5.7,7-5.7c2.6,0,5,0.4,7.2,1.5l0.9-2c-2.6-1.3-5.4-1.6-8.1-1.6c-4.7,0-9.2,2.2-9.2,7.7
	s4,7.2,8.7,8.5c4.5,1.2,8.1,2.1,8.1,6.2c0,4.9-3.5,6.5-7.4,6.5c-2.6,0-5.2-0.5-7.4-1.5l-1,1.9c2.5,1.1,5.4,1.6,8.5,1.6
	c5.1,0,9.6-2.3,9.6-8.5C74.9,37.2,70.6,35.9,65.4,34.5z M11,48.9c0.4-0.7,6.6-9.9,10.1-15.3c0-0.1,0.1-0.1,0.1-0.2
	c0-0.1-0.1-0.1-0.1-0.2c-3.5-5.3-9.7-14.6-10.1-15.3c-0.9-1.3-2-2.5-3.5-3.4c0,0-1.5-1-3.5-1.6c-0.8-0.2-2.2-0.5-4-0.7v42.4
	c1.8-0.2,3.2-0.4,4-0.7c2-0.6,3.5-1.6,3.5-1.6C9,51.3,10.2,50.2,11,48.9z M9.9,12.3c2,1.3,3.6,3.1,4.9,5.1c0.4,0.6,5.2,7.8,8.6,12.9
	c3.4-5.1,8.2-12.3,8.6-12.9c1.2-2,2.9-3.8,4.9-5.1c0-0.1,2.1-1.3,4.6-2.1c0.2,0,0.4-0.1,0.5-0.1H5c0.2,0,0.4,0.1,0.5,0.2
	C7.8,11,9.9,12.2,9.9,12.3z M173.4,4.4v46.9c-0.8-0.1-1.6-0.3-2.3-0.5v-4c-1.9,3.1-5.2,4.6-10,4.6c-8.9,0-12.4-5-12.4-15.5
	s3.5-15.5,12.3-15.5c4.9,0,8.1,1.5,10,4.6V4.9C171.8,4.7,172.6,4.5,173.4,4.4z M171.1,35.9c0-8-1.7-13.4-10-13.4
	c-8.4,0-10,5.3-10,13.4s1.7,13.4,10,13.4C169.4,49.3,171.1,44,171.1,35.9z M86.2,51.4l2.3-1.2V20.9h-2.3V51.4z M130.4,20.3h-1.3
	c-5.1,0-7.6,2.5-8.9,5.8c-1.3-3.4-3.8-5.8-8.9-5.8H110c-8.8,0-10,7.4-10,13.8v15.6c0.7,0.6,1.5,1.1,2.4,1.5V34.9
	c0-7.3,1.1-12.4,8-12.4h0.6c6.9,0,8,5.1,8,12.4v14.7l2.4-0.1V34.9c0-7.3,1.1-12.4,8-12.4h0.6c6.9,0,8,5.1,8,12.4v16.5
	c0.8-0.4,1.7-0.9,2.4-1.5V34.2C140.4,27.7,139.1,20.3,130.4,20.3z M86.2,16.7h2.3v-2.4h-2.3V16.7z"/>
<path class="st2" d="M46.7,54.6v2.2h-4.8c-0.2,0-0.4-0.1-0.5-0.1c-2.5-0.8-4.5-2-4.6-2.1c-2-1.3-3.6-3.1-4.9-5.1
	c-0.4-0.6-5.2-7.8-8.6-12.9c0.8-1.2,1.5-2.3,2.1-3.1c0,0.1,0.1,0.1,0.1,0.2C29,39,35.2,48.3,35.6,49c0.9,1.3,2,2.5,3.5,3.4
	c0,0,1.5,1,3.5,1.6C43.5,54.1,44.9,54.4,46.7,54.6z M9.9,12.3c0-0.1-2.1-1.3-4.6-2.1c-0.1-0.1-0.3-0.1-0.5-0.1H0v2.2
	c1.8,0.1,3.2,0.4,4,0.6c2,0.6,3.5,1.6,3.5,1.6c1.5,0.9,2.6,2.1,3.5,3.4c0.4,0.7,6.6,9.9,10.1,15.3c0,0.1,0.1,0.1,0.1,0.2
	c0.6-0.8,1.3-1.9,2.1-3.1c-3.4-5.1-8.2-12.3-8.6-12.9C13.5,15.4,11.9,13.6,9.9,12.3z"/>
</svg>
