<svg id="Calque_1" data-name="Calque 1" xmlns="http://www.w3.org/2000/svg" viewBox="0 0 265 97.52"><defs><style>.cls-1{fill:#171729;}.cls-2,.cls-3{fill:#fff;}.cls-2{opacity:0.28;isolation:isolate;}</style></defs><title>xstack</title><rect class="cls-1" width="265" height="97.52"/><path class="cls-2" d="M91.3,53.5v2.1H86.71a4.22,4.22,0,0,1-.48-.09,20.35,20.35,0,0,1-4.4-2,16.15,16.15,0,0,1-4.68-4.88c-.39-.57-5-7.45-8.23-12.33.77-1.15,1.44-2.2,2-3,0,.09.1.09.1.19,3.34,5.07,9.27,14,9.65,14.63A11,11,0,0,0,84,51.4a14.07,14.07,0,0,0,3.35,1.53C88.24,53,89.57,53.31,91.3,53.5ZM56.11,13.06a17.32,17.32,0,0,0-4.39-2,.77.77,0,0,0-.48-.09H46.65v2.1a20.89,20.89,0,0,1,3.82.57,14.07,14.07,0,0,1,3.35,1.53,11,11,0,0,1,3.35,3.25c.38.67,6.31,9.47,9.65,14.63,0,.1.1.1.1.19.57-.76,1.24-1.81,2-3L60.7,17.94A14.66,14.66,0,0,0,56.11,13.06Z"/><path class="cls-3" d="M91.39,53.5h0l.1,2.1h-.1ZM82,53.5a15,15,0,0,1-4.68-4.88L69.12,36.29,60.89,48.62a16.15,16.15,0,0,1-4.68,4.88,20.35,20.35,0,0,1-4.4,2,3.82,3.82,0,0,1-.48.09H86.9a4.71,4.71,0,0,0-.48-.09A17.9,17.9,0,0,1,82,53.5ZM56.11,13.06a16.06,16.06,0,0,1,4.69,4.88L69,30.27l8.22-12.33a15.07,15.07,0,0,1,4.69-4.88,17.32,17.32,0,0,1,4.39-2A3.82,3.82,0,0,0,86.8,11H51.43a.73.73,0,0,1,.48.19A15.81,15.81,0,0,1,56.11,13.06Zm31.46.57a13.77,13.77,0,0,0-3.25,1.53A10.85,10.85,0,0,0,81,18.41c-.38.67-6.31,9.56-9.66,14.63,0,.1-.09.1-.09.19a.32.32,0,0,0,.09.19c3.35,5.17,9.28,14,9.66,14.63a10.85,10.85,0,0,0,3.35,3.25,13.66,13.66,0,0,0,3.34,1.53,18.79,18.79,0,0,0,3.73.67V13A19.88,19.88,0,0,0,87.57,13.63ZM57.17,48.05c.38-.67,6.31-9.46,9.65-14.63,0-.09.1-.09.1-.19s-.1-.09-.1-.19c-3.34-5.07-9.27-14-9.65-14.63a11,11,0,0,0-3.35-3.25,14.07,14.07,0,0,0-3.35-1.53A31.09,31.09,0,0,0,46.65,13V53.5a18.41,18.41,0,0,0,3.82-.67,13.63,13.63,0,0,0,3.35-1.53A11.1,11.1,0,0,0,57.17,48.05Zm52-13.77c-4.39-1.24-7.07-2.39-7.07-6,0-4.21,3-5.45,6.69-5.45a14.94,14.94,0,0,1,6.88,1.44l.86-1.92a17,17,0,0,0-7.74-1.53c-4.49,0-8.79,2.11-8.79,7.36s3.82,6.89,8.31,8.13c4.3,1.15,7.75,2,7.75,5.93,0,4.68-3.35,6.21-7.08,6.21A17.41,17.41,0,0,1,101.91,47l-1,1.81a20,20,0,0,0,8.13,1.53c4.87,0,9.18-2.19,9.18-8.12C118.26,36.86,114.14,35.62,109.17,34.28Zm57.56,1.34c0,10-3.45,14.72-12,14.72h-.48c-7.36,0-9.46-3.44-9.46-8.31,0-6.79,6.5-8.42,19.69-9-.38-6.21-2.48-10.13-9.75-10.13a12.18,12.18,0,0,0-5.74,1.24L148,22.24a14.23,14.23,0,0,1,6.79-1.44C163.28,20.8,166.73,25.49,166.73,35.62Zm-2.3-.48c-11.09.58-17.4,1.44-17.4,7,0,1.91.29,3.25,1.24,4.3a3.41,3.41,0,0,0,1.15.77,12.59,12.59,0,0,0,5.26,1c8.13,0,9.85-5,9.85-12.62A.57.57,0,0,1,164.43,35.14ZM139.38,23.67Zm46.94,24.57c-8.12,0-9.84-5-9.84-12.62S178.1,23,186.32,23a12.08,12.08,0,0,1,5.84,1.25l1-1.92a14.82,14.82,0,0,0-6.79-1.43c-8.7,0-12,4.68-12,14.72s3.44,14.72,12,14.72a14.86,14.86,0,0,0,6.89-1.43l-1-1.91A14.68,14.68,0,0,1,186.32,48.24Zm32-23.42a9.24,9.24,0,0,0-1.62-1.63L204.49,35.33V20.61h-.29a7.07,7.07,0,0,0-2,.58V49.58a15.78,15.78,0,0,0,2.3.57V36l11.85,11.86A12.45,12.45,0,0,0,218,46.33L207.26,35.62Zm-87-3.25V14.3h-2.2v7.17h-7l-1,2.11h8V39.35a11.82,11.82,0,0,0,.77,4.88A13.19,13.19,0,0,0,131.64,47a26.67,26.67,0,0,0,3.06,2.58l1-2.1a10.83,10.83,0,0,1-2.29-1.92,8.32,8.32,0,0,1-1.34-2.1,8,8,0,0,1-.67-3.34V23.67h7.94l-1-2h-6.89v-.09Z"/></svg>