<?xml version="1.0" encoding="utf-8"?>
<!-- Generator: Adobe Illustrator 22.1.0, SVG Export Plug-In . SVG Version: 6.00 Build 0)  -->
<svg version="1.1" id="Calque_1" xmlns="http://www.w3.org/2000/svg" xmlns:xlink="http://www.w3.org/1999/xlink" x="0px" y="0px"
	 viewBox="0 0 179.6 66.4" style="enable-background:new 0 0 179.6 66.4;" xml:space="preserve">
<style type="text/css">
	.st0{opacity:0.28;fill:#111212;enable-background:new    ;}
</style>
<path class="st0" d="M46.7,54.6v2.2h-4.8c-0.2,0-0.4-0.1-0.5-0.1c-2.5-0.8-4.5-2-4.6-2.1c-2-1.3-3.6-3.1-4.9-5.1
	c-0.4-0.6-5.2-7.8-8.6-12.9c0.8-1.2,1.5-2.3,2.1-3.1c0,0.1,0.1,0.1,0.1,0.2C29,39,35.2,48.3,35.6,49c0.9,1.3,2,2.5,3.5,3.4
	c0,0,1.5,1,3.5,1.6C43.5,54.1,44.9,54.4,46.7,54.6z M9.9,12.3c0-0.1-2.1-1.3-4.6-2.1c-0.1-0.1-0.3-0.1-0.5-0.1H0v2.2
	c1.8,0.1,3.2,0.4,4,0.6c2,0.6,3.5,1.6,3.5,1.6c1.5,0.9,2.6,2.1,3.5,3.4c0.4,0.7,6.6,9.9,10.1,15.3c0,0.1,0.1,0.1,0.1,0.2
	c0.6-0.8,1.3-1.9,2.1-3.1c-3.4-5.1-8.2-12.3-8.6-12.9C13.5,15.4,11.9,13.6,9.9,12.3z"/>
<path d="M46.8,54.6c0,0,0.1,0,0.1,0v2.2h-0.1V54.6z M37,54.6c-2-1.3-3.7-3.1-4.9-5.1c-0.4-0.6-5.2-7.8-8.6-12.9
	c-3.4,5.1-8.2,12.3-8.6,12.9c-1.3,2-2.9,3.8-4.9,5.1c-0.1,0.1-2.1,1.3-4.6,2.1c-0.1,0-0.3,0.1-0.5,0.1h37.2c-0.1,0-0.3-0.1-0.5-0.1
	C39.1,55.9,37,54.7,37,54.6z M9.9,12.3c2,1.3,3.6,3.1,4.9,5.1c0.4,0.6,5.2,7.8,8.6,12.9c3.4-5.1,8.2-12.3,8.6-12.9
	c1.2-2,2.9-3.8,4.9-5.1c0-0.1,2.1-1.3,4.6-2.1c0.2,0,0.4-0.1,0.5-0.1H5c0.2,0,0.4,0.1,0.5,0.2C7.8,11,9.9,12.2,9.9,12.3z M42.8,12.9
	c-2.1,0.7-3.6,1.7-3.4,1.6c-1.5,0.9-2.6,2.1-3.5,3.4c-0.4,0.7-6.6,10-10.1,15.3c0,0.1-0.1,0.1-0.1,0.2c0,0.1,0.1,0.2,0.1,0.2
	c3.5,5.4,9.7,14.6,10.1,15.3c0.9,1.3,2,2.5,3.5,3.4c0,0,1.5,1,3.5,1.6c0.8,0.3,2.2,0.5,3.9,0.7V12.2C45,12.4,43.6,12.6,42.8,12.9z
	 M11,48.9c0.4-0.7,6.6-9.9,10.1-15.3c0-0.1,0.1-0.1,0.1-0.2c0-0.1-0.1-0.1-0.1-0.2c-3.5-5.3-9.7-14.6-10.1-15.3
	c-0.9-1.3-2-2.5-3.5-3.4c0,0-1.5-1-3.5-1.6c-0.8-0.2-2.2-0.5-4-0.7v42.4c1.8-0.2,3.2-0.4,4-0.7c2-0.6,3.5-1.6,3.5-1.6
	C9,51.3,10.2,50.2,11,48.9z M65.4,34.5C60.8,33.2,58,32,58,28.2c0-4.4,3.1-5.7,7-5.7c2.6,0,5,0.4,7.2,1.5l0.9-2
	c-2.6-1.3-5.4-1.6-8.1-1.6c-4.7,0-9.2,2.2-9.2,7.7s4,7.2,8.7,8.5c4.5,1.2,8.1,2.1,8.1,6.2c0,4.9-3.5,6.5-7.4,6.5
	c-2.6,0-5.2-0.5-7.4-1.5l-1,1.9c2.5,1.1,5.4,1.6,8.5,1.6c5.1,0,9.6-2.3,9.6-8.5C74.9,37.2,70.6,35.9,65.4,34.5z M125.6,35.9
	c0,10.5-3.6,15.4-12.6,15.4c-0.1,0-0.4,0-0.5,0c-7.7,0-9.9-3.6-9.9-8.7c0-7.1,6.8-8.8,20.6-9.4c-0.4-6.5-2.6-10.6-10.2-10.6
	c-2.1,0-4,0.3-6,1.3l-1-2c2.3-1.2,4.7-1.5,7.1-1.5C122,20.4,125.6,25.3,125.6,35.9z M123.2,35.4c-11.6,0.6-18.2,1.5-18.2,7.3
	c0,2,0.3,3.4,1.3,4.5c0.3,0.3,0.7,0.6,1.2,0.8c1.8,0.8,3.6,1,5.5,1c8.5,0,10.3-5.2,10.3-13.2C123.2,35.7,123.2,35.5,123.2,35.4z
	 M97,23.4L97,23.4L97,23.4L97,23.4z M146.1,49.1c-8.5,0-10.3-5.2-10.3-13.2c0-8,1.7-13.2,10.3-13.2c2.2,0,4.2,0.3,6.1,1.3l1-2
	c-2.4-1.2-4.8-1.5-7.1-1.5c-9.1,0-12.6,4.9-12.6,15.4c0,10.5,3.6,15.4,12.6,15.4c2.4,0,4.8-0.3,7.2-1.5l-1-2
	C150.2,48.7,148.2,49.1,146.1,49.1z M179.6,24.6c-0.5-0.6-1-1.2-1.7-1.7l-12.8,12.7V20.2h-0.3c-0.8,0.1-1.4,0.3-2.1,0.6v29.7
	c0.8,0.3,1.5,0.4,2.4,0.6V36.3l12.4,12.4c0.6-0.5,1.2-1,1.7-1.6l-11.2-11.2L179.6,24.6z M88.6,21.2v-7.6h-2.3v7.5H79l-1.1,2.2h8.4
	c0,0,0,15.6,0,16.5c-0.1,1.8,0.2,3.6,0.8,5.1c0,0.1,0.7,1.5,1.8,2.9c0.6,0.6,1.7,1.6,3.2,2.7l1-2.2c-1.2-0.8-2-1.5-2.4-2
	c-0.9-1-1.4-2.2-1.4-2.2c-0.5-1.1-0.7-2.3-0.7-3.5c0-0.8,0-17.2,0-17.2h8.3l-1.1-2.1H88.6z"/>
</svg>
