<svg id="Calque_1" data-name="Calque 1" xmlns="http://www.w3.org/2000/svg" viewBox="0 0 265 97.52"><defs><style>.cls-1{fill:#171729;}.cls-2,.cls-3{fill:#80d588;}.cls-3{opacity:0.28;isolation:isolate;}</style></defs><title>xtensor</title><rect class="cls-1" width="265" height="97.52"/><path class="cls-2" d="M97.41,24.88ZM90.05,44.76a8,8,0,0,1-.67-3.34V24.78h8l-1-2h-7V15.41H87.09v7.27H80L79,24.78h8.13v16a11.58,11.58,0,0,0,.76,4.87,12.66,12.66,0,0,0,1.72,2.77A28.41,28.41,0,0,0,92.63,51l1.06-2.11A14.75,14.75,0,0,1,91.3,47,17.56,17.56,0,0,1,90.05,44.76ZM64.34,15.12A10.88,10.88,0,0,0,61,18.38c-.38.66-6.31,9.46-9.66,14.53C48.56,37.11,41.49,47.73,41,48.39a15.86,15.86,0,0,1-4.59,4.88,17.49,17.49,0,0,1-4.4,2,4.71,4.71,0,0,0-.48.09H66.73c-.1,0-.2-.09-.39-.09a19.37,19.37,0,0,1-4.39-2,15.74,15.74,0,0,1-4.59-4.88L49.13,36.06c.77-1.15,1.44-2.2,2-3,0,.09.1.09.1.19,3.34,5.07,9.27,13.86,9.65,14.53a11,11,0,0,0,3.35,3.25,13.63,13.63,0,0,0,3.35,1.53,18.41,18.41,0,0,0,3.82.67v2h.1V12.93a18.67,18.67,0,0,0-3.83.67A13.87,13.87,0,0,0,64.34,15.12Zm-27,32.8c.38-.67,6.31-9.47,9.65-14.54,2.77-4.3,9.85-14.81,10.33-15.58A15.82,15.82,0,0,1,62,12.93a16.93,16.93,0,0,1,4.39-2,3.84,3.84,0,0,0,.48-.1H31.64c.1,0,.29.1.38.1a19.33,19.33,0,0,1,4.4,2A15.94,15.94,0,0,1,41,17.8l8.22,12.33c-.76,1.15-1.43,2.2-2,3,0-.1-.09-.1-.09-.19-3.44-5-9.37-13.87-9.75-14.53A11,11,0,0,0,34,15.12a13.83,13.83,0,0,0-3.35-1.52,18.41,18.41,0,0,0-3.82-.67V53.46a18.41,18.41,0,0,0,3.82-.67A13.63,13.63,0,0,0,34,51.26,12.5,12.5,0,0,0,37.38,47.92ZM205,22.1c-8.51,0-11.86,4.78-11.86,14.82S196.46,51.74,205,51.74,216.82,47,216.82,36.92,213.47,22.1,205,22.1Zm0,27.73c-8,0-9.66-5.07-9.66-12.81s1.63-12.81,9.66-12.81,9.65,5.06,9.65,12.81S213,49.73,205,49.83ZM237.18,22.1c-4.11.2-6.88,1.63-8.7,4.4v-4a14.09,14.09,0,0,0-2.19.47v28.4a15.34,15.34,0,0,0,2.19.48v-15c0-7.75,1.63-12.81,9.66-12.81h0Zm-120.93,0C111.09,22.1,105,24,105,37c0,12,5.25,14.82,11.76,14.82a17.63,17.63,0,0,0,9.17-2.2L125,47.73a15.69,15.69,0,0,1-8.31,2.1c-5.17,0-9.18-1.82-9.56-11V37.69h19.88v-.77C127.15,25.74,123,22.1,116.25,22.1Zm-9.18,13.48c.19-9.75,4.49-11.47,9.08-11.47,5.07,0,8.61,2.68,8.61,11.47ZM147.51,22h-1.24c-8.42,0-9.56,7.07-9.56,13.29V50.21A9.33,9.33,0,0,0,139,51.64V36c0-7,1.05-11.95,7.65-11.95h.57c6.6,0,7.65,4.87,7.65,12V51.74a11.46,11.46,0,0,0,2.3-1.43V35.39C157.07,29.08,155.83,22,147.51,22Zm28.78,13.57c-4.4-1.24-7.08-2.39-7.08-6,0-4.21,3-5.45,6.69-5.45a15,15,0,0,1,6.89,1.44l.86-1.92a17.09,17.09,0,0,0-7.75-1.53c-4.59,0-8.79,2.11-8.79,7.37s3.73,6.88,8.32,8.12c4.3,1.15,7.74,2.1,7.74,5.93,0,4.68-3.35,6.21-7.08,6.21a16.26,16.26,0,0,1-9-2.48l-1,1.81a17.65,17.65,0,0,0,10,2.58c4.88,0,9.18-2.19,9.18-8.12C185.37,38.16,181.16,37,176.29,35.58Z"/><path class="cls-3" d="M51.14,33c-.57.77-1.24,1.82-2,3,3.26,4.87,7.75,11.76,8.23,12.33A15.82,15.82,0,0,0,62,53.17a16.93,16.93,0,0,0,4.39,2,3.84,3.84,0,0,1,.48.1h4.59V53.17a19.27,19.27,0,0,1-3.82-.66A14.07,14.07,0,0,1,64.24,51a11,11,0,0,1-3.35-3.25c-.38-.67-6.31-9.47-9.65-14.54h0a.3.3,0,0,0-.1-.19M31.45,10.73H26.86v2.1a18.41,18.41,0,0,1,3.82.67A13.63,13.63,0,0,1,34,15a11,11,0,0,1,3.35,3.25c.38.67,6.31,9.46,9.65,14.53h0c0,.1.1.1.1.19.57-.76,1.24-1.81,2-3-3.25-4.88-7.74-11.76-8.22-12.33a15.74,15.74,0,0,0-4.59-4.88,17.32,17.32,0,0,0-4.39-2,4.71,4.71,0,0,0-.48-.09"/></svg>