<svg id="Calque_1" data-name="Calque 1" xmlns="http://www.w3.org/2000/svg" viewBox="0 0 265 97.52"><defs><style>.cls-1{fill:#171729;}.cls-2{fill:#666;}.cls-3,.cls-4{fill:#80d588;}.cls-4{opacity:0.28;isolation:isolate;}</style></defs><title>xtensor-blas</title><rect class="cls-1" width="265" height="97.52"/><path class="cls-2" d="M199.11,67.72v-.09a2.47,2.47,0,0,0,1.77-1.06,3.7,3.7,0,0,0,.62-2.29,3.38,3.38,0,0,0-1.51-3,9.25,9.25,0,0,0-4.77-1h-4.77V75.76h5.83a6.46,6.46,0,0,0,4.16-1.15,3.75,3.75,0,0,0,1.5-3.27,4,4,0,0,0-.62-2.38A3.43,3.43,0,0,0,199.11,67.72ZM193.72,63h1.77a4,4,0,0,1,2,.35,1.35,1.35,0,0,1,.62,1.24,1.41,1.41,0,0,1-.62,1.33,3.75,3.75,0,0,1-1.94.44h-2V63Zm4.15,9.54a3.07,3.07,0,0,1-2,.53h-2.12V69.05h2c1.86,0,2.74.62,2.74,1.94A1.86,1.86,0,0,1,197.87,72.58Zm7.95-13.25h3.27V75.85h-3.27Zm12.55,4.42a9.41,9.41,0,0,0-4.51,1.06L214.92,67a9.1,9.1,0,0,1,3.36-.89,1.62,1.62,0,0,1,1.86,1.77v.53l-2,.09a7.7,7.7,0,0,0-4,1,3.11,3.11,0,0,0-1.33,2.74,3.68,3.68,0,0,0,1,2.74,3.73,3.73,0,0,0,2.65,1,5.2,5.2,0,0,0,2.2-.44,4.82,4.82,0,0,0,1.68-1.42h.09l.62,1.59h2.3V67.81a4,4,0,0,0-1.24-3.18A6.94,6.94,0,0,0,218.37,63.75Zm1.77,7.59a2.13,2.13,0,0,1-.71,1.68,2.37,2.37,0,0,1-1.77.62q-1.59,0-1.59-1.32a1.63,1.63,0,0,1,.71-1.42,4.15,4.15,0,0,1,2.12-.53h1.24v1Zm15.9,1a3.25,3.25,0,0,1-1.24,2.74,6.56,6.56,0,0,1-3.8,1,14.7,14.7,0,0,1-2.21-.18,5.26,5.26,0,0,1-1.67-.53V72.67a10.44,10.44,0,0,0,2,.71,9.48,9.48,0,0,0,2,.26c1.15,0,1.77-.35,1.77-1.06a.81.81,0,0,0-.27-.62,3.46,3.46,0,0,0-.79-.53c-.36-.17-.89-.44-1.51-.7a8.86,8.86,0,0,1-2-1.06,2.93,2.93,0,0,1-1.23-2.74,3,3,0,0,1,1.23-2.48,5.61,5.61,0,0,1,3.45-.88,9.85,9.85,0,0,1,4.15,1l-1,2.3c-.62-.27-1.15-.44-1.68-.62a4.9,4.9,0,0,0-1.59-.26c-1,0-1.41.26-1.41.79a1.21,1.21,0,0,0,.44.8,15.38,15.38,0,0,0,2,1,8.14,8.14,0,0,1,2,1.06,3.77,3.77,0,0,1,1,1.15A4.54,4.54,0,0,1,236,72.32Z"/><path class="cls-3" d="M97.43,25.32ZM90.1,45.2a8.65,8.65,0,0,1-.71-3.36V25.23h8l-1.06-2h-7V15.87h-2.3v7.24H80L79,25.23h8.13v15.9a11,11,0,0,0,.8,4.86,16,16,0,0,0,1.68,2.74,24.47,24.47,0,0,0,3.09,2.56l1.06-2.12a12.52,12.52,0,0,1-2.39-1.94A12.33,12.33,0,0,1,90.1,45.2ZM64.39,15.6A11.66,11.66,0,0,0,61,18.87c-.35.62-6.27,9.36-9.54,14.49-2.83,4.15-9.9,14.75-10.34,15.46a15.24,15.24,0,0,1-4.59,4.86,19.72,19.72,0,0,1-4.42,2,4.13,4.13,0,0,0-.44.09H66.77c-.09,0-.17-.09-.35-.09a22.37,22.37,0,0,1-4.42-2,15.24,15.24,0,0,1-4.59-4.86c-.36-.53-4.95-7.42-8.22-12.28.8-1.15,1.42-2.21,2-2.92,0,.09.09.09.09.18,3.36,5,9.28,13.87,9.63,14.49a12,12,0,0,0,6.72,4.77,30.13,30.13,0,0,0,3.79.7v2h.09V13.39a16,16,0,0,0-7.15,2.21ZM37.53,48.29c.35-.71,6.27-9.46,9.63-14.49C49.9,29.47,57,19.05,57.5,18.25a15.24,15.24,0,0,1,4.59-4.86,18.76,18.76,0,0,1,4.42-2,3.65,3.65,0,0,1,.44-.09H31.79c.09,0,.26.09.35.09a21.15,21.15,0,0,1,4.42,2,15.24,15.24,0,0,1,4.59,4.86c.36.53,5,7.42,8.22,12.28-.8,1.15-1.41,2.21-2,2.92,0-.09-.09-.09-.09-.18-3.45-5-9.37-13.78-9.72-14.49a11.79,11.79,0,0,0-3.36-3.27A12.21,12.21,0,0,0,30.82,14a20.35,20.35,0,0,0-3.8-.62V53.85a13.73,13.73,0,0,0,3.8-.7,12.06,12.06,0,0,0,3.35-1.51A13.35,13.35,0,0,0,37.53,48.29Zm167.32-25.8c-8.48,0-11.83,4.77-11.83,14.75C193,47.4,196.37,52,204.85,52s11.84-4.77,11.84-14.76S213.33,22.49,204.85,22.49Zm0,27.74c-8,0-9.63-5-9.63-12.81s1.59-12.81,9.63-12.81,9.63,5,9.63,12.81C214.48,45,212.8,50.14,204.85,50.23ZM237,22.49c-4.06.18-6.89,1.59-8.66,4.42v-4a18,18,0,0,0-2.21.44V51.73a14.9,14.9,0,0,0,2.21.44v-15c0-7.78,1.59-12.81,9.63-12.81h0Zm-120.77,0c-5.12,0-11.21,1.94-11.21,14.93,0,12,5.21,14.75,11.74,14.75A17.92,17.92,0,0,0,126,50L125.08,48a15.74,15.74,0,0,1-8.31,2.12c-5.12,0-9.18-1.85-9.54-11V38h19.88v-.8C127.11,26.2,123.05,22.49,116.24,22.49ZM107.06,36c.17-9.72,4.5-11.49,9.1-11.49,5,0,8.57,2.65,8.57,11.49ZM147.43,22.4h-1.24c-8.39,0-9.54,7.07-9.54,13.25V50.58A10.45,10.45,0,0,0,139,52V36.36c0-7,1.06-11.93,7.6-11.93h.53c6.62,0,7.59,4.86,7.59,11.93V52.09a12.73,12.73,0,0,0,2.3-1.42V35.83C157,29.47,155.73,22.4,147.43,22.4ZM176.23,36c-4.42-1.24-7.07-2.39-7.07-6,0-4.24,2.92-5.48,6.72-5.48a15.08,15.08,0,0,1,6.89,1.42l.88-2a17,17,0,0,0-7.77-1.5c-4.6,0-8.75,2.12-8.75,7.33s3.71,6.89,8.3,8.13c4.33,1.15,7.78,2.12,7.78,5.92,0,4.68-3.36,6.18-7.07,6.18a16.56,16.56,0,0,1-9-2.47l-1,1.86c2.83,1.94,6.27,2.56,10,2.56,4.86,0,9.19-2.21,9.19-8.13C185.24,38.57,181.09,37.42,176.23,36Z"/><path class="cls-4" d="M51.22,33.53c-.53.8-1.23,1.86-2,2.92C52.46,41.31,57,48.2,57.41,48.73A15.24,15.24,0,0,0,62,53.59a19.23,19.23,0,0,0,4.42,2,3.65,3.65,0,0,1,.44.09h4.59v-2A13.94,13.94,0,0,1,67.66,53a12.19,12.19,0,0,1-3.36-1.5,12.05,12.05,0,0,1-3.36-3.27c-.35-.71-6.27-9.45-9.63-14.49h0a.28.28,0,0,0-.09-.18M31.61,11.27H27v2.12a14,14,0,0,1,3.8.71,12.21,12.21,0,0,1,3.35,1.5,11.66,11.66,0,0,1,3.36,3.27c.35.62,6.27,9.36,9.63,14.49h0c0,.09.09.09.09.17.53-.79,1.24-1.85,2-2.91C46,25.76,41.51,18.87,41.06,18.34a15,15,0,0,0-4.59-4.86,18.76,18.76,0,0,0-4.42-2,.64.64,0,0,0-.44-.18"/></svg>