<?xml version="1.0" encoding="utf-8"?>
<!-- Generator: Adobe Illustrator 22.1.0, SVG Export Plug-In . SVG Version: 6.00 Build 0)  -->
<svg version="1.1" id="Calque_1" xmlns="http://www.w3.org/2000/svg" xmlns:xlink="http://www.w3.org/1999/xlink" x="0px" y="0px"
	 viewBox="0 0 221 66.4" style="enable-background:new 0 0 221 66.4;" xml:space="preserve">
<style type="text/css">
	.st0{fill:#171729;}
	.st1{fill:#7FD787;}
	.st2{opacity:0.28;fill:#7FD787;enable-background:new    ;}
</style>
<rect y="-0.2" class="st0" width="221" height="66.8"/>
<path class="st1" d="M73.8,24.8L73.8,24.8L73.8,24.8L73.8,24.8z M66.1,45.6c-0.5-1.1-0.7-2.3-0.7-3.5c0-0.8,0-17.4,0-17.4h8.4
	l-1.1-2.1h-7.3v-7.7H63v7.6h-7.4l-1.1,2.2H63c0,0,0,15.8,0,16.7c-0.1,1.8,0.2,3.6,0.8,5.1c0,0.1,0.7,1.5,1.8,2.9
	c0.6,0.6,1.7,1.6,3.2,2.7l1.1-2.2c-1.2-0.8-2-1.5-2.5-2C66.6,46.7,66.1,45.6,66.1,45.6z M39.2,14.6c-1.5,0.9-2.6,2.1-3.5,3.4
	c-0.4,0.7-6.6,9.9-10.1,15.2c-2.9,4.4-10.3,15.5-10.8,16.2c-1.2,2-2.9,3.8-4.8,5.1c0,0.1-2.1,1.3-4.6,2.1c-0.2,0-0.4,0.1-0.5,0.1
	h36.8c-0.1,0-0.2-0.1-0.4-0.1c-2.5-0.8-4.5-2-4.6-2.1c-1.9-1.3-3.6-3.1-4.8-5.1c-0.4-0.6-5.2-7.8-8.6-12.9c0.8-1.2,1.5-2.3,2.1-3.1
	c0,0.1,0.1,0.1,0.1,0.2c3.5,5.3,9.7,14.5,10.1,15.2c0.9,1.3,2,2.5,3.5,3.4c0,0,1.5,1,3.5,1.6c0.8,0.3,2.2,0.5,4,0.7v2.1h0.1V12.3
	c-1.8,0.2-3.2,0.4-4,0.7C40.7,13.6,39.2,14.6,39.2,14.6z M11,48.9c0.4-0.7,6.6-9.9,10.1-15.2c2.9-4.5,10.3-15.5,10.8-16.3
	c1.2-2,2.9-3.8,4.8-5.1c0-0.1,2.1-1.3,4.6-2.1c0.2,0,0.4-0.1,0.5-0.1H5c0.1,0,0.3,0.1,0.4,0.1c2.5,0.8,4.5,2,4.6,2.1
	c1.9,1.3,3.6,3.1,4.8,5.1c0.4,0.6,5.2,7.8,8.6,12.9c-0.8,1.2-1.5,2.3-2.1,3.1c0-0.1-0.1-0.1-0.1-0.2C17.6,28,11.4,18.7,11,18
	c-0.9-1.3-2-2.5-3.5-3.4c0,0-1.5-1-3.5-1.6c-0.8-0.3-2.2-0.5-4-0.7v42.4c1.8-0.2,3.2-0.4,4-0.7c2-0.6,3.5-1.6,3.5-1.6
	C9,51.3,10.2,50.2,11,48.9z M186.3,21.9c-8.9,0-12.4,5-12.4,15.5c0,10.6,3.5,15.5,12.4,15.5s12.4-5,12.4-15.5
	C198.7,26.8,195.2,21.9,186.3,21.9z M186.3,50.9c-8.4,0-10.1-5.3-10.1-13.4s1.7-13.4,10.1-13.4c8.4,0,10.1,5.3,10.1,13.4
	C196.4,45.5,194.7,50.8,186.3,50.9z M220,21.9c-4.3,0.2-7.2,1.7-9.1,4.6v-4.2c-0.8,0.1-1.6,0.3-2.3,0.5v29.7
	c0.7,0.2,1.5,0.4,2.3,0.5V37.3c0-8.1,1.7-13.4,10.1-13.4l0,0L220,21.9z M93.5,21.9c-5.4,0-11.8,2-11.8,15.6C81.7,50.1,87.2,53,94,53
	c3.7,0,6.9-0.7,9.6-2.3l-0.9-2c-2.8,1.6-5.4,2.2-8.7,2.2c-5.4,0-9.6-1.9-10-11.5v-1.2h20.8l0,0v-0.8
	C104.9,25.7,100.6,21.9,93.5,21.9z M83.9,36c0.2-10.2,4.7-12,9.5-12c5.3,0,9,2.8,9,12H83.9z M126.2,21.8h-1.3c-8.8,0-10,7.4-10,13.9
	v15.6c0.7,0.6,1.5,1.1,2.4,1.5V36.4c0-7.3,1.1-12.5,8-12.5h0.6c6.9,0,8,5.1,8,12.5v16.5c0.8-0.4,1.7-0.9,2.4-1.5V35.8
	C136.2,29.2,134.9,21.8,126.2,21.8z M156.3,36c-4.6-1.3-7.4-2.5-7.4-6.3c0-4.4,3.1-5.7,7-5.7c2.6,0,5,0.4,7.2,1.5l0.9-2
	c-2.6-1.3-5.4-1.6-8.1-1.6c-4.8,0-9.2,2.2-9.2,7.7s3.9,7.2,8.7,8.5c4.5,1.2,8.1,2.2,8.1,6.2c0,4.9-3.5,6.5-7.4,6.5
	c-3.5,0-6.9-0.9-9.4-2.6l-1,1.9c3,2,6.6,2.7,10.5,2.7c5.1,0,9.6-2.3,9.6-8.5C165.8,38.7,161.4,37.5,156.3,36z"/>
<path class="st2" d="M25.4,33.3c-0.6,0.8-1.3,1.9-2.1,3.1c3.4,5.1,8.1,12.3,8.6,12.9c1.2,2,2.9,3.8,4.8,5.1c0,0.1,2.1,1.3,4.6,2.1
	c0.2,0,0.4,0.1,0.5,0.1h4.8v-2.2c-1.8-0.2-3.2-0.4-4-0.7c-2-0.6-3.5-1.6-3.5-1.6c-1.5-0.9-2.6-2.1-3.5-3.4
	C35.2,48,29,38.8,25.5,33.5l0,0C25.5,33.5,25.5,33.4,25.4,33.3 M4.8,10H0v2.2c1.8,0.2,3.2,0.4,4,0.7c2,0.6,3.5,1.6,3.5,1.6
	c1.5,0.9,2.6,2.1,3.5,3.4c0.4,0.7,6.6,9.9,10.1,15.2l0,0c0,0.1,0.1,0.1,0.1,0.2c0.6-0.8,1.3-1.9,2.1-3.1c-3.4-5.1-8.1-12.3-8.6-12.9
	c-1.2-2-2.9-3.8-4.8-5.1c0-0.1-2.1-1.3-4.6-2.1C5.2,10.1,5,10,4.8,10"/>
</svg>
