<svg id="Calque_1" data-name="Calque 1" xmlns="http://www.w3.org/2000/svg" viewBox="0 0 265 97.52"><defs><style>.cls-1{fill:#171729;}.cls-2{fill:#666;}.cls-3,.cls-4{fill:#80d588;}.cls-4{opacity:0.28;isolation:isolate;}</style></defs><title>xtensor-python</title><rect class="cls-1" width="265" height="97.52"/><path class="cls-2" d="M184.09,66.31h0a7.13,7.13,0,0,0-3.8.88,5.54,5.54,0,0,0-1.14.89V82l1.76.61V76.29a5.54,5.54,0,0,0,3.18,1,3.84,3.84,0,0,0,3.18-1.67A6.06,6.06,0,0,0,188.33,72h0a7.08,7.08,0,0,0-1.06-4.06A3.55,3.55,0,0,0,184.09,66.31Zm-.35,9.81a5,5,0,0,1-2.83-.89V68.34a3.21,3.21,0,0,1,1-.53,4.86,4.86,0,0,1,2-.35c1.68.09,2.47,1.59,2.47,4.41S185.42,76,183.74,76.12Zm13.6-9.55h1.77v9.55a8.79,8.79,0,0,1-.62,4.06A3.81,3.81,0,0,1,196.2,82a10,10,0,0,1-2.92.61L193,81.42a13,13,0,0,0,2.2-.45A2.76,2.76,0,0,0,197,79.65a6.41,6.41,0,0,0,.35-2.74v-.44a9.4,9.4,0,0,1-3.79.79,3.61,3.61,0,0,1-2.3-.79,2.93,2.93,0,0,1-1.15-2.3V66.93l1.77-.62v7.33a2.28,2.28,0,0,0,.79,1.86,2.87,2.87,0,0,0,2,.62,4.68,4.68,0,0,0,2.56-1V66.57Zm6.63,0h1.94v1.15H204v6.89A1.77,1.77,0,0,0,204.5,76a2.1,2.1,0,0,0,1.41.35v.88h-.62a3.55,3.55,0,0,1-2.29-.7,2.47,2.47,0,0,1-.8-2V67.72H201V66.57h1.23V63.66L204,63v3.53Zm11.75.89a3.11,3.11,0,0,1,.88,2.29v7.34h-1.76V70.28a3.42,3.42,0,0,0-.45-1.76,1.85,1.85,0,0,0-1.59-.89,5.92,5.92,0,0,0-3,1.24V77H208V60.92l1.77-.53v7.42a6.5,6.5,0,0,1,3.71-1.24A2.67,2.67,0,0,1,215.72,67.46Zm7.33-1.15a4.32,4.32,0,0,0-3.53,1.59,5.37,5.37,0,0,0-1.24,3.71,6,6,0,0,0,1.15,3.89,4.6,4.6,0,0,0,7.24,0,6.36,6.36,0,0,0,1.24-3.89,5.67,5.67,0,0,0-1.24-3.71A4.74,4.74,0,0,0,223.05,66.31Zm0,9.89a2.49,2.49,0,0,1-2.3-1.5,6.28,6.28,0,0,1-.61-3c0-2.65,1-4.07,2.91-4.15a2.6,2.6,0,0,1,2.3,1.41A5.06,5.06,0,0,1,226,71.7Q226,76.2,223.05,76.2ZM238,69.05v8h-1.77V69.93a2.53,2.53,0,0,0-.7-1.85,2.59,2.59,0,0,0-1.86-.62,4.25,4.25,0,0,0-2.38.79v8.84H229.5v-9a7.67,7.67,0,0,1,2.83-1.42,11,11,0,0,1,2.12-.35,4.63,4.63,0,0,1,1.15.09,3.36,3.36,0,0,1,1.67.88A2.59,2.59,0,0,1,238,69.05Zm-78.71,2.56h5.3A2.66,2.66,0,0,0,167.22,69v-5a3,3,0,0,0-2.65-2.73,14,14,0,0,0-2.74-.18,22.85,22.85,0,0,0-2.56.18c-2.21.35-2.65,1.23-2.65,2.73v2h5.3v.7h-7.25a3.2,3.2,0,0,0-3.26,2.65,9.33,9.33,0,0,0,0,5.39c.35,1.59,1.23,2.65,2.82,2.65h1.86V75A3.2,3.2,0,0,1,159.27,71.61Zm-.36-7a1,1,0,1,1,1-1A1.05,1.05,0,0,1,158.91,64.63Zm11,1.94h-1.94V69a3.35,3.35,0,0,1-3.27,3.36h-5.3A2.71,2.71,0,0,0,156.71,75v5c0,1.42,1.23,2.3,2.65,2.65a8.34,8.34,0,0,0,5.3,0c1.32-.35,2.65-1.15,2.65-2.65V78H162v-.71h8c1.5,0,2.12-1.06,2.65-2.65a9.3,9.3,0,0,0,0-5.39C172.08,67.72,171.37,66.57,169.87,66.57Zm-5,12.81a1,1,0,1,1,0,2,1,1,0,0,1,0-2Z"/><path class="cls-3" d="M97.43,25.32ZM90.1,45.2a8.65,8.65,0,0,1-.71-3.36V25.23h8l-1.06-2h-7V15.87h-2.3v7.24H80L79,25.23h8.13v15.9a11,11,0,0,0,.8,4.86,16,16,0,0,0,1.68,2.74,24.47,24.47,0,0,0,3.09,2.56l1.06-2.12a12.52,12.52,0,0,1-2.39-1.94A12.33,12.33,0,0,1,90.1,45.2ZM64.39,15.6A11.66,11.66,0,0,0,61,18.87c-.35.62-6.27,9.36-9.54,14.49-2.83,4.15-9.9,14.75-10.34,15.46a15.24,15.24,0,0,1-4.59,4.86,19.72,19.72,0,0,1-4.42,2,4.13,4.13,0,0,0-.44.09H66.77c-.09,0-.17-.09-.35-.09a22.37,22.37,0,0,1-4.42-2,15.24,15.24,0,0,1-4.59-4.86c-.36-.53-4.95-7.42-8.22-12.28.8-1.15,1.42-2.21,2-2.92,0,.09.09.09.09.18,3.36,5,9.28,13.87,9.63,14.49a12,12,0,0,0,6.72,4.77,30.13,30.13,0,0,0,3.79.7v2h.09V13.39a16,16,0,0,0-7.15,2.21ZM37.53,48.29c.35-.71,6.27-9.46,9.63-14.49C49.9,29.47,57,19.05,57.5,18.25a15.24,15.24,0,0,1,4.59-4.86,18.76,18.76,0,0,1,4.42-2,3.65,3.65,0,0,1,.44-.09H31.79c.09,0,.26.09.35.09a21.15,21.15,0,0,1,4.42,2,15.24,15.24,0,0,1,4.59,4.86c.36.53,5,7.42,8.22,12.28-.8,1.15-1.41,2.21-2,2.92,0-.09-.09-.09-.09-.18-3.45-5-9.37-13.78-9.72-14.49a11.79,11.79,0,0,0-3.36-3.27A12.21,12.21,0,0,0,30.82,14a20.35,20.35,0,0,0-3.8-.62V53.85a13.73,13.73,0,0,0,3.8-.7,12.06,12.06,0,0,0,3.35-1.51A13.35,13.35,0,0,0,37.53,48.29Zm167.32-25.8c-8.48,0-11.83,4.77-11.83,14.75C193,47.4,196.37,52,204.85,52s11.84-4.77,11.84-14.76S213.33,22.49,204.85,22.49Zm0,27.74c-8,0-9.63-5-9.63-12.81s1.59-12.81,9.63-12.81,9.63,5,9.63,12.81C214.48,45,212.8,50.14,204.85,50.23ZM237,22.49c-4.06.18-6.89,1.59-8.66,4.42v-4a18,18,0,0,0-2.21.44V51.73a14.9,14.9,0,0,0,2.21.44v-15c0-7.78,1.59-12.81,9.63-12.81h0Zm-120.77,0c-5.12,0-11.21,1.94-11.21,14.93,0,12,5.21,14.75,11.74,14.75A17.92,17.92,0,0,0,126,50L125.08,48a15.74,15.74,0,0,1-8.31,2.12c-5.12,0-9.18-1.85-9.54-11V38h19.88v-.8C127.11,26.2,123.05,22.49,116.24,22.49ZM107.06,36c.17-9.72,4.5-11.49,9.1-11.49,5,0,8.57,2.65,8.57,11.49ZM147.43,22.4h-1.24c-8.39,0-9.54,7.07-9.54,13.25V50.58A10.45,10.45,0,0,0,139,52V36.36c0-7,1.06-11.93,7.6-11.93h.53c6.62,0,7.59,4.86,7.59,11.93V52.09a12.73,12.73,0,0,0,2.3-1.42V35.83C157,29.47,155.73,22.4,147.43,22.4ZM176.23,36c-4.42-1.24-7.07-2.39-7.07-6,0-4.24,2.92-5.48,6.72-5.48a15.08,15.08,0,0,1,6.89,1.42l.88-2a17,17,0,0,0-7.77-1.5c-4.6,0-8.75,2.12-8.75,7.33s3.71,6.89,8.3,8.13c4.33,1.15,7.78,2.12,7.78,5.92,0,4.68-3.36,6.18-7.07,6.18a16.56,16.56,0,0,1-9-2.47l-1,1.86c2.83,1.94,6.27,2.56,10,2.56,4.86,0,9.19-2.21,9.19-8.13C185.24,38.57,181.09,37.42,176.23,36Z"/><path class="cls-4" d="M51.22,33.53c-.53.8-1.23,1.86-2,2.92C52.46,41.31,57,48.2,57.41,48.73A15.24,15.24,0,0,0,62,53.59a19.23,19.23,0,0,0,4.42,2,3.65,3.65,0,0,1,.44.09h4.59v-2A13.94,13.94,0,0,1,67.66,53a12.19,12.19,0,0,1-3.36-1.5,12.05,12.05,0,0,1-3.36-3.27c-.35-.71-6.27-9.45-9.63-14.49h0a.28.28,0,0,0-.09-.18M31.61,11.27H27v2.12a14,14,0,0,1,3.8.71,12.21,12.21,0,0,1,3.35,1.5,11.66,11.66,0,0,1,3.36,3.27c.35.62,6.27,9.36,9.63,14.49h0c0,.09.09.09.09.17.53-.79,1.24-1.85,2-2.91C46,25.76,41.51,18.87,41.06,18.34a15,15,0,0,0-4.59-4.86,18.76,18.76,0,0,0-4.42-2,.64.64,0,0,0-.44-.18"/></svg>