<svg id="Calque_1" data-name="Calque 1" xmlns="http://www.w3.org/2000/svg" viewBox="0 0 265 97.52"><defs><style>.cls-1{fill:#171729;}.cls-2{fill:gray;opacity:0.2;}.cls-2,.cls-5{isolation:isolate;}.cls-3{fill:#666;}.cls-4,.cls-5{fill:#80d588;}.cls-5{opacity:0.28;}</style></defs><title>xtensor-r</title><rect class="cls-1" width="265" height="97.52"/><path id="path16" class="cls-2" d="M222,78.77c-9.89,0-17.84-5.39-17.84-11.93s8-11.93,17.84-11.93,17.85,5.39,17.85,11.93S231.89,78.77,222,78.77Zm2.74-19.26c-7.51,0-13.6,3.62-13.6,8.21s6.09,8.22,13.6,8.22,13.07-2.48,13.07-8.22-5.56-8.21-13.07-8.21Z"/><path id="path18" class="cls-3" d="M231.36,73.38s1.06.35,1.67.61a4.41,4.41,0,0,1,.89.62,1.62,1.62,0,0,1,.35.53l4.24,7.16h-6.89l-3.18-6a6.83,6.83,0,0,0-1.06-1.5c-.35-.27-.44-.35-.79-.35h-1.68V82.3h-6.1v-20h12.28s5.57.08,5.57,5.38-5.3,5.75-5.3,5.75Zm-2.65-6.72H225v3.45h3.72a1.67,1.67,0,0,0,1.67-1.77,1.57,1.57,0,0,0-1.67-1.68Z"/><path class="cls-4" d="M95.57,25.32ZM88.24,45.2a8.88,8.88,0,0,1-.71-3.36V25.23h8l-1.06-2h-7V15.87H85.24v7.24H78.17l-1.06,2.12h8.13v15.9A11,11,0,0,0,86,46a16.74,16.74,0,0,0,1.68,2.74,24.47,24.47,0,0,0,3.09,2.56l1.06-2.12a12.38,12.38,0,0,1-2.38-1.94A12,12,0,0,1,88.24,45.2ZM62.53,15.6a11.92,11.92,0,0,0-3.36,3.27c-.35.62-6.27,9.36-9.54,14.49-2.82,4.15-9.89,14.75-10.33,15.46a15.16,15.16,0,0,1-4.6,4.86,19.78,19.78,0,0,1-4.41,2,3.9,3.9,0,0,0-.45.09H64.92c-.09,0-.18-.09-.36-.09a22.13,22.13,0,0,1-4.41-2,15.16,15.16,0,0,1-4.6-4.86c-.35-.53-4.94-7.42-8.21-12.28.79-1.15,1.41-2.21,2-2.92,0,.09.09.09.09.18,3.35,5,9.27,13.87,9.63,14.49a12,12,0,0,0,3.35,3.27,12.37,12.37,0,0,0,3.36,1.5,30.37,30.37,0,0,0,3.8.7v2h.09V13.39a13.65,13.65,0,0,0-3.8.71A14,14,0,0,0,62.53,15.6ZM35.68,48.29C36,47.58,42,38.83,45.3,33.8,48,29.47,55.11,19.05,55.64,18.25a15.24,15.24,0,0,1,4.59-4.86,19,19,0,0,1,4.42-2,4.13,4.13,0,0,1,.44-.09H29.93c.09,0,.27.09.36.09a20.92,20.92,0,0,1,4.41,2,15.16,15.16,0,0,1,4.6,4.86c.35.53,4.94,7.42,8.21,12.28-.79,1.15-1.41,2.21-2,2.92,0-.09-.09-.09-.09-.18C42,28.32,36,19.49,35.68,18.78a12.05,12.05,0,0,0-3.36-3.27A12.19,12.19,0,0,0,29,14a19.54,19.54,0,0,0-3.8-.62V53.85a13.73,13.73,0,0,0,3.8-.7,12,12,0,0,0,3.36-1.51A13.69,13.69,0,0,0,35.68,48.29ZM203,22.49c-8.48,0-11.84,4.77-11.84,14.75C191.16,47.4,194.52,52,203,52s11.84-4.77,11.84-14.76S211.48,22.49,203,22.49Zm0,27.74c-8,0-9.63-5-9.63-12.81S195,24.61,203,24.61s9.63,5,9.63,12.81C212.63,45,211,50.14,203,50.23Zm32.15-27.74c-4.06.18-6.89,1.59-8.65,4.42v-4a17.28,17.28,0,0,0-2.21.44V51.73a14.4,14.4,0,0,0,2.21.44v-15c0-7.78,1.59-12.81,9.63-12.81h0Zm-120.76,0c-5.12,0-11.22,1.94-11.22,14.93,0,12,5.21,14.75,11.75,14.75a18,18,0,0,0,9.19-2.2L123.22,48a15.73,15.73,0,0,1-8.3,2.12c-5.12,0-9.19-1.85-9.54-11V38h19.88v-.8C125.26,26.2,121.19,22.49,114.39,22.49ZM105.2,36c.18-9.72,4.51-11.49,9.1-11.49,5,0,8.57,2.65,8.57,11.49ZM145.57,22.4h-1.23c-8.39,0-9.54,7.07-9.54,13.25V50.58A10.15,10.15,0,0,0,137.09,52V36.36c0-7,1.06-11.93,7.6-11.93h.53c6.63,0,7.6,4.86,7.6,11.93V52.09a13.08,13.08,0,0,0,2.3-1.42V35.83C155.12,29.47,153.88,22.4,145.57,22.4ZM174.37,36c-4.41-1.24-7.06-2.39-7.06-6,0-4.24,2.91-5.48,6.71-5.48a15.08,15.08,0,0,1,6.89,1.42l.89-2a17.11,17.11,0,0,0-7.78-1.5c-4.59,0-8.75,2.12-8.75,7.33S169,36.71,173.58,38c4.33,1.15,7.77,2.12,7.77,5.92,0,4.68-3.35,6.18-7.06,6.18a16.6,16.6,0,0,1-9-2.47l-1,1.86c2.83,1.94,6.28,2.56,10,2.56,4.85,0,9.18-2.21,9.18-8.13C183.39,38.57,179.23,37.42,174.37,36Z"/><path class="cls-5" d="M49.37,33.53c-.53.8-1.24,1.86-2,2.92,3.27,4.86,7.77,11.75,8.21,12.28a15.16,15.16,0,0,0,4.6,4.86,19.28,19.28,0,0,0,4.41,2,3.9,3.9,0,0,1,.45.09H69.6v-2A14,14,0,0,1,65.8,53a12.37,12.37,0,0,1-3.36-1.5,11.88,11.88,0,0,1-3.35-3.27c-.36-.71-6.28-9.45-9.63-14.49h0a.28.28,0,0,0-.09-.18M29.76,11.27h-4.6v2.12a13.65,13.65,0,0,1,3.8.71,12.19,12.19,0,0,1,3.36,1.5,11.92,11.92,0,0,1,3.36,3.27c.35.62,6.27,9.36,9.62,14.49h0c0,.09.09.09.09.17.53-.79,1.24-1.85,2-2.91-3.27-4.86-7.78-11.75-8.22-12.28a15.24,15.24,0,0,0-4.59-4.86,19,19,0,0,0-4.42-2,.68.68,0,0,0-.44-.18"/></svg>