<svg id="Calque_1" data-name="Calque 1" xmlns="http://www.w3.org/2000/svg" viewBox="0 0 265 97.52"><defs><style>.cls-1{fill:#171729;}.cls-2,.cls-3{fill:#80d588;}.cls-3{opacity:0.28;isolation:isolate;}.cls-4{fill:#666;}.cls-5{fill:#b8b9b9;}</style></defs><title>xtensor-julia</title><rect class="cls-1" width="265" height="97.52"/><path class="cls-2" d="M97.43,25.32ZM90.1,45.2a8.65,8.65,0,0,1-.71-3.36V25.23h8l-1.06-2h-7V15.87h-2.3v7.24H80L79,25.23h8.13v15.9a11,11,0,0,0,.8,4.86,16,16,0,0,0,1.68,2.74,24.47,24.47,0,0,0,3.09,2.56l1.06-2.12a12.52,12.52,0,0,1-2.39-1.94A12.33,12.33,0,0,1,90.1,45.2ZM64.39,15.6A11.66,11.66,0,0,0,61,18.87c-.35.62-6.27,9.36-9.54,14.49-2.83,4.15-9.9,14.75-10.34,15.46a15.24,15.24,0,0,1-4.59,4.86,19.72,19.72,0,0,1-4.42,2,4.13,4.13,0,0,0-.44.09H66.77c-.09,0-.17-.09-.35-.09a22.37,22.37,0,0,1-4.42-2,15.24,15.24,0,0,1-4.59-4.86c-.36-.53-4.95-7.42-8.22-12.28.8-1.15,1.42-2.21,2-2.92,0,.09.09.09.09.18,3.36,5,9.28,13.87,9.63,14.49a12,12,0,0,0,6.72,4.77,30.13,30.13,0,0,0,3.79.7v2h.09V13.39a16,16,0,0,0-7.15,2.21ZM37.53,48.29c.35-.71,6.27-9.46,9.63-14.49C49.9,29.47,57,19.05,57.5,18.25a15.24,15.24,0,0,1,4.59-4.86,18.76,18.76,0,0,1,4.42-2,3.65,3.65,0,0,1,.44-.09H31.79c.09,0,.26.09.35.09a21.15,21.15,0,0,1,4.42,2,15.24,15.24,0,0,1,4.59,4.86c.36.53,5,7.42,8.22,12.28-.8,1.15-1.41,2.21-2,2.92,0-.09-.09-.09-.09-.18-3.45-5-9.37-13.78-9.72-14.49a11.79,11.79,0,0,0-3.36-3.27A12.21,12.21,0,0,0,30.82,14a20.35,20.35,0,0,0-3.8-.62V53.85a13.73,13.73,0,0,0,3.8-.7,12.06,12.06,0,0,0,3.35-1.51A13.35,13.35,0,0,0,37.53,48.29Zm167.32-25.8c-8.48,0-11.83,4.77-11.83,14.75C193,47.4,196.37,52,204.85,52s11.84-4.77,11.84-14.76S213.33,22.49,204.85,22.49Zm0,27.74c-8,0-9.63-5-9.63-12.81s1.59-12.81,9.63-12.81,9.63,5,9.63,12.81C214.48,45,212.8,50.14,204.85,50.23ZM237,22.49c-4.06.18-6.89,1.59-8.66,4.42v-4a18,18,0,0,0-2.21.44V51.73a14.9,14.9,0,0,0,2.21.44v-15c0-7.78,1.59-12.81,9.63-12.81h0Zm-120.77,0c-5.12,0-11.21,1.94-11.21,14.93,0,12,5.21,14.75,11.74,14.75A17.92,17.92,0,0,0,126,50L125.08,48a15.74,15.74,0,0,1-8.31,2.12c-5.12,0-9.18-1.85-9.54-11V38h19.88v-.8C127.11,26.2,123.05,22.49,116.24,22.49ZM107.06,36c.17-9.72,4.5-11.49,9.1-11.49,5,0,8.57,2.65,8.57,11.49ZM147.43,22.4h-1.24c-8.39,0-9.54,7.07-9.54,13.25V50.58A10.45,10.45,0,0,0,139,52V36.36c0-7,1.06-11.93,7.6-11.93h.53c6.62,0,7.59,4.86,7.59,11.93V52.09a12.73,12.73,0,0,0,2.3-1.42V35.83C157,29.47,155.73,22.4,147.43,22.4ZM176.23,36c-4.42-1.24-7.07-2.39-7.07-6,0-4.24,2.92-5.48,6.72-5.48a15.08,15.08,0,0,1,6.89,1.42l.88-2a17,17,0,0,0-7.77-1.5c-4.6,0-8.75,2.12-8.75,7.33s3.71,6.89,8.3,8.13c4.33,1.15,7.78,2.12,7.78,5.92,0,4.68-3.36,6.18-7.07,6.18a16.56,16.56,0,0,1-9-2.47l-1,1.86c2.83,1.94,6.27,2.56,10,2.56,4.86,0,9.19-2.21,9.19-8.13C185.24,38.57,181.09,37.42,176.23,36Z"/><path class="cls-3" d="M51.22,33.53c-.53.8-1.23,1.86-2,2.92C52.46,41.31,57,48.2,57.41,48.73A15.24,15.24,0,0,0,62,53.59a19.23,19.23,0,0,0,4.42,2,3.65,3.65,0,0,1,.44.09h4.59v-2A13.94,13.94,0,0,1,67.66,53a12.19,12.19,0,0,1-3.36-1.5,12.05,12.05,0,0,1-3.36-3.27c-.35-.71-6.27-9.45-9.63-14.49h0a.28.28,0,0,0-.09-.18M31.61,11.27H27v2.12a14,14,0,0,1,3.8.71,12.21,12.21,0,0,1,3.35,1.5,11.66,11.66,0,0,1,3.36,3.27c.35.62,6.27,9.36,9.63,14.49h0c0,.09.09.09.09.17.53-.79,1.24-1.85,2-2.91C46,25.76,41.51,18.87,41.06,18.34a15,15,0,0,0-4.59-4.86,18.76,18.76,0,0,0-4.42-2,.64.64,0,0,0-.44-.18"/><path class="cls-4" d="M192.75,87.25h0a12.25,12.25,0,0,1-.44,3.44,5.82,5.82,0,0,1-1.33,2,5.73,5.73,0,0,1-2.12,1,13.49,13.49,0,0,1-2.74.26,6,6,0,0,1-3.09-.62,1.89,1.89,0,0,1-1.06-1.5,1.45,1.45,0,0,1,.62-1.24,2.48,2.48,0,0,1,1.59-.53,1.92,1.92,0,0,1,1.24.45l.79.79c.27.27.44.53.53.62s.27.18.44.18.45-.18.62-.45a4.83,4.83,0,0,0,.18-1.85V72.14l4.86-1.33V87.25Zm11.66-4.51a4.94,4.94,0,0,1-1.32,1.41,2.3,2.3,0,0,1-1.33.53,2.55,2.55,0,0,1-.88-.17,2,2,0,0,1-.71-.44,5.46,5.46,0,0,1-.53-.71,2.59,2.59,0,0,1-.18-.88V71.26h-4.85V82.48a4.75,4.75,0,0,0,.44,1.94A4.22,4.22,0,0,0,196.28,86a6,6,0,0,0,1.77,1.06,6.21,6.21,0,0,0,2.21.35,4.62,4.62,0,0,0,2.12-.53,9.81,9.81,0,0,0,2-1.32v1.68h4.86V71.34h-4.86v11.4Zm6.8,4.51H216V63.57l-4.77,1.33Zm6.72,0h4.86V70.81l-4.86,1.33Zm19.88-11.93V87.25H233V86a5.4,5.4,0,0,1-.8.62,9.26,9.26,0,0,1-.88.53,5.71,5.71,0,0,1-1.06.35,6.68,6.68,0,0,1-1.42.09,4.57,4.57,0,0,1-1.94-.35,4.15,4.15,0,0,1-1.5-.89,3.6,3.6,0,0,1-1-1.32,5.08,5.08,0,0,1-.36-1.68,3.53,3.53,0,0,1,.36-1.68,3.6,3.6,0,0,1,1-1.32,16.71,16.71,0,0,1,1.41-1.06,10.85,10.85,0,0,1,1.77-.89,12.7,12.7,0,0,1,1.94-.7c.71-.18,1.33-.45,1.95-.62L233,77V75.41a2.65,2.65,0,0,0-.62-2.12,2.49,2.49,0,0,0-3.18-.09,2.15,2.15,0,0,0-.44,1.33,3,3,0,0,1-.09.88,1.83,1.83,0,0,1-.36.71,2.53,2.53,0,0,1-.7.53,3.6,3.6,0,0,1-1.06.17,2.17,2.17,0,0,1-1.68-.62,1.82,1.82,0,0,1-.62-1.5,2.41,2.41,0,0,1,.53-1.5,5.43,5.43,0,0,1,1.5-1.24,8.13,8.13,0,0,1,2.21-.79,12.06,12.06,0,0,1,2.65-.27,13.5,13.5,0,0,1,2.92.27,6.11,6.11,0,0,1,2,.88,3,3,0,0,1,1.15,1.42A2.37,2.37,0,0,1,237.81,75.32ZM233,79a9.9,9.9,0,0,0-1.42.71,11.21,11.21,0,0,0-1.32.88,8.87,8.87,0,0,0-1,1,1.7,1.7,0,0,0-.36,1.06,3,3,0,0,0,.09.89,1.84,1.84,0,0,0,.35.7c.18.18.27.36.45.44a1.2,1.2,0,0,0,.53.18,2.44,2.44,0,0,0,1.23-.35,11.42,11.42,0,0,0,1.33-.89V79Z"/><path class="cls-5" d="M223.94,66.66a3.27,3.27,0,1,1-3.27-3.27A3.26,3.26,0,0,1,223.94,66.66Zm-33.66-3.27a3.27,3.27,0,0,0,0,6.54,3.21,3.21,0,0,0,3.27-3.27A3.27,3.27,0,0,0,190.28,63.39Zm37.54-3.53a3.27,3.27,0,1,0-6.54,0,3.21,3.21,0,0,0,3.27,3.27A3.26,3.26,0,0,0,227.82,59.86Zm.71,3.53a3.27,3.27,0,1,0,3.27,3.27A3.26,3.26,0,0,0,228.53,63.39Z"/></svg>