<svg id="Calque_1" data-name="Calque 1" xmlns="http://www.w3.org/2000/svg" viewBox="0 0 265 97.52"><defs><style>.cls-1{fill:#171729;}.cls-2,.cls-3{fill:#e93f67;}.cls-3{opacity:0.28;isolation:isolate;}</style></defs><title>xthreejs</title><rect class="cls-1" width="265" height="97.52"/><path class="cls-2" d="M132.21,27V23a15.79,15.79,0,0,0-2.2.48V51.88a13.36,13.36,0,0,0,2.2.48V37.45c0-7.75,1.63-12.81,9.66-12.81h0l-1.05-1.91C136.71,22.82,133.93,24.25,132.21,27ZM78.58,44.62a8,8,0,0,1-.67-3.35V24.64h8l-1-2h-7V15.27h-2.2v7.26H68.64l-1.15,2.11h8.13v16a11.66,11.66,0,0,0,.76,4.88,13.19,13.19,0,0,0,1.72,2.77,28.6,28.6,0,0,0,3.06,2.58l1-2.1a17.07,17.07,0,0,1-2.39-1.91A12.42,12.42,0,0,1,78.58,44.62Zm7.36-19.89v-.09h-.09ZM241,36.21c-4.4-1.25-7.08-2.39-7.08-6,0-4.2,2.87-5.45,6.7-5.45a15.1,15.1,0,0,1,6.88,1.44l.86-1.92a17,17,0,0,0-7.74-1.52c-4.59,0-8.8,2.1-8.8,7.36s3.73,7,8.32,8.12c4.3,1.15,7.74,2.11,7.74,5.93,0,4.68-3.34,6.21-7.07,6.21a16.27,16.27,0,0,1-9-2.48l-1,1.82a17.73,17.73,0,0,0,10,2.58c4.88,0,9.18-2.2,9.18-8.13C250,38.79,245.88,37.54,241,36.21ZM160.13,22.63c-5.16,0-11.28,1.91-11.28,14.91,0,12.05,5.26,14.82,11.76,14.82a17.63,17.63,0,0,0,9.17-2.2l-.86-1.91a15.6,15.6,0,0,1-8.31,2.1c-5.17,0-9.18-1.81-9.56-11V38.21h19.88v-.76C170.93,26.26,166.82,22.63,160.13,22.63ZM151,36.11c.19-9.75,4.49-11.47,9.08-11.47,5.07,0,8.61,2.67,8.61,11.47Zm40.73,14.15c-5.16,0-9.18-1.82-9.56-11V38.12H202v-.77c0-11.18-4.11-14.91-10.8-14.91-5.16,0-11.28,1.91-11.28,14.91,0,12,5.26,14.82,11.76,14.82a17.69,17.69,0,0,0,9.18-2.2L200,48.06A14.68,14.68,0,0,1,191.68,50.26Zm-.48-25.62c5.07,0,8.6,2.67,8.6,11.47H182.12C182.21,26.45,186.52,24.64,191.2,24.64Zm26-8.22h2.3v2.39h-2.3ZM107.45,22.53h-1.24c-3.63,0-5.93,1.34-7.27,3.35V10.77l-2.2.39V50.83A9.42,9.42,0,0,0,99,52.27V36.59c0-7,1-12,7.65-12h.57c6.6,0,7.65,4.87,7.65,12V52.36a11.67,11.67,0,0,0,2.29-1.43v-15C116.92,29.61,115.77,22.53,107.45,22.53ZM217.3,51.12c0,4.87-1.91,8.32-7.55,8.32a16.16,16.16,0,0,1-7-1.53l-.77,2a18.37,18.37,0,0,0,7.94,1.53c6.69,0,9.56-4,9.56-10.23V22.82h-2.2Z"/><g id="Calque_2" data-name="Calque 2"><g id="Calque_1-2" data-name="Calque 1-2"><path class="cls-2" d="M52.39,15.08A10.83,10.83,0,0,0,49,18.33c-.38.67-6.31,9.56-9.66,14.53-2.77,4.21-9.84,14.82-10.32,15.49a15.94,15.94,0,0,1-4.59,4.87,18.45,18.45,0,0,1-4.4,2l-.48.1H54.78l-.29-.1a17.76,17.76,0,0,1-4.3-2,14.73,14.73,0,0,1-4.59-4.87L37.38,36c.76-1.14,1.43-2.19,2-3,0,.1.1.1.1.19,3.35,5.07,9.27,14,9.65,14.53A10.94,10.94,0,0,0,52.48,51a14.86,14.86,0,0,0,3.35,1.53,17.78,17.78,0,0,0,3.92.67h0V12.88a23.75,23.75,0,0,0-3.83.67A13,13,0,0,0,52.39,15.08Zm-27,32.79c.38-.67,6.31-9.56,9.65-14.53C37.85,29,44.93,18.52,45.41,17.75A15.82,15.82,0,0,1,50,12.88a19.29,19.29,0,0,1,4.3-2l.57-.1H19.69l.38.1a17.59,17.59,0,0,1,4.3,2A14.73,14.73,0,0,1,29,17.75l8.22,12.34c-.76,1.14-1.43,2.2-2,3,0-.1-.1-.1-.1-.19-3.34-5-9.27-13.86-9.65-14.53a10.83,10.83,0,0,0-3.35-3.25,14.86,14.86,0,0,0-3.35-1.53,16.61,16.61,0,0,0-3.82-.67V53.41a23.44,23.44,0,0,0,3.82-.67,14.86,14.86,0,0,0,3.35-1.53A13.8,13.8,0,0,0,25.43,47.87Z"/><path class="cls-3" d="M39.19,33.05c-.57.77-1.24,1.91-2,3,3.26,4.88,7.75,11.76,8.23,12.34A15.82,15.82,0,0,0,50,53.22a19.29,19.29,0,0,0,4.3,2l.48.1h4.78V53.22a24.67,24.67,0,0,1-3.92-.67A14.86,14.86,0,0,1,52.29,51a10.83,10.83,0,0,1-3.35-3.25c-.38-.67-6.31-9.56-9.65-14.53h0a.3.3,0,0,0-.1-.19M19.88,10.77h-5v2.11a23.44,23.44,0,0,1,3.82.67,14.86,14.86,0,0,1,3.35,1.53,10.83,10.83,0,0,1,3.35,3.25c.38.67,6.31,9.56,9.65,14.53h0c0,.09.1.09.1.19.57-.76,1.24-1.91,2-3C33.93,25.21,29.44,18.33,29,17.75a17,17,0,0,0-4.59-4.87,16.92,16.92,0,0,0-4.2-2l-.29-.1"/></g></g></svg>