<?xml version="1.0" encoding="utf-8"?>
<!-- Generator: Adobe Illustrator 22.1.0, SVG Export Plug-In . SVG Version: 6.00 Build 0)  -->
<svg version="1.1" id="Calque_1" xmlns="http://www.w3.org/2000/svg" xmlns:xlink="http://www.w3.org/1999/xlink" x="0px" y="0px"
	 viewBox="0 0 245.9 66.4" style="enable-background:new 0 0 245.9 66.4;" xml:space="preserve">
<style type="text/css">
	.st0{fill:#171729;}
	.st1{fill:#EA3F67;}
	.st2{opacity:0.28;fill:#EA3F67;enable-background:new    ;}
</style>
<rect y="-0.2" class="st0" width="246" height="66.8"/>
<path class="st1" d="M122.7,27.1v-4.2c-0.8,0.1-1.6,0.3-2.3,0.5v29.7c0.7,0.2,1.5,0.4,2.3,0.5V38c0-8.1,1.7-13.4,10.1-13.4l0,0
	l-1.1-2C127.4,22.7,124.5,24.2,122.7,27.1z M66.6,45.5c-0.5-1.1-0.7-2.3-0.7-3.5c0-0.8,0-17.4,0-17.4h8.4l-1.1-2.1h-7.3v-7.7h-2.3
	v7.6h-7.4L55,24.6h8.5c0,0,0,15.8,0,16.7c-0.1,1.8,0.2,3.6,0.8,5.1c0,0.1,0.7,1.5,1.8,2.9c0.6,0.6,1.7,1.6,3.2,2.7l1.1-2.2
	c-1.2-0.8-2-1.5-2.5-2C67.1,46.7,66.6,45.5,66.6,45.5z M74.3,24.7v-0.1h-0.1L74.3,24.7z M236.5,36.7c-4.6-1.3-7.4-2.5-7.4-6.3
	c0-4.4,3-5.7,7-5.7c2.6,0,5,0.4,7.2,1.5l0.9-2c-2.6-1.3-5.4-1.6-8.1-1.6c-4.8,0-9.2,2.2-9.2,7.7c0,5.6,3.9,7.3,8.7,8.5
	c4.5,1.2,8.1,2.2,8.1,6.2c0,4.9-3.5,6.5-7.4,6.5c-3.5,0-6.9-0.9-9.4-2.6l-1,1.9c3,2,6.6,2.7,10.5,2.7c5.1,0,9.6-2.3,9.6-8.5
	C245.9,39.4,241.6,38.1,236.5,36.7z M151.9,22.5c-5.4,0-11.8,2-11.8,15.6c0,12.6,5.5,15.5,12.3,15.5c3.7,0,6.9-0.7,9.6-2.3l-0.9-2
	c-2.8,1.6-5.4,2.2-8.7,2.2c-5.4,0-9.6-1.9-10-11.5v-1.2h20.8l0,0V38C163.2,26.3,158.9,22.5,151.9,22.5z M142.3,36.6
	c0.2-10.2,4.7-12,9.5-12c5.3,0,9,2.8,9,12H142.3z M184.9,51.4c-5.4,0-9.6-1.9-10-11.5v-1.2h20.8l0,0v-0.8c0-11.7-4.3-15.6-11.3-15.6
	c-5.4,0-11.8,2-11.8,15.6c0,12.6,5.5,15.5,12.3,15.5c3.7,0,6.9-0.7,9.6-2.3l-0.9-2C190.9,50.8,188.2,51.4,184.9,51.4z M184.4,24.6
	c5.3,0,9,2.8,9,12h-18.5C175,26.5,179.5,24.6,184.4,24.6z M211.6,16h2.4v2.5h-2.4V16z M96.8,22.4h-1.3c-3.8,0-6.2,1.4-7.6,3.5V10.1
	l-2.3,0.4v25.9v5.5V52c0.7,0.6,1.5,1.1,2.4,1.5V37.1c0-7.3,1.1-12.5,8-12.5h0.6c6.9,0,8,5.1,8,12.5v16.5c0.8-0.4,1.7-0.9,2.4-1.5
	V36.4C106.7,29.8,105.5,22.4,96.8,22.4z M211.7,52.3c0,5.1-2,8.7-7.9,8.7c-2.5,0-5-0.5-7.3-1.6l-0.8,2.1c2.5,1.2,5.4,1.6,8.3,1.6
	c7,0,10-4.2,10-10.7V22.7h-2.3V52.3z"/>
<g id="Calque_2_1_">
	<g id="Calque_1-2">
		<path class="st1" d="M39.2,14.6c-1.4,0.9-2.6,2-3.5,3.4c-0.4,0.7-6.6,10-10.1,15.2c-2.9,4.4-10.3,15.5-10.8,16.2
			c-1.2,2-2.9,3.8-4.8,5.1c-1.4,0.9-3,1.6-4.6,2.1l-0.5,0.1h36.8l-0.3-0.1c-1.6-0.5-3.1-1.2-4.5-2.1c-2-1.3-3.6-3.1-4.8-5.1
			c-0.4-0.6-5.2-7.8-8.6-12.9c0.8-1.2,1.5-2.3,2.1-3.1c0,0.1,0.1,0.1,0.1,0.2c3.5,5.3,9.7,14.6,10.1,15.2c0.9,1.4,2.1,2.5,3.5,3.4
			c1.1,0.7,2.3,1.2,3.5,1.6c1.3,0.4,2.8,0.6,4.1,0.7l0,0l0,0V12.3c-1.4,0.1-2.7,0.4-4,0.7C41.5,13.4,40.3,13.9,39.2,14.6z M11,48.9
			c0.4-0.7,6.6-10,10.1-15.2c2.9-4.5,10.3-15.5,10.8-16.3c1.2-2,2.9-3.8,4.8-5.1c1.4-0.9,3-1.6,4.5-2.1l0.6-0.1H5l0.4,0.1
			c1.6,0.5,3.1,1.2,4.5,2.1c2,1.3,3.6,3.1,4.8,5.1c0.4,0.6,5.2,7.8,8.6,12.9c-0.8,1.2-1.5,2.3-2.1,3.1c0-0.1-0.1-0.1-0.1-0.2
			C17.6,28,11.4,18.7,11,18c-0.9-1.4-2.1-2.5-3.5-3.4C6.4,13.9,5.2,13.4,4,13c-1.3-0.4-2.6-0.6-4-0.7v42.4c1.4-0.1,2.7-0.4,4-0.7
			c1.2-0.4,2.4-0.9,3.5-1.6C8.9,51.4,10.1,50.2,11,48.9z"/>
		<path class="st2" d="M25.4,33.4c-0.6,0.8-1.3,2-2.1,3.1c3.4,5.1,8.1,12.3,8.6,12.9c1.2,2,2.9,3.8,4.8,5.1c1.4,0.9,3,1.6,4.5,2.1
			l0.5,0.1h5v-2.2c-1.4-0.1-2.8-0.4-4.1-0.7c-1.2-0.4-2.4-0.9-3.5-1.6c-1.4-0.9-2.6-2-3.5-3.4c-0.4-0.7-6.6-10-10.1-15.2l0,0
			C25.5,33.6,25.5,33.5,25.4,33.4 M5.2,10.1H0v2.2c1.4,0.1,2.7,0.4,4,0.7c1.2,0.4,2.4,0.9,3.5,1.6c1.4,0.9,2.6,2,3.5,3.4
			c0.4,0.7,6.6,10,10.1,15.2l0,0c0,0.1,0.1,0.1,0.1,0.2c0.6-0.8,1.3-2,2.1-3.1c-3.4-5.1-8.1-12.3-8.6-12.9c-1.2-2-2.9-3.7-4.8-5.1
			c-1.4-0.9-2.8-1.6-4.4-2.1L5.2,10.1"/>
	</g>
</g>
</svg>
