<svg id="Calque_1" data-name="Calque 1" xmlns="http://www.w3.org/2000/svg" viewBox="0 0 265 97.52"><defs><style>.cls-1{fill:#171729;}.cls-2,.cls-3{fill:#ea691c;}.cls-3{opacity:0.28;isolation:isolate;}</style></defs><title>xvolume</title><rect class="cls-1" width="265" height="97.52"/><path class="cls-2" d="M55.3,15.56A10.81,10.81,0,0,0,52,18.81c-.48.57-6.41,9.46-9.66,14.53C39.53,37.54,32.45,48.16,32,48.82a15.83,15.83,0,0,1-4.58,4.88,17.49,17.49,0,0,1-4.4,2,4.71,4.71,0,0,0-.48.09H57.69c-.09,0-.19-.09-.38-.09a19.83,19.83,0,0,1-4.4-2,15.86,15.86,0,0,1-4.59-4.88L40.1,36.49c.77-1.15,1.43-2.2,2-3,0,.09.09.09.09.19,3.35,5.07,9.28,14,9.66,14.53a10.85,10.85,0,0,0,3.35,3.25A13.66,13.66,0,0,0,58.55,53a18.67,18.67,0,0,0,3.83.67v2h.09V13.26a18.41,18.41,0,0,0-3.82.67A12.16,12.16,0,0,0,55.3,15.56Zm-27,32.69c.38-.67,6.31-9.46,9.66-14.53,2.77-4.21,9.84-14.82,10.32-15.49a15.94,15.94,0,0,1,4.59-4.87,17.1,17.1,0,0,1,4.4-2,4.29,4.29,0,0,0,.48-.1H22.61c.09,0,.28.1.38.1a19.33,19.33,0,0,1,4.4,2A15.91,15.91,0,0,1,32,18.23L40.2,30.56c-.77,1.15-1.44,2.2-2,3,0-.1-.1-.1-.1-.19-3.44-5.07-9.37-14-9.75-14.53A10.81,10.81,0,0,0,25,15.56,13.85,13.85,0,0,0,21.65,14a17.23,17.23,0,0,0-3.82-.77V53.8a20,20,0,0,0,3.82-.67A14.31,14.31,0,0,0,25,51.6,11.2,11.2,0,0,0,28.34,48.25Z"/><path class="cls-3" d="M42.11,33.53c-.58.76-1.24,1.81-2,3,3.25,4.88,7.74,11.76,8.22,12.33a15.86,15.86,0,0,0,4.59,4.88,17.49,17.49,0,0,0,4.4,2,4.71,4.71,0,0,1,.48.09h4.59V53.7A18.67,18.67,0,0,1,58.55,53a13.66,13.66,0,0,1-3.34-1.53,10.85,10.85,0,0,1-3.35-3.25c-.38-.57-6.31-9.46-9.66-14.53h0c0-.1,0-.1-.09-.19M22.41,11.16H17.83v2.1a18.54,18.54,0,0,1,3.82.67A13.85,13.85,0,0,1,25,15.46a12.36,12.36,0,0,1,3.34,3.35c.38.66,6.31,9.46,9.66,14.53h0c0,.09.09.09.09.19.58-.77,1.25-1.82,2-3-3.25-4.87-7.74-11.75-8.22-12.33a15.94,15.94,0,0,0-4.59-4.87,15.53,15.53,0,0,0-4.3-2c-.19-.1-.38-.1-.58-.19"/><path class="cls-2" d="M89.34,20.62l2.19.48L82.07,49.69H79.49L69.93,21l2.39-.47L80.83,47.2ZM133.5,9.44l-2.2.38v30a39.15,39.15,0,0,0,1,9.94h2.2a39.33,39.33,0,0,1-1-9.85ZM247.17,34.87v.76H227.29v1.15c.38,9.08,4.4,11,9.56,11a15.65,15.65,0,0,0,8.32-2.1l.86,1.91a17.17,17.17,0,0,1-9.18,2.2c-6.5,0-11.76-2.68-11.76-14.82,0-13,6.12-14.91,11.28-14.91C243.06,20.05,247.17,23.68,247.17,34.87Zm-2.29-1.34c0-8.8-3.44-11.47-8.6-11.47-4.69,0-8.89,1.81-9.09,11.47ZM206.07,20.05h-1.25c-4.87,0-7.26,2.39-8.51,5.54-1.24-3.25-3.63-5.54-8.5-5.54h-1.25c-8.41,0-9.56,7.07-9.56,13.19V48.16a9.39,9.39,0,0,0,2.3,1.43V34c0-7,1-11.86,7.65-11.86h.57c6.6,0,7.65,4.88,7.65,11.86V48.06l2.29-.1V34c0-7,1-11.86,7.65-11.86h.57c6.6,0,7.65,4.88,7.65,11.86V49.69a12,12,0,0,0,2.3-1.44V33.34C215.63,27,214.38,20.05,206.07,20.05ZM164.29,35.73c0,7-1,12-7.65,12h-.57c-6.6,0-7.65-4.88-7.65-12V20.05a11.46,11.46,0,0,0-2.3,1.43V36.4c0,6.21,1.15,13.29,9.56,13.29h1.25c8.31,0,9.56-7.08,9.65-13.39V21.48a9.33,9.33,0,0,0-2.29-1.43V35.73Zm-43.41-.67c0,10-3.34,14.63-11.66,14.63S97.56,45,97.56,35.06s3.34-14.63,11.66-14.63S120.88,25,120.88,35.06Zm-2.19,0c0-7.65-1.63-12.72-9.56-12.72s-9.56,5.07-9.56,12.72,1.62,12.71,9.56,12.71S118.69,42.61,118.69,35.06Z"/></svg>