<?xml version="1.0" encoding="utf-8"?>
<!-- Generator: Adobe Illustrator 22.1.0, SVG Export Plug-In . SVG Version: 6.00 Build 0)  -->
<svg version="1.1" id="Calque_1" xmlns="http://www.w3.org/2000/svg" xmlns:xlink="http://www.w3.org/1999/xlink" x="0px" y="0px"
	 viewBox="0 0 239.9 66.4" style="enable-background:new 0 0 239.9 66.4;" xml:space="preserve">
<style type="text/css">
	.st0{fill:#171729;}
	.st1{fill:#EE6918;}
	.st2{opacity:0.28;fill:#EE6918;enable-background:new    ;}
</style>
<rect y="-0.2" class="st0" width="239.9" height="66.8"/>
<g>
	<path class="st1" d="M39.2,14.6c-1.5,0.9-2.6,2.1-3.5,3.4c-0.5,0.6-6.7,9.9-10.1,15.2c-2.9,4.4-10.3,15.5-10.8,16.2
		c-1.2,2-2.9,3.8-4.8,5.1c0,0.1-2.1,1.3-4.6,2.1c-0.2,0-0.4,0.1-0.5,0.1h36.8c-0.1,0-0.2-0.1-0.4-0.1c-2.5-0.8-4.5-2-4.6-2.1
		c-1.9-1.3-3.6-3.1-4.8-5.1c-0.4-0.6-5.2-7.8-8.6-12.9c0.8-1.2,1.5-2.3,2.1-3.1c0,0.1,0.1,0.1,0.1,0.2c3.5,5.3,9.7,14.6,10.1,15.2
		c0.9,1.3,2,2.5,3.5,3.4c0,0,1.5,1,3.5,1.6c0.8,0.3,2.2,0.5,4,0.7v2.1h0.1V12.2c-1.8,0.2-3.2,0.4-4,0.7
		C40.7,13.5,39.2,14.6,39.2,14.6z M11,48.8c0.4-0.7,6.6-9.9,10.1-15.2c2.9-4.4,10.3-15.5,10.8-16.2c1.2-2,2.9-3.8,4.8-5.1
		c0-0.1,2.1-1.3,4.6-2.1c0.2,0,0.4-0.1,0.5-0.1H5c0.1,0,0.3,0.1,0.4,0.1c2.5,0.8,4.5,2,4.6,2.1c1.9,1.3,3.6,3.1,4.8,5.1
		c0.4,0.6,5.2,7.8,8.6,12.9c-0.8,1.2-1.5,2.3-2.1,3.1c0-0.1-0.1-0.1-0.1-0.2C17.6,27.9,11.4,18.6,11,18c-0.9-1.3-2-2.5-3.5-3.4
		c0,0-1.5-1-3.5-1.6c-0.8-0.3-2.2-0.6-4-0.8v42.4c1.8-0.2,3.2-0.4,4-0.7c2-0.6,3.5-1.6,3.5-1.6C9,51.3,10.2,50.1,11,48.8z"/>
	<path class="st2" d="M25.4,33.4c-0.6,0.8-1.3,1.9-2.1,3.1c3.4,5.1,8.1,12.3,8.6,12.9c1.2,2,2.9,3.8,4.8,5.1c0,0.1,2.1,1.3,4.6,2.1
		c0.2,0,0.4,0.1,0.5,0.1h4.8v-2.2c-1.8-0.2-3.2-0.4-4-0.7c-2-0.6-3.5-1.6-3.5-1.6c-1.5-0.9-2.6-2.1-3.5-3.4
		c-0.4-0.6-6.6-9.9-10.1-15.2l0,0C25.5,33.5,25.5,33.5,25.4,33.4 M4.8,10H0v2.2c1.8,0.2,3.2,0.4,4,0.7c2,0.6,3.5,1.6,3.5,1.6
		c1.5,1,2.6,2.2,3.5,3.5c0.4,0.7,6.6,9.9,10.1,15.2l0,0c0,0.1,0.1,0.1,0.1,0.2c0.6-0.8,1.3-1.9,2.1-3.1c-3.4-5.1-8.1-12.3-8.6-12.9
		c-1.2-2-2.9-3.8-4.8-5.1c0-0.1-2-1.3-4.5-2.1C5.2,10.1,5,10.1,4.8,10"/>
	<path class="st1" d="M74.8,19.9l2.3,0.5l-9.9,29.9h-2.7l-10-30l2.5-0.5l8.9,27.9L74.8,19.9z M121,8.2l-2.3,0.4V40
		c0,3.9,0.2,7.5,1,10.4h2.3c-0.8-2.9-1-6.6-1-10.3V8.2z M239.9,34.8v0.8l0,0h-20.8v1.2c0.4,9.5,4.6,11.5,10,11.5
		c3.3,0,5.9-0.6,8.7-2.2l0.9,2c-2.8,1.7-6,2.3-9.6,2.3c-6.8,0-12.3-2.8-12.3-15.5c0-13.6,6.4-15.6,11.8-15.6
		C235.6,19.3,239.9,23.1,239.9,34.8z M237.5,33.4c0-9.2-3.6-12-9-12c-4.9,0-9.3,1.9-9.5,12H237.5z M196.9,19.3h-1.3
		c-5.1,0-7.6,2.5-8.9,5.8c-1.3-3.4-3.8-5.8-8.9-5.8h-1.3c-8.8,0-10,7.4-10,13.8v15.6c0.7,0.6,1.5,1.1,2.4,1.5V33.9
		c0-7.3,1.1-12.4,8-12.4h0.6c6.9,0,8,5.1,8,12.4v14.7l2.4-0.1V33.9c0-7.3,1.1-12.4,8-12.4h0.6c6.9,0,8,5.1,8,12.4v16.4
		c0.8-0.4,1.7-0.9,2.4-1.5V33.2C206.9,26.6,205.6,19.3,196.9,19.3z M153.2,35.7c0,7.3-1.1,12.5-8,12.5h-0.6c-6.9,0-8-5.1-8-12.5
		V19.3c-0.8,0.4-1.7,0.9-2.4,1.5v15.6c0,6.5,1.2,13.9,10,13.9h1.3c8.7,0,10-7.4,10.1-14V20.8c-0.7-0.6-1.5-1.1-2.4-1.5L153.2,35.7
		L153.2,35.7z M107.8,35c0,10.5-3.5,15.3-12.2,15.3c-8.8,0-12.2-4.9-12.2-15.3c0-10.5,3.5-15.3,12.2-15.3
		C104.3,19.6,107.8,24.5,107.8,35z M105.5,35c0-8-1.7-13.3-10-13.3s-10,5.3-10,13.3s1.7,13.3,10,13.3
		C103.8,48.2,105.5,42.9,105.5,35z"/>
</g>
</svg>
