<svg id="Calque_1" data-name="Calque 1" xmlns="http://www.w3.org/2000/svg" viewBox="0 0 265 97.52"><defs><style>.cls-1{fill:#171729;}.cls-2,.cls-3{fill:#8259b3;}.cls-3{opacity:0.28;isolation:isolate;}</style></defs><title>xwidgets</title><rect class="cls-1" width="265" height="97.52"/><path class="cls-2" d="M17.54,48.25c.38-.67,6.31-9.46,9.65-14.63,0-.09.1-.09.1-.19s-.1-.09-.1-.19c-3.34-5.07-9.27-14-9.65-14.63a10.85,10.85,0,0,0-3.35-3.25,14.11,14.11,0,0,0-3.34-1.53A34.58,34.58,0,0,0,7,13.26V53.8a20.17,20.17,0,0,0,3.83-.67,14.11,14.11,0,0,0,3.34-1.53A11.24,11.24,0,0,0,17.54,48.25Zm27-32.79a10.85,10.85,0,0,0-3.35,3.25c-.38.67-6.31,9.46-9.65,14.63,0,.09-.1.09-.1.19s.1.09.1.19c3.34,5.07,9.27,14,9.65,14.63A10.85,10.85,0,0,0,44.5,51.6a14.11,14.11,0,0,0,3.34,1.53,20.17,20.17,0,0,0,3.83.67v2H47.08a4.71,4.71,0,0,1-.48-.09,19.83,19.83,0,0,1-4.4-2,16.15,16.15,0,0,1-4.68-4.88L29.3,36.49,21.08,48.82a15.17,15.17,0,0,1-4.69,4.88,17.49,17.49,0,0,1-4.4,2c0,.09-.19.09-.28.09H51.76V13.26a18.41,18.41,0,0,0-3.82.67A13.33,13.33,0,0,0,44.5,15.46Zm-28-2.1a16.23,16.23,0,0,1,4.68,4.87l8.22,12.33,8.22-12.33a15.24,15.24,0,0,1,4.69-4.87,17.1,17.1,0,0,1,4.4-2,4.29,4.29,0,0,0,.48-.1H11.8a.78.78,0,0,1,.48.19A15.82,15.82,0,0,1,16.49,13.36Z"/><path class="cls-3" d="M31.4,33.53c-.57.76-1.24,1.81-2,3l8.22,12.33A15.17,15.17,0,0,0,42.3,53.7a17.49,17.49,0,0,0,4.4,2,4.71,4.71,0,0,1,.48.09h4.58V53.7A18.41,18.41,0,0,1,47.94,53a13.85,13.85,0,0,1-3.35-1.53,10.93,10.93,0,0,1-3.34-3.25c-.38-.67-6.31-9.46-9.66-14.63h0a.36.36,0,0,1-.19-.09M11.61,11.16H7v2.1a18.67,18.67,0,0,1,3.83.67,13.66,13.66,0,0,1,3.34,1.53,10.85,10.85,0,0,1,3.35,3.25c.38.67,6.31,9.46,9.65,14.63h0c0,.09.1.09.1.19.57-.77,1.24-1.82,2-3L21.08,18.23a15.24,15.24,0,0,0-4.69-4.87,17.1,17.1,0,0,0-4.4-2c0-.1-.19-.1-.38-.19"/><path class="cls-2" d="M227.48,22.73H235l-.95,1.91h-6.5V35.73a7.45,7.45,0,0,0,.67,3.15,10.48,10.48,0,0,0,1.24,2,8.9,8.9,0,0,0,2.1,1.82l-1,1.91a16.44,16.44,0,0,1-2.78-2.3,10.93,10.93,0,0,1-1.62-2.58,10.31,10.31,0,0,1-.77-4.59V24.64H219L218,22.73h7.55V15.17h2.1v7.56Zm-56.69-1.82a34,34,0,0,1,10.42,1.53V49.11c0,6.22-2.87,10.23-9.56,10.23a18.08,18.08,0,0,1-7.94-1.53l.77-2a16,16,0,0,0,7,1.53C177,57.33,179,53.89,179,49V45.19c-1.91,3.63-4.49,5.55-9.46,5.55-7.17,0-10-5.55-10-14.92C159.41,23.3,165.15,20.91,170.79,20.91Zm8.12,3.15a22.93,22.93,0,0,0-8.22-1.14c-4.87,0-9.08,2-9.08,12.9,0,8,1.91,12.91,8.13,12.91,4.87,0,7-2.49,9.17-6.88Zm33.56,11.67v.76H192.39v1.15c.39,9.27,4.4,11.09,9.66,11.09a15.92,15.92,0,0,0,8.41-2.1l.86,1.91a17.37,17.37,0,0,1-9.27,2.29c-6.6,0-12-2.77-12-14.91,0-13.19,6.21-15.11,11.47-15.11C208.36,20.62,212.47,24.35,212.47,35.73Zm-2.29-1.44c0-8.89-3.54-11.66-8.7-11.66-4.69,0-9,1.82-9.28,11.66ZM100,36.59c0,7.07-1.05,12-7.74,12h-.57c-6.7,0-7.75-5-7.75-12V22.44l-2.39.09V36.68c0,7.08-1,12-7.74,12h-.58c-6.69,0-7.74-5-7.74-12v-16a8.73,8.73,0,0,0-2.29,1.53v15.1c0,6.31,1.24,13.48,9.65,13.48h1.24c4.88,0,7.37-2.39,8.61-5.64,1.24,3.25,3.63,5.64,8.6,5.64h1.25c8.5,0,9.65-7.17,9.65-13.38V22.25A19,19,0,0,0,100,20.72L100,36.59Zm13.29,14.24,2.3-1.24V21.39h-2.3Zm0-33.55h2.3V14.89h-2.3Zm135.47,17c-4.49-1.24-7.17-2.39-7.17-6.12,0-4.3,3-5.54,6.79-5.54a15.55,15.55,0,0,1,7,1.43l.86-1.91a17.56,17.56,0,0,0-7.84-1.62c-4.59,0-8.89,2.1-8.89,7.45s3.82,7,8.41,8.23c4.3,1.14,7.84,2,7.84,6,0,4.78-3.44,6.21-7.17,6.21A18.21,18.21,0,0,1,241.44,47l-1,1.91a19.11,19.11,0,0,0,8.22,1.63c5,0,9.28-2.2,9.28-8.23C258,36.87,253.77,35.63,248.8,34.29ZM148.23,5.61a9.31,9.31,0,0,1,2.29-.48V50.45a20.73,20.73,0,0,1-2.29-.48V46.15c-1.92,3-5,4.4-9.66,4.4-8.6,0-11.95-4.78-11.95-14.92s3.35-15,11.95-15c4.69,0,7.84,1.44,9.66,4.4Zm0,29.93c0-7.75-1.63-12.91-9.66-12.91s-9.66,5.16-9.66,12.91,1.63,12.9,9.66,12.9S148.23,43.38,148.23,35.54Z"/></svg>