<?xml version="1.0" encoding="utf-8"?>
<!-- Generator: Adobe Illustrator 19.2.1, SVG Export Plug-In . SVG Version: 6.00 Build 0)  -->
<svg version="1.1" id="Calque_1" xmlns="http://www.w3.org/2000/svg" xmlns:xlink="http://www.w3.org/1999/xlink" x="0px" y="0px"
	 viewBox="0 0 540 137" style="enable-background:new 0 0 540 137;" xml:space="preserve">
<g>
	<path d="M212,40h-2.1c-14.3,0-16.4,12.1-16.4,22.7v25.5c1.2,1,2.5,1.8,3.9,2.6V63.9c0-12,1.8-20.4,13.1-20.4h1
		c11.3,0,13.1,8.4,13.1,20.4v26.9c1.4-0.7,2.7-1.5,3.9-2.5V62.7C228.3,52.1,226.3,40,212,40z"/>
	<path d="M119.4,66.9c0,12-1.8,20.4-13.1,20.4h-1c-11.3,0-13.1-8.4-13.1-20.4V40c-1.4,0.7-2.7,1.5-3.9,2.5v25.6
		c0,10.6,2,22.7,16.4,22.7h2.1c14.3,0,16.4-12.1,16.4-22.7V42.6c-1.2-1-2.5-1.8-3.9-2.6V66.9z"/>
	<path d="M63.6,89.1c6.7-5.4,9.6-15.4,9.6-30.3c0-24.1-7.5-35.3-26.6-35.3C27.5,23.6,20,34.8,20,58.8c0,24.1,7.5,35.3,26.6,35.3
		c5.4,0,9.9-0.9,13.6-2.8c3.9,12.4,11.7,21.9,22.3,27.4c1.3-0.7,2.4-1.6,3.4-2.7C75,111,67.3,101.7,63.6,89.1z M46.6,90.4
		C27.8,90.4,24,77.7,24,58.8c0-18.9,3.8-31.6,22.6-31.6c18.8,0,22.6,12.7,22.6,31.6C69.2,77.7,65.4,90.4,46.6,90.4z"/>
	<path d="M373.9,44.9l-1.9-3.6h-12V28.9h-3.8v12.5h-12.1l-1.9,3.6h13.9c0,0,0,25.7,0,27.2l0,0c-0.2,3,0.3,5.8,1.4,8.4
		c0,0.1,1.1,2.5,2.9,4.7c0.9,1,2.7,2.6,5.2,4.4l1.7-3.6c-1.9-1.4-3.3-2.6-4-3.3c-1.5-1.7-2.3-3.7-2.3-3.7c-0.8-1.8-1.1-3.7-1.1-5.8
		c0-1.3,0-28.3,0-28.3H373.9z"/>
	<path d="M520,46.9c-0.8-1-1.8-1.9-2.8-2.7l-21,21V39.8h-0.5c-1.2,0.2-2.4,0.5-3.4,0.9v49c1.2,0.4,2.5,0.7,3.9,1V66.2l20.5,20.5
		c1-0.8,2-1.7,2.9-2.6l-18.4-18.4L520,46.9z"/>
	<path d="M463.3,87.2c-14,0-16.9-8.5-16.9-21.7c0-13.2,2.8-21.7,16.9-21.7c3.5,0,6.9,0.6,10.1,2.2l1.7-3.3c-3.9-2-7.9-2.5-11.8-2.5
		c-14.9,0-20.7,8.1-20.7,25.3c0,17.3,5.8,25.4,20.7,25.4c3.9,0,7.9-0.5,11.8-2.5l-1.7-3.3C470.2,86.6,466.8,87.2,463.3,87.2z"/>
	<path d="M405.2,40.1c-3.8,0-7.7,0.5-11.6,2.4l1.7,3.3c3.2-1.5,6.4-2.1,9.9-2.1c12.4,0,16.1,6.7,16.7,17.5
		c-22.8,0.9-33.9,3.6-33.9,15.4c0,8.4,3.5,14.2,17.2,14.2c14.9,0,20.7-8.1,20.7-25.4C426,48.2,420.1,40.1,405.2,40.1z M405.2,87.2
		c-9,0-10.5-2.6-11-3.1c-1.5-1.7-2.1-4.1-2.1-7.4c0-9.5,11-11.1,30-12.1C422.1,77.9,419.2,87.2,405.2,87.2z"/>
	<path d="M308.7,54.1c-2.2-0.8-4.1-1.5-6.1-2.4l0,0c-5.9-2.4-10-5.6-10-12.4c0-10.5,7.3-13.9,16.7-13.9c4.4,0,8.6,0.5,12.8,2
		l1.7-3.4c-4.6-1.7-9.5-2.3-14.7-2.3c-10.8,0-20.4,4.7-20.4,17.7c0,7.7,3.9,11.9,9.8,14.8l0,0c0.9,0.4,1.7,0.7,2.4,1c0,0,0,0,0,0
		l0,0c2.2,1,3.8,1.6,5.9,2.3c9.6,3.5,14.1,4,17.4,7.6c0.2,0.2,4.7,5.5,3.5,12c-0.6,3.3-2.5,6.3-5.7,8.9c-7.1,5.8-18.3,4.6-28.9,1
		l-1.8,3.5c5.9,2,12,3.4,17.7,3.4c5.8,0,11.2-1.4,15.5-4.9c4.9-4,6.5-8.3,7-11.3c1.4-8.2-3.8-14.5-4.4-15.2
		C324.2,59.4,318.5,57.7,308.7,54.1z"/>
	<path d="M259.9,28.6h-3.8V41h-13.8l1.8,3.6h11.9c0,0,0,14,0,15.5l0,0c-0.2,3,0.3,5.8,1.4,8.4c0,0.1,1.1,2.5,2.9,4.7
		c0.9,1,2.7,2.5,5.1,4.3l1.8-3.5c-1.9-1.4-3.3-2.5-3.9-3.3c-1.5-1.7-2.3-3.7-2.3-3.7c-0.8-1.8-1.1-3.7-1.1-5.8c0-1.3,0-16.6,0-16.6
		h12l1.8-3.6h-13.9V28.6z"/>
	<path d="M155.2,40.1c-3.8,0-7.7,0.5-11.6,2.4l1.7,3.3c3.2-1.5,6.4-2.1,9.9-2.1c12.4,0,16.1,6.7,16.7,17.5
		c-22.8,0.9-33.9,3.6-33.9,15.4c0,8.4,3.5,14.2,17.2,14.2c14.9,0,20.7-8.1,20.7-25.4C175.9,48.2,170.1,40.1,155.2,40.1z M155.2,87.2
		c-9,0-10.5-2.6-11-3.1c-1.5-1.7-2.1-4.1-2.1-7.4c0-9.5,11-11.1,30-12.1C172,77.9,169.2,87.2,155.2,87.2z"/>
</g>
</svg>
