<?xml version="1.0" encoding="utf-8"?>
<!-- Generator: Adobe Illustrator 19.2.1, SVG Export Plug-In . SVG Version: 6.00 Build 0)  -->
<svg version="1.1" id="Calque_1" xmlns="http://www.w3.org/2000/svg" xmlns:xlink="http://www.w3.org/1999/xlink" x="0px" y="0px"
	 viewBox="0 0 500 500" style="enable-background:new 0 0 500 500;" xml:space="preserve">
<path d="M198,304.8c25.3-24.1,37.1-64.1,37.1-125.2c0-105.4-36.2-152.4-117.5-152.4C36.2,27.2,0,74.2,0,179.5
	c0,105.4,36.2,152.4,117.5,152.4c18.6,0,34.5-2.5,48.4-7.5c14.5,38.9,38.9,71,70.7,93.1l4.5,3.1l16.8-33.1l-3.3-2.4
	C228.3,365.8,209.2,338.8,198,304.8z M117.5,295.9c-67.2,0-80.3-42.7-80.3-116.3c0-73.7,13.1-116.3,80.3-116.3
	c67.2,0,80.3,42.7,80.3,116.3C197.8,253.2,184.7,295.9,117.5,295.9z M498.8,399c-2.4,13.5-9.9,33.5-32.1,51.6
	c-18,14.7-41.2,22.2-69,22.2c-20,0-42.6-4-67.3-11.9l-5.4-1.7l17-33.3l3.9,1.2c30.4,9.3,72,16,97.6-4.9
	c10.8-8.8,17.2-18.8,19.1-29.6c3.8-21.3-11.5-39.2-11.6-39.4c-7.5-8.3-18.2-11.8-37.5-18c-8.1-2.6-43.6-15.5-52.4-19.1
	c-10.3-4.3-21-10.8-21-10.8c-23.2-14.9-34.5-35.5-34.5-62.9c0-52,33.7-81.9,92.5-81.9c24.4,0,45,3.2,62.9,9.9l11.1,4.1l-16.5,32.4
	l-8.8-3.1c-13.8-5-29.1-7.3-48-7.3c-38.5,0-56.4,14.4-56.4,45.4c0,19.4,9.1,30.2,33.7,40.1l38.4,14.4c32.5,11.6,52.1,18.7,64.2,32.6
	l0,0C481.5,332.3,505.5,361.4,498.8,399z"/>
</svg>
