<?xml version="1.0" encoding="UTF-8" standalone="no"?>
<!-- Generator: Adobe Illustrator 19.2.1, SVG Export Plug-In . SVG Version: 6.00 Build 0)  -->

<svg
   xmlns:dc="http://purl.org/dc/elements/1.1/"
   xmlns:cc="http://creativecommons.org/ns#"
   xmlns:rdf="http://www.w3.org/1999/02/22-rdf-syntax-ns#"
   xmlns:svg="http://www.w3.org/2000/svg"
   xmlns="http://www.w3.org/2000/svg"
   xmlns:sodipodi="http://sodipodi.sourceforge.net/DTD/sodipodi-0.dtd"
   xmlns:inkscape="http://www.inkscape.org/namespaces/inkscape"
   version="1.1"
   id="Calque_1"
   x="0px"
   y="0px"
   viewBox="0 0 500 500"
   style="enable-background:new 0 0 500 500;"
   xml:space="preserve"
   inkscape:version="0.91 r13725"
   sodipodi:docname="square-logo-colored.svg"><metadata
     id="metadata4143"><rdf:RDF><cc:Work
         rdf:about=""><dc:format>image/svg+xml</dc:format><dc:type
           rdf:resource="http://purl.org/dc/dcmitype/StillImage" /><dc:title /></cc:Work></rdf:RDF></metadata><defs
     id="defs4141" /><sodipodi:namedview
     pagecolor="#ffffff"
     bordercolor="#666666"
     borderopacity="1"
     objecttolerance="10"
     gridtolerance="10"
     guidetolerance="10"
     inkscape:pageopacity="0"
     inkscape:pageshadow="2"
     inkscape:window-width="1847"
     inkscape:window-height="1056"
     id="namedview4139"
     showgrid="false"
     inkscape:zoom="1.838"
     inkscape:cx="65.560396"
     inkscape:cy="250"
     inkscape:window-x="73"
     inkscape:window-y="24"
     inkscape:window-maximized="1"
     inkscape:current-layer="Calque_1" /><rect
     style="fill:#fff482;fill-opacity:1;fill-rule:evenodd;stroke:#8d8d8d;stroke-width:0;stroke-linejoin:miter;stroke-miterlimit:4;stroke-dasharray:none;stroke-opacity:1"
     id="rect4145"
     width="500"
     height="499.99997"
     x="1.1029798e-05"
     y="-1.3271435e-06"
     rx="0"
     ry="0" /><path
     d="M198,304.8c25.3-24.1,37.1-64.1,37.1-125.2c0-105.4-36.2-152.4-117.5-152.4C36.2,27.2,0,74.2,0,179.5  c0,105.4,36.2,152.4,117.5,152.4c18.6,0,34.5-2.5,48.4-7.5c14.5,38.9,38.9,71,70.7,93.1l4.5,3.1l16.8-33.1l-3.3-2.4  C228.3,365.8,209.2,338.8,198,304.8z M117.5,295.9c-67.2,0-80.3-42.7-80.3-116.3c0-73.7,13.1-116.3,80.3-116.3  c67.2,0,80.3,42.7,80.3,116.3C197.8,253.2,184.7,295.9,117.5,295.9z M498.8,399c-2.4,13.5-9.9,33.5-32.1,51.6  c-18,14.7-41.2,22.2-69,22.2c-20,0-42.6-4-67.3-11.9l-5.4-1.7l17-33.3l3.9,1.2c30.4,9.3,72,16,97.6-4.9  c10.8-8.8,17.2-18.8,19.1-29.6c3.8-21.3-11.5-39.2-11.6-39.4c-7.5-8.3-18.2-11.8-37.5-18c-8.1-2.6-43.6-15.5-52.4-19.1  c-10.3-4.3-21-10.8-21-10.8c-23.2-14.9-34.5-35.5-34.5-62.9c0-52,33.7-81.9,92.5-81.9c24.4,0,45,3.2,62.9,9.9l11.1,4.1l-16.5,32.4  l-8.8-3.1c-13.8-5-29.1-7.3-48-7.3c-38.5,0-56.4,14.4-56.4,45.4c0,19.4,9.1,30.2,33.7,40.1l38.4,14.4c32.5,11.6,52.1,18.7,64.2,32.6  l0,0C481.5,332.3,505.5,361.4,498.8,399z"
     id="path4137"
     style="fill:#000000;fill-opacity:1" /></svg>