<?xml version="1.0" encoding="UTF-8" standalone="no"?>
<!-- Generator: Adobe Illustrator 19.2.1, SVG Export Plug-In . SVG Version: 6.00 Build 0)  -->

<svg
   xmlns:dc="http://purl.org/dc/elements/1.1/"
   xmlns:cc="http://creativecommons.org/ns#"
   xmlns:rdf="http://www.w3.org/1999/02/22-rdf-syntax-ns#"
   xmlns:svg="http://www.w3.org/2000/svg"
   xmlns="http://www.w3.org/2000/svg"
   xmlns:sodipodi="http://sodipodi.sourceforge.net/DTD/sodipodi-0.dtd"
   xmlns:inkscape="http://www.inkscape.org/namespaces/inkscape"
   version="1.1"
   id="Calque_1"
   x="0px"
   y="0px"
   viewBox="0 0 297.25 105.6"
   xml:space="preserve"
   inkscape:version="0.91 r13725"
   sodipodi:docname="xeus.svg"
   width="297.25"
   height="105.6"><metadata
     id="metadata13"><rdf:RDF><cc:Work
         rdf:about=""><dc:format>image/svg+xml</dc:format><dc:type
           rdf:resource="http://purl.org/dc/dcmitype/StillImage" /><dc:title /></cc:Work></rdf:RDF></metadata><defs
     id="defs11" /><sodipodi:namedview
     pagecolor="#ffffff"
     bordercolor="#666666"
     borderopacity="1"
     objecttolerance="10"
     gridtolerance="10"
     guidetolerance="10"
     inkscape:pageopacity="0"
     inkscape:pageshadow="2"
     inkscape:window-width="1640"
     inkscape:window-height="725"
     id="namedview9"
     showgrid="false"
     inkscape:zoom="1.888"
     inkscape:cx="183.67849"
     inkscape:cy="25.541221"
     inkscape:window-x="155"
     inkscape:window-y="82"
     inkscape:window-maximized="0"
     inkscape:current-layer="Calque_1"
     fit-margin-top="0"
     fit-margin-left="0"
     fit-margin-right="0"
     fit-margin-bottom="0" /><style
     type="text/css"
     id="style3">
	.st0{fill:#7DDB85;}
	.st1{fill:#D8F8D7;}
</style><path
     id="path4143"
     style="fill:#5555ff;fill-opacity:1"
     d="m 212.3,96.899998 -3,0 c -19.9,0 -22.6,-16.7 -22.6,-31.4 l 0,-35.299999 c 1.6,-1.4 3.5,-2.5 5.4,-3.5 l 0,37.099999 c 0,16.6 2.4,28.2 18.1,28.2 l 1.4,0 c 15.6,0 18.1,-11.6 18.1,-28.2 l 0,-37.299999 c 1.9,1 3.8,2.1 5.4,3.5 l 0,35.299999 c -0.2,14.9 -3.1,31.6 -22.8,31.6 m 84.95,-19.400002 c 0,14.200002 -10.1,19.300002 -21.7,19.300002 -8.9,0 -17.1,-1.7 -23.8,-6.2 l 2.2,-4.300002 c 5.8,3.700002 13.4,5.800002 21.3,5.800002 8.8,0 16.8,-3.600002 16.8,-14.600002 0,-9.2 -8.3,-11.3 -18.4,-14.1 -10.7,-2.9 -19.6,-6.7 -19.6,-19.3 0,-12.6 10,-17.5 20.8,-17.5 6.2,0 12.5,0.7 18.4,3.7 l -2,4.5 c -4.9,-2.5 -10.5,-3.4 -16.3,-3.4 -8.9,0 -15.8,2.9 -15.8,12.9 0,8.7 6.2,11.4 16.7,14.3 11.6,3.3 21.4,6.2 21.4,18.9 m -125.95,-15.7 0,1.8 -0.1,-0.1 -47,-0.1 0.1,2.7 c 0.8,21.6 10.4,26.000002 22.6,26.000002 7.4,0 13.4,-1.4 19.7,-5.000002 l 2,4.500002 c -6.3,3.8 -13.5,5.3 -21.8,5.3 -15.4,0 -27.9,-6.4 -27.9,-35.000002 0,-30.8 14.5,-35.3 26.8,-35.3 15.9,0 25.6,8.7 25.6,35.2 m -5.4,-3.2 c 0,-20.8 -8.2,-27.2 -20.3,-27.2 -11,0 -21.1,4.2 -21.6,27.2 l 41.9,0 m -77.3,-48.4 c -3.3,2.1 -5.9,4.8 -7.9,7.7 -1,1.5 -15,22.5 -22.9,34.4 l 0,0 c -6.6,10 -23.2,35 -24.4,36.7 -2.8,4.600002 -6.5,8.500002 -10.9,11.500004 -0.1,0.2 -4.7,2.9 -10.3,4.7 l -1.2,0.3 94.7,0 0,-100.6000035 c -4.1,0.5 -7.2,1 -9,1.6 -4.7,1.4 -8.1,3.6999995 -8.1,3.6999995 m -63.7,77.5 c 1,-1.5 15,-22.5 22.9,-34.4 l 0,0 c 6.6,-10 23.2,-35 24.4,-36.7 2.8,-4.6 6.5,-8.4999995 10.9,-11.4999995 0.1,-0.2 4.7,-2.9 10.3,-4.70000003 l 1.2,-0.3 -94.6,0 L 0,100.8 c 4.1,-0.5 7.2,-1.000002 9,-1.600002 4.5,-1.4 8,-3.7 8,-3.7 3.4,-2.2 6,-4.9 7.9,-7.800002"
     inkscape:connector-curvature="0"
     sodipodi:nodetypes="cssccsssscccccsccsscssccssccccccssccsssccscccccccccccccccccccccccccc" /><path
     class="st1"
     d="m 57.5,52.8 c -1.3,1.9 -2.9,4.4 -4.7,7.1 7.7,11.6 18.4,27.8 19.4,29.2 2.8,4.6 6.5,8.5 10.9,11.5 0.1,0.2 4.7,2.9 10.3,4.7 0.4,0.1 0.8,0.2 1.2,0.3 l 10.9,0 0,-4.9 c -4.1,-0.5 -7.2,-1 -9,-1.6 -4.5,-1.4 -8,-3.7 -8,-3.7 -3.3,-2.1 -5.9,-4.8 -7.9,-7.7 -1,-1.5 -15,-22.5 -22.9,-34.4 l 0,0 c 0,-0.2 -0.1,-0.3 -0.2,-0.5 M 10.9,0 0,0 0,4.9 c 4.1,0.5 7.2,1 9,1.6 4.5,1.4 8,3.7 8,3.7 3.3,2.1 5.9,4.8 7.9,7.7 1,1.5 15,22.5 22.9,34.4 l 0,0 c 0.1,0.2 0.2,0.3 0.3,0.5 1.3,-1.9 2.9,-4.4 4.7,-7.1 C 45.1,34.1 34.4,17.9 33.4,16.5 30.6,11.9 26.9,8 22.5,5 22.4,4.8 17.8,2.1 12.2,0.3 11.8,0.2 11.4,0.1 10.9,0"
     id="path7"
     inkscape:connector-curvature="0"
     style="fill:#b9b9ff;fill-opacity:1" /></svg>