<?xml version="1.0" encoding="UTF-8" standalone="no"?>
<!-- Generator: Adobe Illustrator 19.2.1, SVG Export Plug-In . SVG Version: 6.00 Build 0)  -->

<svg
   xmlns:dc="http://purl.org/dc/elements/1.1/"
   xmlns:cc="http://creativecommons.org/ns#"
   xmlns:rdf="http://www.w3.org/1999/02/22-rdf-syntax-ns#"
   xmlns:svg="http://www.w3.org/2000/svg"
   xmlns="http://www.w3.org/2000/svg"
   xmlns:sodipodi="http://sodipodi.sourceforge.net/DTD/sodipodi-0.dtd"
   xmlns:inkscape="http://www.inkscape.org/namespaces/inkscape"
   version="1.1"
   id="Calque_1"
   x="0px"
   y="0px"
   viewBox="0 0 583.11518 132.54774"
   xml:space="preserve"
   inkscape:version="0.91 r13725"
   sodipodi:docname="xproperty.svg"
   width="583.11517"
   height="132.54774"><metadata
     id="metadata15"><rdf:RDF><cc:Work
         rdf:about=""><dc:format>image/svg+xml</dc:format><dc:type
           rdf:resource="http://purl.org/dc/dcmitype/StillImage" /><dc:title /></cc:Work></rdf:RDF></metadata><defs
     id="defs13" /><sodipodi:namedview
     pagecolor="#ffffff"
     bordercolor="#666666"
     borderopacity="1"
     objecttolerance="10"
     gridtolerance="10"
     guidetolerance="10"
     inkscape:pageopacity="0"
     inkscape:pageshadow="2"
     inkscape:window-width="1680"
     inkscape:window-height="771"
     id="namedview11"
     showgrid="false"
     fit-margin-top="0"
     fit-margin-left="0"
     fit-margin-right="0"
     fit-margin-bottom="0"
     inkscape:zoom="1.0443906"
     inkscape:cx="108.194"
     inkscape:cy="58.268493"
     inkscape:window-x="108"
     inkscape:window-y="113"
     inkscape:window-maximized="0"
     inkscape:current-layer="g5" /><style
     type="text/css"
     id="style3">
	.st0{fill:#3FB4C5;}
	.st1{fill:#C5E4ED;}
</style><g
     id="g5"
     transform="translate(0,-197.39999)"><path
       id="path4147"
       style="fill:#ff8f45;fill-opacity:1"
       d="m 543.0494,307.57694 c -0.57836,-0.96524 -1.13001,-1.87791 -1.2259,-2.02816 -0.16707,-0.2618 -0.12231,-0.30081 1.07649,-0.93805 4.38253,-2.3296 7.6289,-5.33639 10.0002,-9.26217 0.86774,-1.43662 2.03181,-3.89874 2.60992,-5.5203 l 0.46481,-1.30375 -10.91844,-32.28818 c -6.00515,-17.7585 -10.89526,-32.31138 -10.86692,-32.33972 0.068,-0.068 5.22368,-1.02508 5.27311,-0.97884 0.0211,0.0197 4.35207,13.47898 9.62456,29.90961 5.27249,16.43064 9.61717,29.92378 9.65483,29.98477 0.0376,0.061 4.42638,-13.38192 9.75269,-29.8731 5.32633,-16.49119 9.70177,-30.00127 9.72322,-30.0224 0.0392,-0.0387 4.85496,1.06492 4.89709,1.12214 0.054,0.0734 -21.16613,63.66474 -21.68533,64.98554 -1.70045,4.32584 -4.11735,8.64489 -6.57626,11.75195 -2.62295,3.31432 -6.27783,6.28817 -10.12278,8.23656 l -0.62972,0.3191 -1.05157,-1.755 z m -19.26896,-78.9922 0,-0.2 -0.1,0 0.1,0.2 m -19.1,-4.9 0,-17.4 -5.3,0 0,17.2 -16.7,0 -2.5,4.9 19.3,0 0,37.7 c -0.2,4.1 0.5,8.1 1.9,11.6 0,0.2 1.6,3.5 4.1,6.5 1.3,1.4 3.8,3.7 7.3,6 l 2.4,-4.9 c -2.7,-1.9 -4.6,-3.5 -5.6,-4.6 -2.1,-2.4 -3.2,-5.1 -3.2,-5.1 -1.1,-2.5 -1.6,-5.3 -1.6,-8 l 0,-39.3 18.9,0 -2.5,-4.8 -16.5,0 m -38.28774,0.063 c -9.8,0.4 -16.4,3.8 -20.5,10.3 l 0,-9.5 c -1.9,0.2 -3.6,0.6 -5.3,1.1 l 0,67.2 c 1.6,0.5 3.4,0.9 5.3,1.1 l 0,-34.8 0,0 0,-0.4 c 0,-18.3 4.06671,-29.80854 22.8,-30.4 l 0.1,0 -2.4,-4.6 m -39.50013,35.15 0,1.8 -0.1,-0.1 -47,-0.1 0.1,2.7 c 0.8,21.6 10.4,26 22.6,26 7.4,0 13.4,-1.4 19.7,-5 l 2,4.5 c -6.3,3.8 -13.5,5.3 -21.8,5.3 -15.4,0 -27.9,-6.4 -27.9,-35 0,-30.8 14.5,-35.3 26.8,-35.3 15.9,0 25.6,8.7 25.6,35.2 m -5.4,-3.2 c 0,-20.8 -8.2,-27.2 -20.3,-27.2 -11,0 -21.1,4.2 -21.6,27.2 l 41.9,0 m -116.40014,74.45 0,-106 c 1.9,0.2 3.6,0.6 5.3,1.1 l 0,9 c 4.4,-7 11.7,-10.4 22.7,-10.4 20.1,0 28.00014,11.2 28.00014,35.00001 0,23.79999 -7.90014,35.09999 -28.00014,35.09999 -11,0 -18.4,-3.4 -22.7,-10.4 l 0,45.4 c -1.7,0.6 -3.4,1 -5.3,1.2 m 5.3,-71.19999 c 0,18.19999 3.8,30.29999 22.7,30.29999 18.9,0 22.7,-12.1 22.7,-30.29999 0,-18.2 -3.8,-30.30001 -22.7,-30.30001 -18.9,0 -22.7,12.00001 -22.7,30.30001 m -16.89986,-0.10001 c 0,23.9 -7.9,35.1 -28,35.1 -20.1,0 -28,-11.2 -28,-35.1 0,-23.9 7.9,-35.1 28,-35.1 20.1,-0.1 28,11.1 28,35.1 m -5.3,0 c 0,-18.3 -3.8,-30.4 -22.8,-30.4 -18.9,0 -22.8,12.1 -22.8,30.4 0,18.3 3.8,30.4 22.8,30.4 19,-0.1 22.8,-12.2 22.8,-30.4 m -64.70043,-35.1 c -9.8,0.4 -16.4,3.8 -20.5,10.3 l 0,-9.5 c -1.9,0.2 -3.6,0.6 -5.3,1.1 l 0,67.2 c 1.6,0.5 3.4,0.9 5.3,1.1 l 0,-34.8 0,0 0,-0.4 c 0,-18.3 3.8,-30.4 22.8,-30.4 l 0.10043,0 -2.40043,-4.6 m -96.49257,106.4 0,-106 c 1.9,0.2 3.6,0.6 5.3,1.1 l 0,9 c 4.4,-7 11.7,-10.4 22.7,-10.4 20.1,0 28,11.2 28,35.00001 0,23.79999 -7.9,35.09999 -28,35.09999 -11,0 -18.4,-3.4 -22.7,-10.4 l 0,45.4 c -1.7,0.6 -3.4,1 -5.3,1.2 m 5.3,-71.19999 c 0,18.19999 3.8,30.29999 22.7,30.29999 18.9,0 22.7,-12.1 22.7,-30.29999 0,-18.2 -3.8,-30.30001 -22.7,-30.30001 -18.9,0 -22.7,12.00001 -22.7,30.30001 M 24.9,285.2 c 1,-1.5 15,-22.5 22.9,-34.5 l 0,0 c 6.6,-10 23.2,-35 24.4,-36.8 2.8,-4.6 6.5,-8.5 11,-11.5 0.1,-0.2 4.7,-2.9 10.3,-4.7 l 1.2,-0.3 -94.7,0 0,100.8 c 4.1,-0.5 7.2,-1 9,-1.6 4.5,-1.4 8,-3.7 8,-3.7 3.4,-2.1 6,-4.8 7.9,-7.7 m 63.8,-77.6 c -3.3,2.1 -5.9,4.8 -7.9,7.7 -1,1.5 -15,22.5 -22.9,34.5 l 0,0 c -6.6,10 -23.2,35 -24.4,36.8 -2.8,4.6 -6.5,8.5 -11,11.5 -0.1,0.2 -4.7,2.9 -10.3,4.7 l -1.2,0.3 94.8,0 0,-100.8 c -4.1,0.5 -7.2,1 -9,1.6 -4.7,1.4 -8.1,3.7 -8.1,3.7" /><path
       class="st1"
       d="m 58.349054,250.19974 c -1.3,1.9 -2.9,4.4 -4.7,7.1 7.7,11.6 18.5,27.8 19.4,29.2 2.8,4.6 6.5,8.5 11,11.5 0.1,0.2 4.7,2.89999 10.3,4.69999 0.4,0.1 0.8,0.2 1.2,0.3 l 10.899996,0 0,-4.89999 c -4.1,-0.5 -7.199996,-1 -8.999996,-1.6 -4.5,-1.4 -8,-3.7 -8,-3.7 -3.4,-2.1 -5.9,-4.8 -7.9,-7.7 -1,-1.5 -15,-22.5 -22.9,-34.5 l 0,0 c -0.1,-0.1 -0.2,-0.2 -0.3,-0.4 m -46.7,-52.80001 -10.90000031,0 0,4.9 c 4.10000001,0.5 7.20000011,1 9.00000011,1.6 4.5000002,1.4 8.0000002,3.7 8.0000002,3.7 3.3,2.1 5.9,4.8 7.9,7.7 1,1.5 15,22.50001 22.9,34.50001 l 0,0 c 0.1,0.2 0.2,0.3 0.3,0.5 1.3,-1.9 2.9,-4.4 4.7,-7.1 -7.7,-11.60001 -18.5,-27.80001 -19.4,-29.20001 -2.8,-4.6 -6.5,-8.5 -11,-11.5 -0.1,-0.2 -4.7,-2.9 -10.3,-4.7 -0.3,-0.2 -0.7,-0.3 -1.2,-0.4"
       id="path9"
       inkscape:connector-curvature="0"
       style="fill:#ffb991;fill-opacity:1" /></g></svg>