<?xml version="1.0" encoding="UTF-8" standalone="no"?>
<!-- Generator: Adobe Illustrator 19.2.1, SVG Export Plug-In . SVG Version: 6.00 Build 0)  -->

<svg
   xmlns:dc="http://purl.org/dc/elements/1.1/"
   xmlns:cc="http://creativecommons.org/ns#"
   xmlns:rdf="http://www.w3.org/1999/02/22-rdf-syntax-ns#"
   xmlns:svg="http://www.w3.org/2000/svg"
   xmlns="http://www.w3.org/2000/svg"
   xmlns:sodipodi="http://sodipodi.sourceforge.net/DTD/sodipodi-0.dtd"
   xmlns:inkscape="http://www.inkscape.org/namespaces/inkscape"
   version="1.1"
   id="Calque_1"
   x="0px"
   y="0px"
   viewBox="0 0 392.29999 118.5"
   xml:space="preserve"
   inkscape:version="0.91 r13725"
   sodipodi:docname="xsimd.svg"
   width="392.29999"
   height="118.5"><metadata
     id="metadata15"><rdf:RDF><cc:Work
         rdf:about=""><dc:format>image/svg+xml</dc:format><dc:type
           rdf:resource="http://purl.org/dc/dcmitype/StillImage" /><dc:title></dc:title></cc:Work></rdf:RDF></metadata><defs
     id="defs13" /><sodipodi:namedview
     pagecolor="#ffffff"
     bordercolor="#666666"
     borderopacity="1"
     objecttolerance="10"
     gridtolerance="10"
     guidetolerance="10"
     inkscape:pageopacity="0"
     inkscape:pageshadow="2"
     inkscape:window-width="1847"
     inkscape:window-height="1056"
     id="namedview11"
     showgrid="false"
     fit-margin-top="0"
     fit-margin-left="0"
     fit-margin-right="0"
     fit-margin-bottom="0"
     inkscape:zoom="2.6700352"
     inkscape:cx="151.15226"
     inkscape:cy="106.3205"
     inkscape:window-x="73"
     inkscape:window-y="24"
     inkscape:window-maximized="1"
     inkscape:current-layer="Calque_1" /><style
     type="text/css"
     id="style3">
	.st0{fill:#3FB4C5;}
	.st1{fill:#C5E4ED;}
</style><g
     id="g5"
     transform="translate(0,-184.6)"><path
       class="st0"
       d="m 169.4,271.6 c 0,14.2 -10.1,19.3 -21.7,19.3 -7,0 -13.6,-1.1 -19.3,-3.7 l 2.3,-4.4 c 5,2.2 10.8,3.4 16.7,3.4 8.8,0 16.8,-3.5 16.8,-14.6 0,-9.2 -8.3,-11.3 -18.4,-14 -10.6,-2.9 -19.6,-6.7 -19.6,-19.3 0,-12.6 10,-17.5 20.7,-17.5 6.2,0 12.5,0.7 18.4,3.7 l -2,4.5 c -4.9,-2.5 -10.5,-3.4 -16.3,-3.4 -8.9,0 -15.8,2.9 -15.8,12.9 0,8.7 6.2,11.4 16.7,14.3 11.7,3.1 21.5,6 21.5,18.8 m 222.9,-87 0,106 c -1.9,-0.2 -3.6,-0.6 -5.3,-1.1 l 0,-9 c -4.4,7 -11.7,10.4 -22.7,10.4 -20.1,0 -28,-11.2 -28,-35 0,-23.8 7.9,-35.1 28,-35.1 11,0 18.4,3.4 22.7,10.4 l 0,-45.4 c 1.7,-0.6 3.4,-1 5.3,-1.2 m -5.3,71.2 c 0,-18.2 -3.8,-30.3 -22.7,-30.3 -18.9,0 -22.7,12.1 -22.7,30.3 0,18.2 3.8,30.3 22.7,30.3 18.9,0 22.7,-12 22.7,-30.3 m -92,-35.2 -3,0 c -11.5,0 -17.3,5.6 -20.1,13.2 -2.9,-7.6 -8.6,-13.2 -20.1,-13.2 l -3,0 c -19.9,0 -22.6,16.7 -22.6,31.3 l 0,35.3 c 1.6,1.4 3.5,2.5 5.4,3.5 l 0,-37 c 0,-16.5 2.4,-28.1 18.1,-28.1 l 1.4,0 c 15.6,0 18.1,11.6 18.1,28.1 l 0,33.2 5.5,-0.2 0,-33 c 0,-16.5 2.4,-28.1 18.1,-28.1 l 1.4,0 c 15.6,0 18.1,11.6 18.1,28.1 l 0,37.2 c 1.9,-1 3.8,-2.1 5.4,-3.5 l 0,-35.3 c -0.1,-14.8 -3,-31.5 -22.7,-31.5 m -100,70.3 5.3,-2.8 0,-66.2 -5.3,0 0,69 m 0,-78.4 5.3,0 0,-5.5 -5.3,0 0,5.5 M 24.9,285.2 c 1,-1.5 15,-22.5 22.9,-34.5 l 0,0 c 6.6,-10 23.2,-35 24.4,-36.8 2.8,-4.6 6.5,-8.5 11,-11.5 0.1,-0.2 4.7,-2.9 10.3,-4.7 0.4,-0.1 0.8,-0.2 1.2,-0.3 l -94.7,0 0,100.8 c 4.1,-0.5 7.2,-1 9,-1.6 4.5,-1.4 8,-3.7 8,-3.7 3.4,-2.1 6,-4.8 7.9,-7.7 m 63.8,-77.6 c -3.3,2.1 -5.9,4.8 -7.9,7.7 -1,1.5 -15,22.5 -22.9,34.5 l 0,0 c -6.6,10 -23.2,35 -24.4,36.8 -2.8,4.6 -6.5,8.5 -11,11.5 -0.1,0.2 -4.7,2.9 -10.3,4.7 -0.4,0.1 -0.8,0.2 -1.2,0.3 l 94.8,0 0,-100.8 c -4.1,0.5 -7.2,1 -9,1.6 -4.7,1.4 -8.1,3.7 -8.1,3.7"
       id="path7"
       inkscape:connector-curvature="0"
       style="fill:#3fb4c5" /><path
       class="st1"
       d="m 57.6,250.2 c -1.3,1.9 -2.9,4.4 -4.7,7.1 7.7,11.6 18.5,27.8 19.4,29.2 2.8,4.6 6.5,8.5 11,11.5 0.1,0.2 4.7,2.9 10.3,4.7 0.4,0.1 0.8,0.2 1.2,0.3 l 10.9,0 0,-4.9 c -4.1,-0.5 -7.2,-1 -9,-1.6 -4.5,-1.4 -8,-3.7 -8,-3.7 -3.4,-2.1 -5.9,-4.8 -7.9,-7.7 -1,-1.5 -15,-22.5 -22.9,-34.5 l 0,0 c -0.1,-0.1 -0.2,-0.2 -0.3,-0.4 m -46.7,-52.8 -10.9,0 0,4.9 c 4.1,0.5 7.2,1 9,1.6 4.5,1.4 8,3.7 8,3.7 3.3,2.1 5.9,4.8 7.9,7.7 1,1.5 15,22.5 22.9,34.5 l 0,0 c 0.1,0.2 0.2,0.3 0.3,0.5 1.3,-1.9 2.9,-4.4 4.7,-7.1 -7.7,-11.6 -18.5,-27.8 -19.4,-29.2 -2.8,-4.6 -6.5,-8.5 -11,-11.5 -0.1,-0.2 -4.7,-2.9 -10.3,-4.7 -0.3,-0.2 -0.7,-0.3 -1.2,-0.4"
       id="path9"
       inkscape:connector-curvature="0"
       style="fill:#c5e4ed" /></g></svg>