<?xml version="1.0" encoding="UTF-8" standalone="no"?>
<!-- Created with Inkscape (http://www.inkscape.org/) -->

<svg
   xmlns:dc="http://purl.org/dc/elements/1.1/"
   xmlns:cc="http://creativecommons.org/ns#"
   xmlns:rdf="http://www.w3.org/1999/02/22-rdf-syntax-ns#"
   xmlns:svg="http://www.w3.org/2000/svg"
   xmlns="http://www.w3.org/2000/svg"
   xmlns:sodipodi="http://sodipodi.sourceforge.net/DTD/sodipodi-0.dtd"
   xmlns:inkscape="http://www.inkscape.org/namespaces/inkscape"
   width="535.66931"
   height="114.93701"
   viewBox="0 0 535.66931 114.93701"
   id="svg2"
   version="1.1"
   inkscape:version="0.91 r13725"
   sodipodi:docname="xtensor-logo.svg">
  <defs
     id="defs4" />
  <sodipodi:namedview
     id="base"
     pagecolor="#ffffff"
     bordercolor="#666666"
     borderopacity="1.0"
     inkscape:pageopacity="0.0"
     inkscape:pageshadow="2"
     inkscape:zoom="0.7"
     inkscape:cx="480.04556"
     inkscape:cy="410.16961"
     inkscape:document-units="px"
     inkscape:current-layer="text4136"
     showgrid="false"
     inkscape:window-width="1847"
     inkscape:window-height="1056"
     inkscape:window-x="73"
     inkscape:window-y="24"
     inkscape:window-maximized="1"
     units="px" />
  <metadata
     id="metadata7">
    <rdf:RDF>
      <cc:Work
         rdf:about="">
        <dc:format>image/svg+xml</dc:format>
        <dc:type
           rdf:resource="http://purl.org/dc/dcmitype/StillImage" />
        <dc:title></dc:title>
      </cc:Work>
    </rdf:RDF>
  </metadata>
  <g
     inkscape:label="Layer 1"
     inkscape:groupmode="layer"
     id="layer1"
     transform="translate(0,-937.40472)">
    <g
       style="font-style:normal;font-variant:normal;font-weight:300;font-stretch:normal;font-size:180px;line-height:125%;font-family:'Source Sans Pro Light';-inkscape-font-specification:'Source Sans Pro Light, Light';letter-spacing:0px;word-spacing:0px;fill:#000000;fill-opacity:1;stroke:none;stroke-width:1px;stroke-linecap:butt;stroke-linejoin:miter;stroke-opacity:1"
       id="text4136">
      <path
         d="M 29.607879,1005.3347 2.34002,963.8022 l 8.82,0 14.039999,21.96 4.32,7.2 c 1.56,2.28 1.93,2.83429 3.61,5.23429 6.45249,-10.31463 17.49152,-27.85878 33.75429,-33.14429 l 0.10037,6.60714 c -8.05248,3.37251 -23.77188,17.36093 -30.18626,31.46556 4.92153,8.6109 22.13004,33.5042 39.27872,47.4344 l -8.10571,0.3572 c -14.66974,-12.5907 -28.70653,-31.9918 -34.13143,-40.1343 l -0.72,0 c -8.19637,17.2338 -15.255177,28.6522 -24.659999,39.42 l -8.46,0 c 14.893904,-16.3227 20.52235,-27.219 29.607879,-44.8675 z"
         id="path4141"
         inkscape:connector-curvature="0"
         sodipodi:nodetypes="cccccccccccccccc" />
      <path
         d="m 89.145019,970.6422 -13.5,0 0,-6.12 13.68,-0.72 1.08,-25.02 6.84,0 0,25.02 25.020001,0 0,6.84 -25.020001,0 0,56.34 q 0,4.14 0.54,7.56 0.72,3.24 2.340001,5.76 1.62,2.34 4.32,3.78 2.88,1.26 7.38,1.26 2.52,0 5.4,-0.72 3.06,-0.9 5.4,-1.98 l 2.16,6.48 q -3.78,1.44 -7.56,2.34 -3.78,0.9 -6.48,0.9 -6.3,0 -10.44,-1.98 -4.140001,-1.8 -6.660001,-5.22 -2.52,-3.42 -3.6,-8.28 -0.9,-4.86 -0.9,-10.62 l 0,-55.62 z"
         id="path4143"
         inkscape:connector-curvature="0" />
      <path
         d="m 134.45721,1007.1822 q 0,-10.62 3.06,-19.08 3.24,-8.46 8.46,-14.22 5.4,-5.94 12.06,-9 6.84,-3.24 14.04,-3.24 15.48,0 24.3,10.44 8.82,10.44 8.82,29.52 0,1.62 0,3.24 0,1.62 -0.36,3.24 l -62.28,0 q 0.18,8.1 2.52,15.12 2.34,6.84 6.48,11.88 4.32,4.86 10.26,7.74 5.94,2.7 13.32,2.7 7.02,0 12.6,-1.98 5.76,-2.16 10.62,-5.76 l 3.24,6.12 q -5.22,3.06 -11.52,5.76 -6.12,2.7 -15.66,2.7 -8.28,0 -15.66,-3.06 -7.2,-3.06 -12.6,-8.82 -5.4,-5.94 -8.64,-14.22 -3.06,-8.46 -3.06,-19.08 z m 63.18,-5.22 q 0,-16.74 -6.84,-25.02 -6.84,-8.46 -18.54,-8.46 -5.58,0 -10.62,2.34 -5.04,2.34 -9.18,6.66 -3.96,4.32 -6.66,10.62 -2.52,6.12 -3.24,13.86 l 55.08,0 z"
         id="path4145"
         inkscape:connector-curvature="0" />
      <path
         d="m 228.49315,963.8022 6.84,0 0.72,13.32 0.54,0 q 6.66,-6.66 13.68,-10.98 7.02,-4.5 16.02,-4.5 13.5,0 19.8,8.1 6.3,8.1 6.3,25.02 l 0,55.44 -7.92,0 0,-54.36 q 0,-13.86 -4.68,-20.34 -4.5,-6.66 -15.12,-6.66 -7.74,0 -14.04,4.14 -6.3,3.96 -14.22,12.06 l 0,65.16 -7.92,0 0,-86.4 z"
         id="path4147"
         inkscape:connector-curvature="0" />
      <path
         d="m 317.99815,1034.5422 q 5.58,4.68 11.88,7.92 6.3,3.06 15.66,3.06 10.26,0 15.3,-5.04 5.22,-5.22 5.22,-12.06 0,-3.96 -1.98,-7.02 -1.8,-3.06 -4.86,-5.22 -3.06,-2.16 -6.84,-3.78 -3.6,-1.62 -7.38,-3.06 -4.86,-1.8 -9.9,-3.78 -4.86,-1.98 -8.82,-4.68 -3.96,-2.88 -6.48,-6.66 -2.34,-3.96 -2.34,-9.54 0,-4.68 1.8,-8.82 1.8,-4.32 5.4,-7.38 3.6,-3.24 8.64,-5.04 5.22,-1.8 12.06,-1.8 6.84,0 13.32,2.52 6.66,2.52 11.34,6.48 l -4.32,5.58 q -4.32,-3.24 -9.18,-5.4 -4.86,-2.34 -11.52,-2.34 -5.04,0 -8.64,1.44 -3.6,1.26 -6.12,3.42 -2.34,2.16 -3.6,5.04 -1.08,2.88 -1.08,5.76 0,3.78 1.62,6.48 1.8,2.52 4.68,4.5 2.88,1.98 6.48,3.6 3.78,1.44 7.56,2.88 5.04,1.98 10.08,3.96 5.04,1.98 9,4.86 4.14,2.88 6.66,7.2 2.52,4.14 2.52,10.44 0,4.86 -1.98,9.36 -1.8,4.32 -5.58,7.74 -3.78,3.24 -9.18,5.22 -5.4,1.98 -12.42,1.98 -9.72,0 -17.82,-3.42 -8.1,-3.6 -13.86,-8.46 l 4.68,-5.94 z"
         id="path4149"
         inkscape:connector-curvature="0" />
      <path
         d="m 389.69158,1007.1822 q 0,-10.8 3.06,-19.26 3.24,-8.64 8.46,-14.4 5.4,-5.76 12.42,-8.82 7.02,-3.06 14.76,-3.06 7.74,0 14.76,3.06 7.2,3.06 12.42,8.82 5.4,5.76 8.46,14.4 3.24,8.46 3.24,19.26 0,10.8 -3.24,19.26 -3.06,8.28 -8.46,14.04 -5.22,5.76 -12.42,8.82 -7.02,3.06 -14.76,3.06 -7.74,0 -14.76,-3.06 -7.02,-3.06 -12.42,-8.82 -5.22,-5.76 -8.46,-14.04 -3.06,-8.46 -3.06,-19.26 z m 8.28,0 q 0,8.46 2.34,15.48 2.34,7.02 6.3,12.06 4.14,5.04 9.72,7.92 5.58,2.7 12.06,2.7 6.48,0 12.06,-2.7 5.76,-2.88 9.72,-7.92 4.14,-5.04 6.48,-12.06 2.34,-7.02 2.34,-15.48 0,-8.64 -2.34,-15.66 -2.34,-7.02 -6.48,-12.06 -3.96,-5.22 -9.72,-7.92 -5.58,-2.88 -12.06,-2.88 -6.48,0 -12.06,2.88 -5.58,2.7 -9.72,7.92 -3.96,5.04 -6.3,12.06 -2.34,7.02 -2.34,15.66 z"
         id="path4151"
         inkscape:connector-curvature="0" />
      <path
         d="m 493.21971,963.8022 6.84,0 0.72,16.02 0.54,0 q 4.32,-8.1 10.44,-13.14 6.3,-5.04 14.04,-5.04 2.52,0 4.5,0.36 1.98,0.36 4.14,1.44 l -1.8,7.2 q -2.16,-0.9 -3.78,-1.08 -1.62,-0.36 -4.14,-0.36 -5.76,0 -12.24,5.04 -6.3,4.86 -11.34,17.1 l 0,58.86 -7.92,0 0,-86.4 z"
         id="path4153"
         inkscape:connector-curvature="0" />
    </g>
  </g>
</svg>
