<svg width="192" height="192" viewBox="0 0 192 192" fill="none" xmlns="http://www.w3.org/2000/svg">
<path d="M95.9404 191.881C148.927 191.881 191.881 148.927 191.881 95.9404C191.881 42.954 148.927 0 95.9404 0C42.954 0 0 42.954 0 95.9404C0 148.927 42.954 191.881 95.9404 191.881Z" fill="#F5E800"/>
<path d="M91.6162 165.408C79.0018 161.44 71.6582 157.176 65.1438 153.505C57.741 149.241 51.8779 145.924 41.4548 145.036C33.1044 144.325 24.4579 145.391 15.5153 148.293C15.6338 148.53 15.8114 148.708 15.9299 148.945C24.6948 146.161 33.2229 145.095 41.3956 145.806C51.641 146.694 57.4448 150.011 64.7884 154.215C71.3029 157.946 78.7057 162.21 91.3793 166.178C99.6705 168.784 114.891 173.64 132.894 173.64C138.402 173.64 144.147 173.167 150.069 172.101C152.201 171.686 154.214 171.271 156.169 170.738C156.642 170.383 157.057 170.028 157.531 169.613C155.103 170.265 152.615 170.916 149.95 171.39C124.84 175.95 102.395 168.843 91.6162 165.408ZM91.6162 155.459C79.0018 151.491 71.6582 147.227 65.1438 143.555C57.741 139.291 51.8779 135.975 41.4548 135.086C31.6238 134.257 21.3191 135.916 10.7183 140.061C10.8368 140.298 10.9552 140.476 11.0737 140.713C21.556 136.626 31.7423 134.968 41.3956 135.797C51.641 136.685 57.4448 140.002 64.7884 144.207C71.3029 147.938 78.7057 152.202 91.3793 156.17C99.6705 158.775 114.891 163.632 132.894 163.632C138.402 163.632 144.147 163.158 150.069 162.092C158.419 160.552 165.526 158.006 171.626 154.985C171.981 154.571 172.277 154.097 172.633 153.682C166.355 156.94 158.834 159.723 149.95 161.381C124.84 166.001 102.395 158.894 91.6162 155.459ZM91.6162 145.51C79.0018 141.542 71.6582 137.278 65.1438 133.606C57.741 129.342 51.8779 126.025 41.4548 125.137C30.4394 124.19 18.8318 126.381 6.86886 131.711C6.92808 131.948 7.04653 132.125 7.16497 132.362C19.0095 127.091 30.4986 124.9 41.3956 125.848C51.641 126.736 57.4448 130.053 64.7884 134.257C71.3029 137.988 78.7057 142.252 91.3793 146.22C99.6705 148.826 114.891 153.682 132.894 153.682C138.402 153.682 144.147 153.209 150.069 152.143C163.571 149.655 173.995 144.503 181.694 139.114C181.93 138.64 182.167 138.225 182.345 137.751C174.587 143.378 163.927 148.826 149.891 151.432C124.84 155.992 102.395 148.885 91.6162 145.51ZM91.6162 160.434C79.0018 156.466 71.6582 152.202 65.1438 148.53C57.741 144.266 51.8779 140.95 41.4548 140.061C32.3345 139.291 22.7997 140.653 12.9688 144.207C13.0872 144.444 13.2057 144.621 13.3241 144.858C22.9774 141.423 32.3937 140.061 41.3363 140.831C51.5818 141.719 57.3856 145.036 64.7292 149.241C71.2437 152.972 78.6465 157.236 91.3201 161.204C99.6112 163.809 114.831 168.666 132.835 168.666C138.343 168.666 144.087 168.192 150.01 167.126C155.34 166.119 160.137 164.757 164.519 163.099C164.934 162.684 165.289 162.27 165.704 161.855C160.966 163.75 155.695 165.349 149.891 166.415C124.84 170.975 102.395 163.869 91.6162 160.434ZM91.6162 170.383C79.0018 166.415 71.6582 162.151 65.1438 158.479C57.741 154.215 51.8779 150.899 41.4548 150.011C33.9927 149.359 26.2938 150.188 18.358 152.379C18.5357 152.557 18.6541 152.794 18.8318 152.972C26.5899 150.84 34.1112 150.07 41.3956 150.662C51.641 151.55 57.4448 154.867 64.7884 159.072C71.3029 162.803 78.7057 167.067 91.3793 171.035C99.6705 173.64 114.891 178.497 132.894 178.497C137.277 178.497 141.778 178.2 146.397 177.549C146.93 177.253 147.404 176.898 147.878 176.601C123.656 180.569 102.099 173.759 91.6162 170.383ZM149.95 136.389C124.84 141.068 102.395 133.902 91.557 130.526C78.9426 126.558 71.599 122.294 65.0845 118.623C57.6817 114.359 51.8187 111.042 41.3956 110.154C29.1365 109.088 16.1076 111.99 2.66406 118.682C2.72328 118.919 2.78251 119.156 2.84173 119.393C16.226 112.7 29.1365 109.858 41.3363 110.864C51.5818 111.753 57.3856 115.069 64.7292 119.274C71.2437 123.005 78.6465 127.269 91.3201 131.237C99.6112 133.843 114.831 138.699 132.835 138.699C138.343 138.699 144.087 138.225 150.01 137.159C170.264 133.369 182.996 124.426 188.978 119.215C189.096 118.8 189.156 118.386 189.274 117.971C183.826 123.005 170.974 132.54 149.95 136.389ZM91.6162 135.501C79.0018 131.533 71.6582 127.269 65.1438 123.597C57.741 119.333 51.8779 116.017 41.4548 115.129C29.5511 114.122 16.9367 116.787 3.90773 123.064C3.96696 123.301 4.02618 123.538 4.0854 123.775C17.0551 117.497 29.5511 114.832 41.3956 115.839C51.641 116.728 57.4448 120.044 64.7884 124.249C71.3029 127.98 78.7057 132.244 91.3793 136.212C99.6705 138.818 114.891 143.674 132.894 143.674C138.402 143.674 144.147 143.2 150.069 142.134C167.362 138.936 179.621 131.355 187.557 124.545C187.675 124.13 187.793 123.716 187.912 123.242C180.095 130.171 167.658 138.107 149.891 141.423C124.84 146.043 102.395 138.936 91.6162 135.501ZM91.6162 150.484C79.0018 146.516 71.6582 142.252 65.1438 138.581C57.741 134.317 51.8779 131 41.4548 130.112C30.9724 129.223 20.0162 131.178 8.70475 135.916C8.8232 136.152 8.88242 136.33 9.00087 136.567C20.1939 131.888 31.0908 129.934 41.3956 130.822C51.641 131.711 57.4448 135.027 64.7884 139.232C71.3029 142.963 78.7057 147.227 91.3793 151.195C99.6705 153.801 114.891 158.657 132.894 158.657C138.402 158.657 144.147 158.183 150.069 157.117C161.143 155.044 170.145 151.195 177.252 146.931C177.548 146.457 177.844 146.043 178.081 145.569C170.856 150.129 161.499 154.215 149.891 156.407C124.84 161.026 102.395 153.919 91.6162 150.484ZM91.6162 140.476C79.0018 136.508 71.6582 132.244 65.1438 128.572C57.741 124.308 51.8779 120.992 41.4548 120.103C29.9656 119.096 17.825 121.584 5.26985 127.388C5.32907 127.624 5.44752 127.861 5.50674 128.039C17.9435 122.235 29.9656 119.807 41.3956 120.814C51.641 121.702 57.4448 125.019 64.7884 129.223C71.3029 132.954 78.7057 137.218 91.3793 141.186C99.6705 143.792 114.891 148.648 132.894 148.648C138.402 148.648 144.147 148.175 150.069 147.109C165.644 144.207 177.133 137.811 185.069 131.592C185.247 131.178 185.425 130.704 185.602 130.289C177.726 136.685 166.059 143.437 149.95 146.457C124.84 151.017 102.395 143.911 91.6162 140.476Z" fill="white"/>
<path d="M43.5868 77.1667C33.9928 80.187 26.9453 80.6608 25.4055 77.7589C22.7997 72.9027 36.717 60.4067 56.3789 49.9244C76.0407 39.442 94.1628 34.9411 96.7686 39.7973C98.2491 42.64 94.222 48.0292 86.76 54.0699" stroke="white" stroke-width="1.3063" stroke-miterlimit="10"/>
<path d="M54.4824 44.3579C56.5552 43.1734 58.6872 41.989 60.9377 40.8045C62.9512 39.7385 64.9056 38.7317 66.8599 37.7842" stroke="#F7F187" stroke-width="1.3063" stroke-miterlimit="10"/>
<path d="M97.1265 39.6206C95.5275 36.6595 88.8354 36.8372 79.5967 39.6798C74.7997 35.0013 68.2852 32.0994 61.1193 32.0994C46.5505 32.0994 34.7061 43.9439 34.7061 58.5718C34.7061 60.1708 34.8837 61.7698 35.1206 63.3096C27.4809 69.4687 23.513 74.9764 25.112 77.9968C25.8819 79.4181 27.8362 80.1288 30.7974 80.1288C31.2119 80.1288 31.6857 80.1288 32.1003 80.0696C32.3964 81.254 33.4032 82.0831 34.7061 82.0831C36.1866 82.0831 37.3711 80.8987 37.3711 79.4181C37.3711 79.3589 37.3711 79.2997 37.3711 79.2997C39.1477 78.9443 41.0429 78.4113 43.0564 77.8191C47.7942 82.2608 54.131 84.985 61.1785 84.985C75.7472 84.985 87.5917 73.1405 87.5917 58.5718C87.5917 57.0912 87.4733 55.6699 87.2364 54.2486C94.9945 47.8525 98.6663 42.5225 97.1265 39.6206ZM36.1866 58.5126C36.1866 44.773 47.3797 33.6391 61.0601 33.6391C67.5153 33.6391 73.4376 36.1265 77.8792 40.2128C74.8589 41.2196 71.6017 42.4041 68.1667 43.8846C67.6337 43.0555 66.7454 42.5225 65.6794 42.5225C64.0804 42.5225 62.7183 43.8254 62.7183 45.4836C62.7183 45.7798 62.7775 46.0166 62.8367 46.2535C62.5998 46.372 62.4222 46.4904 62.1853 46.5496C62.1261 46.5496 62.1261 46.6089 62.0668 46.6089C61.1785 47.0234 60.2902 47.4972 59.3426 47.9118C59.1649 47.971 58.9873 48.0894 58.8096 48.1487C57.9213 48.6224 57.0329 49.037 56.1446 49.57C55.6116 49.8661 55.0194 50.1622 54.4864 50.4583C54.2495 50.5768 54.0718 50.6952 53.8349 50.8137C53.5388 50.9913 53.1835 51.169 52.8874 51.3467C52.5912 51.5243 52.3544 51.6428 52.0582 51.8204C51.8214 51.9389 51.6437 52.0573 51.4068 52.1758C45.6622 55.4922 40.5691 58.8679 36.4235 62.1252C36.2458 60.9999 36.1866 59.7563 36.1866 58.5126ZM34.5876 76.7531C33.1663 76.7531 31.9818 77.8783 31.9226 79.2997C28.6061 79.5366 26.4149 78.9443 25.7042 77.5822C24.3421 74.9764 28.1916 69.9425 35.2391 64.1387C36.3051 69.1726 38.8516 73.6143 42.3458 77.1677C40.4506 77.7599 38.7332 78.1745 37.1342 78.5298C36.7196 77.523 35.7721 76.7531 34.5876 76.7531ZM61.0601 83.4452C48.8602 83.4452 38.7332 74.6803 36.6012 63.0727C41.4574 59.2233 47.6758 55.1961 54.6048 51.3467C54.7233 51.2874 54.7825 51.2282 54.9009 51.169C55.4339 50.8729 56.0261 50.5768 56.6184 50.2807C57.4475 49.8069 58.2766 49.3923 59.1057 48.9778C59.4018 48.8593 59.6387 48.6817 59.9348 48.5632C60.6455 48.2079 61.2969 47.9118 62.0076 47.5564C62.4222 47.3788 62.8367 47.1419 63.2513 46.9642C63.7843 47.7933 64.6726 48.3855 65.7386 48.3855C67.3376 48.3855 68.6998 47.0826 68.6998 45.4244C68.6998 45.1283 68.6405 44.8322 68.5221 44.5361C72.0754 43.0555 75.4511 41.7526 78.5899 40.7458C83.15 45.2468 85.9927 51.5243 85.9927 58.4534C85.9335 72.2522 74.7997 83.4452 61.0601 83.4452ZM86.9995 53.3602C85.9927 48.3855 83.5646 43.8846 80.1889 40.3313C88.7762 37.7847 95.0538 37.4294 96.4159 40.0352C97.7188 42.4633 94.2246 47.438 86.9995 53.3602Z" fill="white"/>
<path d="M90.9045 61.4733C92.5399 61.4733 93.8656 60.1475 93.8656 58.5121C93.8656 56.8768 92.5399 55.551 90.9045 55.551C89.2691 55.551 87.9434 56.8768 87.9434 58.5121C87.9434 60.1475 89.2691 61.4733 90.9045 61.4733Z" fill="#F7F187"/>
<path d="M79.5929 174.706C79.2968 174.41 79.1191 173.996 79.1191 173.522V153.445C79.1191 152.498 79.889 151.728 80.8366 151.728H112.935C113.409 151.728 113.824 151.906 114.12 152.202C114.416 152.498 114.593 152.972 114.593 153.386V173.463C114.593 173.936 114.416 174.351 114.12 174.647C113.824 174.943 113.35 175.121 112.935 175.121H80.8366C80.3036 175.18 79.889 175.002 79.5929 174.706Z" fill="#F7F187"/>
<path d="M112.935 176.365H80.8368C80.0669 176.365 79.3563 176.069 78.8233 175.536C78.2903 175.003 77.9941 174.292 77.9941 173.522V153.446C77.9941 151.906 79.297 150.603 80.8368 150.603H112.935C113.705 150.603 114.416 150.899 114.949 151.432C115.482 151.965 115.778 152.676 115.778 153.446V173.522C115.778 174.292 115.482 175.003 114.949 175.536C114.416 176.069 113.705 176.365 112.935 176.365ZM80.7776 152.794C80.4815 152.794 80.1854 153.031 80.1854 153.386V173.463C80.1854 173.641 80.2446 173.759 80.363 173.877C80.4815 173.996 80.5999 174.055 80.7776 174.055H112.876C113.054 174.055 113.172 173.996 113.291 173.877C113.409 173.759 113.468 173.641 113.468 173.463V153.386C113.468 153.209 113.409 153.09 113.291 152.972C113.172 152.853 113.054 152.794 112.876 152.794H80.7776Z" fill="#050C4E"/>
<path d="M127.212 115.957C120.638 125.67 109.504 132.066 96.8307 132.066C84.1571 132.066 73.0825 125.67 66.4496 115.957C63.6662 118.326 61.1196 120.991 58.8691 123.893C67.5156 135.382 81.2552 142.844 96.7715 142.844C112.288 142.844 126.027 135.382 134.674 123.893C132.601 120.991 130.055 118.326 127.212 115.957Z" fill="#F7F187"/>
<path d="M144.62 139.766C144.62 136.153 143.554 132.718 141.6 129.698V110.332C141.6 106.246 140.001 102.456 137.099 99.5538C136.033 98.4878 134.849 97.5994 133.605 96.948C133.546 96.948 133.486 96.8887 133.427 96.8887C133.427 96.415 133.486 95.9412 133.486 95.5266C133.486 75.2725 117.082 58.8679 96.8277 58.8679C76.5736 58.8679 60.169 75.2725 60.169 95.5266C60.169 96.0004 60.169 96.4742 60.2282 96.8887C60.169 96.8887 60.1098 96.948 60.0505 96.948C55.1351 99.613 52.0555 104.765 52.0555 110.391V129.757C50.1012 132.778 49.0352 136.272 49.0352 139.825V157.296V179.8C62.8932 187.558 78.8833 192 95.8801 192C113.647 192 130.288 187.144 144.561 178.734V157.296L144.62 139.766Z" fill="#F7F187"/>
<path d="M112.934 150.544H80.8359C79.2961 150.544 77.9932 151.847 77.9932 153.387V173.463C77.9932 174.233 78.2893 174.944 78.8223 175.477C79.3553 176.01 80.066 176.306 80.8359 176.306H112.934C113.704 176.306 114.415 176.01 114.948 175.477C115.481 174.944 115.777 174.233 115.777 173.463V153.387C115.777 152.617 115.481 151.906 114.948 151.373C114.415 150.84 113.704 150.544 112.934 150.544ZM113.527 173.463C113.527 173.641 113.467 173.759 113.349 173.878C113.231 173.996 113.112 174.055 112.934 174.055H80.8359C80.6582 174.055 80.5398 173.996 80.4213 173.878C80.3029 173.759 80.2437 173.641 80.2437 173.463V153.387C80.2437 153.091 80.4806 152.794 80.8359 152.794H112.934C113.112 152.794 113.231 152.854 113.349 152.972C113.467 153.09 113.527 153.209 113.527 153.387V173.463ZM96.8852 114.774C97.2997 114.774 97.7735 114.774 98.1881 114.774C104.466 114.655 110.743 113.885 116.902 112.405C121.463 112.345 125.194 108.2 125.194 103.107V86.9982C125.194 84.5109 124.305 82.2012 122.765 80.4838C120.574 78.0556 117.85 77.7595 116.902 77.7003C109.973 76.2197 102.926 75.5683 95.8784 75.6275C89.4824 75.6867 83.0863 76.3974 76.868 77.7003C72.3079 77.7595 68.5768 81.9051 68.5768 86.9982V103.107C68.5768 105.594 69.4652 107.904 71.005 109.621C73.1962 112.049 75.8612 112.345 76.868 112.405C83.3825 113.944 90.1338 114.774 96.8852 114.774ZM72.6632 108.141C71.4787 106.779 70.8273 105.002 70.8273 103.107V86.9982C70.8273 83.0895 73.6108 79.9508 76.9864 79.9508H77.2233C83.3825 78.6479 89.66 77.9372 95.9376 77.878C102.867 77.8187 109.796 78.4702 116.547 79.9508H116.784C117.376 79.9508 119.449 80.0692 121.107 81.9643C122.292 83.3264 122.943 85.1031 122.943 86.9982V103.107C122.943 107.015 120.16 110.154 116.784 110.154H116.665L116.547 110.213C110.506 111.635 104.347 112.464 98.1881 112.523C91.1998 112.642 84.1524 111.872 77.2825 110.213L77.1641 110.154H76.9864C76.3942 110.154 74.3214 109.977 72.6632 108.141ZM145.744 157.236V139.765C145.744 136.094 144.678 132.481 142.723 129.342V110.332C142.723 105.949 141.006 101.863 137.926 98.7243C136.92 97.7175 135.794 96.8884 134.61 96.1777C134.61 95.9408 134.61 95.7039 134.61 95.467C134.61 74.6207 117.672 57.6831 96.826 57.6831C75.9797 57.6831 59.042 74.6207 59.042 95.467C59.042 95.7039 59.042 95.9408 59.042 96.1777C54.0081 99.1388 50.9285 104.528 50.9285 110.332V129.342C48.9742 132.481 47.9082 136.034 47.9082 139.765V179.089C48.6781 179.504 49.3888 179.918 50.1587 180.333V159.96C50.3363 160.02 50.514 160.02 50.7509 160.02H67.0371V187.44C67.8069 187.676 68.5176 187.913 69.2875 188.15V157.769H50.8101C50.514 157.769 50.2179 157.532 50.2179 157.177V139.765C50.2179 136.212 51.2839 132.777 53.2974 129.875C54.6596 127.921 56.377 126.263 58.3314 125.019C67.6293 137.1 81.6058 144.029 96.826 144.029C112.046 144.029 126.082 137.1 135.321 125.019C136.387 125.67 137.334 126.5 138.282 127.388C139.052 128.158 139.762 128.987 140.354 129.875C142.368 132.836 143.434 136.271 143.434 139.765V157.236C143.434 157.532 143.197 157.828 142.842 157.828H124.364V187.676C125.134 187.44 125.904 187.203 126.615 186.966V160.138H142.901C143.079 160.138 143.316 160.138 143.493 160.079V179.444C144.263 179.03 145.033 178.556 145.744 178.082V157.236ZM96.8852 59.9336C116.488 59.9336 132.419 75.8644 132.419 95.467C132.419 110.687 122.765 123.716 109.263 128.75C109.203 128.809 109.085 128.809 109.026 128.869C108.552 129.046 108.078 129.224 107.604 129.342C107.486 129.402 107.427 129.402 107.308 129.461C106.894 129.579 106.479 129.698 106.124 129.816C106.005 129.875 105.887 129.875 105.709 129.935C105.236 130.053 104.821 130.171 104.347 130.231C104.17 130.29 104.051 130.29 103.873 130.349C103.4 130.468 102.926 130.527 102.511 130.586C102.393 130.586 102.274 130.645 102.215 130.645C101.801 130.704 101.327 130.764 100.912 130.823C100.794 130.823 100.675 130.823 100.498 130.882C100.024 130.941 99.491 130.941 98.958 131.001C98.8395 131.001 98.7211 131.001 98.6026 131.001C98.0696 131.001 97.5366 131.06 97.0036 131.06C96.4706 131.06 95.9376 131.06 95.4046 131.001C95.2862 131.001 95.1677 131.001 95.0493 131.001C94.5163 131.001 94.0425 130.941 93.5095 130.882C93.3911 130.882 93.2726 130.882 93.0949 130.823C92.6804 130.764 92.2066 130.704 91.792 130.645C91.6736 130.645 91.5552 130.645 91.4959 130.586C91.0222 130.527 90.5484 130.408 90.1338 130.349C89.9562 130.29 89.8377 130.29 89.66 130.231C89.1863 130.112 88.7717 130.053 88.2979 129.935C88.1795 129.875 88.061 129.875 87.8834 129.816C87.4688 129.698 87.0542 129.579 86.6989 129.461C86.5805 129.402 86.5212 129.402 86.4028 129.342C85.929 129.165 85.4552 129.046 84.9815 128.869C84.9222 128.809 84.8038 128.809 84.7446 128.75C71.2419 123.716 61.5886 110.687 61.5886 95.467C61.3517 75.8644 77.2825 59.9336 96.8852 59.9336ZM53.2382 126.381V110.332C53.2382 105.713 55.4887 101.449 59.2197 98.7835C59.7527 105.002 61.8255 110.746 65.0235 115.78C62.8323 117.675 60.8187 119.807 58.9828 122.058C56.8508 123.124 54.8965 124.545 53.2382 126.381ZM96.8852 141.72C82.4941 141.72 69.2283 135.265 60.4041 123.894C62.1808 121.643 64.1352 119.511 66.3264 117.616C70.4127 123.242 75.9204 127.566 82.1388 130.231C82.198 130.231 82.198 130.231 82.2572 130.29C82.7902 130.527 83.3232 130.704 83.8562 130.941C83.9155 130.941 83.9747 131.001 83.9747 131.001C84.4485 131.178 84.9222 131.356 85.4552 131.474C85.5737 131.534 85.6329 131.534 85.7514 131.593C86.2251 131.77 86.6989 131.889 87.2319 132.007C87.4096 132.067 87.528 132.067 87.7057 132.126C88.1795 132.244 88.6533 132.363 89.1863 132.481C89.3047 132.481 89.4824 132.54 89.6008 132.54C90.0154 132.6 90.4892 132.718 90.9037 132.777C91.0222 132.777 91.1406 132.836 91.2591 132.836C91.7921 132.896 92.325 132.955 92.7988 133.014C92.9173 133.014 93.0949 133.073 93.2134 133.073C93.7464 133.133 94.2794 133.192 94.8124 133.192C94.9308 133.192 95.0493 133.192 95.1085 133.192C95.7007 133.192 96.293 133.251 96.826 133.251C97.4182 133.251 98.0104 133.251 98.5434 133.192C98.6619 133.192 98.7803 133.192 98.8395 133.192C99.3725 133.192 99.9055 133.133 100.439 133.073C100.557 133.073 100.735 133.073 100.853 133.014C101.386 132.955 101.919 132.896 102.393 132.836C102.511 132.836 102.63 132.777 102.748 132.777C103.163 132.718 103.637 132.6 104.051 132.54C104.17 132.54 104.347 132.481 104.466 132.481C104.939 132.363 105.413 132.244 105.946 132.126C106.124 132.067 106.242 132.067 106.42 132.007C106.894 131.889 107.427 131.711 107.901 131.593C108.019 131.534 108.078 131.534 108.197 131.474C108.67 131.297 109.144 131.178 109.677 131.001C109.736 131.001 109.796 130.941 109.796 130.941C110.329 130.764 110.862 130.527 111.395 130.29C111.454 130.29 111.454 130.29 111.513 130.231C117.731 127.566 123.239 123.302 127.326 117.616C129.517 119.511 131.471 121.643 133.248 123.894C124.483 135.205 111.276 141.72 96.8852 141.72ZM140.473 126.322C140.295 126.144 140.118 125.907 139.881 125.73C138.341 124.19 136.564 122.946 134.669 121.999C132.833 119.748 130.82 117.675 128.628 115.721C131.826 110.746 133.899 104.943 134.432 98.7243C135.084 99.1981 135.735 99.6718 136.268 100.264C138.933 102.929 140.414 106.482 140.414 110.273V126.322H140.473Z" fill="#050C4E"/>
<path d="M96.1783 86.7015L77.7601 103.402C77.464 103.698 77.0495 103.817 76.6349 103.817C76.1611 103.817 75.6874 103.639 75.3912 103.284C74.7398 102.573 74.799 101.507 75.5097 100.856L93.9279 84.1549C94.6385 83.5035 95.7045 83.5627 96.356 84.2734C96.889 85.0432 96.8298 86.1092 96.1783 86.7015ZM91.3221 94.1635L80.5436 103.876C79.8329 104.527 79.7737 105.593 80.4252 106.304C80.7805 106.659 81.195 106.837 81.6688 106.837C82.0834 106.837 82.4979 106.719 82.7941 106.423L93.5725 96.7101C94.2832 96.0586 94.3424 94.9926 93.691 94.282C93.0988 93.5713 92.0328 93.5713 91.3221 94.1635Z" fill="white"/>
</svg>
