<?xml version="1.0" encoding="UTF-8" standalone="no"?>
<!-- Generator: Adobe Illustrator 21.0.2, SVG Export Plug-In . SVG Version: 6.00 Build 0)  -->

<svg
   version="1.1"
   id="Mode_Isolation"
   x="0px"
   y="0px"
   viewBox="0 0 164.23144 162.1"
   xml:space="preserve"
   width="164.23145"
   height="162.10001"
   xmlns="http://www.w3.org/2000/svg"
   xmlns:svg="http://www.w3.org/2000/svg"><defs
   id="defs731" />
<style
   type="text/css"
   id="style694">
	.st0{fill:#F7F187;}
	.st1{fill:#FFFFFF;}
	.st2{fill:none;stroke:#FFFFFF;stroke-width:1.3063;stroke-miterlimit:10;}
	.st3{fill:none;stroke:#F7F187;stroke-width:1.3063;stroke-miterlimit:10;}
	.st4{fill:#050C4E;}
	.st5{fill:none;}
</style>
<g
   id="g726"
   transform="translate(-77.65284,-81.05)">
	
	
	
	
	
	
	
	
	
	
	
	
	
<g
   id="g5729"
   transform="matrix(0.5,0,0,0.5,79.88428,81.05)"><ellipse
     style="fill:#ffffff;fill-opacity:1;stroke:none;stroke-width:4.08942;stroke-miterlimit:4;stroke-dasharray:none;stroke-opacity:1"
     id="path4063-3"
     cx="162"
     cy="162.10001"
     rx="159.95529"
     ry="160.05528" /><g
     id="g2584"
     style="stroke:none;stroke-opacity:1"><circle
       class="st0"
       cx="162"
       cy="162"
       r="162"
       id="circle696"
       style="fill:none;fill-opacity:1;stroke:none;stroke-width:4;stroke-miterlimit:4;stroke-dasharray:none;stroke-opacity:1" /><path
       class="st1"
       d="M 154.7,279.3 C 133.4,272.6 121,265.4 110,259.2 97.5,252 87.6,246.4 70,244.9 c -14.1,-1.2 -28.7,0.6 -43.8,5.5 0.2,0.4 0.5,0.7 0.7,1.1 14.8,-4.7 29.2,-6.5 43,-5.3 17.3,1.5 27.1,7.1 39.5,14.2 11,6.3 23.5,13.5 44.9,20.2 14,4.4 39.7,12.6 70.1,12.6 9.3,0 19,-0.8 29,-2.6 3.6,-0.7 7,-1.4 10.3,-2.3 0.8,-0.6 1.5,-1.2 2.3,-1.9 -4.1,1.1 -8.3,2.2 -12.8,3 -42.4,7.7 -80.3,-4.3 -98.5,-10.1 z m 0,-16.8 C 133.4,255.8 121,248.6 110,242.4 97.5,235.2 87.6,229.6 70,228.1 c -16.6,-1.4 -34,1.4 -51.9,8.4 0.2,0.4 0.4,0.7 0.6,1.1 17.7,-6.9 34.9,-9.7 51.2,-8.3 17.3,1.5 27.1,7.1 39.5,14.2 11,6.3 23.5,13.5 44.9,20.2 14,4.4 39.7,12.6 70.1,12.6 9.3,0 19,-0.8 29,-2.6 14.1,-2.6 26.1,-6.9 36.4,-12 0.6,-0.7 1.1,-1.5 1.7,-2.2 -10.6,5.5 -23.3,10.2 -38.3,13 -42.4,7.8 -80.3,-4.2 -98.5,-10 z m 0,-16.8 C 133.4,239 121,231.8 110,225.6 97.5,218.4 87.6,212.8 70,211.3 c -18.6,-1.6 -38.2,2.1 -58.4,11.1 0.1,0.4 0.3,0.7 0.5,1.1 20,-8.9 39.4,-12.6 57.8,-11 17.3,1.5 27.1,7.1 39.5,14.2 11,6.3 23.5,13.5 44.9,20.2 14,4.4 39.7,12.6 70.1,12.6 9.3,0 19,-0.8 29,-2.6 22.8,-4.2 40.4,-12.9 53.4,-22 0.4,-0.8 0.8,-1.5 1.1,-2.3 -13.1,9.5 -31.1,18.7 -54.8,23.1 -42.3,7.7 -80.2,-4.3 -98.4,-10 z m 0,25.2 C 133.4,264.2 121,257 110,250.8 97.5,243.6 87.6,238 70,236.5 c -15.4,-1.3 -31.5,1 -48.1,7 0.2,0.4 0.4,0.7 0.6,1.1 16.3,-5.8 32.2,-8.1 47.3,-6.8 17.3,1.5 27.1,7.1 39.5,14.2 11,6.3 23.5,13.5 44.9,20.2 14,4.4 39.7,12.6 70.1,12.6 9.3,0 19,-0.8 29,-2.6 9,-1.7 17.1,-4 24.5,-6.8 0.7,-0.7 1.3,-1.4 2,-2.1 -8,3.2 -16.9,5.9 -26.7,7.7 -42.3,7.7 -80.2,-4.3 -98.4,-10.1 z m 0,16.8 C 133.4,281 121,273.8 110,267.6 97.5,260.4 87.6,254.8 70,253.3 c -12.6,-1.1 -25.6,0.3 -39,4 0.3,0.3 0.5,0.7 0.8,1 13.1,-3.6 25.8,-4.9 38.1,-3.9 17.3,1.5 27.1,7.1 39.5,14.2 11,6.3 23.5,13.5 44.9,20.2 14,4.4 39.7,12.6 70.1,12.6 7.4,0 15,-0.5 22.8,-1.6 0.9,-0.5 1.7,-1.1 2.5,-1.6 -40.9,6.7 -77.3,-4.8 -95,-10.5 z m 98.5,-57.4 c -42.4,7.9 -80.3,-4.2 -98.6,-9.9 -21.3,-6.7 -33.7,-13.9 -44.7,-20.1 -12.5,-7.2 -22.4,-12.8 -40,-14.3 -20.7,-1.8 -42.7,3.1 -65.4,14.4 0.1,0.4 0.2,0.8 0.3,1.2 22.6,-11.3 44.4,-16.1 65,-14.4 17.3,1.5 27.1,7.1 39.5,14.2 11,6.3 23.5,13.5 44.9,20.2 14,4.4 39.7,12.6 70.1,12.6 9.3,0 19,-0.8 29,-2.6 34.2,-6.4 55.7,-21.5 65.8,-30.3 0.2,-0.7 0.3,-1.4 0.5,-2.1 -9.2,8.5 -30.9,24.6 -66.4,31.1 z m -98.5,-1.5 C 133.4,222.1 121,214.9 110,208.7 97.5,201.5 87.6,195.9 70,194.4 c -20.1,-1.7 -41.4,2.8 -63.4,13.4 0.1,0.4 0.2,0.8 0.3,1.2 21.9,-10.6 43,-15.1 63,-13.4 17.3,1.5 27.1,7.1 39.5,14.2 11,6.3 23.5,13.5 44.9,20.2 14,4.4 39.7,12.6 70.1,12.6 9.3,0 19,-0.8 29,-2.6 29.2,-5.4 49.9,-18.2 63.3,-29.7 0.2,-0.7 0.4,-1.4 0.6,-2.2 -13.2,11.7 -34.2,25.1 -64.2,30.7 -42.3,7.8 -80.2,-4.2 -98.4,-10 z m 0,25.3 C 133.4,247.4 121,240.2 110,234 97.5,226.8 87.6,221.2 70,219.7 c -17.7,-1.5 -36.2,1.8 -55.3,9.8 0.2,0.4 0.3,0.7 0.5,1.1 18.9,-7.9 37.3,-11.2 54.7,-9.7 17.3,1.5 27.1,7.1 39.5,14.2 11,6.3 23.5,13.5 44.9,20.2 14,4.4 39.7,12.6 70.1,12.6 9.3,0 19,-0.8 29,-2.6 18.7,-3.5 33.9,-10 45.9,-17.2 0.5,-0.8 1,-1.5 1.4,-2.3 -12.2,7.7 -28,14.6 -47.6,18.3 -42.3,7.8 -80.2,-4.2 -98.4,-10 z m 0,-16.9 C 133.4,230.5 121,223.3 110,217.1 97.5,209.9 87.6,204.3 70,202.8 c -19.4,-1.7 -39.9,2.5 -61.1,12.3 0.1,0.4 0.3,0.8 0.4,1.1 21,-9.8 41.3,-13.9 60.6,-12.2 17.3,1.5 27.1,7.1 39.5,14.2 11,6.3 23.5,13.5 44.9,20.2 14,4.4 39.7,12.6 70.1,12.6 9.3,0 19,-0.8 29,-2.6 26.3,-4.9 45.7,-15.7 59.1,-26.2 0.3,-0.7 0.6,-1.5 0.9,-2.2 -13.3,10.8 -33,22.2 -60.2,27.3 -42.4,7.7 -80.3,-4.3 -98.5,-10.1 z"
       id="path698"
       style="fill:#d0cb54;fill-opacity:1;stroke:none;stroke-opacity:1" /><path
       class="st2"
       d="m 73.6,130.3 c -16.2,5.1 -28.1,5.9 -30.7,1 C 38.5,123.1 62,102 95.2,84.3 128.4,66.6 159,59 163.4,67.2 c 2.5,4.8 -4.3,13.9 -16.9,24.1"
       id="path700"
       style="stroke:none;stroke-opacity:1" /><path
       class="st3"
       d="M 151.3,77.5"
       id="path702"
       style="stroke:none;stroke-opacity:1" /><path
       class="st3"
       d="m 92,74.9 c 3.5,-2 7.1,-4 10.9,-6 3.4,-1.8 6.7,-3.5 10,-5.1"
       id="path704"
       style="stroke:none;stroke-opacity:1" /><path
       class="st1"
       d="m 164,66.9 c -2.7,-5 -14,-4.7 -29.6,0.1 -8.1,-7.9 -19.1,-12.8 -31.2,-12.8 -24.6,0 -44.6,20 -44.6,44.7 0,2.7 0.3,5.4 0.7,8 -12.9,10.4 -19.6,19.7 -16.9,24.8 1.3,2.4 4.6,3.6 9.6,3.6 0.7,0 1.5,0 2.2,-0.1 0.5,2 2.2,3.4 4.4,3.4 2.5,0 4.5,-2 4.5,-4.5 0,-0.1 0,-0.2 0,-0.2 3,-0.6 6.2,-1.5 9.6,-2.5 8,7.5 18.7,12.1 30.6,12.1 24.6,0 44.6,-20 44.6,-44.6 0,-2.5 -0.2,-4.9 -0.6,-7.3 C 160.4,80.8 166.6,71.8 164,66.9 Z M 61.1,98.8 c 0,-23.2 18.9,-42 42,-42 10.9,0 20.9,4.2 28.4,11.1 -5.1,1.7 -10.6,3.7 -16.4,6.2 -0.9,-1.4 -2.4,-2.3 -4.2,-2.3 -2.7,0 -5,2.2 -5,5 0,0.5 0.1,0.9 0.2,1.3 -0.4,0.2 -0.7,0.4 -1.1,0.5 -0.1,0 -0.1,0.1 -0.2,0.1 -1.5,0.7 -3,1.5 -4.6,2.2 -0.3,0.1 -0.6,0.3 -0.9,0.4 -1.5,0.8 -3,1.5 -4.5,2.4 -0.9,0.5 -1.9,1 -2.8,1.5 -0.4,0.2 -0.7,0.4 -1.1,0.6 -0.5,0.3 -1.1,0.6 -1.6,0.9 -0.5,0.3 -0.9,0.5 -1.4,0.8 -0.4,0.2 -0.7,0.4 -1.1,0.6 -9.7,5.6 -18.3,11.3 -25.3,16.8 -0.3,-1.9 -0.4,-4 -0.4,-6.1 z m -2.7,30.8 c -2.4,0 -4.4,1.9 -4.5,4.3 -5.6,0.4 -9.3,-0.6 -10.5,-2.9 -2.3,-4.4 4.2,-12.9 16.1,-22.7 1.8,8.5 6.1,16 12,22 -3.2,1 -6.1,1.7 -8.8,2.3 -0.7,-1.7 -2.3,-3 -4.3,-3 z m 44.7,11.3 C 82.5,140.9 65.4,126.1 61.8,106.5 70,100 80.5,93.2 92.2,86.7 c 0.2,-0.1 0.3,-0.2 0.5,-0.3 0.9,-0.5 1.9,-1 2.9,-1.5 1.4,-0.8 2.8,-1.5 4.2,-2.2 0.5,-0.2 0.9,-0.5 1.4,-0.7 1.2,-0.6 2.3,-1.1 3.5,-1.7 0.7,-0.3 1.4,-0.7 2.1,-1 0.9,1.4 2.4,2.4 4.2,2.4 2.7,0 5,-2.2 5,-5 0,-0.5 -0.1,-1 -0.3,-1.5 6,-2.5 11.7,-4.7 17,-6.4 7.7,7.6 12.5,18.2 12.5,29.9 -0.1,23.3 -18.9,42.2 -42.1,42.2 z m 43.8,-50.8 c -1.7,-8.4 -5.8,-16 -11.5,-22 14.5,-4.3 25.1,-4.9 27.4,-0.5 2.2,4.1 -3.7,12.5 -15.9,22.5 z"
       id="path706"
       style="fill:#d0cb54;fill-opacity:1;stroke:none;stroke-opacity:1" /><circle
       class="st0"
       cx="153.5"
       cy="98.800003"
       r="5"
       id="circle708"
       style="stroke:none;stroke-opacity:1" /><g
       id="g714"
       style="stroke:none;stroke-opacity:1">
		<path
   class="st0"
   d="m 134.4,295 c -0.5,-0.5 -0.8,-1.2 -0.8,-2 v -33.9 c 0,-1.6 1.3,-2.9 2.9,-2.9 h 54.2 c 0.8,0 1.5,0.3 2,0.8 0.5,0.5 0.8,1.3 0.8,2 v 33.9 c 0,0.8 -0.3,1.5 -0.8,2 -0.5,0.5 -1.3,0.8 -2,0.8 h -54.2 c -0.9,0.1 -1.6,-0.2 -2.1,-0.7 z"
   id="path710"
   style="stroke:none;stroke-opacity:1" />
		<path
   class="st4"
   d="m 190.7,297.8 h -54.2 c -1.3,0 -2.5,-0.5 -3.4,-1.4 v 0 c -0.9,-0.9 -1.4,-2.1 -1.4,-3.4 v -33.9 c 0,-2.6 2.2,-4.8 4.8,-4.8 h 54.2 c 1.3,0 2.5,0.5 3.4,1.4 0.9,0.9 1.4,2.1 1.4,3.4 V 293 c 0,1.3 -0.5,2.5 -1.4,3.4 -0.9,0.9 -2.1,1.4 -3.4,1.4 z M 136.4,258 c -0.5,0 -1,0.4 -1,1 v 33.9 c 0,0.3 0.1,0.5 0.3,0.7 v 0 c 0.2,0.2 0.4,0.3 0.7,0.3 h 54.2 c 0.3,0 0.5,-0.1 0.7,-0.3 0.2,-0.2 0.3,-0.4 0.3,-0.7 V 259 c 0,-0.3 -0.1,-0.5 -0.3,-0.7 -0.2,-0.2 -0.4,-0.3 -0.7,-0.3 z"
   id="path712"
   style="stroke:none;stroke-opacity:1" />
	</g><path
       class="st0"
       d="m 214.8,195.8 c -11.1,16.4 -29.9,27.2 -51.3,27.2 -21.4,0 -40.1,-10.8 -51.3,-27.2 -4.7,4 -9,8.5 -12.8,13.4 14.6,19.4 37.8,32 64,32 26.2,0 49.4,-12.6 64,-32 -3.5,-4.9 -7.8,-9.4 -12.6,-13.4 z"
       id="path716"
       style="stroke:none;stroke-opacity:1" /><circle
       class="st5"
       cx="162"
       cy="162"
       r="162"
       id="circle718"
       style="stroke:none;stroke-opacity:1" /><path
       class="st0"
       d="m 244.2,236 c 0,-6.1 -1.8,-11.9 -5.1,-17 v -32.7 c 0,-6.9 -2.7,-13.3 -7.6,-18.2 -1.8,-1.8 -3.8,-3.3 -5.9,-4.4 -0.1,0 -0.2,-0.1 -0.3,-0.1 0,-0.8 0.1,-1.6 0.1,-2.3 0,-34.2 -27.7,-61.9 -61.9,-61.9 -34.2,0 -61.9,27.7 -61.9,61.9 0,0.8 0,1.6 0.1,2.3 -0.1,0 -0.2,0.1 -0.3,0.1 -8.3,4.5 -13.5,13.2 -13.5,22.7 v 32.7 c -3.3,5.1 -5.1,11 -5.1,17 v 29.5 38 c 23.4,13.1 50.4,20.6 79.1,20.6 30,0 58.1,-8.2 82.2,-22.4 v -36.2 c 0,0 0,0 0,0 z"
       id="path720"
       style="stroke:none;stroke-opacity:1;fill:#d0cb54;fill-opacity:1" /><path
       class="st4"
       d="m 190.7,254.2 h -54.2 c -2.6,0 -4.8,2.2 -4.8,4.8 v 33.9 c 0,1.3 0.5,2.5 1.4,3.4 v 0 c 0,0 0,0 0,0 0.9,0.9 2.1,1.4 3.4,1.4 h 54.2 c 1.3,0 2.5,-0.5 3.4,-1.4 0.9,-0.9 1.4,-2.1 1.4,-3.4 V 259 c 0,-1.3 -0.5,-2.5 -1.4,-3.4 -0.9,-0.9 -2.1,-1.4 -3.4,-1.4 z m 1,38.7 c 0,0.3 -0.1,0.5 -0.3,0.7 -0.2,0.2 -0.4,0.3 -0.7,0.3 h -54.2 c -0.3,0 -0.5,-0.1 -0.7,-0.3 v 0 c -0.2,-0.2 -0.3,-0.4 -0.3,-0.7 V 259 c 0,-0.5 0.4,-1 1,-1 h 54.2 c 0.3,0 0.5,0.1 0.7,0.3 0.2,0.2 0.3,0.4 0.3,0.7 z m -28.1,-99.1 c 0.7,0 1.5,0 2.2,0 10.6,-0.2 21.2,-1.5 31.6,-4 7.7,-0.1 14,-7.1 14,-15.7 v -27.2 c 0,-4.2 -1.5,-8.1 -4.1,-11 -3.7,-4.1 -8.3,-4.6 -9.9,-4.7 -11.7,-2.5 -23.6,-3.6 -35.5,-3.5 -10.8,0.1 -21.6,1.3 -32.1,3.5 -7.7,0.1 -14,7.1 -14,15.7 v 27.2 c 0,4.2 1.5,8.1 4.1,11 3.7,4.1 8.2,4.6 9.9,4.7 11,2.6 22.4,4 33.8,4 z m -40.9,-11.2 c -2,-2.3 -3.1,-5.3 -3.1,-8.5 v -27.2 c 0,-6.6 4.7,-11.9 10.4,-11.9 h 0.4 c 10.4,-2.2 21,-3.4 31.6,-3.5 11.7,-0.1 23.4,1 34.8,3.5 h 0.4 c 1,0 4.5,0.2 7.3,3.4 2,2.3 3.1,5.3 3.1,8.5 v 27.2 c 0,6.6 -4.7,11.9 -10.4,11.9 H 197 l -0.2,0.1 c -10.2,2.4 -20.6,3.8 -31,3.9 -11.8,0.2 -23.7,-1.1 -35.3,-3.9 L 130.3,186 H 130 c -1,0 -4.5,-0.3 -7.3,-3.4 z m 123.4,82.9 V 236 c 0,-6.2 -1.8,-12.3 -5.1,-17.6 v -32.1 c 0,-7.4 -2.9,-14.3 -8.1,-19.6 -1.7,-1.7 -3.6,-3.1 -5.6,-4.3 0,-0.4 0,-0.8 0,-1.2 0,-35.2 -28.6,-63.8 -63.8,-63.8 -35.2,0 -63.8,28.6 -63.8,63.8 0,0.4 0,0.8 0,1.2 -8.5,5 -13.7,14.1 -13.7,23.9 v 32.1 c -3.3,5.3 -5.1,11.3 -5.1,17.6 v 66.4 c 1.3,0.7 2.5,1.4 3.8,2.1 v -34.4 c 0.3,0.1 0.6,0.1 1,0.1 h 27.5 v 46.3 c 1.3,0.4 2.5,0.8 3.8,1.2 V 266.4 H 85.8 c -0.5,0 -1,-0.4 -1,-1 V 236 c 0,-6 1.8,-11.8 5.2,-16.7 2.3,-3.3 5.2,-6.1 8.5,-8.2 15.7,20.4 39.3,32.1 65,32.1 25.7,0 49.4,-11.7 65,-32.1 1.8,1.1 3.4,2.5 5,4 1.3,1.3 2.5,2.7 3.5,4.2 3.4,5 5.2,10.8 5.2,16.7 v 29.5 c 0,0.5 -0.4,1 -1,1 H 210 v 50.4 c 1.3,-0.4 2.6,-0.8 3.8,-1.2 v -45.3 h 27.5 c 0.3,0 0.7,0 1,-0.1 V 303 c 1.3,-0.7 2.6,-1.5 3.8,-2.3 v -35.2 c 0,0 0,0 0,0 z M 163.6,101.2 c 33.1,0 60,26.9 60,60 0,25.7 -16.3,47.7 -39.1,56.2 -0.1,0.1 -0.3,0.1 -0.4,0.2 -0.8,0.3 -1.6,0.6 -2.4,0.8 -0.2,0.1 -0.3,0.1 -0.5,0.2 -0.7,0.2 -1.4,0.4 -2,0.6 -0.2,0.1 -0.4,0.1 -0.7,0.2 -0.8,0.2 -1.5,0.4 -2.3,0.5 -0.3,0.1 -0.5,0.1 -0.8,0.2 -0.8,0.2 -1.6,0.3 -2.3,0.4 -0.2,0 -0.4,0.1 -0.5,0.1 -0.7,0.1 -1.5,0.2 -2.2,0.3 -0.2,0 -0.4,0 -0.7,0.1 -0.8,0.1 -1.7,0.1 -2.6,0.2 -0.2,0 -0.4,0 -0.6,0 -0.9,0 -1.8,0.1 -2.7,0.1 -0.9,0 -1.8,0 -2.7,-0.1 -0.2,0 -0.4,0 -0.6,0 -0.9,0 -1.7,-0.1 -2.6,-0.2 -0.2,0 -0.4,0 -0.7,-0.1 -0.7,-0.1 -1.5,-0.2 -2.2,-0.3 -0.2,0 -0.4,0 -0.5,-0.1 -0.8,-0.1 -1.6,-0.3 -2.3,-0.4 -0.3,-0.1 -0.5,-0.1 -0.8,-0.2 -0.8,-0.2 -1.5,-0.3 -2.3,-0.5 -0.2,-0.1 -0.4,-0.1 -0.7,-0.2 -0.7,-0.2 -1.4,-0.4 -2,-0.6 -0.2,-0.1 -0.3,-0.1 -0.5,-0.2 -0.8,-0.3 -1.6,-0.5 -2.4,-0.8 -0.1,-0.1 -0.3,-0.1 -0.4,-0.2 -22.8,-8.5 -39.1,-30.5 -39.1,-56.2 -0.4,-33.1 26.5,-60 59.6,-60 z M 89.9,213.4 v -27.1 c 0,-7.8 3.8,-15 10.1,-19.5 0.9,10.5 4.4,20.2 9.8,28.7 -3.7,3.2 -7.1,6.8 -10.2,10.6 -3.6,1.8 -6.9,4.2 -9.7,7.3 z m 73.7,25.9 c -24.3,0 -46.7,-10.9 -61.6,-30.1 3,-3.8 6.3,-7.4 10,-10.6 6.9,9.5 16.2,16.8 26.7,21.3 0.1,0 0.1,0 0.2,0.1 0.9,0.4 1.8,0.7 2.7,1.1 0.1,0 0.2,0.1 0.2,0.1 0.8,0.3 1.6,0.6 2.5,0.8 0.2,0.1 0.3,0.1 0.5,0.2 0.8,0.3 1.6,0.5 2.5,0.7 0.3,0.1 0.5,0.1 0.8,0.2 0.8,0.2 1.6,0.4 2.5,0.6 0.2,0 0.5,0.1 0.7,0.1 0.7,0.1 1.5,0.3 2.2,0.4 0.2,0 0.4,0.1 0.6,0.1 0.9,0.1 1.8,0.2 2.6,0.3 0.2,0 0.5,0.1 0.7,0.1 0.9,0.1 1.8,0.2 2.7,0.2 0.2,0 0.4,0 0.5,0 1,0 2,0.1 2.9,0.1 1,0 2,0 2.9,-0.1 0.2,0 0.4,0 0.5,0 0.9,0 1.8,-0.1 2.7,-0.2 0.2,0 0.5,0 0.7,-0.1 0.9,-0.1 1.8,-0.2 2.6,-0.3 0.2,0 0.4,-0.1 0.6,-0.1 0.7,-0.1 1.5,-0.3 2.2,-0.4 0.2,0 0.5,-0.1 0.7,-0.1 0.8,-0.2 1.6,-0.4 2.5,-0.6 0.3,-0.1 0.5,-0.1 0.8,-0.2 0.8,-0.2 1.7,-0.5 2.5,-0.7 0.2,-0.1 0.3,-0.1 0.5,-0.2 0.8,-0.3 1.6,-0.5 2.5,-0.8 0.1,0 0.2,-0.1 0.2,-0.1 0.9,-0.3 1.8,-0.7 2.7,-1.1 0.1,0 0.1,0 0.2,-0.1 10.5,-4.5 19.8,-11.7 26.7,-21.3 3.7,3.2 7,6.8 10,10.6 -14.8,19.1 -37.1,30.1 -61.4,30.1 z m 73.6,-26 c -0.3,-0.3 -0.6,-0.7 -1,-1 -2.6,-2.6 -5.6,-4.7 -8.8,-6.3 -3.1,-3.8 -6.5,-7.3 -10.2,-10.6 5.4,-8.4 8.9,-18.2 9.8,-28.7 1.1,0.8 2.2,1.6 3.1,2.6 4.5,4.5 7,10.5 7,16.9 v 27.1 z"
       id="path722"
       style="stroke:none;stroke-width:1;stroke-miterlimit:4;stroke-dasharray:none;stroke-opacity:1" /><path
       class="st1"
       d="m 162.4,146.4 -31.1,28.2 c -0.5,0.5 -1.2,0.7 -1.9,0.7 -0.8,0 -1.6,-0.3 -2.1,-0.9 -1.1,-1.2 -1,-3 0.2,-4.1 l 31.1,-28.2 c 1.2,-1.1 3,-1 4.1,0.2 0.9,1.3 0.8,3.1 -0.3,4.1 z M 154.2,159 136,175.4 c -1.2,1.1 -1.3,2.9 -0.2,4.1 0.6,0.6 1.3,0.9 2.1,0.9 0.7,0 1.4,-0.2 1.9,-0.7 L 158,163.3 c 1.2,-1.1 1.3,-2.9 0.2,-4.1 -1,-1.2 -2.8,-1.2 -4,-0.2 z"
       id="path724"
       style="fill:#ffffff;fill-opacity:1;stroke:none;stroke-opacity:1" /></g><ellipse
     style="fill:none;fill-opacity:1;stroke:none;stroke-width:4;stroke-miterlimit:4;stroke-dasharray:none;stroke-opacity:1"
     id="path5458"
     cx="34.568562"
     cy="121.00813"
     rx="39.031441"
     ry="9.2918558" /></g><ellipse
   style="fill:none;fill-opacity:1;stroke:#050c4e;stroke-width:2.04471;stroke-miterlimit:4;stroke-dasharray:none;stroke-opacity:1"
   id="path4063"
   cx="159.76855"
   cy="162.10001"
   rx="79.977646"
   ry="80.027641" /></g>
</svg>
