<?xml version="1.0" encoding="UTF-8" standalone="no"?>
<!-- Generator: Adobe Illustrator 21.0.2, SVG Export Plug-In . SVG Version: 6.00 Build 0)  -->

<svg
   version="1.1"
   id="Mode_Isolation"
   x="0px"
   y="0px"
   viewBox="0 0 1411.2939 329.99999"
   xml:space="preserve"
   width="1411.2939"
   height="330"
   sodipodi:docname="logo-website.svg"
   inkscape:version="1.1.2 (0a00cf5339, 2022-02-04)"
   inkscape:export-filename="/home/fhaudin/dev/new.quantstack.github.io/static/img/quantstack/logo-website.png"
   inkscape:export-xdpi="96"
   inkscape:export-ydpi="96"
   xmlns:inkscape="http://www.inkscape.org/namespaces/inkscape"
   xmlns:sodipodi="http://sodipodi.sourceforge.net/DTD/sodipodi-0.dtd"
   xmlns="http://www.w3.org/2000/svg"
   xmlns:svg="http://www.w3.org/2000/svg"><sodipodi:namedview
   id="namedview3903"
   pagecolor="#ffffff"
   bordercolor="#666666"
   borderopacity="1.0"
   inkscape:pageshadow="2"
   inkscape:pageopacity="0.0"
   inkscape:pagecheckerboard="0"
   showgrid="false"
   fit-margin-top="0"
   fit-margin-left="0"
   fit-margin-right="0"
   fit-margin-bottom="0"
   inkscape:zoom="0.48857296"
   inkscape:cx="727.62929"
   inkscape:cy="164.76556"
   inkscape:window-width="1850"
   inkscape:window-height="1016"
   inkscape:window-x="0"
   inkscape:window-y="0"
   inkscape:window-maximized="1"
   inkscape:current-layer="Mode_Isolation" /><defs
   id="defs352" />
<style
   type="text/css"
   id="style315">
	.st0{fill:#F7F187;}
	.st1{fill:#FFFFFF;}
	.st2{fill:none;stroke:#FFFFFF;stroke-width:1.3063;stroke-miterlimit:10;}
	.st3{fill:none;stroke:#F7F187;stroke-width:1.3063;stroke-miterlimit:10;}
	.st4{fill:#050C4E;}
	.st5{fill:none;}
</style>
<g
   id="g347">
	
	
	
	
	
	
	
	
	
	
	
	
	<g
   id="g519"
   transform="scale(1.0277778,1.0178902)"><circle
     class="st0"
     cx="162"
     cy="162"
     r="162"
     id="circle317" /><path
     class="st1"
     d="M 154.7,279.3 C 133.4,272.6 121,265.4 110,259.2 97.5,252 87.6,246.4 70,244.9 c -14.1,-1.2 -28.7,0.6 -43.8,5.5 0.2,0.4 0.5,0.7 0.7,1.1 14.8,-4.7 29.2,-6.5 43,-5.3 17.3,1.5 27.1,7.1 39.5,14.2 11,6.3 23.5,13.5 44.9,20.2 14,4.4 39.7,12.6 70.1,12.6 9.3,0 19,-0.8 29,-2.6 3.6,-0.7 7,-1.4 10.3,-2.3 0.8,-0.6 1.5,-1.2 2.3,-1.9 -4.1,1.1 -8.3,2.2 -12.8,3 -42.4,7.7 -80.3,-4.3 -98.5,-10.1 z m 0,-16.8 C 133.4,255.8 121,248.6 110,242.4 97.5,235.2 87.6,229.6 70,228.1 c -16.6,-1.4 -34,1.4 -51.9,8.4 0.2,0.4 0.4,0.7 0.6,1.1 17.7,-6.9 34.9,-9.7 51.2,-8.3 17.3,1.5 27.1,7.1 39.5,14.2 11,6.3 23.5,13.5 44.9,20.2 14,4.4 39.7,12.6 70.1,12.6 9.3,0 19,-0.8 29,-2.6 14.1,-2.6 26.1,-6.9 36.4,-12 0.6,-0.7 1.1,-1.5 1.7,-2.2 -10.6,5.5 -23.3,10.2 -38.3,13 -42.4,7.8 -80.3,-4.2 -98.5,-10 z m 0,-16.8 C 133.4,239 121,231.8 110,225.6 97.5,218.4 87.6,212.8 70,211.3 c -18.6,-1.6 -38.2,2.1 -58.4,11.1 0.1,0.4 0.3,0.7 0.5,1.1 20,-8.9 39.4,-12.6 57.8,-11 17.3,1.5 27.1,7.1 39.5,14.2 11,6.3 23.5,13.5 44.9,20.2 14,4.4 39.7,12.6 70.1,12.6 9.3,0 19,-0.8 29,-2.6 22.8,-4.2 40.4,-12.9 53.4,-22 0.4,-0.8 0.8,-1.5 1.1,-2.3 -13.1,9.5 -31.1,18.7 -54.8,23.1 -42.3,7.7 -80.2,-4.3 -98.4,-10 z m 0,25.2 C 133.4,264.2 121,257 110,250.8 97.5,243.6 87.6,238 70,236.5 c -15.4,-1.3 -31.5,1 -48.1,7 0.2,0.4 0.4,0.7 0.6,1.1 16.3,-5.8 32.2,-8.1 47.3,-6.8 17.3,1.5 27.1,7.1 39.5,14.2 11,6.3 23.5,13.5 44.9,20.2 14,4.4 39.7,12.6 70.1,12.6 9.3,0 19,-0.8 29,-2.6 9,-1.7 17.1,-4 24.5,-6.8 0.7,-0.7 1.3,-1.4 2,-2.1 -8,3.2 -16.9,5.9 -26.7,7.7 -42.3,7.7 -80.2,-4.3 -98.4,-10.1 z m 0,16.8 C 133.4,281 121,273.8 110,267.6 97.5,260.4 87.6,254.8 70,253.3 c -12.6,-1.1 -25.6,0.3 -39,4 0.3,0.3 0.5,0.7 0.8,1 13.1,-3.6 25.8,-4.9 38.1,-3.9 17.3,1.5 27.1,7.1 39.5,14.2 11,6.3 23.5,13.5 44.9,20.2 14,4.4 39.7,12.6 70.1,12.6 7.4,0 15,-0.5 22.8,-1.6 0.9,-0.5 1.7,-1.1 2.5,-1.6 -40.9,6.7 -77.3,-4.8 -95,-10.5 z m 98.5,-57.4 c -42.4,7.9 -80.3,-4.2 -98.6,-9.9 -21.3,-6.7 -33.7,-13.9 -44.7,-20.1 -12.5,-7.2 -22.4,-12.8 -40,-14.3 -20.7,-1.8 -42.7,3.1 -65.4,14.4 0.1,0.4 0.2,0.8 0.3,1.2 22.6,-11.3 44.4,-16.1 65,-14.4 17.3,1.5 27.1,7.1 39.5,14.2 11,6.3 23.5,13.5 44.9,20.2 14,4.4 39.7,12.6 70.1,12.6 9.3,0 19,-0.8 29,-2.6 34.2,-6.4 55.7,-21.5 65.8,-30.3 0.2,-0.7 0.3,-1.4 0.5,-2.1 -9.2,8.5 -30.9,24.6 -66.4,31.1 z m -98.5,-1.5 C 133.4,222.1 121,214.9 110,208.7 97.5,201.5 87.6,195.9 70,194.4 c -20.1,-1.7 -41.4,2.8 -63.4,13.4 0.1,0.4 0.2,0.8 0.3,1.2 21.9,-10.6 43,-15.1 63,-13.4 17.3,1.5 27.1,7.1 39.5,14.2 11,6.3 23.5,13.5 44.9,20.2 14,4.4 39.7,12.6 70.1,12.6 9.3,0 19,-0.8 29,-2.6 29.2,-5.4 49.9,-18.2 63.3,-29.7 0.2,-0.7 0.4,-1.4 0.6,-2.2 -13.2,11.7 -34.2,25.1 -64.2,30.7 -42.3,7.8 -80.2,-4.2 -98.4,-10 z m 0,25.3 C 133.4,247.4 121,240.2 110,234 97.5,226.8 87.6,221.2 70,219.7 c -17.7,-1.5 -36.2,1.8 -55.3,9.8 0.2,0.4 0.3,0.7 0.5,1.1 18.9,-7.9 37.3,-11.2 54.7,-9.7 17.3,1.5 27.1,7.1 39.5,14.2 11,6.3 23.5,13.5 44.9,20.2 14,4.4 39.7,12.6 70.1,12.6 9.3,0 19,-0.8 29,-2.6 18.7,-3.5 33.9,-10 45.9,-17.2 0.5,-0.8 1,-1.5 1.4,-2.3 -12.2,7.7 -28,14.6 -47.6,18.3 -42.3,7.8 -80.2,-4.2 -98.4,-10 z m 0,-16.9 C 133.4,230.5 121,223.3 110,217.1 97.5,209.9 87.6,204.3 70,202.8 c -19.4,-1.7 -39.9,2.5 -61.1,12.3 0.1,0.4 0.3,0.8 0.4,1.1 21,-9.8 41.3,-13.9 60.6,-12.2 17.3,1.5 27.1,7.1 39.5,14.2 11,6.3 23.5,13.5 44.9,20.2 14,4.4 39.7,12.6 70.1,12.6 9.3,0 19,-0.8 29,-2.6 26.3,-4.9 45.7,-15.7 59.1,-26.2 0.3,-0.7 0.6,-1.5 0.9,-2.2 -13.3,10.8 -33,22.2 -60.2,27.3 -42.4,7.7 -80.3,-4.3 -98.5,-10.1 z"
     id="path319" /><path
     class="st2"
     d="m 73.6,130.3 c -16.2,5.1 -28.1,5.9 -30.7,1 C 38.5,123.1 62,102 95.2,84.3 128.4,66.6 159,59 163.4,67.2 c 2.5,4.8 -4.3,13.9 -16.9,24.1"
     id="path321" /><path
     class="st3"
     d="M 151.3,77.5"
     id="path323" /><path
     class="st3"
     d="m 92,74.9 c 3.5,-2 7.1,-4 10.9,-6 3.4,-1.8 6.7,-3.5 10,-5.1"
     id="path325" /><path
     class="st1"
     d="m 164,66.9 c -2.7,-5 -14,-4.7 -29.6,0.1 -8.1,-7.9 -19.1,-12.8 -31.2,-12.8 -24.6,0 -44.6,20 -44.6,44.7 0,2.7 0.3,5.4 0.7,8 -12.9,10.4 -19.6,19.7 -16.9,24.8 1.3,2.4 4.6,3.6 9.6,3.6 0.7,0 1.5,0 2.2,-0.1 0.5,2 2.2,3.4 4.4,3.4 2.5,0 4.5,-2 4.5,-4.5 0,-0.1 0,-0.2 0,-0.2 3,-0.6 6.2,-1.5 9.6,-2.5 8,7.5 18.7,12.1 30.6,12.1 24.6,0 44.6,-20 44.6,-44.6 0,-2.5 -0.2,-4.9 -0.6,-7.3 C 160.4,80.8 166.6,71.8 164,66.9 Z M 61.1,98.8 c 0,-23.2 18.9,-42 42,-42 10.9,0 20.9,4.2 28.4,11.1 -5.1,1.7 -10.6,3.7 -16.4,6.2 -0.9,-1.4 -2.4,-2.3 -4.2,-2.3 -2.7,0 -5,2.2 -5,5 0,0.5 0.1,0.9 0.2,1.3 -0.4,0.2 -0.7,0.4 -1.1,0.5 -0.1,0 -0.1,0.1 -0.2,0.1 -1.5,0.7 -3,1.5 -4.6,2.2 -0.3,0.1 -0.6,0.3 -0.9,0.4 -1.5,0.8 -3,1.5 -4.5,2.4 -0.9,0.5 -1.9,1 -2.8,1.5 -0.4,0.2 -0.7,0.4 -1.1,0.6 -0.5,0.3 -1.1,0.6 -1.6,0.9 -0.5,0.3 -0.9,0.5 -1.4,0.8 -0.4,0.2 -0.7,0.4 -1.1,0.6 -9.7,5.6 -18.3,11.3 -25.3,16.8 -0.3,-1.9 -0.4,-4 -0.4,-6.1 z m -2.7,30.8 c -2.4,0 -4.4,1.9 -4.5,4.3 -5.6,0.4 -9.3,-0.6 -10.5,-2.9 -2.3,-4.4 4.2,-12.9 16.1,-22.7 1.8,8.5 6.1,16 12,22 -3.2,1 -6.1,1.7 -8.8,2.3 -0.7,-1.7 -2.3,-3 -4.3,-3 z m 44.7,11.3 C 82.5,140.9 65.4,126.1 61.8,106.5 70,100 80.5,93.2 92.2,86.7 c 0.2,-0.1 0.3,-0.2 0.5,-0.3 0.9,-0.5 1.9,-1 2.9,-1.5 1.4,-0.8 2.8,-1.5 4.2,-2.2 0.5,-0.2 0.9,-0.5 1.4,-0.7 1.2,-0.6 2.3,-1.1 3.5,-1.7 0.7,-0.3 1.4,-0.7 2.1,-1 0.9,1.4 2.4,2.4 4.2,2.4 2.7,0 5,-2.2 5,-5 0,-0.5 -0.1,-1 -0.3,-1.5 6,-2.5 11.7,-4.7 17,-6.4 7.7,7.6 12.5,18.2 12.5,29.9 -0.1,23.3 -18.9,42.2 -42.1,42.2 z m 43.8,-50.8 c -1.7,-8.4 -5.8,-16 -11.5,-22 14.5,-4.3 25.1,-4.9 27.4,-0.5 2.2,4.1 -3.7,12.5 -15.9,22.5 z"
     id="path327" /><circle
     class="st0"
     cx="153.5"
     cy="98.800003"
     r="5"
     id="circle329" /><g
     id="g335">
		<path
   class="st0"
   d="m 134.4,295 c -0.5,-0.5 -0.8,-1.2 -0.8,-2 v -33.9 c 0,-1.6 1.3,-2.9 2.9,-2.9 h 54.2 c 0.8,0 1.5,0.3 2,0.8 0.5,0.5 0.8,1.3 0.8,2 v 33.9 c 0,0.8 -0.3,1.5 -0.8,2 -0.5,0.5 -1.3,0.8 -2,0.8 h -54.2 c -0.9,0.1 -1.6,-0.2 -2.1,-0.7 z"
   id="path331" />
		<path
   class="st4"
   d="m 190.7,297.8 h -54.2 c -1.3,0 -2.5,-0.5 -3.4,-1.4 v 0 c -0.9,-0.9 -1.4,-2.1 -1.4,-3.4 v -33.9 c 0,-2.6 2.2,-4.8 4.8,-4.8 h 54.2 c 1.3,0 2.5,0.5 3.4,1.4 0.9,0.9 1.4,2.1 1.4,3.4 V 293 c 0,1.3 -0.5,2.5 -1.4,3.4 -0.9,0.9 -2.1,1.4 -3.4,1.4 z M 136.4,258 c -0.5,0 -1,0.4 -1,1 v 33.9 c 0,0.3 0.1,0.5 0.3,0.7 v 0 c 0.2,0.2 0.4,0.3 0.7,0.3 h 54.2 c 0.3,0 0.5,-0.1 0.7,-0.3 0.2,-0.2 0.3,-0.4 0.3,-0.7 V 259 c 0,-0.3 -0.1,-0.5 -0.3,-0.7 -0.2,-0.2 -0.4,-0.3 -0.7,-0.3 z"
   id="path333" />
	</g><path
     class="st0"
     d="m 214.8,195.8 c -11.1,16.4 -29.9,27.2 -51.3,27.2 -21.4,0 -40.1,-10.8 -51.3,-27.2 -4.7,4 -9,8.5 -12.8,13.4 14.6,19.4 37.8,32 64,32 26.2,0 49.4,-12.6 64,-32 -3.5,-4.9 -7.8,-9.4 -12.6,-13.4 z"
     id="path337" /><circle
     class="st5"
     cx="162"
     cy="162"
     r="162"
     id="circle339" /><path
     class="st0"
     d="m 244.2,236 c 0,-6.1 -1.8,-11.9 -5.1,-17 v -32.7 c 0,-6.9 -2.7,-13.3 -7.6,-18.2 -1.8,-1.8 -3.8,-3.3 -5.9,-4.4 -0.1,0 -0.2,-0.1 -0.3,-0.1 0,-0.8 0.1,-1.6 0.1,-2.3 0,-34.2 -27.7,-61.9 -61.9,-61.9 -34.2,0 -61.9,27.7 -61.9,61.9 0,0.8 0,1.6 0.1,2.3 -0.1,0 -0.2,0.1 -0.3,0.1 -8.3,4.5 -13.5,13.2 -13.5,22.7 v 32.7 c -3.3,5.1 -5.1,11 -5.1,17 v 29.5 38 c 23.4,13.1 50.4,20.6 79.1,20.6 30,0 58.1,-8.2 82.2,-22.4 v -36.2 c 0,0 0,0 0,0 z"
     id="path341" /><path
     class="st4"
     d="m 190.7,254.2 h -54.2 c -2.6,0 -4.8,2.2 -4.8,4.8 v 33.9 c 0,1.3 0.5,2.5 1.4,3.4 v 0 c 0,0 0,0 0,0 0.9,0.9 2.1,1.4 3.4,1.4 h 54.2 c 1.3,0 2.5,-0.5 3.4,-1.4 0.9,-0.9 1.4,-2.1 1.4,-3.4 V 259 c 0,-1.3 -0.5,-2.5 -1.4,-3.4 -0.9,-0.9 -2.1,-1.4 -3.4,-1.4 z m 1,38.7 c 0,0.3 -0.1,0.5 -0.3,0.7 -0.2,0.2 -0.4,0.3 -0.7,0.3 h -54.2 c -0.3,0 -0.5,-0.1 -0.7,-0.3 v 0 c -0.2,-0.2 -0.3,-0.4 -0.3,-0.7 V 259 c 0,-0.5 0.4,-1 1,-1 h 54.2 c 0.3,0 0.5,0.1 0.7,0.3 0.2,0.2 0.3,0.4 0.3,0.7 z m -28.1,-99.1 c 0.7,0 1.5,0 2.2,0 10.6,-0.2 21.2,-1.5 31.6,-4 7.7,-0.1 14,-7.1 14,-15.7 v -27.2 c 0,-4.2 -1.5,-8.1 -4.1,-11 -3.7,-4.1 -8.3,-4.6 -9.9,-4.7 -11.7,-2.5 -23.6,-3.6 -35.5,-3.5 -10.8,0.1 -21.6,1.3 -32.1,3.5 -7.7,0.1 -14,7.1 -14,15.7 v 27.2 c 0,4.2 1.5,8.1 4.1,11 3.7,4.1 8.2,4.6 9.9,4.7 11,2.6 22.4,4 33.8,4 z m -40.9,-11.2 c -2,-2.3 -3.1,-5.3 -3.1,-8.5 v -27.2 c 0,-6.6 4.7,-11.9 10.4,-11.9 h 0.4 c 10.4,-2.2 21,-3.4 31.6,-3.5 11.7,-0.1 23.4,1 34.8,3.5 h 0.4 c 1,0 4.5,0.2 7.3,3.4 2,2.3 3.1,5.3 3.1,8.5 v 27.2 c 0,6.6 -4.7,11.9 -10.4,11.9 H 197 l -0.2,0.1 c -10.2,2.4 -20.6,3.8 -31,3.9 -11.8,0.2 -23.7,-1.1 -35.3,-3.9 L 130.3,186 H 130 c -1,0 -4.5,-0.3 -7.3,-3.4 z m 123.4,82.9 V 236 c 0,-6.2 -1.8,-12.3 -5.1,-17.6 v -32.1 c 0,-7.4 -2.9,-14.3 -8.1,-19.6 -1.7,-1.7 -3.6,-3.1 -5.6,-4.3 0,-0.4 0,-0.8 0,-1.2 0,-35.2 -28.6,-63.8 -63.8,-63.8 -35.2,0 -63.8,28.6 -63.8,63.8 0,0.4 0,0.8 0,1.2 -8.5,5 -13.7,14.1 -13.7,23.9 v 32.1 c -3.3,5.3 -5.1,11.3 -5.1,17.6 v 66.4 c 1.3,0.7 2.5,1.4 3.8,2.1 v -34.4 c 0.3,0.1 0.6,0.1 1,0.1 h 27.5 v 46.3 c 1.3,0.4 2.5,0.8 3.8,1.2 V 266.4 H 85.8 c -0.5,0 -1,-0.4 -1,-1 V 236 c 0,-6 1.8,-11.8 5.2,-16.7 2.3,-3.3 5.2,-6.1 8.5,-8.2 15.7,20.4 39.3,32.1 65,32.1 25.7,0 49.4,-11.7 65,-32.1 1.8,1.1 3.4,2.5 5,4 1.3,1.3 2.5,2.7 3.5,4.2 3.4,5 5.2,10.8 5.2,16.7 v 29.5 c 0,0.5 -0.4,1 -1,1 H 210 v 50.4 c 1.3,-0.4 2.6,-0.8 3.8,-1.2 v -45.3 h 27.5 c 0.3,0 0.7,0 1,-0.1 V 303 c 1.3,-0.7 2.6,-1.5 3.8,-2.3 v -35.2 c 0,0 0,0 0,0 z M 163.6,101.2 c 33.1,0 60,26.9 60,60 0,25.7 -16.3,47.7 -39.1,56.2 -0.1,0.1 -0.3,0.1 -0.4,0.2 -0.8,0.3 -1.6,0.6 -2.4,0.8 -0.2,0.1 -0.3,0.1 -0.5,0.2 -0.7,0.2 -1.4,0.4 -2,0.6 -0.2,0.1 -0.4,0.1 -0.7,0.2 -0.8,0.2 -1.5,0.4 -2.3,0.5 -0.3,0.1 -0.5,0.1 -0.8,0.2 -0.8,0.2 -1.6,0.3 -2.3,0.4 -0.2,0 -0.4,0.1 -0.5,0.1 -0.7,0.1 -1.5,0.2 -2.2,0.3 -0.2,0 -0.4,0 -0.7,0.1 -0.8,0.1 -1.7,0.1 -2.6,0.2 -0.2,0 -0.4,0 -0.6,0 -0.9,0 -1.8,0.1 -2.7,0.1 -0.9,0 -1.8,0 -2.7,-0.1 -0.2,0 -0.4,0 -0.6,0 -0.9,0 -1.7,-0.1 -2.6,-0.2 -0.2,0 -0.4,0 -0.7,-0.1 -0.7,-0.1 -1.5,-0.2 -2.2,-0.3 -0.2,0 -0.4,0 -0.5,-0.1 -0.8,-0.1 -1.6,-0.3 -2.3,-0.4 -0.3,-0.1 -0.5,-0.1 -0.8,-0.2 -0.8,-0.2 -1.5,-0.3 -2.3,-0.5 -0.2,-0.1 -0.4,-0.1 -0.7,-0.2 -0.7,-0.2 -1.4,-0.4 -2,-0.6 -0.2,-0.1 -0.3,-0.1 -0.5,-0.2 -0.8,-0.3 -1.6,-0.5 -2.4,-0.8 -0.1,-0.1 -0.3,-0.1 -0.4,-0.2 -22.8,-8.5 -39.1,-30.5 -39.1,-56.2 -0.4,-33.1 26.5,-60 59.6,-60 z M 89.9,213.4 v -27.1 c 0,-7.8 3.8,-15 10.1,-19.5 0.9,10.5 4.4,20.2 9.8,28.7 -3.7,3.2 -7.1,6.8 -10.2,10.6 -3.6,1.8 -6.9,4.2 -9.7,7.3 z m 73.7,25.9 c -24.3,0 -46.7,-10.9 -61.6,-30.1 3,-3.8 6.3,-7.4 10,-10.6 6.9,9.5 16.2,16.8 26.7,21.3 0.1,0 0.1,0 0.2,0.1 0.9,0.4 1.8,0.7 2.7,1.1 0.1,0 0.2,0.1 0.2,0.1 0.8,0.3 1.6,0.6 2.5,0.8 0.2,0.1 0.3,0.1 0.5,0.2 0.8,0.3 1.6,0.5 2.5,0.7 0.3,0.1 0.5,0.1 0.8,0.2 0.8,0.2 1.6,0.4 2.5,0.6 0.2,0 0.5,0.1 0.7,0.1 0.7,0.1 1.5,0.3 2.2,0.4 0.2,0 0.4,0.1 0.6,0.1 0.9,0.1 1.8,0.2 2.6,0.3 0.2,0 0.5,0.1 0.7,0.1 0.9,0.1 1.8,0.2 2.7,0.2 0.2,0 0.4,0 0.5,0 1,0 2,0.1 2.9,0.1 1,0 2,0 2.9,-0.1 0.2,0 0.4,0 0.5,0 0.9,0 1.8,-0.1 2.7,-0.2 0.2,0 0.5,0 0.7,-0.1 0.9,-0.1 1.8,-0.2 2.6,-0.3 0.2,0 0.4,-0.1 0.6,-0.1 0.7,-0.1 1.5,-0.3 2.2,-0.4 0.2,0 0.5,-0.1 0.7,-0.1 0.8,-0.2 1.6,-0.4 2.5,-0.6 0.3,-0.1 0.5,-0.1 0.8,-0.2 0.8,-0.2 1.7,-0.5 2.5,-0.7 0.2,-0.1 0.3,-0.1 0.5,-0.2 0.8,-0.3 1.6,-0.5 2.5,-0.8 0.1,0 0.2,-0.1 0.2,-0.1 0.9,-0.3 1.8,-0.7 2.7,-1.1 0.1,0 0.1,0 0.2,-0.1 10.5,-4.5 19.8,-11.7 26.7,-21.3 3.7,3.2 7,6.8 10,10.6 -14.8,19.1 -37.1,30.1 -61.4,30.1 z m 73.6,-26 c -0.3,-0.3 -0.6,-0.7 -1,-1 -2.6,-2.6 -5.6,-4.7 -8.8,-6.3 -3.1,-3.8 -6.5,-7.3 -10.2,-10.6 5.4,-8.4 8.9,-18.2 9.8,-28.7 1.1,0.8 2.2,1.6 3.1,2.6 4.5,4.5 7,10.5 7,16.9 v 27.1 z"
     id="path343" /><path
     class="st1"
     d="m 162.4,146.4 -31.1,28.2 c -0.5,0.5 -1.2,0.7 -1.9,0.7 -0.8,0 -1.6,-0.3 -2.1,-0.9 -1.1,-1.2 -1,-3 0.2,-4.1 l 31.1,-28.2 c 1.2,-1.1 3,-1 4.1,0.2 0.9,1.3 0.8,3.1 -0.3,4.1 z M 154.2,159 136,175.4 c -1.2,1.1 -1.3,2.9 -0.2,4.1 0.6,0.6 1.3,0.9 2.1,0.9 0.7,0 1.4,-0.2 1.9,-0.7 L 158,163.3 c 1.2,-1.1 1.3,-2.9 0.2,-4.1 -1,-1.2 -2.8,-1.2 -4,-0.2 z"
     id="path345" /></g>
</g><path
   d="m 896.29387,189.875 c -5.25,-3.75 -9.25,-7 -11,-9.25 -4,-4.75 -6.25,-10 -6.5,-10.25 -2.5,-5.75 -3.5,-11.75 -3,-18.25 v 0 c 0,-3.25 0,-33.75 0,-33.75 h -26 l -4,-7.75 h 30 v -27.25 h 8.25 v 27 h 30.25 l -4,7.75 h -26 c 0,0 0,33.25 0,36.25 0,4.5 0.75,8.75 2.5,12.5 0,0 2,4.25 5,8 1.5,1.5 4.5,4.25 8.5,7.25 z m -256.75,-2 c 0,-25.5 24.25,-31.5 73.75,-33.5 -1.5,-23.25 -9.25,-38 -36.5,-38 -7.5,0 -14.5,1.25 -21.5,4.5 l -3.75,-7.25 c 8.25,-4.25 16.75,-5.25 25.25,-5.25 32.5,0 45.25,17.5 45.25,55.25 0,37.5 -12.75,55.25 -45.25,55.25 -0.25,0 -1.5,0 -1.75,0 -27.5,-0.25 -35.5,-12.75 -35.5,-31 z m 8.75,0.25 c 0,7 1.25,12.25 4.75,16 1,1.25 2.5,2.25 4.25,3 6.5,2.75 13,3.75 19.75,3.75 30.5,0 36.75,-18.5 36.75,-47.25 0,-0.5 0,-1.25 0,-1.75 -41.75,2 -65.5,5.5 -65.5,26.25 z m 147.75,-80 h -4.75 c -31.25,0 -35.5,26.25 -35.5,49.25 v 55.5 c 2.5,2.25 5.5,4 8.5,5.5 v -58.25 c 0,-26 3.75,-44.25 28.5,-44.25 h 2.25 c 24.5,0 28.5,18.25 28.5,44.25 v 58.5 c 3,-1.5 6,-3.25 8.5,-5.5 v -55.5 c -0.5,-23.25 -5,-49.5 -36,-49.5 z m 228.75003,49.5 c -6.25,-7.25 -18.5,-11 -40.00003,-18.75 -4.75,-1.75 -9,-3.25 -13.25,-5.25 v 0 c -12.75,-5.25 -21.75,-12 -21.75,-27 0,-23 16,-30.25 36.25,-30.25 9.5,0 18.75003,1 28.00003,4.25 l 3.75,-7.25 c -10,-3.75 -20.75003,-5 -32.00003,-5 -23.5,0 -44.25,10.25 -44.25,38.5 0,16.75 8.5,26 21.5,32.25 v 0 c 2,0.75 3.5,1.5 5.25,2.25 0,0 0,0 0,0 v 0 c 4.75,2 8.25,3.5 12.75,5 21.00003,7.5 30.75003,8.75 37.75003,16.5 0.5,0.5 10.25,12 7.75,26 -1.25,7.25 -5.5,13.75 -12.25,19.5 -15.50003,12.75 -39.75003,10 -63.00003,2.25 l -4,7.75 c 12.75,4.5 26,7.5 38.5,7.5 12.75,0 24.25003,-3 33.75003,-10.75 10.5,-8.75 14.25,-18 15.25,-24.5 2.75,-17.5 -8.75,-31.5 -10,-33 z m -492.25003,116.25 c -2.25,2.25 -4.5,4.25 -7.25,5.75 -23.25,-12 -40,-32.75 -48.5,-59.75 -8,4 -17.75,6 -29.5,6 -41.5,0 -57.75,-24.25 -57.75,-76.75 0,-52.25 16.25,-76.75 57.75,-76.75 41.5,0 57.75,24.25 57.75,76.75 0,32.5 -6.25,54 -21,66 8,27.25 25,47.5 48.5,58.75 z m -36.25,-124.75 c 0,-41 -8.25,-68.75 -49.25,-68.75 -41,0 -49.25,27.5 -49.25,68.75 0,41 8.25,68.75 49.25,68.75 41,0 49.25,-27.5 49.25,-68.75 z m 794.75003,61.75 c -30.5,0 -36.75,-18.5 -36.75,-47.25 0,-28.75 6.25,-47.25 36.75,-47.25 7.75,0 15,1.25 22,4.75 l 3.75,-7.25 c -8.5,-4.25 -17.25,-5.25 -25.5,-5.25 -32.5,0 -45.25,17.5 -45.25,55.25 0,37.5 12.75,55.25 45.25,55.25 8.5,0 17.25,-1 25.75,-5.25 l -3.75,-7.25 c -7.5,3 -14.75,4.25 -22.25,4.25 z m -198.25,-9.75 c -3.25,-3.75 -5,-8 -5,-8 -1.75,-4 -2.5,-8.25 -2.5,-12.5 0,-3 0,-61.75 0,-61.75 h 30 l -4,-7.75 h -26 v -27.25 h -8.25 v 27 h -26.25 l -4,7.75 h 30.25 c 0,0 0,56 0,59.25 v 0 c -0.25,6.5 0.75,12.75 3,18.25 0,0.25 2.5,5.5 6.5,10.25 2,2.25 6,5.75 11.5,9.5 l 3.75,-7.75 c -4.5,-2.75 -7.5,-5.25 -9,-7 z m 318.5,-78 c -1.75,-2.25 -3.75,-4.25 -6,-6 l -45.75,45.5 v -55 h -1 c -2.75,0.5 -5,1.25 -7.5,2 v 106.5 c 2.75,1 5.5,1.5 8.5,2.25 v -53.25 l 44.5,44.5 c 2.25,-1.75 4.25,-3.5 6.25,-5.75 l -40,-40 z m -800.00003,-9.25 c -2.5,-2.25 -5.5,-4 -8.5,-5.5 v 58.5 c 0,26 -3.75,44.25 -28.5,44.25 h -2.25 c -24.5,0 -28.5,-18.25 -28.5,-44.25 v -58.75 c -3,1.5 -6,3.25 -8.5,5.5 v 55.5 c 0,23 4.5,49.25 35.5,49.25 h 5.25 c 31.25,0 35.5,-26.25 35.5,-49.25 z m 524.00003,74 c 0,-25.5 24.25,-31.5 73.75,-33.5 -1.5,-23.25 -9.25,-38 -36.5,-38 -7.5,0 -14.5,1.25 -21.5,4.5 l -3.75,-7.25 c 8.25,-4.25 16.75,-5.25 25.25,-5.25 32.5,0 45.25,17.5 45.25,55.25 0,37.5 -12.75,55.25 -45.25,55.25 -0.25,0 -1.5,0 -1.75,0 -27.5,-0.25 -35.5,-12.75 -35.5,-31 z m 8.75,0.25 c 0,7 1.25,12.25 4.75,16 1,1.25 2.5,2.25 4.25,3 6.5,2.75 13,3.75 19.75,3.75 30.5,0 36.75,-18.5 36.75,-47.25 0,-0.5 0,-1.25 0,-1.75 -41.75,2 -65.5,5.5 -65.5,26.25 z m -565.00003,106.5 c -5.5,-1.75 -10,-3 -10,-8.25 0,-5.75 4,-7.5 9.5,-7.5 3.75,0 7.5,0.75 10.75,2.5 l 1.75,-4.25 c -3.75,-2 -8.25,-2.5 -12.75,-2.5 -7.75,0 -14,3.5 -14,12.25 0,8.25 6.75,10.75 13,12.5 5.75,1.75 11.25,2.75 11.25,8.25 0,6.5 -4.25,8.5 -9.75,8.5 -5,0 -10,-1.5 -14,-3.75 l -1.75,4.25 c 4,2.5 9.75,4 15.75,4 8.75,0 14.75,-4 14.75,-12.75 0,-9.25 -8,-11.5 -14.5,-13.25 z m 40.5,-4.5 c 2.25,0 4.75,0.5 7,1.5 l 1.75,-3.75 c -2.5,-1.5 -5.5,-2 -8.75,-2 -9.5,0 -13.75,5.25 -13.75,17 0,11.75 4.25,17 13.75,17 3.25,0 6.25,-0.5 8.75,-2 l -1.75,-3.75 c -2.25,1.25 -4.5,1.5 -7,1.5 -6.5,0 -9,-3 -9,-13 0,-10 2.25,-12.5 9,-12.5 z m 24.25,-9.25 c 2,0 3,-0.75 3,-2.75 0,-2 -1.25,-2.75 -3,-2.75 -2,0 -3,0.75 -3,2.75 0,2 1,2.75 3,2.75 z m 2.25,5.75 -4.75,0.75 v 20.75 c 0,4.25 0.25,8 1.25,11.25 h 4.5 c -1,-3.5 -1,-7.25 -1,-11 z m 40.75,17.25 v 0.5 l -21.75,1.75 c 0.25,7.75 3.5,10 9.5,10 3.25,0 6.25,-0.75 9.25,-2.5 l 1.75,3.5 c -3.25,2.25 -7,3 -11,3 -8.5,0 -14.25,-3.5 -14.25,-17 0,-14.25 6.5,-17 13.5,-17 8.25,-0.25 13,3.75 13,17.75 z m -4.5,-3 c -0.25,-8.25 -3.25,-11 -8.25,-11 -5.5,0 -9,3 -9,11.75 v 0.75 z m 33,-15 c -5.5,0 -8.75,1.75 -10.75,5.25 -0.25,-1.75 -0.75,-3.25 -1.25,-4.75 l -4,1 c 1,3.5 1.25,7.5 1.25,11.25 v 20.75 h 4.75 v -23 c 2,-4.25 4.5,-6.5 9.25,-6.5 6.75,0 7.25,4.5 7.25,11.75 v 17.75 h 4.75 v -18.75 c -0.25,-7.5 -1.75,-14.75 -11.25,-14.75 z m 32.75,-9.75 -4.75,0.75 v 10 h -5.5 v 4 h 5.5 v 13 c 0,7.25 0.5,12.5 5.75,16.5 l 3.25,-2.75 c -4,-3.75 -4,-7 -4,-12.5 v -14.25 h 6.75 l 0.5,-4 h -7.25 v -10.75 z m 21.5,4.75 c 2,0 3,-0.75 3,-2.75 0,-2 -1.25,-2.75 -3,-2.75 -2,0 -3,0.75 -3,2.75 0,2 1.25,2.75 3,2.75 z m 2.5,5.75 -4.75,0.75 v 20.75 c 0,4.25 0.25,8 1.25,11.25 h 4.5 c -1,-3.5 -1,-7.25 -1,-11 z m 27,-9.25 c 0.75,0 1.75,0.25 2.75,0.5 l 0.75,-4 c -1.25,-0.25 -2.5,-0.5 -3.75,-0.5 -7,0 -9.25,4 -9.25,9.5 0,1.5 0.25,3 0.5,4.5 h -5.5 v 4 h 5.5 v 28 h 4.75 v -28 h 7 l 0.5,-4 h -7.5 c -0.5,-1.25 -0.5,-3 -0.5,-4.25 -0.5,-4 0.5,-5.75 4.75,-5.75 z m 18,3.5 c 2,0 3,-0.75 3,-2.75 0,-2 -1.25,-2.75 -3,-2.75 -2,0 -3,0.75 -3,2.75 0,2 1,2.75 3,2.75 z m 2.25,5.75 -4.75,0.75 v 20.75 c 0,4.25 0.25,8 1.25,11.25 h 4.5 c -1,-3.5 -1,-7.25 -1,-11 z m 28.25,3.5 c 2.25,0 4.75,0.5 7,1.5 l 1.75,-3.75 c -2.5,-1.5 -5.5,-2 -8.75,-2 -9.5,0 -13.75,5.25 -13.75,17 0,11.75 4.25,17 13.75,17 3.25,0 6.25,-0.5 8.75,-2 l -1.75,-3.75 c -2.25,1.25 -4.5,1.5 -7,1.5 -6.5,0 -9,-3 -9,-13 0,-10 2.25,-12.5 9,-12.5 z m 57.25,-11.25 c 3.5,0 7,0.75 10.25,2.5 l 2,-4 c -3.5,-2.25 -8,-2.75 -12.5,-2.75 -10.25,0 -17.25,5.25 -17.25,23 0,17.75 7.25,23 17.25,23 4.5,0 9,-0.5 12.5,-2.75 l -2,-4 c -3.25,2 -6.75,2.5 -10.25,2.5 -7.75,0 -12.75,-3 -12.75,-18.5 0,-15.5 5.25,-19 12.75,-19 z m 51.25,24.25 c 0,11.75 -4,17 -14.25,17 -10.25,0 -14.25,-5.5 -14.25,-17 0,-11.75 4,-17 14.25,-17 10.25,-0.25 14.25,5.25 14.25,17 z m -4.75,0 c 0,-8.25 -1.5,-13 -9.5,-13 -8,0 -9.5,5 -9.5,13 0,8 1.5,13 9.5,13 8,0 9.5,-5 9.5,-13 z m 53.50003,-17.25 c -5.50003,0 -8.75003,1.75 -11.25003,5.75 -1.5,-3.5 -4.25,-5.75 -9.25,-5.75 -5.25,0 -8.5,1.75 -10.5,5.25 -0.25,-1.75 -0.75,-3.25 -1.25,-4.75 l -4,1 c 1,3.5 1.25,7.5 1.25,11.25 v 20.75 h 4.75 v -23 c 2,-4.25 4.25,-6.5 8.75,-6.5 5.75,0 7,3.5 7,8.25 v 21.25 h 4.75 v -23 c 2,-4.25 4.25,-6.5 8.75003,-6.5 6.5,0 7,4.5 7,11.75 v 17.75 h 4.75 v -18.75 c 0,-7.5 -1.5,-14.75 -10.75,-14.75 z m 51.75,17.25 c 0,14.25 -6.75,17 -13.25,17 -3.25,0 -6,-0.5 -8.5,-2 0.25,2.25 0.25,4.25 0.25,6.25 v 4.75 h -4.75 v -30.5 c 0,-4 -0.25,-7.75 -1.25,-11.25 l 4,-1 c 0.5,1.5 1,3.25 1.25,4.75 2,-3.5 5.25,-5.25 10.5,-5.25 8.25,0 11.75,5.75 11.75,17.25 z m -4.75,0 c 0,-8 -1.5,-13.25 -7.75,-13.25 -4.75,0 -7,2.5 -9.25,6.5 v 17.75 c 2.5,1.5 5.25,2 8,2 5.75,0 9,-2.25 9,-13 z m 44,-16.5 -4.75,0.75 v 22.25 c -2,4.25 -4.5,6.5 -9.25,6.5 -6.75,0 -7.25,-4.5 -7.25,-11.75 v -17.75 l -4.75,0.75 v 18 c 0,7.75 1.5,14.75 11,14.75 5.5,0 8.75,-1.75 10.75,-5.25 0.25,1.75 0.75,3.25 1.25,4.75 l 4,-1 c -1,-3.5 -1.25,-7.5 -1.25,-11.25 v -20.75 z m 22.25,-10.5 -4.75,0.75 v 10 h -5.5 v 4 h 5.5 v 13 c 0,7.25 0.5,12.5 5.75,16.5 l 3.25,-2.75 c -4,-3.75 -4,-7 -4,-12.5 v -14.25 h 6.75 l 0.5,-4 h -7.25 v -10.75 z m 21.5,4.75 c 2,0 3,-0.75 3,-2.75 0,-2 -1.25,-2.75 -3,-2.75 -2,0 -3,0.75 -3,2.75 0,2 1,2.75 3,2.75 z m 2.25,5.75 -4.75,0.75 v 20.75 c 0,4.25 0.25,8 1.25,11.25 h 4.5 c -1,-3.5 -1,-7.25 -1,-11 z m 30.25,-0.75 c -5.5,0 -8.75,1.75 -10.75,5.25 -0.25,-1.75 -0.75,-3.25 -1.25,-4.75 l -4,1 c 1,3.5 1.25,7.5 1.25,11.25 v 20.75 h 4.75 v -23 c 2,-4.25 4.5,-6.5 9.25,-6.5 6.75,0 7.25,4.5 7.25,11.75 v 17.75 h 4.75 v -18.75 c -0.25,-7.5 -1.75,-14.75 -11.25,-14.75 z m 38,0 c 4.5,0 8.75,0.5 12.75,2 v 29 c 0,9 -4.75,12.75 -12.5,12.75 -3,0 -6.25,-0.5 -9,-1.75 l 1.25,-3.75 c 2.25,1.25 5,1.75 8,1.75 4.75,0 7.75,-2.25 7.75,-9 v -2.25 c -1.75,3.25 -5,4.5 -10,4.5 -8.25,0 -11.75,-5.5 -11.75,-16.75 0,-13.25 6,-16.5 13.5,-16.5 z m 8.25,5.25 c -2.5,-1 -5.5,-1.25 -8.25,-1.25 -5.5,0 -8.75,2.5 -8.75,12.75 0,7.75 1.5,12.75 7.75,12.75 4.75,0 7,-2.25 9.25,-6.25 z"
   id="path3"
   style="stroke-width:2.5" />
</svg>
