<?xml version="1.0" encoding="UTF-8" standalone="no"?>
<!-- Generator: Adobe Illustrator 21.0.2, SVG Export Plug-In . SVG Version: 6.00 Build 0)  -->

<svg
   version="1.1"
   id="Mode_Isolation"
   x="0px"
   y="0px"
   viewBox="0 0 1264.2064 329.99999"
   xml:space="preserve"
   width="1264.2064"
   height="330"
   xmlns="http://www.w3.org/2000/svg"
   xmlns:svg="http://www.w3.org/2000/svg"><defs
   id="defs352" />
<style
   type="text/css"
   id="style315">
	.st0{fill:#F7F187;}
	.st1{fill:#FFFFFF;}
	.st2{fill:none;stroke:#FFFFFF;stroke-width:1.3063;stroke-miterlimit:10;}
	.st3{fill:none;stroke:#F7F187;stroke-width:1.3063;stroke-miterlimit:10;}
	.st4{fill:#050C4E;}
	.st5{fill:none;}
</style>
<g
   id="g347">
	
	
	
	
	
	
	
	
	
	
	
	
	<g
   id="g519"
   transform="scale(1.0277778,1.0178902)"><circle
     class="st0"
     cx="162"
     cy="162"
     r="162"
     id="circle317" /><path
     class="st1"
     d="M 154.7,279.3 C 133.4,272.6 121,265.4 110,259.2 97.5,252 87.6,246.4 70,244.9 c -14.1,-1.2 -28.7,0.6 -43.8,5.5 0.2,0.4 0.5,0.7 0.7,1.1 14.8,-4.7 29.2,-6.5 43,-5.3 17.3,1.5 27.1,7.1 39.5,14.2 11,6.3 23.5,13.5 44.9,20.2 14,4.4 39.7,12.6 70.1,12.6 9.3,0 19,-0.8 29,-2.6 3.6,-0.7 7,-1.4 10.3,-2.3 0.8,-0.6 1.5,-1.2 2.3,-1.9 -4.1,1.1 -8.3,2.2 -12.8,3 -42.4,7.7 -80.3,-4.3 -98.5,-10.1 z m 0,-16.8 C 133.4,255.8 121,248.6 110,242.4 97.5,235.2 87.6,229.6 70,228.1 c -16.6,-1.4 -34,1.4 -51.9,8.4 0.2,0.4 0.4,0.7 0.6,1.1 17.7,-6.9 34.9,-9.7 51.2,-8.3 17.3,1.5 27.1,7.1 39.5,14.2 11,6.3 23.5,13.5 44.9,20.2 14,4.4 39.7,12.6 70.1,12.6 9.3,0 19,-0.8 29,-2.6 14.1,-2.6 26.1,-6.9 36.4,-12 0.6,-0.7 1.1,-1.5 1.7,-2.2 -10.6,5.5 -23.3,10.2 -38.3,13 -42.4,7.8 -80.3,-4.2 -98.5,-10 z m 0,-16.8 C 133.4,239 121,231.8 110,225.6 97.5,218.4 87.6,212.8 70,211.3 c -18.6,-1.6 -38.2,2.1 -58.4,11.1 0.1,0.4 0.3,0.7 0.5,1.1 20,-8.9 39.4,-12.6 57.8,-11 17.3,1.5 27.1,7.1 39.5,14.2 11,6.3 23.5,13.5 44.9,20.2 14,4.4 39.7,12.6 70.1,12.6 9.3,0 19,-0.8 29,-2.6 22.8,-4.2 40.4,-12.9 53.4,-22 0.4,-0.8 0.8,-1.5 1.1,-2.3 -13.1,9.5 -31.1,18.7 -54.8,23.1 -42.3,7.7 -80.2,-4.3 -98.4,-10 z m 0,25.2 C 133.4,264.2 121,257 110,250.8 97.5,243.6 87.6,238 70,236.5 c -15.4,-1.3 -31.5,1 -48.1,7 0.2,0.4 0.4,0.7 0.6,1.1 16.3,-5.8 32.2,-8.1 47.3,-6.8 17.3,1.5 27.1,7.1 39.5,14.2 11,6.3 23.5,13.5 44.9,20.2 14,4.4 39.7,12.6 70.1,12.6 9.3,0 19,-0.8 29,-2.6 9,-1.7 17.1,-4 24.5,-6.8 0.7,-0.7 1.3,-1.4 2,-2.1 -8,3.2 -16.9,5.9 -26.7,7.7 -42.3,7.7 -80.2,-4.3 -98.4,-10.1 z m 0,16.8 C 133.4,281 121,273.8 110,267.6 97.5,260.4 87.6,254.8 70,253.3 c -12.6,-1.1 -25.6,0.3 -39,4 0.3,0.3 0.5,0.7 0.8,1 13.1,-3.6 25.8,-4.9 38.1,-3.9 17.3,1.5 27.1,7.1 39.5,14.2 11,6.3 23.5,13.5 44.9,20.2 14,4.4 39.7,12.6 70.1,12.6 7.4,0 15,-0.5 22.8,-1.6 0.9,-0.5 1.7,-1.1 2.5,-1.6 -40.9,6.7 -77.3,-4.8 -95,-10.5 z m 98.5,-57.4 c -42.4,7.9 -80.3,-4.2 -98.6,-9.9 -21.3,-6.7 -33.7,-13.9 -44.7,-20.1 -12.5,-7.2 -22.4,-12.8 -40,-14.3 -20.7,-1.8 -42.7,3.1 -65.4,14.4 0.1,0.4 0.2,0.8 0.3,1.2 22.6,-11.3 44.4,-16.1 65,-14.4 17.3,1.5 27.1,7.1 39.5,14.2 11,6.3 23.5,13.5 44.9,20.2 14,4.4 39.7,12.6 70.1,12.6 9.3,0 19,-0.8 29,-2.6 34.2,-6.4 55.7,-21.5 65.8,-30.3 0.2,-0.7 0.3,-1.4 0.5,-2.1 -9.2,8.5 -30.9,24.6 -66.4,31.1 z m -98.5,-1.5 C 133.4,222.1 121,214.9 110,208.7 97.5,201.5 87.6,195.9 70,194.4 c -20.1,-1.7 -41.4,2.8 -63.4,13.4 0.1,0.4 0.2,0.8 0.3,1.2 21.9,-10.6 43,-15.1 63,-13.4 17.3,1.5 27.1,7.1 39.5,14.2 11,6.3 23.5,13.5 44.9,20.2 14,4.4 39.7,12.6 70.1,12.6 9.3,0 19,-0.8 29,-2.6 29.2,-5.4 49.9,-18.2 63.3,-29.7 0.2,-0.7 0.4,-1.4 0.6,-2.2 -13.2,11.7 -34.2,25.1 -64.2,30.7 -42.3,7.8 -80.2,-4.2 -98.4,-10 z m 0,25.3 C 133.4,247.4 121,240.2 110,234 97.5,226.8 87.6,221.2 70,219.7 c -17.7,-1.5 -36.2,1.8 -55.3,9.8 0.2,0.4 0.3,0.7 0.5,1.1 18.9,-7.9 37.3,-11.2 54.7,-9.7 17.3,1.5 27.1,7.1 39.5,14.2 11,6.3 23.5,13.5 44.9,20.2 14,4.4 39.7,12.6 70.1,12.6 9.3,0 19,-0.8 29,-2.6 18.7,-3.5 33.9,-10 45.9,-17.2 0.5,-0.8 1,-1.5 1.4,-2.3 -12.2,7.7 -28,14.6 -47.6,18.3 -42.3,7.8 -80.2,-4.2 -98.4,-10 z m 0,-16.9 C 133.4,230.5 121,223.3 110,217.1 97.5,209.9 87.6,204.3 70,202.8 c -19.4,-1.7 -39.9,2.5 -61.1,12.3 0.1,0.4 0.3,0.8 0.4,1.1 21,-9.8 41.3,-13.9 60.6,-12.2 17.3,1.5 27.1,7.1 39.5,14.2 11,6.3 23.5,13.5 44.9,20.2 14,4.4 39.7,12.6 70.1,12.6 9.3,0 19,-0.8 29,-2.6 26.3,-4.9 45.7,-15.7 59.1,-26.2 0.3,-0.7 0.6,-1.5 0.9,-2.2 -13.3,10.8 -33,22.2 -60.2,27.3 -42.4,7.7 -80.3,-4.3 -98.5,-10.1 z"
     id="path319" /><path
     class="st2"
     d="m 73.6,130.3 c -16.2,5.1 -28.1,5.9 -30.7,1 C 38.5,123.1 62,102 95.2,84.3 128.4,66.6 159,59 163.4,67.2 c 2.5,4.8 -4.3,13.9 -16.9,24.1"
     id="path321" /><path
     class="st3"
     d="M 151.3,77.5"
     id="path323" /><path
     class="st3"
     d="m 92,74.9 c 3.5,-2 7.1,-4 10.9,-6 3.4,-1.8 6.7,-3.5 10,-5.1"
     id="path325" /><path
     class="st1"
     d="m 164,66.9 c -2.7,-5 -14,-4.7 -29.6,0.1 -8.1,-7.9 -19.1,-12.8 -31.2,-12.8 -24.6,0 -44.6,20 -44.6,44.7 0,2.7 0.3,5.4 0.7,8 -12.9,10.4 -19.6,19.7 -16.9,24.8 1.3,2.4 4.6,3.6 9.6,3.6 0.7,0 1.5,0 2.2,-0.1 0.5,2 2.2,3.4 4.4,3.4 2.5,0 4.5,-2 4.5,-4.5 0,-0.1 0,-0.2 0,-0.2 3,-0.6 6.2,-1.5 9.6,-2.5 8,7.5 18.7,12.1 30.6,12.1 24.6,0 44.6,-20 44.6,-44.6 0,-2.5 -0.2,-4.9 -0.6,-7.3 C 160.4,80.8 166.6,71.8 164,66.9 Z M 61.1,98.8 c 0,-23.2 18.9,-42 42,-42 10.9,0 20.9,4.2 28.4,11.1 -5.1,1.7 -10.6,3.7 -16.4,6.2 -0.9,-1.4 -2.4,-2.3 -4.2,-2.3 -2.7,0 -5,2.2 -5,5 0,0.5 0.1,0.9 0.2,1.3 -0.4,0.2 -0.7,0.4 -1.1,0.5 -0.1,0 -0.1,0.1 -0.2,0.1 -1.5,0.7 -3,1.5 -4.6,2.2 -0.3,0.1 -0.6,0.3 -0.9,0.4 -1.5,0.8 -3,1.5 -4.5,2.4 -0.9,0.5 -1.9,1 -2.8,1.5 -0.4,0.2 -0.7,0.4 -1.1,0.6 -0.5,0.3 -1.1,0.6 -1.6,0.9 -0.5,0.3 -0.9,0.5 -1.4,0.8 -0.4,0.2 -0.7,0.4 -1.1,0.6 -9.7,5.6 -18.3,11.3 -25.3,16.8 -0.3,-1.9 -0.4,-4 -0.4,-6.1 z m -2.7,30.8 c -2.4,0 -4.4,1.9 -4.5,4.3 -5.6,0.4 -9.3,-0.6 -10.5,-2.9 -2.3,-4.4 4.2,-12.9 16.1,-22.7 1.8,8.5 6.1,16 12,22 -3.2,1 -6.1,1.7 -8.8,2.3 -0.7,-1.7 -2.3,-3 -4.3,-3 z m 44.7,11.3 C 82.5,140.9 65.4,126.1 61.8,106.5 70,100 80.5,93.2 92.2,86.7 c 0.2,-0.1 0.3,-0.2 0.5,-0.3 0.9,-0.5 1.9,-1 2.9,-1.5 1.4,-0.8 2.8,-1.5 4.2,-2.2 0.5,-0.2 0.9,-0.5 1.4,-0.7 1.2,-0.6 2.3,-1.1 3.5,-1.7 0.7,-0.3 1.4,-0.7 2.1,-1 0.9,1.4 2.4,2.4 4.2,2.4 2.7,0 5,-2.2 5,-5 0,-0.5 -0.1,-1 -0.3,-1.5 6,-2.5 11.7,-4.7 17,-6.4 7.7,7.6 12.5,18.2 12.5,29.9 -0.1,23.3 -18.9,42.2 -42.1,42.2 z m 43.8,-50.8 c -1.7,-8.4 -5.8,-16 -11.5,-22 14.5,-4.3 25.1,-4.9 27.4,-0.5 2.2,4.1 -3.7,12.5 -15.9,22.5 z"
     id="path327" /><circle
     class="st0"
     cx="153.5"
     cy="98.800003"
     r="5"
     id="circle329" /><g
     id="g335">
		<path
   class="st0"
   d="m 134.4,295 c -0.5,-0.5 -0.8,-1.2 -0.8,-2 v -33.9 c 0,-1.6 1.3,-2.9 2.9,-2.9 h 54.2 c 0.8,0 1.5,0.3 2,0.8 0.5,0.5 0.8,1.3 0.8,2 v 33.9 c 0,0.8 -0.3,1.5 -0.8,2 -0.5,0.5 -1.3,0.8 -2,0.8 h -54.2 c -0.9,0.1 -1.6,-0.2 -2.1,-0.7 z"
   id="path331" />
		<path
   class="st4"
   d="m 190.7,297.8 h -54.2 c -1.3,0 -2.5,-0.5 -3.4,-1.4 v 0 c -0.9,-0.9 -1.4,-2.1 -1.4,-3.4 v -33.9 c 0,-2.6 2.2,-4.8 4.8,-4.8 h 54.2 c 1.3,0 2.5,0.5 3.4,1.4 0.9,0.9 1.4,2.1 1.4,3.4 V 293 c 0,1.3 -0.5,2.5 -1.4,3.4 -0.9,0.9 -2.1,1.4 -3.4,1.4 z M 136.4,258 c -0.5,0 -1,0.4 -1,1 v 33.9 c 0,0.3 0.1,0.5 0.3,0.7 v 0 c 0.2,0.2 0.4,0.3 0.7,0.3 h 54.2 c 0.3,0 0.5,-0.1 0.7,-0.3 0.2,-0.2 0.3,-0.4 0.3,-0.7 V 259 c 0,-0.3 -0.1,-0.5 -0.3,-0.7 -0.2,-0.2 -0.4,-0.3 -0.7,-0.3 z"
   id="path333" />
	</g><path
     class="st0"
     d="m 214.8,195.8 c -11.1,16.4 -29.9,27.2 -51.3,27.2 -21.4,0 -40.1,-10.8 -51.3,-27.2 -4.7,4 -9,8.5 -12.8,13.4 14.6,19.4 37.8,32 64,32 26.2,0 49.4,-12.6 64,-32 -3.5,-4.9 -7.8,-9.4 -12.6,-13.4 z"
     id="path337" /><circle
     class="st5"
     cx="162"
     cy="162"
     r="162"
     id="circle339" /><path
     class="st0"
     d="m 244.2,236 c 0,-6.1 -1.8,-11.9 -5.1,-17 v -32.7 c 0,-6.9 -2.7,-13.3 -7.6,-18.2 -1.8,-1.8 -3.8,-3.3 -5.9,-4.4 -0.1,0 -0.2,-0.1 -0.3,-0.1 0,-0.8 0.1,-1.6 0.1,-2.3 0,-34.2 -27.7,-61.9 -61.9,-61.9 -34.2,0 -61.9,27.7 -61.9,61.9 0,0.8 0,1.6 0.1,2.3 -0.1,0 -0.2,0.1 -0.3,0.1 -8.3,4.5 -13.5,13.2 -13.5,22.7 v 32.7 c -3.3,5.1 -5.1,11 -5.1,17 v 29.5 38 c 23.4,13.1 50.4,20.6 79.1,20.6 30,0 58.1,-8.2 82.2,-22.4 v -36.2 c 0,0 0,0 0,0 z"
     id="path341" /><path
     class="st4"
     d="m 190.7,254.2 h -54.2 c -2.6,0 -4.8,2.2 -4.8,4.8 v 33.9 c 0,1.3 0.5,2.5 1.4,3.4 v 0 c 0,0 0,0 0,0 0.9,0.9 2.1,1.4 3.4,1.4 h 54.2 c 1.3,0 2.5,-0.5 3.4,-1.4 0.9,-0.9 1.4,-2.1 1.4,-3.4 V 259 c 0,-1.3 -0.5,-2.5 -1.4,-3.4 -0.9,-0.9 -2.1,-1.4 -3.4,-1.4 z m 1,38.7 c 0,0.3 -0.1,0.5 -0.3,0.7 -0.2,0.2 -0.4,0.3 -0.7,0.3 h -54.2 c -0.3,0 -0.5,-0.1 -0.7,-0.3 v 0 c -0.2,-0.2 -0.3,-0.4 -0.3,-0.7 V 259 c 0,-0.5 0.4,-1 1,-1 h 54.2 c 0.3,0 0.5,0.1 0.7,0.3 0.2,0.2 0.3,0.4 0.3,0.7 z m -28.1,-99.1 c 0.7,0 1.5,0 2.2,0 10.6,-0.2 21.2,-1.5 31.6,-4 7.7,-0.1 14,-7.1 14,-15.7 v -27.2 c 0,-4.2 -1.5,-8.1 -4.1,-11 -3.7,-4.1 -8.3,-4.6 -9.9,-4.7 -11.7,-2.5 -23.6,-3.6 -35.5,-3.5 -10.8,0.1 -21.6,1.3 -32.1,3.5 -7.7,0.1 -14,7.1 -14,15.7 v 27.2 c 0,4.2 1.5,8.1 4.1,11 3.7,4.1 8.2,4.6 9.9,4.7 11,2.6 22.4,4 33.8,4 z m -40.9,-11.2 c -2,-2.3 -3.1,-5.3 -3.1,-8.5 v -27.2 c 0,-6.6 4.7,-11.9 10.4,-11.9 h 0.4 c 10.4,-2.2 21,-3.4 31.6,-3.5 11.7,-0.1 23.4,1 34.8,3.5 h 0.4 c 1,0 4.5,0.2 7.3,3.4 2,2.3 3.1,5.3 3.1,8.5 v 27.2 c 0,6.6 -4.7,11.9 -10.4,11.9 H 197 l -0.2,0.1 c -10.2,2.4 -20.6,3.8 -31,3.9 -11.8,0.2 -23.7,-1.1 -35.3,-3.9 L 130.3,186 H 130 c -1,0 -4.5,-0.3 -7.3,-3.4 z m 123.4,82.9 V 236 c 0,-6.2 -1.8,-12.3 -5.1,-17.6 v -32.1 c 0,-7.4 -2.9,-14.3 -8.1,-19.6 -1.7,-1.7 -3.6,-3.1 -5.6,-4.3 0,-0.4 0,-0.8 0,-1.2 0,-35.2 -28.6,-63.8 -63.8,-63.8 -35.2,0 -63.8,28.6 -63.8,63.8 0,0.4 0,0.8 0,1.2 -8.5,5 -13.7,14.1 -13.7,23.9 v 32.1 c -3.3,5.3 -5.1,11.3 -5.1,17.6 v 66.4 c 1.3,0.7 2.5,1.4 3.8,2.1 v -34.4 c 0.3,0.1 0.6,0.1 1,0.1 h 27.5 v 46.3 c 1.3,0.4 2.5,0.8 3.8,1.2 V 266.4 H 85.8 c -0.5,0 -1,-0.4 -1,-1 V 236 c 0,-6 1.8,-11.8 5.2,-16.7 2.3,-3.3 5.2,-6.1 8.5,-8.2 15.7,20.4 39.3,32.1 65,32.1 25.7,0 49.4,-11.7 65,-32.1 1.8,1.1 3.4,2.5 5,4 1.3,1.3 2.5,2.7 3.5,4.2 3.4,5 5.2,10.8 5.2,16.7 v 29.5 c 0,0.5 -0.4,1 -1,1 H 210 v 50.4 c 1.3,-0.4 2.6,-0.8 3.8,-1.2 v -45.3 h 27.5 c 0.3,0 0.7,0 1,-0.1 V 303 c 1.3,-0.7 2.6,-1.5 3.8,-2.3 z M 163.6,101.2 c 33.1,0 60,26.9 60,60 0,25.7 -16.3,47.7 -39.1,56.2 -0.1,0.1 -0.3,0.1 -0.4,0.2 -0.8,0.3 -1.6,0.6 -2.4,0.8 -0.2,0.1 -0.3,0.1 -0.5,0.2 -0.7,0.2 -1.4,0.4 -2,0.6 -0.2,0.1 -0.4,0.1 -0.7,0.2 -0.8,0.2 -1.5,0.4 -2.3,0.5 -0.3,0.1 -0.5,0.1 -0.8,0.2 -0.8,0.2 -1.6,0.3 -2.3,0.4 -0.2,0 -0.4,0.1 -0.5,0.1 -0.7,0.1 -1.5,0.2 -2.2,0.3 -0.2,0 -0.4,0 -0.7,0.1 -0.8,0.1 -1.7,0.1 -2.6,0.2 -0.2,0 -0.4,0 -0.6,0 -0.9,0 -1.8,0.1 -2.7,0.1 -0.9,0 -1.8,0 -2.7,-0.1 -0.2,0 -0.4,0 -0.6,0 -0.9,0 -1.7,-0.1 -2.6,-0.2 -0.2,0 -0.4,0 -0.7,-0.1 -0.7,-0.1 -1.5,-0.2 -2.2,-0.3 -0.2,0 -0.4,0 -0.5,-0.1 -0.8,-0.1 -1.6,-0.3 -2.3,-0.4 -0.3,-0.1 -0.5,-0.1 -0.8,-0.2 -0.8,-0.2 -1.5,-0.3 -2.3,-0.5 -0.2,-0.1 -0.4,-0.1 -0.7,-0.2 -0.7,-0.2 -1.4,-0.4 -2,-0.6 -0.2,-0.1 -0.3,-0.1 -0.5,-0.2 -0.8,-0.3 -1.6,-0.5 -2.4,-0.8 -0.1,-0.1 -0.3,-0.1 -0.4,-0.2 -22.8,-8.5 -39.1,-30.5 -39.1,-56.2 -0.4,-33.1 26.5,-60 59.6,-60 z M 89.9,213.4 v -27.1 c 0,-7.8 3.8,-15 10.1,-19.5 0.9,10.5 4.4,20.2 9.8,28.7 -3.7,3.2 -7.1,6.8 -10.2,10.6 -3.6,1.8 -6.9,4.2 -9.7,7.3 z m 73.7,25.9 c -24.3,0 -46.7,-10.9 -61.6,-30.1 3,-3.8 6.3,-7.4 10,-10.6 6.9,9.5 16.2,16.8 26.7,21.3 0.1,0 0.1,0 0.2,0.1 0.9,0.4 1.8,0.7 2.7,1.1 0.1,0 0.2,0.1 0.2,0.1 0.8,0.3 1.6,0.6 2.5,0.8 0.2,0.1 0.3,0.1 0.5,0.2 0.8,0.3 1.6,0.5 2.5,0.7 0.3,0.1 0.5,0.1 0.8,0.2 0.8,0.2 1.6,0.4 2.5,0.6 0.2,0 0.5,0.1 0.7,0.1 0.7,0.1 1.5,0.3 2.2,0.4 0.2,0 0.4,0.1 0.6,0.1 0.9,0.1 1.8,0.2 2.6,0.3 0.2,0 0.5,0.1 0.7,0.1 0.9,0.1 1.8,0.2 2.7,0.2 0.2,0 0.4,0 0.5,0 1,0 2,0.1 2.9,0.1 1,0 2,0 2.9,-0.1 0.2,0 0.4,0 0.5,0 0.9,0 1.8,-0.1 2.7,-0.2 0.2,0 0.5,0 0.7,-0.1 0.9,-0.1 1.8,-0.2 2.6,-0.3 0.2,0 0.4,-0.1 0.6,-0.1 0.7,-0.1 1.5,-0.3 2.2,-0.4 0.2,0 0.5,-0.1 0.7,-0.1 0.8,-0.2 1.6,-0.4 2.5,-0.6 0.3,-0.1 0.5,-0.1 0.8,-0.2 0.8,-0.2 1.7,-0.5 2.5,-0.7 0.2,-0.1 0.3,-0.1 0.5,-0.2 0.8,-0.3 1.6,-0.5 2.5,-0.8 0.1,0 0.2,-0.1 0.2,-0.1 0.9,-0.3 1.8,-0.7 2.7,-1.1 0.1,0 0.1,0 0.2,-0.1 10.5,-4.5 19.8,-11.7 26.7,-21.3 3.7,3.2 7,6.8 10,10.6 -14.8,19.1 -37.1,30.1 -61.4,30.1 z m 73.6,-26 c -0.3,-0.3 -0.6,-0.7 -1,-1 -2.6,-2.6 -5.6,-4.7 -8.8,-6.3 -3.1,-3.8 -6.5,-7.3 -10.2,-10.6 5.4,-8.4 8.9,-18.2 9.8,-28.7 1.1,0.8 2.2,1.6 3.1,2.6 4.5,4.5 7,10.5 7,16.9 v 27.1 z"
     id="path343" /><path
     class="st1"
     d="m 162.4,146.4 -31.1,28.2 c -0.5,0.5 -1.2,0.7 -1.9,0.7 -0.8,0 -1.6,-0.3 -2.1,-0.9 -1.1,-1.2 -1,-3 0.2,-4.1 l 31.1,-28.2 c 1.2,-1.1 3,-1 4.1,0.2 0.9,1.3 0.8,3.1 -0.3,4.1 z M 154.2,159 136,175.4 c -1.2,1.1 -1.3,2.9 -0.2,4.1 0.6,0.6 1.3,0.9 2.1,0.9 0.7,0 1.4,-0.2 1.9,-0.7 L 158,163.3 c 1.2,-1.1 1.3,-2.9 0.2,-4.1 -1,-1.2 -2.8,-1.2 -4,-0.2 z"
     id="path345" /></g>
</g><path
   d="m 800.70637,190.7875 c -4.725,-3.375 -8.325,-6.3 -9.9,-8.325 -3.6,-4.275 -5.625,-9 -5.85,-9.225 -2.25,-5.175 -3.15,-10.575 -2.7,-16.425 v 0 c 0,-2.925 0,-30.375 0,-30.375 h -23.4 l -3.6,-6.975 h 27 v -24.525 h 7.425 v 24.3 h 27.225 l -3.6,6.975 h -23.4 c 0,0 0,29.925 0,32.625 0,4.05 0.675,7.875 2.25,11.25 0,0 1.8,3.825 4.5,7.2 1.35,1.35 4.05,3.825 7.65,6.525 z m -231.075,-1.8 c 0,-22.95 21.825,-28.35 66.375,-30.15 -1.35,-20.925 -8.325,-34.2 -32.85,-34.2 -6.75,0 -13.05,1.125 -19.35,4.05 l -3.375,-6.525 c 7.425,-3.825 15.075,-4.725 22.725,-4.725 29.25,0 40.725,15.75 40.725,49.725 0,33.75 -11.475,49.725 -40.725,49.725 -0.225,0 -1.35,0 -1.575,0 -24.75,-0.225 -31.95,-11.475 -31.95,-27.9 z m 7.875,0.225 c 0,6.3 1.125,11.025 4.275,14.4 0.9,1.125 2.25,2.025 3.825,2.7 5.85,2.475 11.7,3.375 17.775,3.375 27.45,0 33.075,-16.65 33.075,-42.525 0,-0.45 0,-1.125 0,-1.575 -37.575,1.8 -58.95,4.95 -58.95,23.625 z m 132.975,-72 h -4.275 c -28.125,0 -31.95,23.625 -31.95,44.325 v 49.95 c 2.25,2.025 4.95,3.6 7.65,4.95 v -52.425 c 0,-23.4 3.375,-39.825 25.65,-39.825 h 2.025 c 22.05,0 25.65,16.425 25.65,39.825 v 52.65 c 2.7,-1.35 5.4,-2.925 7.65,-4.95 v -49.95 c -0.45,-20.925 -4.5,-44.55 -32.4,-44.55 z m 205.87503,44.55 c -5.625,-6.525 -16.65,-9.9 -36.00003,-16.875 -4.275,-1.575 -8.1,-2.925 -11.925,-4.725 v 0 c -11.475,-4.725 -19.575,-10.8 -19.575,-24.3 0,-20.7 14.4,-27.225 32.625,-27.225 8.55,0 16.87503,0.9 25.20003,3.825 l 3.375,-6.525 c -9,-3.375 -18.67503,-4.5 -28.80003,-4.5 -21.15,0 -39.825,9.225 -39.825,34.65 0,15.075 7.65,23.4 19.35,29.025 v 0 c 1.8,0.675 3.15,1.35 4.725,2.025 0,0 0,0 0,0 v 0 c 4.275,1.8 7.425,3.15 11.475,4.5 18.90003,6.75 27.67503,7.875 33.97503,14.85 0.45,0.45 9.225,10.8 6.975,23.4 -1.125,6.525 -4.95,12.375 -11.025,17.55 -13.95003,11.475 -35.77503,9 -56.70003,2.025 l -3.6,6.975 c 11.475,4.05 23.4,6.75 34.65,6.75 11.475,0 21.82503,-2.7 30.37503,-9.675 9.45,-7.875 12.825,-16.2 13.725,-22.05 2.475,-15.75 -7.875,-28.35 -9,-29.7 z m -443.02503,104.625 c -2.025,2.025 -4.05,3.825 -6.525,5.175 -20.925,-10.8 -36,-29.475 -43.65,-53.775 -7.2,3.6 -15.975,5.4 -26.55,5.4 -37.35,0 -51.975,-21.825 -51.975,-69.075 0,-47.025 14.625,-69.075 51.975,-69.075 37.35,0 51.975,21.825 51.975,69.075 0,29.25 -5.625,48.6 -18.9,59.4 7.2,24.525 22.5,42.75 43.65,52.875 z m -32.625,-112.275 c 0,-36.9 -7.425,-61.875 -44.325,-61.875 -36.9,0 -44.325,24.75 -44.325,61.875 0,36.9 7.425,61.875 44.325,61.875 36.9,0 44.325,-24.75 44.325,-61.875 z m 715.27503,55.575 c -27.45,0 -33.075,-16.65 -33.075,-42.525 0,-25.875 5.625,-42.525 33.075,-42.525 6.975,0 13.5,1.125 19.8,4.275 l 3.375,-6.525 c -7.65,-3.825 -15.525,-4.725 -22.95,-4.725 -29.25,0 -40.725,15.75 -40.725,49.725 0,33.75 11.475,49.725 40.725,49.725 7.65,0 15.525,-0.9 23.175,-4.725 l -3.375,-6.525 c -6.75,2.7 -13.275,3.825 -20.025,3.825 z m -178.425,-8.775 c -2.925,-3.375 -4.5,-7.2 -4.5,-7.2 -1.575,-3.6 -2.25,-7.425 -2.25,-11.25 0,-2.7 0,-55.575 0,-55.575 h 27 l -3.6,-6.975 h -23.4 v -24.525 h -7.425 v 24.3 h -23.625 l -3.6,6.975 h 27.225 c 0,0 0,50.4 0,53.325 v 0 c -0.225,5.85 0.675,11.475 2.7,16.425 0,0.225 2.25,4.95 5.85,9.225 1.8,2.025 5.4,5.175 10.35,8.55 l 3.375,-6.975 c -4.05,-2.475 -6.75,-4.725 -8.1,-6.3 z m 286.65,-70.2 c -1.575,-2.025 -3.375,-3.825 -5.4,-5.4 l -41.175,40.95 v -49.5 h -0.9 c -2.475,0.45 -4.5,1.125 -6.75,1.8 v 95.85 c 2.475,0.9 4.95,1.35 7.65,2.025 v -47.925 l 40.05,40.05 c 2.025,-1.575 3.825,-3.15 5.625,-5.175 l -36,-36 z m -720.00003,-8.325 c -2.25,-2.025 -4.95,-3.6 -7.65,-4.95 v 52.65 c 0,23.4 -3.375,39.825 -25.65,39.825 h -2.025 c -22.05,0 -25.65,-16.425 -25.65,-39.825 v -52.875 c -2.7,1.35 -5.4,2.925 -7.65,4.95 v 49.95 c 0,20.7 4.05,44.325 31.95,44.325 h 4.725 c 28.125,0 31.95,-23.625 31.95,-44.325 z m 471.60003,66.6 c 0,-22.95 21.825,-28.35 66.375,-30.15 -1.35,-20.925 -8.325,-34.2 -32.85,-34.2 -6.75,0 -13.05,1.125 -19.35,4.05 l -3.375,-6.525 c 7.425,-3.825 15.075,-4.725 22.725,-4.725 29.25,0 40.725,15.75 40.725,49.725 0,33.75 -11.475,49.725 -40.725,49.725 -0.225,0 -1.35,0 -1.575,0 -24.75,-0.225 -31.95,-11.475 -31.95,-27.9 z m 7.875,0.225 c 0,6.3 1.125,11.025 4.275,14.4 0.9,1.125 2.25,2.025 3.825,2.7 5.85,2.475 11.7,3.375 17.775,3.375 27.45,0 33.075,-16.65 33.075,-42.525 0,-0.45 0,-1.125 0,-1.575 -37.575,1.8 -58.95,4.95 -58.95,23.625 z m -508.50003,95.85 c -4.95,-1.575 -9,-2.7 -9,-7.425 0,-5.175 3.6,-6.75 8.55,-6.75 3.375,0 6.75,0.675 9.675,2.25 l 1.575,-3.825 c -3.375,-1.8 -7.425,-2.25 -11.475,-2.25 -6.975,0 -12.6,3.15 -12.6,11.025 0,7.425 6.075,9.675 11.7,11.25 5.175,1.575 10.125,2.475 10.125,7.425 0,5.85 -3.825,7.65 -8.775,7.65 -4.5,0 -9,-1.35 -12.6,-3.375 l -1.575,3.825 c 3.6,2.25 8.775,3.6 14.175,3.6 7.875,0 13.275,-3.6 13.275,-11.475 0,-8.325 -7.2,-10.35 -13.05,-11.925 z m 36.45,-4.05 c 2.025,0 4.275,0.45 6.3,1.35 l 1.575,-3.375 c -2.25,-1.35 -4.95,-1.8 -7.875,-1.8 -8.55,0 -12.375,4.725 -12.375,15.3 0,10.575 3.825,15.3 12.375,15.3 2.925,0 5.625,-0.45 7.875,-1.8 l -1.575,-3.375 c -2.025,1.125 -4.05,1.35 -6.3,1.35 -5.85,0 -8.1,-2.7 -8.1,-11.7 0,-9 2.025,-11.25 8.1,-11.25 z m 21.825,-8.325 c 1.8,0 2.7,-0.675 2.7,-2.475 0,-1.8 -1.125,-2.475 -2.7,-2.475 -1.8,0 -2.7,0.675 -2.7,2.475 0,1.8 0.9,2.475 2.7,2.475 z m 2.025,5.175 -4.275,0.675 v 18.675 c 0,3.825 0.225,7.2 1.125,10.125 h 4.05 c -0.9,-3.15 -0.9,-6.525 -0.9,-9.9 z m 36.675,15.525 v 0.45 l -19.575,1.575 c 0.225,6.975 3.15,9 8.55,9 2.925,0 5.625,-0.675 8.325,-2.25 l 1.575,3.15 c -2.925,2.025 -6.3,2.7 -9.9,2.7 -7.65,0 -12.825,-3.15 -12.825,-15.3 0,-12.825 5.85,-15.3 12.15,-15.3 7.425,-0.225 11.7,3.375 11.7,15.975 z m -4.05,-2.7 c -0.225,-7.425 -2.925,-9.9 -7.425,-9.9 -4.95,0 -8.1,2.7 -8.1,10.575 v 0.675 z m 29.7,-13.5 c -4.95,0 -7.875,1.575 -9.675,4.725 -0.225,-1.575 -0.675,-2.925 -1.125,-4.275 l -3.6,0.9 c 0.9,3.15 1.125,6.75 1.125,10.125 v 18.675 h 4.275 v -20.7 c 1.8,-3.825 4.05,-5.85 8.325,-5.85 6.075,0 6.525,4.05 6.525,10.575 v 15.975 h 4.275 v -16.875 c -0.225,-6.75 -1.575,-13.275 -10.125,-13.275 z m 29.475,-8.775 -4.275,0.675 v 9 h -4.95 v 3.6 h 4.95 v 11.7 c 0,6.525 0.45,11.25 5.175,14.85 l 2.925,-2.475 c -3.6,-3.375 -3.6,-6.3 -3.6,-11.25 v -12.825 h 6.075 l 0.45,-3.6 h -6.525 v -9.675 z m 19.35,4.275 c 1.8,0 2.7,-0.675 2.7,-2.475 0,-1.8 -1.125,-2.475 -2.7,-2.475 -1.8,0 -2.7,0.675 -2.7,2.475 0,1.8 1.125,2.475 2.7,2.475 z m 2.25,5.175 -4.275,0.675 v 18.675 c 0,3.825 0.225,7.2 1.125,10.125 h 4.05 c -0.9,-3.15 -0.9,-6.525 -0.9,-9.9 z m 24.3,-8.325 c 0.675,0 1.575,0.225 2.475,0.45 l 0.675,-3.6 c -1.125,-0.225 -2.25,-0.45 -3.375,-0.45 -6.3,0 -8.325,3.6 -8.325,8.55 0,1.35 0.225,2.7 0.45,4.05 h -4.95 v 3.6 h 4.95 v 25.2 h 4.275 v -25.2 h 6.3 l 0.45,-3.6 h -6.75 c -0.45,-1.125 -0.45,-2.7 -0.45,-3.825 -0.45,-3.6 0.45,-5.175 4.275,-5.175 z m 16.2,3.15 c 1.8,0 2.7,-0.675 2.7,-2.475 0,-1.8 -1.125,-2.475 -2.7,-2.475 -1.8,0 -2.7,0.675 -2.7,2.475 0,1.8 0.9,2.475 2.7,2.475 z m 2.025,5.175 -4.275,0.675 v 18.675 c 0,3.825 0.225,7.2 1.125,10.125 h 4.05 c -0.9,-3.15 -0.9,-6.525 -0.9,-9.9 z m 25.425,3.15 c 2.025,0 4.275,0.45 6.3,1.35 l 1.575,-3.375 c -2.25,-1.35 -4.95,-1.8 -7.875,-1.8 -8.55,0 -12.375,4.725 -12.375,15.3 0,10.575 3.825,15.3 12.375,15.3 2.925,0 5.625,-0.45 7.875,-1.8 l -1.575,-3.375 c -2.025,1.125 -4.05,1.35 -6.3,1.35 -5.85,0 -8.1,-2.7 -8.1,-11.7 0,-9 2.025,-11.25 8.1,-11.25 z m 51.525,-10.125 c 3.15,0 6.3,0.675 9.225,2.25 l 1.8,-3.6 c -3.15,-2.025 -7.2,-2.475 -11.25,-2.475 -9.225,0 -15.525,4.725 -15.525,20.7 0,15.975 6.525,20.7 15.525,20.7 4.05,0 8.1,-0.45 11.25,-2.475 l -1.8,-3.6 c -2.925,1.8 -6.075,2.25 -9.225,2.25 -6.975,0 -11.475,-2.7 -11.475,-16.65 0,-13.95 4.725,-17.1 11.475,-17.1 z m 46.125,21.825 c 0,10.575 -3.6,15.3 -12.825,15.3 -9.225,0 -12.825,-4.95 -12.825,-15.3 0,-10.575 3.6,-15.3 12.825,-15.3 9.225,-0.225 12.825,4.725 12.825,15.3 z m -4.275,0 c 0,-7.425 -1.35,-11.7 -8.55,-11.7 -7.2,0 -8.55,4.5 -8.55,11.7 0,7.2 1.35,11.7 8.55,11.7 7.2,0 8.55,-4.5 8.55,-11.7 z m 48.15003,-15.525 c -4.95003,0 -7.87503,1.575 -10.12503,5.175 -1.35,-3.15 -3.825,-5.175 -8.325,-5.175 -4.725,0 -7.65,1.575 -9.45,4.725 -0.225,-1.575 -0.675,-2.925 -1.125,-4.275 l -3.6,0.9 c 0.9,3.15 1.125,6.75 1.125,10.125 v 18.675 h 4.275 v -20.7 c 1.8,-3.825 3.825,-5.85 7.875,-5.85 5.175,0 6.3,3.15 6.3,7.425 v 19.125 h 4.275 v -20.7 c 1.8,-3.825 3.825,-5.85 7.87503,-5.85 5.85,0 6.3,4.05 6.3,10.575 v 15.975 h 4.275 v -16.875 c 0,-6.75 -1.35,-13.275 -9.675,-13.275 z m 46.575,15.525 c 0,12.825 -6.075,15.3 -11.925,15.3 -2.925,0 -5.4,-0.45 -7.65,-1.8 0.225,2.025 0.225,3.825 0.225,5.625 v 4.275 h -4.275 v -27.45 c 0,-3.6 -0.225,-6.975 -1.125,-10.125 l 3.6,-0.9 c 0.45,1.35 0.9,2.925 1.125,4.275 1.8,-3.15 4.725,-4.725 9.45,-4.725 7.425,0 10.575,5.175 10.575,15.525 z m -4.275,0 c 0,-7.2 -1.35,-11.925 -6.975,-11.925 -4.275,0 -6.3,2.25 -8.325,5.85 v 15.975 c 2.25,1.35 4.725,1.8 7.2,1.8 5.175,0 8.1,-2.025 8.1,-11.7 z m 39.6,-14.85 -4.275,0.675 v 20.025 c -1.8,3.825 -4.05,5.85 -8.325,5.85 -6.075,0 -6.525,-4.05 -6.525,-10.575 v -15.975 l -4.275,0.675 v 16.2 c 0,6.975 1.35,13.275 9.9,13.275 4.95,0 7.875,-1.575 9.675,-4.725 0.225,1.575 0.675,2.925 1.125,4.275 l 3.6,-0.9 c -0.9,-3.15 -1.125,-6.75 -1.125,-10.125 v -18.675 z m 20.025,-9.45 -4.275,0.675 v 9 h -4.95 v 3.6 h 4.95 v 11.7 c 0,6.525 0.45,11.25 5.175,14.85 l 2.925,-2.475 c -3.6,-3.375 -3.6,-6.3 -3.6,-11.25 v -12.825 h 6.075 l 0.45,-3.6 h -6.525 v -9.675 z m 19.35,4.275 c 1.8,0 2.7,-0.675 2.7,-2.475 0,-1.8 -1.125,-2.475 -2.7,-2.475 -1.8,0 -2.7,0.675 -2.7,2.475 0,1.8 0.9,2.475 2.7,2.475 z m 2.025,5.175 -4.275,0.675 v 18.675 c 0,3.825 0.225,7.2 1.125,10.125 h 4.05 c -0.9,-3.15 -0.9,-6.525 -0.9,-9.9 z m 27.225,-0.675 c -4.95,0 -7.875,1.575 -9.675,4.725 -0.225,-1.575 -0.675,-2.925 -1.125,-4.275 l -3.6,0.9 c 0.9,3.15 1.125,6.75 1.125,10.125 v 18.675 h 4.275 v -20.7 c 1.8,-3.825 4.05,-5.85 8.325,-5.85 6.075,0 6.525,4.05 6.525,10.575 v 15.975 h 4.275 v -16.875 c -0.225,-6.75 -1.575,-13.275 -10.125,-13.275 z m 34.2,0 c 4.05,0 7.875,0.45 11.475,1.8 v 26.1 c 0,8.1 -4.275,11.475 -11.25,11.475 -2.7,0 -5.625,-0.45 -8.1,-1.575 l 1.125,-3.375 c 2.025,1.125 4.5,1.575 7.2,1.575 4.275,0 6.975,-2.025 6.975,-8.1 v -2.025 c -1.575,2.925 -4.5,4.05 -9,4.05 -7.425,0 -10.575,-4.95 -10.575,-15.075 0,-11.925 5.4,-14.85 12.15,-14.85 z m 7.425,4.725 c -2.25,-0.9 -4.95,-1.125 -7.425,-1.125 -4.95,0 -7.875,2.25 -7.875,11.475 0,6.975 1.35,11.475 6.975,11.475 4.275,0 6.3,-2.025 8.325,-5.625 z"
   id="path3"
   style="stroke-width:2.25" />
</svg>
