<svg width="32" height="32" viewBox="0 0 32 32" fill="none" xmlns="http://www.w3.org/2000/svg">
<g id="ArrowLeft">
<path id="Vector" d="M28.0008 16.0001C28.0008 16.2653 27.8954 16.5196 27.7079 16.7072C27.5204 16.8947 27.266 17.0001 27.0008 17.0001H7.41454L14.7083 24.2926C14.8012 24.3855 14.8749 24.4958 14.9252 24.6172C14.9755 24.7386 15.0013 24.8687 15.0013 25.0001C15.0013 25.1315 14.9755 25.2616 14.9252 25.383C14.8749 25.5044 14.8012 25.6147 14.7083 25.7076C14.6154 25.8005 14.5051 25.8742 14.3837 25.9245C14.2623 25.9747 14.1322 26.0006 14.0008 26.0006C13.8694 26.0006 13.7393 25.9747 13.6179 25.9245C13.4965 25.8742 13.3862 25.8005 13.2933 25.7076L4.29329 16.7076C4.20031 16.6147 4.12655 16.5044 4.07623 16.383C4.0259 16.2616 4 16.1315 4 16.0001C4 15.8687 4.0259 15.7385 4.07623 15.6171C4.12655 15.4957 4.20031 15.3854 4.29329 15.2926L13.2933 6.29257C13.4809 6.10493 13.7354 5.99951 14.0008 5.99951C14.2662 5.99951 14.5206 6.10493 14.7083 6.29257C14.8959 6.48021 15.0013 6.7347 15.0013 7.00007C15.0013 7.26543 14.8959 7.51993 14.7083 7.70757L7.41454 15.0001H27.0008C27.266 15.0001 27.5204 15.1054 27.7079 15.293C27.8954 15.4805 28.0008 15.7349 28.0008 16.0001Z" fill="black"/>
</g>
</svg>
