<svg width="22" height="30" viewBox="0 0 22 30" fill="none" xmlns="http://www.w3.org/2000/svg">
<g id="Frame 94">
<path id="Vector" d="M22 11.0065C22.0011 9.15278 21.5337 7.32882 20.6412 5.70406C19.7487 4.0793 18.4601 2.70644 16.895 1.71299C15.33 0.719547 13.5392 0.137739 11.6891 0.0216085C9.839 -0.0945216 7.98955 0.258793 6.31254 1.04874C4.63553 1.83868 3.18535 3.03963 2.0967 4.54003C1.00805 6.04044 0.31624 7.79164 0.0855283 9.63097C-0.145184 11.4703 0.0926847 13.3381 0.77704 15.0609C1.4614 16.7837 2.57004 18.3056 4 19.4853V29.0065C3.99988 29.1771 4.04338 29.3448 4.12636 29.4938C4.20934 29.6428 4.32905 29.7681 4.4741 29.8578C4.61916 29.9475 4.78474 29.9986 4.95511 30.0062C5.12549 30.0139 5.29499 29.9779 5.4475 29.9015L11 27.1315L16.5538 29.9078C16.693 29.9744 16.8457 30.0082 17 30.0065C17.2652 30.0065 17.5196 29.9012 17.7071 29.7136C17.8946 29.5261 18 29.2717 18 29.0065V19.4853C19.2512 18.4548 20.2587 17.1602 20.9503 15.6942C21.6419 14.2283 22.0003 12.6274 22 11.0065ZM2 11.0065C2 9.2265 2.52784 7.48644 3.51677 6.0064C4.50571 4.52636 5.91132 3.37281 7.55585 2.69162C9.20039 2.01043 11.01 1.8322 12.7558 2.17946C14.5016 2.52673 16.1053 3.3839 17.364 4.64257C18.6226 5.90124 19.4798 7.50489 19.8271 9.25072C20.1743 10.9965 19.9961 12.8061 19.3149 14.4507C18.6337 16.0952 17.4802 17.5008 16.0001 18.4898C14.5201 19.4787 12.78 20.0065 11 20.0065C8.61386 20.0039 6.32622 19.0548 4.63896 17.3676C2.95171 15.6803 2.00265 13.3927 2 11.0065ZM4 11.0065C4 9.62206 4.41054 8.26868 5.17971 7.11754C5.94888 5.9664 7.04213 5.06919 8.32122 4.53938C9.6003 4.00956 11.0078 3.87094 12.3656 4.14104C13.7235 4.41113 14.9708 5.07782 15.9497 6.05678C16.9287 7.03575 17.5954 8.28303 17.8655 9.6409C18.1356 10.9988 17.997 12.4062 17.4672 13.6853C16.9373 14.9644 16.0401 16.0576 14.889 16.8268C13.7378 17.596 12.3845 18.0065 11 18.0065C9.14409 18.0045 7.36477 17.2664 6.05245 15.9541C4.74012 14.6418 4.00199 12.8624 4 11.0065Z" fill="black"/>
</g>
</svg>
