<?xml version="1.0" encoding="utf-8"?>
<!-- Generator: Adobe Illustrator 21.0.2, SVG Export Plug-In . SVG Version: 6.00 Build 0)  -->
<svg version="1.1" id="Mode_Isolation" xmlns="http://www.w3.org/2000/svg" xmlns:xlink="http://www.w3.org/1999/xlink" x="0px"
	 y="0px" viewBox="0 0 324.1 324.1" style="enable-background:new 0 0 324.1 324.1;" xml:space="preserve">
<style type="text/css">
	.st0{fill:#F7F187;}
	.st1{fill:#FFFFFF;}
	.st2{fill:none;stroke:#FFFFFF;stroke-width:1.3063;stroke-miterlimit:10;}
	.st3{fill:none;stroke:#F7F187;stroke-width:1.3063;stroke-miterlimit:10;}
	.st4{fill:#050C4E;}
	.st5{fill:none;}
</style>
<g>
	<circle class="st0" cx="162" cy="162" r="162"/>
	<path class="st1" d="M154.7,279.3c-21.3-6.7-33.7-13.9-44.7-20.1c-12.5-7.2-22.4-12.8-40-14.3c-14.1-1.2-28.7,0.6-43.8,5.5
		c0.2,0.4,0.5,0.7,0.7,1.1c14.8-4.7,29.2-6.5,43-5.3c17.3,1.5,27.1,7.1,39.5,14.2c11,6.3,23.5,13.5,44.9,20.2
		c14,4.4,39.7,12.6,70.1,12.6c9.3,0,19-0.8,29-2.6c3.6-0.7,7-1.4,10.3-2.3c0.8-0.6,1.5-1.2,2.3-1.9c-4.1,1.1-8.3,2.2-12.8,3
		C210.8,297.1,172.9,285.1,154.7,279.3z M154.7,262.5c-21.3-6.7-33.7-13.9-44.7-20.1c-12.5-7.2-22.4-12.8-40-14.3
		c-16.6-1.4-34,1.4-51.9,8.4c0.2,0.4,0.4,0.7,0.6,1.1c17.7-6.9,34.9-9.7,51.2-8.3c17.3,1.5,27.1,7.1,39.5,14.2
		c11,6.3,23.5,13.5,44.9,20.2c14,4.4,39.7,12.6,70.1,12.6c9.3,0,19-0.8,29-2.6c14.1-2.6,26.1-6.9,36.4-12c0.6-0.7,1.1-1.5,1.7-2.2
		c-10.6,5.5-23.3,10.2-38.3,13C210.8,280.3,172.9,268.3,154.7,262.5z M154.7,245.7c-21.3-6.7-33.7-13.9-44.7-20.1
		c-12.5-7.2-22.4-12.8-40-14.3c-18.6-1.6-38.2,2.1-58.4,11.1c0.1,0.4,0.3,0.7,0.5,1.1c20-8.9,39.4-12.6,57.8-11
		c17.3,1.5,27.1,7.1,39.5,14.2c11,6.3,23.5,13.5,44.9,20.2c14,4.4,39.7,12.6,70.1,12.6c9.3,0,19-0.8,29-2.6
		c22.8-4.2,40.4-12.9,53.4-22c0.4-0.8,0.8-1.5,1.1-2.3c-13.1,9.5-31.1,18.7-54.8,23.1C210.8,263.4,172.9,251.4,154.7,245.7z
		 M154.7,270.9c-21.3-6.7-33.7-13.9-44.7-20.1c-12.5-7.2-22.4-12.8-40-14.3c-15.4-1.3-31.5,1-48.1,7c0.2,0.4,0.4,0.7,0.6,1.1
		c16.3-5.8,32.2-8.1,47.3-6.8c17.3,1.5,27.1,7.1,39.5,14.2c11,6.3,23.5,13.5,44.9,20.2c14,4.4,39.7,12.6,70.1,12.6
		c9.3,0,19-0.8,29-2.6c9-1.7,17.1-4,24.5-6.8c0.7-0.7,1.3-1.4,2-2.1c-8,3.2-16.9,5.9-26.7,7.7C210.8,288.7,172.9,276.7,154.7,270.9z
		 M154.7,287.7c-21.3-6.7-33.7-13.9-44.7-20.1c-12.5-7.2-22.4-12.8-40-14.3c-12.6-1.1-25.6,0.3-39,4c0.3,0.3,0.5,0.7,0.8,1
		c13.1-3.6,25.8-4.9,38.1-3.9c17.3,1.5,27.1,7.1,39.5,14.2c11,6.3,23.5,13.5,44.9,20.2c14,4.4,39.7,12.6,70.1,12.6
		c7.4,0,15-0.5,22.8-1.6c0.9-0.5,1.7-1.1,2.5-1.6C208.8,304.9,172.4,293.4,154.7,287.7z M253.2,230.3c-42.4,7.9-80.3-4.2-98.6-9.9
		c-21.3-6.7-33.7-13.9-44.7-20.1c-12.5-7.2-22.4-12.8-40-14.3c-20.7-1.8-42.7,3.1-65.4,14.4c0.1,0.4,0.2,0.8,0.3,1.2
		c22.6-11.3,44.4-16.1,65-14.4c17.3,1.5,27.1,7.1,39.5,14.2c11,6.3,23.5,13.5,44.9,20.2c14,4.4,39.7,12.6,70.1,12.6
		c9.3,0,19-0.8,29-2.6c34.2-6.4,55.7-21.5,65.8-30.3c0.2-0.7,0.3-1.4,0.5-2.1C310.4,207.7,288.7,223.8,253.2,230.3z M154.7,228.8
		c-21.3-6.7-33.7-13.9-44.7-20.1c-12.5-7.2-22.4-12.8-40-14.3c-20.1-1.7-41.4,2.8-63.4,13.4c0.1,0.4,0.2,0.8,0.3,1.2
		c21.9-10.6,43-15.1,63-13.4c17.3,1.5,27.1,7.1,39.5,14.2c11,6.3,23.5,13.5,44.9,20.2c14,4.4,39.7,12.6,70.1,12.6
		c9.3,0,19-0.8,29-2.6c29.2-5.4,49.9-18.2,63.3-29.7c0.2-0.7,0.4-1.4,0.6-2.2c-13.2,11.7-34.2,25.1-64.2,30.7
		C210.8,246.6,172.9,234.6,154.7,228.8z M154.7,254.1c-21.3-6.7-33.7-13.9-44.7-20.1c-12.5-7.2-22.4-12.8-40-14.3
		c-17.7-1.5-36.2,1.8-55.3,9.8c0.2,0.4,0.3,0.7,0.5,1.1c18.9-7.9,37.3-11.2,54.7-9.7c17.3,1.5,27.1,7.1,39.5,14.2
		c11,6.3,23.5,13.5,44.9,20.2c14,4.4,39.7,12.6,70.1,12.6c9.3,0,19-0.8,29-2.6c18.7-3.5,33.9-10,45.9-17.2c0.5-0.8,1-1.5,1.4-2.3
		c-12.2,7.7-28,14.6-47.6,18.3C210.8,271.9,172.9,259.9,154.7,254.1z M154.7,237.2c-21.3-6.7-33.7-13.9-44.7-20.1
		c-12.5-7.2-22.4-12.8-40-14.3c-19.4-1.7-39.9,2.5-61.1,12.3c0.1,0.4,0.3,0.8,0.4,1.1c21-9.8,41.3-13.9,60.6-12.2
		c17.3,1.5,27.1,7.1,39.5,14.2c11,6.3,23.5,13.5,44.9,20.2c14,4.4,39.7,12.6,70.1,12.6c9.3,0,19-0.8,29-2.6
		c26.3-4.9,45.7-15.7,59.1-26.2c0.3-0.7,0.6-1.5,0.9-2.2c-13.3,10.8-33,22.2-60.2,27.3C210.8,255,172.9,243,154.7,237.2z"/>
	<path class="st2" d="M73.6,130.3c-16.2,5.1-28.1,5.9-30.7,1c-4.4-8.2,19.1-29.3,52.3-47S159,59,163.4,67.2
		c2.5,4.8-4.3,13.9-16.9,24.1"/>
	<path class="st3" d="M151.3,77.5"/>
	<path class="st3" d="M92,74.9c3.5-2,7.1-4,10.9-6c3.4-1.8,6.7-3.5,10-5.1"/>
	<path class="st1" d="M164,66.9c-2.7-5-14-4.7-29.6,0.1c-8.1-7.9-19.1-12.8-31.2-12.8c-24.6,0-44.6,20-44.6,44.7
		c0,2.7,0.3,5.4,0.7,8c-12.9,10.4-19.6,19.7-16.9,24.8c1.3,2.4,4.6,3.6,9.6,3.6c0.7,0,1.5,0,2.2-0.1c0.5,2,2.2,3.4,4.4,3.4
		c2.5,0,4.5-2,4.5-4.5c0-0.1,0-0.2,0-0.2c3-0.6,6.2-1.5,9.6-2.5c8,7.5,18.7,12.1,30.6,12.1c24.6,0,44.6-20,44.6-44.6
		c0-2.5-0.2-4.9-0.6-7.3C160.4,80.8,166.6,71.8,164,66.9z M61.1,98.8c0-23.2,18.9-42,42-42c10.9,0,20.9,4.2,28.4,11.1
		c-5.1,1.7-10.6,3.7-16.4,6.2c-0.9-1.4-2.4-2.3-4.2-2.3c-2.7,0-5,2.2-5,5c0,0.5,0.1,0.9,0.2,1.3c-0.4,0.2-0.7,0.4-1.1,0.5
		c-0.1,0-0.1,0.1-0.2,0.1c-1.5,0.7-3,1.5-4.6,2.2c-0.3,0.1-0.6,0.3-0.9,0.4c-1.5,0.8-3,1.5-4.5,2.4c-0.9,0.5-1.9,1-2.8,1.5
		c-0.4,0.2-0.7,0.4-1.1,0.6c-0.5,0.3-1.1,0.6-1.6,0.9c-0.5,0.3-0.9,0.5-1.4,0.8c-0.4,0.2-0.7,0.4-1.1,0.6
		c-9.7,5.6-18.3,11.3-25.3,16.8C61.2,103,61.1,100.9,61.1,98.8z M58.4,129.6c-2.4,0-4.4,1.9-4.5,4.3c-5.6,0.4-9.3-0.6-10.5-2.9
		c-2.3-4.4,4.2-12.9,16.1-22.7c1.8,8.5,6.1,16,12,22c-3.2,1-6.1,1.7-8.8,2.3C62,130.9,60.4,129.6,58.4,129.6z M103.1,140.9
		c-20.6,0-37.7-14.8-41.3-34.4C70,100,80.5,93.2,92.2,86.7c0.2-0.1,0.3-0.2,0.5-0.3c0.9-0.5,1.9-1,2.9-1.5c1.4-0.8,2.8-1.5,4.2-2.2
		c0.5-0.2,0.9-0.5,1.4-0.7c1.2-0.6,2.3-1.1,3.5-1.7c0.7-0.3,1.4-0.7,2.1-1c0.9,1.4,2.4,2.4,4.2,2.4c2.7,0,5-2.2,5-5
		c0-0.5-0.1-1-0.3-1.5c6-2.5,11.7-4.7,17-6.4c7.7,7.6,12.5,18.2,12.5,29.9C145.1,122,126.3,140.9,103.1,140.9z M146.9,90.1
		c-1.7-8.4-5.8-16-11.5-22c14.5-4.3,25.1-4.9,27.4-0.5C165,71.7,159.1,80.1,146.9,90.1z"/>
	<circle class="st0" cx="153.5" cy="98.8" r="5"/>
	<g>
		<path class="st0" d="M134.4,295c-0.5-0.5-0.8-1.2-0.8-2l0-33.9c0-1.6,1.3-2.9,2.9-2.9l54.2,0c0.8,0,1.5,0.3,2,0.8
			c0.5,0.5,0.8,1.3,0.8,2l0,33.9c0,0.8-0.3,1.5-0.8,2c-0.5,0.5-1.3,0.8-2,0.8l-54.2,0C135.6,295.8,134.9,295.5,134.4,295z"/>
		<path class="st4" d="M190.7,297.8h-54.2c-1.3,0-2.5-0.5-3.4-1.4l0,0c-0.9-0.9-1.4-2.1-1.4-3.4l0-33.9c0-2.6,2.2-4.8,4.8-4.8h54.2
			c1.3,0,2.5,0.5,3.4,1.4c0.9,0.9,1.4,2.1,1.4,3.4l0,33.9c0,1.3-0.5,2.5-1.4,3.4C193.2,297.3,192,297.8,190.7,297.8z M136.4,258
			c-0.5,0-1,0.4-1,1l0,33.9c0,0.3,0.1,0.5,0.3,0.7l0,0c0.2,0.2,0.4,0.3,0.7,0.3h54.2c0.3,0,0.5-0.1,0.7-0.3c0.2-0.2,0.3-0.4,0.3-0.7
			l0-33.9c0-0.3-0.1-0.5-0.3-0.7c-0.2-0.2-0.4-0.3-0.7-0.3H136.4z"/>
	</g>
	<path class="st0" d="M214.8,195.8c-11.1,16.4-29.9,27.2-51.3,27.2s-40.1-10.8-51.3-27.2c-4.7,4-9,8.5-12.8,13.4
		c14.6,19.4,37.8,32,64,32c26.2,0,49.4-12.6,64-32C223.9,204.3,219.6,199.8,214.8,195.8z"/>
	<circle class="st5" cx="162" cy="162" r="162"/>
	<path class="st0" d="M244.2,236c0-6.1-1.8-11.9-5.1-17l0-32.7c0-6.9-2.7-13.3-7.6-18.2c-1.8-1.8-3.8-3.3-5.9-4.4
		c-0.1,0-0.2-0.1-0.3-0.1c0-0.8,0.1-1.6,0.1-2.3c0-34.2-27.7-61.9-61.9-61.9c-34.2,0-61.9,27.7-61.9,61.9c0,0.8,0,1.6,0.1,2.3
		c-0.1,0-0.2,0.1-0.3,0.1c-8.3,4.5-13.5,13.2-13.5,22.7v32.7c-3.3,5.1-5.1,11-5.1,17v29.5l0,38c23.4,13.1,50.4,20.6,79.1,20.6
		c30,0,58.1-8.2,82.2-22.4l0-36.2c0,0,0,0,0,0L244.2,236z"/>
	<path class="st4" d="M190.7,254.2h-54.2c-2.6,0-4.8,2.2-4.8,4.8l0,33.9c0,1.3,0.5,2.5,1.4,3.4h0c0,0,0,0,0,0
		c0.9,0.9,2.1,1.4,3.4,1.4h54.2c1.3,0,2.5-0.5,3.4-1.4c0.9-0.9,1.4-2.1,1.4-3.4l0-33.9c0-1.3-0.5-2.5-1.4-3.4
		C193.2,254.7,192,254.2,190.7,254.2z M191.7,292.9c0,0.3-0.1,0.5-0.3,0.7c-0.2,0.2-0.4,0.3-0.7,0.3h-54.2c-0.3,0-0.5-0.1-0.7-0.3
		l0,0c-0.2-0.2-0.3-0.4-0.3-0.7l0-33.9c0-0.5,0.4-1,1-1h54.2c0.3,0,0.5,0.1,0.7,0.3c0.2,0.2,0.3,0.4,0.3,0.7L191.7,292.9z
		 M163.6,193.8c0.7,0,1.5,0,2.2,0c10.6-0.2,21.2-1.5,31.6-4c7.7-0.1,14-7.1,14-15.7v-27.2c0-4.2-1.5-8.1-4.1-11
		c-3.7-4.1-8.3-4.6-9.9-4.7c-11.7-2.5-23.6-3.6-35.5-3.5c-10.8,0.1-21.6,1.3-32.1,3.5c-7.7,0.1-14,7.1-14,15.7v27.2
		c0,4.2,1.5,8.1,4.1,11c3.7,4.1,8.2,4.6,9.9,4.7C140.8,192.4,152.2,193.8,163.6,193.8z M122.7,182.6c-2-2.3-3.1-5.3-3.1-8.5v-27.2
		c0-6.6,4.7-11.9,10.4-11.9l0.4,0c10.4-2.2,21-3.4,31.6-3.5c11.7-0.1,23.4,1,34.8,3.5l0.4,0c1,0,4.5,0.2,7.3,3.4
		c2,2.3,3.1,5.3,3.1,8.5v27.2c0,6.6-4.7,11.9-10.4,11.9h-0.2l-0.2,0.1c-10.2,2.4-20.6,3.8-31,3.9c-11.8,0.2-23.7-1.1-35.3-3.9
		l-0.2-0.1H130C129,186,125.5,185.7,122.7,182.6z M246.1,265.5l0-29.5c0-6.2-1.8-12.3-5.1-17.6v-32.1c0-7.4-2.9-14.3-8.1-19.6
		c-1.7-1.7-3.6-3.1-5.6-4.3c0-0.4,0-0.8,0-1.2c0-35.2-28.6-63.8-63.8-63.8c-35.2,0-63.8,28.6-63.8,63.8c0,0.4,0,0.8,0,1.2
		c-8.5,5-13.7,14.1-13.7,23.9v32.1c-3.3,5.3-5.1,11.3-5.1,17.6v66.4c1.3,0.7,2.5,1.4,3.8,2.1l0-34.4c0.3,0.1,0.6,0.1,1,0.1h27.5
		l0,46.3c1.3,0.4,2.5,0.8,3.8,1.2l0-51.3H85.8c-0.5,0-1-0.4-1-1V236c0-6,1.8-11.8,5.2-16.7c2.3-3.3,5.2-6.1,8.5-8.2
		c15.7,20.4,39.3,32.1,65,32.1c25.7,0,49.4-11.7,65-32.1c1.8,1.1,3.4,2.5,5,4c1.3,1.3,2.5,2.7,3.5,4.2c3.4,5,5.2,10.8,5.2,16.7
		l0,29.5c0,0.5-0.4,1-1,1H210l0,50.4c1.3-0.4,2.6-0.8,3.8-1.2l0-45.3h27.5c0.3,0,0.7,0,1-0.1l0,32.7c1.3-0.7,2.6-1.5,3.8-2.3
		L246.1,265.5C246.1,265.5,246.1,265.5,246.1,265.5z M163.6,101.2c33.1,0,60,26.9,60,60c0,25.7-16.3,47.7-39.1,56.2
		c-0.1,0.1-0.3,0.1-0.4,0.2c-0.8,0.3-1.6,0.6-2.4,0.8c-0.2,0.1-0.3,0.1-0.5,0.2c-0.7,0.2-1.4,0.4-2,0.6c-0.2,0.1-0.4,0.1-0.7,0.2
		c-0.8,0.2-1.5,0.4-2.3,0.5c-0.3,0.1-0.5,0.1-0.8,0.2c-0.8,0.2-1.6,0.3-2.3,0.4c-0.2,0-0.4,0.1-0.5,0.1c-0.7,0.1-1.5,0.2-2.2,0.3
		c-0.2,0-0.4,0-0.7,0.1c-0.8,0.1-1.7,0.1-2.6,0.2c-0.2,0-0.4,0-0.6,0c-0.9,0-1.8,0.1-2.7,0.1s-1.8,0-2.7-0.1c-0.2,0-0.4,0-0.6,0
		c-0.9,0-1.7-0.1-2.6-0.2c-0.2,0-0.4,0-0.7-0.1c-0.7-0.1-1.5-0.2-2.2-0.3c-0.2,0-0.4,0-0.5-0.1c-0.8-0.1-1.6-0.3-2.3-0.4
		c-0.3-0.1-0.5-0.1-0.8-0.2c-0.8-0.2-1.5-0.3-2.3-0.5c-0.2-0.1-0.4-0.1-0.7-0.2c-0.7-0.2-1.4-0.4-2-0.6c-0.2-0.1-0.3-0.1-0.5-0.2
		c-0.8-0.3-1.6-0.5-2.4-0.8c-0.1-0.1-0.3-0.1-0.4-0.2c-22.8-8.5-39.1-30.5-39.1-56.2C103.6,128.1,130.5,101.2,163.6,101.2z
		 M89.9,213.4v-27.1c0-7.8,3.8-15,10.1-19.5c0.9,10.5,4.4,20.2,9.8,28.7c-3.7,3.2-7.1,6.8-10.2,10.6C96,207.9,92.7,210.3,89.9,213.4
		z M163.6,239.3c-24.3,0-46.7-10.9-61.6-30.1c3-3.8,6.3-7.4,10-10.6c6.9,9.5,16.2,16.8,26.7,21.3c0.1,0,0.1,0,0.2,0.1
		c0.9,0.4,1.8,0.7,2.7,1.1c0.1,0,0.2,0.1,0.2,0.1c0.8,0.3,1.6,0.6,2.5,0.8c0.2,0.1,0.3,0.1,0.5,0.2c0.8,0.3,1.6,0.5,2.5,0.7
		c0.3,0.1,0.5,0.1,0.8,0.2c0.8,0.2,1.6,0.4,2.5,0.6c0.2,0,0.5,0.1,0.7,0.1c0.7,0.1,1.5,0.3,2.2,0.4c0.2,0,0.4,0.1,0.6,0.1
		c0.9,0.1,1.8,0.2,2.6,0.3c0.2,0,0.5,0.1,0.7,0.1c0.9,0.1,1.8,0.2,2.7,0.2c0.2,0,0.4,0,0.5,0c1,0,2,0.1,2.9,0.1c1,0,2,0,2.9-0.1
		c0.2,0,0.4,0,0.5,0c0.9,0,1.8-0.1,2.7-0.2c0.2,0,0.5,0,0.7-0.1c0.9-0.1,1.8-0.2,2.6-0.3c0.2,0,0.4-0.1,0.6-0.1
		c0.7-0.1,1.5-0.3,2.2-0.4c0.2,0,0.5-0.1,0.7-0.1c0.8-0.2,1.6-0.4,2.5-0.6c0.3-0.1,0.5-0.1,0.8-0.2c0.8-0.2,1.7-0.5,2.5-0.7
		c0.2-0.1,0.3-0.1,0.5-0.2c0.8-0.3,1.6-0.5,2.5-0.8c0.1,0,0.2-0.1,0.2-0.1c0.9-0.3,1.8-0.7,2.7-1.1c0.1,0,0.1,0,0.2-0.1
		c10.5-4.5,19.8-11.7,26.7-21.3c3.7,3.2,7,6.8,10,10.6C210.2,228.3,187.9,239.3,163.6,239.3z M237.2,213.3c-0.3-0.3-0.6-0.7-1-1
		c-2.6-2.6-5.6-4.7-8.8-6.3c-3.1-3.8-6.5-7.3-10.2-10.6c5.4-8.4,8.9-18.2,9.8-28.7c1.1,0.8,2.2,1.6,3.1,2.6c4.5,4.5,7,10.5,7,16.9
		V213.3z"/>
	<path class="st1" d="M162.4,146.4l-31.1,28.2c-0.5,0.5-1.2,0.7-1.9,0.7c-0.8,0-1.6-0.3-2.1-0.9c-1.1-1.2-1-3,0.2-4.1l31.1-28.2
		c1.2-1.1,3-1,4.1,0.2C163.6,143.6,163.5,145.4,162.4,146.4z M154.2,159l-18.2,16.4c-1.2,1.1-1.3,2.9-0.2,4.1
		c0.6,0.6,1.3,0.9,2.1,0.9c0.7,0,1.4-0.2,1.9-0.7l18.2-16.4c1.2-1.1,1.3-2.9,0.2-4.1C157.2,158,155.4,158,154.2,159z"/>
</g>
</svg>
