<svg width="123" height="23" viewBox="0 0 123 23" fill="none" xmlns="http://www.w3.org/2000/svg">
<g id="Airbus" clip-path="url(#clip0_3845_1668)">
<path id="Vector" d="M56.6948 7.85707C56.6948 3.6602 53.9679 0.470366 48.3484 0.470366H37.0426V22.5296H42.3632V5.23784H48.3817C50.6097 5.23784 51.4073 6.51415 51.4073 7.99124C51.4073 9.50227 50.5761 10.7446 48.3481 10.7446H43.194L50.5095 22.5296H56.5616C56.5616 22.5296 51.5734 14.6056 51.607 14.6056C54.6998 13.8672 56.6948 11.6848 56.6948 7.85707ZM28.1311 0.470366H33.4516V22.5299H28.1311V0.470366ZM14.5311 14.2028H10.0537L13.367 7.42064H13.4339L20.8822 22.5296H27.0006L15.8611 0.470366H11.1396L0 22.5296H5.9852L7.78964 18.8364H16.7588L14.5311 14.2028ZM76.1151 11.0805C77.8113 10.1401 78.7091 8.6294 78.7091 6.41329C78.7091 2.85426 76.0821 0.470366 71.6596 0.470366H59.2225V22.5296H72.1585C76.6805 22.5296 79.6401 20.0785 79.6401 16.3517C79.6398 13.7667 78.2103 11.8192 76.1151 11.0805ZM64.5436 5.13729H71.6596C72.7239 5.13729 73.555 5.97654 73.555 7.08475C73.555 8.19296 72.7239 9.03221 71.626 9.03221H64.5433V5.13729H64.5436ZM71.7922 17.896H64.5433V13.3969H71.7922C73.0892 13.3969 74.0868 14.3373 74.0868 15.613C74.0871 16.9223 73.0892 17.896 71.7922 17.896ZM96.4322 12.7927C96.4322 16.1409 94.9025 17.9969 91.8769 17.9969C88.8843 17.9969 87.3545 16.1409 87.3545 12.7927V0.470366H81.9015V12.3898C81.9015 19.2059 85.4595 23 91.8769 23C98.2943 23 101.886 19.2059 101.886 12.3898V0.470366H96.4322V12.7927ZM116.084 9.23362C111.033 7.99187 109.933 7.87326 109.933 6.41298C109.933 5.28329 111.196 4.73417 113.324 4.73417C116.151 4.73417 119.161 5.45014 120.872 6.51384L122.568 2.0147C120.374 0.839561 117.148 0 113.391 0C107.771 0 104.612 2.82064 104.612 6.61439C104.612 10.6967 106.972 12.3553 112.393 13.531C116.613 14.4705 117.513 15.0567 117.513 16.2505C117.513 17.5474 116.35 18.131 114.055 18.131C110.73 18.131 107.721 17.3154 105.31 15.9822L103.681 20.6827C106.308 22.0929 110.231 22.9997 114.188 22.9997C119.708 22.9997 123 20.4141 123 16.0827C123.001 12.6077 120.774 10.3754 116.084 9.23362Z" fill="#8E98A8" fill-opacity="0.56"/>
</g>
<defs>
<clipPath id="clip0_3845_1668">
<rect width="123" height="23" fill="white"/>
</clipPath>
</defs>
</svg>
