<?xml version="1.0" encoding="UTF-8" standalone="no"?>
<svg
   width="118.63742"
   height="24.857094"
   viewBox="0 0 118.63742 24.857094"
   fill="none"
   version="1.1"
   id="svg376"
   xmlns="http://www.w3.org/2000/svg"
   xmlns:svg="http://www.w3.org/2000/svg">
  <defs
     id="defs380" />
  <g
     id="Group"
     transform="translate(-3.74658,-49.504807)">
    <g
       id="Clip path group">
      <mask
         id="mask0_3845_1671"
         maskUnits="userSpaceOnUse"
         x="0"
         y="0"
         width="124"
         height="124">
        <g
           id="SVGID_2_">
          <path
             id="Vector"
             d="M 124,0 H 0 v 124 h 124 z"
             fill="#ffffff" />
        </g>
      </mask>
      <g
         mask="url(#mask0_3845_1671)"
         id="g220">
        <g
           id="Group_2">
          <g
             id="Clip path group_2">
            <mask
               id="mask1_3845_1671"
               maskUnits="userSpaceOnUse"
               x="0"
               y="0"
               width="124"
               height="124">
              <g
                 id="SVGID_4_">
                <path
                   id="Vector_2"
                   d="M 124,0 H 0 v 124 h 124 z"
                   fill="#ffffff" />
              </g>
            </mask>
            <g
               mask="url(#mask1_3845_1671)"
               id="g216">
              <path
                 id="Vector_3"
                 d="m 66.6406,58.1773 v 3.2141 h 7.3031 l -0.4374,2.0921 h -6.8466 v 4.6024 H 63.3314 V 56.0663 h 11.7534 l -0.4374,2.092 h -8.0068 z m 40.4524,9.9276 h -3.823 l -1.16,-2.4343 h -6.4092 l -1.1031,2.4343 h -2.4153 l 5.6484,-12.0196 h 2.2442 c 0.856,0 1.179,0.3423 1.617,1.2362 0.418,0.8558 5.401,10.7834 5.401,10.7834 z m -5.972,-4.5263 -2.2632,-4.7927 -2.1871,4.7927 z M 61.6578,68.1049 H 57.8351 L 56.694,65.6706 h -6.4092 l -1.103,2.4343 h -2.4154 l 5.6675,-12.0196 h 2.2442 c 0.8558,0 1.1791,0.3423 1.6165,1.2362 0.3804,0.8558 5.3632,10.7834 5.3632,10.7834 z m -5.9718,-4.5263 -2.2631,-4.7927 -2.1872,4.7927 z m -15.9374,4.9067 c 4.2982,0 6.2761,-1.5785 6.2761,-3.8607 0,-1.997 -1.8068,-3.024 -5.7436,-4.089 -2.3582,-0.6466 -3.8227,-0.7797 -3.8227,-1.5785 0,-0.7608 1.3694,-1.1601 3.4804,-1.0651 2.6436,0.1332 4.3362,1.2362 4.3362,1.2362 l 1.046,-1.6736 c 0,0 -2.3773,-1.7687 -6.181,-1.7687 -4.127,0 -6.2951,1.2552 -6.2951,3.5755 0,2.2822 2.4724,3.081 6.0669,4.108 2.2252,0.6276 3.4994,0.7607 3.4994,1.5975 0,0.6466 -0.6656,1.4644 -3.6135,1.3313 -2.8337,-0.1331 -5.2871,-1.7877 -5.2871,-1.7877 l -1.2552,1.5214 c 0,0.0381 2.7006,2.4534 7.4932,2.4534 z m 80.1434,-12.4 v 7.1699 c 0,0 -7.037,-5.6104 -7.607,-6.0858 -1.046,-0.8369 -1.522,-1.0841 -2.682,-1.0841 h -0.856 v 12.0196 h 2.473 v -7.0558 c 0,0 6.98,5.5724 7.569,6.0288 1.046,0.8369 1.579,1.027 2.739,1.027 h 0.856 V 56.0853 Z M 90.9081,68.1049 H 88.664 c -1.3313,0 -2.1491,-0.9319 -2.6436,-1.5595 C 85.4879,65.8417 84.1186,64.054 84.1186,64.054 H 83.8903 80.5051 80.467 v 4.07 H 77.1388 V 56.1043 h 3.3663 3.3852 c 2.5865,0 6.2951,0.2663 6.3141,3.9749 0,2.149 -1.2552,3.138 -2.8147,3.5944 z M 86.591,60.0601 c 0,-1.2552 -0.7988,-1.8828 -2.5675,-1.8828 h -3.5184 l -0.0381,-0.019 v 3.8037 l 0.0381,-0.019 h 3.5184 c 1.7687,0 2.5675,-0.6276 2.5675,-1.8829 z"
                 fill="#8e98a8"
                 fill-opacity="0.56" />
            </g>
          </g>
        </g>
      </g>
    </g>
    <g
       id="Clip path group_3">
      <mask
         id="mask2_3845_1671"
         maskUnits="userSpaceOnUse"
         x="0"
         y="0"
         width="124"
         height="124">
        <g
           id="SVGID_2__2">
          <path
             id="Vector_4"
             d="M 124,0 H 0 v 124 h 124 z"
             fill="#ffffff" />
        </g>
      </mask>
      <g
         mask="url(#mask2_3845_1671)"
         id="g234">
        <g
           id="Group_3">
          <g
             id="Clip path group_4">
            <mask
               id="mask3_3845_1671"
               maskUnits="userSpaceOnUse"
               x="3"
               y="67"
               width="24"
               height="8">
              <g
                 id="SVGID_6_">
                <path
                   id="Vector_5"
                   d="m 25.9601,67.2681 c -2.4724,3.3852 -6.4663,5.5914 -10.9736,5.5914 -4.5074,0 -8.50127,-2.2062 -10.97366,-5.5914 H 3.74658 c 1.99693,4.203 6.27612,7.0938 11.23992,7.0938 4.9638,0 9.2429,-2.9098 11.2398,-7.0938 z"
                   fill="#ffffff" />
              </g>
            </mask>
            <g
               mask="url(#mask3_3845_1671)"
               id="g230">
              <path
                 id="Vector_6"
                 d="M 26.2263,67.2681 H 3.74658 v 7.0938 H 26.2263 Z"
                 fill="#8e98a8"
                 fill-opacity="0.56" />
            </g>
          </g>
        </g>
      </g>
    </g>
    <g
       id="Clip path group_5">
      <mask
         id="mask4_3845_1671"
         maskUnits="userSpaceOnUse"
         x="0"
         y="0"
         width="124"
         height="124">
        <g
           id="SVGID_2__3">
          <path
             id="Vector_7"
             d="M 124,0 H 0 v 124 h 124 z"
             fill="#ffffff" />
        </g>
      </mask>
      <g
         mask="url(#mask4_3845_1671)"
         id="g248">
        <g
           id="Group_4">
          <g
             id="Clip path group_6">
            <mask
               id="mask5_3845_1671"
               maskUnits="userSpaceOnUse"
               x="4"
               y="52"
               width="22"
               height="20">
              <g
                 id="SVGID_9_">
                <path
                   id="Vector_8"
                   d="m 7.05585,54.3356 c -1.48343,1.1031 -2.073,2.2251 -2.28221,3.2712 -1.04601,5.1159 9.07176,7.1509 12.95156,8.4251 2.13,0.6847 2.4153,1.6166 2.3963,2.3583 -0.038,1.7117 -2.4534,3.2521 -2.4724,3.2521 1.9779,-0.038 4.6405,-1.1981 6.238,-3.0049 0.6086,-0.6846 1.1411,-1.5975 1.2743,-2.2632 0.5895,-3.0619 -2.2632,-4.6214 -5.6295,-5.8006 -2.6245,-0.9129 -4.7926,-1.5405 -6.6374,-2.111 -2.92883,-0.8939 -3.42331,-1.7497 -3.40429,-2.6816 0.01902,-1.0841 1.17909,-2.4534 2.47239,-3.2522 -0.019,-0.038 -2.45337,-0.038 -4.90675,1.8068 z"
                   fill="#ffffff" />
              </g>
            </mask>
            <g
               mask="url(#mask5_3845_1671)"
               id="g244">
              <path
                 id="Vector_9"
                 d="M -4.48828,66.9639 20.3878,81.0755 33.9669,57.1504 9.09086,43.0387 Z"
                 fill="#8e98a8"
                 fill-opacity="0.56" />
            </g>
          </g>
        </g>
      </g>
    </g>
    <g
       id="Clip path group_7">
      <mask
         id="mask6_3845_1671"
         maskUnits="userSpaceOnUse"
         x="0"
         y="0"
         width="124"
         height="124">
        <g
           id="SVGID_2__4">
          <path
             id="Vector_10"
             d="M 124,0 H 0 v 124 h 124 z"
             fill="#ffffff" />
        </g>
      </mask>
      <g
         mask="url(#mask6_3845_1671)"
         id="g358">
        <g
           id="Group_5">
          <g
             id="Clip path group_8">
            <mask
               id="mask7_3845_1671"
               maskUnits="userSpaceOnUse"
               x="0"
               y="0"
               width="124"
               height="124">
              <g
                 id="SVGID_12_">
                <path
                   id="Vector_11"
                   d="M 124,0 H 0 v 124 h 124 z"
                   fill="#ffffff" />
              </g>
            </mask>
            <g
               mask="url(#mask7_3845_1671)"
               id="g273">
              <g
                 id="Group_6">
                <g
                   id="Group_7">
                  <g
                     id="Clip path group_9">
                    <mask
                       id="mask8_3845_1671"
                       maskUnits="userSpaceOnUse"
                       x="1"
                       y="45"
                       width="33"
                       height="33">
                      <g
                         id="SVGID_14_">
                        <path
                           id="Vector_12"
                           d="M 33.0159,45.4349 H 1.50244 V 77.1196 H 33.0159 Z"
                           fill="#ffffff" />
                      </g>
                    </mask>
                    <g
                       mask="url(#mask8_3845_1671)"
                       id="g268">
                      <g
                         id="Group_8">
                        <g
                           id="Clip path group_10">
                          <mask
                             id="mask9_3845_1671"
                             maskUnits="userSpaceOnUse"
                             x="9"
                             y="52"
                             width="17"
                             height="19">
                            <g
                               id="SVGID_16_">
                              <path
                                 id="Vector_13"
                                 d="M 9.29976,55.6098 C 9.28074,55.7239 9.26172,55.819 9.26172,55.9331 v 0.0761 c 0.01902,0.9699 0.95088,1.8257 3.42328,2.5865 1.8448,0.5705 4.0129,1.1981 6.6375,2.111 3.3662,1.1791 6.1429,2.5485 5.5343,5.6294 -0.1712,0.8178 -1.008,2.3203 -3.0049,3.7277 0.6086,-0.2663 1.5595,-0.8749 2.073,-1.4454 0.6086,-0.6847 1.1411,-1.5976 1.2742,-2.2632 0.0571,-0.2663 0.0761,-0.5135 0.0761,-0.7608 v -0.038 c -0.019,-2.5485 -2.6435,-3.9368 -5.7055,-5.0019 -2.6245,-0.9128 -4.7926,-1.5404 -6.6374,-2.111 -2.9289,-0.8939 -3.42334,-1.7497 -3.40432,-2.6816 0.01901,-1.084 1.17912,-2.4534 2.47242,-3.2521 -1.9019,1.1411 -2.5485,2.2632 -2.70064,3.1 z"
                                 fill="#ffffff" />
                            </g>
                          </mask>
                          <g
                             mask="url(#mask9_3845_1671)"
                             id="g264">
                            <path
                               id="Vector_14"
                               d="M 33.0157,56.8079 13.2366,45.511 1.69238,65.7466 21.4905,77.0245 Z"
                               fill="#8e98a8"
                               fill-opacity="0.56" />
                          </g>
                        </g>
                      </g>
                    </g>
                  </g>
                </g>
              </g>
            </g>
          </g>
          <g
             id="Clip path group_11">
            <mask
               id="mask10_3845_1671"
               maskUnits="userSpaceOnUse"
               x="0"
               y="0"
               width="124"
               height="124">
              <g
                 id="SVGID_12__2">
                <path
                   id="Vector_15"
                   d="M 124,0 H 0 v 124 h 124 z"
                   fill="#ffffff" />
              </g>
            </mask>
            <g
               mask="url(#mask10_3845_1671)"
               id="g310">
              <g
                 id="Group_9"
                 opacity="0.8">
                <g
                   id="Group_10">
                  <g
                     id="Clip path group_12">
                    <mask
                       id="mask11_3845_1671"
                       maskUnits="userSpaceOnUse"
                       x="11"
                       y="55"
                       width="19"
                       height="18">
                      <g
                         id="SVGID_19_">
                        <path
                           id="Vector_16"
                           d="M 29.2502,55.0773 H 11.2778 v 17.7441 h 17.9724 z"
                           fill="#ffffff" />
                      </g>
                    </mask>
                    <g
                       mask="url(#mask11_3845_1671)"
                       id="g305">
                      <g
                         id="Group_11">
                        <g
                           id="Clip path group_13">
                          <mask
                             id="mask12_3845_1671"
                             maskUnits="userSpaceOnUse"
                             x="15"
                             y="59"
                             width="11"
                             height="10">
                            <g
                               id="SVGID_21_">
                              <path
                                 id="Vector_17"
                                 d="m 15.8041,59.6607 c -0.3043,0 -0.4755,0.1142 -0.4755,0.2663 v 0.038 c 0.019,0.2092 0.3423,0.5135 1.065,0.7418 0.7988,0.2662 1.8448,0.6276 2.7197,0.8938 2.8718,0.9509 5.5153,2.1491 5.0208,5.116 -0.1141,0.6086 -0.1901,0.8748 -0.6656,1.5024 0.0761,-0.0951 1.3883,-0.6656 1.5975,-2.13 0.0191,-0.1522 0.0381,-0.3043 0.0381,-0.4565 V 65.5374 C 25.066,63.046 22.2703,61.7147 19.3035,60.6877 18.5047,60.4025 17.4397,60.0601 16.5458,59.7748 16.2795,59.6988 16.0703,59.6607 15.8801,59.6417 h -0.076 z"
                                 fill="#ffffff" />
                            </g>
                          </mask>
                          <g
                             mask="url(#mask12_3845_1671)"
                             id="g301">
                            <g
                               id="Group_12">
                              <g
                                 id="Group_13">
                                <g
                                   id="Clip path group_14">
                                <mask
                                   id="mask13_3845_1671"
                                   maskUnits="userSpaceOnUse"
                                   x="11"
                                   y="55"
                                   width="19"
                                   height="18">
                                <g
                                   id="SVGID_29_">
                                <path
                                   id="Vector_18"
                                   d="M 29.2502,55.0773 H 11.2778 v 17.7441 h 17.9724 z"
                                   fill="#ffffff" />
                                </g>
                                </mask>
                                <g
                                   mask="url(#mask13_3845_1671)"
                                   id="g296">
                                <g
                                   id="Group_14">
                                <g
                                   id="Clip path group_15">
                                <mask
                                   id="mask14_3845_1671"
                                   maskUnits="userSpaceOnUse"
                                   x="11"
                                   y="55"
                                   width="19"
                                   height="18">
                                <g
                                   id="SVGID_31_">
                                <path
                                   id="Vector_19"
                                   d="m 17.8314,55.0629 -6.5453,10.8889 11.4268,6.8686 6.5453,-10.8889 z"
                                   fill="#ffffff" />
                                </g>
                                </mask>
                                <g
                                   mask="url(#mask14_3845_1671)"
                                   id="g292">
                                <path
                                   id="Vector_20"
                                   d="M 16.0516,47.1465 3.44238,68.1048 24.4767,80.752 37.0859,59.7747 Z"
                                   fill="#8e98a8"
                                   fill-opacity="0.56" />
                                </g>
                                </g>
                                </g>
                                </g>
                                </g>
                              </g>
                            </g>
                          </g>
                        </g>
                      </g>
                    </g>
                  </g>
                </g>
              </g>
            </g>
          </g>
          <g
             id="Clip path group_16">
            <mask
               id="mask15_3845_1671"
               maskUnits="userSpaceOnUse"
               x="0"
               y="0"
               width="124"
               height="124">
              <g
                 id="SVGID_12__3">
                <path
                   id="Vector_21"
                   d="M 124,0 H 0 v 124 h 124 z"
                   fill="#ffffff" />
              </g>
            </mask>
            <g
               mask="url(#mask15_3845_1671)"
               id="g332">
              <g
                 id="Group_15"
                 opacity="0.5">
                <g
                   id="Group_16">
                  <g
                     id="Clip path group_17">
                    <mask
                       id="mask16_3845_1671"
                       maskUnits="userSpaceOnUse"
                       x="11"
                       y="57"
                       width="19"
                       height="19">
                      <g
                         id="SVGID_34_">
                        <path
                           id="Vector_22"
                           d="M 29.4974,57.6638 H 11.6201 v 17.9154 h 17.8773 z"
                           fill="#ffffff" />
                      </g>
                    </mask>
                    <g
                       mask="url(#mask16_3845_1671)"
                       id="g327">
                      <g
                         id="Group_17">
                        <g
                           id="Clip path group_18">
                          <mask
                             id="mask17_3845_1671"
                             maskUnits="userSpaceOnUse"
                             x="16"
                             y="61"
                             width="9"
                             height="11">
                            <g
                               id="SVGID_36_">
                              <path
                                 id="Vector_23"
                                 d="m 16.4888,65.2521 c 0.5325,0.1522 1.0079,0.3043 1.4454,0.4184 2.1871,0.6276 2.9098,1.5405 2.6625,2.9289 -0.2662,1.4644 -2.6625,2.8527 -2.9478,3.0239 1.6736,-0.1522 4.5074,-1.5976 5.8006,-3.3853 0.4755,-0.6276 0.5515,-0.9129 0.6657,-1.5215 0.4754,-2.9478 -2.1491,-4.165 -5.0209,-5.1159 z"
                                 fill="#ffffff" />
                            </g>
                          </mask>
                          <g
                             mask="url(#mask17_3845_1671)"
                             id="g323">
                            <path
                               id="Vector_24"
                               d="m 11.6201,67.7436 9.8516,7.8356 8.0067,-10.0798 -9.8325,-7.8356 z"
                               fill="#8e98a8"
                               fill-opacity="0.56" />
                          </g>
                        </g>
                      </g>
                    </g>
                  </g>
                </g>
              </g>
            </g>
          </g>
          <g
             id="Clip path group_19">
            <mask
               id="mask18_3845_1671"
               maskUnits="userSpaceOnUse"
               x="0"
               y="0"
               width="124"
               height="124">
              <g
                 id="SVGID_12__4">
                <path
                   id="Vector_25"
                   d="M 124,0 H 0 v 124 h 124 z"
                   fill="#ffffff" />
              </g>
            </mask>
            <g
               mask="url(#mask18_3845_1671)"
               id="g354">
              <g
                 id="Group_18">
                <g
                   id="Group_19">
                  <g
                     id="Clip path group_20">
                    <mask
                       id="mask19_3845_1671"
                       maskUnits="userSpaceOnUse"
                       x="3"
                       y="57"
                       width="18"
                       height="15">
                      <g
                         id="SVGID_39_">
                        <path
                           id="Vector_26"
                           d="M 20.8634,57.7399 H 3.91797 V 71.6233 H 20.8634 Z"
                           fill="#ffffff" />
                      </g>
                    </mask>
                    <g
                       mask="url(#mask19_3845_1671)"
                       id="g349">
                      <g
                         id="Group_20">
                        <g
                           id="Clip path group_21">
                          <mask
                             id="mask20_3845_1671"
                             maskUnits="userSpaceOnUse"
                             x="4"
                             y="57"
                             width="17"
                             height="15">
                            <g
                               id="SVGID_44_">
                              <path
                                 id="Vector_27"
                                 d="m 17.7253,66.0129 c 2.13,0.6846 2.4153,1.6165 2.3963,2.3583 -0.038,1.6546 -2.3012,3.157 -2.4534,3.2521 0.3233,-0.1902 2.6816,-1.5785 2.9479,-3.0239 C 20.8633,67.211 20.1406,66.2981 17.9535,65.6705 16.8124,65.3472 15.405,64.9288 13.7314,64.4153 12.4382,64.035 10.8026,63.4454 9.26209,62.7797 5.17313,60.973 4.64062,58.7669 4.75473,57.7399 c -0.83681,5.0208 9.12887,7.0368 12.97057,8.273 z"
                                 fill="#ffffff" />
                            </g>
                          </mask>
                          <g
                             mask="url(#mask20_3845_1671)"
                             id="g345">
                            <path
                               id="Vector_28"
                               d="M 20.8634,57.7399 H 3.91797 V 71.6043 H 20.8634 Z"
                               fill="#8e98a8"
                               fill-opacity="0.56" />
                          </g>
                        </g>
                      </g>
                    </g>
                  </g>
                </g>
              </g>
            </g>
          </g>
        </g>
      </g>
    </g>
    <g
       id="Clip path group_22">
      <mask
         id="mask21_3845_1671"
         maskUnits="userSpaceOnUse"
         x="0"
         y="0"
         width="124"
         height="124">
        <g
           id="SVGID_2__5">
          <path
             id="Vector_29"
             d="M 124,0 H 0 v 124 h 124 z"
             fill="#ffffff" />
        </g>
      </mask>
      <g
         mask="url(#mask21_3845_1671)"
         id="g372">
        <g
           id="Group_21">
          <g
             id="Clip path group_23">
            <mask
               id="mask22_3845_1671"
               maskUnits="userSpaceOnUse"
               x="3"
               y="49"
               width="24"
               height="8">
              <g
                 id="SVGID_47_">
                <path
                   id="Vector_30"
                   d="m 3.74658,56.5987 h 0.26626 c 2.47239,-3.3853 6.46626,-5.5914 10.97366,-5.5914 4.5073,0 8.5012,2.2061 10.9736,5.5914 h 0.2662 c -1.9969,-4.203 -6.276,-7.0938 -11.2398,-7.0938 -4.9448,-0.0191 -9.24299,2.8908 -11.23992,7.0938 z"
                   fill="#ffffff" />
              </g>
            </mask>
            <g
               mask="url(#mask22_3845_1671)"
               id="g368">
              <path
                 id="Vector_31"
                 d="M 2.89062,49.6 4.08878,59.3374 27.1011,56.4846 25.8839,46.7472 Z"
                 fill="#8e98a8"
                 fill-opacity="0.56" />
            </g>
          </g>
        </g>
      </g>
    </g>
  </g>
</svg>
