<svg width="96" height="95" viewBox="0 0 96 95" fill="none" xmlns="http://www.w3.org/2000/svg">
<g id="Group">
<path id="Vector" d="M90.9734 13.6131C86.6086 5.77657 79.715 0.881028 72.0607 0.179694C64.6972 -0.480249 57.4932 2.79418 52.3306 9.20046L48.0773 14.4846L44.8271 10.4514C35.7741 -0.788377 21.5365 -2.91997 11.7097 5.50983C5.62262 10.7342 1.83702 18.573 1.05017 27.5823C0.234916 36.9066 2.81839 46.0446 8.13833 52.651L13.7271 59.5723L46.4052 93.9929C46.8598 94.4712 47.4521 94.7333 48.0773 94.7333C48.0773 94.7333 48.0794 94.7333 48.0838 94.7333C48.7089 94.731 49.3012 94.4643 49.7471 93.9929L82.3225 59.6735C82.3946 59.6114 82.5039 59.4942 82.5695 59.4137L87.0129 53.8973C96.0507 42.669 97.7184 25.7267 90.9734 13.6131ZM84.5759 51.7312L80.1587 57.2131L48.0773 91.0059L16.0221 57.2453L10.5732 50.4826C5.79966 44.5592 3.48721 36.3225 4.22597 27.8881C4.93194 19.7826 8.30663 12.76 13.7271 8.10592C17.2264 5.10283 21.3071 3.64037 25.4577 3.64037C31.4726 3.64037 37.6363 6.71705 42.3901 12.6175L46.8576 18.1614C47.4718 18.9157 48.6849 18.9134 49.2925 18.1614L54.7632 11.3688C59.2461 5.80646 65.4425 2.93904 71.7809 3.5208C78.3926 4.12556 84.3879 8.42094 88.2194 15.3101C94.2082 26.0578 92.6411 41.7148 84.5759 51.7312Z" fill="black"/>
<path id="Vector_2" d="M39.1059 46.9045C38.5616 46.171 37.5584 46.0491 36.8699 46.6171C36.1749 47.1874 36.0503 48.2428 36.5967 48.9718L42.2358 56.56C42.5199 56.9463 42.9527 57.1785 43.416 57.2015C43.4401 57.2038 43.4663 57.2038 43.4903 57.2038C43.9253 57.2038 44.3471 57.0176 44.6444 56.6795L64.4728 34.6898C65.0805 34.0161 65.0542 32.956 64.4138 32.3191C63.7778 31.6867 62.7702 31.7074 62.1626 32.3812L43.604 52.9613L39.1059 46.9045Z" fill="black"/>
<path id="Vector_3" d="M66.0718 40.2523C65.226 40.5053 64.732 41.4342 64.9768 42.3241C66.2685 47.1001 65.7156 52.1198 63.4206 56.4566C61.1256 60.7934 57.3619 63.9321 52.8222 65.2911C43.461 68.0987 33.6604 62.357 30.9917 52.5038C28.3273 42.6461 33.7806 32.3445 43.1484 29.5392C46.7635 28.4561 50.5404 28.5987 54.0615 29.96C54.8811 30.2819 55.8013 29.8335 56.1073 28.9643C56.4089 28.0951 55.9849 27.1316 55.1587 26.812C51.0081 25.2093 46.5559 25.0345 42.2785 26.313C31.219 29.6265 24.7822 41.7861 27.9295 53.4213C30.5349 63.0583 38.9126 69.3565 47.9941 69.3565C49.8803 69.3565 51.795 69.0852 53.6943 68.5149C59.0514 66.9122 63.4949 63.2078 66.2073 58.0892C68.9154 52.9706 69.5689 47.0449 68.0411 41.4089C67.8007 40.5145 66.9308 39.9925 66.0718 40.2523Z" fill="black"/>
</g>
</svg>
