<svg width="96" height="95" viewBox="0 0 96 95" fill="none" xmlns="http://www.w3.org/2000/svg">
<g id="Value icons">
<path id="Vector" d="M52.6017 17.7037C55.3428 16.1104 57.1933 13.1417 57.1933 9.74743C57.1933 4.68076 53.0668 0.554199 48.0001 0.554199C42.9334 0.554199 38.8069 4.68076 38.8069 9.74743C38.8069 13.1417 40.6574 16.1104 43.3985 17.7037C37.6688 18.8516 33.1761 23.5719 32.5032 29.5886C32.2954 31.4391 32.8397 33.1511 34.0866 34.5464C35.3334 35.9318 36.9761 36.674 38.8366 36.674H57.1735C59.034 36.674 60.6767 35.9417 61.9235 34.5464C63.1704 33.161 63.7147 31.4391 63.5069 29.5886C62.8241 23.5719 58.3313 18.8516 52.6017 17.7037ZM41.0928 9.74743C41.0928 5.93753 44.1902 2.84014 48.0001 2.84014C51.81 2.84014 54.9074 5.93753 54.9074 9.74743C54.9074 13.5573 51.81 16.6547 48.0001 16.6547C44.1902 16.6547 41.0928 13.5573 41.0928 9.74743ZM60.2116 33.0125C59.4001 33.9131 58.3808 34.3782 57.1735 34.3782H38.8267C37.6194 34.3782 36.5902 33.9229 35.7886 33.0125C34.9772 32.112 34.6407 31.0433 34.7793 29.836C35.4324 24.0667 40.2912 19.7224 46.1001 19.7224H49.9001C55.709 19.7224 60.5777 24.0667 61.2209 29.836C61.3595 31.0433 61.023 32.112 60.2116 33.0125ZM52.6017 75.4755C55.3428 73.8823 57.1933 70.9136 57.1933 67.5193C57.1933 62.4526 53.0668 58.3261 48.0001 58.3261C42.9334 58.3261 38.8069 62.4526 38.8069 67.5193C38.8069 70.9136 40.6574 73.8823 43.3985 75.4755C37.6688 76.6235 33.1761 81.3438 32.5032 87.3605C32.2954 89.211 32.8397 90.923 34.0866 92.3183C35.3334 93.7037 36.9761 94.4459 38.8366 94.4459H57.1735C59.034 94.4459 60.6767 93.7136 61.9235 92.3183C63.1704 90.9328 63.7147 89.211 63.5069 87.3605C62.8241 81.3537 58.3313 76.6235 52.6017 75.4755ZM41.0928 67.5292C41.0928 63.7193 44.1902 60.6219 48.0001 60.6219C51.81 60.6219 54.9074 63.7193 54.9074 67.5292C54.9074 71.3391 51.81 74.4365 48.0001 74.4365C44.1902 74.4266 41.0928 71.3292 41.0928 67.5292ZM60.2116 90.7943C59.4001 91.6948 58.3808 92.1599 57.1735 92.1599H38.8267C37.6194 92.1599 36.5902 91.7047 35.7886 90.7943C34.9772 89.8938 34.6407 88.825 34.7793 87.6177C35.4324 81.8485 40.2912 77.5042 46.1001 77.5042H49.9001C55.709 77.5042 60.5777 81.8485 61.2209 87.6177C61.3595 88.825 61.023 89.8839 60.2116 90.7943ZM94.8965 58.5834C94.2235 52.5766 89.7308 47.8464 84.0011 46.6985C86.7423 45.1052 88.5928 42.1365 88.5928 38.7422C88.5928 33.6756 84.4662 29.549 79.3996 29.549C74.3329 29.549 70.2064 33.6756 70.2064 38.7422C70.2064 42.1365 72.0569 45.1052 74.798 46.6985C69.0683 47.8464 64.5756 52.5667 63.9027 58.5834C63.6949 60.4339 64.2392 62.1459 65.486 63.5412C66.7329 64.9266 68.3756 65.6688 70.236 65.6688H88.573C90.4334 65.6688 92.0761 64.9365 93.323 63.5412C94.56 62.1558 95.1043 60.4339 94.8965 58.5834ZM72.4923 38.7521C72.4923 34.9422 75.5897 31.8448 79.3996 31.8448C83.2095 31.8448 86.3069 34.9422 86.3069 38.7521C86.3069 42.562 83.2095 45.6594 79.3996 45.6594C75.5897 45.6594 72.4923 42.562 72.4923 38.7521ZM91.611 62.0172C90.7996 62.9177 89.7803 63.3828 88.573 63.3828H70.2261C69.0189 63.3828 67.9897 62.9276 67.1881 62.0172C66.3767 61.1167 66.0402 60.0479 66.1787 58.8407C66.8319 53.0714 71.6907 48.7271 77.4996 48.7271H81.2996C87.1084 48.7271 91.9772 53.0813 92.6204 58.8407C92.7589 60.0479 92.4126 61.1167 91.611 62.0172ZM21.2022 46.7084C23.9433 45.1151 25.7938 42.1464 25.7938 38.7521C25.7938 33.6854 21.6673 29.5589 16.6006 29.5589C11.534 29.5589 7.40739 33.6854 7.40739 38.7521C7.40739 42.1464 9.25791 45.1151 11.9991 46.7084C6.26937 47.8464 1.77666 52.5766 1.10374 58.5834C0.895932 60.4339 1.4402 62.1459 2.68708 63.5412C3.93395 64.9266 5.57666 65.6688 7.43708 65.6688H25.7741C27.6345 65.6688 29.2772 64.9365 30.5241 63.5412C31.7709 62.1558 32.3152 60.4339 32.1074 58.5834C31.4246 52.5766 26.9319 47.8464 21.2022 46.7084ZM9.69333 38.7521C9.69333 34.9422 12.7907 31.8448 16.6006 31.8448C20.4105 31.8448 23.5079 34.9422 23.5079 38.7521C23.5079 42.562 20.4105 45.6594 16.6006 45.6594C12.7907 45.6594 9.69333 42.562 9.69333 38.7521ZM28.8121 62.0172C28.0006 62.9177 26.9813 63.3828 25.7741 63.3828H7.42718C6.21989 63.3828 5.19072 62.9276 4.38916 62.0172C3.5777 61.1167 3.24124 60.0479 3.37979 58.8407C4.03291 53.0714 8.89177 48.7271 14.7006 48.7271H18.5006C24.3095 48.7271 29.1782 53.0813 29.8215 58.8407C29.96 60.0479 29.6235 61.1167 28.8121 62.0172ZM59.4892 14.4974C59.7168 13.9037 60.3798 13.6167 60.9735 13.8443C67.2376 16.2589 72.7001 20.3756 76.7673 25.749C77.1532 26.2537 77.0543 26.9662 76.5496 27.3521C76.3418 27.5104 76.1043 27.5797 75.8569 27.5797C75.5105 27.5797 75.1642 27.4214 74.9465 27.1245C71.1366 22.0974 66.0204 18.2381 60.1522 15.9818C59.5584 15.7443 59.2616 15.0813 59.4892 14.4974ZM19.2329 25.7391C23.3001 20.3657 28.7626 16.249 35.0267 13.8344C35.6204 13.6068 36.2834 13.9037 36.511 14.4875C36.7386 15.0714 36.4418 15.7443 35.8579 15.9719C29.9897 18.2381 24.8834 22.0875 21.0636 27.1146C20.836 27.4115 20.4996 27.5698 20.1532 27.5698C19.9157 27.5698 19.6683 27.4907 19.4605 27.3422C18.9558 26.9563 18.8569 26.2438 19.2329 25.7391ZM31.9293 78.5334C31.7215 78.9094 31.3256 79.1172 30.9298 79.1172C30.7418 79.1172 30.5438 79.0677 30.3657 78.9688C26.2886 76.6828 22.736 73.6646 19.8069 70.0032C19.411 69.5084 19.4902 68.786 19.985 68.3901C20.4798 67.9943 21.2022 68.0735 21.598 68.5683C24.3392 71.9922 27.6642 74.8224 31.484 76.9599C32.048 77.2865 32.2459 77.9891 31.9293 78.5334ZM76.1834 70.0131C73.2543 73.6745 69.7017 76.6927 65.6246 78.9787C65.4464 79.0776 65.2584 79.1271 65.0605 79.1271C64.6647 79.1271 64.2688 78.9193 64.061 78.5433C63.7543 77.9891 63.9522 77.2964 64.4965 76.9797C68.3162 74.8323 71.6413 72.012 74.3824 68.5782C74.7782 68.0834 75.5006 68.0042 75.9954 68.4C76.5001 68.7959 76.5793 69.5183 76.1834 70.0131Z" fill="black"/>
</g>
</svg>
