<svg width="96" height="95" viewBox="0 0 96 95" fill="none" xmlns="http://www.w3.org/2000/svg">
<g id="Value icons">
<path id="Vector" d="M14.2181 70.2148C13.7657 69.7985 13.0306 69.8092 12.5895 70.2362C12.1484 70.6632 12.1597 71.357 12.6121 71.7733L15.3377 74.2603C15.5639 74.4632 15.8466 74.5699 16.1407 74.5699C16.4347 74.5699 16.7401 74.4632 16.9663 74.239C17.4073 73.812 17.396 73.1182 16.9436 72.7019L14.2181 70.2148Z" fill="black"/>
<path id="Vector_2" d="M92.0391 44.4899L92.0052 44.5966C89.7885 51.8764 85.7623 58.7079 80.3903 64.3332L76.3641 68.5388C72.0326 73.0753 65.8349 75.6691 59.3659 75.6691H42.6278C39.5516 75.6691 36.5207 76.6405 34.0891 78.4124L33.0373 79.1809L17.8034 64.8028L26.8171 56.8399C33.4445 50.9798 43.2385 49.8163 51.2004 53.9365L53.3266 55.036C53.4962 55.1214 53.6885 55.1747 53.8808 55.1747H63.8445C66.3326 55.1747 68.357 57.0854 68.357 59.4337C68.357 61.782 66.3326 63.6927 63.8445 63.6927H46.3034C45.6701 63.6927 45.1498 64.1837 45.1498 64.7815C45.1498 65.3792 45.6701 65.8702 46.3034 65.8702H63.8445C67.5992 65.8702 70.6641 62.9882 70.6641 59.4444C70.6641 58.7719 70.551 58.1315 70.3474 57.523L75.1992 55.6444C77.529 54.7371 79.429 53.0826 80.5599 50.9691L83.1046 46.2405C84.5522 43.5506 87.7415 42.0989 90.8742 42.7073C91.2927 42.7927 91.6546 43.0275 91.8695 43.3691C92.0957 43.7214 92.1522 44.127 92.0278 44.5113L92.0391 44.4899ZM26.5796 92.3422L4.37898 71.3888L12.9629 63.2978L32.1099 81.3691L35.1522 84.2405L26.5683 92.3315L26.5796 92.3422ZM93.8373 42.2163C93.2832 41.3624 92.3671 40.754 91.3266 40.5511C87.1873 39.7506 82.9576 41.6826 81.0463 45.2371L78.5016 49.9657C77.6082 51.6202 76.1266 52.9118 74.3058 53.6163L69.273 55.5697C68.029 54.0113 66.0498 52.9972 63.8218 52.9972H54.1522L52.2748 52.0259C43.4421 47.4466 32.5623 48.7489 25.2111 55.2495L16.1409 63.2657L13.7433 61.0028C13.2909 60.5759 12.5671 60.5759 12.1147 61.0028L1.9135 70.6309C1.69862 70.8337 1.57422 71.1113 1.57422 71.3995C1.57422 71.6877 1.69862 71.9652 1.9135 72.168L25.7427 94.6584C25.9576 94.8613 26.2516 94.9787 26.557 94.9787C26.8623 94.9787 27.1564 94.8613 27.3712 94.6584L37.5724 85.0304C38.0248 84.6034 38.0248 83.9202 37.5724 83.4933L34.6433 80.7287L35.4576 80.1309C37.4933 78.6472 40.0266 77.836 42.6052 77.836H59.3433C66.457 77.836 73.2766 74.9753 78.0492 69.9905L82.0641 65.7848C87.6736 59.9141 91.8695 52.7944 94.1879 45.1944L94.2219 45.0877C94.5159 44.127 94.3689 43.0809 93.8147 42.2163H93.8373Z" fill="black"/>
<path id="Vector_3" d="M41.6771 44.9486C41.9259 44.9486 42.1747 44.8739 42.3896 44.7138C42.8872 44.3402 42.9664 43.6571 42.5819 43.1874C38.895 38.7896 36.9384 33.4953 36.9384 27.8807C36.9384 14.2711 48.6664 3.20201 63.086 3.20201C77.5057 3.20201 89.2336 14.2711 89.2336 27.8807C89.2336 30.2396 88.8831 32.5773 88.1819 34.8189C88.0009 35.3953 88.3515 35.993 88.9622 36.1638C89.5729 36.3346 90.2063 36.0037 90.3872 35.4273C91.145 32.9829 91.5295 30.4425 91.5295 27.8807C91.5295 13.0756 78.7723 1.03516 63.086 1.03516C47.3997 1.03516 34.6426 13.0756 34.6426 27.8807C34.6426 33.997 36.7688 39.7503 40.7836 44.543C41.0098 44.8099 41.3491 44.9593 41.6884 44.9593L41.6771 44.9486Z" fill="black"/>
<path id="Vector_4" d="M48.8814 27.8808C48.8814 27.283 48.3611 26.792 47.7278 26.792C47.0945 26.792 46.5742 27.283 46.5742 27.8808C46.5742 36.4735 53.982 43.4544 63.0748 43.4544C72.1677 43.4544 79.5754 36.4628 79.5754 27.8808C79.5754 27.283 79.0552 26.792 78.4218 26.792C77.7885 26.792 77.2683 27.283 77.2683 27.8808C77.2683 35.2779 70.8897 41.2875 63.0635 41.2875C55.2373 41.2875 48.8587 35.2779 48.8587 27.8808H48.8814Z" fill="black"/>
<path id="Vector_5" d="M56.856 19.3738V19.0536C56.856 18.4559 56.347 17.9648 55.7024 17.9648C55.0578 17.9648 54.5488 18.4559 54.5488 19.0536V19.3738C54.5488 19.9716 55.0691 20.4626 55.7024 20.4626C56.3357 20.4626 56.856 19.9716 56.856 19.3738Z" fill="black"/>
<path id="Vector_6" d="M71.8169 19.3738V19.0536C71.8169 18.4559 71.2967 17.9648 70.6633 17.9648C70.03 17.9648 69.5098 18.4559 69.5098 19.0536V19.3738C69.5098 19.9716 70.0187 20.4626 70.6633 20.4626C71.308 20.4626 71.8169 19.9716 71.8169 19.3738Z" fill="black"/>
</g>
</svg>
