<svg width="94" height="95" viewBox="0 0 94 95" fill="none" xmlns="http://www.w3.org/2000/svg">
<g id="Group">
<path id="Vector" d="M47.0009 0C43.59 0 40.3806 1.44626 37.5998 3.93532C34.8191 6.42439 32.3961 9.96546 30.3683 14.2569C29.7271 15.6138 29.1371 17.0658 28.5794 18.5719C26.8559 18.2561 25.1766 17.9879 23.5554 17.8125C20.9996 17.536 18.6134 17.4167 16.3619 17.5018C14.1103 17.587 12.0034 17.8605 10.1199 18.3303C6.35283 19.27 3.33775 21.0708 1.6323 23.75C-0.0731608 26.4292 -0.267472 29.6763 0.718835 33.105C1.70514 36.5337 3.87706 40.1714 6.96082 43.9099C7.93713 45.0935 8.99768 46.3068 10.1579 47.5C8.99768 48.6932 7.93713 49.872 6.96082 51.0555C3.87705 54.7941 1.70514 58.4663 0.718835 61.8949C-0.267472 65.3236 -0.0731608 68.5708 1.6323 71.25C3.33775 73.9291 6.35283 75.6956 10.1199 76.6352C13.8869 77.5748 18.4438 77.706 23.5554 77.153C25.1766 76.9777 26.8559 76.7439 28.5794 76.4281C29.1386 77.9394 29.7251 79.3819 30.3683 80.7431C32.3961 85.0346 34.8191 88.5412 37.5998 91.0302C40.3806 93.5193 43.59 95 47.0009 95C50.4118 95 53.6212 93.5193 56.4019 91.0302C59.1827 88.5412 61.6057 85.0346 63.6335 80.7431C64.2767 79.3819 64.8632 77.9394 65.4224 76.4281C67.1458 76.7439 68.8251 76.9777 70.4464 77.153C75.558 77.706 80.1149 77.5748 83.8819 76.6352C87.6489 75.6956 90.664 73.9291 92.3695 71.25C94.0749 68.5708 94.2692 65.3236 93.2829 61.8949C92.2966 58.4663 90.1247 54.7941 87.0409 51.0555C86.0646 49.872 85.0041 48.6932 83.8438 47.5C85.0041 46.3068 86.0646 45.0935 87.0409 43.9099C90.1247 40.1714 92.2966 36.5337 93.2829 33.105C94.2692 29.6763 94.0749 26.4292 92.3695 23.75C90.664 21.0708 87.6489 19.27 83.8819 18.3303C81.9984 17.8605 79.8914 17.5869 77.6399 17.5018C75.3884 17.4166 73.0022 17.5361 70.4464 17.8125C68.8251 17.9879 67.1458 18.2561 65.4224 18.5719C64.8647 17.0658 64.2746 15.6138 63.6335 14.2569C61.6057 9.96546 59.1827 6.42439 56.4019 3.93532C53.6212 1.44626 50.4118 0 47.0009 0ZM47.0009 2.2093C49.6439 2.2093 52.2242 3.31686 54.6892 5.52326C57.1541 7.72966 59.4484 11.0155 61.3879 15.1199C61.9686 16.3488 62.5117 17.6864 63.0245 19.0552C57.9627 20.1446 52.5432 21.8219 47.0009 24.0262C41.4586 21.8219 36.0391 20.1446 30.9772 19.0552C31.49 17.6864 32.0332 16.3488 32.6139 15.1199C34.5533 11.0155 36.8476 7.72966 39.3126 5.52326C41.7775 3.31686 44.3579 2.2093 47.0009 2.2093ZM16.438 19.7111C18.5372 19.6316 20.8445 19.7228 23.2889 19.9873C24.7457 20.1449 26.2632 20.3983 27.8182 20.6777C26.329 25.1961 25.2468 30.3087 24.583 35.7631C19.7116 39.0122 15.4001 42.4137 11.8326 45.843C10.7882 44.7607 9.78081 43.6636 8.90193 42.5981C5.95253 39.0225 3.95291 35.5575 3.07861 32.5182C2.20431 29.4788 2.44222 26.9306 3.76371 24.8547C5.08519 22.7787 7.42766 21.3035 10.7669 20.4706C12.4365 20.0541 14.3388 19.7907 16.438 19.7111ZM75.9652 19.7111C76.5149 19.71 77.039 19.6912 77.5638 19.7111C79.663 19.7907 81.5652 20.0541 83.2349 20.4706C86.5741 21.3035 88.9166 22.7787 90.2381 24.8547C91.5595 26.9306 91.7975 29.4788 90.9232 32.5182C90.0489 35.5575 88.0492 39.0225 85.0998 42.5981C84.221 43.6636 83.2136 44.7607 82.1692 45.843C78.6017 42.4137 74.2902 39.0122 69.4188 35.7631C68.755 30.3087 67.6728 25.1961 66.1836 20.6777C67.7386 20.3983 69.2561 20.1449 70.7128 19.9873C72.5462 19.789 74.3161 19.7156 75.9652 19.7111ZM30.2541 21.161C34.5941 22.0883 39.253 23.4379 44.0321 25.2344C41.1781 26.4601 38.3044 27.8028 35.4304 29.3078C32.5735 30.8038 29.8677 32.3847 27.2853 34.0025C27.9623 29.3448 28.9659 25.0357 30.2541 21.161ZM63.7477 21.161C65.0359 25.0357 66.0395 29.3448 66.7164 34.0025C64.1341 32.3847 61.4283 30.8038 58.5714 29.3078C55.6974 27.8028 52.8237 26.4601 49.9696 25.2344C54.7488 23.4379 59.4077 22.0883 63.7477 21.161ZM47.0009 26.4081C50.4222 27.805 53.8849 29.3901 57.3534 31.2064C60.8204 33.0219 64.0536 34.9817 67.097 36.9713C67.4737 40.3589 67.706 43.8672 67.706 47.5C67.706 51.1291 67.473 54.6482 67.097 58.0286C64.055 60.017 60.8185 61.9446 57.3534 63.759C53.8863 65.5746 50.4209 67.1609 47.0009 68.5574C43.5809 67.1609 40.1155 65.5746 36.6483 63.759C33.1833 61.9446 29.9467 60.017 26.9047 58.0286C26.5288 54.6482 26.2958 51.1291 26.2958 47.5C26.2958 43.8672 26.528 40.3589 26.9047 36.9713C29.9482 34.9817 33.1813 33.0219 36.6483 31.2064C40.1169 29.3901 43.5796 27.805 47.0009 26.4081ZM24.2785 38.6973C24.0222 41.5596 23.8599 44.4806 23.8599 47.5C23.8599 50.4955 24.0262 53.4271 24.2785 56.2682C20.1518 53.3957 16.5355 50.4619 13.4692 47.5C16.5357 44.5378 20.1515 41.5699 24.2785 38.6973ZM69.7232 38.6973C73.8503 41.5699 77.466 44.5378 80.5325 47.5C77.4663 50.4619 73.85 53.3957 69.7232 56.2682C69.9756 53.4271 70.1419 50.4955 70.1419 47.5C70.1419 44.4806 69.9795 41.5596 69.7232 38.6973ZM11.8326 49.157C15.4023 52.5882 19.7079 55.986 24.583 59.2369C25.2452 64.6954 26.3295 69.8 27.8182 74.3223C26.2632 74.6018 24.7457 74.8206 23.2889 74.9782C18.4001 75.507 14.1062 75.3278 10.7669 74.4949C7.42766 73.662 5.08519 72.2213 3.76371 70.1454C2.44222 68.0694 2.20431 65.4866 3.07861 62.4472C3.95291 59.4079 5.95253 55.9429 8.90193 52.3673C9.78081 51.3019 10.7882 50.2393 11.8326 49.157ZM82.1692 49.157C83.2136 50.2393 84.221 51.3019 85.0998 52.3673C88.0492 55.9429 90.0489 59.4079 90.9232 62.4472C91.7975 65.4866 91.5595 68.0694 90.2381 70.1454C88.9166 72.2213 86.5741 73.662 83.2349 74.4949C79.8956 75.3278 75.6017 75.507 70.7128 74.9782C69.2561 74.8206 67.7386 74.6018 66.1836 74.3223C67.6723 69.8 68.7566 64.6954 69.4188 59.2369C74.2938 55.986 78.5995 52.5882 82.1692 49.157ZM27.2473 60.9629C29.8373 62.5866 32.564 64.1567 35.4304 65.6577C38.3044 67.1627 41.1781 68.54 44.0321 69.7656C39.2532 71.5619 34.5939 72.9118 30.2541 73.839C28.9595 69.95 27.9242 65.6404 27.2473 60.9629ZM66.7545 60.9629C66.0775 65.6404 65.0423 69.95 63.7477 73.839C59.4078 72.9118 54.7486 71.5619 49.9696 69.7656C52.8237 68.54 55.6973 67.1627 58.5714 65.6577C61.4378 64.1567 64.1645 62.5866 66.7545 60.9629ZM47.0009 70.9738C52.5432 73.1781 57.9627 74.8554 63.0245 75.9448C62.5117 77.3122 61.9686 78.6168 61.3879 79.8456C59.4484 83.95 57.1541 87.2359 54.6892 89.4422C52.2242 91.6487 49.6439 92.7907 47.0009 92.7907C44.3579 92.7907 41.7775 91.6487 39.3126 89.4422C36.8476 87.2359 34.5533 83.95 32.6139 79.8456C32.0332 78.6168 31.49 77.3122 30.9772 75.9448C36.0391 74.8554 41.4586 73.1781 47.0009 70.9738Z" fill="black"/>
</g>
</svg>
