<svg width="130" height="26" viewBox="0 0 130 26" fill="none" xmlns="http://www.w3.org/2000/svg">
<g id="Bloomberg" clip-path="url(#clip0_3845_2092)">
<path id="Vector" d="M3.42198 3.35939H6.24726C8.82945 3.35939 9.96737 4.16903 9.96737 5.81367C9.96737 7.2429 8.82945 8.21335 6.54539 8.21335H3.42198V3.35939ZM0 19.5306H6.92455C10.5636 19.5306 14.2027 18.2407 14.2027 14.0885C14.2027 11.6342 12.4685 9.75007 10.0519 9.47746V9.42071C12.0291 8.83294 13.3928 7.40414 13.3928 5.2474C13.3928 1.76978 10.4016 0.450195 7.49524 0.450195H0V19.5306ZM3.42198 11.1225H6.70745C9.47727 11.1225 10.7855 11.8243 10.7855 13.8202C10.7855 16.3231 8.33546 16.6215 6.57096 16.6215H3.42198V11.1225Z" fill="#8E98A8" fill-opacity="0.56"/>
<path id="Vector_2" d="M18.0723 19.5306V0" stroke="#8E98A8" stroke-opacity="0.56" stroke-width="7.5" stroke-miterlimit="10"/>
<path id="Vector_3" d="M25.1378 13.0635C25.1378 11.0422 26.5782 9.18425 28.9689 9.18425C31.3595 9.18425 32.7956 11.0426 32.7956 13.0635C32.7956 15.0843 31.3595 16.9431 28.9689 16.9431C26.5778 16.9431 25.1378 15.0848 25.1378 13.0635ZM21.8779 13.0635C21.8779 17.1331 25.0269 19.8523 28.9689 19.8523C32.9061 19.8523 36.0598 17.1336 36.0598 13.0635C36.0598 8.99334 32.9065 6.27075 28.9689 6.27075C25.0269 6.27032 21.8779 8.99377 21.8779 13.0635Z" fill="#8E98A8" fill-opacity="0.56"/>
<path id="Vector_4" d="M40.7892 13.0635C40.7892 11.0422 42.2296 9.18425 44.6202 9.18425C47.0109 9.18425 48.4469 11.0426 48.4469 13.0635C48.4469 15.0843 47.0109 16.9431 44.6202 16.9431C42.2296 16.9431 40.7892 15.0848 40.7892 13.0635ZM37.5293 13.0635C37.5293 17.1331 40.6787 19.8523 44.6202 19.8523C48.5574 19.8523 51.7112 17.1336 51.7112 13.0635C51.7112 8.99334 48.5579 6.27075 44.6202 6.27075C40.6783 6.27032 37.5293 8.99377 37.5293 13.0635Z" fill="#8E98A8" fill-opacity="0.56"/>
<path id="Vector_5" d="M53.6968 6.59404H56.7946V8.61749H56.8458C57.4169 7.40411 58.6653 6.26855 60.8384 6.26855C62.8499 6.26855 64.2392 7.04852 64.9165 8.66823C65.8667 7.02746 67.2517 6.26855 69.2034 6.26855C72.6804 6.26855 73.9041 8.72499 73.9041 11.8247V19.5311H70.6442V12.2009C70.6442 10.5855 70.1584 9.18377 68.2279 9.18377C66.1913 9.18377 65.4282 10.8538 65.4282 12.5221V19.5306H62.1726V11.8242C62.1726 10.2299 61.5205 9.18377 59.944 9.18377C57.8004 9.18377 56.9567 10.742 56.9567 12.4692V19.5306H53.6968V6.59404Z" fill="#8E98A8" fill-opacity="0.56"/>
<path id="Vector_6" d="M87.3574 13.0634C87.3574 15.0869 85.9213 16.9431 83.5263 16.9431C81.1353 16.9431 79.6953 15.0869 79.6953 13.0634C79.6953 11.0421 81.1353 9.17948 83.5263 9.17948C85.9213 9.17948 87.3574 11.0421 87.3574 13.0634ZM76.5463 19.5306H79.6442V17.5915H79.6953C80.6495 19.1497 82.3585 19.8518 84.182 19.8518C88.1963 19.8518 90.6169 16.8876 90.6169 13.063C90.6169 9.23624 88.0347 6.27029 84.3146 6.27029C81.8723 6.27029 80.5646 7.39939 79.8868 8.24085H79.8058V0H76.5459L76.5463 19.5306Z" fill="#8E98A8" fill-opacity="0.56"/>
<path id="Vector_7" d="M95.3512 11.7697C95.5943 9.90703 96.7916 8.6958 98.7177 8.6958C100.755 8.6958 102.003 9.88209 102.033 11.7697H95.3512ZM105.293 14.1947V13.3068C105.293 8.80372 102.822 6.27075 99.1823 6.27075C95.2364 6.27075 92.0913 8.99377 92.0913 13.0635C92.0913 17.1331 95.2364 19.8523 99.1823 19.8523C101.241 19.8523 103.175 19.1252 104.692 17.2686L102.357 15.5203C101.543 16.5123 100.482 17.2686 98.8538 17.2686C97.0347 17.2686 95.564 16.1081 95.3512 14.1947H105.293Z" fill="#8E98A8" fill-opacity="0.56"/>
<path id="Vector_8" d="M107.415 6.59404H110.675V8.64286H110.73C111.438 7.16075 112.874 6.26855 114.587 6.26855C114.996 6.26855 115.375 6.35111 115.754 6.46075V9.58579C115.213 9.4525 114.693 9.34458 114.177 9.34458C111.109 9.34458 110.674 11.9068 110.674 12.6089V19.5311H107.415L107.415 6.59404Z" fill="#8E98A8" fill-opacity="0.56"/>
<path id="Vector_9" d="M123.046 9.18377C125.407 9.18377 126.902 10.742 126.902 12.9847C126.902 15.1372 125.436 16.7818 123.02 16.7818C120.822 16.7818 119.189 15.0843 119.189 13.0355C119.189 10.742 120.762 9.18377 123.046 9.18377ZM126.902 6.59404V8.53494H126.851C125.897 6.97027 124.184 6.26855 122.365 6.26855C118.346 6.26855 115.93 9.2345 115.93 13.0634C115.93 16.7251 118.512 19.6914 122.42 19.6914C124.052 19.6914 125.735 19.074 126.69 17.8077H126.736V18.7528C126.736 21.3107 125.765 23.0912 122.612 23.0912C120.792 23.0912 119.432 22.4144 118.128 21.2221L116.177 23.8686C118.017 25.4922 120.22 26 122.641 26C127.721 26 130 23.0319 130 18.3718V6.59404H126.902Z" fill="#8E98A8" fill-opacity="0.56"/>
</g>
<defs>
<clipPath id="clip0_3845_2092">
<rect width="130" height="26" fill="white"/>
</clipPath>
</defs>
</svg>
