<svg width="119" height="29" viewBox="0 0 119 29" fill="none" xmlns="http://www.w3.org/2000/svg">
<g id="Group">
<path id="Vector" d="M12.0611 0.32251C8.1391 0.358492 4.22183 0.602358 0.326172 1.05306V4.07574L0.476376 14.0271C0.402332 22.0527 8.36526 27.0389 10.923 28.4267L11.7311 28.8454L12.499 28.4267C15.1329 27.0368 23.3561 22.0527 23.3561 14.0418L23.5063 3.8078V1.05306C19.7083 0.594974 15.8871 0.351063 12.0611 0.32251Z" fill="white"/>
<path id="Vector_2" d="M11.401 0.383289C10.2311 0.383289 9.07371 0.433578 7.95247 0.485907H7.74959C7.32648 0.50684 6.9222 0.529883 6.52447 0.555002H6.3154C2.93052 0.764329 0.355469 1.08445 0.355469 1.08445V4.10504L0.391831 6.4832V6.70685L0.410838 7.90639V8.11572L0.499674 14.0189C0.490978 15.9533 0.941613 17.8626 1.81527 19.5931C4.16988 24.3406 9.03141 27.3382 10.9121 28.3681L11.7183 28.7867L12.4839 28.3681C14.445 27.334 19.5185 24.2969 21.9554 19.497C22.8338 17.8064 23.2955 15.9341 23.3029 14.0332L23.4128 6.59998L23.4657 3.8308V1.0928C23.4657 1.0928 20.7157 0.736802 17.0769 0.523289H16.9075C15.6741 0.454211 14.3477 0.399803 12.9959 0.383057H12.0567L11.401 0.383289ZM12.1204 2.27336H12.5307L12.6832 2.66053C12.7297 2.78822 12.7742 2.90356 12.8228 3.03544H12.8332C12.8797 2.90566 12.9304 2.79063 12.977 2.66504C13.0235 2.53944 13.0766 2.40761 13.1274 2.27992H13.5294C13.3602 2.64414 13.1902 3.00488 13.0195 3.36211V3.96269H12.6344L12.6323 3.35761C12.461 2.99548 12.2896 2.6355 12.1204 2.27336ZM10.6544 2.28195H11.2382C11.5915 2.28195 11.8729 2.37615 11.8729 2.7006C11.8748 2.77624 11.8547 2.85082 11.8149 2.91543C11.7751 2.98003 11.7174 3.03192 11.6485 3.06487V3.0751C11.739 3.09399 11.8196 3.14427 11.8758 3.21686C11.9321 3.28944 11.9602 3.37953 11.9551 3.47085C11.9551 3.81205 11.6634 3.96463 11.2932 3.96882H10.6585L10.6544 2.28195ZM9.45901 2.30689V3.9815L9.06317 3.99418L8.61899 3.16954C8.56399 3.05022 8.50706 2.93076 8.45206 2.80935H8.44132C8.45824 2.99565 8.49008 3.22808 8.49008 3.41648V4.01503L8.13473 4.04038V2.36576L8.52809 2.349L8.97227 3.16954L9.14168 3.53381C9.12264 3.35588 9.09086 3.11511 9.09086 2.92463V2.31955L9.45901 2.30689ZM14.4435 2.30894L14.9236 2.32366C15.444 2.3425 15.7698 2.61471 15.7698 3.19245C15.7698 3.77019 15.4335 4.02988 14.9364 4.00686L14.4327 3.99214L14.4435 2.30894ZM16.8442 2.37681C16.8582 2.37696 16.8725 2.37725 16.8867 2.37804C17.3437 2.40316 17.6611 2.74255 17.6611 3.29098C17.6611 3.83942 17.3458 4.14922 16.8867 4.12829C16.4277 4.10736 16.1145 3.7578 16.1145 3.20308C16.1145 2.67179 16.4103 2.37218 16.8442 2.37681ZM7.13995 2.40543C7.47056 2.40333 7.73082 2.52244 7.73082 2.89726C7.73082 3.15622 7.60636 3.31772 7.42051 3.40505L7.80271 4.05266L7.3796 4.07351L7.05482 3.48642L6.84657 3.49786V4.10294L6.46147 4.12584V2.44509L7.07259 2.40748C7.0952 2.4063 7.1179 2.40557 7.13995 2.40543ZM18.0589 2.4872L18.4436 2.51622V4.19084L18.0589 4.16385V2.4872ZM5.58332 2.50354C5.76103 3.0492 5.93863 3.5979 6.11634 4.14912L5.71017 4.17611L5.60605 3.7832L5.08626 3.82082C5.05146 3.95621 5.01712 4.09148 4.98254 4.22639L4.59125 4.25787L5.12426 2.53297V2.53706L5.58332 2.50354ZM19.0171 2.56037L19.4104 2.5939C19.5515 2.88555 19.6988 3.17717 19.8525 3.46882C19.9097 3.59651 19.9648 3.72625 20.0219 3.85394H20.0327C20.0137 3.67601 19.9819 3.43539 19.9819 3.23862V2.64418L20.3475 2.67729V4.35191L19.9542 4.31429C19.8131 4.02124 19.6658 3.72899 19.5121 3.43732L19.3451 3.05423H19.3344C19.3513 3.24053 19.3832 3.47282 19.3832 3.66749V4.26399L19.0171 4.24968L19.0171 2.56037ZM11.0391 2.57509V2.95163H11.2193V2.94549C11.4076 2.94549 11.4899 2.86595 11.4899 2.73617C11.4899 2.60638 11.4011 2.57508 11.2234 2.57508L11.0391 2.57509ZM4.26512 2.6082V2.9267L3.58624 2.98925V3.32654L4.16347 3.2742V3.59228L3.58624 3.64665V4.04038L4.29074 3.97537V4.29344C3.92898 4.32484 3.56503 4.36048 3.20115 4.39606L3.20735 2.70673L4.26512 2.6082ZM14.8281 2.62946V3.699H14.9C15.1898 3.70946 15.3846 3.57759 15.3846 3.17568C15.3846 2.77377 15.1898 2.63993 14.9 2.62946H14.8281ZM7.04094 2.70265L6.84426 2.71287V3.20307L7.04094 3.19039V3.17976C7.24192 3.1693 7.35167 3.07943 7.35167 2.91197C7.35167 2.74451 7.24193 2.70265 7.04094 2.70265ZM16.8651 2.71041C16.6451 2.71049 16.5102 2.89948 16.5102 3.22597C16.5102 3.56298 16.656 3.78491 16.8866 3.79956C17.1172 3.81422 17.2655 3.60672 17.2655 3.26971C17.2655 2.9327 17.1193 2.72339 16.8866 2.71083C16.8794 2.71044 16.8722 2.71041 16.8651 2.71041ZM21.4846 2.76929C21.5123 2.76952 21.5402 2.77105 21.5685 2.77378C21.7759 2.79687 21.9669 2.89625 22.1036 3.05221L21.8921 3.2742C21.8119 3.1787 21.6974 3.11784 21.5727 3.10453C21.3124 3.07523 21.1264 3.25935 21.1264 3.59637C21.1264 3.93338 21.2851 4.15933 21.6024 4.19491C21.6641 4.2046 21.7274 4.19367 21.7821 4.16384V3.87478C21.6891 3.86222 21.5959 3.85377 21.5007 3.8433V3.53136L22.1226 3.6025V4.37726C22.0438 4.43661 21.9537 4.47962 21.8577 4.50371C21.7618 4.52781 21.6618 4.5325 21.564 4.51749C21.3268 4.49926 21.1065 4.38922 20.9509 4.21125C20.7952 4.03329 20.7168 3.80177 20.7326 3.56694H20.7413C20.7413 3.04494 21.0705 2.76592 21.4846 2.76929ZM5.34004 2.80527C5.29772 2.98529 5.25353 3.18597 5.20699 3.35762C5.19262 3.41209 5.17865 3.46697 5.16443 3.52156L5.5297 3.49417L5.48838 3.33881C5.44184 3.17344 5.39521 2.97902 5.35079 2.80528L5.34004 2.80527ZM2.10557 2.82407V4.18878L2.77618 4.1156V4.43367C2.425 4.47135 2.07382 4.50914 1.7184 4.55101L1.72254 2.86781L2.10557 2.82407ZM11.0438 3.22596V3.66138H11.2553V3.66547C11.4669 3.66547 11.5727 3.59019 11.5727 3.43529C11.5727 3.28039 11.4669 3.22597 11.2553 3.22597L11.0438 3.22596ZM12.0528 5.88211C12.6176 5.88211 13.1804 5.88208 13.7452 5.90091L11.9768 8.91124L12.0656 8.96153L12.1524 9.01182L12.2961 9.10789C12.3237 9.12673 12.3509 9.14543 12.3763 9.16636L12.4507 9.22319L12.5036 9.15409L15.2538 5.94511C16.3433 5.98907 17.3863 6.04984 18.3425 6.11682L13.0198 9.79888C13.0388 9.82609 13.0598 9.85094 13.0789 9.88024C13.0979 9.90955 13.1169 9.9348 13.1338 9.96201C13.1507 9.98922 13.1657 10.0101 13.1805 10.0331L13.2247 10.1084C13.2416 10.1377 13.2587 10.167 13.2735 10.1963C13.2883 10.2256 13.3053 10.2553 13.3202 10.2846L20.8304 6.32622C21.2535 6.36389 21.6299 6.40352 21.9642 6.43701L22.0956 6.45173L22.2394 11.0697L22.2307 11.0717L22.2137 11.0591L22.1546 11.0235C21.3359 10.4667 19.7366 8.95721 19.6498 8.95721C19.6329 8.95721 13.9696 10.9961 13.9696 10.9961C13.9244 11.0068 13.8784 11.0131 13.832 11.0149L13.5527 10.9483L12.4949 10.7075L12.347 10.6739L12.1966 10.6384H12.1478L12.0148 10.6069L11.8834 10.5774L11.4962 10.4895L11.3884 10.4646L11.2045 10.4225L11.1157 10.3935L10.8723 10.337L10.7665 10.3203L10.6037 10.2823L10.5041 10.2614L10.443 10.2467L10.2674 10.337L10.1765 10.3849L10.0343 10.4581L9.94342 10.5043L9.75749 10.6007L9.66658 10.6486L9.52238 10.7242L9.42941 10.772L9.17364 10.9041L9.06332 10.9483L8.86457 11.0529H7.37542C4.90445 11.0529 2.04211 11.2075 1.55554 11.2389L1.65677 8.57421L7.47453 10.6867L7.50635 10.5923L7.5423 10.4983L7.61212 10.3413L7.65675 10.2513L7.70303 10.1634L1.70756 7.14242L1.73318 6.47682C2.444 6.40356 3.40203 6.30727 4.53184 6.21516L8.17291 9.51625L8.24274 9.44307L8.3167 9.37397L8.44562 9.26113L8.52619 9.19817L8.60635 9.1397L6.19505 6.0917C6.76413 6.05402 7.36273 6.01843 7.98047 5.98703L9.30889 8.75454L9.40227 8.72102L9.4973 8.68749L9.66423 8.63925L9.76175 8.61431L9.86133 8.5955L9.22666 5.93475L9.70886 5.92453C10.1045 5.92453 10.5023 5.90341 10.9022 5.89713L10.6609 8.54114H10.7604L10.8617 8.55136C10.9188 8.55136 10.976 8.56834 11.0331 8.57671L11.1327 8.59756L11.2298 8.61841L12.0528 5.88211ZM38.2412 6.29094C37.539 6.29209 36.8389 6.36553 36.1521 6.51009C35.9744 6.54777 35.7968 6.58756 35.6191 6.63151C35.3197 6.70918 35.0245 6.80212 34.7348 6.90994C33.7895 7.24625 32.9251 7.77304 32.1962 8.45699C31.3243 9.29602 30.6778 10.337 30.3153 11.4857C29.9533 12.7014 29.8845 13.9841 30.1145 15.2308C30.1995 15.7495 30.3363 16.2585 30.5227 16.7505C31.2209 18.5758 32.5936 19.8443 34.6415 20.533C36.1581 21.0519 37.7864 21.1653 39.3615 20.8617C39.9676 20.7669 40.5624 20.6112 41.1366 20.3969C41.792 20.1417 42.4229 19.8287 43.0216 19.4615C43.1278 19.401 43.2178 19.3161 43.2839 19.2141C43.3596 19.0874 43.399 18.9427 43.398 18.7955C43.4191 18.2345 43.4976 17.5898 43.5484 17.0309C43.5865 16.6122 43.6115 15.9656 43.6517 15.5239L42.1944 15.5971C42.1954 15.6132 42.1954 15.6293 42.1944 15.6453C42.1944 15.6914 42.1796 15.7331 42.1733 15.7729V15.7856C41.9617 16.8699 41.5997 17.9835 40.8085 18.7643C40.0831 19.4207 39.1407 19.7928 38.1579 19.8109C37.8844 19.8143 37.611 19.7939 37.341 19.75C36.7623 19.6583 36.2104 19.4441 35.723 19.122L35.6784 19.0885C35.6086 19.0404 35.5387 18.9924 35.4668 18.9401C35.433 18.915 35.4011 18.8855 35.3672 18.8583C35.3334 18.8311 35.2724 18.7808 35.228 18.7389C35.1836 18.6971 35.141 18.6553 35.0987 18.6134C35.0563 18.5716 35.0312 18.5529 35.0016 18.5194C34.9719 18.4859 34.9272 18.4378 34.8912 18.3959L34.7879 18.2786C34.7647 18.2514 34.7434 18.22 34.7202 18.1907C34.6969 18.1614 34.6311 18.0797 34.5888 18.019C34.5849 18.0137 34.5814 18.0081 34.5784 18.0022C34.3852 17.7278 34.2194 17.4355 34.0835 17.1293C33.1811 15.1739 33.0087 12.9652 33.5967 10.8958C33.7053 10.4917 33.8585 10.1007 34.0537 9.72978C34.4435 8.98275 35.0546 8.37137 35.8052 7.97748C35.8666 7.94399 35.926 7.91276 35.9916 7.88345C36.0106 7.87298 36.0296 7.86648 36.0486 7.8581C36.7842 7.50166 37.6007 7.34021 38.4182 7.38957C39.0998 7.4526 39.7523 7.69312 40.3094 8.08665C41.1439 8.71539 41.7467 9.59791 42.025 10.5986C42.025 10.6111 42.0252 10.6236 42.0357 10.6362C42.0886 10.8057 42.1391 10.9731 42.1878 11.128L43.472 11.0651L43.3005 7.71583C43.2053 7.64884 43.1059 7.57139 43.0001 7.5065C42.7884 7.3736 42.5687 7.25346 42.3423 7.14671L42.332 7.13812C41.0429 6.57722 39.6494 6.28865 38.2412 6.29094ZM72.5152 6.48923C72.5343 6.80741 72.5743 7.11711 72.5912 7.41854V7.45615C72.917 7.54826 73.2088 7.63235 73.4986 7.72026C73.611 7.74392 73.7106 7.80786 73.7782 7.8998C73.8457 7.99173 73.8766 8.10515 73.8647 8.21823V18.7978C73.8712 18.9121 73.8352 19.0248 73.7635 19.1147C73.6918 19.2045 73.5894 19.2653 73.4755 19.2856L72.6041 19.5305V19.5701C72.585 19.859 72.5256 20.4724 72.5256 20.4745H78.2206C78.2206 20.4745 78.1616 19.8464 78.1425 19.5366L77.2666 19.2896C77.1776 19.2738 77.0953 19.2328 77.0295 19.1714C76.9638 19.1101 76.9175 19.0311 76.8964 18.9442V18.8039C76.8964 15.6431 76.9089 9.52657 76.9195 7.8687C76.9195 7.75767 76.9641 7.65118 77.0434 7.57267C77.1228 7.49416 77.2304 7.45005 77.3426 7.45005C77.7403 7.45005 78.1192 7.4333 78.4979 7.45005C79.071 7.47411 79.6216 7.67794 80.0699 8.03205C80.5183 8.38615 80.8412 8.87218 80.9919 9.41985C81.2625 10.2413 81.2736 11.1249 81.0237 11.9527C80.6895 13.0538 80.0338 13.9893 78.0918 14.0165L78.0178 14.9798C79.7801 15.0133 81.3813 14.7432 82.784 13.6735C84.0533 12.6981 84.6118 11.3959 84.3855 9.80916C84.2078 8.5532 83.4166 7.73065 82.3018 7.18839C81.1869 6.64623 80.0275 6.49347 78.8132 6.48928L72.5152 6.48923ZM92.0354 8.44227C91.3088 8.34098 90.5705 8.35368 89.8479 8.47989C86.975 8.89854 84.4319 11.2662 84.4256 14.8374C84.4256 15.0006 84.4425 15.2078 84.4594 15.4151C84.671 17.7176 85.7287 19.4111 87.8105 20.3677C88.9888 20.8944 90.2925 21.0843 91.5742 20.916C93.4571 20.7066 95.012 19.8694 96.1438 18.2952C97.1868 16.8467 97.483 15.1972 97.2186 13.4472C96.9203 11.4607 95.913 9.96379 94.1275 9.07624C93.4682 8.75739 92.7621 8.54354 92.0354 8.44227ZM106.044 8.87973C106.074 9.23139 106.102 9.56223 106.127 9.88669C106.252 9.916 107.157 10.1607 107.578 10.7865C107.931 11.312 110.187 15.6408 110.963 16.8193L110.976 18.7892C110.982 18.9035 110.946 19.0161 110.875 19.106C110.803 19.1958 110.7 19.2566 110.587 19.2769L110.303 19.3566L109.711 19.5238C109.711 19.5364 109.635 20.4637 109.635 20.4658H115.33C115.33 20.4658 115.269 19.8253 115.25 19.5238C114.934 19.4359 114.655 19.3544 114.371 19.2769L114.293 19.2495C114.219 19.2289 114.153 19.1881 114.102 19.1318C114.051 19.0755 114.016 19.0061 114.003 18.9314V18.7912C114.003 18.4626 113.95 16.9072 114.022 16.7858L116.297 12.0613C116.893 11.1068 117.528 10.1673 118.761 9.90149C118.784 9.70682 118.843 8.88797 118.843 8.88797V8.88389H114.369C114.393 9.23137 114.433 9.5539 114.452 9.88882C114.602 9.92441 114.689 9.94097 114.776 9.96609C115.434 10.144 115.546 10.4371 115.186 11.0127C114.826 11.5884 113.142 15.0885 113.142 15.0885C113.142 15.0885 111.604 12.3612 110.993 11.1576C110.891 10.9483 110.428 10.2009 111.219 9.99362C111.431 9.94129 111.642 9.91824 111.89 9.87219C111.905 9.53308 111.968 8.87994 111.968 8.87994L106.044 8.87973ZM48.0444 8.88178L48.1353 9.88671C48.1353 9.88671 48.3911 9.90964 48.6386 9.94313C48.684 9.94844 48.7278 9.96342 48.7668 9.98703C48.8059 10.0106 48.8393 10.0423 48.8648 10.0799C48.8903 10.1175 48.9073 10.1601 48.9146 10.2048C48.9219 10.2495 48.9194 10.2953 48.9072 10.3389C48.6618 11.2934 46.4957 17.2676 46.081 18.4168C45.7806 19.2541 44.4986 19.4928 44.3716 19.5325C44.3505 19.8549 44.3167 20.1605 44.2956 20.4745H48.8692C48.8396 20.1438 48.8186 19.8359 48.7911 19.5387C48.518 19.5056 48.2488 19.4467 47.987 19.3629C47.9336 19.3372 47.8861 19.3011 47.8471 19.2567C47.8082 19.2123 47.7788 19.1606 47.7606 19.1047C47.7424 19.0488 47.7359 18.9898 47.7414 18.9313C47.7468 18.8728 47.7642 18.816 47.7924 18.7643C48.059 18.1112 48.241 17.5083 48.4758 16.8468H52.2838C52.4636 17.4748 52.6306 18.1027 52.785 18.7516C52.8696 19.0928 52.749 19.2518 52.3979 19.3481C52.1292 19.4256 51.8478 19.4652 51.5516 19.528C51.5241 19.8378 51.4989 20.1564 51.4735 20.4724H57.5388C57.5092 20.1354 57.4882 19.8255 57.4607 19.5178C57.2026 19.4571 56.972 19.4068 56.7414 19.3461H56.7455C56.5469 19.3039 56.3635 19.2094 56.2145 19.0727C56.0656 18.936 55.9567 18.7621 55.8993 18.5693C55.0975 16.2667 54.2723 13.9643 53.4535 11.6743C53.1235 10.7435 52.7948 9.8127 52.4676 8.88186L48.0444 8.88178ZM58.5945 8.88791C58.5945 8.88791 58.6475 9.54141 58.6771 9.86586L59.5043 10.0854C59.6326 10.1103 59.747 10.1815 59.8252 10.2851C59.9034 10.3888 59.9398 10.5176 59.9274 10.6463V18.7328C59.9423 18.8616 59.9067 18.9911 59.828 19.0947C59.7493 19.1982 59.6335 19.268 59.5043 19.2897C59.2208 19.3588 58.9434 19.4485 58.6726 19.5281C58.643 19.8567 58.6241 20.1564 58.5945 20.4725H67.9516L68.292 16.319H67.2872C67.2575 16.4258 67.2238 16.5287 67.1942 16.6355H67.1963C67.0842 17.0541 66.9846 17.4725 66.8513 17.8661C66.7642 18.1555 66.6007 18.4167 66.3775 18.6227C66.1544 18.8288 65.8798 18.9722 65.582 19.0382C64.96 19.1931 63.8345 19.2225 63.2549 19.2287C63.159 19.2292 63.0668 19.192 62.9987 19.1253C62.9305 19.0586 62.8918 18.9679 62.8912 18.873V10.5986C62.8845 10.5371 62.8901 10.4749 62.9077 10.4155C62.9254 10.3562 62.9547 10.3009 62.994 10.2528C63.0333 10.2048 63.0819 10.1649 63.1369 10.1354C63.1918 10.106 63.2522 10.0876 63.3144 10.0814C63.6676 10.0123 64.0145 9.93264 64.3593 9.85939C64.3826 9.50981 64.4374 8.88799 64.4374 8.88799L58.5945 8.88791ZM98.2949 8.88791C98.2949 8.88791 98.3479 9.54141 98.3775 9.86586L99.2043 10.0854C99.3348 10.1084 99.4517 10.179 99.5321 10.2833C99.6124 10.3875 99.6503 10.5178 99.6382 10.6484V18.7328C99.653 18.8616 99.6174 18.991 99.5387 19.0946C99.46 19.1982 99.3442 19.268 99.2151 19.2897C98.9316 19.3587 98.6545 19.4485 98.3837 19.528C98.3541 19.8567 98.3328 20.1564 98.3032 20.4724H107.662L108.003 16.319H106.996C106.966 16.4257 106.935 16.5287 106.905 16.6354H106.897C106.785 17.0541 106.685 17.4725 106.552 17.866C106.465 18.1554 106.301 18.4167 106.078 18.6227C105.855 18.8287 105.58 18.9722 105.282 19.0382C104.66 19.1931 103.535 19.2224 102.955 19.2287C102.859 19.2292 102.767 19.192 102.699 19.1253C102.631 19.0586 102.592 18.9679 102.592 18.873V10.5985C102.585 10.537 102.59 10.4748 102.608 10.4155C102.626 10.3562 102.655 10.3009 102.694 10.2528C102.734 10.2047 102.782 10.1648 102.837 10.1354C102.892 10.106 102.953 10.0876 103.015 10.0813C103.368 10.0123 103.715 9.9326 104.058 9.85934C104.083 9.50977 104.117 9.19984 104.14 8.88794L98.2949 8.88791ZM90.4153 9.57886C90.9111 9.5052 91.4178 9.5705 91.878 9.76735C92.3382 9.96419 92.7335 10.2847 93.0189 10.6925C93.5518 11.447 93.8803 12.3241 93.973 13.24C94.0449 13.7634 94.0658 14.2867 94.0912 14.6154C94.0658 15.8127 93.9878 16.7922 93.6367 17.7321V17.7239C93.1395 19.0552 92.1556 19.8171 90.9095 19.8171C90.4587 19.8122 90.0162 19.6959 89.6224 19.4788C89.2285 19.2616 88.8958 18.9506 88.6543 18.5738C88.0535 17.7365 87.808 16.7526 87.7065 15.7352C87.5709 14.5899 87.6347 13.4301 87.8949 12.3062C88.1064 11.494 88.4154 10.7281 89.0733 10.1838C89.4547 9.86201 89.9196 9.65252 90.4153 9.57886ZM19.1297 10.029L17.1055 11.3332L15.7684 11.2347L16.0411 11.1406C16.8492 10.8539 19.1297 10.029 19.1297 10.029ZM50.3362 11.5487H50.4081C50.8799 12.9658 51.3855 14.3811 51.872 15.8317L48.8339 15.8292C49.3459 14.3786 49.8348 12.9658 50.3362 11.5487ZM11.4609 12.4845C12.1816 12.4845 12.8691 12.5002 13.5235 12.5323C18.677 12.7689 21.6919 13.8784 22.1382 14.0479L22.1953 14.0712C22.2036 14.3408 22.1945 14.6106 22.168 14.8791H22.1742C22.1294 15.388 22.0481 15.8931 21.9308 16.3906C21.7094 17.3559 21.3714 18.2912 20.9239 19.1765C20.2796 20.4436 19.4316 21.5988 18.4129 22.5969C14.8461 26.1303 11.696 26.9469 11.696 26.9469C11.696 26.9469 8.75331 26.0343 5.31766 22.6369C4.29506 21.6374 3.4383 20.4845 2.779 19.2207C2.37145 18.4276 2.05224 17.5929 1.827 16.7316C1.70529 16.2752 1.61269 15.8118 1.54976 15.344C1.4976 14.9827 1.47425 14.618 1.47993 14.2532L1.54976 14.2156C2.30878 13.8515 3.10351 13.5653 3.9215 13.3615C5.09343 13.0518 6.287 12.8286 7.49234 12.6938C8.80999 12.5474 10.1352 12.4775 11.4611 12.4845L11.4609 12.4845ZM6.72858 13.8574L6.65875 16.0553C6.62875 16.3202 6.694 16.5872 6.84303 16.8092L6.89344 16.8738C7.07399 17.1019 7.31503 17.2759 7.58967 17.3763C8.04259 17.5404 8.51722 17.6384 8.99867 17.6674L9.335 17.6842L9.03874 17.8452L8.99452 17.8661C8.75302 17.9568 8.49509 17.9967 8.23713 17.9834C7.9268 17.9706 7.61847 17.9279 7.31653 17.8559C7.37365 17.9187 7.44558 17.9919 7.52809 18.0652L7.58552 18.1196C7.91697 18.4244 8.33774 18.6171 8.78709 18.6699C9.2377 18.7536 10.0819 18.8792 10.0882 18.8792L10.38 18.9193L10.1453 19.0427L10.1196 19.055C9.86338 19.1653 9.58399 19.2127 9.30523 19.1932C9.01963 19.1838 8.7359 19.1437 8.45901 19.0738L8.61768 19.2455L8.67924 19.3105C8.94347 19.5497 9.26668 19.7158 9.61637 19.7921C9.74754 19.8298 9.88062 19.861 10.0118 19.8903C10.4793 19.9907 10.8963 20.0346 10.9006 20.0346L11.2051 20.0661L11.0254 20.1626L10.9365 20.2108C10.6634 20.3347 10.3614 20.3832 10.0626 20.351C9.90247 20.3406 9.74334 20.3182 9.58662 20.284L7.47107 22.2452L8.17762 22.9885L10.3378 20.9831C10.8709 21.2591 11.457 21.4203 12.0575 21.4561L12.9905 21.4876L14.5731 23.114H15.4023L11.9857 19.4508L13.4856 18.0652L13.6972 17.8702L13.748 17.8223L13.7881 17.7868L14.9074 18.9777L15.4743 18.9945L16.7205 17.8996L16.7354 17.3743L16.6949 17.3199L15.5718 16.1183L16.2317 15.503L15.5272 14.7577L15.1041 15.1469L15.1656 15.7499L13.6719 14.1714L13.1071 14.1526L11.8588 15.2495L11.844 15.7749L13.0455 17.0644L12.9844 17.1208L12.7559 17.3301L11.3002 18.7141L7.03969 14.1654L6.72858 13.8574Z" fill="#8E98A8" fill-opacity="0.56"/>
</g>
</svg>
