<svg width="106" height="23" viewBox="0 0 106 23" fill="none" xmlns="http://www.w3.org/2000/svg">
<g id="DE Shaw" clip-path="url(#clip0_3845_1930)">
<path id="Vector" d="M24.0397 10.2454V13.4689H23.493C22.9462 11.1689 22.5582 10.8552 20.6357 10.8552H18.5193V15.7689C21.1825 15.734 21.5882 15.3159 21.6587 13.8348H22.2584V18.2954H21.6411C21.5705 16.8492 21.1472 16.431 18.5193 16.4136V22.059H18.872C22.9639 22.059 23.4401 21.1181 23.7399 18.9401H24.3572L24.0397 22.6689H14.9918V22.059H16.5968V10.8378H14.9918V10.2454H24.0397ZM84.9941 5.87191H105.33V6.48176H84.9941V5.87191ZM82.8953 0.03479L68.7502 5.90676H0.105957V6.51661H68.8737L83.1422 0.627216L82.8953 0.0870633M7.91927 22.3204C6.80812 22.6166 5.67934 22.7212 4.53291 22.6689H0.105957V22.059H1.71095V10.8378H0.105957V10.2454H4.53291C5.6617 10.1931 6.80812 10.3151 7.90163 10.5939C10.3885 11.3257 11.6584 13.3295 11.6584 16.4659C11.6584 19.6022 10.4061 21.606 7.91927 22.3204ZM7.4607 11.2908C6.52592 10.9424 5.5206 10.803 4.53291 10.8378H3.63341V22.059H4.53291C5.53824 22.1113 6.52592 21.9545 7.4607 21.6409C8.92459 20.9613 9.5419 19.4454 9.5419 16.4659C9.5419 13.4863 8.95987 11.9704 7.4607 11.2908ZM65.7872 22.6863L67.7625 14.3227H68.9971V13.7128H65.5579V14.3227H67.0747L65.5226 20.8045L65.1522 19.3234L63.7412 14.5492H62.4537L60.6371 20.8045L60.3372 19.306L59.1379 14.3052H60.5136V13.6954H56.2983V14.3052H57.4976L59.5259 22.6515H60.8134L62.6477 16.2393L63.071 17.8772L64.4996 22.6515L65.7872 22.6863ZM101.714 13.5734C104.572 13.5734 105.93 15.0196 105.93 18.2257C105.93 21.4318 104.572 22.878 101.714 22.878C98.857 22.878 97.5166 21.3795 97.5166 18.2083C97.5166 15.0196 98.857 13.556 101.714 13.556M101.714 14.1484C100.691 14.1484 99.4038 14.6363 99.4038 18.1909C99.4038 21.7454 100.691 22.2333 101.714 22.2333C102.737 22.2333 104.042 21.7454 104.042 18.1909C104.042 14.6363 102.755 14.1136 101.714 14.1136V14.1484ZM96.0704 10.6113C94.9416 10.2105 93.7246 10.0189 92.5253 10.0712C88.31 10.0712 86.1935 12.3015 86.1935 16.4659C86.1935 20.5431 88.2923 22.8606 92.5253 22.8606C93.7422 22.878 94.9416 22.6515 96.0527 22.181L96.3349 18.9749H95.7176C95.312 21.031 94.2008 22.2159 92.4018 22.2159C91.5023 22.2855 90.6204 21.9893 89.9326 21.3969C88.9802 20.4909 88.4687 18.8878 88.4687 16.4833C88.4687 14.0787 88.9978 12.3363 90.0384 11.4477C90.6381 10.9424 91.4141 10.6984 92.1902 10.7159C94.1303 10.7159 95.1709 11.9007 95.506 13.4515H96.0527L96.0704 10.6113ZM36.0154 10.6462C35.0101 10.2628 33.9342 10.0712 32.8407 10.106C30.1951 10.106 28.696 11.3605 28.696 13.3469C28.696 15.1242 29.666 16.0302 31.3416 16.7098L33.0524 17.4242C33.0524 17.4242 34.8161 18.7833 34.8161 19.9333C34.8161 21.4143 33.9695 22.2333 32.3822 22.2333C30.7948 22.2333 29.5073 21.0659 29.0134 18.9575H28.4667L28.7489 22.1984C29.7895 22.6515 30.9359 22.878 32.0647 22.8606C34.7632 22.8606 36.5622 21.5015 36.5622 19.1492C36.5622 17.1454 35.451 16.3613 33.7931 15.6818L32.1352 15.0022C30.9712 14.5318 30.4773 13.9568 30.4773 12.7022C30.4773 11.4477 31.4121 10.7333 32.6114 10.7333C34.1812 10.7333 35.063 11.6742 35.4158 13.5037H36.0154V10.6462ZM46.0511 16.0651C46.0511 14.253 44.887 13.4863 43.5642 13.4863C42.3296 13.4515 41.1832 14.0787 40.5659 15.1242V10.2106H37.5852V10.8204H38.8198V22.059H37.5852V22.6689H41.871V22.059H40.5659V17.1454C40.5482 16.553 40.707 15.978 40.9892 15.4552C41.3772 14.7757 42.1003 14.3401 42.9116 14.3227C43.8111 14.3227 44.305 14.9499 44.305 16.0651V22.0765H43.0174V22.6863H47.2857V22.059H46.0511V16.0302M55.2401 19.9158V15.978C55.2401 14.1659 53.9173 13.5212 51.889 13.5212C49.8607 13.5212 48.4497 14.2355 48.4497 15.5249C48.4497 16.0302 48.8554 16.431 49.3669 16.4484H49.4727C49.7902 16.4833 50.1076 16.3613 50.3369 16.1174V15.6992C50.3369 14.6712 50.8484 14.0962 51.8537 14.0962C52.6474 13.9916 53.3705 14.5492 53.4587 15.3159C53.4763 15.4204 53.4763 15.5249 53.4587 15.6469V16.9886L50.4604 17.9295C49.6314 18.2257 48.2381 18.7136 48.2381 20.3166C48.2381 22.0939 49.4903 22.878 51.1306 22.878C52.4534 22.878 53.3529 22.4249 53.7938 21.4318C54.0407 22.5295 55.1166 22.9651 56.3689 22.7212V22.181C55.7516 21.9893 55.2577 21.2401 55.2577 19.9333M53.5469 19.9158C53.5469 21.3621 52.9472 22.0416 51.8361 22.0416C50.8484 22.0416 50.284 21.3795 50.284 20.2992C50.284 18.7484 51.0953 18.4696 52.1712 18.1037L53.5469 17.6333V19.9158ZM80.8847 21.1007C81.9958 19.9507 82.5778 18.3999 82.4897 16.7969C82.472 16.0477 82.3486 15.3159 82.1193 14.6015H79.1386V15.1416C79.8264 15.1068 80.5143 15.3333 81.0258 15.7863C81.4843 16.2916 81.7313 16.9712 81.6783 17.6507C81.6783 18.7659 81.2374 19.8462 80.4614 20.6651C80.3379 20.5257 80.1086 20.3166 79.9852 20.1772C78.1509 18.3477 76.5635 16.2742 75.3113 14.0265C75.0467 13.5386 74.888 12.981 74.8704 12.4234C74.7998 11.4999 75.5053 10.6984 76.4401 10.6287C76.5283 10.6287 76.5988 10.6287 76.687 10.6287C77.8687 10.6287 78.7682 11.3083 79.1738 13.3643H79.7206V10.6287C78.8387 10.228 77.8687 10.0363 76.8986 10.0886C74.7998 10.0886 73.3183 11.0643 73.3183 13.0681C73.3359 13.7302 73.4946 14.3749 73.7945 14.9848C72.2953 15.4901 71.3253 16.9015 71.3782 18.4696C71.3782 20.6302 73.0361 22.9302 76.3519 22.9302C77.4983 22.9651 78.6271 22.6863 79.6324 22.1287C80.5496 22.5818 81.5372 22.8431 82.5602 22.8954L82.7366 22.4075C82.0664 22.059 81.4491 21.6234 80.8847 21.1355M77.2867 22.1636C76.1579 22.181 75.0644 21.7628 74.2354 20.9787C73.4241 20.1424 72.9832 19.0272 73.0008 17.8598C72.9303 16.9189 73.2654 15.9954 73.9356 15.3333C75.0996 17.4939 76.6164 19.4628 78.3978 21.1704C78.6095 21.3795 78.8387 21.5886 79.0857 21.7802C78.5389 22.0242 77.9216 22.1636 77.2867 22.1636Z" fill="#8E98A8" fill-opacity="0.56"/>
</g>
<defs>
<clipPath id="clip0_3845_1930">
<rect width="106" height="23" fill="white"/>
</clipPath>
</defs>
</svg>
