<svg width="123" height="43" viewBox="0 0 123 43" fill="none" xmlns="http://www.w3.org/2000/svg">
<g id="Group">
<g id="Group_2">
<path id="Vector" fill-rule="evenodd" clip-rule="evenodd" d="M123 19.5475C106.975 7.42167 85.3285 0 61.5 0C37.6715 0 16.0253 7.42167 0 19.5475H123Z" fill="#8E98A8" fill-opacity="0.56"/>
<g id="Group_3">
<path id="Vector_2" d="M52.5285 23.0187C51.3823 23.0187 50.7871 23.9778 50.6328 25.1653C50.4565 26.4669 49.7952 30.9884 49.663 32.1302C49.5748 32.8153 49.5307 33.546 48.8915 33.8429C48.2522 34.1398 47.4587 33.683 46.7974 33.0893C46.1361 32.4956 36.2388 23.7723 36.2388 23.7723C35.6656 23.247 34.9603 23.0187 34.2769 23.0187C32.778 23.0187 31.3452 23.9778 31.3452 26.3299V40.8764C31.3452 42.0181 32.1167 42.7261 33.0425 42.7261C34.0565 42.7261 34.7178 42.0181 34.8721 41.0134C34.8721 41.0134 35.9522 34.0712 36.0845 33.3177C36.2388 32.4271 36.371 31.7192 37.2087 31.4451C37.9581 31.1939 38.6855 31.6506 39.7436 32.6326C40.8017 33.5917 49.707 41.9268 49.707 41.9268C50.3904 42.5205 50.8753 42.7717 51.8452 42.7717C52.7269 42.7717 54.314 42.4064 54.314 39.6204V25.1196C54.314 23.7494 53.5205 23.0187 52.5285 23.0187Z" fill="#8E98A8" fill-opacity="0.56"/>
<path id="Vector_3" d="M116.255 38.5014C108.496 40.2369 99.6125 38.3872 99.6125 32.701C99.6125 28.4079 103.47 26.6495 106.49 26.3983C109.664 26.1243 112.155 26.8322 113.433 28.2024C114.227 29.0701 114.007 30.2348 112.442 30.3261C110.987 30.4175 108.275 30.5088 106.027 30.6001C104.749 30.6458 104.065 31.3537 104.065 32.3128C104.065 33.0664 104.616 33.9342 106.093 33.9342C108.209 33.9342 113.566 33.9799 116.233 33.9799C117.996 33.9799 118.856 32.9751 118.856 30.8742C118.856 27.563 115.946 22.5162 107.46 22.5162C99.7668 22.5162 94.1899 26.4897 94.1899 32.9751C94.1899 42.1779 107.283 44.9868 116.85 41.5842C117.754 41.2645 118.592 40.5794 118.327 39.529C118.085 38.6155 117.357 38.273 116.255 38.5014Z" fill="#8E98A8" fill-opacity="0.56"/>
<path id="Vector_4" d="M26.2091 38.5014C18.45 40.2369 9.56662 38.3872 9.56662 32.701C9.56662 28.4079 13.4242 26.6495 16.444 26.3983C19.6182 26.1243 22.1091 26.8322 23.3876 28.2024C24.1811 29.0701 23.9607 30.2348 22.3957 30.3261C20.9408 30.4175 18.2295 30.5088 15.9811 30.6001C14.7026 30.6458 14.0193 31.3537 14.0193 32.3128C14.0193 33.0664 14.5704 33.9342 16.0473 33.9342C18.1634 33.9342 23.5198 33.9799 26.1871 33.9799C27.9505 33.9799 28.8102 32.9751 28.8102 30.8742C28.8102 27.563 25.9005 22.5162 17.4139 22.5162C9.72092 22.5162 4.14404 26.4897 4.14404 32.9751C4.14404 42.1779 17.2376 44.9868 26.8043 41.5842C27.708 41.2645 28.5457 40.5794 28.2811 39.529C28.0607 38.6155 27.3112 38.273 26.2091 38.5014Z" fill="#8E98A8" fill-opacity="0.56"/>
<g id="Group_4">
<path id="Vector_5" d="M86.3203 29.6639C86.4967 34.6878 86.9375 38.8439 87.0698 40.3054C87.2241 42.1779 88.1719 42.726 89.1198 42.726C90.0235 42.726 90.9934 42.2464 91.1477 40.3282C91.28 38.7297 91.7429 33.7515 91.9633 28.8418C91.9854 28.5906 91.809 28.4764 91.6106 28.5221L86.5628 29.367C86.4305 29.3898 86.3203 29.504 86.3203 29.6639Z" fill="#8E98A8" fill-opacity="0.56"/>
<path id="Vector_6" d="M89.1418 22.5391C86.8273 22.5391 86.144 24.4116 86.166 25.5762C86.166 25.7818 86.1881 26.3755 86.2322 27.1291C86.2322 27.2889 86.3865 27.4488 86.5849 27.4259L91.8531 26.5353C92.0295 26.4897 92.0956 26.3755 92.1177 26.2385C92.1397 25.9873 92.1397 25.7133 92.1397 25.5991C92.1617 24.4801 91.4784 22.5391 89.1418 22.5391Z" fill="#8E98A8" fill-opacity="0.56"/>
</g>
<path id="Vector_7" d="M81.4046 30.5545C79.6412 30.5545 74.2186 30.6001 70.7578 30.6001C69.0826 30.6001 68.6638 31.5364 68.6638 32.3128C68.6638 32.9979 69.1046 33.8657 70.6917 33.957C73.0944 34.094 76.1363 34.2311 77.5251 34.2996C79.4208 34.3909 79.4428 35.4185 78.8035 36.2634C77.525 37.999 74.3949 39.1408 71.1546 39.1408C66.9224 39.1408 62.2492 36.6517 62.2492 32.6782C62.2492 28.956 66.239 24.8683 78.0982 26.6039C79.1342 26.7637 80.1702 26.5582 80.4347 25.5534C80.6992 24.4801 80.038 23.8179 78.6933 23.4297C76.0041 22.6989 73.5573 22.5162 71.2207 22.5162C63.2412 22.5162 56.8267 26.4668 56.8267 32.8381C56.8267 39.6432 63.1971 42.9772 71.1546 42.9772C80.038 42.9772 84.3584 37.9761 84.3584 33.5916C84.3363 31.3994 83.2342 30.5545 81.4046 30.5545Z" fill="#8E98A8" fill-opacity="0.56"/>
</g>
</g>
</g>
</svg>
