<svg width="14" height="18" viewBox="0 0 14 18" fill="none" xmlns="http://www.w3.org/2000/svg">
<g id="g3053">
<g id="g3059">
<path id="path3061" d="M7.72947 0.93565L7.73981 0.936695L7.7605 0.93565C9.17339 0.934605 10.366 1.44262 11.1686 2.3468C11.9723 3.2468 12.476 4.48966 12.4791 5.89245V5.90709V5.90918V5.91231C12.4791 6.43496 12.476 7.34542 12.3281 7.93915L12.2939 8.07085H12.1605H2.02931H1.84314L1.85762 7.8827L1.89692 7.40709C2.03552 5.6489 2.81747 4.1489 3.72354 2.94471C4.63167 1.73112 6.05904 0.934605 7.72947 0.93565ZM0.280273 8.69489C0.282342 11.5141 1.07774 13.589 2.41822 14.975C3.75974 16.359 5.68772 17.1012 8.11838 17.1033H8.12251C9.71227 17.1033 11.0145 16.7667 12.0354 16.0935C12.9352 15.4935 13.5589 14.6646 13.8289 13.452L12.7025 13.0883C12.508 14.0322 12.1305 14.8193 11.5016 15.3953C10.7218 16.1071 9.64297 16.4123 8.3211 16.4134H8.31283H8.30352H8.29111C6.52242 16.4144 4.96886 15.7047 3.8973 14.4545C2.82988 13.2137 1.89382 11.4555 1.89382 9.3712V8.75657H13.6892C13.8237 8.02381 13.8723 7.28165 13.8723 6.66388C13.8702 4.55447 13.2952 2.99593 12.2795 1.95272C11.2627 0.910563 9.75468 0.325195 7.70878 0.32206C3.34704 0.353418 0.320612 3.45691 0.280273 8.69489Z" fill="#8E98A8" fill-opacity="0.56"/>
</g>
</g>
</svg>
