<svg width="86" height="18" viewBox="0 0 86 18" fill="none" xmlns="http://www.w3.org/2000/svg">
<g id="g3067">
<g id="g3073">
<path id="path3075" d="M8.38906 0.284328C3.30432 0.313597 0.682313 3.67945 0.644043 8.70316C0.674038 13.706 3.59187 17.1335 8.64557 17.1586C12.3929 17.1209 14.1347 15.6774 14.8856 12.8843C14.3364 12.7035 13.9072 12.5749 13.3207 12.392C12.7653 14.446 11.3059 15.9398 8.8183 15.9398C8.79658 15.9398 8.7759 15.9398 8.75417 15.9398H8.74176C6.91204 15.9398 5.38745 15.115 4.3583 13.7958C3.32191 12.4777 2.76337 10.6809 2.76337 8.70316C2.76441 6.7589 3.20192 4.9819 4.12558 3.65959C5.03992 2.33834 6.47246 1.50105 8.30114 1.50105H8.31666H8.33631C10.5291 1.50105 12.1333 2.92789 12.758 4.94531C13.3393 4.76134 13.8565 4.57318 14.5009 4.36413C13.9279 1.83032 11.8065 0.307325 8.38906 0.284328Z" fill="#8E98A8" fill-opacity="0.56"/>
</g>
<g id="g3077">
<path id="path3079" d="M27.8028 0.261591C24.3503 0.282497 22.6995 1.57553 21.842 5.08564L21.4583 5.06996L20.7322 0.61072H19.0659V16.9236H22.0944V12.0536C22.0975 7.10411 23.8238 2.97518 27.0561 2.94069H27.0674C28.0614 2.94069 28.9065 3.26578 29.4888 3.9379C30.0722 4.61212 30.3825 5.60724 30.3825 6.91282V16.9247L33.4047 16.9236V6.6609C33.383 2.69295 31.5388 0.278316 27.8028 0.261591Z" fill="#8E98A8" fill-opacity="0.56"/>
</g>
<g id="g3081">
<path id="path3083" d="M79.0786 0.283649C76.5993 0.283649 74.8017 2.31466 73.7156 5.03453C72.7217 1.7178 70.2062 0.283649 68.0682 0.283649C65.3118 0.283649 63.3321 2.07215 62.2398 4.97599L61.8282 4.9739L60.9635 0.588877H57.4819V16.9269H63.209V12.8596C63.209 11.1725 63.27 5.66171 66.132 5.66171C66.5292 5.66171 67.6266 5.66171 67.6266 7.94255V16.9269H74.2194V12.8596C74.2194 9.39342 75.022 5.66171 77.1413 5.66171C77.5375 5.66171 78.6349 5.66171 78.6349 7.94255V16.9269H85.1728V7.94255C85.1728 1.61222 81.8578 0.283649 79.0786 0.283649Z" fill="#8E98A8" fill-opacity="0.56"/>
</g>
<g id="g3085">
<path id="path3087" d="M45.2415 0.296894C40.5808 0.296894 37.9092 2.0854 37.9092 5.20352C37.9092 5.65823 37.9661 6.13697 38.0788 6.63244C38.0912 6.6868 38.1243 6.82582 38.1657 6.95649C38.205 7.08297 38.2505 7.20318 38.2639 7.23558L42.6536 6.24359C42.6536 6.24359 42.6009 6.09307 42.5719 5.91955C42.5357 5.70736 42.5233 5.46066 42.5233 5.41467C42.5233 4.13627 43.4604 3.37425 45.0305 3.37425C46.7413 3.37425 47.6091 4.54708 47.6091 6.86137V8.72931L47.4591 8.71154C46.2851 8.57252 45.1743 8.50248 44.1586 8.50248C39.9033 8.50248 37.5596 10.061 37.5596 12.8917C37.5596 15.5666 39.4131 17.1638 42.5181 17.1638C45.7245 17.1638 47.124 15.3304 47.7332 13.7927L47.9918 13.8325C48.1676 16.0819 49.4667 17.1293 52.0794 17.1293C53.2306 17.1293 54.0994 16.8387 54.8069 16.2168V14.3457C54.6238 14.3959 54.4025 14.4387 54.1025 14.4387C53.0734 14.4387 52.5738 13.8638 52.5738 12.6795V7.42582C52.5738 2.62895 50.1752 0.296894 45.2415 0.296894ZM44.2992 14.5798C43.0994 14.5798 42.3837 13.9485 42.3837 12.8917C42.3837 11.398 43.2473 10.3443 47.4653 10.0642L47.6091 10.0547V10.7405C47.6091 13.0725 46.3099 14.5798 44.2992 14.5798Z" fill="#8E98A8" fill-opacity="0.56"/>
</g>
</g>
</svg>
