<?xml version="1.0" encoding="utf-8"?>
<!-- Generator: Adobe Illustrator 25.0.1, SVG Export Plug-In . SVG Version: 6.00 Build 0)  -->
<svg version="1.1" id="katman_1" xmlns="http://www.w3.org/2000/svg" xmlns:xlink="http://www.w3.org/1999/xlink" x="0px" y="0px"
	 viewBox="0 0 560 400" style="enable-background:new 0 0 560 400;" xml:space="preserve">
<style type="text/css">
	.st0{fill-rule:evenodd;clip-rule:evenodd;fill:#231F20;}
	.st1{fill-rule:evenodd;clip-rule:evenodd;fill:#A62131;}
	.st2{fill-rule:evenodd;clip-rule:evenodd;fill:#FFFFFF;}
	.st3{fill-rule:evenodd;clip-rule:evenodd;fill:#231F20;stroke:#030404;stroke-width:6.054945e-02;}
</style>
<path class="st0" d="M474,158.1c-4.4,0-10.2,0.4-12.3,0.4c-1.2,0-5.9-0.2-7.3-0.2v1.1c2.4,0.5,3.8,1.3,3.8,3.6v32.4
	c0,2.3-1.4,3.3-3.9,3.7v1.2c1.4,0,5.7-0.2,7-0.2c2,0,7.5,0.4,11.9,0.4c15.4,0,24.8-9.1,24.8-21.5C498,166.4,489,158.1,474,158.1
	L474,158.1z M291.8,158.2c-2.3,0-8.1,0.3-10.2,0.3c-1.3,0-5.7-0.2-7.1-0.2v1.1c2.7,0.4,3.7,1.7,3.7,3.7v32.2c0,2.3-1.4,3.4-3.7,3.8
	v1.2c1.4,0,5.9-0.2,7-0.2c1.3,0,5.9,0.2,7.3,0.2v-1.2c-2.5-0.5-3.9-1.7-3.9-3.8V181c0.7,0.1,1.3,0.2,2,0.3c3.2,0.5,5,2,6.4,3.8
	c2.3,2.9,6.5,8.8,8.7,11.6c2.7,3.2,5.3,4.4,8.8,4.4c1.6,0,3.7-0.2,5-0.5v-0.9c-2.7-0.1-5.3-2.9-7.2-5.3c-2-2.4-7-9.4-8.8-11.5
	c-1.5-1.7-2.9-2.5-2.9-2.5c6.4-1.6,10.6-5.3,10.6-10.9C307.5,162.4,301.8,158.2,291.8,158.2L291.8,158.2z M424.2,158.2
	c-2.3,0-8.1,0.3-10.2,0.3c-1.3,0-5.7-0.2-7.1-0.2v1.1c2.7,0.4,3.7,1.7,3.7,3.7v32.2c0,2.3-1.4,3.4-3.7,3.8v1.2c1.4,0,5.9-0.2,7-0.2
	c1.3,0,5.9,0.2,7.3,0.2v-1.2c-2.5-0.5-3.9-1.7-3.9-3.8V181c0.7,0.1,1.3,0.2,2,0.3c3.2,0.5,5,2,6.4,3.8c2.3,2.9,6.3,8.8,8.6,11.6
	c2.6,3.2,5.4,4.4,8.8,4.4c1.6,0,3.7-0.2,5-0.5v-0.9c-2.7-0.1-5.2-2.9-7.2-5.3c-2-2.4-6.9-9.4-8.7-11.5c-1.5-1.7-2.9-2.5-2.9-2.5
	c6.4-1.6,10.6-5.3,10.6-10.9C439.8,162.4,434.2,158.2,424.2,158.2L424.2,158.2z M244.1,158.2c0,0-0.7,2.7-1.3,4.1l-13.4,32.3
	c-1,2.3-2.4,4-5.1,4.6v1.1l6.1-0.1c0.9,0,4.5,0.1,5.9,0.1v-1.1c-2.4-0.6-3-1.6-3-2.7c0-0.8,0.4-1.9,0.7-2.7l2.8-6.9h15.7l3,6.9
	c0.4,1,0.8,2,0.8,2.9c0,1-0.6,2.1-2.7,2.6l0,1.1c1.6,0,6.1-0.1,7.2-0.1c1.1,0,5.8,0.1,7.4,0.1v-1.1c-2.8-0.7-3.9-2.3-4.9-4.6
	L249,162.3c-0.6-1.3-1.2-4.1-1.2-4.1L244.1,158.2z M377.1,158.2c0,0-0.7,2.7-1.2,4.1l-13.4,32.3c-1,2.3-2.4,4-5,4.6l0,1.1l6.2-0.1
	c0.9,0,4.4,0.1,5.8,0.1v-1.1c-2.3-0.6-2.9-1.6-2.9-2.7c0-0.8,0.3-1.9,0.7-2.7l2.8-6.9h15.7l3,6.9c0.4,1,0.8,2,0.8,2.9
	c0,1-0.6,2.1-2.7,2.6l0,1.1c1.5,0,6.1-0.1,7.2-0.1c1.1,0,5.9,0.1,7.4,0.1v-1.1c-2.8-0.7-3.9-2.3-4.9-4.6l-14.2-32.4
	c-0.6-1.3-1.3-4.1-1.3-4.1L377.1,158.2z M173,158.4v1.1c2.1,0.5,3.4,1.4,3.4,3.6v32.6c0,2.2-1.4,3.1-3.4,3.6v1.1l6.5-0.1
	c1.3,0,6,0.1,7,0.1v-1.1c-2.1-0.5-3.4-1.3-3.4-3.6v-15.4h24.3v15.4c0,2.2-1.4,3.1-3.3,3.6v1.1c1,0,5.6-0.1,6.9-0.1l6.7,0.1v-1.1
	c-2.1-0.5-3.5-1.4-3.5-3.6v-32.6c0-2.2,1.5-3.1,3.5-3.6v-1.1l-6.7,0.2c-1.3,0-5.9-0.2-6.9-0.2v1.1c2.1,0.5,3.3,1.4,3.3,3.6v13.6
	h-24.3v-13.6c0-2.2,1.5-3.1,3.4-3.6v-1.1c-1,0-5.7,0.2-7,0.2C178.5,158.5,174,158.4,173,158.4z M314.6,158.5v1.2
	c2.4,0.5,3.8,2,4.7,4.1l16.5,36.9h3.2l15.1-35.6c1.4-3.3,3-4.7,5.5-5.4v-1.2c-1.5,0-5.4,0.2-6.4,0.2c-1,0-4.3-0.2-5.7-0.2v1.2
	c1.7,0.3,2.9,1.2,2.9,2.5c0,1.2-0.6,2.7-1.4,4.7l-10.2,24.6l-10.8-24.6c-1.2-2.6-1.8-3.9-1.8-4.9c0-1.4,1.6-2.1,2.9-2.4v-1.2
	c-1.5,0-6,0.2-7,0.2C321,158.7,316.1,158.5,314.6,158.5L314.6,158.5z M289.8,160.9c6.9,0,10.7,3.5,10.7,9.2c0,4-2.5,8.5-10.3,8.5
	c-1.9,0-3.9-0.1-5.2-0.2v-17C286.6,161.1,288.2,160.9,289.8,160.9L289.8,160.9z M422.2,160.9c6.9,0,10.7,3.5,10.7,9.2
	c0,4-2.5,8.5-10.3,8.5c-1.9,0-3.9-0.1-5.2-0.2v-17C418.9,161.1,420.6,160.9,422.2,160.9L422.2,160.9z M472,160.9
	c11.7,0,18.6,7.7,18.6,18.6c0,10.5-6.5,18.1-19.1,18.1c-2.2,0-5-0.2-6.5-0.4v-35.8C466.6,161.1,469.6,160.9,472,160.9L472,160.9z
	 M244.4,168l6.7,15.6h-12.9L244.4,168z M377.4,168l6.6,15.6h-12.9L377.4,168z"/>
<path class="st1" d="M107.3,145.5l-45.1,0L62,181.6c0,44.3,44.4,72.5,44.8,72.7l0.1,0.1c0.1,0,0.4-0.2,0.4-0.2
	c7.6-4.9,45.2-31.6,45.2-72.4v-36.3C152.5,145.5,107.3,145.5,107.3,145.5"/>
<path class="st0" d="M153.5,147c0,12.2,0.2,24.2,0,36.5c-0.2,8.4-2,16.7-5.1,24.5c-7.3,18.3-21.3,33.6-37.1,44.5
	c-1.3,0.9-2.7,1.8-4,2.6c-9.3-6-17.6-13.7-24.8-22.1c-11.8-14-20.3-31.2-20.7-50.3l0-0.2v-37.6h91.7L153.5,147z M63.4,182.1
	c0.2,22.3,12.8,43.6,28.8,58.8c4.7,4.5,9.6,8.6,15,12.2l0.1,0c8.6-5.3,16.4-12.3,23.2-19.8c12.5-14,21.3-31.8,21.4-51.3
	c0-11.7,0-23.4,0-35.2l0-0.5H63.4l0,34.4L63.4,182.1z"/>
<path class="st2" d="M129.9,188.1c0,0-0.8,2.5-4.2-0.1l-11.8-0.3c0,0-1.5,0.5-1.8-1.1c0,0,0.3-3.2,0.1-3.5c0,0,0.1-0.9-1.5-0.9
	c0,0-2.4,0.3-2.4-1.8c0,0-0.4-2.2,2.9-2.2c0,0,1.1,0.5,1.1-0.8c0,0-0.1-9.1-0.1-9.8c0,0,0.3-0.8-1.3-1c0,0-2.3,0.5-2.6-1
	c0,0-0.1-2.3,1.4-2.5c0,0,1.9,0.1,2.2-0.3c0,0,0.4,0.3,0.4-1.4l0.1-2.9c0,0,0.2-0.8,1.4-0.7c0,0,2.2,0.1,2.5-0.1
	c0,0,0.5-0.6,0.6-0.9c0,0,1.1-0.1,1.3,0.2c0,0,1.7,1.1,8.1,0.7c0,0,1,0,1.2,0.3c0,0,1.2,0.9,1.9-0.1c0,0,1.1-0.2,4.2-0.1
	c0,0,3.4,0.9,5.8-1.1l0.8,0.1c0,0,1,1.6,1.7,1.1c0,0,2.1-0.2,2.5,0.2c0,0,0.7,1,0.3,3.8c0,0-0.4,1.2,1.6,1.2c0,0,2.3-0.4,2,1.7
	c0,0,0.6,2.5-3.2,2.1c0,0-0.5,0.7-0.4,1.2c0,0-0.1,8-0.1,8.9c0,0-0.1,1.3,1.6,1.2c0,0,2.2-0.1,2.3,1.9c0,0,0.3,2.7-2.9,2.2
	c0,0-1,0.1-1.1,0.8l-0.1,3.5c0,0,0.1,1.8-1.9,1.3c-0.3,0-10.9,0.2-11.8-0.1C130.5,187.9,130,187.8,129.9,188.1"/>
<path class="st2" d="M107.3,199.8c0,0,0.5-0.2,0.6-0.6c0,0,1.5-0.1,1.7-0.4l4.6,0.4c0,0,4.6,0.3,6.5-1.1c0,0,0.7,0,1.2,0.2
	c0,0,1,0.2,1.3,0.6l2.7-0.1c0,0,1.5,0.5,1.4,1.5v1.3c0,0-0.3,2.5,0.4,2.7h2c0,0,1.7,0.8,1.5,1.7c0,0,0.1,1.4-1.4,1.7
	c0,0-1.5,0.4-2,0.4c0,0-0.5,0.6-0.6,1.4l-0.2,9.2c0,0-0.1,1,1.3,0.8c0,0,2.2-0.2,2.8,1c0,0,0.6,2-0.6,2.4l-0.8,0.4l-1.8,0.3
	c0,0-0.8,0.1-0.8,1.4v2.4c0,0,0.1,1.7-1.3,1.7l-2,0.1c0,0-0.5,0.4-1.5,0.1c0,0-11.9,0.2-12.3,0.1l-1.4,0.3c0,0-1.5,1.4-2.8,0.3
	l-1-0.8c0,0-0.7,0.1-1,0.1c-0.3-0.1-13.2,0.1-13.2,0.1s-2.7,0.3-2.9-0.6c0,0-0.3-3.6-0.2-4c0,0,0-1-0.6-1.1c0,0-2.7-0.1-2.8-0.4
	c0,0-1.5-1-1.1-2.1c0,0,0.5-1.4,2-1.5c0,0,2.2,0.4,2.2-0.3c0,0,0.1-0.4,0.1-1.1c0,0,0.1-8.3,0.1-8.9c0,0,0.2-1.1-0.7-1.1
	c0,0-1,0.3-1.6-0.1c0,0-1.7,0.1-2-1.3c0,0-0.3-0.8,0.1-1.5c0,0,0.8-1.5,3-1c0,0,1.3,0.4,1.4-0.6l-0.1-3.4c0,0-0.3-0.9,1.5-1.4
	c0,0,2.2,0.6,2.9-0.5c0,0,0.8-1.5,1.4-0.5c0,0,1.3,1.3,5,1.1c0,0,6.3-0.5,6.4-0.2c0,0,1.5,0.2,2,0.7L107.3,199.8z M88.2,188.1
	c0,0-0.8,2.5-4.2-0.1l-11.8-0.3c0,0-1.5,0.5-1.8-1.1c0,0,0.3-3.2,0.1-3.5c0,0,0.1-0.9-1.5-0.9c0,0-2.4,0.3-2.4-1.8
	c0,0-0.4-2.3,2.9-2.2c0,0,1,0.5,1.1-0.8c0,0-0.1-9.1-0.1-9.8c0,0,0.3-0.8-1.3-1c0,0-2.3,0.5-2.6-1.1c0,0-0.1-2.3,1.4-2.5
	c0,0,1.9,0.1,2.2-0.3c0,0,0.4,0.3,0.3-1.4l0.1-2.9c0,0,0.2-0.8,1.4-0.7c0,0,2.2,0.1,2.5-0.1c0,0,0.5-0.6,0.6-0.9
	c0,0,1.1-0.1,1.3,0.2c0,0,1.7,1.1,8.1,0.7c0,0,1,0,1.2,0.3c0,0,1.2,0.9,1.9-0.1c0,0,1.1-0.2,4.2-0.1c0,0,3.4,0.9,5.8-1l0.8,0.1
	c0,0,1,1.6,1.7,1.1c0,0,2.1-0.2,2.5,0.2c0,0,0.7,1.1,0.3,3.8c0,0-0.4,1.2,1.6,1.2c0,0,2.3-0.4,2,1.7c0,0,0.6,2.5-3.2,2.1
	c0,0-0.5,0.7-0.4,1.2c0,0-0.1,8-0.1,8.9c0,0-0.1,1.3,1.6,1.2c0,0,2.2-0.1,2.3,1.9c0,0,0.3,2.7-2.9,2.2c0,0-1,0.1-1.1,0.8l-0.1,3.5
	c0,0,0.1,1.8-1.9,1.3c-0.3,0-10.9,0.2-11.8-0.1C88.8,187.9,88.4,187.8,88.2,188.1"/>
<path class="st0" d="M129.9,188.1c0,0-0.8,2.5-4.2-0.1l-11.8-0.3c0,0-1.5,0.5-1.8-1.1c0,0,0.3-3.2,0.1-3.5c0,0,0.1-0.9-1.5-0.9
	c0,0-2.4,0.3-2.4-1.8c0,0-0.4-2.2,2.9-2.2c0,0,1.1,0.5,1.1-0.8c0,0-0.1-9.1-0.1-9.8c0,0,0.3-0.8-1.3-1c0,0-2.3,0.5-2.6-1
	c0,0-0.1-2.3,1.4-2.5c0,0,1.9,0.1,2.2-0.3c0,0,0.4,0.3,0.4-1.4l0.1-2.9c0,0,0.2-0.8,1.4-0.7c0,0,2.2,0.1,2.5-0.1
	c0,0,0.5-0.6,0.6-0.9c0,0,1.1-0.1,1.3,0.2c0,0,1.7,1.1,8.1,0.7c0,0,1,0,1.2,0.3c0,0,1.2,0.9,1.9-0.1c0,0,1.1-0.2,4.2-0.1
	c0,0,3.4,0.9,5.8-1.1l0.8,0.1c0,0,1,1.6,1.7,1.1c0,0,2.1-0.2,2.5,0.2c0,0,0.7,1,0.3,3.8c0,0-0.4,1.2,1.6,1.2c0,0,2.3-0.4,2,1.7
	c0,0,0.6,2.5-3.2,2.1c0,0-0.5,0.7-0.4,1.2c0,0-0.1,8-0.1,8.9c0,0-0.1,1.3,1.6,1.2c0,0,2.2-0.1,2.3,1.9c0,0,0.3,2.7-2.9,2.2
	c0,0-1,0.1-1.1,0.8l-0.1,3.5c0,0,0.1,1.8-1.9,1.3c-0.3,0-10.9,0.2-11.8-0.1C130.5,187.9,130,187.8,129.9,188.1"/>
<path class="st2" d="M128.4,184.7c0,0-1.3,0-1.3,1.8c0,0,0.1,1.3,1.5,1.3c0,0,1.3-0.2,1.1-1.6C129.8,186.2,129.1,184.4,128.4,184.7z
	 M144.3,166c0,0-0.7,0.4-0.5,1.3l-0.2,10.2c0,0-0.1,1.7,1.5,1.7c0,0,1.7-0.1,2.1,0.5c0,0,1.2,1.8-1.4,1.6c0,0-1.6-0.1-2,0.2
	c0,0-0.3,0.3-0.5,3.6c0,0,0.1,2-1.3,1.7c0,0-9.7,0.1-10.7-0.1c0,0-1,0.3-1.1-0.5c0,0,0-0.6,1-0.6l9.8-0.1c0,0,0.9,0.5,0.9-1.2
	c0,0,0.4-7.6,0.4-16c0-2.5,0.1-5.1,0-7.6c0,0-0.2-1.1-0.5-1.3c0,0,0-1.1,1.2-0.7c0,0,1.1,0.1,0.8,1.7l0.1,2.4c0,0-0.2,1.1,1.7,0.8
	c0,0,1.9,0.3,2,1c0,0,0.6,1.4-1.7,1.3H144.3z M114.5,186.8c-1.4-0.1-1.3-1.1-1.3-1.1V183c0.1-1.4-1.4-1.7-1.4-1.7
	c-2,0.4-2.5-0.8-2.5-0.8c-0.1-1.5,2.3-1.3,2.3-1.3c2,0,1.4-1.8,1.4-1.8l0.1-10.6c-0.1-1-2.7-1-2.7-1c-1.6,0.3-1.2-1.3-1.2-1.3
	c0.8-0.8,2.5-0.7,2.5-0.7c1.5,0.1,1.5-1.5,1.5-1.5l0.1-2.9c1.6-1.5,1.9-0.3,1.9-0.3c-0.9,1.4-0.7,4.8-0.7,4.8l-0.1-0.3
	c0.1,0.3-0.1,20.1-0.1,20.1c0.1,2.2,1.6,1.7,1.6,1.7l9.1,0.1c0.8,0,0.9,0.6,0.9,0.6c0,0.7-0.6,0.6-0.6,0.6H114.5z M116.4,183.7
	c0,0-0.3,1,0.8,0.8h7.2l2,0.4c0,0,2-0.5,0-1.6c0,0-6.4,0.1-7-0.1l-1.6-0.4C117.8,182.8,117.1,182.6,116.4,183.7L116.4,183.7z
	 M129.4,184c0,0,0.6-0.7,1.1-0.7c0,0,7,0.6,8.2-0.2c0,0,1.1-0.2,1.3,0c0,0,1,0.8,1,1.3c0,0-0.1,0.6-1.3,0.3c0,0-7.9,0.1-8.3,0.1
	C131.4,184.8,129.2,185.3,129.4,184z M115.4,183.6c-0.1,0-0.3,0-0.4-0.8l0.1-21c0,0,0.1-2.6,1.5-2.5c0,0,0.1,1.4,0.1,1.8
	c0,0.3-0.2,20.3-0.2,20.3S116.8,182.8,115.4,183.6L115.4,183.6L115.4,183.6z M141.8,163l-0.3,19.2c-0.1,0.7-0.2,1.1-0.2,1.1
	c-0.9,0.2-1.5-1.8-1.5-1.8l0.1-22.1c1.2-1.7,1.9,1.7,1.9,1.7v0L141.8,163z M128.8,159.7c0,0-0.2,10.6-0.1,10.9l-0.1,8.9l-0.3,3.1
	c0,0,0.4,0.6,0.8,0.2c0,0,2.2-0.6,3.6-0.3c0,0,4.5,0.4,5.4-0.3c0,0,0.7,0.4,0.9-0.8c0,0,0.3-19.6,0.1-20c0,0,0.3-2.8,0.1-3.1
	c0,0-0.1-0.6-1.3-0.1c0,0,0.1,0.6-6.5,0.3C131.4,158.7,128.9,158.6,128.8,159.7L128.8,159.7z M117.7,158.6l-0.2,22.5
	c0,0-0.1,1,1.7,1.3c0,0,2,0.2,2.5,0c0,0,1.3-0.1,4.8,0.1c0,0,0.8,0.8,0.9-0.2c0,0,0.6-18.2,0.3-22c0,0-0.1-1.6-1.3-1.7
	c0,0-5.3,0.4-5.8,0l-2.1-0.6C118.5,158,117.6,158,117.7,158.6L117.7,158.6z"/>
<path class="st0" d="M123.8,165.6c2.8,0.9,2.4,2.9,2.4,2.9c0.2,2-2,2.9-2,2.9l-0.1,1.1l2,3.2c0.3,0.3,0.3,0.6,0.3,0.6
	c-0.3,0.8-1.4,0-1.4,0l-2.5-3.9c-0.2-0.3-0.6,0.2-0.6,0.2l-0.1,2.2l0.6,1c0.4,0.6-0.3,1-0.3,1l-2.2-0.2c-0.4-0.2,0-0.9,0-0.9
	c0.6-0.3,0.6-1.3,0.6-1.3l-0.1-4.1l0.1-2.9c0-0.4-0.6-1-0.6-1c-0.5-0.1-0.3-0.7-0.3-0.7c0.1-0.4,1.3-0.1,1.3-0.1H123.8z
	 M131.3,166.1c-0.2-0.6,1.2-0.6,1.2-0.6l0.7,0.1c0.5-0.1,1,0.1,1,0.1c0.5,0.8-0.4,1.2-0.4,1.2l-0.3,0.9c-0.1,0.8,0,7.4,0,7.4
	c0.1,0.3,0.7,1,0.7,1c0,0.6-0.8,0.5-0.8,0.5l-2,0.1c-0.6-0.1-0.4-0.8-0.4-0.8c0.7-0.3,0.9-1.6,0.9-1.6v-6.9L131.3,166.1z
	 M121.9,167.1c0.1,1.5,0.1,3.6,0.1,3.6c1.3,1.1,2.1-0.4,2.1-0.4c1.7-1.7,0-3.2-0.3-3.6c-0.3-0.4-1.7-0.1-1.7-0.1L121.9,167.1z
	 M107.3,199.8c0,0,0.5-0.2,0.6-0.6c0,0,1.5-0.1,1.7-0.4l4.6,0.4c0,0,4.6,0.3,6.5-1.1c0,0,0.7,0,1.2,0.2c0,0,1,0.2,1.3,0.6l2.7-0.1
	c0,0,1.5,0.5,1.4,1.5v1.3c0,0-0.3,2.5,0.4,2.7h2c0,0,1.7,0.8,1.5,1.7c0,0,0.1,1.4-1.4,1.7c0,0-1.5,0.4-2,0.4c0,0-0.5,0.6-0.6,1.4
	l-0.2,9.2c0,0-0.1,1,1.3,0.8c0,0,2.2-0.2,2.8,1c0,0,0.6,2-0.6,2.4l-0.8,0.4l-1.8,0.3c0,0-0.8,0.1-0.8,1.4v2.4c0,0,0.1,1.7-1.3,1.7
	l-2,0.1c0,0-0.5,0.4-1.5,0.1c0,0-11.9,0.2-12.3,0.1l-1.4,0.3c0,0-1.5,1.4-2.8,0.3l-1-0.8c0,0-0.7,0.1-1,0.1
	c-0.3-0.1-13.2,0.1-13.2,0.1s-2.7,0.3-2.9-0.6c0,0-0.3-3.6-0.2-4c0,0,0-1-0.6-1.1c0,0-2.7-0.1-2.8-0.4c0,0-1.5-1-1.1-2.1
	c0,0,0.5-1.4,2-1.5c0,0,2.2,0.4,2.2-0.3c0,0,0.1-0.4,0.1-1.1c0,0,0.1-8.3,0.1-8.9c0,0,0.2-1.1-0.7-1.1c0,0-1,0.3-1.6-0.1
	c0,0-1.7,0.1-2-1.3c0,0-0.3-0.8,0.1-1.5c0,0,0.8-1.5,3-1c0,0,1.3,0.4,1.4-0.6l-0.1-3.4c0,0-0.3-0.9,1.5-1.4c0,0,2.2,0.6,2.9-0.5
	c0,0,0.8-1.5,1.4-0.5c0,0,1.3,1.3,5,1.1c0,0,6.3-0.5,6.4-0.2c0,0,1.5,0.2,2,0.7L107.3,199.8z"/>
<path class="st2" d="M106.9,226c0,0,1.2,0.2,1.2,1.3c0,1.1,0.1,1.8-0.6,1.9c-0.7,0.1-1.5-0.1-1.7-1
	C105.6,227.4,105.9,226.2,106.9,226z M90.6,200.7c0,0-0.8,1.5-0.8,1.9l-0.1,4.7c0,0-0.1,3,0,3.4c0.1,0.3-0.1,9.2-0.1,9.2
	s-0.1,1.7,0,2.2v3.8c0,0-0.1,1.7,1.1,1.3c0,0,12.3-0.3,13.1-0.1c0,0,1.1,0.2,0.7,0.8c0,0,0,0.5-0.8,0.4c0,0-5.8,0.6-11.1,0.3
	c0,0-3.5,0.2-3.7-0.2c0,0-0.6-0.1-0.6-2.1c0,0,0-1.9-0.1-2.2c0,0,0.1-1-1.6-1.2c0,0-2.5,0.4-2.5-1c0,0,0.3-1.1,2.7-0.9
	c0,0,1.8,0.3,1.4-1.1l0.2-10.4c0,0,0.2-1.8-1-1.9c0,0-1.1-0.1-1.5,0.1c0,0-2,0-1.9-1.2c0,0,0.7-1.3,2.7-1c0,0,1.5,0.3,1.6-1.5
	c0,0-0.1-3.6,0.8-3.7C89.3,200.2,91.1,200.2,90.6,200.7L90.6,200.7z M124.7,200.2c0.2-0.1,1.2-0.3,1.4,0.1c0,0,0.6,1.7,0.1,2.7
	c0,0-0.1,2,0.9,2c0,0,0.4,0.4,1.3,0.2c0,0,1.8,0.2,1.8,0.8c0,0,0,1.3-1.3,1.1l-1.7,0.1c0,0-1.1,0.2-1,1.5c0.1,1.3-0.1,10.9-0.1,10.9
	s0,1.1,1.8,1.1c0,0,2.2-0.1,2.2,0.6c0,0,0.6,1.4-1,1.5c0,0-2.9-0.1-2.7,0.8c0,0-0.2,2-0.4,2.3c0,0,0.3,1.6-0.1,1.9
	c0,0-0.2,0.9-2.1,0.8c0,0-12.1-0.1-13.9,0.1c0,0-1.1-0.1-0.8-1.1c0,0,0.8-0.4,1.4-0.3c0.6,0.1,8.8-0.1,8.8-0.1s3.6,0.3,4.1-0.2
	l0.8-0.3c0,0,0.4-0.4,0.4-1c0-0.6,0.1-2.5,0.1-2.5l0.2-0.7c0,0-0.1-0.7,0-19.4c0,0,0.3-1.5-0.6-2.4c0,0,0-0.6,0.3-0.5L124.7,200.2
	L124.7,200.2L124.7,200.2z M119.2,224.8c0.1,0,1.7,0,2.2-0.6c0,0,0.5-0.1,0.8,0.4l1,1.1c0,0,0.1,0.7-1.1,0.6l0,0
	c-0.2,0-11.4,0-11.8,0.1c0,0-2.2,0.3-2-0.8c0,0,1.3-0.8,1.8-0.7c0,0,6.4,0.4,8.3,0.1c0.9-0.2,1.1-0.2,1.1-0.2L119.2,224.8z
	 M92.7,223.9c0,0,0.2,0.2,0.5,0.4l0,0c0.4,0.3,1.2,0.6,2.1,0.6l9.5,0.1l0.1,0c0,0,1.1,0.1,1,0.6c0,0-0.1,0.8-1.4,0.6l-11.5-0.1
	l-1.2,0.1l0,0h0c0,0-0.8-0.1,0.5-1.8L92.7,223.9L92.7,223.9z M92,222.9c0,0.5-0.1,1.4-1,2c0,0-0.6,0.8-0.6-0.4l0.3-21.6
	c0,0,0.1-1.6,1.1-2.3c0,0,0.5,0,0.4,0.8L92,222.6L92,222.9z M123.4,224.9c-0.4-0.2-1.3-1.8-1.3-1.8l0.1-0.5l0.1-21.5
	c0-1.1,0.9-0.4,0.9-0.4l0.8,1.5c-0.2,1.1,0,1.8,0,1.8l-0.1,20.2C124.1,225.6,123.5,225,123.4,224.9L123.4,224.9z M106.6,213.4
	c0,0,0.1,1.7-0.1,3.3c-0.1,0.9,0.3,5-0.1,7.1c0,0-0.1,0.7-1.5,0.1c0,0-9,0.2-9.2-0.1c0,0-2.5,0.1-2.7-1.2c0,0,0.3-9.6,0.1-10
	c0,0-0.1-5.3,0-5.7c0,0,0.2-4.8,0.1-5.4c0,0,0.1-1.1-0.1-1.7c0,0,0-0.7,1.2-0.3c0,0,0.4,0.8,2.7,0.4c0,0,1.7,0.3,3.3,0.1
	c0,0,3.6-0.3,4.5,0c0,0,1.4-0.3,1.8,1.3l-0.1,4.3l0.4,1.4l0.5-0.3l0.2-1.1l0.1-4.6c0,0,0.3-0.8,1.4-1c0,0,1.8-0.2,2-0.1
	c0.3,0.1,4.1,0.3,5.1,0.1c1-0.2,1.3,0.7,4.4-0.9c0,0,0.8,0.1,0.8,0.6c0,0-0.3,6,0,7.1c0,0,0,10.9-0.2,11.7l0.1,3.5
	c0,0,0.1,1.5-2.3,1.7c0,0,1.5,0.2-8.1-0.1c0,0-1.5-0.1-3.2,0.7c0,0-0.3-0.1-0.3-1c0,0,0.3-3.3,0-6.5l-0.1-3.6L106.6,213.4z"/>
<path class="st0" d="M100.3,208.4c0,0,0.2,5.2,0,5.9l-0.1,1.1c0,0,0.3,0.8,0.7,1c0,0,0.4,1-0.5,0.9c0,0-1.7-0.1-2.2-0.1
	c0,0-1,0,0-1.3c0,0,0.3-0.5,0.3-1.8c0,0,0-5.9,0.1-6.2c0,0,0.1-0.8-0.4-1l-0.8,0.1l-1,1c0,0-0.2,1.1-0.7-0.1v-0.6l0.6-1.7l0.4-0.1
	c0,0,0.6,0.4,1.2,0.6h3.3l1.2-0.6c0,0,0.5,0.1,0.4,0.7c0,0,0.2,1.6-0.7,1.8c0,0-0.6-0.2-0.8-1C101.2,207.3,100.3,206.8,100.3,208.4
	L100.3,208.4z M115.7,206.6c0,0-2.7-0.2-2.7,2.7c0,0-0.3,2,2.7,3.2c0,0,2.2,1,2,2.4c0,0-0.3,2.4-2.6,1.2c0,0-1.1-0.6-1-1.2
	c0,0-0.4-0.8-0.8-0.6c0,0-0.5,0.1-0.3,2.5c0,0,0,0.9,1,0l0.6,0.1c0,0,1.9,1.5,3.5-0.4c0,0,1.8-1.6,0.5-3.6c0,0-0.9-1.4-2.5-2.1
	c0,0-1.5-0.7-1.9-1.9c0,0,0.5-2.1,2.4-1c0,0,0.7,0.8,1.1,1c0,0,0.6,0,0.4-1.3l-0.1-1c0,0-0.1-0.8-1.1,0
	C116.9,206.6,116,206.9,115.7,206.6L115.7,206.6z M107.2,205.1c0.5,0.4,0.6,1.1,0.6,1.1c1.4,3.7,2.6,9.1,2.6,9.1
	c0.3,0.7,1,1.3,1,1.3c1.2,0.4,0,0.8,0,0.8c-0.5,0.2-2.1-0.1-2.1-0.1c-0.8-0.2-0.5-0.4-0.5-0.4c0.4-0.3,0.1-1.8,0.1-1.8
	c-0.1-0.6-0.7-1.5-0.7-1.5c-0.3-0.1-0.8,0.5-0.8,0.5s-0.8,0.3-0.8,0c-0.1-0.3-0.6-0.5-0.6-0.5c-0.8,0-1.2,2.1-1.2,2.1
	c0.5,1.8,0,1.5,0,1.5c-0.4,0.6-1.8,0.2-1.8,0.2c-0.6-0.2-0.2-0.6-0.2-0.6c0.8-0.1,1-1,1-1c0.4-0.5,2.6-9.6,2.6-9.6
	C106.6,205.6,106.7,204.7,107.2,205.1L107.2,205.1z M106.1,209.7c-0.1,0.4-0.6,2.3-0.6,2.3l0.4,0.7c0,0,1.1,0.1,1.5,0.1
	c0.4,0,0.5-0.3,0.5-0.7c0-0.3-0.8-2.4-0.8-2.4l-0.4-0.4L106.1,209.7z M88.2,188.1c0,0-0.8,2.5-4.2-0.1l-11.8-0.3
	c0,0-1.5,0.5-1.8-1.1c0,0,0.3-3.2,0.1-3.5c0,0,0.1-0.9-1.5-0.9c0,0-2.4,0.3-2.4-1.8c0,0-0.4-2.3,2.9-2.2c0,0,1,0.5,1.1-0.8
	c0,0-0.1-9.1-0.1-9.8c0,0,0.3-0.8-1.3-1c0,0-2.3,0.5-2.6-1.1c0,0-0.1-2.3,1.4-2.5c0,0,1.9,0.1,2.2-0.3c0,0,0.4,0.3,0.3-1.4l0.1-2.9
	c0,0,0.2-0.8,1.4-0.7c0,0,2.2,0.1,2.5-0.1c0,0,0.5-0.6,0.6-0.9c0,0,1.1-0.1,1.3,0.2c0,0,1.7,1.1,8.1,0.7c0,0,1,0,1.2,0.3
	c0,0,1.2,0.9,1.9-0.1c0,0,1.1-0.2,4.2-0.1c0,0,3.4,0.9,5.8-1l0.8,0.1c0,0,1,1.6,1.7,1.1c0,0,2.1-0.2,2.5,0.2c0,0,0.7,1.1,0.3,3.8
	c0,0-0.4,1.2,1.6,1.2c0,0,2.3-0.4,2,1.7c0,0,0.6,2.5-3.2,2.1c0,0-0.5,0.7-0.4,1.2c0,0-0.1,8-0.1,8.9c0,0-0.1,1.3,1.6,1.2
	c0,0,2.2-0.1,2.3,1.9c0,0,0.3,2.7-2.9,2.2c0,0-1,0.1-1.1,0.8l-0.1,3.5c0,0,0.1,1.8-1.9,1.3c-0.3,0-10.9,0.2-11.8-0.1
	C88.8,187.9,88.4,187.8,88.2,188.1"/>
<path class="st3" d="M75,159.2c0,0,0.1,1.4,0.1,1.7c0,0.3-0.2,20.3-0.2,20.3s0.2,1.5-1.1,2.3c0,0-0.3,0.1-0.4-0.8l0.1-21
	C73.5,161.7,73.6,159.1,75,159.2L75,159.2z M98.2,159.5l-0.1,22.1c0,0,0.6,2,1.5,1.8c0,0,0.1-0.4,0.2-1.1l0.3-21.1
	C100.1,161.1,99.4,157.8,98.2,159.5z"/>
<path class="st2" d="M86.5,184.9c0,0-1.3,0-1.3,1.7c0,0,0.1,1.3,1.5,1.3c0,0,1.3-0.2,1.1-1.6C87.9,186.4,87.2,184.6,86.5,184.9
	L86.5,184.9z M102.6,166c0,0-0.7,0.4-0.5,1.3l-0.2,10.2c0,0-0.1,1.8,1.5,1.7c0,0,1.8-0.1,2.1,0.5c0,0,1.2,1.8-1.4,1.6
	c0,0-1.6-0.1-2,0.2c0,0-0.3,0.4-0.5,3.6c0,0,0.1,2-1.3,1.8c0,0-9.7,0.1-10.6-0.1c0,0-1,0.3-1.1-0.5c0,0,0-0.6,1-0.6l9.8-0.1
	c0,0,0.9,0.5,0.9-1.2c0,0,0.4-7.6,0.4-16.1c0-2.5,0.1-5.1,0-7.6c0,0-0.2-1-0.5-1.3c0,0,0-1.1,1.2-0.7c0,0,1,0.1,0.8,1.7l0.1,2.5
	c0,0-0.2,1,1.7,0.8c0,0,1.9,0.3,2,1c0,0,0.6,1.4-1.7,1.3L102.6,166z M72.8,186.8c-1.4-0.1-1.3-1.1-1.3-1.1V183
	c0.1-1.4-1.4-1.7-1.4-1.7c-2,0.4-2.5-0.8-2.5-0.8c-0.1-1.5,2.3-1.3,2.3-1.3c2,0,1.4-1.8,1.4-1.8l0.1-10.6c-0.1-1-2.7-1-2.7-1
	c-1.6,0.3-1.2-1.3-1.2-1.3c0.8-0.8,2.5-0.7,2.5-0.7c1.5,0.1,1.5-1.5,1.5-1.5l0.1-2.9c1.6-1.5,1.9-0.3,1.9-0.3
	c-0.9,1.4-0.7,4.8-0.7,4.8l-0.1-0.3c0.1,0.4-0.1,20.1-0.1,20.1c0.1,2.2,1.6,1.7,1.6,1.7l9.1,0.1c0.8,0,0.9,0.6,0.9,0.6
	c0,0.7-0.6,0.6-0.6,0.6L72.8,186.8z M75.3,184.7c-1,0.2-0.8-0.8-0.8-0.8c0.6-1.2,1.3-0.9,1.3-0.9c0.3,0.1,1.6,0.4,1.6,0.4
	c0.6,0.1,7,0.1,7,0.1c2,1.1,0,1.6,0,1.6l-2-0.4L75.3,184.7z M87.5,184.2c0,0,0.6-0.7,1.1-0.7c0,0,7,0.6,8.2-0.2c0,0,1.1-0.2,1.3,0
	c0,0,1.1,0.8,1.1,1.3c0,0-0.1,0.6-1.3,0.3c0,0-7.9,0.1-8.3,0.1C89.5,185,87.3,185.5,87.5,184.2z M75,159.2c0,0,0.1,1.4,0.1,1.7
	s-0.2,20.3-0.2,20.3s0.2,1.5-1.1,2.3c0,0-0.3,0.1-0.4-0.8l0.1-21C73.5,161.7,73.6,159.1,75,159.2L75,159.2z M98.2,159.5l-0.1,22.1
	c0,0,0.6,2,1.5,1.8c0,0,0.1-0.4,0.2-1.1l0.3-21.1C100.1,161.1,99.4,157.8,98.2,159.5z M87.1,159.6c0,0-0.2,10.6-0.1,10.9l-0.1,8.9
	l-0.3,3.1c0,0,0.4,0.6,0.8,0.2c0,0,2.2-0.6,3.6-0.3c0,0,4.5,0.4,5.4-0.3c0,0,0.7,0.3,0.9-0.8c0,0,0.3-19.6,0.1-20
	c0,0,0.3-2.8,0.1-3.1c0,0-0.1-0.6-1.3-0.1c0,0,0.1,0.6-6.5,0.4C89.8,158.6,87.2,158.5,87.1,159.6z M76,158.6l-0.2,22.5
	c0,0-0.1,1,1.7,1.3c0,0,2,0.2,2.5,0c0,0,1.3-0.1,4.8,0.1c0,0,0.8,0.8,0.9-0.2c0,0,0.6-18.2,0.3-22c0,0-0.1-1.6-1.3-1.7
	c0,0-5.3,0.4-5.8,0l-2.1-0.6C76.8,158,75.9,158,76,158.6z"/>
<g>
	<path class="st0" d="M89,167.2l-0.1,7.4l-0.2,0.6c0,0-0.7,0.9-0.2,1c0,0-0.6,0.4,4.5,0.5c0,0,2,0.3,1.5-2.2c0,0-0.2-0.9-0.9,0.4
		c0,0-0.2,1.1-2.7,0.8c0,0-0.6-0.5-0.6-1v-3.1c0,0-0.1-0.8,1.1-0.7c0,0,1.3,0.8,1.5,0.5c0,0,0.5-1.1,0-1.8c0,0-0.6-0.1-0.7,0.2
		c0,0-0.4,0.8-1.6,0.3c0,0-0.6-1.1-0.2-2c0,0-0.1-1.8,1.1-1.6c0,0,1.4,0.3,1.5,0.7c0,0,0.3,0.8,0.7-0.1l-0.4-1.2
		c0,0-0.2-0.5-0.6-0.4c0,0-2.4,0.4-2.7,0.1l-1.9,0.2c0,0-0.3,0.7,0.6,1C88.8,166.8,89,167,89,167.2L89,167.2z M84.9,166.1l-0.6,1.3
		c0,0-1.5,6.8-2.4,8.2c0,0-0.1,1.4-1.3,0.3c0,0-2.7-8.6-2.9-8.9l-0.9-0.6c0,0-0.6-0.8,0.4-0.8l2.6,0.1c0,0,0.8,0.7-0.3,1.5
		c0,0,0.1,1.1,1.6,5.4c0,0,0.4,1.6,0.9,0.4l1.4-5l-0.4-1.5c0,0-0.4-0.7,0.2-0.8C83.3,165.7,84.7,165.6,84.9,166.1z"/>
	<path class="st0" d="M230.3,222.4c0-0.9-0.6-1.6-1.9-1.9v-0.6l3.7,0.1c0.6,0,2.8-0.1,3.5-0.1v0.6c-1.2,0.2-1.8,0.9-1.8,1.9v11.9
		c0,3.8,2.1,5.9,6.4,5.9c3.7,0,6.7-1.7,6.7-5.6v-12.3c0-0.9-0.6-1.6-2-1.9v-0.6c0.5,0,2.4,0.1,3.1,0.1l3.1-0.1v0.6
		c-1.4,0.3-2,0.9-2,1.9v11.6c0,5.2-3,8.2-9.6,8.2c-6.1,0-9.2-2.8-9.2-7.7L230.3,222.4z M256.4,241.2c1.4-0.3,2-1,2-1.9v-16.5
		c0-1.4-0.7-2-2-2.4v-0.6c0.7,0.1,1.9,0.1,2.5,0.1c0.6,0,1.4,0,2-0.1l14.3,16.8v-14.4c0-0.9-0.6-1.6-2-1.9v-0.6c0.5,0,2.4,0.1,3,0.1
		l3.1-0.1v0.6c-1.4,0.3-2,0.9-2,1.9v19.8h-0.9c-0.5-0.1-1.6-0.7-3.1-2.4l-12.8-14.9v14.5c0,0.9,0.5,1.6,1.9,1.9v0.6
		c-0.5,0-2.4-0.1-3-0.1l-3,0.1V241.2z M369.3,236.7h0.6c0.3,1.2,1,2.4,2,3c1,0.7,2.6,1.1,3.9,1.1c2.9,0,4.7-1.4,4.7-3.7
		c0-2.3-2.3-3.5-5.1-4.9c-2.1-1-6.2-2.8-6.2-6.7c0-3.7,2.8-6,7.3-6c3,0,4.4,0.7,6.4,0.6l0,4.5h-0.6c-0.8-2.6-3.2-3.6-5.8-3.6
		c-2.9,0-4,1.7-4,3.4c0,2.4,2.4,3.7,5.1,4.9c3,1.4,6.3,3.1,6.3,6.9c0,3.6-2.8,6.2-8,6.2c-3.1,0-4.9-0.9-6.5-1.1L369.3,236.7z
		 M430.8,232.7l-5.8-9.3c-1-1.6-1.8-2.5-2.9-2.9v-0.6c0.8,0,3,0.1,3.6,0.1c0.6,0,2.9-0.1,3.7-0.1v0.6c-0.7,0.1-1.1,0.5-1.1,1.1
		c0,0.5,0.3,1.1,0.7,1.7c0.3,0.5,4.3,7.1,4.3,7.1l4.1-7.1c0.4-0.7,0.7-1.4,0.7-1.9c0-0.4-0.3-0.8-1-0.9v-0.6c0.7,0,2.2,0.1,2.6,0.1
		c0.5,0,2.2-0.1,2.9-0.1v0.6c-1.6,0.7-2.6,2-3.5,3.7l-5.3,8.9 M434.1,231.8v7.5c0,0.7,0.6,1.7,1.8,1.9v0.6l-3.7-0.1
		c-0.6,0-2.8,0.1-3.6,0.1v-0.6c1.3-0.2,1.9-1.2,1.9-1.9v-7.1"/>
	<path class="st0" d="M322.5,219.8h13.7c0.4,0,1.2,0,1.6-0.2h0.6l-0.1,4.4h-0.6c-0.5-1.4-1.1-2.5-3.7-2.5h-5.9v7.7h4.6
		c0.7,0,1.5-0.1,1.8-0.1c1-0.2,1.5-0.8,1.7-1.7h0.6c0,0.7,0,2.2,0,2.6c0,0.5,0,2.1,0,2.8h-0.6c-0.3-0.9-0.7-1.5-1.7-1.8
		c-0.3-0.1-1.2-0.2-1.8-0.2h-4.6v9.1h6.4c2.8,0,3.6-1.2,4.3-2.8l0.6,0.1l-0.6,4.6c-2.1-0.2-3.4-0.2-5.7-0.2h-6.8l-3.8,0.1v-0.6
		c1.2-0.2,1.9-0.8,1.9-2v-16.8c0-1-0.6-1.7-1.9-1.9L322.5,219.8z M287.6,222.5c0-1.1-0.7-1.7-2-2v-0.6l3.8,0.1c0.6,0,3-0.1,3.8-0.1
		v0.6c-1.3,0.3-2,0.8-2,2v16.7c0,1.1,0.7,1.7,2,2v0.6l-3.8-0.1c-0.6,0-3.1,0.1-3.8,0.1v-0.6c1.3-0.3,2-0.8,2-2V222.5z M391.3,222.5
		c0-1.1-0.7-1.7-2-2v-0.6l3.8,0.1c0.6,0,3-0.1,3.8-0.1v0.6c-1.3,0.3-2,0.8-2,2v16.7c0,1.1,0.7,1.7,2,2v0.6l-3.8-0.1
		c-0.6,0-3.1,0.1-3.8,0.1v-0.6c1.3-0.3,2-0.8,2-2V222.5z M410.3,219.9c-7.5,0-8.7-0.1-10.2-0.2l0,4.5h0.6c0.6-2,1.7-2.5,3.1-2.5h4.7
		v17.4c0,1.2-0.6,1.8-2,2v0.6c0.7,0,3.2-0.1,3.8-0.1l3.8,0.1v-0.6c-1.3-0.3-2-0.9-2-2v-17.4h4.7c1.5,0,2.6,0.5,3.1,2.5h0.6l0-4.5
		C418.9,219.8,417.7,219.9,410.3,219.9"/>
	<path class="st0" d="M350.5,239.2c0,1.1,0.7,1.7,2,2v0.6l-3.8-0.1c-0.6,0-2.9,0.1-3.7,0.1v-0.6c1.2-0.2,1.9-0.8,1.9-2v-16.8
		c0-1-0.6-1.7-1.9-1.9v-0.6l3.7,0.1c1.1,0,4.1-0.2,5.3-0.2c5.2,0,8.2,2.2,8.2,5.9c0,2.9-2.2,4.9-5.5,5.7c0,0,0.8,0.4,1.5,1.3
		c0.9,1.1,3.4,4.7,4.5,5.9c1,1.3,2.4,2.7,3.8,2.7v0.5c-0.7,0.1-1.8,0.3-2.6,0.3c-1.8,0-3.2-0.6-4.6-2.3c-1.2-1.5-3.2-4.5-4.4-6
		c-0.8-1-1.7-1.7-3.4-2c-0.3-0.1-0.6-0.1-1-0.1L350.5,239.2z M350.5,230.2c0.7,0.1,1.7,0.1,2.7,0.1c4.1,0,5.4-2.4,5.4-4.5
		c0-3-2-4.8-5.6-4.8c-0.7,0-1.8,0.1-2.6,0.2V230.2z M298.5,222.6c-0.5-1.1-1.2-1.8-2.5-2.1v-0.6c0.8,0,3.5,0.1,4.1,0.1
		c0.5,0,2.9-0.1,3.7-0.1v0.6c-0.7,0.1-1.5,0.5-1.5,1.3c0,0.5,0.3,1.2,0.9,2.6l5.7,12.9l5.4-12.9c0.4-1,0.7-1.8,0.7-2.5
		c0-0.7-0.6-1.2-1.5-1.3v-0.6c0.7,0,2.5,0.1,3,0.1c0.5,0,2.5-0.1,3.3-0.1v0.6c-1.3,0.4-2.1,1.1-2.9,2.8l-7.9,18.6h-1.8L298.5,222.6z
		"/>
</g>
</svg>
