<svg width="137" height="36" viewBox="0 0 137 36" fill="none" xmlns="http://www.w3.org/2000/svg">
<g id="g10">
<g id="g12">
<g id="Clip path group">
<mask id="mask0_3845_1778" style="mask-type:luminance" maskUnits="userSpaceOnUse" x="0" y="0" width="137" height="36">
<g id="clipPath18">
<path id="path16" d="M0 3.8147e-06H137V36H0V3.8147e-06Z" fill="white"/>
</g>
</mask>
<g mask="url(#mask0_3845_1778)">
<g id="g14">
<g id="g20">
<path id="path22" d="M56.0435 24.3793C56.0435 24.1014 55.8632 23.8958 55.4946 23.8157V23.6359C55.6987 23.6359 56.3782 23.6633 56.5695 23.6633C56.7348 23.6633 57.3929 23.6359 57.5976 23.6359V23.8157C57.2555 23.8827 57.0759 24.0855 57.0759 24.3793V27.9068C57.0759 29.0238 57.6866 29.6552 58.964 29.6552C60.0647 29.6552 60.9212 29.1588 60.9212 27.9898V24.3655C60.9212 24.1035 60.7573 23.8958 60.3449 23.8157V23.6359C60.495 23.6359 61.0569 23.6633 61.2487 23.6633C61.4126 23.6633 62.0023 23.6359 62.1532 23.6359V23.8157C61.7553 23.911 61.5784 24.0898 61.5784 24.3655V27.7955C61.5784 29.3349 60.6868 30.219 58.7629 30.219C56.9717 30.219 56.0435 29.4012 56.0435 27.955V24.3793Z" fill="#8E98A8" fill-opacity="0.57"/>
</g>
<g id="g24">
<path id="path26" d="M63.7264 29.9423C64.1431 29.8644 64.3077 29.6524 64.3077 29.3925V24.517C64.3077 24.1034 64.0885 23.9174 63.7148 23.8149V23.6351C63.9262 23.651 64.281 23.6603 64.4621 23.6603C64.6266 23.6603 64.8824 23.6575 65.0548 23.6351L69.2649 28.6074V24.3655C69.2649 24.1041 69.0997 23.8963 68.6888 23.8149V23.6351C68.8397 23.6351 69.3814 23.6633 69.5739 23.6633C69.7414 23.6633 70.3218 23.6351 70.4748 23.6351V23.8149C70.0732 23.9101 69.8793 24.0905 69.8793 24.3655V30.2188H69.6257C69.466 30.182 69.1643 30.0095 68.7046 29.503L64.9378 25.0958V29.3925C64.9378 29.6537 65.0878 29.8608 65.4988 29.9423V30.1228C65.348 30.1228 64.8063 30.094 64.6138 30.094C64.4478 30.094 63.8794 30.1228 63.7264 30.1228V29.9423Z" fill="#8E98A8" fill-opacity="0.57"/>
</g>
<g id="g28">
<path id="path30" d="M96.9479 28.6276H97.1261C97.2203 28.9919 97.4278 29.3241 97.7188 29.516C98.0214 29.7303 98.4963 29.8327 98.8798 29.8327C99.7268 29.8327 100.264 29.4114 100.264 28.7445C100.264 28.0539 99.576 27.6952 98.7521 27.2817C98.1391 26.9736 96.9351 26.4649 96.9351 25.2957C96.9351 24.2066 97.762 23.5291 99.0847 23.5291C99.9576 23.5291 100.367 23.7434 100.956 23.7159L100.945 25.0373H100.765C100.529 24.2586 99.8255 23.9873 99.0544 23.9873C98.1923 23.9873 97.8698 24.4826 97.8698 24.9862C97.8698 25.7072 98.5723 26.0707 99.3683 26.4273C100.264 26.8278 101.235 27.3337 101.235 28.4602C101.235 29.5268 100.404 30.2991 98.8863 30.2991C97.9832 30.2991 97.4415 30.04 96.9666 29.9813L96.9479 28.6276Z" fill="#8E98A8" fill-opacity="0.57"/>
</g>
<g id="g32">
<path id="path34" d="M115.041 27.439L113.327 24.6766C113.034 24.1917 112.81 23.936 112.484 23.8149V23.6357C112.719 23.6357 113.353 23.664 113.533 23.664C113.697 23.664 114.381 23.6357 114.628 23.6357V23.8149C114.409 23.8538 114.307 23.9641 114.307 24.1302C114.307 24.2767 114.406 24.4651 114.506 24.6289C114.603 24.7912 115.77 26.734 115.77 26.734L116.987 24.6297C117.11 24.4189 117.197 24.2096 117.197 24.0717C117.197 23.9461 117.108 23.8422 116.901 23.8149V23.6357C117.107 23.6357 117.54 23.664 117.678 23.664C117.816 23.664 118.314 23.6357 118.519 23.6357V23.8026C118.051 23.9953 117.758 24.4081 117.474 24.8865L115.916 27.5026M116.022 27.1727V29.3795C116.022 29.5982 116.188 29.8732 116.563 29.9423V30.1229C116.354 30.1229 115.672 30.094 115.474 30.094C115.308 30.094 114.654 30.1229 114.417 30.1229V29.9423C114.794 29.8732 114.974 29.5982 114.974 29.3795V27.2695" fill="#8E98A8" fill-opacity="0.57"/>
</g>
<g id="g36">
<path id="path38" d="M83.1882 23.6358H87.2079C87.3322 23.6358 87.5499 23.6215 87.6741 23.5674H87.8539L87.8258 24.8792H87.6476C87.4946 24.4665 87.3358 24.136 86.5578 24.136H84.8125V26.4222H86.1576C86.3537 26.4222 86.5915 26.4056 86.6943 26.3811C86.9967 26.3147 87.1298 26.1457 87.1908 25.8868H87.3703C87.3574 26.0844 87.3574 26.5355 87.3574 26.6691C87.3574 26.8033 87.3703 27.2781 87.3703 27.4932H87.1908C87.1044 27.2348 86.9867 27.0385 86.6943 26.9664C86.5915 26.9389 86.3495 26.9165 86.1576 26.9165H84.8125V29.5983H86.7107C87.5399 29.5983 87.7807 29.2511 87.9867 28.7605L88.1642 28.8021L87.9867 30.1497C87.3703 30.0947 87.0004 30.0947 86.3005 30.0947H84.2947C84.1014 30.0947 83.3922 30.123 83.186 30.123V29.9432C83.5481 29.8739 83.7595 29.6941 83.7595 29.3456V24.3858C83.7595 24.0783 83.5948 23.8863 83.1882 23.8178V23.6358Z" fill="#8E98A8" fill-opacity="0.57"/>
</g>
<g id="g40">
<path id="path42" d="M72.9214 24.421C72.9214 24.0884 72.7239 23.9051 72.3366 23.8213V23.6431C72.5522 23.6431 73.25 23.6704 73.4532 23.6704C73.6235 23.6704 74.3406 23.6431 74.559 23.6431V23.8213C74.1738 23.9051 73.9719 24.0709 73.9719 24.421V29.3464C73.9719 29.679 74.1702 29.8601 74.559 29.9423V30.1229C74.3412 30.1229 73.6536 30.0946 73.4532 30.0946C73.2799 30.0946 72.5522 30.1229 72.3359 30.1229V29.9423C72.7319 29.8681 72.9214 29.6942 72.9214 29.3464V24.421Z" fill="#8E98A8" fill-opacity="0.57"/>
</g>
<g id="g44">
<path id="path46" d="M103.415 24.421C103.415 24.0884 103.215 23.9051 102.829 23.8213V23.6431C103.044 23.6431 103.742 23.6704 103.944 23.6704C104.116 23.6704 104.833 23.6431 105.051 23.6431V23.8213C104.666 23.9051 104.465 24.0709 104.465 24.421V29.3464C104.465 29.679 104.663 29.8601 105.051 29.9423V30.1229C104.835 30.1229 104.148 30.0946 103.944 30.0946C103.774 30.0946 103.044 30.1229 102.829 30.1229V29.9423C103.224 29.8681 103.415 29.6942 103.415 29.3464V24.421Z" fill="#8E98A8" fill-opacity="0.57"/>
</g>
<g id="g48">
<path id="path50" d="M109.002 23.6633C106.798 23.6633 106.446 23.6221 105.995 23.594L105.999 24.9306H106.178C106.343 24.3381 106.671 24.2003 107.097 24.2003H108.479V29.3465C108.479 29.6941 108.289 29.8682 107.893 29.9424V30.123C108.11 30.123 108.845 30.0948 109.014 30.0948C109.216 30.0948 109.906 30.123 110.121 30.123V29.9424C109.731 29.8602 109.534 29.6791 109.534 29.3465V24.2003H110.905C111.346 24.2003 111.662 24.3511 111.826 24.9306H112.004L112.006 23.594C111.559 23.6221 111.206 23.6633 109.002 23.6633Z" fill="#8E98A8" fill-opacity="0.57"/>
</g>
<g id="g52">
<path id="path54" d="M91.4188 29.3464C91.4188 29.679 91.6292 29.8595 92.018 29.9424V30.123C91.8024 30.123 91.0976 30.0947 90.8964 30.0947C90.7239 30.0947 90.0358 30.123 89.8188 30.123V29.9424C90.1795 29.8732 90.392 29.6942 90.392 29.3464V24.3707C90.392 24.0647 90.2262 23.872 89.8203 23.8027V23.6237C90.0358 23.6237 90.7174 23.651 90.9101 23.651C91.2256 23.651 92.1221 23.5977 92.4749 23.5977C94.0195 23.5977 94.8796 24.2393 94.8796 25.339C94.8796 26.2035 94.2394 26.7882 93.2536 27.027C93.2536 27.027 93.4786 27.1582 93.7027 27.4203C93.9751 27.7428 94.7106 28.8031 95.0159 29.1738C95.3207 29.5457 95.7108 29.9605 96.1288 29.9793V30.1243C95.9285 30.1683 95.6073 30.2067 95.3616 30.2067C94.8371 30.2067 94.4184 30.0205 94.0117 29.5262C93.6597 29.096 93.0627 28.2034 92.7112 27.7522C92.4865 27.465 92.2141 27.2406 91.7155 27.1582C91.6191 27.1417 91.528 27.128 91.4188 27.1151V29.3464ZM91.4188 26.7022C91.6243 26.7303 91.9267 26.7434 92.2256 26.7434C93.4349 26.7434 93.8156 26.0448 93.8156 25.4264C93.8156 24.5518 93.2342 24.0098 92.176 24.0098C91.9569 24.0098 91.6393 24.0372 91.4188 24.0789V26.7022Z" fill="#8E98A8" fill-opacity="0.57"/>
</g>
<g id="g56">
<path id="path58" d="M76.1074 24.442C75.9667 24.1288 75.7504 23.8993 75.3818 23.8179V23.6352C75.611 23.6352 76.4049 23.6641 76.5794 23.6641C76.7398 23.6641 77.4337 23.6352 77.6695 23.6352V23.8127C77.4602 23.853 77.2218 23.9693 77.2218 24.1844C77.2218 24.338 77.3144 24.5474 77.4919 24.9415L79.1558 28.7444L80.7307 24.935C80.8551 24.6275 80.9449 24.3893 80.9449 24.2074C80.9449 24.0062 80.7602 23.8668 80.4985 23.8127V23.6352C80.7078 23.6352 81.2207 23.6641 81.3802 23.6641C81.526 23.6641 82.1281 23.6352 82.358 23.6352V23.8179C81.965 23.9246 81.7257 24.1419 81.5052 24.6564L79.1874 30.1459H78.6629L76.1074 24.442Z" fill="#8E98A8" fill-opacity="0.57"/>
</g>
<g id="g60">
<path id="path62" d="M82.0499 7.12948C81.782 6.53549 81.371 6.1025 80.6748 5.94738V5.60167C81.108 5.60167 82.5464 5.65365 82.8769 5.65365C83.1815 5.65365 84.5746 5.60167 85.0185 5.60167V5.93871C84.6247 6.01603 84.1722 6.23685 84.1722 6.64451C84.1722 6.93235 84.3504 7.3302 84.6809 8.07555L87.837 15.2827L90.8236 8.06329C91.0564 7.47878 91.2302 7.03206 91.2302 6.68635C91.2302 6.3024 90.8768 6.04202 90.3818 5.93871V5.60167C90.7769 5.60167 91.7375 5.65365 92.0427 5.65365C92.3202 5.65365 93.4611 5.60167 93.8951 5.60167V5.92793C93.1508 6.13077 92.6953 6.56017 92.2806 7.53501L87.8902 17.9407H86.8966L82.0499 7.12948Z" fill="#8E98A8" fill-opacity="0.57"/>
</g>
<g id="g64">
<path id="path66" d="M39.5513 17.5445C40.1246 17.413 40.5276 17.1512 40.5276 16.4988V6.95915C40.5276 6.33279 40.1526 6.0729 39.5513 5.91566V5.57714C39.8523 5.57714 41.1491 5.62847 41.4645 5.62847C41.828 5.62847 43.1873 5.57714 43.4862 5.57714V5.91566C42.9136 6.04626 42.489 6.30746 42.489 6.95915V10.9442H49.5643V6.95915C49.5643 6.30746 49.1871 6.04626 48.5894 5.91566V5.57714C48.8882 5.57714 50.2232 5.62847 50.5859 5.62847C50.8992 5.62847 52.2262 5.57714 52.5221 5.57714V5.91566C51.9489 6.04626 51.5242 6.30746 51.5242 6.95915V16.4988C51.5242 17.1252 51.9229 17.3879 52.5221 17.5445V17.8568C52.2262 17.8568 50.8992 17.831 50.5859 17.831C50.2232 17.831 48.8882 17.8568 48.5894 17.8568V17.5445C49.1585 17.413 49.5643 17.1512 49.5643 16.4988V11.9904H42.489V16.4988C42.489 17.1512 42.8871 17.3879 43.4862 17.5445V17.8568C43.1873 17.8568 41.828 17.831 41.4645 17.831C41.1491 17.831 39.8523 17.8568 39.5513 17.8568V17.5445Z" fill="#8E98A8" fill-opacity="0.57"/>
</g>
<g id="g68">
<path id="path70" d="M121.391 17.5445C122.125 17.413 122.529 17.1201 122.529 16.4469V6.95915C122.529 6.30533 122.131 6.04626 121.421 5.91566V5.57714C121.83 5.57714 123.16 5.62847 123.529 5.62847C124.124 5.62847 125.783 5.49787 127.075 5.49787C131.427 5.49787 134.07 7.93922 134.07 11.6514C134.07 15.2597 131.32 17.9335 126.833 17.9335C125.539 17.9335 124.004 17.831 123.404 17.831C123.039 17.831 121.798 17.8828 121.391 17.8828V17.5445ZM124.489 16.9158C124.933 16.9967 125.752 17.0472 126.397 17.0472C130.054 17.0472 131.957 14.8368 131.957 11.7539C131.957 8.55773 129.949 6.30893 126.53 6.30893C125.832 6.30893 124.959 6.36156 124.489 6.43822V16.9158Z" fill="#8E98A8" fill-opacity="0.57"/>
</g>
<g id="g72">
<path id="path74" d="M72.1254 16.4122C72.1254 17.0445 72.5241 17.3879 73.2577 17.5445V17.883C72.8489 17.883 71.5176 17.831 71.1347 17.831C70.8114 17.831 69.5051 17.883 69.0972 17.883V17.5445C69.7782 17.4132 70.1798 17.0726 70.1798 16.4122V6.99251C70.1798 6.4129 69.868 6.04644 69.0985 5.91567V5.57716C69.5074 5.57716 70.7977 5.62848 71.1598 5.62848C71.7583 5.62848 73.4554 5.52829 74.1248 5.52829C77.0519 5.52829 78.6813 6.74422 78.6813 8.82402C78.6813 10.4636 77.4657 11.5669 75.6 12.0223C75.6 12.0223 76.0231 12.27 76.4489 12.7685C76.9656 13.3783 78.3911 15.4279 78.9673 16.1299C79.5434 16.833 80.2827 17.618 81.0731 17.6541V17.9307C80.6944 18.0128 80.0881 18.0829 79.6246 18.0829C78.6267 18.0829 77.8343 17.7321 77.0634 16.7939C76.3988 15.9799 75.2363 14.2494 74.5702 13.395C74.145 12.8507 73.6321 12.4265 72.6902 12.27C72.5047 12.2381 72.3303 12.2136 72.1254 12.1905V16.4122ZM72.1254 11.409C72.5127 11.4602 73.0852 11.4862 73.6529 11.4862C75.9419 11.4862 76.661 10.1627 76.661 8.99352C76.661 7.33315 75.5603 6.30895 73.5551 6.30895C73.142 6.30895 72.54 6.36174 72.1254 6.43824V11.409Z" fill="#8E98A8" fill-opacity="0.57"/>
</g>
<g id="g76">
<path id="path78" d="M110.703 16.4122C110.703 17.0445 111.103 17.3879 111.838 17.5445V17.883C111.43 17.883 110.1 17.831 109.717 17.831C109.388 17.831 108.086 17.883 107.676 17.883V17.5445C108.356 17.4132 108.758 17.0726 108.758 16.4122V6.99251C108.758 6.4129 108.444 6.04644 107.679 5.91567V5.57716C108.089 5.57716 109.375 5.62848 109.74 5.62848C110.34 5.62848 112.036 5.52829 112.701 5.52829C115.633 5.52829 117.258 6.74422 117.258 8.82402C117.258 10.4636 116.045 11.5669 114.178 12.0223C114.178 12.0223 114.603 12.27 115.025 12.7685C115.547 13.3783 116.972 15.4279 117.546 16.1299C118.125 16.833 118.864 17.618 119.65 17.6541V17.9307C119.277 18.0128 118.667 18.0829 118.208 18.0829C117.208 18.0829 116.412 17.7321 115.643 16.7939C114.979 15.9799 113.82 14.2494 113.148 13.395C112.723 12.8507 112.211 12.4265 111.271 12.27C111.083 12.2381 110.911 12.2136 110.703 12.1905V16.4122ZM110.703 11.409C111.095 11.4602 111.664 11.4862 112.233 11.4862C114.523 11.4862 115.24 10.1627 115.24 8.99352C115.24 7.33315 114.138 6.30895 112.137 6.30895C111.72 6.30895 111.121 6.36174 110.703 6.43824V11.409Z" fill="#8E98A8" fill-opacity="0.57"/>
</g>
<g id="g80">
<path id="path82" d="M54.384 17.5422C55.1584 17.3604 55.5838 16.8567 55.8661 16.1826L59.7846 6.71237C59.9512 6.32057 60.1452 5.51507 60.1452 5.51507H61.2417C61.2417 5.51507 61.4378 6.32269 61.6008 6.71531L65.742 16.2086C66.0373 16.8624 66.3569 17.3344 67.1803 17.5422L67.1782 17.8577C66.7299 17.8577 65.3361 17.8317 65.0191 17.8317C64.7037 17.8317 63.3725 17.8577 62.925 17.8577L62.9264 17.5422C63.5292 17.3936 63.7196 17.0855 63.7196 16.7874C63.7196 16.5342 63.6154 16.2483 63.489 15.9518L62.5987 13.9122H58.0358L57.2205 15.9632C57.1292 16.1957 57.0207 16.524 57.0207 16.7455C57.0207 17.0876 57.1988 17.3604 57.8828 17.5422L57.8813 17.8577C57.4761 17.8577 56.4063 17.8317 56.1557 17.8317L54.3833 17.8577L54.384 17.5422ZM62.1857 12.9452L60.2372 8.38516L58.4224 12.9452H62.1857Z" fill="#8E98A8" fill-opacity="0.57"/>
</g>
<g id="g84">
<path id="path86" d="M93.2041 17.5422C93.978 17.3604 94.4047 16.8567 94.6856 16.1826L98.6054 6.71237C98.7722 6.32057 98.9683 5.51507 98.9683 5.51507H100.065C100.065 5.51507 100.259 6.32269 100.421 6.71531L104.564 16.2086C104.857 16.8624 105.179 17.3344 105.999 17.5422L105.998 17.8577C105.551 17.8577 104.156 17.8317 103.836 17.8317C103.524 17.8317 102.193 17.8577 101.745 17.8577V17.5422C102.352 17.3936 102.539 17.0855 102.539 16.7874C102.539 16.5342 102.436 16.2483 102.312 15.9518L101.418 13.9122H96.8553L96.0392 15.9632C95.9479 16.1957 95.8401 16.524 95.8401 16.7455C95.8401 17.0876 96.0183 17.3604 96.7023 17.5422V17.8577C96.2956 17.8577 95.2275 17.8317 94.9752 17.8317L93.2026 17.8577L93.2041 17.5422ZM101.006 12.9452L99.056 8.38516L97.2425 12.9452H101.006Z" fill="#8E98A8" fill-opacity="0.57"/>
</g>
<g id="g88">
<path id="path90" d="M3.37451 1.74812H30.6959V12.1147C30.6959 16.8645 28.9357 26.9374 17.1372 34.4341C17.1372 34.4341 4.353 29.0713 3.37451 12.1147L3.37451 1.74812Z" fill="#8E98A8" fill-opacity="0.56"/>
</g>
<g id="g92">
<path id="path94" d="M3.31836 1.72037H30.6663V12.0942C30.6663 16.8456 28.9039 26.924 17.0947 34.4258C17.0947 34.4258 4.29831 29.0596 3.31836 12.0942L3.31836 1.72037Z" stroke="#8E98A8" stroke-opacity="0.56" stroke-width="0.306667"/>
</g>
<g id="g96">
<path id="path98" d="M24.0537 15.0692C24.0537 15.0692 23.8101 15.8492 22.7268 15.0475L19.0073 14.9573C19.0073 14.9573 18.5202 15.1147 18.454 14.6029C18.454 14.6029 18.5432 13.5805 18.4979 13.4909C18.4979 13.4909 18.5202 13.2023 18.0316 13.2023C18.0316 13.2023 17.2801 13.291 17.2578 12.6228C17.2578 12.6228 17.1265 11.9113 18.166 11.935C18.166 11.935 18.4979 12.0901 18.5202 11.6666C18.5202 11.6666 18.4765 8.77493 18.4979 8.5541C18.4979 8.5541 18.587 8.28849 18.0768 8.24305C18.0768 8.24305 17.347 8.39817 17.2578 7.91042C17.2578 7.91042 17.214 7.17651 17.7019 7.13107C17.7019 7.13107 18.2989 7.17651 18.4094 7.01992C18.4094 7.01992 18.5432 7.10786 18.5202 6.5768L18.5432 5.66309C18.5432 5.66309 18.6071 5.41921 18.9843 5.44308C18.9843 5.44308 19.6711 5.48705 19.7609 5.41921C19.7609 5.41921 19.914 5.22013 19.9592 5.12974C19.9592 5.12974 20.3142 5.10816 20.3796 5.19757C20.3796 5.19757 20.9112 5.55341 22.9256 5.41921C22.9256 5.41921 23.2361 5.41921 23.3007 5.50879C23.3007 5.50879 23.6786 5.79728 23.8992 5.48705C23.8992 5.48705 24.2312 5.41921 25.227 5.44308C25.227 5.44308 26.3132 5.73092 27.064 5.10816L27.3083 5.15295C27.3083 5.15295 27.6179 5.66309 27.8392 5.50879C27.8392 5.50879 28.5038 5.44308 28.6137 5.5758C28.6137 5.5758 28.8343 5.90712 28.7243 6.77736C28.7243 6.77736 28.593 7.15412 29.2345 7.15412C29.2345 7.15412 29.9659 7.01992 29.876 7.70904C29.876 7.70904 30.075 8.48774 28.8587 8.37725C28.8587 8.37725 28.7028 8.59954 28.7243 8.75548C28.7243 8.75548 28.7028 11.2892 28.6806 11.58C28.6806 11.58 28.6589 11.9806 29.1892 11.9574C29.1892 11.9574 29.8984 11.9113 29.922 12.5571C29.922 12.5571 30.0097 13.4022 28.9902 13.2456C28.9902 13.2456 28.6806 13.291 28.6345 13.4909L28.593 14.6029C28.593 14.6029 28.6137 15.1586 27.9951 15.0244C27.9068 15.0244 24.5422 15.0931 24.2535 15.0043C24.2535 15.0043 24.0968 14.9819 24.0537 15.0692Z" fill="white"/>
</g>
<g id="g100">
<path id="path102" d="M16.9028 18.7856C16.9028 18.7856 17.058 18.7199 17.1018 18.6102C17.1018 18.6102 17.5674 18.5646 17.6326 18.4984L19.0947 18.6102C19.0947 18.6102 20.5331 18.7199 21.1531 18.2732C21.1531 18.2732 21.3759 18.2732 21.531 18.341C21.531 18.341 21.8392 18.4089 21.9275 18.5403L22.7697 18.5179C22.7697 18.5179 23.2567 18.6751 23.2115 18.9868V19.386C23.2115 19.386 23.1224 20.1871 23.3438 20.2325H23.9874C23.9874 20.2325 24.5192 20.4766 24.4523 20.7875C24.4523 20.7875 24.4746 21.2306 24.0105 21.3208C24.0105 21.3208 23.5434 21.4535 23.3903 21.4326C23.3903 21.4326 23.2344 21.6319 23.2115 21.8764L23.1469 24.7898C23.1469 24.7898 23.1016 25.1008 23.5672 25.0567C23.5672 25.0567 24.2518 24.9897 24.4523 25.3692C24.4523 25.3692 24.6296 26.0129 24.2755 26.1241L24.0105 26.2561L23.4334 26.3487C23.4334 26.3487 23.1914 26.3688 23.1683 26.791V27.568C23.1683 27.568 23.1914 28.1037 22.7697 28.1037L22.1497 28.1483C22.1497 28.1483 21.9951 28.2797 21.6856 28.191C21.6856 28.191 17.9215 28.2594 17.7885 28.2142L17.3454 28.3042C17.3454 28.3042 16.8588 28.7488 16.4602 28.4139L16.1505 28.1692C16.1505 28.1692 15.9285 28.2142 15.8416 28.191C15.7526 28.1692 11.6789 28.2364 11.6789 28.2364C11.6789 28.2364 10.8152 28.3266 10.7498 28.0358C10.7498 28.0358 10.6393 26.9028 10.6831 26.7671C10.6831 26.7671 10.6831 26.4351 10.4841 26.4135C10.4841 26.4135 9.62049 26.3688 9.5982 26.2785C9.5982 26.2785 9.13263 25.9467 9.26558 25.6138C9.26558 25.6138 9.42147 25.1672 9.88558 25.1231C9.88558 25.1231 10.5939 25.2357 10.5939 25.0351C10.5939 25.0351 10.6393 24.9016 10.6393 24.6801C10.6393 24.6801 10.6831 22.0323 10.6608 21.8548C10.6608 21.8548 10.7269 21.5214 10.4389 21.5214C10.4389 21.5214 10.1292 21.6095 9.93081 21.4767C9.93081 21.4767 9.39918 21.4991 9.28852 21.0761C9.28852 21.0761 9.19951 20.8098 9.33165 20.5854C9.33165 20.5854 9.57606 20.0969 10.2844 20.2533C10.2844 20.2533 10.6831 20.3652 10.7269 20.0772L10.7061 19.0078C10.7061 19.0078 10.6162 18.7199 11.1702 18.5646C11.1702 18.5646 11.8785 18.7639 12.0992 18.4089C12.0992 18.4089 12.3434 17.918 12.5403 18.2516C12.5403 18.2516 12.9628 18.6529 14.1138 18.6102C14.1138 18.6102 16.1067 18.453 16.1505 18.5403C16.1505 18.5403 16.6377 18.6102 16.7698 18.7639L16.9028 18.7856Z" fill="white"/>
</g>
<g id="g104">
<path id="path106" d="M10.8845 15.0692C10.8845 15.0692 10.6402 15.8492 9.55547 15.0468L5.83662 14.9572C5.83662 14.9572 5.34958 15.1146 5.28269 14.6023C5.28269 14.6023 5.37187 13.5804 5.32582 13.4909C5.32582 13.4909 5.34957 13.2007 4.86171 13.2007C4.86171 13.2007 4.11023 13.2916 4.08859 12.6242C4.08859 12.6242 3.95499 11.9104 4.99531 11.9349C4.99531 11.9349 5.32582 12.0901 5.34957 11.6674C5.34957 11.6674 5.30499 8.777 5.32582 8.55339C5.32582 8.55339 5.41629 8.28925 4.90695 8.24365C4.90695 8.24365 4.17548 8.39811 4.08859 7.90889C4.08859 7.90889 4.04335 7.17646 4.52975 7.13101C4.52975 7.13101 5.12761 7.17646 5.23892 7.02264C5.23892 7.02264 5.37187 7.10862 5.34957 6.57445L5.37187 5.66385C5.37187 5.66385 5.43859 5.41916 5.81286 5.44155C5.81286 5.44155 6.50121 5.48552 6.59022 5.41916C6.59022 5.41916 6.74481 5.22007 6.78712 5.12968C6.78712 5.12968 7.1435 5.10876 7.20957 5.19539C7.20957 5.19539 7.73974 5.55335 9.75644 5.41916C9.75644 5.41916 10.0647 5.41916 10.1315 5.50873C10.1315 5.50873 10.5073 5.79723 10.7286 5.48552C10.7286 5.48552 11.0606 5.41916 12.0576 5.44155C12.0576 5.44155 13.1404 5.73021 13.8942 5.10876L14.1369 5.15436C14.1369 5.15436 14.4466 5.66385 14.67 5.50873C14.67 5.50873 15.3332 5.44155 15.4445 5.57575C15.4445 5.57575 15.6664 5.90919 15.5537 6.7773C15.5537 6.7773 15.4222 7.15472 16.0638 7.15472C16.0638 7.15472 16.7937 7.02264 16.7061 7.70899C16.7061 7.70899 16.9058 8.48769 15.6881 8.37719C15.6881 8.37719 15.5322 8.60014 15.5537 8.75542C15.5537 8.75542 15.5322 11.2891 15.5105 11.5799C15.5105 11.5799 15.4891 11.9776 16.02 11.9573C16.02 11.9573 16.7284 11.9104 16.7499 12.5579C16.7499 12.5579 16.8382 13.4021 15.8209 13.2455C15.8209 13.2455 15.5105 13.2916 15.4653 13.4909L15.4222 14.6023C15.4222 14.6023 15.4445 15.1586 14.823 15.0259C14.7346 15.0259 11.3717 15.0916 11.0827 15.0043C11.0827 15.0043 10.9283 14.9819 10.8845 15.0692Z" fill="white"/>
</g>
<g id="g108">
<path id="path110" d="M24.0537 15.0692C24.0537 15.0692 23.8101 15.8492 22.7268 15.0475L19.0073 14.9573C19.0073 14.9573 18.5202 15.1147 18.454 14.6029C18.454 14.6029 18.5432 13.5805 18.4979 13.4909C18.4979 13.4909 18.5202 13.2023 18.0316 13.2023C18.0316 13.2023 17.2801 13.291 17.2578 12.6228C17.2578 12.6228 17.1265 11.9113 18.166 11.935C18.166 11.935 18.4979 12.0901 18.5202 11.6666C18.5202 11.6666 18.4765 8.77493 18.4979 8.5541C18.4979 8.5541 18.587 8.28849 18.0768 8.24305C18.0768 8.24305 17.347 8.39817 17.2578 7.91042C17.2578 7.91042 17.214 7.17651 17.7019 7.13107C17.7019 7.13107 18.2989 7.17651 18.4094 7.01992C18.4094 7.01992 18.5432 7.10786 18.5202 6.5768L18.5432 5.66309C18.5432 5.66309 18.6071 5.41921 18.9843 5.44308C18.9843 5.44308 19.6711 5.48705 19.7609 5.41921C19.7609 5.41921 19.914 5.22013 19.9592 5.12974C19.9592 5.12974 20.3142 5.10816 20.3796 5.19757C20.3796 5.19757 20.9112 5.55341 22.9256 5.41921C22.9256 5.41921 23.2361 5.41921 23.3007 5.50879C23.3007 5.50879 23.6786 5.79728 23.8992 5.48705C23.8992 5.48705 24.2312 5.41921 25.227 5.44308C25.227 5.44308 26.3132 5.73092 27.064 5.10816L27.3083 5.15295C27.3083 5.15295 27.6179 5.66309 27.8392 5.50879C27.8392 5.50879 28.5038 5.44308 28.6137 5.5758C28.6137 5.5758 28.8343 5.90712 28.7243 6.77736C28.7243 6.77736 28.593 7.15412 29.2345 7.15412C29.2345 7.15412 29.9659 7.01992 29.876 7.70904C29.876 7.70904 30.075 8.48774 28.8587 8.37725C28.8587 8.37725 28.7028 8.59954 28.7243 8.75548C28.7243 8.75548 28.7028 11.2892 28.6806 11.58C28.6806 11.58 28.6589 11.9806 29.1892 11.9574C29.1892 11.9574 29.8984 11.9113 29.922 12.5571C29.922 12.5571 30.0097 13.4022 28.9902 13.2456C28.9902 13.2456 28.6806 13.291 28.6345 13.4909L28.593 14.6029C28.593 14.6029 28.6137 15.1586 27.9951 15.0244C27.9068 15.0244 24.5422 15.0931 24.2535 15.0043C24.2535 15.0043 24.0968 14.9819 24.0537 15.0692Z" fill="#8E98A8" fill-opacity="0.56"/>
</g>
<g id="g112">
<path id="path114" d="M24.0534 15.0698C24.0534 15.0698 23.8098 15.85 22.7265 15.0483L19.0062 14.958C19.0062 14.958 18.5191 15.1153 18.453 14.603C18.453 14.603 18.5429 13.5804 18.4968 13.4909C18.4968 13.4909 18.5191 13.2022 18.0313 13.2022C18.0313 13.2022 17.2791 13.2918 17.2568 12.6234C17.2568 12.6234 17.1253 11.9119 18.1649 11.935C18.1649 11.935 18.4968 12.0902 18.5191 11.6674C18.5191 11.6674 18.4753 8.77554 18.4968 8.55406C18.4968 8.55406 18.5866 8.2878 18.0765 8.24301C18.0765 8.24301 17.3458 8.39829 17.2568 7.91038C17.2568 7.91038 17.2137 7.17565 17.7007 7.13103C17.7007 7.13103 18.2978 7.17565 18.4086 7.01988C18.4086 7.01988 18.5429 7.10782 18.5191 6.57594L18.5429 5.66239C18.5429 5.66239 18.606 5.41852 18.9847 5.44238C18.9847 5.44238 19.6707 5.48635 19.7599 5.41852C19.7599 5.41852 19.9131 5.22009 19.9589 5.1297C19.9589 5.1297 20.3132 5.10747 20.3793 5.19704C20.3793 5.19704 20.9103 5.55271 22.9253 5.41852C22.9253 5.41852 23.2358 5.41852 23.3004 5.50793C23.3004 5.50793 23.6783 5.79659 23.8989 5.48635C23.8989 5.48635 24.2309 5.41852 25.2266 5.44238C25.2266 5.44238 26.3129 5.73023 27.0643 5.10747L27.3088 5.15143C27.3088 5.15143 27.6183 5.66239 27.8389 5.50793C27.8389 5.50793 28.5035 5.44238 28.6134 5.57429C28.6134 5.57429 28.8347 5.90708 28.7248 6.77584C28.7248 6.77584 28.5927 7.15408 29.2348 7.15408C29.2348 7.15408 29.9656 7.01988 29.8757 7.70835C29.8757 7.70835 30.0747 8.4877 28.8584 8.37655C28.8584 8.37655 28.7032 8.59885 28.7248 8.75544C28.7248 8.75544 28.7032 11.2891 28.6809 11.5793C28.6809 11.5793 28.6586 11.9797 29.1896 11.9582C29.1896 11.9582 29.8994 11.9119 29.9224 12.5571C29.9224 12.5571 30.0094 13.4021 28.9906 13.2455C28.9906 13.2455 28.6809 13.2918 28.635 13.4909L28.5927 14.603C28.5927 14.603 28.6134 15.1594 27.9956 15.0252C27.9073 15.0252 24.5419 15.0931 24.2532 15.0043C24.2532 15.0043 24.0965 14.9826 24.0534 15.0698Z" stroke="#8E98A8" stroke-opacity="0.56" stroke-width="0.0133333"/>
</g>
<g id="g116">
<path id="path118" d="M19.8699 5.90769C19.8699 5.90769 19.9136 6.35294 19.9136 6.46556C19.9136 6.57589 19.8484 12.8905 19.8484 12.8905C19.8484 12.8905 19.9136 13.3797 19.4948 13.625C19.4948 13.625 19.3826 13.6683 19.3618 13.3573L19.4051 6.68851C19.4051 6.68851 19.4495 5.86355 19.8699 5.90769Z" fill="white"/>
</g>
<g id="g120">
<path id="path122" d="M19.871 5.90705C19.871 5.90705 19.9141 6.3523 19.9141 6.46492C19.9141 6.57591 19.8495 12.8913 19.8495 12.8913C19.8495 12.8913 19.9141 13.3805 19.4953 13.625C19.4953 13.625 19.3831 13.6692 19.3608 13.3581L19.4054 6.68788C19.4054 6.68788 19.4492 5.86292 19.871 5.90705Z" stroke="#8E98A8" stroke-opacity="0.56" stroke-width="0.016"/>
</g>
<g id="g124">
<path id="path126" d="M19.1402 13.6908C19.1402 13.6908 19.1841 7.42033 19.1633 7.30918C19.1402 7.1995 19.1841 7.40006 19.1841 7.40006C19.1841 7.40006 19.1179 6.30884 19.4061 5.86293C19.4061 5.86293 19.3162 5.48699 18.8075 5.95316L18.7852 6.86377C18.7852 6.86377 18.7852 7.37619 18.3211 7.3538C18.3211 7.3538 17.7895 7.33075 17.5459 7.57545C17.5459 7.57545 17.4131 8.06532 17.9216 7.97738C17.9216 7.97738 18.7192 7.97738 18.7638 8.30854L18.7192 11.6672C18.7192 11.6672 18.8966 12.2257 18.2774 12.2257C18.2774 12.2257 17.5223 12.1782 17.5459 12.6451C17.5459 12.6451 17.7018 13.0448 18.3434 12.9127C18.3434 12.9127 18.8075 13 18.7852 13.4467V14.2911C18.7852 14.2911 18.7407 14.6267 19.1841 14.6476H22.6375C22.6375 14.6476 22.8136 14.6692 22.8136 14.4469C22.8136 14.4469 22.7921 14.2696 22.5269 14.2696L19.6495 14.2248C19.6495 14.2248 19.1841 14.3814 19.1402 13.6908Z" fill="white"/>
</g>
<g id="g128">
<path id="path130" d="M19.8048 13.6806C19.8048 13.6806 19.7158 13.9917 20.0476 13.9266H22.3281L22.9466 14.0616C22.9466 14.0616 23.5882 13.9044 22.9466 13.5492C22.9466 13.5492 20.9105 13.5695 20.7338 13.5262C20.7338 13.5262 20.3128 13.4157 20.2222 13.3934C20.2222 13.3934 20.0032 13.3047 19.8048 13.6806Z" fill="white"/>
</g>
<g id="g132">
<path id="path134" d="M19.8038 13.6807C19.8038 13.6807 19.7148 13.9924 20.0466 13.9275H22.3278L22.9464 14.0624C22.9464 14.0624 23.5886 13.9045 22.9464 13.5486C22.9464 13.5486 20.9102 13.5687 20.7327 13.5262C20.7327 13.5262 20.3119 13.4151 20.222 13.3927C20.222 13.3927 20.0022 13.3039 19.8038 13.6807Z" stroke="#8E98A8" stroke-opacity="0.56" stroke-width="0.016"/>
</g>
<g id="g136">
<path id="path138" d="M23.5889 13.9924C23.5889 13.9924 23.1686 13.9924 23.1903 14.5495C23.1903 14.5495 23.2347 14.9702 23.6773 14.9702C23.6773 14.9702 24.0745 14.9047 24.0322 14.4601C24.0322 14.4601 23.788 13.9043 23.5889 13.9924Z" fill="white"/>
</g>
<g id="g140">
<path id="path142" d="M23.8993 13.7708C23.8993 13.7708 24.0983 13.5494 24.2319 13.5494C24.2319 13.5494 26.4455 13.7484 26.8191 13.4822C26.8191 13.4822 27.1532 13.4158 27.2422 13.4822C27.2422 13.4822 27.5735 13.7484 27.5735 13.9044C27.5735 13.9044 27.5519 14.1056 27.1532 13.9917C27.1532 13.9917 24.6516 14.0162 24.5186 14.0162C24.5186 14.0162 23.8311 14.1706 23.8993 13.7708Z" fill="white"/>
</g>
<g id="g144">
<path id="path146" d="M23.8983 13.7709C23.8983 13.7709 24.0973 13.5486 24.2309 13.5486C24.2309 13.5486 26.4452 13.7478 26.8196 13.4814C26.8196 13.4814 27.1535 13.415 27.2427 13.4814C27.2427 13.4814 27.5739 13.7478 27.5739 13.905C27.5739 13.905 27.5524 14.1064 27.1535 13.9923C27.1535 13.9923 24.6506 14.0168 24.5177 14.0168C24.5177 14.0168 23.8301 14.1713 23.8983 13.7709Z" stroke="#8E98A8" stroke-opacity="0.56" stroke-width="0.016"/>
</g>
<g id="g148">
<path id="path150" d="M24.1865 14.4918C24.1865 14.4918 24.1865 14.312 24.4968 14.312L27.5949 14.2904C27.5949 14.2904 27.8837 14.4463 27.8837 13.9136C27.8837 13.9136 27.9972 11.4898 28.0072 8.82105C28.0108 8.0265 28.0468 7.19305 28.0188 6.42072C28.0188 6.42072 27.9498 6.08662 27.8608 6.01879C27.8608 6.01879 27.8608 5.66377 28.2378 5.79731C28.2378 5.79731 28.5698 5.8197 28.4814 6.33278L28.5044 7.10772C28.5044 7.10772 28.4377 7.44329 29.0339 7.35323C29.0339 7.35323 29.631 7.44329 29.6547 7.66412C29.6547 7.66412 29.8314 8.11084 29.1244 8.0654H28.6129C28.6129 8.0654 28.3924 8.19829 28.4585 8.46603L28.3924 11.691C28.3924 11.691 28.3478 12.2459 28.8795 12.225C28.8795 12.225 29.4319 12.2019 29.5432 12.3803C29.5432 12.3803 29.9219 12.9358 29.1014 12.8912C29.1014 12.8912 28.5921 12.868 28.4814 12.9582C28.4814 12.9582 28.3924 13.0686 28.3262 14.115C28.3262 14.115 28.3714 14.7378 27.9059 14.6693C27.9059 14.6693 24.8282 14.7133 24.5408 14.6477C24.5408 14.6477 24.2311 14.7378 24.1865 14.4918Z" fill="white"/>
</g>
<g id="g152">
<path id="path154" d="M20.2027 5.70565L20.1359 12.8457C20.1359 12.8457 20.1144 13.177 20.6677 13.244C20.6677 13.244 21.3091 13.3104 21.4629 13.244C21.4629 13.244 21.8862 13.221 22.9688 13.2664C22.9688 13.2664 23.236 13.5356 23.2583 13.1994C23.2583 13.1994 23.4336 7.42029 23.3475 6.21661C23.3475 6.21661 23.3231 5.70565 22.948 5.68326C22.948 5.68326 21.2654 5.81974 21.1103 5.68326L20.4457 5.50722C20.4457 5.50722 20.1798 5.52879 20.2027 5.70565Z" fill="white"/>
</g>
<g id="g156">
<path id="path158" d="M23.6995 6.06293C23.6995 6.06293 23.6334 9.42077 23.6556 9.53192L23.6118 12.3551L23.522 13.3344C23.522 13.3344 23.6556 13.5341 23.7664 13.4014C23.7664 13.4014 24.4748 13.2209 24.9172 13.291C24.9172 13.291 26.3356 13.4231 26.6221 13.1993C26.6221 13.1993 26.8441 13.3105 26.9089 12.9547C26.9089 12.9547 26.9964 6.73048 26.9556 6.61933C26.9556 6.61933 27.041 5.72736 26.9964 5.64073C26.9964 5.64073 26.977 5.44082 26.5998 5.61768C26.5998 5.61768 26.643 5.79666 24.5415 5.72736C24.5415 5.72736 23.7447 5.70562 23.6995 6.06293Z" fill="white"/>
</g>
<g id="g160">
<path id="path162" d="M27.2207 5.97491L27.1992 13.0002C27.1992 13.0002 27.3759 13.6251 27.6633 13.5595C27.6633 13.5595 27.7064 13.4245 27.7279 13.2022L27.8178 6.50826C27.8178 6.50826 27.595 5.44302 27.2207 5.97491Z" fill="white"/>
</g>
<g id="g164">
<path id="path166" d="M27.2197 5.97415L27.1982 13.0009C27.1982 13.0009 27.3756 13.6259 27.663 13.5602C27.663 13.5602 27.7069 13.4252 27.7284 13.2029L27.8174 6.5075C27.8174 6.5075 27.5948 5.44226 27.2197 5.97415Z" stroke="#8E98A8" stroke-opacity="0.56" stroke-width="0.016"/>
</g>
<g id="g168">
<path id="path170" d="M24.5017 8.07845C24.4356 7.90094 24.8781 7.87855 24.8781 7.87855L25.1002 7.92251C25.2554 7.90094 25.4105 7.96795 25.4105 7.96795C25.5651 8.21199 25.2992 8.34472 25.2992 8.34472L25.2108 8.63485C25.1879 8.88019 25.2108 10.9925 25.2108 10.9925C25.2554 11.1022 25.4322 11.3014 25.4322 11.3014C25.4322 11.5027 25.1879 11.4587 25.1879 11.4587L24.5469 11.4811C24.3472 11.4587 24.4133 11.2356 24.4133 11.2356C24.6346 11.1246 24.7015 10.7233 24.7015 10.7233V8.52305L24.5017 8.07845Z" fill="#8E98A8" fill-opacity="0.56"/>
</g>
<g id="g172">
<path id="path174" d="M21.5141 10.1468L21.4703 10.8359L21.6678 11.1687C21.8022 11.3462 21.5801 11.4812 21.5801 11.4812L20.8718 11.4147C20.7403 11.3462 20.8718 11.1245 20.8718 11.1245C21.0493 11.015 21.0714 10.7241 21.0714 10.7241L21.0493 9.43459L21.0714 8.50078C21.0714 8.38881 20.8947 8.19038 20.8947 8.19038C20.7403 8.16798 20.7841 7.96808 20.7841 7.96808C20.828 7.85627 21.2029 7.92264 21.2029 7.92264H22.1341C23.0199 8.21211 22.887 8.85711 22.887 8.85711C22.9539 9.50095 22.2677 9.76934 22.2677 9.76934L22.2218 10.1252L22.8647 11.1463C22.9754 11.2357 22.9539 11.3259 22.9539 11.3259C22.8647 11.5706 22.5098 11.3259 22.5098 11.3259L21.7139 10.0797C21.647 9.99017 21.5141 10.1468 21.5141 10.1468ZM21.5363 8.38881C21.5578 8.8795 21.5578 9.54639 21.5578 9.54639C21.9796 9.88049 22.2218 9.4122 22.2218 9.4122C22.7742 8.8795 22.2218 8.38881 22.1341 8.25674C22.0442 8.12254 21.6018 8.23369 21.6018 8.23369L21.5363 8.38881Z" fill="#8E98A8" fill-opacity="0.56"/>
</g>
<g id="g176">
<path id="path178" d="M16.9028 18.7856C16.9028 18.7856 17.058 18.7199 17.1018 18.6102C17.1018 18.6102 17.5674 18.5646 17.6326 18.4984L19.0947 18.6102C19.0947 18.6102 20.5331 18.7199 21.1531 18.2732C21.1531 18.2732 21.3759 18.2732 21.531 18.341C21.531 18.341 21.8392 18.4089 21.9275 18.5403L22.7697 18.5179C22.7697 18.5179 23.2567 18.6751 23.2115 18.9868V19.386C23.2115 19.386 23.1224 20.1871 23.3438 20.2325H23.9874C23.9874 20.2325 24.5192 20.4766 24.4523 20.7875C24.4523 20.7875 24.4746 21.2306 24.0105 21.3208C24.0105 21.3208 23.5434 21.4535 23.3903 21.4326C23.3903 21.4326 23.2344 21.6319 23.2115 21.8764L23.1469 24.7898C23.1469 24.7898 23.1016 25.1008 23.5672 25.0567C23.5672 25.0567 24.2518 24.9897 24.4523 25.3692C24.4523 25.3692 24.6296 26.0129 24.2755 26.1241L24.0105 26.2561L23.4334 26.3487C23.4334 26.3487 23.1914 26.3688 23.1683 26.791V27.568C23.1683 27.568 23.1914 28.1037 22.7697 28.1037L22.1497 28.1483C22.1497 28.1483 21.9951 28.2797 21.6856 28.191C21.6856 28.191 17.9215 28.2594 17.7885 28.2142L17.3454 28.3042C17.3454 28.3042 16.8588 28.7488 16.4602 28.4139L16.1505 28.1692C16.1505 28.1692 15.9285 28.2142 15.8416 28.191C15.7526 28.1692 11.6789 28.2364 11.6789 28.2364C11.6789 28.2364 10.8152 28.3266 10.7498 28.0358C10.7498 28.0358 10.6393 26.9028 10.6831 26.7671C10.6831 26.7671 10.6831 26.4351 10.4841 26.4135C10.4841 26.4135 9.62049 26.3688 9.5982 26.2785C9.5982 26.2785 9.13263 25.9467 9.26558 25.6138C9.26558 25.6138 9.42147 25.1672 9.88558 25.1231C9.88558 25.1231 10.5939 25.2357 10.5939 25.0351C10.5939 25.0351 10.6393 24.9016 10.6393 24.6801C10.6393 24.6801 10.6831 22.0323 10.6608 21.8548C10.6608 21.8548 10.7269 21.5214 10.4389 21.5214C10.4389 21.5214 10.1292 21.6095 9.93081 21.4767C9.93081 21.4767 9.39918 21.4991 9.28852 21.0761C9.28852 21.0761 9.19951 20.8098 9.33165 20.5854C9.33165 20.5854 9.57606 20.0969 10.2844 20.2533C10.2844 20.2533 10.6831 20.3652 10.7269 20.0772L10.7061 19.0078C10.7061 19.0078 10.6162 18.7199 11.1702 18.5646C11.1702 18.5646 11.8785 18.7639 12.0992 18.4089C12.0992 18.4089 12.3434 17.918 12.5403 18.2516C12.5403 18.2516 12.9628 18.6529 14.1138 18.6102C14.1138 18.6102 16.1067 18.453 16.1505 18.5403C16.1505 18.5403 16.6377 18.6102 16.7698 18.7639L16.9028 18.7856Z" fill="#8E98A8" fill-opacity="0.56"/>
</g>
<g id="g180">
<path id="path182" d="M16.9031 18.7582C16.9031 18.7582 17.0567 18.6934 17.1021 18.5822C17.1021 18.5822 17.5669 18.5368 17.6329 18.4702L19.0944 18.5822C19.0944 18.5822 20.5334 18.6934 21.1534 18.2466C21.1534 18.2466 21.3762 18.2466 21.5313 18.3145C21.5313 18.3145 21.8403 18.3815 21.9272 18.5129L22.7706 18.4912C22.7706 18.4912 23.257 18.6486 23.2118 18.9595V19.3594C23.2118 19.3594 23.1234 20.1604 23.3447 20.2045H23.9877C23.9877 20.2045 24.5186 20.4498 24.4532 20.7609C24.4532 20.7609 24.4755 21.204 24.0108 21.2942C24.0108 21.2942 23.5445 21.427 23.3914 21.4052C23.3914 21.4052 23.2355 21.6051 23.2118 21.8498L23.1463 24.7639C23.1463 24.7639 23.1019 25.0735 23.5667 25.0301C23.5667 25.0301 24.2521 24.9646 24.4532 25.3419C24.4532 25.3419 24.6308 25.9864 24.2765 26.0982L24.0108 26.231L23.4337 26.3213C23.4337 26.3213 23.1909 26.3429 23.1695 26.7636V27.5437C23.1695 27.5437 23.1909 28.0769 22.7706 28.0769L22.1506 28.1217C22.1506 28.1217 21.9954 28.2546 21.6859 28.1659C21.6859 28.1659 17.9218 28.2329 17.7888 28.1868L17.3449 28.2768C17.3449 28.2768 16.8591 28.7221 16.4605 28.3865L16.1501 28.1418C16.1501 28.1418 15.9288 28.1868 15.8413 28.1659C15.7521 28.1418 11.6792 28.2105 11.6792 28.2105C11.6792 28.2105 10.8149 28.3001 10.7488 28.0099C10.7488 28.0099 10.6388 26.8754 10.6826 26.7412C10.6826 26.7412 10.6826 26.4092 10.4829 26.3868C10.4829 26.3868 9.62014 26.3429 9.59719 26.2533C9.59719 26.2533 9.13228 25.9193 9.26506 25.5865C9.26506 25.5865 9.42096 25.1406 9.88588 25.0957C9.88588 25.0957 10.5936 25.2099 10.5936 25.0069C10.5936 25.0069 10.6388 24.8742 10.6388 24.6534C10.6388 24.6534 10.6826 22.0058 10.6611 21.8281C10.6611 21.8281 10.7272 21.4933 10.4383 21.4933C10.4383 21.4933 10.1288 21.5821 9.92965 21.45C9.92965 21.45 9.39883 21.4717 9.28817 21.0495C9.28817 21.0495 9.19835 20.7833 9.33195 20.5595C9.33195 20.5595 9.5749 20.0701 10.2839 20.2261C10.2839 20.2261 10.6826 20.3387 10.7272 20.05L10.7049 18.9812C10.7049 18.9812 10.6159 18.6934 11.1698 18.5368C11.1698 18.5368 11.8782 18.7373 12.0995 18.3815C12.0995 18.3815 12.3423 17.8916 12.5406 18.2236C12.5406 18.2236 12.9631 18.6249 14.1133 18.5822C14.1133 18.5822 16.107 18.4248 16.1501 18.5129C16.1501 18.5129 16.638 18.5822 16.7701 18.7373L16.9031 18.7582Z" stroke="#8E98A8" stroke-opacity="0.56" stroke-width="0.0133333"/>
</g>
<g id="g184">
<path id="path186" d="M17.4785 27.5249C17.4785 27.5249 17.745 27.3899 17.9226 27.4361C18.0999 27.4803 20.6893 27.4144 20.6893 27.4144C20.6893 27.4144 21.818 27.5025 21.9962 27.3451L22.2598 27.2572C22.2598 27.2572 22.3711 27.1244 22.3711 26.9476C22.3711 26.7679 22.3934 26.1674 22.3934 26.1674L22.4609 25.9467C22.4609 25.9467 22.438 25.7243 22.4609 19.7858C22.4609 19.7858 22.5478 19.3211 22.2598 19.0303C22.2598 19.0303 22.2598 18.8541 22.3482 18.8752C22.438 18.8991 22.3934 18.8991 22.3934 18.8991C22.3934 18.8991 22.7914 18.7856 22.8568 18.9414C22.8568 18.9414 23.0357 19.4733 22.8798 19.7858C22.8798 19.7858 22.8352 20.4316 23.1701 20.4316C23.1701 20.4316 23.3008 20.566 23.5667 20.4982C23.5667 20.4982 24.1421 20.566 24.1421 20.742C24.1421 20.742 24.1421 21.144 23.7434 21.077L23.2111 21.1201C23.2111 21.1201 22.8568 21.1888 22.9021 21.6096C22.9473 22.0323 22.8798 25.0567 22.8798 25.0567C22.8798 25.0567 22.8798 25.414 23.4345 25.3917C23.4345 25.3917 24.1199 25.3686 24.1199 25.5677C24.1199 25.5677 24.2965 26.0123 23.8103 26.0355C23.8103 26.0355 22.8798 26.0123 22.9473 26.2786C22.9473 26.2786 22.8798 26.9028 22.8352 27.0125C22.8352 27.0125 22.9258 27.5249 22.8131 27.6145C22.8131 27.6145 22.7477 27.9023 22.1506 27.8583C22.1506 27.8583 18.3436 27.8366 17.745 27.8807C17.745 27.8807 17.3901 27.8366 17.4785 27.5249Z" fill="white"/>
</g>
<g id="g188">
<path id="path190" d="M16.7937 27.1027C16.7937 27.1027 17.1695 27.1684 17.1695 27.5249C17.1695 27.8799 17.1917 28.0805 16.9691 28.1246C16.7485 28.1692 16.5057 28.1037 16.4403 27.8148C16.3721 27.5249 16.4826 27.1684 16.7937 27.1027Z" fill="white"/>
</g>
<g id="g192">
<path id="path194" d="M17.2354 26.9251C17.2354 26.9251 17.6335 26.6566 17.7886 26.703C17.7886 26.703 19.8025 26.8349 20.424 26.7259C21.0431 26.6141 20.6667 26.703 20.6667 26.703C20.6667 26.703 21.1985 26.703 21.3522 26.5015C21.3522 26.5015 21.5081 26.4588 21.5964 26.6141L21.9269 26.9712C21.9269 26.9712 21.952 27.1914 21.5741 27.169C21.5741 27.169 17.9646 27.169 17.8554 27.1914C17.8554 27.1914 17.1694 27.3011 17.2354 26.9251Z" fill="white"/>
</g>
<g id="g196">
<path id="path198" d="M17.235 26.9252C17.235 26.9252 17.633 26.6567 17.7881 26.7023C17.7881 26.7023 19.8035 26.835 20.4241 26.726C21.0443 26.6135 20.6669 26.7023 20.6669 26.7023C20.6669 26.7023 21.1994 26.7023 21.3531 26.5001C21.3531 26.5001 21.5084 26.4584 21.5974 26.6135L21.9279 26.9713C21.9279 26.9713 21.9523 27.1923 21.5751 27.1691C21.5751 27.1691 17.9656 27.1691 17.8549 27.1923C17.8549 27.1923 17.1689 27.302 17.235 26.9252Z" stroke="#8E98A8" stroke-opacity="0.56" stroke-width="0.016"/>
</g>
<g id="g200">
<path id="path202" d="M11.9892 19.0311C11.9892 19.0311 12.1444 19.0311 12.122 19.2982L12.0769 26.013C12.0769 26.013 12.1444 26.4589 11.7679 26.7469C11.7679 26.7469 11.5674 26.9908 11.5674 26.6142L11.6579 19.765C11.6579 19.765 11.6789 19.2532 11.9892 19.0311Z" fill="white"/>
</g>
<g id="g204">
<path id="path206" d="M11.9892 19.0304C11.9892 19.0304 12.1444 19.0304 12.1234 19.2973L12.0769 26.0138C12.0769 26.0138 12.1444 26.4597 11.7672 26.7477C11.7672 26.7477 11.5659 26.9916 11.5659 26.6148L11.6566 19.7649C11.6566 19.7649 11.678 19.2525 11.9892 19.0304Z" stroke="#8E98A8" stroke-opacity="0.56" stroke-width="0.016"/>
</g>
<g id="g208">
<path id="path210" d="M11.635 19.0757C11.635 19.0757 11.3691 19.5657 11.3914 19.6777L11.3691 21.1656C11.3691 21.1656 11.3468 22.1218 11.3691 22.2336C11.3914 22.3441 11.3468 25.1464 11.3468 25.1464C11.3468 25.1464 11.3246 25.6788 11.3468 25.8577V27.058C11.3468 27.058 11.3023 27.5926 11.7004 27.457C11.7004 27.457 15.5972 27.369 15.8415 27.4367C15.8415 27.4367 16.1943 27.5026 16.0635 27.6807C16.0635 27.6807 16.0635 27.8375 15.8177 27.7919C15.8177 27.7919 13.9807 27.9686 12.321 27.903C12.321 27.903 11.214 27.9686 11.1464 27.8375C11.1464 27.8375 10.9704 27.8149 10.9704 27.1691C10.9704 27.1691 10.9704 26.5702 10.9272 26.4589C10.9272 26.4589 10.9704 26.1436 10.4173 26.0794C10.4173 26.0794 9.64266 26.2136 9.62037 25.7468C9.62037 25.7468 9.73037 25.4133 10.484 25.4566C10.484 25.4566 11.0373 25.546 10.9272 25.1001L10.9927 21.8114C10.9927 21.8114 11.0608 21.2307 10.683 21.2075C10.683 21.2075 10.3302 21.1895 10.2174 21.2307C10.2174 21.2307 9.57594 21.2307 9.62037 20.8554C9.62037 20.8554 9.84168 20.4541 10.484 20.5435C10.484 20.5435 10.9704 20.6318 10.9927 20.0773C10.9927 20.0773 10.9704 18.9423 11.2355 18.899C11.2355 18.899 11.7902 18.9191 11.635 19.0757Z" fill="white"/>
</g>
<g id="g212">
<path id="path214" d="M12.2985 26.4352C12.2985 26.4352 12.6088 26.7671 13.119 26.7477L16.127 26.791C16.127 26.791 16.4613 26.8147 16.4403 26.9907C16.4403 26.9907 16.3929 27.2572 15.9964 27.1684L12.3652 27.1244L11.9659 27.1488C11.9659 27.1488 11.7 27.1027 12.1224 26.5918L12.2985 26.4352Z" fill="white"/>
</g>
<g id="g216">
<path id="path218" d="M12.2977 26.4345C12.2977 26.4345 12.6082 26.7671 13.119 26.7468L16.1278 26.791C16.1278 26.791 16.4611 26.814 16.4411 26.9907C16.4411 26.9907 16.3944 27.2578 15.9978 27.1699L12.3646 27.1257L11.9651 27.1488C11.9651 27.1488 11.7 27.1035 12.1216 26.5911L12.2977 26.4345Z" stroke="#8E98A8" stroke-opacity="0.56" stroke-width="0.016"/>
</g>
<g id="g220">
<path id="path222" d="M21.5967 26.1443C21.5967 26.1443 21.8624 26.6567 21.9954 26.7267C21.9954 26.7267 22.239 27.0132 22.1729 26.5023L22.2167 20.0976C22.2167 20.0976 22.1498 19.8747 22.2167 19.5203L21.9516 19.0309C21.9516 19.0309 21.6627 18.8088 21.6627 19.1638L21.619 25.9913L21.5967 26.1443Z" fill="white"/>
</g>
<g id="g224">
<path id="path226" d="M21.5957 26.1451C21.5957 26.1451 21.8623 26.6567 21.9959 26.7275C21.9959 26.7275 22.2395 27.0147 22.1734 26.5024L22.2172 20.0962C22.2172 20.0962 22.1503 19.8747 22.2172 19.5203L21.9514 19.0304C21.9514 19.0304 21.6618 18.8088 21.6618 19.1638L21.618 25.992L21.5957 26.1451Z" stroke="#8E98A8" stroke-opacity="0.56" stroke-width="0.016"/>
</g>
<g id="g228">
<path id="path230" d="M16.6824 23.0997C16.6824 23.0997 16.7047 23.6315 16.6372 24.1418C16.6012 24.424 16.7269 25.7229 16.6149 26.389C16.6149 26.389 16.5947 26.612 16.1277 26.4129C16.1277 26.4129 13.2949 26.4784 13.2065 26.389C13.2065 26.389 12.4321 26.4129 12.3652 26.0116C12.3652 26.0116 12.4759 22.9655 12.4098 22.8522C12.4098 22.8522 12.3652 21.1851 12.4098 21.03C12.4098 21.03 12.4759 19.4958 12.4321 19.3181C12.4321 19.3181 12.4544 18.9623 12.3875 18.7835C12.3875 18.7835 12.3875 18.5612 12.7647 18.6941C12.7647 18.6941 12.8956 18.9394 13.6269 18.8304C13.6269 18.8304 14.1592 18.9185 14.6687 18.8513C14.6687 18.8513 15.7965 18.7626 16.0854 18.8513C16.0854 18.8513 16.5287 18.7626 16.6593 19.2532L16.6372 20.6308L16.7693 21.0754L16.9252 20.9649L16.9906 20.6308L17.0129 19.163C17.0129 19.163 17.1013 18.8953 17.4569 18.8513C17.4569 18.8513 18.0101 18.7835 18.1 18.8304C18.1883 18.8731 19.3816 18.9394 19.7157 18.873C20.0469 18.8065 20.1123 19.0952 21.1103 18.585C21.1103 18.585 21.376 18.6074 21.376 18.7835C21.376 18.7835 21.2856 20.6764 21.376 21.03C21.376 21.03 21.376 24.4983 21.307 24.743L21.3523 25.8548C21.3523 25.8548 21.3962 26.3444 20.6231 26.389C20.6231 26.389 21.1103 26.456 18.0533 26.3673C18.0533 26.3673 17.5669 26.3444 17.0359 26.5883C17.0359 26.5883 16.9252 26.5665 16.9252 26.2779C16.9252 26.2779 17.0129 25.2337 16.9252 24.2089L16.8823 23.0753L16.6824 23.0997Z" fill="white"/>
</g>
<g id="g232">
<path id="path234" d="M14.6895 21.5221C14.6895 21.5221 14.7564 23.167 14.6895 23.3891L14.6687 23.7458C14.6687 23.7458 14.7564 23.9888 14.8893 24.079C14.8893 24.079 15.0006 24.3893 14.7341 24.3677C14.7341 24.3677 14.1816 24.3229 14.0487 24.344C14.0487 24.344 13.7375 24.344 14.0487 23.9462C14.0487 23.9462 14.1593 23.7881 14.1364 23.3891C14.1364 23.3891 14.1364 21.5221 14.1816 21.4118C14.1816 21.4118 14.2254 21.1656 14.0702 21.0986L13.8036 21.1217L13.4731 21.4327C13.4731 21.4327 13.4056 21.7676 13.2505 21.4118V21.2322L13.451 20.6988L13.5839 20.6756C13.5839 20.6756 13.7821 20.8093 13.9588 20.8554H15.0006L15.3764 20.6756C15.3764 20.6756 15.5308 20.6988 15.4885 20.8987C15.4885 20.8987 15.5531 21.4118 15.2657 21.4768C15.2657 21.4768 15.0884 21.4118 15.0006 21.1656C15.0006 21.1656 14.7126 21.0113 14.6895 21.5221Z" fill="#8E98A8" fill-opacity="0.56"/>
</g>
<g id="g236">
<path id="path238" d="M19.5814 20.9218C19.5814 20.9218 18.7416 20.8546 18.7207 21.766C18.7207 21.766 18.6295 22.3903 19.5606 22.7909C19.5606 22.7909 20.2475 23.1229 20.2014 23.5451C20.2014 23.5451 20.1131 24.3014 19.3824 23.9238C19.3824 23.9238 19.029 23.7448 19.0526 23.5451C19.0526 23.5451 18.9399 23.2997 18.8076 23.345C18.8076 23.345 18.6517 23.3885 18.7207 24.1231C18.7207 24.1231 18.7207 24.4124 19.0526 24.1231L19.2272 24.1685C19.2272 24.1685 19.8257 24.6577 20.3337 24.056C20.3337 24.056 20.8883 23.5451 20.4888 22.923C20.4888 22.923 20.2014 22.4798 19.6929 22.2569C19.6929 22.2569 19.2057 22.0325 19.0958 21.6549C19.0958 21.6549 19.2509 20.9867 19.8473 21.3425C19.8473 21.3425 20.0693 21.6096 20.2014 21.6549C20.2014 21.6549 20.379 21.6549 20.3337 21.253L20.2919 20.9218C20.2919 20.9218 20.2475 20.6742 19.9363 20.9218C19.9363 20.9218 19.6483 21.0315 19.5814 20.9218Z" fill="#8E98A8" fill-opacity="0.56"/>
</g>
<g id="g240">
<path id="path242" d="M16.8813 20.4535C17.0357 20.5668 17.058 20.7884 17.058 20.7884C17.5006 21.9661 17.8778 23.6799 17.8778 23.6799C17.9876 23.9001 18.1875 24.0791 18.1875 24.0791C18.5639 24.2118 18.1875 24.3223 18.1875 24.3223C18.0322 24.3901 17.5244 24.302 17.5244 24.302C17.257 24.2545 17.367 24.1678 17.367 24.1678C17.479 24.0567 17.3899 23.6106 17.3899 23.6106C17.367 23.4346 17.1694 23.1446 17.1694 23.1446C17.0811 23.0996 16.9258 23.2997 16.9258 23.2997C16.9258 23.2997 16.683 23.3891 16.6593 23.2997C16.637 23.2093 16.4826 23.1251 16.4826 23.1251C16.2167 23.1251 16.1068 23.7881 16.1068 23.7881C16.2613 24.3447 16.1068 24.2545 16.1068 24.2545C15.9747 24.4343 15.5529 24.302 15.5529 24.302C15.3539 24.2545 15.4881 24.0993 15.4881 24.0993C15.7303 24.0567 15.7963 23.7881 15.7963 23.7881C15.9078 23.633 16.6147 20.743 16.6147 20.743C16.683 20.6086 16.726 20.3423 16.8813 20.4535ZM16.5286 21.9207C16.5055 22.0325 16.3496 22.6552 16.3496 22.6552L16.4826 22.8796C16.4826 22.8796 16.8375 22.8999 16.9696 22.8999C17.1011 22.8999 17.1249 22.7909 17.1249 22.6774C17.1249 22.5673 16.8813 21.9004 16.8813 21.9004L16.7693 21.7668L16.5286 21.9207Z" fill="#8E98A8" fill-opacity="0.56"/>
</g>
<g id="g244">
<path id="path246" d="M10.8845 15.0692C10.8845 15.0692 10.6402 15.8492 9.55547 15.0468L5.83662 14.9572C5.83662 14.9572 5.34958 15.1146 5.28269 14.6023C5.28269 14.6023 5.37187 13.5804 5.32582 13.4909C5.32582 13.4909 5.34957 13.2007 4.86171 13.2007C4.86171 13.2007 4.11023 13.2916 4.08859 12.6242C4.08859 12.6242 3.95499 11.9104 4.99531 11.9349C4.99531 11.9349 5.32582 12.0901 5.34957 11.6674C5.34957 11.6674 5.30499 8.777 5.32582 8.55339C5.32582 8.55339 5.41629 8.28925 4.90695 8.24365C4.90695 8.24365 4.17548 8.39811 4.08859 7.90889C4.08859 7.90889 4.04335 7.17646 4.52975 7.13101C4.52975 7.13101 5.12761 7.17646 5.23892 7.02264C5.23892 7.02264 5.37187 7.10862 5.34957 6.57445L5.37187 5.66385C5.37187 5.66385 5.43859 5.41916 5.81286 5.44155C5.81286 5.44155 6.50121 5.48552 6.59022 5.41916C6.59022 5.41916 6.74481 5.22007 6.78712 5.12968C6.78712 5.12968 7.1435 5.10876 7.20957 5.19539C7.20957 5.19539 7.73974 5.55335 9.75644 5.41916C9.75644 5.41916 10.0647 5.41916 10.1315 5.50873C10.1315 5.50873 10.5073 5.79723 10.7286 5.48552C10.7286 5.48552 11.0606 5.41916 12.0576 5.44155C12.0576 5.44155 13.1404 5.73021 13.8942 5.10876L14.1369 5.15436C14.1369 5.15436 14.4466 5.66385 14.67 5.50873C14.67 5.50873 15.3332 5.44155 15.4445 5.57575C15.4445 5.57575 15.6664 5.90919 15.5537 6.7773C15.5537 6.7773 15.4222 7.15472 16.0638 7.15472C16.0638 7.15472 16.7937 7.02264 16.7061 7.70899C16.7061 7.70899 16.9058 8.48769 15.6881 8.37719C15.6881 8.37719 15.5322 8.60014 15.5537 8.75542C15.5537 8.75542 15.5322 11.2891 15.5105 11.5799C15.5105 11.5799 15.4891 11.9776 16.02 11.9573C16.02 11.9573 16.7284 11.9104 16.7499 12.5579C16.7499 12.5579 16.8382 13.4021 15.8209 13.2455C15.8209 13.2455 15.5105 13.2916 15.4653 13.4909L15.4222 14.6023C15.4222 14.6023 15.4445 15.1586 14.823 15.0259C14.7346 15.0259 11.3717 15.0916 11.0827 15.0043C11.0827 15.0043 10.9283 14.9819 10.8845 15.0692Z" fill="#8E98A8" fill-opacity="0.56"/>
</g>
<g id="g248">
<path id="path250" d="M10.8846 15.0698C10.8846 15.0698 10.6403 15.85 9.55556 15.0474L5.83606 14.958C5.83606 14.958 5.34885 15.1153 5.28213 14.6024C5.28213 14.6024 5.37196 13.5804 5.32591 13.4909C5.32591 13.4909 5.34885 13.2016 4.86099 13.2016C4.86099 13.2016 4.10951 13.2924 4.08803 12.6249C4.08803 12.6249 3.95508 11.9104 4.99541 11.9349C4.99541 11.9349 5.32591 12.0902 5.34885 11.668C5.34885 11.668 5.30427 8.77635 5.32591 8.5534C5.32591 8.5534 5.41639 8.28844 4.90639 8.24366C4.90639 8.24366 4.17493 8.39828 4.08803 7.90825C4.08803 7.90825 4.04279 7.17565 4.52984 7.13102C4.52984 7.13102 5.12689 7.17564 5.23901 7.02134C5.23901 7.02134 5.37196 7.10863 5.34885 6.57446L5.37196 5.66304C5.37196 5.66304 5.43803 5.41851 5.81296 5.44156C5.81296 5.44156 6.50065 5.48487 6.58966 5.41851C6.58966 5.41851 6.74491 5.22008 6.78722 5.12969C6.78722 5.12969 7.14278 5.10811 7.20966 5.1954C7.20966 5.1954 7.73918 5.55271 9.75653 5.41851C9.75653 5.41851 10.0647 5.41851 10.1316 5.50792C10.1316 5.50792 10.5074 5.79658 10.7287 5.48487C10.7287 5.48487 11.0613 5.41851 12.0577 5.44156C12.0577 5.44156 13.1413 5.72875 13.8942 5.10811L14.1377 5.15355C14.1377 5.15355 14.4474 5.66304 14.6701 5.50792C14.6701 5.50792 15.3333 5.44156 15.446 5.57428C15.446 5.57428 15.6665 5.90855 15.5546 6.77584C15.5546 6.77584 15.4223 7.15472 16.0639 7.15472C16.0639 7.15472 16.7952 7.02134 16.7062 7.70834C16.7062 7.70834 16.9059 8.48769 15.6888 8.37654C15.6888 8.37654 15.5323 8.5995 15.5546 8.75543C15.5546 8.75543 15.5323 11.2891 15.5114 11.5793C15.5114 11.5793 15.4892 11.9783 16.0201 11.9582C16.0201 11.9582 16.7285 11.9104 16.7508 12.5585C16.7508 12.5585 16.8383 13.4021 15.821 13.2455C15.821 13.2455 15.5114 13.2924 15.4662 13.4909L15.4223 14.6024C15.4223 14.6024 15.446 15.1594 14.8239 15.0265C14.7356 15.0265 11.3718 15.0916 11.0828 15.0043C11.0828 15.0043 10.9283 14.9825 10.8846 15.0698Z" stroke="#8E98A8" stroke-opacity="0.56" stroke-width="0.0133333"/>
</g>
<g id="g252">
<path id="path254" d="M6.69993 5.90918C6.69993 5.90918 6.74452 6.35296 6.74452 6.46411C6.74452 6.57525 6.67699 12.8905 6.67699 12.8905C6.67699 12.8905 6.74452 13.3812 6.32289 13.6244C6.32289 13.6244 6.21289 13.6698 6.18994 13.3588L6.23518 6.68787C6.23518 6.68787 6.27895 5.86439 6.69993 5.90918Z" fill="white"/>
</g>
<g id="g256">
<path id="path258" d="M6.70075 5.90848C6.70075 5.90848 6.74517 6.35226 6.74517 6.46341C6.74517 6.57456 6.67764 12.8904 6.67764 12.8904C6.67764 12.8904 6.74517 13.3811 6.32289 13.6258C6.32289 13.6258 6.21289 13.6706 6.18994 13.3595L6.23372 6.68783C6.23372 6.68783 6.2783 5.86435 6.70075 5.90848Z" stroke="#8E98A8" stroke-opacity="0.56" stroke-width="0.016"/>
</g>
<g id="g260">
<path id="path262" d="M5.96931 13.6908C5.96931 13.6908 6.01243 7.42033 5.9916 7.30836C5.96931 7.19868 6.01243 7.39859 6.01243 7.39859C6.01243 7.39859 5.94783 6.31031 6.23505 5.8644C6.23505 5.8644 6.14603 5.48617 5.63669 5.95234L5.61651 6.86458C5.61651 6.86458 5.61651 7.37619 5.15029 7.3538C5.15029 7.3538 4.61866 7.33075 4.3744 7.57692C4.3744 7.57692 4.2421 8.06532 4.75014 7.97738C4.75014 7.97738 5.54833 7.97738 5.5921 8.30854L5.54833 11.6672C5.54833 11.6672 5.72571 12.2229 5.10506 12.2229C5.10506 12.2229 4.35276 12.1803 4.3744 12.6473C4.3744 12.6473 4.52948 13.0477 5.17259 12.9135C5.17259 12.9135 5.63669 13.0029 5.61651 13.4454V14.2926C5.61651 14.2926 5.56981 14.6267 6.01243 14.647H9.46668C9.46668 14.647 9.64357 14.6692 9.64357 14.4462C9.64357 14.4462 9.62111 14.2709 9.35684 14.2709L6.48012 14.2248C6.48012 14.2248 6.01243 14.3807 5.96931 13.6908Z" fill="white"/>
</g>
<g id="g264">
<path id="path266" d="M6.56719 13.7363C6.56719 13.7363 6.47947 14.0488 6.80998 13.9801H9.0903L9.7103 14.113C9.7103 14.113 10.3541 13.9578 9.7103 13.6013C9.7103 13.6013 7.67358 13.6251 7.49604 13.5803C7.49604 13.5803 7.07653 13.4694 6.98751 13.4468C6.98751 13.4468 6.76555 13.3589 6.56719 13.7363Z" fill="white"/>
</g>
<g id="g268">
<path id="path270" d="M6.5667 13.7355C6.5667 13.7355 6.47899 14.0493 6.80949 13.9793H9.09063L9.71144 14.1135C9.71144 14.1135 10.355 13.9584 9.71144 13.6013C9.71144 13.6013 7.67374 13.625 7.49637 13.5789C7.49637 13.5789 7.07604 13.4684 6.98703 13.4468C6.98703 13.4468 6.7649 13.358 6.5667 13.7355Z" stroke="#8E98A8" stroke-opacity="0.56" stroke-width="0.016"/>
</g>
<g id="g272">
<path id="path274" d="M10.3535 14.0487C10.3535 14.0487 9.93184 14.0487 9.95397 14.6015C9.95397 14.6015 9.99855 15.0265 10.4404 15.0265C10.4404 15.0265 10.8392 14.9573 10.7961 14.5149C10.7961 14.5149 10.5517 13.9578 10.3535 14.0487Z" fill="white"/>
</g>
<g id="g276">
<path id="path278" d="M10.6623 13.8242C10.6623 13.8242 10.8607 13.6019 10.9949 13.6019C10.9949 13.6019 13.2079 13.8026 13.5843 13.5362C13.5843 13.5362 13.9175 13.4698 14.0046 13.5362C14.0046 13.5362 14.3366 13.8026 14.3366 13.9578C14.3366 13.9578 14.3149 14.1598 13.9175 14.0486C13.9175 14.0486 11.4138 14.0696 11.2823 14.0696C11.2823 14.0696 10.5954 14.2247 10.6623 13.8242Z" fill="white"/>
</g>
<g id="g280">
<path id="path282" d="M10.6618 13.8243C10.6618 13.8243 10.8608 13.6014 10.9944 13.6014C10.9944 13.6014 13.208 13.8027 13.5844 13.5363C13.5844 13.5363 13.9185 13.4693 14.0054 13.5363C14.0054 13.5363 14.3374 13.8027 14.3374 13.9585C14.3374 13.9585 14.3159 14.1607 13.9185 14.0487C13.9185 14.0487 11.4148 14.0705 11.2818 14.0705C11.2818 14.0705 10.5949 14.2256 10.6618 13.8243Z" stroke="#8E98A8" stroke-opacity="0.56" stroke-width="0.016"/>
</g>
<g id="g284">
<path id="path286" d="M11.0166 14.4918C11.0166 14.4918 11.0166 14.315 11.3248 14.315L14.4264 14.2919C14.4264 14.2919 14.713 14.4456 14.713 13.9137C14.713 13.9137 14.8266 11.489 14.8367 8.82029C14.8409 8.02656 14.8754 7.1931 14.8453 6.42078C14.8453 6.42078 14.7792 6.08815 14.6909 6.0195C14.6909 6.0195 14.6909 5.66383 15.0687 5.79868C15.0687 5.79868 15.3984 5.81976 15.3107 6.33056L15.3323 7.10925C15.3323 7.10925 15.2663 7.4427 15.864 7.35394C15.864 7.35394 16.461 7.4427 16.4825 7.665C16.4825 7.665 16.6615 8.1109 15.9538 8.06546H15.4451C15.4451 8.06546 15.2231 8.19835 15.2892 8.46609L15.2231 11.6896C15.2231 11.6896 15.1771 12.2453 15.7102 12.225C15.7102 12.225 16.2635 12.202 16.3727 12.3795C16.3727 12.3795 16.7505 12.9359 15.9309 12.8913C15.9309 12.8913 15.4214 12.8681 15.3107 12.9568C15.3107 12.9568 15.2231 13.0701 15.1563 14.1138C15.1563 14.1138 15.2 14.7365 14.7353 14.6693C14.7353 14.6693 11.6581 14.7127 11.3715 14.6469C11.3715 14.6469 11.0604 14.7365 11.0166 14.4918Z" fill="white"/>
</g>
<g id="g288">
<path id="path290" d="M7.03055 5.70706L6.96594 12.8456C6.96594 12.8456 6.94365 13.1769 7.49677 13.2439C7.49677 13.2439 8.13987 13.3111 8.29365 13.2439C8.29365 13.2439 8.71317 13.2224 9.79873 13.2672C9.79873 13.2672 10.0646 13.5326 10.0861 13.2008C10.0861 13.2008 10.2636 7.4181 10.1751 6.21802C10.1751 6.21802 10.1536 5.70706 9.77579 5.68467C9.77579 5.68467 8.09463 5.81756 7.93939 5.68467L7.27627 5.50634C7.27627 5.50634 7.00907 5.52742 7.03055 5.70706Z" fill="white"/>
</g>
<g id="g292">
<path id="path294" d="M14.0485 5.97411L14.0269 13.0015C14.0269 13.0015 14.2044 13.6259 14.4932 13.5594C14.4932 13.5594 14.537 13.4252 14.5587 13.2014L14.6485 6.50746C14.6485 6.50746 14.4264 5.43994 14.0485 5.97411Z" fill="white" stroke="#8E98A8" stroke-opacity="0.56" stroke-width="0.016"/>
</g>
<g id="g296">
<path id="path298" d="M14.0485 5.97411L14.0269 13.0015C14.0269 13.0015 14.2044 13.6259 14.4932 13.5594C14.4932 13.5594 14.537 13.4252 14.5587 13.2014L14.6485 6.50746C14.6485 6.50746 14.4264 5.43994 14.0485 5.97411Z" stroke="#8E98A8" stroke-opacity="0.56" stroke-width="0.016"/>
</g>
<g id="g300">
<path id="path302" d="M10.5309 6.03403C10.5309 6.03403 10.4642 9.39122 10.485 9.50384L10.4432 12.3283L10.3535 13.304C10.3535 13.304 10.485 13.5068 10.5963 13.3725C10.5963 13.3725 11.3055 13.1956 11.7479 13.2615C11.7479 13.2615 13.1655 13.3957 13.4522 13.1726C13.4522 13.1726 13.6735 13.2831 13.7402 12.9272C13.7402 12.9272 13.8279 6.70223 13.784 6.59043C13.784 6.59043 13.8732 5.70205 13.8279 5.61411C13.8279 5.61411 13.8057 5.41192 13.4314 5.58878C13.4314 5.58878 13.4743 5.76842 11.3722 5.70205C11.3722 5.70205 10.5748 5.67901 10.5309 6.03403Z" fill="white"/>
</g>
<g id="g304">
<path id="path306" d="M9.84695 8.09076L9.64663 8.51509C9.64663 8.51509 9.16154 10.6707 8.89645 11.1145C8.89645 11.1145 8.85186 11.5606 8.47547 11.2039C8.47547 11.2039 7.61122 8.46965 7.56728 8.38024L7.27925 8.18017C7.27925 8.18017 7.10464 7.93565 7.41285 7.91391L8.23186 7.93565C8.23186 7.93565 8.49695 8.15713 8.1435 8.4046C8.1435 8.4046 8.18744 8.75978 8.65219 10.1143C8.65219 10.1143 8.78433 10.6259 8.93957 10.2477L9.38285 8.66874L9.2499 8.20191C9.2499 8.20191 9.1163 7.97962 9.31678 7.95804C9.31678 7.95804 9.7817 7.91391 9.84695 8.09076Z" fill="#8E98A8" fill-opacity="0.56"/>
</g>
<g id="g308">
<path id="path310" d="M11.132 8.44721L11.1083 10.8042L11.0437 10.9817C11.0437 10.9817 10.8217 11.2697 10.9761 11.2928C10.9761 11.2928 10.7786 11.427 12.3922 11.4486C12.3922 11.4486 13.0137 11.5591 12.8578 10.7588C12.8578 10.7588 12.7917 10.47 12.5689 10.893C12.5689 10.893 12.5029 11.2472 11.7076 11.1369C11.7076 11.1369 11.5301 10.9817 11.5301 10.8042V9.82497C11.5301 9.82497 11.5065 9.57946 11.8835 9.6048C11.8835 9.6048 12.3039 9.87041 12.3707 9.75779C12.3707 9.75779 12.5252 9.40342 12.3707 9.18047C12.3707 9.18047 12.1709 9.15955 12.1494 9.2483C12.1494 9.2483 12.0165 9.51375 11.6401 9.35798C11.6401 9.35798 11.4634 9.00296 11.5739 8.71348C11.5739 8.71348 11.5301 8.15724 11.9066 8.20252C11.9066 8.20252 12.3491 8.29062 12.3922 8.42564C12.3922 8.42564 12.5029 8.69338 12.615 8.38167L12.5029 8.00196C12.5029 8.00196 12.4383 7.84603 12.3268 7.89081C12.3268 7.89081 11.5739 8.00196 11.4842 7.91174L10.8863 7.97957C10.8863 7.97957 10.7988 8.20252 11.0653 8.31236C11.0653 8.31236 11.132 8.3578 11.132 8.44721Z" fill="#8E98A8" fill-opacity="0.56"/>
</g>
</g>
</g>
</g>
</g>
</g>
</svg>
