<svg width="121" height="25" viewBox="0 0 121 25" fill="none" xmlns="http://www.w3.org/2000/svg">
<g id="Robocorp">
<path id="Robocorp_2" d="M15.0866 25C19.6045 25 23.3559 21.8074 24.1224 17.5907C24.1627 17.3899 24.0013 17.1891 23.7795 17.1891H6.39363C6.17177 17.1891 6.01042 17.3698 6.05076 17.5907C6.81719 21.8074 10.5687 25 15.0866 25ZM24.5661 4.61927C24.2837 2.31012 22.408 0.402567 20.0683 0.0612144C18.9792 -0.0994219 17.9304 0.0612156 17.0228 0.482886C15.7723 1.04511 14.3605 1.04511 13.1301 0.482886C12.2225 0.0812951 11.1939 -0.0793424 10.1048 0.0612144C7.86598 0.382487 6.09109 2.00893 5.66754 4.1976C5.22382 6.48667 6.27262 8.55486 8.04751 9.65923C8.22903 9.77971 8.26937 10.0006 8.12818 10.1612C6.91803 11.5467 6.13143 13.3137 5.97008 15.2614C5.94991 15.4622 6.11126 15.6229 6.31296 15.6229H23.9005C24.1022 15.6229 24.2635 15.4622 24.2434 15.2614C24.082 13.3338 23.2954 11.5668 22.0853 10.1612C21.9441 10.0006 21.9844 9.77971 22.1659 9.65923C23.7795 8.63518 24.8283 6.72762 24.5661 4.61927ZM13.352 10.9242C12.7671 10.9242 12.283 10.4624 12.283 9.88011C12.283 9.2978 12.7671 8.83597 13.352 8.83597C13.9369 8.83597 14.421 9.2978 14.421 9.88011C14.4008 10.4624 13.9369 10.9242 13.352 10.9242ZM16.8211 10.9242C16.2362 10.9242 15.7521 10.4624 15.7521 9.88011C15.7521 9.2978 16.2362 8.83597 16.8211 8.83597C17.406 8.83597 17.8901 9.2978 17.8901 9.88011C17.8901 10.4624 17.406 10.9242 16.8211 10.9242ZM19.6246 5.92444H10.5485C10.0644 5.92444 9.66104 5.52285 9.66104 5.06102C9.66104 4.57911 10.0644 4.1976 10.5485 4.1976H19.6448C20.1289 4.1976 20.5322 4.59919 20.5322 5.06102C20.5322 5.52285 20.1289 5.92444 19.6246 5.92444ZM0 10.101V10.8439C0 12.7515 1.21015 14.3779 2.90436 15.0606C3.12622 15.1409 3.36825 15.0004 3.36825 14.7594V6.20555C3.36825 5.9646 3.12622 5.80396 2.90436 5.90436C1.21015 6.56699 0 8.19343 0 10.101ZM26.7847 14.7394C26.7847 14.9803 27.0267 15.141 27.2486 15.0406C28.9428 14.3578 30.1529 12.7314 30.1529 10.8439V10.101C30.1529 8.19343 28.9428 6.56699 27.2486 5.88428C27.0267 5.80396 26.7847 5.94452 26.7847 6.18547V14.7394ZM50.9675 8.39422C50.907 6.00476 48.8699 4.0972 46.4295 4.0972H40.7821C40.6611 4.0972 40.5602 4.1976 40.5602 4.31807V18.7954C40.5602 18.9159 40.6611 19.0163 40.7821 19.0163H43.2427C43.3638 19.0163 43.4646 18.9159 43.4646 18.7954V13.1932C43.4646 13.0728 43.5654 12.9724 43.6865 12.9724H45.179C45.3202 12.9724 45.4412 13.0527 45.5017 13.1732L47.8211 18.7753C47.8817 18.8958 48.0027 18.9761 48.1439 18.9761H50.907C51.028 18.9761 51.1087 18.8557 51.0684 18.7352L48.4061 12.631C48.3657 12.5507 48.406 12.4704 48.4666 12.4302C48.5271 12.3901 48.6077 12.3298 48.7489 12.2294C50.3423 11.2054 51.0079 10.0407 50.9675 8.39422ZM46.4295 10.1211H43.6865C43.5654 10.1211 43.4646 10.0207 43.4646 9.90019V7.14929C43.4646 7.02881 43.5654 6.92841 43.6865 6.92841H46.3891C47.2564 6.92841 48.0027 7.57096 48.0632 8.4143C48.1237 9.33796 47.3774 10.1211 46.4295 10.1211ZM56.2922 8.15327C53.8316 8.15327 52.1172 9.65923 51.8146 12.0889C51.7138 12.9523 51.7138 14.4382 51.8146 15.3016C52.1172 17.7312 53.8517 19.2372 56.3124 19.2372C58.773 19.2372 60.4672 17.7312 60.7899 15.3016C60.8908 14.4382 60.8908 12.9523 60.7899 12.0889C60.4874 9.65923 58.773 8.15327 56.2922 8.15327ZM58.1074 15.3217C57.9662 16.165 57.3612 16.6068 56.3124 16.6068C55.2434 16.6068 54.6585 16.1851 54.5375 15.3217C54.3963 14.4582 54.3963 12.9322 54.5375 12.0688C54.6787 11.1652 55.2232 10.7837 56.3124 10.7837C57.3813 10.7837 57.9864 11.2054 58.1074 12.0688C58.2284 12.9523 58.2284 14.4582 58.1074 15.3217ZM67.3046 8.15327C66.3768 8.15327 65.8927 8.37414 65.4692 8.75565C65.3885 8.83597 65.2473 8.77573 65.2473 8.65526V4.298C65.2473 4.17752 65.1465 4.07712 65.0255 4.07712H62.7867C62.6657 4.07712 62.5648 4.17752 62.5648 4.298V18.7753C62.5648 18.8958 62.6657 18.9962 62.7867 18.9962H64.259C64.3599 18.9962 64.4607 18.9561 64.5212 18.8557L65.0658 18.1529C65.1263 18.0926 65.2272 18.0926 65.2877 18.1529C65.691 18.695 66.2356 19.2171 67.3046 19.2171C69.503 19.2171 71.2174 17.5706 71.3989 15.2815C71.4594 14.4181 71.4594 12.9121 71.3989 12.0688C71.2376 9.81987 69.503 8.15327 67.3046 8.15327ZM68.7164 15.3217C68.6559 16.1449 67.9903 16.6871 66.9819 16.6871C65.9331 16.6871 65.3078 16.1851 65.2271 15.3217C65.1666 14.4582 65.1666 12.9322 65.2271 12.0688C65.2877 11.4463 65.6305 10.7034 66.9819 10.7034C67.9903 10.7034 68.6559 11.2455 68.7164 12.0688C68.7769 12.9523 68.7769 14.4582 68.7164 15.3217ZM116.88 19.2372C115.953 19.2372 115.469 19.0163 115.045 18.6348C114.964 18.5545 114.823 18.6147 114.823 18.7352V22.972C114.823 23.0924 114.722 23.1928 114.601 23.1928H112.342C112.221 23.1928 112.121 23.0924 112.121 22.972V8.6151C112.121 8.49462 112.221 8.39422 112.342 8.39422H113.815C113.916 8.39422 114.016 8.43438 114.077 8.53478L114.621 9.23756C114.682 9.2978 114.783 9.2978 114.843 9.23756C115.247 8.69541 115.791 8.17335 116.86 8.17335C119.059 8.17335 120.773 9.81987 120.955 12.1089C121.015 12.9724 121.015 14.4783 120.955 15.3217C120.793 17.5907 119.059 19.2372 116.88 19.2372ZM118.272 12.0889C118.212 11.2656 117.546 10.7235 116.538 10.7235C115.489 10.7235 114.864 11.2254 114.783 12.0889C114.722 12.9523 114.722 14.4783 114.783 15.3417C114.843 15.9642 115.186 16.7072 116.538 16.7072C117.546 16.7072 118.212 16.165 118.272 15.3417C118.333 14.4582 118.333 12.9523 118.272 12.0889ZM77.2278 8.15327C74.7672 8.15327 73.0528 9.65923 72.7503 12.0889C72.6494 12.9523 72.6494 14.4382 72.7503 15.3016C73.0528 17.7312 74.7873 19.2372 77.248 19.2372C79.7086 19.2372 81.4028 17.7312 81.7256 15.3016C81.8264 14.4382 81.8264 12.9523 81.7256 12.0889C81.423 9.65923 79.6885 8.15327 77.2278 8.15327ZM79.0229 15.3217C78.8817 16.165 78.2766 16.6068 77.2278 16.6068C76.1589 16.6068 75.574 16.1851 75.4529 15.3217C75.3118 14.4582 75.3118 12.9322 75.4529 12.0688C75.5941 11.1652 76.1387 10.7837 77.2278 10.7837C78.2968 10.7837 78.9019 11.2054 79.0229 12.0688C79.1641 12.9523 79.1641 14.4582 79.0229 15.3217ZM89.41 15.0406C89.2487 16.1449 88.7041 16.6268 87.5948 16.6268C86.5056 16.6268 85.9006 16.2052 85.7997 15.3417C85.6787 14.4783 85.6787 12.9523 85.7997 12.0889C85.9207 11.2054 86.4653 10.8038 87.5746 10.8038C88.7243 10.8038 89.3495 11.3459 89.41 12.3901C89.41 12.4101 89.41 12.4302 89.41 12.4503C89.4302 12.5708 89.5109 12.6511 89.6319 12.6511H91.7698C91.8908 12.6511 91.9917 12.5507 91.9917 12.4302V12.3097C91.9917 9.88011 90.1764 8.17335 87.5948 8.17335C85.1341 8.17335 83.3996 9.67931 83.0971 12.1089C82.9962 12.9724 82.9962 14.4582 83.0971 15.3217C83.3996 17.7513 85.1341 19.2573 87.5948 19.2573C89.7932 19.2573 91.9917 17.8316 91.9917 15.1209V15.0004C91.9917 14.8799 91.8908 14.7795 91.7698 14.7795H89.652C89.531 14.7795 89.4503 14.8598 89.4302 14.9602C89.4302 14.9602 89.4302 15.0004 89.41 15.0406ZM97.7802 8.15327C95.3196 8.15327 93.6052 9.65923 93.3027 12.0889C93.2018 12.9523 93.2018 14.4382 93.3027 15.3016C93.6052 17.7312 95.3398 19.2372 97.8004 19.2372C100.261 19.2372 101.955 17.7312 102.278 15.3016C102.379 14.4382 102.379 12.9523 102.278 12.0889C101.955 9.65923 100.241 8.15327 97.7802 8.15327ZM99.5753 15.3217C99.4341 16.165 98.829 16.6068 97.7802 16.6068C96.7113 16.6068 96.1264 16.1851 96.0053 15.3217C95.8642 14.4582 95.8642 12.9322 96.0053 12.0688C96.1465 11.1652 96.6911 10.7837 97.7802 10.7837C98.8492 10.7837 99.4543 11.2054 99.5753 12.0688C99.6963 12.9523 99.6963 14.4582 99.5753 15.3217ZM110.507 8.39422H109.62C108.248 8.39422 107.663 8.87613 107.219 9.21749C107.038 9.35804 106.695 9.69939 106.473 9.90019C106.392 9.96043 106.271 9.94034 106.251 9.83995L105.828 8.6151C105.787 8.47454 105.646 8.39422 105.505 8.39422H104.194C104.073 8.39422 103.972 8.49462 103.972 8.6151V18.7954C103.972 18.9159 104.073 19.0163 104.194 19.0163H106.433C106.554 19.0163 106.655 18.9159 106.655 18.7954V13.5145C106.655 11.8278 107.764 10.8238 109.599 10.8238H110.507C110.628 10.8238 110.729 10.7234 110.729 10.603V8.63517C110.729 8.49462 110.628 8.39422 110.507 8.39422Z" fill="#8E98A8" fill-opacity="0.56"/>
</g>
</svg>
