<svg width="124" height="124" viewBox="0 0 124 124" fill="none" xmlns="http://www.w3.org/2000/svg">
<g id="Group">
<g id="Clip path group">
<mask id="mask0_3845_1671" style="mask-type:luminance" maskUnits="userSpaceOnUse" x="0" y="0" width="124" height="124">
<g id="SVGID_2_">
<path id="Vector" d="M124 0H0V124H124V0Z" fill="white"/>
</g>
</mask>
<g mask="url(#mask0_3845_1671)">
<g id="Group_2">
<g id="Clip path group_2">
<mask id="mask1_3845_1671" style="mask-type:luminance" maskUnits="userSpaceOnUse" x="0" y="0" width="124" height="124">
<g id="SVGID_4_">
<path id="Vector_2" d="M124 0H0V124H124V0Z" fill="white"/>
</g>
</mask>
<g mask="url(#mask1_3845_1671)">
<path id="Vector_3" d="M66.6406 58.1773V61.3914H73.9437L73.5063 63.4835H66.6597V68.0859H63.3314V56.0663H75.0848L74.6474 58.1583H66.6406V58.1773ZM107.093 68.1049H103.27L102.11 65.6706H95.7008L94.5977 68.1049H92.1824L97.8308 56.0853H100.075C100.931 56.0853 101.254 56.4276 101.692 57.3215C102.11 58.1773 107.093 68.1049 107.093 68.1049ZM101.121 63.5786L98.8578 58.7859L96.6707 63.5786H101.121ZM61.6578 68.1049H57.8351L56.694 65.6706H50.2848L49.1818 68.1049H46.7664L52.4339 56.0853H54.6781C55.5339 56.0853 55.8572 56.4276 56.2946 57.3215C56.675 58.1773 61.6578 68.1049 61.6578 68.1049ZM55.686 63.5786L53.4229 58.7859L51.2357 63.5786H55.686ZM39.7486 68.4853C44.0468 68.4853 46.0247 66.9068 46.0247 64.6246C46.0247 62.6276 44.2179 61.6006 40.2811 60.5356C37.9229 59.889 36.4584 59.7559 36.4584 58.9571C36.4584 58.1963 37.8278 57.797 39.9388 57.892C42.5824 58.0252 44.275 59.1282 44.275 59.1282L45.321 57.4546C45.321 57.4546 42.9437 55.6859 39.14 55.6859C35.013 55.6859 32.8449 56.9411 32.8449 59.2614C32.8449 61.5436 35.3173 62.3424 38.9118 63.3694C41.137 63.997 42.4112 64.1301 42.4112 64.9669C42.4112 65.6135 41.7456 66.4313 38.7977 66.2982C35.964 66.1651 33.5106 64.5105 33.5106 64.5105L32.2554 66.0319C32.2554 66.07 34.956 68.4853 39.7486 68.4853ZM119.892 56.0853V63.2552C119.892 63.2552 112.855 57.6448 112.285 57.1694C111.239 56.3325 110.763 56.0853 109.603 56.0853H108.747V68.1049H111.22V61.0491C111.22 61.0491 118.2 66.6215 118.789 67.0779C119.835 67.9148 120.368 68.1049 121.528 68.1049H122.384V56.0853H119.892ZM90.9081 68.1049H88.664C87.3327 68.1049 86.5149 67.173 86.0204 66.5454C85.4879 65.8417 84.1186 64.054 84.1186 64.054H83.8903H80.5051H80.467V68.124H77.1388V56.1043H80.5051H83.8903C86.4768 56.1043 90.1854 56.3706 90.2044 60.0792C90.2044 62.2282 88.9492 63.2172 87.3897 63.6736L90.9081 68.1049ZM86.591 60.0601C86.591 58.8049 85.7922 58.1773 84.0235 58.1773H80.5051L80.467 58.1583V61.962L80.5051 61.943H84.0235C85.7922 61.943 86.591 61.3154 86.591 60.0601Z" fill="#8E98A8" fill-opacity="0.56"/>
</g>
</g>
</g>
</g>
</g>
<g id="Clip path group_3">
<mask id="mask2_3845_1671" style="mask-type:luminance" maskUnits="userSpaceOnUse" x="0" y="0" width="124" height="124">
<g id="SVGID_2__2">
<path id="Vector_4" d="M124 0H0V124H124V0Z" fill="white"/>
</g>
</mask>
<g mask="url(#mask2_3845_1671)">
<g id="Group_3">
<g id="Clip path group_4">
<mask id="mask3_3845_1671" style="mask-type:luminance" maskUnits="userSpaceOnUse" x="3" y="67" width="24" height="8">
<g id="SVGID_6_">
<path id="Vector_5" d="M25.9601 67.2681C23.4877 70.6533 19.4938 72.8595 14.9865 72.8595C10.4791 72.8595 6.48523 70.6533 4.01284 67.2681H3.74658C5.74351 71.4711 10.0227 74.3619 14.9865 74.3619C19.9503 74.3619 24.2294 71.4521 26.2263 67.2681H25.9601Z" fill="white"/>
</g>
</mask>
<g mask="url(#mask3_3845_1671)">
<path id="Vector_6" d="M26.2263 67.2681H3.74658V74.3619H26.2263V67.2681Z" fill="#8E98A8" fill-opacity="0.56"/>
</g>
</g>
</g>
</g>
</g>
<g id="Clip path group_5">
<mask id="mask4_3845_1671" style="mask-type:luminance" maskUnits="userSpaceOnUse" x="0" y="0" width="124" height="124">
<g id="SVGID_2__3">
<path id="Vector_7" d="M124 0H0V124H124V0Z" fill="white"/>
</g>
</mask>
<g mask="url(#mask4_3845_1671)">
<g id="Group_4">
<g id="Clip path group_6">
<mask id="mask5_3845_1671" style="mask-type:luminance" maskUnits="userSpaceOnUse" x="4" y="52" width="22" height="20">
<g id="SVGID_9_">
<path id="Vector_8" d="M7.05585 54.3356C5.57242 55.4387 4.98285 56.5607 4.77364 57.6068C3.72763 62.7227 13.8454 64.7577 17.7252 66.0319C19.8552 66.7166 20.1405 67.6485 20.1215 68.3902C20.0835 70.1019 17.6681 71.6423 17.6491 71.6423C19.627 71.6043 22.2896 70.4442 23.8871 68.6374C24.4957 67.9528 25.0282 67.0399 25.1614 66.3742C25.7509 63.3123 22.8982 61.7528 19.5319 60.5736C16.9074 59.6607 14.7393 59.0331 12.8945 58.4626C9.96567 57.5687 9.47119 56.7129 9.49021 55.781C9.50923 54.6969 10.6693 53.3276 11.9626 52.5288C11.9436 52.4908 9.50923 52.4908 7.05585 54.3356Z" fill="white"/>
</g>
</mask>
<g mask="url(#mask5_3845_1671)">
<path id="Vector_9" d="M-4.48828 66.9639L20.3878 81.0755L33.9669 57.1504L9.09086 43.0387L-4.48828 66.9639Z" fill="#8E98A8" fill-opacity="0.56"/>
</g>
</g>
</g>
</g>
</g>
<g id="Clip path group_7">
<mask id="mask6_3845_1671" style="mask-type:luminance" maskUnits="userSpaceOnUse" x="0" y="0" width="124" height="124">
<g id="SVGID_2__4">
<path id="Vector_10" d="M124 0H0V124H124V0Z" fill="white"/>
</g>
</mask>
<g mask="url(#mask6_3845_1671)">
<g id="Group_5">
<g id="Clip path group_8">
<mask id="mask7_3845_1671" style="mask-type:luminance" maskUnits="userSpaceOnUse" x="0" y="0" width="124" height="124">
<g id="SVGID_12_">
<path id="Vector_11" d="M124 0H0V124H124V0Z" fill="white"/>
</g>
</mask>
<g mask="url(#mask7_3845_1671)">
<g id="Group_6">
<g id="Group_7">
<g id="Clip path group_9">
<mask id="mask8_3845_1671" style="mask-type:luminance" maskUnits="userSpaceOnUse" x="1" y="45" width="33" height="33">
<g id="SVGID_14_">
<path id="Vector_12" d="M33.0159 45.4349H1.50244V77.1196H33.0159V45.4349Z" fill="white"/>
</g>
</mask>
<g mask="url(#mask8_3845_1671)">
<g id="Group_8">
<g id="Clip path group_10">
<mask id="mask9_3845_1671" style="mask-type:luminance" maskUnits="userSpaceOnUse" x="9" y="52" width="17" height="19">
<g id="SVGID_16_">
<path id="Vector_13" d="M9.29976 55.6098C9.28074 55.7239 9.26172 55.819 9.26172 55.9331V56.0092C9.28074 56.9791 10.2126 57.8349 12.685 58.5957C14.5298 59.1662 16.6979 59.7938 19.3225 60.7067C22.6887 61.8858 25.4654 63.2552 24.8568 66.3361C24.6856 67.1539 23.8488 68.6564 21.8519 70.0638C22.4605 69.7975 23.4114 69.1889 23.9249 68.6184C24.5335 67.9337 25.066 67.0208 25.1991 66.3552C25.2562 66.0889 25.2752 65.8417 25.2752 65.5944V65.5564C25.2562 63.0079 22.6317 61.6196 19.5697 60.5545C16.9452 59.6417 14.7771 59.0141 12.9323 58.4435C10.0034 57.5496 9.50896 56.6938 9.52798 55.7619C9.54699 54.6779 10.7071 53.3085 12.0004 52.5098C10.0985 53.6509 9.4519 54.773 9.29976 55.6098Z" fill="white"/>
</g>
</mask>
<g mask="url(#mask9_3845_1671)">
<path id="Vector_14" d="M33.0157 56.8079L13.2366 45.511L1.69238 65.7466L21.4905 77.0245L33.0157 56.8079Z" fill="#8E98A8" fill-opacity="0.56"/>
</g>
</g>
</g>
</g>
</g>
</g>
</g>
</g>
</g>
<g id="Clip path group_11">
<mask id="mask10_3845_1671" style="mask-type:luminance" maskUnits="userSpaceOnUse" x="0" y="0" width="124" height="124">
<g id="SVGID_12__2">
<path id="Vector_15" d="M124 0H0V124H124V0Z" fill="white"/>
</g>
</mask>
<g mask="url(#mask10_3845_1671)">
<g id="Group_9" opacity="0.8">
<g id="Group_10">
<g id="Clip path group_12">
<mask id="mask11_3845_1671" style="mask-type:luminance" maskUnits="userSpaceOnUse" x="11" y="55" width="19" height="18">
<g id="SVGID_19_">
<path id="Vector_16" d="M29.2502 55.0773H11.2778V72.8214H29.2502V55.0773Z" fill="white"/>
</g>
</mask>
<g mask="url(#mask11_3845_1671)">
<g id="Group_11">
<g id="Clip path group_13">
<mask id="mask12_3845_1671" style="mask-type:luminance" maskUnits="userSpaceOnUse" x="15" y="59" width="11" height="10">
<g id="SVGID_21_">
<path id="Vector_17" d="M15.8041 59.6607C15.4998 59.6607 15.3286 59.7749 15.3286 59.927V59.965C15.3476 60.1742 15.6709 60.4785 16.3936 60.7068C17.1924 60.973 18.2384 61.3344 19.1133 61.6006C21.9851 62.5515 24.6286 63.7497 24.1341 66.7166C24.02 67.3252 23.944 67.5914 23.4685 68.219C23.5446 68.1239 24.8568 67.5534 25.066 66.089C25.0851 65.9368 25.1041 65.7847 25.1041 65.6325V65.5374C25.066 63.046 22.2703 61.7147 19.3035 60.6877C18.5047 60.4025 17.4397 60.0601 16.5458 59.7748C16.2795 59.6988 16.0703 59.6607 15.8801 59.6417H15.8041V59.6607Z" fill="white"/>
</g>
</mask>
<g mask="url(#mask12_3845_1671)">
<g id="Group_12">
<g id="Group_13">
<g id="Clip path group_14">
<mask id="mask13_3845_1671" style="mask-type:luminance" maskUnits="userSpaceOnUse" x="11" y="55" width="19" height="18">
<g id="SVGID_29_">
<path id="Vector_18" d="M29.2502 55.0773H11.2778V72.8214H29.2502V55.0773Z" fill="white"/>
</g>
</mask>
<g mask="url(#mask13_3845_1671)">
<g id="Group_14">
<g id="Clip path group_15">
<mask id="mask14_3845_1671" style="mask-type:luminance" maskUnits="userSpaceOnUse" x="11" y="55" width="19" height="18">
<g id="SVGID_31_">
<path id="Vector_19" d="M17.8314 55.0629L11.2861 65.9518L22.7129 72.8204L29.2582 61.9315L17.8314 55.0629Z" fill="white"/>
</g>
</mask>
<g mask="url(#mask14_3845_1671)">
<path id="Vector_20" d="M16.0516 47.1465L3.44238 68.1048L24.4767 80.752L37.0859 59.7747L16.0516 47.1465Z" fill="#8E98A8" fill-opacity="0.56"/>
</g>
</g>
</g>
</g>
</g>
</g>
</g>
</g>
</g>
</g>
</g>
</g>
</g>
</g>
</g>
</g>
<g id="Clip path group_16">
<mask id="mask15_3845_1671" style="mask-type:luminance" maskUnits="userSpaceOnUse" x="0" y="0" width="124" height="124">
<g id="SVGID_12__3">
<path id="Vector_21" d="M124 0H0V124H124V0Z" fill="white"/>
</g>
</mask>
<g mask="url(#mask15_3845_1671)">
<g id="Group_15" opacity="0.5">
<g id="Group_16">
<g id="Clip path group_17">
<mask id="mask16_3845_1671" style="mask-type:luminance" maskUnits="userSpaceOnUse" x="11" y="57" width="19" height="19">
<g id="SVGID_34_">
<path id="Vector_22" d="M29.4974 57.6638H11.6201V75.5792H29.4974V57.6638Z" fill="white"/>
</g>
</mask>
<g mask="url(#mask16_3845_1671)">
<g id="Group_17">
<g id="Clip path group_18">
<mask id="mask17_3845_1671" style="mask-type:luminance" maskUnits="userSpaceOnUse" x="16" y="61" width="9" height="11">
<g id="SVGID_36_">
<path id="Vector_23" d="M16.4888 65.2521C17.0213 65.4043 17.4967 65.5564 17.9342 65.6705C20.1213 66.2981 20.844 67.211 20.5967 68.5994C20.3305 70.0638 17.9342 71.4521 17.6489 71.6233C19.3225 71.4711 22.1563 70.0257 23.4495 68.238C23.925 67.6104 24.001 67.3251 24.1152 66.7165C24.5906 63.7687 21.9661 62.5515 19.0943 61.6006L16.4888 65.2521Z" fill="white"/>
</g>
</mask>
<g mask="url(#mask17_3845_1671)">
<path id="Vector_24" d="M11.6201 67.7436L21.4717 75.5792L29.4784 65.4994L19.6459 57.6638L11.6201 67.7436Z" fill="#8E98A8" fill-opacity="0.56"/>
</g>
</g>
</g>
</g>
</g>
</g>
</g>
</g>
</g>
<g id="Clip path group_19">
<mask id="mask18_3845_1671" style="mask-type:luminance" maskUnits="userSpaceOnUse" x="0" y="0" width="124" height="124">
<g id="SVGID_12__4">
<path id="Vector_25" d="M124 0H0V124H124V0Z" fill="white"/>
</g>
</mask>
<g mask="url(#mask18_3845_1671)">
<g id="Group_18">
<g id="Group_19">
<g id="Clip path group_20">
<mask id="mask19_3845_1671" style="mask-type:luminance" maskUnits="userSpaceOnUse" x="3" y="57" width="18" height="15">
<g id="SVGID_39_">
<path id="Vector_26" d="M20.8634 57.7399H3.91797V71.6233H20.8634V57.7399Z" fill="white"/>
</g>
</mask>
<g mask="url(#mask19_3845_1671)">
<g id="Group_20">
<g id="Clip path group_21">
<mask id="mask20_3845_1671" style="mask-type:luminance" maskUnits="userSpaceOnUse" x="4" y="57" width="17" height="15">
<g id="SVGID_44_">
<path id="Vector_27" d="M17.7253 66.0129C19.8553 66.6975 20.1406 67.6294 20.1216 68.3712C20.0836 70.0258 17.8204 71.5282 17.6682 71.6233C17.9915 71.4331 20.3498 70.0448 20.6161 68.5994C20.8633 67.211 20.1406 66.2981 17.9535 65.6705C16.8124 65.3472 15.405 64.9288 13.7314 64.4153C12.4382 64.035 10.8026 63.4454 9.26209 62.7797C5.17313 60.973 4.64062 58.7669 4.75473 57.7399C3.91792 62.7607 13.8836 64.7767 17.7253 66.0129Z" fill="white"/>
</g>
</mask>
<g mask="url(#mask20_3845_1671)">
<path id="Vector_28" d="M20.8634 57.7399H3.91797V71.6043H20.8634V57.7399Z" fill="#8E98A8" fill-opacity="0.56"/>
</g>
</g>
</g>
</g>
</g>
</g>
</g>
</g>
</g>
</g>
</g>
</g>
<g id="Clip path group_22">
<mask id="mask21_3845_1671" style="mask-type:luminance" maskUnits="userSpaceOnUse" x="0" y="0" width="124" height="124">
<g id="SVGID_2__5">
<path id="Vector_29" d="M124 0H0V124H124V0Z" fill="white"/>
</g>
</mask>
<g mask="url(#mask21_3845_1671)">
<g id="Group_21">
<g id="Clip path group_23">
<mask id="mask22_3845_1671" style="mask-type:luminance" maskUnits="userSpaceOnUse" x="3" y="49" width="24" height="8">
<g id="SVGID_47_">
<path id="Vector_30" d="M3.74658 56.5987H4.01284C6.48523 53.2134 10.4791 51.0073 14.9865 51.0073C19.4938 51.0073 23.4877 53.2134 25.9601 56.5987H26.2263C24.2294 52.3957 19.9503 49.5049 14.9865 49.5049C10.0417 49.4858 5.74351 52.3957 3.74658 56.5987Z" fill="white"/>
</g>
</mask>
<g mask="url(#mask22_3845_1671)">
<path id="Vector_31" d="M2.89062 49.6L4.08878 59.3374L27.1011 56.4846L25.8839 46.7472L2.89062 49.6Z" fill="#8E98A8" fill-opacity="0.56"/>
</g>
</g>
</g>
</g>
</g>
</g>
</svg>
