<svg width="110" height="23" viewBox="0 0 110 23" fill="none" xmlns="http://www.w3.org/2000/svg">
<g id="layer1">
<g id="g2100">
<path id="path24" d="M95.7191 11.0729C95.8943 11.1188 96.0914 11.252 96.2447 11.3656L110 22.9956H101.239L88.228 11.0729L100.1 0H108.401L96.2447 10.778C96.0914 10.9244 95.8943 11.0227 95.7191 11.0729Z" fill="#8E98A8" fill-opacity="0.56"/>
<path id="path26" d="M53.2695 0C53.2695 0 64.5718 0.00652554 68.1859 0.00652554C75.6988 0.00652554 80.5176 4.9674 80.5176 11.4945C80.5176 18.7753 74.6037 23 68.3392 23C64.5937 23 53.2695 23 53.2695 23V0ZM59.1616 18.1593C59.1616 18.1593 63.4328 18.1636 67.9888 18.1593C72.8733 18.1484 74.757 15.278 74.757 11.4945C74.757 8.04748 73.2675 4.73586 67.6164 4.73148C62.25 4.72713 59.1616 4.73148 59.1616 4.73148V18.1593Z" fill="#8E98A8" fill-opacity="0.56"/>
<path id="path28" d="M26.6348 14.5789L18.2019 9.71858V0L26.6348 14.5789ZM0 14.5789L8.4548 9.71858V0L0 14.5789ZM13.3174 18.1374L4.88452 23H21.7722L13.3174 18.1374ZM18.2019 0H8.4548L13.3174 4.86037L18.2019 0ZM18.2019 9.71858L13.3174 18.1374L19.9761 16.3571L18.2019 9.71858ZM8.4548 9.71858H18.2019L13.3174 4.86037L8.4548 9.71858ZM19.9761 16.3571L21.7722 23L26.6348 14.5789L19.9761 16.3571ZM8.4548 9.71858L13.3174 18.1374L6.6587 16.3571L8.4548 9.71858ZM6.6587 16.3571L4.88452 23L0 14.5789L6.6587 16.3571Z" fill="#8E98A8" fill-opacity="0.56"/>
<path id="path46" d="M51.8897 0H24.7949V4.88441H35.2649V23H41.4417V4.88441H51.8897V0Z" fill="#8E98A8" fill-opacity="0.56"/>
<path id="path48" d="M88.0528 23V0H81.876V23H88.0528Z" fill="#8E98A8" fill-opacity="0.56"/>
</g>
</g>
</svg>
