<?xml version="1.0" encoding="UTF-8" standalone="no"?>
<svg
   xmlns:dc="http://purl.org/dc/elements/1.1/"
   xmlns:cc="http://creativecommons.org/ns#"
   xmlns:rdf="http://www.w3.org/1999/02/22-rdf-syntax-ns#"
   xmlns:svg="http://www.w3.org/2000/svg"
   xmlns="http://www.w3.org/2000/svg"
   xmlns:sodipodi="http://sodipodi.sourceforge.net/DTD/sodipodi-0.dtd"
   xmlns:inkscape="http://www.inkscape.org/namespaces/inkscape"
   inkscape:version="1.0 (4035a4fb49, 2020-05-01)"
   height="2000"
   width="2000"
   sodipodi:docname="CNES 2017 Logo.svg"
   xml:space="preserve"
   viewBox="0 0 2000 2000"
   y="0px"
   x="0px"
   id="Calque_1"
   version="1.1"><metadata
   id="metadata86"><rdf:RDF><cc:Work
       rdf:about=""><dc:format>image/svg+xml</dc:format><dc:type
         rdf:resource="http://purl.org/dc/dcmitype/StillImage" /><dc:title></dc:title></cc:Work></rdf:RDF></metadata><defs
   id="defs84">
	
	
	
	
	
	
	
	
	
	
	
	
	
	
	
	
	
	
	
	
	
	
	
	
	
	
	
	
	
	
	
	
	
	
	
	
	
</defs><sodipodi:namedview
   inkscape:current-layer="Calque_1"
   inkscape:window-maximized="1"
   inkscape:window-y="-11"
   inkscape:window-x="-11"
   inkscape:cy="788.0683"
   inkscape:cx="3213.0917"
   inkscape:zoom="0.18166932"
   fit-margin-bottom="0"
   fit-margin-right="0"
   fit-margin-left="0"
   fit-margin-top="0"
   showgrid="false"
   id="namedview82"
   inkscape:window-height="986"
   inkscape:window-width="1920"
   inkscape:pageshadow="2"
   inkscape:pageopacity="0"
   guidetolerance="10"
   gridtolerance="10"
   objecttolerance="10"
   borderopacity="1"
   bordercolor="#666666"
   pagecolor="#ffffff" />
<style
   id="style2"
   type="text/css">
	.st0{fill:#004F91;}
	.st1{fill:#FFFFFF;}
</style>
<g
   transform="translate(-0.1234,42.358114)"
   id="g475"><path
     style="opacity:1;fill:#004f91;fill-opacity:1;stroke-width:2.78333"
     id="path10-5"
     d="m 786.50257,1108.0899 c -91.85,0 -184.81333,37.8533 -184.81333,174.515 v 185.0917 h 82.10833 v -183.7001 c 0,-92.1283 59.285,-113.2816 102.705,-113.2816 43.42,0 102.705,21.4316 102.705,113.2816 v 183.7001 h 82.1083 v -184.8134 c 0.2784,-136.6617 -92.685,-174.7933 -184.8133,-174.7933"
     class="st1" /><path
     style="opacity:1;fill:#004f91;fill-opacity:1;stroke-width:2.78333"
     id="path12-6"
     d="m 206.4559,1292.9032 c 0,86.84 37.85333,174.7934 174.515,174.7934 h 167 v -61.2334 H 402.12423 c -92.12833,0 -110.22,-70.975 -110.22,-113.56 0,-42.3067 18.09167,-114.395 110.22,-114.395 H 547.9709 v -60.3983 h -167 c -136.66167,0 -174.515,87.9533 -174.515,174.7933"
     class="st1" /><path
     style="opacity:1;fill:#004f91;fill-opacity:1;stroke-width:2.78333"
     id="path14-4"
     d="m 1306.4293,1268.4099 h -198.1734 c 0,-29.7817 1.9484,-106.6017 98.2517,-106.6017 113.8383,-0.2783 99.9217,106.6017 99.9217,106.6017 m -198.4517,52.8833 h 286.1267 c 0,-9.7417 0,-25.885 0,-25.885 0,-155.5883 -102.1484,-187.04 -194.8334,-187.04 -130.5383,0 -178.69,93.2417 -178.69,179.8033 v 5.01 c 0,86.8401 38.1317,174.7934 174.515,174.7934 h 188.71 v -61.2333 h -167.2783 c -76.82,-0.5567 -102.1483,-44.5334 -108.55,-85.4484"
     class="st1" /><path
     style="opacity:1;fill:#004f91;fill-opacity:1;stroke-width:2.78333"
     id="path16-3"
     d="m 1650.1709,1265.6265 h -46.2033 c -43.1417,0 -70.14,-13.6383 -70.14,-44.5333 0,-30.06 21.1533,-42.0283 65.13,-42.585 h 181.4733 v -60.3983 h -180.6383 c -73.48,0 -156.7017,12.2466 -156.7017,102.705 0,98.8083 110.7767,97.4166 143.62,97.4166 h 46.2034 c 43.42,0 70.14,13.6384 70.14,44.5334 0,29.7817 -21.1534,42.0283 -65.13,42.585 h -181.4734 v 60.3983 h 180.6384 c 73.48,0 156.7016,-12.2466 156.7016,-102.705 -0.2783,-99.0867 -111.055,-97.4167 -143.62,-97.4167"
     class="st1" /></g><path
   class="st1"
   d="m 298.56767,1608.7073 c 1.66995,0 2.50492,0.835 2.50492,2.5049 v 11.4113 c 0,1.67 -0.83497,2.7833 -2.50492,2.7833 h -51.21169 c -3.06156,0 -5.56648,0.2783 -7.51476,0.5566 -1.94827,0.5567 -3.61821,1.3916 -4.73151,2.5049 -1.1133,1.1133 -1.94827,2.7833 -2.50492,4.7315 -0.55665,1.9483 -0.83497,4.4532 -0.83497,7.5148 v 16.4211 c 0,3.0616 0.27832,5.5665 0.83497,7.5148 0.55665,1.9483 1.39162,3.6182 2.50492,4.7315 1.1133,1.1133 2.78324,1.9483 4.73151,2.5049 1.94828,0.5567 4.4532,0.835 7.51476,0.835 h 51.21169 c 1.66995,0 2.50492,0.835 2.50492,2.5049 v 11.4113 c 0,1.67 -0.83497,2.5049 -2.50492,2.5049 h -51.76834 c -5.84481,0 -10.85465,-0.5566 -14.75119,-1.6699 -4.17486,-1.1133 -7.23643,-2.7832 -10.01968,-5.2882 -2.50492,-2.5049 -4.45319,-5.5665 -5.56648,-9.463 -1.1133,-3.8965 -1.94827,-8.6281 -1.94827,-13.9162 v -19.761 c 0,-5.5665 0.55664,-10.298 1.94827,-13.9163 1.11329,-3.8965 3.06156,-6.9581 5.56648,-9.463 2.50492,-2.5049 5.84482,-4.1749 10.01968,-5.2882 4.17487,-1.1133 8.90638,-1.6699 14.75119,-1.6699 z"
   id="path18"
   style="fill:#004f91;stroke-width:2.78324;fill-opacity:1" /><path
   class="st1"
   d="m 407.67083,1608.7073 c 1.66995,0 2.78325,0.835 2.78325,2.5049 v 10.8547 c 0,1.6699 -0.83498,2.5049 -2.78325,2.5049 h -50.09839 c -3.06157,0 -5.56649,0.2783 -7.51476,0.835 -1.94827,0.5566 -3.61821,1.3916 -4.73151,2.5049 -1.1133,1.1133 -1.94827,2.7832 -2.50492,4.7315 -0.55665,1.9483 -0.55665,4.4532 -0.55665,7.5148 v 1.1132 h 65.12791 c 1.66994,0 2.50492,0.835 2.50492,2.505 v 9.1847 c 0,1.6699 -0.83498,2.5049 -2.50492,2.5049 H 342.2646 v 1.9483 c 0,3.0615 0.27832,5.5665 0.55665,7.5147 0.55665,1.9483 1.39162,3.6182 2.50492,4.7315 1.1133,1.1133 2.78324,1.9483 4.73151,2.505 1.94827,0.5566 4.45319,0.8349 7.51476,0.8349 h 50.09839 c 1.66995,0 2.78325,0.835 2.78325,2.5049 v 10.8547 c 0,1.6699 -0.83498,2.5049 -2.78325,2.5049 h -50.65504 c -5.84481,0 -10.85465,-0.5566 -14.75119,-1.6699 -4.17487,-1.1133 -7.23643,-2.7833 -10.01968,-5.2882 -2.50492,-2.5049 -4.45319,-5.5665 -5.56649,-9.463 -1.11329,-3.8966 -1.94827,-8.6281 -1.94827,-13.9162 v -19.7611 c 0,-5.5665 0.55665,-10.298 1.94827,-13.9162 1.1133,-3.8965 3.06157,-6.9581 5.56649,-9.463 2.50492,-2.5049 5.84481,-4.1749 10.01968,-5.2882 4.17487,-1.1133 8.90638,-1.6699 14.75119,-1.6699 h 50.65504 z"
   id="path20"
   style="fill:#004f91;stroke-width:2.78324;fill-opacity:1" /><path
   class="st1"
   d="m 456.3776,1608.7073 c 1.94827,0 3.33989,0 4.73151,0.2783 1.1133,0 2.2266,0.5567 3.3399,0.835 0.83497,0.5566 1.94827,1.1133 2.78324,1.9483 0.83497,0.8349 1.94827,1.9482 2.78325,3.6182 l 42.86195,56.2215 c 0.27833,0.5567 0.83497,0.835 1.39162,0.835 h 1.1133 c 0.55665,0 0.83497,-0.2783 0.83497,-1.1133 v -60.1181 c 0,-1.6699 0.83498,-2.5049 2.50492,-2.5049 h 11.96795 c 1.66995,0 2.50492,0.835 2.50492,2.5049 v 65.9629 c 0,4.7315 -0.83497,7.7931 -2.50492,9.463 -1.66994,1.67 -4.17486,2.5049 -7.79308,2.5049 h -10.01968 c -1.66994,0 -3.33989,0 -4.45319,-0.2783 -1.1133,0 -2.22659,-0.5566 -3.06157,-0.835 -0.83497,-0.5566 -1.94827,-1.1133 -2.78324,-1.9482 -0.83497,-0.835 -1.94827,-2.2266 -3.06157,-3.6182 l -42.86196,-56.2216 c -0.55664,-0.5566 -0.83497,-0.8349 -1.39162,-0.8349 h -1.11329 c -0.55665,0 -0.83498,0.2783 -0.83498,1.1133 v 60.118 c 0,1.67 -0.83497,2.5049 -2.50492,2.5049 h -11.96795 c -1.66994,0 -2.78324,-0.8349 -2.78324,-2.5049 v -65.9629 c 0,-4.7315 0.83497,-7.793 2.50492,-9.463 1.66995,-1.6699 4.17487,-2.5049 7.79308,-2.5049 z"
   id="path22"
   style="fill:#004f91;stroke-width:2.78324;fill-opacity:1" /><path
   class="st1"
   d="m 648.1431,1608.7073 c 1.66995,0 2.78325,0.835 2.78325,2.5049 v 11.4113 c 0,1.67 -0.83497,2.7833 -2.78325,2.7833 h -36.18217 v 61.5096 c 0,1.67 -0.83497,2.505 -2.50492,2.505 h -12.52459 c -1.66995,0 -2.50492,-0.835 -2.50492,-2.505 v -61.5096 h -36.18217 c -1.66995,0 -2.50492,-0.835 -2.50492,-2.7833 v -11.4113 c 0,-1.6699 0.83497,-2.5049 2.50492,-2.5049 z"
   id="path24"
   style="fill:#004f91;stroke-width:2.78324;fill-opacity:1" /><path
   class="st1"
   d="m 738.59853,1608.7073 c 8.90638,0 15.02952,1.9483 18.92606,6.1231 3.89654,3.8966 5.84481,10.0197 5.84481,17.8128 v 6.6798 c 0,6.6798 -1.39162,11.6896 -3.89654,15.5861 -2.78324,3.8966 -6.95811,6.4015 -13.08125,7.2365 l 19.76104,24.4925 c 0.27832,0.2783 0.55665,0.835 0.27832,1.67 0,0.8349 -0.83497,1.1133 -1.94827,1.1133 h -14.75119 c -1.1133,0 -1.66995,0 -1.94827,-0.2784 -0.27833,-0.2783 -0.83498,-0.5566 -1.1133,-1.1133 l -18.09109,-23.9359 h -37.01714 v 22.8226 c 0,1.67 -0.83497,2.505 -2.50492,2.505 h -12.5246 c -1.66994,0 -2.78324,-0.835 -2.78324,-2.505 v -74.5909 c 0,-2.2266 1.1133,-3.3399 3.33989,-3.3399 h 61.50969 z m -47.59347,41.192 h 43.97525 c 3.89655,0 6.67979,-0.835 8.34974,-2.5049 1.66994,-1.67 2.50492,-4.1749 2.50492,-7.7931 v -4.7315 c 0,-3.3399 -0.83498,-6.1231 -2.50492,-7.7931 -1.66995,-1.6699 -4.45319,-2.5049 -8.34974,-2.5049 h -42.58363 c -1.11329,0 -1.39162,0.5566 -1.39162,1.3916 z"
   id="path26"
   style="fill:#004f91;stroke-width:2.78324;fill-opacity:1" /><path
   class="st1"
   d="m 869.68932,1608.7073 c 1.66995,0 2.78324,0.835 2.78324,2.5049 v 10.8547 c 0,1.6699 -0.83497,2.5049 -2.78324,2.5049 H 819.3126 c -3.06156,0 -5.56648,0.2783 -7.51475,0.835 -1.94827,0.5566 -3.61822,1.3916 -4.73152,2.5049 -1.1133,1.1133 -1.94827,2.7832 -2.50492,4.7315 -0.55665,1.9483 -0.55665,4.4532 -0.55665,7.5148 v 1.1132 h 65.12791 c 1.66995,0 2.50492,0.835 2.50492,2.505 v 9.1847 c 0,1.6699 -0.83497,2.5049 -2.50492,2.5049 h -65.12791 v 1.9483 c 0,3.0615 0.27833,5.5665 0.55665,7.5147 0.55665,1.9483 1.39162,3.6182 2.50492,4.7315 1.1133,1.1133 2.78325,1.9483 4.73152,2.505 1.94827,0.5566 4.45319,0.8349 7.51475,0.8349 h 50.37672 c 1.66995,0 2.78324,0.835 2.78324,2.5049 v 10.8547 c 0,1.6699 -0.83497,2.5049 -2.78324,2.5049 h -50.65504 c -5.84481,0 -10.85465,-0.5566 -14.75119,-1.6699 -4.17487,-1.1133 -7.23644,-2.7833 -10.01968,-5.2882 -2.50492,-2.5049 -4.45319,-5.5665 -5.56649,-9.463 -1.1133,-3.8966 -1.94827,-8.6281 -1.94827,-13.9162 v -19.7611 c 0,-5.5665 0.55665,-10.298 1.94827,-13.9162 1.1133,-3.8965 3.06157,-6.9581 5.56649,-9.463 2.50492,-2.5049 5.84481,-4.1749 10.01968,-5.2882 4.17486,-1.1133 8.90638,-1.6699 14.75119,-1.6699 h 50.65504 z"
   id="path28"
   style="fill:#004f91;stroke-width:2.78324;fill-opacity:1" /><path
   class="st1"
   d="m 969.05113,1608.7073 c 1.94827,0 3.33989,0 4.73151,0.2783 1.1133,0 2.2266,0.5567 3.33989,0.835 0.83498,0.5566 1.94827,1.1133 2.78325,1.9483 0.83497,0.8349 1.94827,1.9482 2.78324,3.6182 l 42.86198,56.2215 c 0.2783,0.5567 0.835,0.835 1.3916,0.835 h 1.1133 c 0.5566,0 0.835,-0.2783 0.835,-1.1133 v -60.1181 c 0,-1.6699 0.8349,-2.5049 2.5049,-2.5049 h 11.9679 c 1.67,0 2.505,0.835 2.505,2.5049 v 65.9629 c 0,4.7315 -0.835,7.7931 -2.505,9.463 -1.6699,1.67 -4.1748,2.5049 -7.793,2.5049 h -10.0197 c -1.67,0 -3.3399,0 -4.4532,-0.2783 -1.1133,0 -2.2266,-0.5566 -3.0616,-0.835 -0.835,-0.5566 -1.9483,-1.1133 -2.7832,-1.9482 -0.835,-0.835 -1.9483,-2.2266 -3.0616,-3.6182 l -42.86195,-56.2216 c -0.55665,-0.5566 -0.83497,-0.8349 -1.39162,-0.8349 h -1.1133 c -0.55665,0 -0.83497,0.2783 -0.83497,1.1133 v 60.118 c 0,1.67 -0.83497,2.5049 -2.50492,2.5049 h -11.96795 c -1.66995,0 -2.78324,-0.8349 -2.78324,-2.5049 v -65.9629 c 0,-4.7315 0.83497,-7.793 2.50492,-9.463 1.66994,-1.6699 4.17486,-2.5049 7.79308,-2.5049 z"
   id="path30"
   style="fill:#004f91;stroke-width:2.78324;fill-opacity:1" /><path
   class="st1"
   d="m 1124.6345,1608.7073 c 3.0615,0 5.2881,0.5566 7.2364,1.6699 1.9483,1.1133 3.8965,3.6183 5.8448,6.9582 l 38.1304,69.0244 c 0.2784,0.835 0.5567,1.3916 0.2784,1.9483 -0.2784,0.5566 -0.835,0.5566 -1.67,0.5566 h -14.7512 c -1.3916,0 -2.2266,-0.5566 -2.7832,-1.3916 l -8.0714,-14.7512 h -53.9949 l -8.0715,14.7512 c -0.5566,1.1133 -1.3916,1.3916 -2.7832,1.3916 h -15.0295 c -1.1133,0 -1.67,-0.2783 -1.67,-0.5566 -0.2783,-0.5567 0,-1.1133 0.2784,-1.9483 l 37.8521,-69.0244 c 1.9482,-3.3399 3.8965,-5.8449 5.5665,-6.9582 1.9482,-1.1133 3.8965,-1.6699 6.4014,-1.6699 z m -22.5443,50.9334 h 39.522 l -18.3694,-33.6773 c -0.2783,-0.5566 -0.8349,-0.835 -1.3916,-0.835 h -0.835 c -0.5566,0 -0.8349,0.2784 -1.1133,0.835 z"
   id="path32"
   style="fill:#004f91;stroke-width:2.78324;fill-opacity:1" /><path
   class="st1"
   d="m 1270.4764,1608.7073 c 1.67,0 2.7833,0.835 2.7833,2.5049 v 11.4113 c 0,1.67 -0.835,2.7833 -2.7833,2.7833 h -36.1821 v 61.5096 c 0,1.67 -0.835,2.505 -2.5049,2.505 h -12.5246 c -1.67,0 -2.505,-0.835 -2.505,-2.505 v -61.5096 h -36.1821 c -1.67,0 -2.7833,-0.835 -2.7833,-2.7833 v -11.4113 c 0,-1.6699 0.835,-2.5049 2.7833,-2.5049 z"
   id="path34"
   style="fill:#004f91;stroke-width:2.78324;fill-opacity:1" /><path
   class="st1"
   d="m 1310.8335,1608.7073 c 1.6699,0 2.5049,0.835 2.5049,2.5049 v 75.4259 c 0,1.67 -0.835,2.5049 -2.5049,2.5049 h -12.5246 c -1.67,0 -2.7833,-0.8349 -2.7833,-2.5049 v -75.4259 c 0,-1.6699 0.835,-2.5049 2.7833,-2.5049 z"
   id="path36"
   style="fill:#004f91;stroke-width:2.78324;fill-opacity:1" /><path
   class="st1"
   d="m 1407.6904,1608.7073 c 5.8448,0 10.8546,0.5566 15.0295,1.6699 4.1748,1.1133 7.5147,2.7833 10.0197,5.2882 2.5049,2.5049 4.4532,5.5665 5.5664,9.463 1.1133,3.8966 1.67,8.6281 1.67,14.1946 v 19.761 c 0,5.5665 -0.5567,10.298 -1.67,14.1946 -1.1132,3.8965 -3.0615,6.9581 -5.5664,9.463 -2.505,2.5049 -5.8449,4.1748 -10.0197,5.2881 -4.1749,1.1133 -9.1847,1.67 -15.0295,1.67 h -35.6256 c -5.8448,0 -10.8546,-0.5567 -14.7511,-1.67 -4.1749,-1.1133 -7.5148,-2.7832 -10.0197,-5.2881 -2.5049,-2.5049 -4.4532,-5.5665 -5.5665,-9.463 -1.1133,-3.8966 -1.67,-8.6281 -1.67,-14.1946 v -19.761 c 0,-5.5665 0.5567,-10.298 1.67,-14.1946 1.1133,-3.8965 3.0616,-6.9581 5.5665,-9.463 2.5049,-2.5049 5.8448,-4.1749 10.0197,-5.2882 4.1748,-1.1133 8.9063,-1.6699 14.7511,-1.6699 z m -50.0984,48.9851 c 0,3.0616 0.2783,5.5665 0.8349,7.5147 0.5567,1.9483 1.3917,3.6183 2.505,4.7316 1.1133,1.1133 2.7832,1.9482 4.7315,2.5049 1.9483,0.5566 4.4532,0.835 7.5147,0.835 h 33.6773 c 3.0616,0 5.5665,-0.2784 7.5148,-0.835 1.9482,-0.5567 3.6182,-1.3916 4.7315,-2.5049 1.1133,-1.1133 1.9482,-2.7833 2.5049,-4.7316 0.5566,-1.9482 0.835,-4.4531 0.835,-7.5147 v -17.2561 c 0,-3.0616 -0.2784,-5.5665 -0.835,-7.5148 -0.5567,-1.9483 -1.3916,-3.6182 -2.5049,-4.7315 -1.1133,-1.1133 -2.7833,-1.9483 -4.7315,-2.5049 -1.9483,-0.5567 -4.4532,-0.835 -7.5148,-0.835 h -34.2339 c -3.0616,0 -5.5665,0.2783 -7.5148,0.835 -1.9482,0.5566 -3.6182,1.3916 -4.7315,2.5049 -1.1133,1.1133 -1.9483,2.7832 -2.5049,4.7315 -0.5566,1.9483 -0.835,4.4532 -0.835,7.5148 v 17.2561 z"
   id="path38"
   style="fill:#004f91;stroke-width:2.78324;fill-opacity:1" /><path
   class="st1"
   d="m 1487.0128,1608.7073 c 1.9483,0 3.3399,0 4.7315,0.2783 1.1133,0 2.2266,0.5567 3.3399,0.835 0.835,0.5566 1.9483,1.1133 2.7833,1.9483 0.8349,0.8349 1.9482,1.9482 2.7832,3.6182 l 42.862,56.2215 c 0.2783,0.5567 0.8349,0.835 1.3916,0.835 h 1.1133 c 0.5566,0 0.835,-0.2783 0.835,-1.1133 v -60.1181 c 0,-1.6699 0.8349,-2.5049 2.5049,-2.5049 h 11.9679 c 1.67,0 2.5049,0.835 2.5049,2.5049 v 65.9629 c 0,4.7315 -0.8349,7.7931 -2.5049,9.463 -1.6699,1.67 -4.1748,2.5049 -7.7931,2.5049 h -10.0196 c -1.67,0 -3.3399,0 -4.4532,-0.2783 -1.1133,0 -2.2266,-0.5566 -3.0616,-0.835 -0.835,-0.5566 -1.9483,-1.1133 -2.7832,-1.9482 -0.835,-0.835 -1.9483,-2.2266 -3.0616,-3.6182 l -42.862,-56.2216 c -0.5566,-0.5566 -0.8349,-0.8349 -1.3916,-0.8349 h -1.1133 c -0.5566,0 -0.835,0.2783 -0.835,1.1133 v 60.118 c 0,1.67 -0.8349,2.5049 -2.5049,2.5049 h -11.9679 c -1.67,0 -2.7833,-0.8349 -2.7833,-2.5049 v -65.9629 c 0,-4.7315 0.835,-7.793 2.505,-9.463 1.6699,-1.6699 4.1748,-2.5049 7.793,-2.5049 z"
   id="path40"
   style="fill:#004f91;stroke-width:2.78324;fill-opacity:1" /><path
   class="st1"
   d="m 1642.3178,1608.7073 c 2.7833,0 5.2882,0.5566 7.2365,1.6699 1.9482,1.1133 3.8965,3.6183 5.8448,6.9582 l 38.1304,69.0244 c 0.2783,0.835 0.5567,1.3916 0.2783,1.9483 -0.2783,0.5566 -0.8349,0.5566 -1.6699,0.5566 h -14.7512 c -1.3916,0 -2.2266,-0.5566 -2.7832,-1.3916 l -8.0715,-14.7512 h -53.7166 l -8.0714,14.7512 c -0.5566,1.1133 -1.3916,1.3916 -2.7832,1.3916 h -15.0295 c -1.1133,0 -1.67,-0.2783 -1.67,-0.5566 -0.2783,-0.5567 0,-1.1133 0.2784,-1.9483 l 37.8521,-69.0244 c 1.9482,-3.3399 3.8965,-5.8449 5.5665,-6.9582 1.9482,-1.1133 3.8965,-1.6699 6.4014,-1.6699 z m -22.2659,50.9334 h 39.522 l -18.3694,-33.6773 c -0.2783,-0.5566 -0.8349,-0.835 -1.3916,-0.835 h -0.5566 c -0.5567,0 -1.1133,0.2784 -1.3917,0.835 z"
   id="path42"
   style="fill:#004f91;stroke-width:2.78324;fill-opacity:1" /><path
   class="st1"
   d="m 1725.8151,1608.7073 c 1.67,0 2.505,0.835 2.505,2.5049 v 45.9235 c 0,3.0616 0.2783,5.5665 0.8349,7.5148 0.5567,1.9483 1.3917,3.6182 2.505,4.7315 1.1133,1.1133 2.7832,1.9483 4.7315,2.5049 1.9482,0.5567 4.4532,0.835 7.5147,0.835 h 46.7585 c 1.67,0 2.5049,0.835 2.5049,2.5049 v 11.4113 c 0,1.67 -0.8349,2.5049 -2.5049,2.5049 h -47.3151 c -5.8448,0 -10.8547,-0.5566 -14.7512,-1.6699 -4.1749,-1.1133 -7.2364,-2.7832 -10.0197,-5.2882 -2.5049,-2.5049 -4.4532,-5.5665 -5.5665,-9.463 -1.1133,-3.8965 -1.6699,-8.6281 -1.6699,-13.9162 v -47.5935 c 0,-1.6699 0.8349,-2.5049 2.7832,-2.5049 z"
   id="path44"
   style="fill:#004f91;stroke-width:2.78324;fill-opacity:1" /><path
   class="st1"
   d="m 269.90026,1786.5566 c 6.12314,0 11.4113,0.5566 15.86449,1.9483 4.45319,1.3916 8.07141,3.3398 10.85465,5.8448 2.78324,2.7832 5.00984,6.1231 6.40146,10.0196 1.39162,4.1749 1.94827,8.9064 1.94827,14.4729 v 15.5862 c 0,5.5665 -0.55665,10.5763 -1.94827,14.4728 -1.39162,4.1749 -3.33989,7.5148 -6.40146,10.0197 -2.78324,2.7833 -6.40146,4.7315 -10.85465,5.8448 -4.45319,1.3917 -9.74135,1.9483 -15.86449,1.9483 h -53.99493 c -2.2266,0 -3.3399,-1.1133 -3.3399,-3.3399 v -73.4776 c 0,-2.2266 1.1133,-3.3399 3.3399,-3.3399 z m -39.52206,62.9013 c 0,1.1133 0.55664,1.3916 1.39162,1.3916 h 37.85211 c 3.3399,0 6.12314,-0.2783 8.62806,-0.835 2.2266,-0.5566 4.17487,-1.6699 5.56649,-3.0615 1.39162,-1.3916 2.50492,-3.3399 3.06157,-5.5665 0.55665,-2.2266 0.83497,-5.0099 0.83497,-8.6281 v -12.8029 c 0,-3.3399 -0.27832,-6.1231 -0.83497,-8.628 -0.55665,-2.2266 -1.66995,-4.1749 -3.06157,-5.5665 -1.39162,-1.3917 -3.33989,-2.505 -5.56649,-3.0616 -2.22659,-0.5567 -5.28816,-0.835 -8.62806,-0.835 h -37.85211 c -1.1133,0 -1.39162,0.5567 -1.39162,1.67 z"
   id="path46"
   style="fill:#004f91;stroke-width:2.78324;fill-opacity:1" /><path
   class="st1"
   d="m 330.29665,1780.7118 c 1.66995,0 2.50492,0.8349 2.50492,2.5049 v 9.7413 c 0,0.835 0,1.9483 0,2.505 0,0.5566 -0.27832,1.6699 -0.55665,2.7832 l -4.17486,15.5862 c -0.27833,1.1133 -0.55665,1.6699 -1.1133,1.9482 -0.27833,0.2784 -1.1133,0.5567 -1.94827,0.5567 h -4.73152 c -1.94827,0 -2.50492,-0.835 -2.22659,-2.5049 l 3.06157,-17.2561 h -1.94827 c -1.66995,0 -2.78325,-0.835 -2.78325,-2.505 v -11.1329 c 0,-1.67 0.83498,-2.505 2.78325,-2.505 h 11.13297 z"
   id="path48"
   style="fill:#004f91;stroke-width:2.78324;fill-opacity:1" /><path
   class="st1"
   d="m 426.59689,1786.5566 c 1.66995,0 2.50492,0.835 2.50492,2.5049 v 10.8547 c 0,1.6699 -0.83497,2.5049 -2.50492,2.5049 h -50.37671 c -3.06157,0 -5.56649,0.2783 -7.51476,0.8349 -1.94827,0.5567 -3.61822,1.3917 -4.73152,2.505 -1.11329,1.1133 -1.94827,2.7832 -2.50492,4.7315 -0.55665,1.9482 -0.55665,4.4532 -0.55665,7.5147 v 1.1133 h 64.84959 c 1.66994,0 2.50492,0.835 2.50492,2.505 v 9.1847 c 0,1.6699 -0.83498,2.5049 -2.50492,2.5049 h -64.84959 v 1.9482 c 0,3.0616 0.27833,5.5665 0.55665,7.5148 0.55665,1.9483 1.39163,3.6182 2.50492,4.7315 1.1133,1.1133 2.78325,1.9483 4.73152,2.5049 1.94827,0.5567 4.45319,0.835 7.51476,0.835 h 50.37671 c 1.66995,0 2.50492,0.835 2.50492,2.5049 v 10.8547 c 0,1.6699 -0.83497,2.5049 -2.50492,2.5049 h -50.65504 c -5.84481,0 -10.85465,-0.5566 -14.75119,-1.6699 -3.89654,-1.1133 -7.23644,-2.7833 -10.01968,-5.2882 -2.50492,-2.5049 -4.45319,-5.5665 -5.56649,-9.463 -1.11329,-3.8966 -1.66994,-8.6281 -1.66994,-13.9163 v -19.761 c 0,-5.5665 0.55665,-10.298 1.66994,-13.9162 1.1133,-3.8965 3.06157,-6.9581 5.56649,-9.463 2.50492,-2.505 5.84481,-4.1749 10.01968,-5.2882 4.17486,-1.1133 8.90638,-1.6699 14.75119,-1.6699 h 50.65504 z m -21.43098,-25.0492 c 0.83498,0 1.39162,0.2783 1.94827,0.5566 0.27833,0.2784 0.27833,0.835 -0.27832,1.67 l -11.68963,16.9778 c -0.55664,0.8349 -0.83497,1.3916 -1.39162,1.6699 -0.55665,0.2783 -1.1133,0.5567 -1.94827,0.5567 h -8.62805 c -0.83498,0 -1.39163,-0.2784 -1.94828,-0.5567 -0.27832,-0.2783 -0.27832,-0.835 0,-1.6699 l 10.29801,-16.9778 c 0.83497,-1.3916 1.94827,-2.2266 3.61821,-2.2266 z"
   id="path50"
   style="fill:#004f91;stroke-width:2.78324;fill-opacity:1" /><path
   class="st1"
   d="m 529.57691,1786.5566 c 1.66995,0 2.78325,0.835 2.78325,2.5049 v 11.4113 c 0,1.6699 -0.83497,2.7832 -2.78325,2.7832 h -36.18217 v 61.5097 c 0,1.67 -0.83497,2.505 -2.50492,2.505 h -12.52459 c -1.66995,0 -2.50492,-0.835 -2.50492,-2.505 v -61.5097 h -36.18217 c -1.66995,0 -2.50492,-0.8349 -2.50492,-2.7832 v -11.4113 c 0,-1.6699 0.83497,-2.5049 2.50492,-2.5049 z"
   id="path52"
   style="fill:#004f91;stroke-width:2.78324;fill-opacity:1" /><path
   class="st1"
   d="m 557.966,1786.5566 c 1.66995,0 2.50492,0.835 2.50492,2.5049 v 45.9235 c 0,3.0616 0.27833,5.5665 0.83498,7.5148 0.55664,1.9483 1.39162,3.6182 2.50491,4.7315 1.1133,1.1133 2.78325,1.9483 4.73152,2.5049 1.94827,0.5567 4.45319,0.835 7.51476,0.835 h 32.0073 c 3.06157,0 5.56649,-0.2783 7.51476,-0.835 1.94827,-0.5566 3.61822,-1.3916 4.73152,-2.5049 1.11329,-1.1133 1.94827,-2.7832 2.50492,-4.7315 0.55664,-1.9483 0.55664,-4.7315 0.55664,-7.5148 v -45.9235 c 0,-1.6699 0.83498,-2.5049 2.50492,-2.5049 h 12.5246 c 1.66995,0 2.50492,0.835 2.50492,2.5049 v 47.5935 c 0,5.5665 -0.55665,10.298 -1.66995,13.9162 -1.11329,3.8965 -3.06156,6.9581 -5.56648,9.463 -2.50492,2.5049 -5.84482,4.1749 -10.01968,5.2882 -4.17487,1.1133 -9.18471,1.6699 -15.02952,1.6699 h -33.1206 c -5.84481,0 -10.85465,-0.5566 -14.75119,-1.6699 -4.17487,-1.1133 -7.23644,-2.7833 -10.01968,-5.2882 -2.50492,-2.5049 -4.45319,-5.5665 -5.56649,-9.463 -1.1133,-3.8966 -1.66995,-8.6281 -1.66995,-13.9162 v -47.5935 c 0,-1.6699 0.83498,-2.5049 2.78325,-2.5049 z"
   id="path54"
   style="fill:#004f91;stroke-width:2.78324;fill-opacity:1" /><path
   class="st1"
   d="m 712.43604,1786.5566 c 6.12314,0 11.4113,0.5566 15.86449,1.9483 4.45319,1.3916 8.07141,3.3398 10.85465,5.8448 2.78324,2.7832 5.00984,6.1231 6.40146,10.0196 1.39162,4.1749 1.94827,8.9064 1.94827,14.4729 v 15.5862 c 0,5.5665 -0.55665,10.5763 -1.94827,14.4728 -1.39162,4.1749 -3.33989,7.5148 -6.40146,10.0197 -2.78324,2.7833 -6.40146,4.7315 -10.85465,5.8448 -4.45319,1.3917 -9.74135,1.9483 -15.86449,1.9483 h -53.99493 c -2.2266,0 -3.3399,-1.1133 -3.3399,-3.3399 v -73.4776 c 0,-2.2266 1.1133,-3.3399 3.3399,-3.3399 z m -39.80039,62.9013 c 0,1.1133 0.55665,1.3916 1.39162,1.3916 h 37.85212 c 3.33989,0 6.12314,-0.2783 8.62806,-0.835 2.22659,-0.5566 4.17486,-1.6699 5.56648,-3.0615 1.39163,-1.3916 2.50492,-3.3399 3.06157,-5.5665 0.55665,-2.2266 0.83498,-5.0099 0.83498,-8.6281 v -12.8029 c 0,-3.3399 -0.27833,-6.1231 -0.83498,-8.628 -0.55665,-2.2266 -1.66994,-4.1749 -3.06157,-5.5665 -1.39162,-1.3917 -3.33989,-2.505 -5.56648,-3.0616 -2.2266,-0.5567 -5.28817,-0.835 -8.62806,-0.835 h -37.85212 c -1.11329,0 -1.39162,0.5567 -1.39162,1.67 z"
   id="path56"
   style="fill:#004f91;stroke-width:2.78324;fill-opacity:1" /><path
   class="st1"
   d="m 843.2485,1786.5566 c 1.66995,0 2.78325,0.835 2.78325,2.5049 v 10.8547 c 0,1.6699 -0.83498,2.5049 -2.78325,2.5049 h -50.37671 c -3.06157,0 -5.56649,0.2783 -7.51476,0.8349 -1.94827,0.5567 -3.61822,1.3917 -4.73152,2.505 -1.11329,1.1133 -1.94827,2.7832 -2.50491,4.7315 -0.55665,1.9482 -0.55665,4.4532 -0.55665,7.5147 v 1.1133 h 65.1279 c 1.66995,0 2.50492,0.835 2.50492,2.505 v 9.1847 c 0,1.6699 -0.83497,2.5049 -2.50492,2.5049 h -64.84958 v 1.9482 c 0,3.0616 0.27833,5.5665 0.55665,7.5148 0.55665,1.9483 1.39162,3.6182 2.50492,4.7315 1.1133,1.1133 2.78324,1.9483 4.73151,2.5049 1.94827,0.5567 4.45319,0.835 7.51476,0.835 h 50.37672 c 1.66994,0 2.78324,0.835 2.78324,2.5049 v 10.8547 c 0,1.6699 -0.83497,2.5049 -2.78324,2.5049 h -50.65504 c -5.84481,0 -10.85465,-0.5566 -14.75119,-1.6699 -4.17487,-1.1133 -7.23644,-2.7833 -10.01968,-5.2882 -2.50492,-2.5049 -4.45319,-5.5665 -5.56649,-9.463 -1.1133,-3.8966 -1.94827,-8.6281 -1.94827,-13.9163 v -19.761 c 0,-5.5665 0.55665,-10.298 1.94827,-13.9162 1.1133,-3.8965 3.06157,-6.9581 5.56649,-9.463 2.50492,-2.505 5.84481,-4.1749 10.01968,-5.2882 4.17486,-1.1133 8.90638,-1.6699 14.75119,-1.6699 h 50.37671 z"
   id="path58"
   style="fill:#004f91;stroke-width:2.78324;fill-opacity:1" /><path
   class="st1"
   d="m 938.71377,1786.5566 c 1.66994,0 2.50492,0.835 2.50492,2.5049 v 10.8547 c 0,1.6699 -0.83498,2.5049 -2.50492,2.5049 h -57.61315 c -2.2266,0 -3.89654,0.5566 -4.73152,1.6699 -0.83497,1.1133 -1.39162,2.7833 -1.39162,4.7315 v 3.8966 c 0,4.1748 1.94827,6.4014 5.84482,6.4014 h 43.14028 c 6.67978,0 11.68962,1.67 15.02951,5.0099 3.3399,3.3399 5.00984,8.3497 5.00984,14.7512 v 9.1847 c 0,5.5665 -1.66994,10.0196 -5.00984,13.6379 -3.33989,3.3399 -8.34973,5.2881 -15.30784,5.2881 h -63.73628 c -1.66995,0 -2.78325,-0.8349 -2.78325,-2.5049 v -10.8546 c 0,-1.67 0.83498,-2.505 2.78325,-2.505 h 60.39639 c 2.22659,0 3.89654,-0.5566 4.73151,-1.6699 0.83498,-1.1133 1.39162,-2.7833 1.39162,-4.7315 v -4.7315 c 0,-4.1749 -1.94827,-6.4015 -6.12313,-6.4015 h -43.14028 c -6.67979,0 -11.68963,-1.6699 -15.02952,-5.0098 -3.33989,-3.3399 -5.00984,-8.3498 -5.00984,-14.7512 v -8.3498 c 0,-5.5664 1.66995,-10.0196 5.00984,-13.6379 3.33989,-3.3398 8.34973,-5.2881 15.30784,-5.2881 z"
   id="path60"
   style="fill:#004f91;stroke-width:2.78324;fill-opacity:1" /><path
   class="st1"
   d="m 1074.8144,1786.5566 c 1.6699,0 2.5049,0.835 2.5049,2.5049 v 10.8547 c 0,1.6699 -0.835,2.5049 -2.5049,2.5049 h -57.6132 c -2.2265,0 -3.8965,0.5566 -4.7315,1.6699 -0.8349,1.1133 -1.3916,2.7833 -1.3916,4.7315 v 3.8966 c 0,4.1748 1.9483,6.4014 5.8448,6.4014 h 43.1403 c 6.6798,0 11.6896,1.67 15.0295,5.0099 3.3399,3.3399 5.0099,8.3497 5.0099,14.7512 v 9.1847 c 0,5.5665 -1.67,10.0196 -5.0099,13.6379 -3.3399,3.3399 -8.3497,5.2881 -15.3078,5.2881 h -63.73631 c -1.66994,0 -2.50492,-0.8349 -2.50492,-2.5049 v -10.8546 c 0,-1.67 0.83498,-2.505 2.50492,-2.505 h 60.39641 c 2.2266,0 3.8965,-0.5566 4.7315,-1.6699 0.835,-1.1133 1.3916,-2.7833 1.3916,-4.7315 v -4.7315 c 0,-4.1749 -1.9482,-6.4015 -6.1231,-6.4015 h -43.1403 c -6.6798,0 -11.6896,-1.6699 -15.02951,-5.0098 -3.3399,-3.3399 -5.00984,-8.3498 -5.00984,-14.7512 v -8.3498 c 0,-5.5664 1.66994,-10.0196 5.00984,-13.6379 3.33991,-3.3398 8.34971,-5.2881 15.30781,-5.2881 z"
   id="path62"
   style="fill:#004f91;stroke-width:2.78324;fill-opacity:1" /><path
   class="st1"
   d="m 1158.3117,1786.5566 c 8.9064,0 15.0295,1.9483 18.9261,6.1231 3.8965,3.8966 5.8448,10.0197 5.8448,17.8128 v 8.628 c 0,7.7931 -1.9483,13.6379 -5.8448,17.8128 -3.8966,3.8965 -10.0197,6.1231 -18.9261,6.1231 h -47.5935 v 21.9877 c 0,1.6699 -0.8349,2.5049 -2.5049,2.5049 h -12.5246 c -1.6699,0 -2.7832,-0.835 -2.7832,-2.5049 v -74.591 c 0,-2.2266 1.1133,-3.3399 3.3399,-3.3399 h 62.0663 z m -47.5935,40.6353 h 43.9753 c 3.8965,0 6.6798,-0.8349 8.3497,-2.5049 1.67,-1.6699 2.5049,-4.1748 2.5049,-7.7931 v -4.4532 c 0,-3.3398 -0.8349,-6.1231 -2.5049,-7.793 -1.6699,-1.67 -4.4532,-2.505 -8.3497,-2.505 h -42.5836 c -1.1133,0 -1.3917,0.5567 -1.3917,1.3917 z"
   id="path64"
   style="fill:#004f91;stroke-width:2.78324;fill-opacity:1" /><path
   class="st1"
   d="m 1233.4593,1786.5566 c 3.0616,0 5.2882,0.5566 7.2364,1.6699 1.9483,1.1133 3.8966,3.6182 5.8448,6.9581 l 38.1305,69.0245 c 0.2783,0.835 0.5566,1.3916 0.2783,1.9483 -0.2783,0.5566 -0.835,0.5566 -1.6699,0.5566 h -14.7512 c -1.3917,0 -2.2266,-0.5566 -2.7833,-1.3916 l -8.0714,-14.7512 h -53.9949 l -8.0714,14.7512 c -0.5567,1.1133 -1.3916,1.3916 -2.7833,1.3916 h -15.0295 c -1.1133,0 -1.6699,-0.2783 -1.6699,-0.5566 -0.2784,-0.5567 0,-1.1133 0.2783,-1.9483 l 37.8521,-69.0245 c 1.9483,-3.3399 3.8966,-5.8448 5.5665,-6.9581 1.9483,-1.1133 3.8965,-1.6699 6.4015,-1.6699 z m -22.266,50.655 h 39.5221 l -18.3694,-33.6772 c -0.2783,-0.5567 -0.835,-0.835 -1.3916,-0.835 h -0.835 c -0.5566,0 -0.835,0.2783 -1.1133,0.835 z"
   id="path66"
   style="fill:#004f91;stroke-width:2.78324;fill-opacity:1" /><path
   class="st1"
   d="m 1366.4984,1786.5566 c 1.6699,0 2.7832,0.835 2.7832,2.5049 v 11.4113 c 0,1.6699 -0.835,2.7832 -2.7832,2.7832 h -36.1822 v 61.5097 c 0,1.67 -0.835,2.505 -2.5049,2.505 h -12.5246 c -1.67,0 -2.505,-0.835 -2.505,-2.505 v -61.5097 h -36.1821 c -1.67,0 -2.5049,-0.8349 -2.5049,-2.7832 v -11.4113 c 0,-1.6699 0.8349,-2.5049 2.5049,-2.5049 z"
   id="path68"
   style="fill:#004f91;stroke-width:2.78324;fill-opacity:1" /><path
   class="st1"
   d="m 1394.0525,1786.5566 c 1.6699,0 2.5049,0.835 2.5049,2.5049 v 75.4259 c 0,1.67 -0.835,2.5049 -2.5049,2.5049 h -12.2463 c -1.6699,0 -2.7832,-0.8349 -2.7832,-2.5049 v -75.4259 c 0,-1.6699 0.8349,-2.5049 2.7832,-2.5049 z"
   id="path70"
   style="fill:#004f91;stroke-width:2.78324;fill-opacity:1" /><path
   class="st1"
   d="m 1462.5203,1786.5566 c 3.0615,0 5.2881,0.5566 7.2364,1.6699 1.9483,1.1133 3.8965,3.6182 5.8448,6.9581 l 38.1305,69.0245 c 0.2783,0.835 0.5566,1.3916 0.2783,1.9483 -0.2783,0.5566 -0.835,0.5566 -1.67,0.5566 h -14.7512 c -1.3916,0 -2.2266,-0.5566 -2.5049,-1.3916 l -8.0714,-14.7512 h -53.9949 l -8.0714,14.7512 c -0.5567,1.1133 -1.3916,1.3916 -2.7833,1.3916 h -15.0295 c -1.1133,0 -1.6699,-0.2783 -1.6699,-0.5566 -0.2784,-0.5567 0,-1.1133 0.2783,-1.9483 l 37.8521,-69.0245 c 1.9483,-3.3399 3.8966,-5.8448 5.5665,-6.9581 1.9483,-1.1133 3.8965,-1.6699 6.4015,-1.6699 z m -22.266,50.655 h 39.5221 l -18.3694,-33.6772 c -0.2784,-0.5567 -0.835,-0.835 -1.3916,-0.835 h -0.5567 c -0.5566,0 -0.835,0.2783 -1.3916,0.835 z"
   id="path72"
   style="fill:#004f91;stroke-width:2.78324;fill-opacity:1" /><path
   class="st1"
   d="m 1533.493,1786.5566 c 1.6699,0 2.5049,0.835 2.5049,2.5049 v 45.9235 c 0,3.0616 0.2783,5.5665 0.835,7.5148 0.5566,1.9483 1.3916,3.6182 2.5049,4.7315 1.1133,1.1133 2.7832,1.9483 4.7315,2.5049 1.9483,0.5567 4.4532,0.835 7.5148,0.835 h 46.4801 c 1.67,0 2.505,0.835 2.505,2.5049 v 11.4113 c 0,1.67 -0.835,2.5049 -2.505,2.5049 h -47.3151 c -5.8448,0 -10.8546,-0.5566 -14.7512,-1.6699 -4.1749,-1.1133 -7.2364,-2.7833 -10.0197,-5.2882 -2.5049,-2.5049 -4.4532,-5.5665 -5.5665,-9.463 -1.1133,-3.8966 -1.9482,-8.6281 -1.9482,-13.9162 v -47.5935 c 0,-1.6699 0.8349,-2.5049 2.7832,-2.5049 z"
   id="path74"
   style="fill:#004f91;stroke-width:2.78324;fill-opacity:1" /><path
   class="st1"
   d="m 1692.1379,1786.5566 c 1.6699,0 2.7832,0.835 2.7832,2.5049 v 10.8547 c 0,1.6699 -0.8349,2.5049 -2.7832,2.5049 h -50.3767 c -3.0616,0 -5.5665,0.2783 -7.5148,0.8349 -1.9483,0.5567 -3.6182,1.3917 -4.7315,2.505 -1.1133,1.1133 -1.9483,2.7832 -2.5049,4.7315 -0.5567,1.9482 -0.5567,4.4532 -0.5567,7.5147 v 1.1133 h 65.1279 c 1.67,0 2.505,0.835 2.505,2.505 v 9.1847 c 0,1.6699 -0.835,2.5049 -2.505,2.5049 h -65.1279 v 1.9482 c 0,3.0616 0.2784,5.5665 0.5567,7.5148 0.5566,1.9483 1.3916,3.6182 2.5049,4.7315 1.1133,1.1133 2.7832,1.9483 4.7315,2.5049 1.9483,0.5567 4.4532,0.835 7.5148,0.835 h 50.3767 c 1.6699,0 2.7832,0.835 2.7832,2.5049 v 10.8547 c 0,1.6699 -0.8349,2.5049 -2.7832,2.5049 h -50.655 c -5.8449,0 -10.8547,-0.5566 -14.7512,-1.6699 -4.1749,-1.1133 -7.2365,-2.7833 -10.0197,-5.2882 -2.5049,-2.5049 -4.4532,-5.5665 -5.5665,-9.463 -1.1133,-3.8966 -1.9483,-8.6281 -1.9483,-13.9163 v -19.761 c 0,-5.5665 0.5567,-10.298 1.9483,-13.9162 1.1133,-3.8965 3.0616,-6.9581 5.5665,-9.463 2.5049,-2.505 5.8448,-4.1749 10.0197,-5.2882 4.1748,-1.1133 8.9063,-1.6699 14.7512,-1.6699 h 50.655 z"
   id="path76"
   style="fill:#004f91;stroke-width:2.78324;fill-opacity:1" /><path
   class="st1"
   d="m 1787.6032,1786.5566 c 1.6699,0 2.5049,0.835 2.5049,2.5049 v 10.8547 c 0,1.6699 -0.835,2.5049 -2.5049,2.5049 h -57.8915 c -2.2266,0 -3.8966,0.5566 -4.7315,1.6699 -0.835,1.1133 -1.3917,2.7833 -1.3917,4.7315 v 3.8966 c 0,4.1748 1.9483,6.4014 5.8449,6.4014 h 43.1402 c 6.6798,0 11.6897,1.67 15.0296,5.0099 3.3399,3.3399 5.0098,8.3497 5.0098,14.7512 v 9.1847 c 0,5.5665 -1.6699,10.0196 -5.0098,13.6379 -3.3399,3.3399 -8.3498,5.2881 -15.3079,5.2881 h -63.7363 c -1.6699,0 -2.5049,-0.8349 -2.5049,-2.5049 v -10.8546 c 0,-1.67 0.835,-2.505 2.5049,-2.505 h 60.3964 c 2.2266,0 3.8966,-0.5566 4.7315,-1.6699 0.835,-1.1133 1.3917,-2.7833 1.3917,-4.7315 v -4.7315 c 0,-4.1749 -1.9483,-6.4015 -6.1232,-6.4015 h -43.1403 c -6.6797,0 -11.6896,-1.6699 -15.0295,-5.0098 -3.3399,-3.3399 -5.0098,-8.3498 -5.0098,-14.7512 v -8.3498 c 0,-5.5664 1.6699,-10.0196 5.0098,-13.6379 3.3399,-3.3398 8.3498,-5.2881 15.3079,-5.2881 z"
   id="path78"
   style="fill:#004f91;stroke-width:2.78324;fill-opacity:1" />

<path
   class="st1"
   d="m 1198.7301,894.10304 c -109.1068,-1.67 -230.73848,-96.02502 -230.73848,-251.05669 V 128.96469 h -36.1833 v 273.87999 c -157.25833,34.235 -274.43667,164.495 -274.43667,320.36167 0,181.75169 158.92837,328.98995 355.70995,328.98995 149.465,0 276.9418,-85.72666 329.5468,-206.80162 -33.6783,29.22496 -91.2933,49.54336 -143.8983,48.70836"
   id="path6-6"
   style="fill:#004f91;fill-opacity:1;stroke-width:2.78333" /><path
   class="st1"
   d="m 1019.4676,394.21635 c 15.03,-1.94834 197.3383,0.55666 303.6617,161.71166 35.905,54.275 0.835,122.18834 -107.1584,125.80667 -38.41,1.11334 -176.185,-33.67833 -196.5033,-287.51833"
   id="path8-5"
   style="fill:#004f91;fill-opacity:1;stroke-width:2.78333" /></svg>
