<?xml version="1.0" encoding="UTF-8" standalone="no"?>
<!-- Created with Inkscape (http://www.inkscape.org/) -->

<svg
   version="1.1"
   id="svg2"
   width="2900.3623"
   height="1036.228"
   viewBox="0 0 2900.3623 1036.228"
   sodipodi:docname="Engie.svg"
   inkscape:version="0.92.4 (5da689c313, 2019-01-14)"
   inkscape:export-filename="/home/fhaudin/dev/new.quantstack.github.io/static/img/logos/Engie.png"
   inkscape:export-xdpi="96"
   inkscape:export-ydpi="96"
   xmlns:inkscape="http://www.inkscape.org/namespaces/inkscape"
   xmlns:sodipodi="http://sodipodi.sourceforge.net/DTD/sodipodi-0.dtd"
   xmlns="http://www.w3.org/2000/svg"
   xmlns:svg="http://www.w3.org/2000/svg"
   xmlns:rdf="http://www.w3.org/1999/02/22-rdf-syntax-ns#"
   xmlns:cc="http://creativecommons.org/ns#"
   xmlns:dc="http://purl.org/dc/elements/1.1/">
  <metadata
     id="metadata8">
    <rdf:RDF>
      <cc:Work
         rdf:about="">
        <dc:format>image/svg+xml</dc:format>
        <dc:type
           rdf:resource="http://purl.org/dc/dcmitype/StillImage" />
      </cc:Work>
    </rdf:RDF>
  </metadata>
  <defs
     id="defs6" />
  <sodipodi:namedview
     pagecolor="#ffffff"
     bordercolor="#666666"
     borderopacity="1"
     objecttolerance="10"
     gridtolerance="10"
     guidetolerance="10"
     inkscape:pageopacity="0"
     inkscape:pageshadow="2"
     inkscape:window-width="1920"
     inkscape:window-height="1001"
     id="namedview4"
     showgrid="false"
     fit-margin-top="0"
     fit-margin-left="0"
     fit-margin-right="0"
     fit-margin-bottom="0"
     inkscape:pagecheckerboard="true"
     inkscape:zoom="0.35355339"
     inkscape:cx="1424.5562"
     inkscape:cy="632.51134"
     inkscape:window-x="-9"
     inkscape:window-y="-9"
     inkscape:window-maximized="1"
     inkscape:current-layer="svg2" />
  <g
     id="g60"
     transform="translate(3.0702648)">
    <path
       inkscape:connector-curvature="0"
       id="path28-0"
       d="M 23.559937,395.20941 C 137.43474,321.57624 280.41934,248.52361 419.07584,193.1354 688.46534,85.524219 965.92344,24.657866 1279.8812,4.2993804 1340.4777,0.37004566 1557.3655,0.34034858 1618.6241,4.2531174 2031.5844,30.629563 2408.8039,135.17906 2738.468,314.62713 c 60.6769,33.02858 159.7501,92.93721 157.4679,95.2194 -0.507,0.50679 -16.4175,-3.88559 -35.3573,-9.76082 -275.5343,-85.47229 -555.6438,-140.29483 -859.3744,-168.19525 -188.0797,-17.27686 -259.4563,-20.47758 -491.1421,-22.02431 -291.2299,-1.94422 -418.1327,2.95409 -640.65746,24.72868 -288.5533,28.2357 -575.2583,84.84758 -819.669203,161.84947 -25.4204,8.00869 -47.1675002,14.53663 -48.3269002,14.50649 -1.15950002,-0.0306 8.8087002,-7.11369 22.1514002,-15.74132 z"
       style="fill:#00a9fe;fill-opacity:1;stroke:#00a9fe;stroke-width:2.65680671;stroke-opacity:1" />
    <path
       inkscape:connector-curvature="0"
       id="path32-1"
       d="m 716.68774,1024.0636 c -4.8308,-3.2878 -11.2589,-9.3192 -14.2847,-13.4032 -5.4459,-7.3505 -5.502,-9.403 -5.5578,-203.24575 -0.061,-211.27442 -0.3331,-206.89888 14.0463,-225.84099 10.8786,-14.33038 26.7405,-21.97029 49.13,-23.6636 34.6131,-2.6178 26.5266,-8.10274 181.7605,123.28495 167.51456,141.78176 170.22686,143.70854 190.41916,135.27164 5.0541,-2.11172 11.1165,-6.78073 13.4719,-10.37554 2.8075,-4.28485 9.2908,-39.82048 18.8233,-103.17319 7.9975,-53.15042 16.3042,-102.72545 18.4595,-110.16669 7.06,-24.37545 20.5584,-35.62136 42.756,-35.62136 15.8014,0 28.7708,7.77356 35.7308,21.41632 5.0592,9.91696 5.2293,16.43011 5.1776,198.32858 -0.031,103.44117 -1.1458,195.6294 -2.4808,204.86268 -1.6353,11.30927 -4.7027,19.77065 -9.3994,25.92835 -13.6291,17.8687 -41.4404,26.0353 -67.4301,19.8005 -15.921,-3.8194 -27.6072,-13.5228 -173.0329,-143.67546 C 907.21494,787.97266 881.95414,766.47249 869.48944,760.55757 c -23.1184,-10.9704 -47.7969,0.94343 -54.1251,26.12944 -1.5041,5.98613 -8.2127,43.76183 -14.908,83.94602 -23.5926,141.59867 -24.3089,144.10557 -44.0513,154.17737 -13.7397,7.0095 -28.7353,6.7275 -39.7173,-0.7468 z"
       style="fill:#00a9fe;fill-opacity:1;stroke:#00a9fe;stroke-width:2.65680671;stroke-opacity:1" />
    <path
       inkscape:connector-curvature="0"
       id="path34-1"
       d="m 1613.387,1032.5636 c -27.9074,-2.7144 -78.8597,-14.252 -107.3918,-24.3176 -70.9957,-25.04595 -124.8101,-67.97003 -150.3025,-119.88603 -17.1545,-34.9356 -21.0686,-52.24882 -21.1258,-93.44591 -0.051,-36.72001 2.7936,-53.1992 13.7349,-79.56714 35.7027,-86.04196 132.7031,-146.76013 263.7568,-165.10058 45.1238,-6.3149 163.9358,-4.08442 208.5593,3.91536 61.6977,11.06068 87.9712,20.70236 97.0677,35.62121 9.9094,16.25209 3.6947,36.89398 -13.8374,45.96019 -9.2074,4.7613 -27.5453,4.48763 -96.5143,-1.44025 -66.3597,-5.70361 -148.0424,-1.86405 -190.734,8.96555 -85.1612,21.60291 -137.1705,65.99963 -148.0261,126.3596 -14.5844,81.09316 64.2975,155.49321 183.3101,172.89515 27.1429,3.96883 83.8206,1.83054 111.3352,-4.20038 47.0695,-10.3171 85.0319,-28.91424 110.5082,-54.13597 16.2525,-16.09017 21.5345,-27.64532 17.4943,-38.27177 -6.0162,-15.82371 -19.3149,-18.18217 -138.3523,-24.53578 -83.1802,-4.43976 -97.4638,-6.34565 -108.972,-14.54013 -15.0028,-10.68299 -17.6295,-38.58246 -4.9142,-52.19501 13.6589,-14.62256 8.3757,-14.19575 175.525,-14.17976 105.2604,0.0102 158.2933,0.95935 165.5094,2.96263 13.8622,3.84834 31.7067,21.69285 35.555,35.55499 3.6684,13.21383 3.8458,49.02381 0.3371,68.04137 -5.8827,31.88555 -35.0617,78.33381 -67.7343,107.82202 -45.1466,40.74647 -121.8478,71.28804 -195.3061,77.76874 -34.6822,3.0598 -107.778,3.0333 -139.4823,-0.05 z"
       style="fill:#00a9fe;fill-opacity:1;stroke:#00a9fe;stroke-width:2.65680671;stroke-opacity:1" />
    <path
       inkscape:connector-curvature="0"
       id="path36-5"
       d="m 2120.5834,1024.9832 c -11.9174,-5.4123 -20.2599,-16.7568 -24.6098,-33.46548 -7.1767,-27.56688 -22.4184,-213.29247 -21.069,-256.73412 l 0.7667,-24.68164 9.2989,-2.00205 c 10.8236,-2.33032 116.8133,-18.12971 121.6225,-18.12971 4.7996,0 4.1455,39.19977 -2.0836,124.86991 -8.5138,117.09313 -15.1719,176.75234 -20.9925,188.10209 -12.6751,24.7157 -37.7255,33.4891 -62.9332,22.041 z"
       style="fill:#00a9fe;fill-opacity:1;stroke:#00a9fe;stroke-width:2.65680671;stroke-opacity:1" />
    <path
       inkscape:connector-curvature="0"
       id="path38-4"
       d="m 2070.0615,651.21225 c -2.448,-9.75387 1.3751,-56.46547 5.4093,-66.09065 10.5121,-25.08101 33.8079,-38.56705 66.6207,-38.56705 35.9583,0 60.1874,16.20811 69.1533,46.26022 5.681,19.04198 5.2154,40.47627 -0.9508,43.77638 -5.9662,3.19297 -115.7974,21.49735 -128.99,21.49735 -8.0218,0 -9.7877,-1.08008 -11.2425,-6.87625 z"
       style="fill:#00a9fe;fill-opacity:1;stroke:#00a9fe;stroke-width:2.65680671;stroke-opacity:1" />
  </g>
  <path
     style="fill:#00a9fe;fill-opacity:1;stroke:#00a9fe;stroke-width:2.13532734;stroke-opacity:1"
     d="m 298.06236,1032.7784 c -30.4827,-2.5061 -79.5014,-12.7471 -111.3777,-23.2717 C 81.074865,974.63771 16.374165,910.46341 2.9542648,827.27451 c -3.72040001,-23.0633 -1.6058,-72.6114 3.9937,-93.5445 25.1906002,-94.1833 105.5284952,-159.8864 226.7138952,-185.4147 26.9972,-5.6868 81.2139,-8.1108 136.6609,-6.1087 40.463,1.4691 69.40665,6.8365 102.86068,19.1035 96.7276,35.472 156.54427,117.5301 145.06766,199.0124 -3.57881,25.407 -12.34305,40.2655 -29.05736,49.2612 -8.4313,4.5372 -10.18312,4.6038 -135.90393,5.2085 -70.04925,0.3416 -138.94255,-0.2221 -153.09635,-1.2299 -22.6939,-1.6229 -26.6986,-2.5129 -33.8994,-7.5045 -11.2262,-7.7794 -15.5496,-15.9124 -15.5496,-29.2505 0,-21.3482 11.5645,-34.2985 34.2561,-38.3608 6.4093,-1.1445 45.6798,-3.5787 87.2674,-5.4031 100.88524,-4.4279 112.10834,-6.2011 120.51882,-19.0369 16.20403,-24.7306 -20.49985,-60.3427 -78.68992,-76.3491 -15.5238,-4.2706 -22.0516,-4.6994 -71.5334,-4.7114 -60.0264,-0.015 -71.5859,1.5375 -102.1827,13.7635 -45.5612,18.1981 -74.3729,42.6929 -91.9742,78.1923 -8.8773,17.9026 -12.9006,36.3962 -12.9383,59.4714 -0.051,34.4949 10.5674,60.452 34.8871,85.2371 43.8408,44.683 121.7654,69.8064 226.6588,73.0778 45.85945,1.4349 80.78128,-0.9908 132.39041,-9.1837 41.45012,-6.5785 58.14906,-6.2214 66.3289,1.4179 9.15851,8.5567 12.18674,16.413 11.14915,28.926 -1.73799,20.9587 -13.56309,30.5933 -52.92179,43.12169 -73.12813,23.275 -169.02777,32.9455 -255.89847,25.8067 z"
     id="path38-1"
     inkscape:connector-curvature="0" />
  <path
     style="fill:#00a9fe;fill-opacity:1;stroke:#00a9fe;stroke-width:2.13532734;stroke-opacity:1"
     d="m 2555.6384,1032.5654 c -30.4827,-2.5061 -79.5014,-12.7471 -111.3777,-23.2717 -105.6099,-34.86899 -170.3106,-99.04329 -183.7305,-182.23219 -3.7204,-23.0633 -1.6058,-72.6114 3.9937,-93.5445 25.1906,-94.1833 105.5285,-159.8864 226.714,-185.4147 26.9972,-5.6868 81.2139,-8.1108 136.6609,-6.1087 40.463,1.4691 69.4067,6.8365 102.8607,19.1035 96.7276,35.472 156.5443,117.5301 145.0676,199.0124 -3.5788,25.407 -12.343,40.2655 -29.0573,49.2612 -8.4313,4.5372 -10.1831,4.6038 -135.9039,5.2085 -70.0493,0.3416 -138.9426,-0.2221 -153.0964,-1.2299 -22.6939,-1.6229 -26.6986,-2.5129 -33.8994,-7.5045 -11.2262,-7.7794 -15.5496,-15.9124 -15.5496,-29.2505 0,-21.3482 11.5645,-34.2985 34.2561,-38.3608 6.4093,-1.1445 45.6798,-3.5787 87.2674,-5.4031 100.8852,-4.4279 112.1083,-6.2011 120.5188,-19.0369 16.2041,-24.7306 -20.4998,-60.3427 -78.6899,-76.3491 -15.5238,-4.2706 -22.0516,-4.6994 -71.5334,-4.7114 -60.0264,-0.015 -71.5859,1.5375 -102.1827,13.7635 -45.5612,18.1981 -74.3729,42.6929 -91.9742,78.1923 -8.8773,17.9026 -12.9006,36.3962 -12.9383,59.4714 -0.051,34.4949 10.5674,60.452 34.8871,85.2371 43.8408,44.683 121.7654,69.8064 226.6588,73.0778 45.8595,1.4349 80.7813,-0.9908 132.3904,-9.1837 41.4501,-6.5785 58.1491,-6.2214 66.3289,1.4179 9.1585,8.5567 12.1868,16.413 11.1492,28.926 -1.738,20.9587 -13.5631,30.5933 -52.9218,43.12169 -73.1282,23.275 -169.0278,32.9455 -255.8985,25.8067 z"
     id="path38-1-8"
     inkscape:connector-curvature="0" />
</svg>
