<?xml version="1.0" encoding="UTF-8" standalone="no"?>
<svg
   width="135"
   height="33"
   viewBox="0 0 135 33"
   fill="none"
   version="1.1"
   id="svg2546"
   sodipodi:docname="Robocorp.svg"
   inkscape:export-filename="/home/fhaudin/dev/new.quantstack.github.io/static/img/logos/Robocorp.png"
   inkscape:export-xdpi="96"
   inkscape:export-ydpi="96"
   xmlns:inkscape="http://www.inkscape.org/namespaces/inkscape"
   xmlns:sodipodi="http://sodipodi.sourceforge.net/DTD/sodipodi-0.dtd"
   xmlns="http://www.w3.org/2000/svg"
   xmlns:svg="http://www.w3.org/2000/svg">
  <defs
     id="defs2550" />
  <sodipodi:namedview
     id="namedview2548"
     pagecolor="#ffffff"
     bordercolor="#666666"
     borderopacity="1.0"
     inkscape:pageshadow="2"
     inkscape:pageopacity="0.0"
     inkscape:pagecheckerboard="0"
     showgrid="false" />
  <path
     fill-rule="evenodd"
     clip-rule="evenodd"
     d="M49.9434 13.5187H52.9383C53.9599 13.5187 54.7831 12.6544 54.713 11.6208C54.6488 10.6807 53.8257 9.96823 52.8799 9.96823H49.9434C49.8092 9.96823 49.6982 10.0792 49.6982 10.2135V13.2734C49.6982 13.4078 49.8092 13.5187 49.9434 13.5187ZM55.1217 16.1407C55.0516 16.1932 55.0224 16.2867 55.0575 16.3684L57.9472 23.1774C57.9998 23.3 57.9122 23.4344 57.7779 23.4344H54.7656C54.6138 23.4344 54.4795 23.3409 54.4211 23.2008L51.8933 16.9407C51.8349 16.8006 51.7007 16.7071 51.5489 16.7071L49.9318 16.7013C49.7975 16.7013 49.6866 16.8122 49.6866 16.9466V23.1891C49.6866 23.3234 49.5757 23.4344 49.4414 23.4344H46.7559C46.6217 23.4344 46.5107 23.3234 46.5107 23.1891V7.03091C46.5107 6.8966 46.6217 6.78564 46.7559 6.78564H52.9325C55.6062 6.78564 57.8246 8.90542 57.8889 11.58C57.9356 13.4311 57.2058 14.7217 55.4311 15.9246C55.3467 15.9854 55.2779 16.0326 55.2224 16.0705C55.182 16.0982 55.1487 16.121 55.1217 16.1407ZM63.7093 20.7598C64.871 20.7598 65.5307 20.281 65.6766 19.335C65.8226 18.3656 65.8226 16.6663 65.6766 15.7027C65.5307 14.7567 64.871 14.2779 63.7093 14.2779C62.5067 14.2779 61.9229 14.7041 61.7652 15.7027C61.6193 16.6663 61.6193 18.3656 61.7652 19.335C61.9053 20.2926 62.5358 20.7598 63.7093 20.7598ZM58.8229 15.7202C59.1615 13.0107 61.0297 11.3289 63.7093 11.3289C66.4064 11.3289 68.2862 13.0165 68.619 15.7202C68.7416 16.6779 68.7416 18.3539 68.619 19.3058C68.2804 22.0153 66.4122 23.6971 63.7326 23.6971C61.0355 23.6971 59.1557 22.0153 58.8229 19.3058C58.7003 18.3481 58.7003 16.6721 58.8229 15.7202ZM77.2708 19.3233C77.2182 20.2518 76.471 20.8533 75.3734 20.8533C74.235 20.8533 73.5345 20.2985 73.4528 19.3233C73.3827 18.3597 73.3827 16.6663 73.4528 15.7027C73.5053 15.002 73.8848 14.1727 75.3734 14.1727C76.471 14.1727 77.2124 14.7742 77.2708 15.7027C77.3467 16.6663 77.3467 18.3597 77.2708 19.3233ZM75.7412 11.3289C74.7196 11.3289 74.2059 11.5683 73.7272 11.9887C73.6337 12.0763 73.482 12.0004 73.482 11.8778V7.03091C73.482 6.8966 73.371 6.78564 73.2368 6.78564H70.7907C70.6564 6.78564 70.5455 6.8966 70.5455 7.03091V23.1833C70.5455 23.3176 70.6564 23.4285 70.7907 23.4285H72.4019C72.5187 23.4285 72.6296 23.376 72.6997 23.2825L73.2951 22.4942C73.3535 22.4124 73.4761 22.4183 73.5345 22.4942C73.9665 23.0898 74.5795 23.6913 75.7471 23.6913C78.1465 23.6913 80.0263 21.846 80.2189 19.3058C80.289 18.3481 80.289 16.6721 80.2189 15.7144C80.0204 13.1742 78.1406 11.3289 75.7412 11.3289ZM129.514 20.8533C130.606 20.8533 131.353 20.2518 131.406 19.3233C131.482 18.3597 131.482 16.6663 131.406 15.7027C131.353 14.7742 130.612 14.1727 129.514 14.1727C128.376 14.1727 127.675 14.7333 127.594 15.7027C127.524 16.6663 127.524 18.3597 127.594 19.3233C127.652 20.024 128.026 20.8533 129.514 20.8533ZM129.876 11.3347C132.27 11.3347 134.156 13.18 134.348 15.7202C134.418 16.6779 134.418 18.3539 134.342 19.3174C134.15 21.8577 132.27 23.703 129.87 23.703C128.849 23.703 128.329 23.4636 127.856 23.0373C127.763 22.9497 127.611 23.0197 127.611 23.1482V27.8666C127.611 28.0009 127.5 28.1119 127.366 28.1119H124.92C124.786 28.1119 124.675 28.0009 124.675 27.8666V11.8427C124.675 11.7084 124.786 11.5975 124.92 11.5975H126.531C126.648 11.5975 126.759 11.65 126.829 11.7435L127.424 12.5318C127.489 12.6136 127.605 12.6136 127.664 12.5318C128.096 11.9362 128.709 11.3347 129.876 11.3347ZM88.538 19.335C88.392 20.281 87.7323 20.7598 86.5706 20.7598C85.3972 20.7598 84.7608 20.2926 84.6266 19.335C84.4806 18.3656 84.4806 16.6663 84.6266 15.7027C84.7842 14.7041 85.368 14.2779 86.5706 14.2779C87.7323 14.2779 88.392 14.7567 88.538 15.7027C88.6839 16.6663 88.6839 18.3656 88.538 19.335ZM86.5706 11.3289C83.891 11.3289 82.0228 13.0107 81.6842 15.7202C81.5616 16.6721 81.5616 18.3481 81.6842 19.3058C82.017 22.0153 83.8968 23.6971 86.5939 23.6971C89.2735 23.6971 91.1417 22.0153 91.4803 19.3058C91.6029 18.3539 91.6029 16.6779 91.4803 15.7202C91.1475 13.0165 89.2677 11.3289 86.5706 11.3289ZM92.9865 15.7202C93.3251 13.0107 95.2049 11.3289 97.8962 11.3289C100.733 11.3289 102.707 13.2326 102.701 15.9655V16.1057C102.701 16.24 102.59 16.3509 102.456 16.3509H100.138C100.009 16.3509 99.9044 16.2575 99.8927 16.129C99.8927 16.118 99.8914 16.107 99.8901 16.0953L99.89 16.0952C99.8885 16.0822 99.8869 16.0685 99.8869 16.0531C99.8168 14.8969 99.1221 14.2837 97.8728 14.2837C96.6585 14.2837 96.0572 14.7217 95.9288 15.7086C95.8062 16.6721 95.8062 18.3714 95.9288 19.335C96.0397 20.2868 96.6994 20.7657 97.8962 20.7657C99.1104 20.7657 99.7059 20.2342 99.8869 19.0021L99.8869 19.0019C99.8927 18.9669 99.8986 18.932 99.9044 18.9028C99.9219 18.7802 100.027 18.6926 100.15 18.6926H102.461C102.596 18.6926 102.707 18.8035 102.707 18.9379V19.078C102.707 22.1088 100.29 23.6971 97.8962 23.6971C95.199 23.6971 93.3192 22.0153 92.9865 19.3058C92.8639 18.3481 92.8639 16.6721 92.9865 15.7202ZM110.979 19.335C110.833 20.281 110.173 20.7598 109.012 20.7598C107.838 20.7598 107.202 20.2926 107.068 19.335C106.922 18.3656 106.922 16.6663 107.068 15.7027C107.225 14.7041 107.809 14.2779 109.012 14.2779C110.173 14.2779 110.833 14.7567 110.979 15.7027C111.125 16.6663 111.125 18.3656 110.979 19.335ZM109.012 11.3289C106.332 11.3289 104.464 13.0107 104.125 15.7202C104.003 16.6721 104.003 18.3481 104.125 19.3058C104.458 22.0153 106.338 23.6971 109.035 23.6971C111.715 23.6971 113.583 22.0153 113.921 19.3058C114.044 18.3539 114.044 16.6779 113.921 15.7202C113.589 13.0165 111.709 11.3289 109.012 11.3289ZM121.972 11.5975H122.929C123.063 11.5975 123.174 11.7084 123.174 11.8428V14.0501C123.174 14.1844 123.063 14.2954 122.929 14.2954H121.948C119.934 14.2954 118.732 15.4166 118.732 17.2969V23.1949C118.732 23.3293 118.621 23.4402 118.487 23.4402H116.04C115.906 23.4402 115.795 23.3293 115.795 23.1949V11.8486C115.795 11.7143 115.906 11.6033 116.04 11.6033H117.482C117.64 11.6033 117.78 11.7026 117.833 11.8544L118.294 13.2151C118.329 13.3202 118.463 13.3494 118.539 13.2735C118.761 13.0457 119.146 12.6661 119.345 12.5085C119.823 12.1231 120.477 11.5975 121.972 11.5975Z"
     fill="#1B151B"
     id="path2542" />
  <path
     fill-rule="evenodd"
     clip-rule="evenodd"
     d="M31.9977 19.0199C33.8541 18.2607 35.1677 16.4563 35.1677 14.3307V13.4956C35.1677 11.37 33.8541 9.55971 31.9977 8.80056C31.7525 8.70129 31.4839 8.88231 31.4839 9.1451V18.6753C31.4839 18.944 31.7525 19.1191 31.9977 19.0199ZM28.67 19.2476C28.4949 17.087 27.6367 15.1248 26.3057 13.5715C26.1539 13.3905 26.1948 13.1452 26.3933 13.0168C28.203 11.8605 29.3356 9.74074 29.0612 7.38154C28.7635 4.81211 26.7143 2.68649 24.1573 2.30108C22.9606 2.12589 21.8163 2.30692 20.8239 2.76241C20.1408 3.07775 19.4169 3.22958 18.693 3.22958C17.9633 3.22958 17.2394 3.07191 16.5622 2.76241C15.5697 2.30692 14.4255 2.12005 13.2287 2.30108C10.6717 2.68065 8.62262 4.81211 8.32488 7.38154C8.0505 9.74658 9.18306 11.8605 10.9928 13.0168C11.1913 13.1452 11.2322 13.3905 11.0804 13.5715C9.75517 15.1248 8.89116 17.087 8.71602 19.2476C8.69851 19.4695 8.86197 19.6564 9.08381 19.6564H18.693H28.3023C28.5183 19.6564 28.6876 19.4637 28.67 19.2476ZM8.83278 21.8521C9.67344 26.5413 13.76 30.1093 18.693 30.1093C23.6261 30.1093 27.7126 26.5471 28.5533 21.8521C28.5942 21.6185 28.419 21.4083 28.1855 21.4083H18.693H9.20057C8.96705 21.4083 8.79191 21.6243 8.83278 21.8521ZM5.39424 19.0199C5.63944 19.1191 5.90798 18.9381 5.90798 18.6753V9.13926C5.90798 8.87063 5.63944 8.69545 5.39424 8.79472C3.53778 9.55971 2.22425 11.3641 2.22425 13.4898V14.3307C2.22425 16.4504 3.53778 18.2607 5.39424 19.0199ZM31.3555 6.58735C31.8459 6.49392 32.3596 6.54063 32.8383 6.73334C35.6055 7.87206 37.3977 10.5232 37.4153 13.4898V14.3248C37.4153 17.2972 35.6289 19.9484 32.8617 21.0812C32.5406 21.2097 32.202 21.274 31.8692 21.274C31.5598 21.274 31.2562 21.2156 30.9702 21.1104C30.8534 21.0637 30.7308 21.1688 30.7542 21.2915C30.8126 21.601 30.8184 21.9221 30.76 22.2433C29.715 28.0946 24.6477 32.34 18.7047 32.34C12.7617 32.34 7.69438 28.0946 6.6494 22.2433C6.59102 21.9221 6.59686 21.601 6.65523 21.2915C6.67859 21.1688 6.55599 21.0637 6.43923 21.1104C6.14733 21.2156 5.84376 21.274 5.54019 21.274C5.20743 21.274 4.87467 21.2097 4.55358 21.0812C1.7864 19.9425 0 17.2913 0 14.3248V13.4898C0 10.5174 1.7864 7.86622 4.55358 6.73334C5.03229 6.53479 5.54603 6.49392 6.03641 6.58735C6.12982 6.60487 6.21739 6.55231 6.2349 6.45888C6.90043 3.17118 9.55668 0.595916 12.9135 0.09371C14.4897 -0.145714 16.0776 0.0761913 17.5021 0.730227C17.8816 0.905415 18.2902 0.99301 18.6989 0.99301C19.1075 0.99301 19.5162 0.905415 19.8956 0.730227C21.3201 0.0820309 22.908 -0.139874 24.4843 0.09371C27.8411 0.595916 30.4973 3.17118 31.1628 6.45888C31.1804 6.55231 31.2621 6.60487 31.3555 6.58735ZM12.7559 7.85453C12.7559 7.31729 13.1937 6.87932 13.7308 6.87932H23.6553C24.1924 6.87932 24.6302 7.31729 24.6302 7.85453C24.6302 8.39178 24.1924 8.82975 23.6553 8.82975H13.7308C13.1937 8.82975 12.7559 8.39178 12.7559 7.85453ZM19.4286 13.262C19.4286 12.6197 19.9482 12.0999 20.5904 12.0999C21.2325 12.0999 21.7521 12.6197 21.7521 13.262C21.7521 13.9044 21.2325 14.4241 20.5904 14.4241C19.9482 14.4241 19.4286 13.9044 19.4286 13.262ZM16.7957 12.0999C16.1535 12.0999 15.634 12.6197 15.634 13.262C15.634 13.9044 16.1535 14.4241 16.7957 14.4241C17.4379 14.4241 17.9575 13.9044 17.9575 13.262C17.9575 12.6197 17.4379 12.0999 16.7957 12.0999Z"
     fill="#140E14"
     id="path2544" />
</svg>
