<svg width="408" height="410" viewBox="0 0 408 410" fill="none" xmlns="http://www.w3.org/2000/svg">
<path d="M18.1396 276.471C59.3253 372.391 168.043 413.591 253.224 406.566C276.482 404.648 323.278 400.789 359.816 366.36C429.986 300.242 419.179 162.037 352.007 80.6697C343.356 70.1913 283.479 -0.0133144 190.172 0.926338C121.858 1.61438 73.9089 40.0651 68.0784 44.8553C60.713 50.9066 44.4679 65.2866 29.8272 88.0993C-4.57343 141.702 -7.59747 216.531 18.1396 276.471Z" fill="url(#paint0_linear_4191_4047)"/>
<g opacity="0.3">
<path d="M99.8639 35.9602C99.3194 36.5851 98.3713 36.6498 97.7468 36.1054C96.5331 35.0475 95.2555 34.0267 93.9491 33.0712C93.2883 32.5878 93.1385 31.6652 93.6072 30.9981C93.6128 30.9902 93.6184 30.9823 93.6241 30.9742C94.1134 30.3054 95.0522 30.1601 95.7211 30.6495C97.0959 31.6553 98.4411 32.7299 99.7187 33.8435C100.303 34.3525 100.397 35.215 99.9614 35.8356C99.9313 35.8784 99.8991 35.9201 99.8639 35.9602ZM87.2722 28.8565C85.8485 28.0881 84.3787 27.3737 82.9019 26.7322C82.1423 26.4023 81.7935 25.5184 82.1235 24.7583C82.4575 23.9966 83.3379 23.65 84.098 23.9803C85.6515 24.6551 87.1991 25.4072 88.697 26.2153C89.4262 26.6089 89.6983 27.5193 89.3049 28.2484C89.2763 28.3014 89.245 28.3521 89.2112 28.4001C88.7801 29.0134 87.9485 29.2213 87.2722 28.8565ZM75.4625 24.0989C73.9079 23.6681 72.3157 23.2996 70.7293 23.0038C69.9148 22.852 69.3775 22.0683 69.5293 21.2537C69.682 20.4401 70.4646 19.9023 71.2794 20.0538C72.9502 20.3653 74.6273 20.7534 76.264 21.2071C77.0626 21.4285 77.5302 22.2553 77.3093 23.0539C77.262 23.224 77.1873 23.3793 77.0913 23.516C76.7367 24.0205 76.0906 24.2732 75.4625 24.0989ZM62.8853 22.1022C61.2717 22.0295 59.6363 22.0264 58.0243 22.092C57.1964 22.1255 56.4976 21.4817 56.464 20.654C56.4311 19.8261 57.0749 19.1282 57.9021 19.0937C59.5995 19.0247 61.3213 19.0282 63.0193 19.104C63.8469 19.1413 64.4881 19.8424 64.4509 20.6702C64.4375 20.9664 64.3394 21.2386 64.1806 21.4645C63.8958 21.8699 63.4167 22.1257 62.8853 22.1022ZM50.1765 22.9571C48.591 23.2441 46.995 23.6029 45.4338 24.0243C44.6334 24.2398 43.8101 23.7663 43.5943 22.9664C43.3782 22.1659 43.8522 21.3425 44.6524 21.1273C46.2948 20.684 47.9741 20.3064 49.6425 20.0046C50.4576 19.8567 51.2383 20.3983 51.3858 21.2139C51.4603 21.6248 51.3597 22.0269 51.1372 22.3437C50.9182 22.6552 50.5811 22.884 50.1765 22.9571ZM37.974 26.6027C36.4888 27.2339 35.0128 27.9369 33.586 28.6922C32.8537 29.0799 31.9454 28.8004 31.558 28.0685C31.1702 27.336 31.4491 26.4282 32.1818 26.0402C33.6831 25.2453 35.2372 24.5054 36.8 23.841C37.5628 23.517 38.4434 23.8723 38.7678 24.635C38.9785 25.1305 38.902 25.6755 38.6137 26.0858C38.4583 26.307 38.2414 26.4892 37.974 26.6027ZM2.57485 69.6287C1.76056 69.4756 1.22445 68.6912 1.37771 67.8767C1.69186 66.2085 2.08322 64.5311 2.54079 62.8921C2.76363 62.0939 3.59127 61.6275 4.38941 61.8506C5.18726 62.073 5.65349 62.9008 5.4308 63.6988C4.99628 65.2551 4.62502 66.8478 4.32688 68.4318C4.28592 68.6493 4.20034 68.8464 4.08085 69.0164C3.75305 69.4831 3.17202 69.7413 2.57485 69.6287ZM26.8899 32.8588C25.5831 33.804 24.3015 34.8175 23.0807 35.8715C22.4532 36.4129 21.5056 36.3435 20.9642 35.7162C20.4224 35.0886 20.4952 34.1441 21.1197 33.5998C22.4053 32.49 23.7548 31.4227 25.1311 30.4274C25.8025 29.9419 26.7404 30.0924 27.2262 30.764C27.6114 31.2964 27.5962 31.9968 27.2383 32.506C27.1454 32.6387 27.0284 32.7582 26.8899 32.8588ZM6.10357 57.037C5.34433 56.7055 4.9976 55.8207 5.32921 55.0614C6.00889 53.506 6.7646 51.9595 7.57463 50.4642C7.96658 49.7332 8.88025 49.4656 9.60881 49.86C10.3371 50.2548 10.6076 51.1655 10.213 51.8942C9.44308 53.3151 8.72479 54.7849 8.07918 56.2631C8.03793 56.3573 7.98787 56.4449 7.93091 56.526C7.52942 57.0976 6.76827 57.3275 6.10357 57.037ZM17.4833 41.4335C16.4217 42.6467 15.3984 43.9215 14.4421 45.2233C13.9517 45.8915 13.0128 46.0351 12.3447 45.5445C11.6857 45.0603 11.537 44.1392 12.0051 43.4731C12.0112 43.4645 12.0175 43.4557 12.0239 43.4473C13.0302 42.0764 14.1074 40.734 15.2246 39.4572C15.7708 38.8339 16.7185 38.7706 17.3421 39.3163C17.9246 39.8258 18.018 40.6869 17.5826 41.3064C17.5522 41.35 17.5187 41.3924 17.4833 41.4335Z" fill="#91B3FA"/>
<path d="M3.07747 79.5043C3.24732 79.2627 3.34802 78.9684 3.34949 78.6504C3.35301 77.8768 3.37327 77.0905 3.40836 76.3128C3.44623 75.4853 2.80561 74.7833 1.97796 74.7457C1.15017 74.7077 0.447298 75.3482 0.411039 76.1764C0.373605 76.9943 0.352615 77.8213 0.348652 78.6353C0.344541 79.4637 1.01321 80.1393 1.84144 80.1431C2.3523 80.1459 2.80443 79.8928 3.07747 79.5043Z" fill="#91B3FA"/>
</g>
<g opacity="0.3">
<path d="M20.7348 121.703C21.1511 121.111 21.088 120.287 20.5524 119.766C19.9978 119.227 19.4451 118.667 18.9101 118.102C18.3401 117.5 17.3905 117.475 16.7889 118.044C16.1848 118.616 16.1615 119.564 16.7311 120.165C17.2945 120.76 17.8764 121.35 18.4602 121.918C19.0543 122.495 20.0042 122.482 20.582 121.888C20.6387 121.83 20.6895 121.768 20.7348 121.703Z" fill="#91B3FA"/>
<path d="M107.527 115.859C107.019 116.513 106.076 116.631 105.422 116.121C104.768 115.612 104.651 114.671 105.16 114.016C106.129 112.771 107.06 111.465 107.939 110.121C108.388 109.429 109.322 109.233 110.016 109.686C110.709 110.14 110.904 111.07 110.451 111.763C110.07 112.346 109.681 112.919 109.285 113.484C108.718 114.29 108.127 115.09 107.527 115.859ZM112.451 105.343C111.703 104.988 111.384 104.093 111.739 103.345C112.421 101.907 113.05 100.426 113.608 98.9411C113.896 98.1654 114.764 97.7726 115.54 98.0639C116.315 98.3552 116.708 99.2204 116.417 99.9958C115.829 101.559 115.168 103.119 114.45 104.631C114.412 104.709 114.369 104.783 114.321 104.852C113.908 105.439 113.121 105.661 112.451 105.343ZM102.075 121.952C100.879 123.116 99.6166 124.246 98.3228 125.308C97.6825 125.834 96.737 125.742 96.2107 125.101C95.685 124.461 95.7785 123.516 96.4181 122.989C97.6471 121.98 98.8454 120.908 99.9808 119.802C100.575 119.224 101.524 119.236 102.103 119.83C102.614 120.355 102.663 121.159 102.256 121.738C102.203 121.813 102.143 121.885 102.075 121.952ZM116.967 93.2933C116.159 93.1111 115.651 92.308 115.833 91.4997C116.183 89.9503 116.47 88.3672 116.687 86.7952C116.8 85.9735 117.557 85.4007 118.379 85.5144C119.2 85.6277 119.773 86.3847 119.66 87.2055C119.431 88.8613 119.128 90.5284 118.76 92.1599C118.716 92.357 118.635 92.5364 118.525 92.6923C118.186 93.1749 117.578 93.4312 116.967 93.2933ZM91.6674 130.047C90.2456 130.92 88.7663 131.743 87.2707 132.496C86.5306 132.868 85.6289 132.57 85.2564 131.83C84.8835 131.09 85.1819 130.188 85.9222 129.815C87.3428 129.101 88.7479 128.318 90.098 127.49C90.8044 127.056 91.7285 127.277 92.1619 127.984C92.4848 128.51 92.4442 129.157 92.1105 129.632C91.9963 129.794 91.8474 129.937 91.6674 130.047ZM79.7372 135.664C78.1552 136.206 76.5317 136.688 74.9123 137.095C74.1084 137.297 73.2932 136.81 73.0908 136.006C72.8883 135.202 73.3759 134.386 74.1799 134.185C75.7186 133.798 77.2613 133.34 78.765 132.826C79.5489 132.557 80.402 132.975 80.6707 133.759C80.8323 134.231 80.7447 134.729 80.4781 135.109C80.3021 135.359 80.0484 135.558 79.7372 135.664ZM66.8658 138.548C65.2025 138.733 63.5127 138.849 61.844 138.894C61.0153 138.917 60.3261 138.263 60.3035 137.435C60.2811 136.606 60.9348 135.917 61.7627 135.895C63.3484 135.852 64.9536 135.741 66.5346 135.566C67.3582 135.474 68.1001 136.068 68.1913 136.891C68.2334 137.27 68.1309 137.63 67.9282 137.919C67.6892 138.259 67.3111 138.499 66.8658 138.548ZM53.6719 138.555C52.0086 138.372 50.3337 138.115 48.6942 137.792C47.8812 137.632 47.3517 136.843 47.512 136.03C47.6719 135.218 48.4613 134.688 49.2743 134.848C50.8309 135.155 52.4211 135.399 54.0013 135.573C54.8249 135.664 55.4188 136.405 55.3278 137.228C55.299 137.489 55.2055 137.726 55.065 137.926C54.7607 138.359 54.2358 138.617 53.6719 138.555ZM40.7923 135.662C39.2142 135.117 37.6385 134.498 36.1084 133.822C35.3505 133.486 35.0078 132.6 35.3432 131.842C35.6776 131.087 36.5643 130.742 37.3222 131.077C38.7756 131.72 40.2722 132.308 41.7712 132.825C42.5543 133.095 42.9704 133.949 42.7001 134.732C42.6531 134.869 42.5885 134.994 42.5096 135.107C42.1348 135.64 41.4393 135.885 40.7923 135.662ZM28.8748 130.017C27.8271 129.372 26.7862 128.687 25.7815 127.981C25.4176 127.725 25.058 127.467 24.7014 127.204C24.0343 126.713 23.872 125.773 24.3822 125.107C24.8728 124.439 25.8122 124.296 26.48 124.787C26.8187 125.036 27.161 125.283 27.5067 125.526C28.4619 126.197 29.4507 126.848 30.447 127.461C31.1527 127.895 31.3729 128.819 30.9387 129.525C30.9222 129.551 30.9054 129.578 30.8877 129.603C30.4355 130.246 29.5539 130.435 28.8748 130.017Z" fill="#91B3FA"/>
<path d="M119.947 79.8696C120.119 79.6255 120.22 79.3283 120.22 79.0079C120.22 78.1955 120.202 77.3678 120.168 76.5478C120.134 75.7197 119.435 75.0763 118.607 75.1107C117.779 75.1452 117.136 75.8431 117.17 76.6717C117.202 77.4508 117.219 78.2369 117.219 79.0082C117.219 79.8364 117.89 80.5083 118.719 80.5083C119.227 80.5081 119.676 80.2555 119.947 79.8696Z" fill="#91B3FA"/>
</g>
<path d="M101.775 61.6638C101.694 61.3758 101.44 61.1707 101.141 61.1534L92.6205 60.6566C90.696 57.1662 88.201 53.9575 85.1767 51.1867L86.6997 42.7943C86.7532 42.4998 86.6139 42.2041 86.353 42.0576L77.4262 37.046C77.1654 36.8993 76.8402 36.9346 76.6168 37.1335L70.2446 42.8035C66.3042 41.6641 62.2657 41.2046 58.2836 41.379L53.4232 34.3634C53.2527 34.1175 52.945 34.0068 52.657 34.0877L42.8009 36.856C42.513 36.9369 42.3078 37.1916 42.2905 37.4903L41.7937 46.0108C38.3031 47.9351 35.0944 50.4301 32.3236 53.4547L23.9312 51.9317C23.6367 51.8783 23.3409 52.0174 23.1946 52.2783L18.1826 61.2052C18.0362 61.4662 18.0715 61.7911 18.2702 62.0147L23.9403 68.3869C22.8009 72.3272 22.3414 76.3657 22.5159 80.3478L15.5002 85.2083C15.2543 85.3787 15.1434 85.6862 15.2245 85.9743L17.9928 95.8304C18.0737 96.1184 18.3285 96.3233 18.6269 96.3408L27.1477 96.8376C29.0721 100.328 31.567 103.537 34.5915 106.308L33.0686 114.7C33.015 114.994 33.1544 115.29 33.4152 115.437L42.3423 120.448C42.6031 120.595 42.9282 120.56 43.1516 120.361L49.5238 114.691C53.4641 115.83 57.5028 116.29 61.4847 116.115L66.3452 123.131C66.5155 123.377 66.823 123.488 67.1113 123.407L76.9675 120.638C77.2555 120.557 77.4604 120.303 77.4779 120.004L77.9747 111.483C81.4652 109.559 84.6738 107.064 87.4447 104.039L95.8371 105.563C96.1313 105.616 96.4273 105.477 96.5738 105.216L101.586 96.2889C101.732 96.028 101.697 95.703 101.498 95.4794L95.8281 89.1074C96.9675 85.167 97.4268 81.1285 97.2524 77.1464L104.268 72.2859C104.514 72.1157 104.625 71.8078 104.544 71.52L101.775 61.6638Z" fill="#91B3FA"/>
<path d="M67.3507 85.8279C63.4461 89.9452 56.9204 90.1187 52.8026 86.214C50.8077 84.3228 49.6692 81.7677 49.5965 79.02C49.5234 76.2729 50.5244 73.6608 52.4165 71.6664C56.321 67.5491 62.8468 67.3756 66.9646 71.2801C70.7104 74.8324 71.1919 80.5541 68.3078 84.6584C68.022 85.0653 67.7026 85.4567 67.3507 85.8279ZM51.9964 78.9565C52.0523 81.0635 52.9253 83.0221 54.4548 84.4726C57.6114 87.4658 62.6156 87.3332 65.6089 84.1763C68.6043 81.0196 68.4696 76.0155 65.3127 73.0219C62.1561 70.0287 57.1519 70.1612 54.1585 73.3181C53.8871 73.6045 53.6402 73.9069 53.4175 74.2239C52.4501 75.6002 51.951 77.2442 51.9964 78.9565Z" fill="#BDD0FB"/>
<path d="M80.349 93.3754C80.8443 92.6705 81.3072 91.9367 81.7347 91.1752C81.8693 90.9357 81.9999 90.6937 82.1269 90.4498C82.7521 89.2469 83.2807 87.9963 83.7047 86.7171C83.7104 86.6997 83.7163 86.6823 83.7221 86.6649C83.7383 86.6154 83.7544 86.5658 83.7702 86.516C83.8014 86.4194 83.8317 86.3225 83.8616 86.2258C83.9403 85.9709 83.8409 85.7038 83.6339 85.5579C83.5836 85.5225 83.5268 85.4943 83.4648 85.4752C83.1482 85.3775 82.8129 85.5558 82.7148 85.8719C82.212 87.5018 81.5302 89.0881 80.688 90.5872C76.5079 98.0354 68.9343 102.404 60.9799 102.849C56.5556 103.097 52.0134 102.131 47.8713 99.8047C47.1448 99.3971 46.4443 98.9557 45.7723 98.483C41.2478 95.3029 37.9817 90.7018 36.4663 85.3058C34.7252 79.1076 35.5022 72.6022 38.6539 66.9885C45.1642 55.3953 59.8823 51.2649 71.4704 57.7709C72.185 58.172 72.8766 58.608 73.5424 59.0761C76.4285 61.1049 78.8385 63.7424 80.5904 66.8083C80.6357 66.8874 80.6961 66.9524 80.7662 67.0015C80.9503 67.1308 81.2006 67.1509 81.4091 67.0315C81.6965 66.8661 81.7976 66.5009 81.6322 66.2124C79.793 62.9939 77.2629 60.2242 74.233 58.0945C73.5339 57.603 72.8082 57.1456 72.0583 56.7243C59.8917 49.8933 44.4355 54.2384 37.6071 66.4006C34.2981 72.2941 33.483 79.1233 35.3107 85.6302C36.9014 91.2952 40.3303 96.1254 45.08 99.464C45.7858 99.96 46.5212 100.423 47.2833 100.852C53.1772 104.16 60.0064 104.976 66.5132 103.148C72.1794 101.557 77.0104 98.1267 80.349 93.3754Z" fill="#BDD0FB"/>
<g opacity="0.3">
<path d="M161.753 16.6762C161.983 16.3482 161.982 15.8956 161.719 15.5661C161.229 14.9507 160.713 14.3418 160.186 13.7565C159.844 13.3762 159.259 13.3452 158.878 13.6875C158.495 14.0288 158.467 14.6159 158.809 14.9962C159.311 15.5539 159.802 16.1342 160.27 16.7214C160.588 17.1214 161.171 17.1872 161.572 16.8688C161.643 16.812 161.703 16.7469 161.753 16.6762Z" fill="#91B3FA"/>
<path d="M156.76 11.6073C156.424 11.9937 155.839 12.0357 155.452 11.7001C154.476 10.8543 153.445 10.0486 152.389 9.30613C152.166 9.1495 151.94 8.99506 151.712 8.8421C151.288 8.55658 151.175 7.98098 151.46 7.55615C151.746 7.16523 152.321 7.01872 152.747 7.30381C152.985 7.46396 153.221 7.62573 153.454 7.78971C154.562 8.56803 155.643 9.41285 156.666 10.3002C157.029 10.6139 157.088 11.148 156.818 11.5323C156.8 11.5577 156.781 11.5825 156.76 11.6073ZM147.654 6.46031C146.257 5.75157 144.804 5.12268 143.335 4.5923C142.854 4.4182 142.605 3.88782 142.779 3.40588C142.952 2.92732 143.483 2.67498 143.965 2.84923C145.504 3.40515 147.028 4.06412 148.492 4.80751C148.949 5.0393 149.131 5.59699 148.899 6.05382C148.879 6.09375 148.855 6.13192 148.83 6.16774C148.569 6.53884 148.069 6.67125 147.654 6.46031ZM138.817 3.27259C137.292 2.92806 135.729 2.676 134.171 2.52289C133.662 2.47283 133.29 2.01908 133.34 1.51014C133.39 0.99928 133.843 0.627883 134.353 0.678234C135.986 0.838537 137.626 1.10365 139.225 1.46433C139.725 1.57722 140.039 2.07325 139.926 2.57236C139.898 2.69391 139.848 2.8046 139.78 2.9009C139.57 3.1989 139.195 3.35744 138.817 3.27259ZM129.468 2.3532C127.902 2.39342 126.325 2.53111 124.781 2.76335C124.274 2.83909 123.803 2.49045 123.727 1.98444C123.652 1.4796 123.999 1.00676 124.505 0.930283C126.125 0.687039 127.778 0.542592 129.421 0.500314C129.932 0.487103 130.358 0.891824 130.371 1.40327C130.376 1.60937 130.313 1.80168 130.203 1.95875C130.04 2.19098 129.773 2.34542 129.468 2.3532ZM120.178 3.74425C118.669 4.1638 117.174 4.68053 115.73 5.28005C115.258 5.47647 114.716 5.25231 114.519 4.77962C114.323 4.30693 114.546 3.76422 115.02 3.56839C116.532 2.9398 118.1 2.39841 119.681 1.95816C120.174 1.82149 120.685 2.10966 120.822 2.60231C120.899 2.88079 120.841 3.16513 120.687 3.3843C120.568 3.55356 120.392 3.68421 120.178 3.74425ZM111.506 7.34828C110.147 8.12132 108.823 8.9864 107.572 9.92048C107.162 10.2266 106.581 10.1421 106.275 9.73213C105.969 9.32198 106.053 8.74316 106.463 8.43489C107.775 7.45545 109.164 6.5478 110.59 5.73689C111.035 5.48439 111.601 5.63971 111.854 6.08436C112.036 6.40643 112.006 6.79192 111.806 7.07582C111.73 7.18431 111.63 7.27841 111.506 7.34828ZM103.983 12.9614C102.858 14.0409 101.786 15.2056 100.798 16.4238C100.474 16.8206 99.8911 16.8812 99.494 16.5585C99.0968 16.2363 99.0419 15.6579 99.3585 15.2545C100.396 13.9783 101.52 12.7569 102.699 11.6246C103.068 11.2704 103.655 11.2823 104.01 11.6514C104.321 11.9759 104.349 12.4696 104.1 12.825C104.066 12.8732 104.027 12.919 103.983 12.9614ZM94.5817 24.8354C94.1178 24.6189 93.9176 24.068 94.1341 23.6039C94.7332 22.32 95.4133 21.047 96.1526 19.8233C96.264 19.6366 96.3777 19.4528 96.4925 19.269C96.7502 18.8298 97.3362 18.704 97.7703 18.9773C98.204 19.2495 98.3343 19.821 98.0626 20.255C97.9543 20.4266 97.8478 20.6002 97.7416 20.7782C97.0335 21.9492 96.385 23.1637 95.8134 24.3878C95.79 24.4383 95.7621 24.4858 95.7316 24.5295C95.4776 24.8905 94.9947 25.0283 94.5817 24.8354Z" fill="#91B3FA"/>
</g>
<g opacity="0.3">
<path d="M162.835 63.983C161.889 65.2923 160.855 66.5547 159.763 67.7369C159.415 68.112 158.829 68.1355 158.453 67.7875C158.076 67.4398 158.06 66.8542 158.402 66.4778C159.445 65.3511 160.431 64.1465 161.333 62.8974C161.632 62.4824 162.212 62.3892 162.626 62.6888C163.038 62.9862 163.133 63.5587 162.842 63.9727C162.84 63.9759 162.837 63.9798 162.835 63.983ZM164.176 60.2459C163.728 59.9983 163.566 59.4342 163.814 58.9867C164.559 57.6396 165.231 56.234 165.809 54.8081C166.002 54.3372 166.542 54.1053 167.017 54.2984C167.491 54.4907 167.719 55.0307 167.527 55.5053C166.921 56.9994 166.217 58.4726 165.436 59.8839C165.419 59.9137 165.401 59.9418 165.382 59.9692C165.114 60.3515 164.595 60.4779 164.176 60.2459ZM156.253 71.092C155.019 72.1345 153.71 73.1106 152.363 73.9928C151.935 74.2732 151.36 74.1534 151.08 73.7255C150.799 73.2975 150.919 72.7254 151.347 72.4425C152.632 71.6011 153.88 70.6702 155.059 69.6761C155.45 69.3459 156.034 69.3956 156.364 69.7859C156.641 70.1149 156.651 70.5802 156.415 70.9164C156.37 70.9801 156.316 71.0391 156.253 71.092ZM167.937 51.5563C167.443 51.4235 167.15 50.9148 167.283 50.4206C167.682 48.934 167.995 47.4085 168.21 45.8853C168.282 45.3793 168.751 45.0265 169.257 45.0974C169.764 45.1694 170.117 45.6381 170.045 46.145C169.819 47.7424 169.492 49.3431 169.072 50.902C169.043 51.0097 168.996 51.1078 168.936 51.1941C168.718 51.5036 168.323 51.66 167.937 51.5563ZM148.152 76.3977C146.706 77.111 145.201 77.7431 143.679 78.2773C143.196 78.4467 142.667 78.1921 142.497 77.7092C142.328 77.2262 142.581 76.697 143.065 76.5277C144.518 76.0192 145.953 75.4159 147.331 74.735C147.79 74.5088 148.346 74.6969 148.573 75.1565C148.728 75.4708 148.688 75.8315 148.499 76.0998C148.413 76.2224 148.296 76.3265 148.152 76.3977ZM139.013 79.6055C137.435 79.9524 135.822 80.2065 134.219 80.3611C133.71 80.4102 133.257 80.0375 133.208 79.5281C133.159 79.0193 133.532 78.5659 134.042 78.5167C135.57 78.369 137.109 78.1264 138.615 77.7952C139.114 77.6851 139.609 78.0016 139.719 78.5014C139.777 78.7655 139.716 79.0281 139.572 79.2337C139.443 79.4164 139.248 79.5537 139.013 79.6055ZM129.367 80.5328C127.751 80.4922 126.124 80.3515 124.53 80.1159C124.024 80.0408 123.674 79.5697 123.749 79.0632C123.824 78.5571 124.296 78.208 124.801 78.2823C126.321 78.5076 127.873 78.6415 129.414 78.6793C129.925 78.6923 130.33 79.1175 130.317 79.6293C130.312 79.8194 130.251 79.9938 130.149 80.1382C129.977 80.3832 129.69 80.5406 129.367 80.5328Z" fill="#91B3FA"/>
<path d="M170.264 41.7772C170.367 41.631 170.429 41.4535 170.432 41.2614C170.446 40.4684 170.437 39.6714 170.405 38.8922C170.383 38.381 169.952 37.9832 169.44 38.0042C168.93 38.0268 168.532 38.4574 168.552 38.9687C168.583 39.7116 168.592 40.472 168.579 41.2288C168.57 41.7405 168.978 42.1627 169.49 42.1715C169.809 42.1771 170.094 42.0205 170.264 41.7772Z" fill="#91B3FA"/>
</g>
<path d="M158.175 28.929C158.12 28.7363 157.95 28.5992 157.75 28.5874L152.049 28.2549C150.761 25.9194 149.091 23.7723 147.068 21.9181L148.087 16.3022C148.122 16.1052 148.029 15.9073 147.855 15.8093L141.881 12.4557C141.706 12.3575 141.489 12.3811 141.339 12.5141L137.076 16.3082C134.439 15.5458 131.736 15.2382 129.072 15.3549L125.819 10.6605C125.705 10.4959 125.5 10.4219 125.307 10.476L118.712 12.3284C118.519 12.3824 118.382 12.553 118.37 12.7529L118.038 18.4544C115.702 19.7421 113.555 21.4118 111.701 23.4357L106.085 22.4165C105.888 22.3808 105.69 22.4739 105.592 22.6484L102.238 28.6219C102.14 28.7966 102.164 29.014 102.297 29.1635L106.091 33.4275C105.329 36.0643 105.021 38.7667 105.138 41.4312L100.443 44.6837C100.279 44.7976 100.205 45.0035 100.259 45.1963L102.111 51.7916C102.165 51.9842 102.336 52.1213 102.536 52.1331L108.237 52.4656C109.525 54.8013 111.194 56.9483 113.218 58.8024L112.199 64.4183C112.163 64.6151 112.256 64.8132 112.431 64.9112L118.405 68.265C118.579 68.3629 118.797 68.3394 118.946 68.2064L123.21 64.4123C125.847 65.1747 128.549 65.4821 131.214 65.3654L134.466 70.06C134.58 70.2246 134.786 70.2987 134.979 70.2445L141.574 68.3921C141.767 68.3379 141.904 68.1675 141.916 67.9677L142.248 62.2662C144.584 60.9785 146.731 59.309 148.585 57.2851L154.201 58.3043C154.398 58.34 154.596 58.2469 154.694 58.0722L158.048 52.0987C158.145 51.9242 158.122 51.7066 157.989 51.5572L154.195 47.2933C154.957 44.6565 155.265 41.9541 155.148 39.2896L159.843 36.0371C160.007 35.9232 160.081 35.7173 160.027 35.5245L158.175 28.929Z" fill="#91B3FA"/>
<path d="M135.229 45.183C133.941 46.5423 132.2 47.318 130.328 47.3675C128.457 47.4175 126.678 46.7353 125.319 45.4466C122.515 42.7874 122.398 38.3497 125.056 35.5366C127.717 32.7325 132.162 32.6147 134.965 35.2738C136.324 36.5621 137.1 38.3024 137.15 40.1739C137.19 41.6953 136.746 43.1558 135.887 44.3789C135.69 44.6598 135.469 44.9289 135.229 45.183ZM126.594 44.1014C127.594 45.0494 128.902 45.5513 130.28 45.5147C131.656 45.478 132.936 44.9073 133.884 43.908C134.83 42.9073 135.333 41.5999 135.297 40.2227C135.261 38.8464 134.689 37.5661 133.69 36.6186C131.627 34.6624 128.358 34.749 126.401 36.8115C126.225 36.998 126.065 37.1936 125.921 37.3977C124.476 39.4543 124.718 42.322 126.594 44.1014Z" fill="#BDD0FB"/>
<path d="M144.275 50.4361C144.612 49.9563 144.928 49.4556 145.221 48.934C145.803 47.8979 146.28 46.8017 146.64 45.6725C146.656 45.6217 146.672 45.5708 146.688 45.52C146.809 45.1264 146.656 44.7139 146.336 44.4887C146.259 44.4341 146.171 44.3906 146.075 44.3611C145.586 44.2101 145.07 44.4861 144.917 44.9736C144.591 46.031 144.149 47.0577 143.605 48.0258L143.605 48.0262C143.575 48.0794 143.545 48.1325 143.514 48.1849C142.206 50.4646 140.378 52.3315 138.197 53.673C137.013 54.4009 135.723 54.9737 134.354 55.3716C134.343 55.3748 134.332 55.378 134.321 55.3814C134.286 55.3909 134.253 55.4011 134.219 55.4103C130.206 56.537 125.995 56.0343 122.36 53.9939C121.89 53.7302 121.437 53.4444 121.002 53.1385C118.073 51.0798 115.958 48.101 114.977 44.6073C113.85 40.5946 114.353 36.3837 116.394 32.75C118.434 29.1191 121.768 26.4938 125.78 25.3661C129.792 24.2393 134.004 24.7421 137.638 26.7825C138.1 27.0418 138.548 27.3242 138.979 27.6271C140.847 28.9408 142.407 30.6479 143.541 32.6326C143.611 32.7549 143.705 32.8551 143.813 32.9307C144.097 33.1305 144.484 33.1615 144.806 32.9773C145.249 32.7221 145.405 32.1577 145.15 31.7123C143.881 29.4918 142.136 27.5811 140.046 26.1115C139.563 25.7723 139.063 25.4565 138.546 25.1662C134.479 22.8832 129.768 22.3206 125.278 23.5818C120.789 24.8429 117.058 27.7726 114.777 31.8421C112.494 35.9079 111.931 40.6191 113.193 45.1086C114.29 49.017 116.656 52.3494 119.933 54.6527C120.419 54.9946 120.927 55.3146 121.452 55.6098C129.325 60.029 139.192 57.6694 144.275 50.4361Z" fill="#BDD0FB"/>
<path d="M284.316 31.3867V399.867C284.316 402.301 283.331 404.499 281.655 405.855C280.382 406.887 278.776 407.543 277.006 407.476L272.971 407.327C268.892 407.173 265.213 403.44 265.213 399.176V32.0109L284.316 31.3867Z" fill="#EDE76D"/>
<path d="M291.998 18.1677C291.998 24.3861 288.838 29.9525 284.08 33.2264C281.402 35.0708 278.219 36.1857 274.813 36.2876C273.122 36.3381 271.485 36.138 269.944 35.7135C268.783 35.3967 267.676 34.9539 266.633 34.4014C266.37 34.258 266.106 34.1145 265.848 33.9548C260.981 31.0239 257.745 25.6072 257.745 19.3126C257.745 9.64951 265.374 1.5401 274.812 1.19131C284.287 0.841344 291.998 8.43798 291.998 18.1677Z" fill="#EDE76D"/>
<path d="M284.129 17.53C284.129 22.3647 281.673 26.6924 277.973 29.2378C275.892 30.6717 273.417 31.5385 270.768 31.6176C269.454 31.657 268.181 31.5014 266.983 31.1712C266.081 30.9249 265.22 30.5808 264.409 30.1511C264.204 30.0396 263.999 29.9281 263.799 29.804C260.015 27.5252 257.499 23.3139 257.499 18.4201C257.499 10.9073 263.43 4.60244 270.768 4.33131C278.134 4.05914 284.129 9.96541 284.129 17.53Z" fill="#F6F195"/>
<path d="M146.234 44.5545L147.701 45.3127L175.491 28.2734L311.588 48.3925L330.624 50.5705L329.501 54.1239C329.349 54.5062 307.691 70.2881 307.691 70.2881L324.547 92.4117L323.736 94.687C323.64 94.9569 323.376 95.121 323.105 95.079L305.604 92.368L169.43 71.2734C169.049 71.2144 168.698 71.0298 168.427 70.7463L146.528 47.8206C146.241 47.5201 146.091 47.1047 146.115 46.6773L146.234 44.5545Z" fill="#494737"/>
<path d="M177.027 26.777L330.624 50.5706C330.767 50.5928 330.808 50.7858 330.689 50.8732L309.045 66.706C308.752 66.9205 308.674 67.3385 308.869 67.6463L324.348 92.0968C324.424 92.2175 324.325 92.3776 324.188 92.3563L170.494 68.5478C170.056 68.48 169.65 68.2712 169.334 67.9506L146.428 44.751C146.331 44.6529 146.353 44.4838 146.472 44.4132L175.642 27.0505C176.063 26.7997 176.551 26.7034 177.027 26.777Z" fill="#F6F195"/>
<path d="M159.596 188.191L161.154 188.572L183.479 166.063L316.56 153.872L334.321 151.653C334.69 151.607 335.01 151.905 334.991 152.276L334.837 155.181C334.781 155.577 317.902 175.495 317.902 175.495L338.887 192.57L338.644 194.911C338.615 195.188 338.403 195.404 338.138 195.427L320.996 196.877L187.619 208.162C187.246 208.194 186.872 208.1 186.551 207.893L160.622 191.216C160.282 190.997 160.045 190.639 159.97 190.228L159.596 188.191Z" fill="#7D97F4"/>
<path d="M184.585 164.293L334.582 151.602C334.889 151.576 335.075 151.935 334.876 152.171L318.36 171.791C318.134 172.059 318.156 172.479 318.408 172.723L338.633 192.325C338.732 192.421 338.672 192.588 338.535 192.6L187.997 205.337C187.568 205.374 187.137 205.269 186.765 205.038L159.824 188.333C159.707 188.261 159.689 188.099 159.787 188.003L183.34 164.87C183.68 164.536 184.119 164.333 184.585 164.293Z" fill="#91B3FA"/>
<path opacity="0.56" d="M273.673 173.773L190.068 180.308C189.759 180.332 189.487 180.099 189.463 179.791L189.162 175.94C189.138 175.631 189.37 175.359 189.679 175.335L273.284 168.8C273.593 168.776 273.865 169.009 273.889 169.317L274.19 173.168C274.214 173.476 273.982 173.748 273.673 173.773Z" fill="white"/>
<path opacity="0.56" d="M273.733 186.967L190.796 193.45C190.487 193.474 190.215 193.242 190.191 192.933L189.91 189.339C189.886 189.031 190.119 188.759 190.427 188.735L273.365 182.252C273.673 182.228 273.946 182.46 273.97 182.769L274.251 186.362C274.275 186.671 274.042 186.943 273.733 186.967Z" fill="white"/>
<path d="M401.731 113.013L400.115 113.656L372.098 95.519L226.292 106.706L205.989 107.865L206.818 111.042C206.947 111.42 228.601 128.086 228.601 128.086L208.911 148.43L209.581 150.676C209.66 150.943 209.927 151.117 210.217 151.093L228.977 149.535L374.945 137.41C375.354 137.376 375.741 137.219 376.051 136.962L401.148 116.149C401.477 115.876 401.671 115.484 401.681 115.07L401.731 113.013Z" fill="url(#paint1_linear_4191_4047)"/>
<path d="M370.597 93.9809L206.293 107.629C206.023 107.651 205.922 107.995 206.137 108.16L227.464 124.545C227.754 124.768 227.803 125.182 227.572 125.466L209.156 148.13C209.064 148.243 209.152 148.41 209.297 148.398L374.046 134.713C374.516 134.674 374.962 134.497 375.324 134.207L401.511 113.19C401.619 113.103 401.609 112.936 401.492 112.862L372.041 94.3288C371.615 94.061 371.107 93.9385 370.597 93.9809Z" fill="url(#paint2_linear_4191_4047)"/>
<path opacity="0.56" d="M368.31 109.978L286.651 116.36C286.343 116.385 286.071 116.152 286.046 115.843L285.733 111.838C285.709 111.529 285.942 111.257 286.25 111.233L367.909 104.85C368.218 104.826 368.49 105.059 368.514 105.368L368.827 109.373C368.851 109.681 368.619 109.953 368.31 109.978Z" fill="white"/>
<path opacity="0.56" d="M368.424 123.578L287.417 129.91C287.109 129.934 286.837 129.701 286.813 129.393L286.52 125.653C286.496 125.344 286.729 125.072 287.037 125.048L368.044 118.716C368.352 118.692 368.625 118.925 368.649 119.233L368.941 122.973C368.965 123.282 368.732 123.554 368.424 123.578Z" fill="white"/>
<path d="M274.731 69.919C277.952 69.919 280.564 67.3074 280.564 64.0857C280.564 60.8641 277.952 58.2524 274.731 58.2524C271.509 58.2524 268.897 60.8641 268.897 64.0857C268.897 67.3074 271.509 69.919 274.731 69.919Z" fill="#7A7865"/>
<path d="M275.128 66.7372C277.105 66.7372 278.708 65.1346 278.708 63.1576C278.708 61.1807 277.105 59.5781 275.128 59.5781C273.151 59.5781 271.549 61.1807 271.549 63.1576C271.549 65.1346 273.151 66.7372 275.128 66.7372Z" fill="#646100"/>
<path d="M273.805 128.953C276.908 128.953 279.424 126.437 279.424 123.334C279.424 120.231 276.908 117.716 273.805 117.716C270.702 117.716 268.187 120.231 268.187 123.334C268.187 126.437 270.702 128.953 273.805 128.953Z" fill="#EDE76D"/>
<path d="M274.189 125.889C276.093 125.889 277.637 124.345 277.637 122.441C277.637 120.537 276.093 118.993 274.189 118.993C272.285 118.993 270.741 120.537 270.741 122.441C270.741 124.345 272.285 125.889 274.189 125.889Z" fill="#F6F195"/>
<path d="M274.152 182.314C277.376 182.314 279.989 179.7 279.989 176.477C279.989 173.253 277.376 170.64 274.152 170.64C270.929 170.64 268.315 173.253 268.315 176.477C268.315 179.7 270.929 182.314 274.152 182.314Z" fill="url(#paint3_linear_4191_4047)"/>
<path d="M274.55 179.13C276.528 179.13 278.132 177.526 278.132 175.548C278.132 173.57 276.528 171.967 274.55 171.967C272.572 171.967 270.969 173.57 270.969 175.548C270.969 177.526 272.572 179.13 274.55 179.13Z" fill="url(#paint4_linear_4191_4047)"/>
<path opacity="0.56" d="M257.263 54.866L182.538 43.0752C182.232 43.0269 182.021 42.7374 182.069 42.4317L182.635 38.8461C182.683 38.5404 182.973 38.3297 183.279 38.378L258.004 50.1688C258.31 50.2171 258.521 50.5066 258.472 50.8123L257.906 54.3979C257.858 54.7037 257.569 54.9143 257.263 54.866Z" fill="white"/>
<path opacity="0.56" d="M254.443 67.1217L180.315 55.4252C180.009 55.3769 179.798 55.0874 179.847 54.7816L180.374 51.4389C180.422 51.1331 180.712 50.9225 181.018 50.9708L255.145 62.6673C255.451 62.7156 255.662 63.0051 255.613 63.3109L255.086 66.6535C255.038 66.9594 254.748 67.17 254.443 67.1217Z" fill="white"/>
<path d="M149.466 221.012C103.21 219.807 52.0392 232.232 52.0392 232.232C39.8569 299.455 45.2167 375.492 47.2908 398.521C47.6792 402.833 50.9051 406.335 55.164 407.118C79.0675 411.511 104.276 408.846 116.957 406.916C121.89 406.165 125.835 402.44 126.883 397.561C135.262 358.557 159.201 272.506 159.201 272.506C181.832 269.916 200.516 263.572 215.933 255.096C204.365 241.426 199.015 224.121 196.718 213.899C180.312 218.827 163.734 221.384 149.466 221.012Z" fill="url(#paint5_linear_4191_4047)"/>
<path d="M286.773 154.171C282.281 148.638 278.062 148.878 278.062 148.878C270.979 177.572 233.501 202.851 196.718 213.899C199.015 224.12 204.365 241.426 215.933 255.096C277.124 221.455 286.773 154.171 286.773 154.171Z" fill="url(#paint6_linear_4191_4047)"/>
<path d="M285.657 155.556C286.118 157.073 280.589 159.322 277.406 153.108C277.321 150.144 275.64 137.432 277.433 135.034C286.987 122.267 305.424 106.324 305.424 106.324C308.486 109.403 305.911 112.374 305.911 112.374L296.953 121.529C298.777 124.899 301.013 127.751 302.035 131.817C302.808 134.895 302.286 138.172 300.708 140.952C299.124 143.743 296.965 147.369 294.93 150.203C291.077 155.568 285.657 155.556 285.657 155.556Z" fill="url(#paint7_linear_4191_4047)"/>
<path d="M293.017 127.488L284.868 134.263L282.266 141.061L289.396 149.124C289.396 149.124 291.948 135.611 293.777 132.698C295.606 129.786 294.685 128.361 293.017 127.488Z" fill="url(#paint8_linear_4191_4047)"/>
<path d="M69.3569 277.198L52.0394 232.231C52.0394 232.231 8.54572 261.181 1.08398 298.34C9.24345 299.019 24.081 301.285 38.5543 308.767C41.9177 291.219 69.3569 277.198 69.3569 277.198Z" fill="url(#paint9_linear_4191_4047)"/>
<path d="M106.719 319.711C106.719 319.711 57.9398 346.668 41.7925 323.098C38.4402 318.204 37.6733 313.365 38.5548 308.767C24.0816 301.285 9.24416 299.019 1.08455 298.34C-1.16498 309.542 -0.146345 321.489 6.33331 333.616C34.5088 386.346 113.026 331.735 113.026 331.735L106.719 319.711Z" fill="url(#paint10_linear_4191_4047)"/>
<path d="M102.963 183.006L87.8367 225.436C87.5862 226.139 87.8684 226.923 88.5183 227.29C92.5098 229.547 106.905 236.098 124.433 225.218C126.259 224.085 127.512 222.22 127.808 220.092L132.926 183.292L102.963 183.006Z" fill="url(#paint11_linear_4191_4047)"/>
<path d="M135.369 143.89C135.369 143.89 151.244 174.472 149.055 186.744C146.865 199.015 126.84 197.942 109.441 187.792L97.5303 154.82L135.369 143.89Z" fill="url(#paint12_linear_4191_4047)"/>
<path d="M110.368 171.664C111.082 171.356 111.353 170.488 110.933 169.833C109.657 167.843 107.268 163.783 106.527 160.242C106.527 160.242 103.639 158.353 113.964 155.986C124.29 153.618 139.69 149.937 143.002 141.199C146.232 132.679 138.165 111.1 124.804 128.106C124.296 128.753 123.312 128.758 122.817 128.1C120.681 125.264 115.048 119.365 107.117 122.833C99.696 126.078 98.8118 131.486 98.8872 134.216C98.9094 135.019 98.1856 135.637 97.3978 135.479C93.6684 134.73 84.7081 134.033 80.4352 143.191C76.916 150.734 79.1156 155.044 81.136 157.161C81.7906 157.847 81.4901 158.963 80.581 159.232C78.118 159.96 74.9278 162.012 75.19 167.768C75.553 175.726 84.452 175.11 86.9871 174.771C87.4024 174.716 87.8191 174.862 88.097 175.176C90.245 177.599 99.9282 187.892 110.502 189.223C111.418 189.338 112.137 188.44 111.845 187.564L107.391 174.204C107.184 173.583 107.486 172.908 108.086 172.649L110.368 171.664Z" fill="url(#paint13_linear_4191_4047)"/>
<path d="M112.192 173.572C112.192 173.572 100.758 165.565 99.8535 172.207C98.9493 178.849 110.126 181.938 115.7 179.512L112.192 173.572Z" fill="url(#paint14_linear_4191_4047)"/>
<path d="M96.752 362.313L123.324 269.517C123.626 268.464 124.524 267.696 125.613 267.569C130.427 267.007 144.378 265.43 160.485 264.068C179.886 262.427 202.417 261.097 215.88 262.228C217.795 262.389 218.951 264.413 218.1 266.135C210.444 281.625 178.951 344.633 163.18 365.274C162.657 365.958 161.849 366.357 160.989 366.349L99.3371 365.776C97.5431 365.759 96.2583 364.038 96.752 362.313Z" fill="url(#paint15_linear_4191_4047)"/>
<path d="M103.172 339.894C103.172 339.894 99.4702 324.673 100.963 319.273C102.456 313.873 105.349 306.931 114.992 308.474C124.635 310.016 136.009 314.078 136.009 314.078C136.009 314.078 135.435 321.112 128.106 318.843L132.651 322.359C132.651 322.359 132.001 327.991 125.811 324.982L130.038 329.646C130.038 329.646 127.379 334.271 122.825 331.304C118.271 328.338 116.087 341.727 103.172 339.894Z" fill="url(#paint16_linear_4191_4047)"/>
<path d="M158.712 291.769C158.712 296.077 162.204 299.569 166.512 299.569C170.82 299.569 174.312 296.077 174.312 291.769C174.312 287.461 170.82 283.969 166.512 283.969C162.204 283.969 158.712 287.461 158.712 291.769Z" fill="#91B3FA"/>
<path d="M126.33 296.911L131.74 278.559C132.403 276.305 134.216 274.613 136.468 274.142C153.425 270.604 199.836 269.854 200.303 269.847L200.272 267.773C198.358 267.803 153.194 268.535 136.044 272.113C133.043 272.739 130.632 274.985 129.75 277.972L124.34 296.324L126.33 296.911Z" fill="#BDD0FB"/>
<path d="M282.3 406.908C281.753 406.816 281.27 406.51 280.954 406.054C276.345 399.409 242.947 347.49 291.043 302.546C336.701 259.881 357.047 251.471 360.543 225.657C360.952 222.642 365.064 222.047 366.322 224.817C375.724 245.517 389.868 293.569 337.031 323.122C278.746 355.722 282.225 393.614 284.647 404.427C284.967 405.857 283.744 407.152 282.3 406.908Z" fill="#91B3FA"/>
<path d="M289.361 408.101C288.066 407.882 287.067 406.845 286.908 405.541C285.825 396.664 283.528 363.549 308.126 355.573C335.204 346.794 356.019 372.416 376.321 353.532C377.39 352.538 379.102 353.489 378.809 354.918C376.73 365.055 368.175 388.416 333.314 392.057C296.001 395.954 291.685 400.082 292.266 405.392C292.445 407.03 290.985 408.375 289.361 408.101Z" fill="#91B3FA"/>
<path opacity="0.47" d="M358.112 251.932C357.557 253.785 356.847 255.544 356.033 257.271C355.224 258.996 354.332 260.682 353.372 262.329C352.413 263.976 351.387 265.587 350.276 267.138C349.172 268.694 348.024 270.221 346.799 271.684C341.929 277.571 336.153 282.692 329.856 287.01C326.711 289.165 323.388 291.113 320.058 292.895C316.779 294.659 313.617 296.647 310.58 298.811C304.511 303.145 298.941 308.192 294.043 313.822C289.142 319.449 284.944 325.684 281.606 332.352C278.263 339.016 275.85 346.153 274.551 353.503C273.246 360.851 273.056 368.395 273.908 375.831C274.744 383.275 276.687 390.582 279.343 397.612C279.42 397.813 279.319 398.039 279.118 398.116C278.922 398.191 278.7 398.094 278.619 397.901C275.709 390.907 273.596 383.545 272.576 375.998C272.05 372.229 271.808 368.416 271.845 364.603C271.906 360.792 272.219 356.978 272.849 353.213C274.078 345.676 276.451 338.329 279.785 331.455C283.121 324.577 287.436 318.196 292.413 312.411C297.401 306.63 303.073 301.446 309.27 296.982C312.371 294.752 315.603 292.702 318.964 290.876L321.438 289.525C322.263 289.088 323.065 288.614 323.868 288.138L325.073 287.429L326.255 286.682L327.438 285.935L328.598 285.155C331.687 283.069 334.672 280.826 337.482 278.376C340.296 275.931 342.974 273.324 345.428 270.512C347.911 267.727 350.169 264.742 352.223 261.619C354.254 258.493 356.086 255.182 357.43 251.724L357.439 251.701C357.511 251.518 357.717 251.427 357.9 251.498C358.074 251.566 358.164 251.757 358.112 251.932Z" fill="white"/>
<path opacity="0.47" d="M288.241 402.054C288.302 401.745 288.292 401.444 288.29 401.141L288.295 400.232C288.302 399.627 288.318 399.021 288.34 398.416C288.385 397.207 288.455 395.998 288.552 394.791C288.747 392.378 289.04 389.971 289.451 387.582C290.282 382.813 291.542 378.078 293.63 373.667C294.67 371.465 295.943 369.359 297.485 367.453C299.02 365.544 300.874 363.874 302.973 362.579C305.079 361.298 307.433 360.415 309.863 360.005C311.076 359.795 312.306 359.676 313.535 359.672C314.763 359.646 315.991 359.733 317.207 359.875C318.43 360.025 319.61 360.239 320.805 360.44L324.376 361.071C326.754 361.504 329.127 361.962 331.497 362.436C336.237 363.376 340.957 364.406 345.694 365.278C348.063 365.708 350.439 366.094 352.824 366.333C355.207 366.567 357.607 366.652 359.966 366.379C362.324 366.124 364.632 365.456 366.715 364.326C368.805 363.208 370.652 361.661 372.293 359.928C372.414 359.801 372.615 359.795 372.742 359.915C372.869 360.035 372.875 360.234 372.757 360.362C371.103 362.149 369.22 363.768 367.059 364.957C364.906 366.158 362.497 366.884 360.061 367.175C357.619 367.466 355.163 367.382 352.744 367.152C350.323 366.915 347.927 366.533 345.544 366.107C340.781 365.244 336.061 364.227 331.325 363.301C326.597 362.376 321.834 361.485 317.095 360.779C315.916 360.633 314.728 360.541 313.543 360.557C312.357 360.552 311.174 360.659 310.008 360.853C307.674 361.229 305.42 362.057 303.392 363.27C301.372 364.497 299.574 366.09 298.071 367.933C296.56 369.77 295.304 371.819 294.263 373.972C292.17 378.281 290.873 382.956 290.001 387.68C289.571 390.046 289.256 392.435 289.038 394.832C288.93 396.031 288.849 397.233 288.792 398.435C288.764 399.036 288.743 399.638 288.73 400.239L288.716 401.141C288.713 401.441 288.706 401.745 288.78 402.039C288.817 402.187 288.728 402.337 288.581 402.375C288.433 402.412 288.283 402.323 288.245 402.175C288.234 402.135 288.234 402.092 288.241 402.054Z" fill="white"/>
<defs>
<linearGradient id="paint0_linear_4191_4047" x1="-23.1984" y1="460.606" x2="275.957" y2="137.708" gradientUnits="userSpaceOnUse">
<stop stop-color="#DAE3FE"/>
<stop offset="1" stop-color="#E9EFFD"/>
</linearGradient>
<linearGradient id="paint1_linear_4191_4047" x1="301.733" y1="-129.884" x2="302.717" y2="-18.7488" gradientUnits="userSpaceOnUse">
<stop stop-color="#4F52FF"/>
<stop offset="1" stop-color="#4042E2"/>
</linearGradient>
<linearGradient id="paint2_linear_4191_4047" x1="403.261" y1="33.9644" x2="585.208" y2="-106.676" gradientUnits="userSpaceOnUse">
<stop stop-color="#4F52FF"/>
<stop offset="1" stop-color="#4042E2"/>
</linearGradient>
<linearGradient id="paint3_linear_4191_4047" x1="277.854" y1="159.412" x2="260.875" y2="237.677" gradientUnits="userSpaceOnUse">
<stop stop-color="#E1473D"/>
<stop offset="1" stop-color="#E9605A"/>
</linearGradient>
<linearGradient id="paint4_linear_4191_4047" x1="274.257" y1="162.189" x2="274.635" y2="179.411" gradientUnits="userSpaceOnUse">
<stop stop-color="#E1473D"/>
<stop offset="1" stop-color="#E9605A"/>
</linearGradient>
<linearGradient id="paint5_linear_4191_4047" x1="102.406" y1="214.626" x2="208.416" y2="622.764" gradientUnits="userSpaceOnUse">
<stop stop-color="#4F52FF"/>
<stop offset="1" stop-color="#4042E2"/>
</linearGradient>
<linearGradient id="paint6_linear_4191_4047" x1="196.835" y1="201.51" x2="286.315" y2="202.36" gradientUnits="userSpaceOnUse">
<stop stop-color="#FEBBBA"/>
<stop offset="1" stop-color="#FF928E"/>
</linearGradient>
<linearGradient id="paint7_linear_4191_4047" x1="266.518" y1="188.026" x2="205.178" y2="324.064" gradientUnits="userSpaceOnUse">
<stop stop-color="#FEBBBA"/>
<stop offset="1" stop-color="#FF928E"/>
</linearGradient>
<linearGradient id="paint8_linear_4191_4047" x1="286.453" y1="142.716" x2="311.872" y2="104.435" gradientUnits="userSpaceOnUse">
<stop stop-color="#FEBBBA"/>
<stop offset="1" stop-color="#FF928E"/>
</linearGradient>
<linearGradient id="paint9_linear_4191_4047" x1="21.6933" y1="235.69" x2="125.37" y2="634.844" gradientUnits="userSpaceOnUse">
<stop stop-color="#4F52FF"/>
<stop offset="1" stop-color="#4042E2"/>
</linearGradient>
<linearGradient id="paint10_linear_4191_4047" x1="-0.175543" y1="327.235" x2="113.058" y2="328.311" gradientUnits="userSpaceOnUse">
<stop stop-color="#FEBBBA"/>
<stop offset="1" stop-color="#FF928E"/>
</linearGradient>
<linearGradient id="paint11_linear_4191_4047" x1="87.926" y1="207.01" x2="132.697" y2="207.436" gradientUnits="userSpaceOnUse">
<stop stop-color="#FEBBBA"/>
<stop offset="1" stop-color="#FF928E"/>
</linearGradient>
<linearGradient id="paint12_linear_4191_4047" x1="143.616" y1="179.056" x2="94.6774" y2="148.566" gradientUnits="userSpaceOnUse">
<stop stop-color="#FEBBBA"/>
<stop offset="1" stop-color="#FF928E"/>
</linearGradient>
<linearGradient id="paint13_linear_4191_4047" x1="68.9224" y1="116.67" x2="132.036" y2="167.499" gradientUnits="userSpaceOnUse">
<stop stop-color="#09005D"/>
<stop offset="1" stop-color="#1A0F91"/>
</linearGradient>
<linearGradient id="paint14_linear_4191_4047" x1="130.58" y1="190.128" x2="86.5493" y2="162.696" gradientUnits="userSpaceOnUse">
<stop stop-color="#FEBBBA"/>
<stop offset="1" stop-color="#FF928E"/>
</linearGradient>
<linearGradient id="paint15_linear_4191_4047" x1="143.423" y1="255.286" x2="205.905" y2="515.629" gradientUnits="userSpaceOnUse">
<stop stop-color="#09005D"/>
<stop offset="1" stop-color="#1A0F91"/>
</linearGradient>
<linearGradient id="paint16_linear_4191_4047" x1="100.608" y1="324.161" x2="136.01" y2="324.161" gradientUnits="userSpaceOnUse">
<stop stop-color="#FEBBBA"/>
<stop offset="1" stop-color="#FF928E"/>
</linearGradient>
</defs>
</svg>
