<?xml version="1.0" encoding="UTF-8" standalone="no"?>
<!-- Generator: Adobe Illustrator 21.0.2, SVG Export Plug-In . SVG Version: 6.00 Build 0)  -->

<svg
   version="1.1"
   id="Mode_Isolation"
   x="0px"
   y="0px"
   viewBox="0 0 1021.75 261.24999"
   xml:space="preserve"
   width="1021.75"
   height="261.25"
   xmlns="http://www.w3.org/2000/svg"
   xmlns:svg="http://www.w3.org/2000/svg"><defs
   id="defs352" />
<style
   type="text/css"
   id="style315">
	.st0{fill:#F7F187;}
	.st1{fill:#FFFFFF;}
	.st2{fill:none;stroke:#FFFFFF;stroke-width:1.3063;stroke-miterlimit:10;}
	.st3{fill:none;stroke:#F7F187;stroke-width:1.3063;stroke-miterlimit:10;}
	.st4{fill:#050C4E;}
	.st5{fill:none;}
</style>
<path
   d="m 506.75,121.5 c -5.25,-3.75 -9.25,-7 -11,-9.25 -4,-4.75 -6.25,-10 -6.5,-10.25 -2.5,-5.75 -3.5,-11.75 -3,-18.25 v 0 c 0,-3.25 0,-33.75 0,-33.75 h -26 l -4,-7.75 h 30 V 15 h 8.25 v 27 h 30.25 l -4,7.75 h -26 c 0,0 0,33.25 0,36.25 0,4.5 0.75,8.75 2.5,12.5 0,0 2,4.25 5,8 1.5,1.5 4.5,4.25 8.5,7.25 z M 250,119.5 C 250,94 274.25,88 323.75,86 c -1.5,-23.25 -9.25,-38 -36.5,-38 -7.5,0 -14.5,1.25 -21.5,4.5 L 262,45.25 C 270.25,41 278.75,40 287.25,40 c 32.5,0 45.25,17.5 45.25,55.25 0,37.5 -12.75,55.25 -45.25,55.25 -0.25,0 -1.5,0 -1.75,0 C 258,150.25 250,137.75 250,119.5 Z m 8.75,0.25 c 0,7 1.25,12.25 4.75,16 1,1.25 2.5,2.25 4.25,3 6.5,2.75 13,3.75 19.75,3.75 30.5,0 36.75,-18.5 36.75,-47.25 0,-0.5 0,-1.25 0,-1.75 -41.75,2 -65.5,5.5 -65.5,26.25 z m 147.75,-80 h -4.75 C 370.5,39.75 366.25,66 366.25,89 v 55.5 c 2.5,2.25 5.5,4 8.5,5.5 V 91.75 c 0,-26 3.75,-44.25 28.5,-44.25 h 2.25 c 24.5,0 28.5,18.25 28.5,44.25 v 58.5 c 3,-1.5 6,-3.25 8.5,-5.5 v -55.5 c -0.5,-23.25 -5,-49.5 -36,-49.5 z m 228.75,49.5 c -6.25,-7.25 -18.5,-11 -40,-18.75 -4.75,-1.75 -9,-3.25 -13.25,-5.25 v 0 c -12.75,-5.25 -21.75,-12 -21.75,-27 0,-23 16,-30.25 36.25,-30.25 9.5,0 18.75,1 28,4.25 L 628.25,5 C 618.25,1.25 607.5,0 596.25,0 572.75,0 552,10.25 552,38.5 c 0,16.75 8.5,26 21.5,32.25 v 0 c 2,0.75 3.5,1.5 5.25,2.25 0,0 0,0 0,0 v 0 c 4.75,2 8.25,3.5 12.75,5 21,7.5 30.75,8.75 37.75,16.5 0.5,0.5 10.25,12 7.75,26 -1.25,7.25 -5.5,13.75 -12.25,19.5 -15.5,12.75 -39.75,10 -63,2.25 l -4,7.75 c 12.75,4.5 26,7.5 38.5,7.5 12.75,0 24.25,-3 33.75,-10.75 10.5,-8.75 14.25,-18 15.25,-24.5 2.75003,-17.5 -8.75,-31.5 -10,-33 z M 143,205.5 c -2.25,2.25 -4.5,4.25 -7.25,5.75 -23.25,-12 -40,-32.75 -48.5,-59.75 -8,4 -17.75,6 -29.5,6 C 16.25,157.5 0,133.25 0,80.75 0,28.5 16.25,4 57.75,4 c 41.5,0 57.75,24.25 57.75,76.75 0,32.5 -6.25,54 -21,66 8,27.25 25,47.5 48.5,58.75 z M 106.75,80.75 C 106.75,39.75 98.5,12 57.5,12 16.5,12 8.25,39.5 8.25,80.75 c 0,41 8.25,68.75 49.25,68.75 41,0 49.25,-27.5 49.25,-68.75 z m 794.75003,61.75 c -30.5,0 -36.75,-18.5 -36.75,-47.25 0,-28.75 6.25,-47.25 36.75,-47.25 7.75,0 15,1.25 22,4.75 l 3.75,-7.25 c -8.5,-4.25 -17.25,-5.25 -25.5,-5.25 -32.5,0 -45.25,17.5 -45.25,55.25 0,37.5 12.75,55.25 45.25,55.25 8.5,0 17.25,-1 25.75,-5.25 l -3.75,-7.25 c -7.5,3 -14.75,4.25 -22.25,4.25 z m -198.25,-9.75 c -3.25,-3.75 -5,-8 -5,-8 -1.75,-4 -2.5,-8.25 -2.5,-12.5 0,-3 0,-61.75 0,-61.75 h 30 l -4,-7.75 h -26 V 15.5 h -8.25 v 27 h -26.25 l -4,7.75 h 30.25 c 0,0 0,56 0,59.25 v 0 c -0.25,6.5 0.75,12.75 3,18.25 0,0.25 2.5,5.5 6.5,10.25 2,2.25 6,5.75 11.5,9.5 l 3.75,-7.75 c -4.5,-2.75 -7.5,-5.25 -9,-7 z m 318.49997,-78 c -1.75,-2.25 -3.75,-4.25 -6,-6 l -45.74997,45.5 v -55 h -1 c -2.75,0.5 -5,1.25 -7.5,2 v 106.5 c 2.75,1 5.5,1.5 8.5,2.25 V 96.75 l 44.49997,44.5 c 2.25,-1.75 4.25,-3.5 6.25,-5.75 l -39.99997,-40 z m -800,-9.25 c -2.5,-2.25 -5.5,-4 -8.5,-5.5 v 58.5 c 0,26 -3.75,44.25 -28.5,44.25 H 182.5 C 158,142.75 154,124.5 154,98.5 V 39.75 c -3,1.5 -6,3.25 -8.5,5.5 v 55.5 c 0,23 4.5,49.25 35.5,49.25 h 5.25 c 31.25,0 35.5,-26.25 35.5,-49.25 z m 524.00003,74 c 0,-25.5 24.25,-31.5 73.75,-33.5 -1.5,-23.25 -9.25,-38 -36.5,-38 -7.5,0 -14.5,1.25 -21.5,4.5 l -3.75,-7.25 c 8.25,-4.25 16.75,-5.25 25.25,-5.25 32.5,0 45.25,17.5 45.25,55.25 0,37.5 -12.75,55.25 -45.25,55.25 -0.25,0 -1.5,0 -1.75,0 -27.5,-0.25 -35.5,-12.75 -35.5,-31 z m 8.75,0.25 c 0,7 1.25,12.25 4.75,16 1,1.25 2.5,2.25 4.25,3 6.5,2.75 13,3.75 19.75,3.75 30.5,0 36.75,-18.5 36.75,-47.25 0,-0.5 0,-1.25 0,-1.75 -41.75,2 -65.5,5.5 -65.5,26.25 z M 189.5,226.25 c -5.5,-1.75 -10,-3 -10,-8.25 0,-5.75 4,-7.5 9.5,-7.5 3.75,0 7.5,0.75 10.75,2.5 l 1.75,-4.25 c -3.75,-2 -8.25,-2.5 -12.75,-2.5 -7.75,0 -14,3.5 -14,12.25 0,8.25 6.75,10.75 13,12.5 5.75,1.75 11.25,2.75 11.25,8.25 0,6.5 -4.25,8.5 -9.75,8.5 -5,0 -10,-1.5 -14,-3.75 l -1.75,4.25 c 4,2.5 9.75,4 15.75,4 8.75,0 14.75,-4 14.75,-12.75 0,-9.25 -8,-11.5 -14.5,-13.25 z m 40.5,-4.5 c 2.25,0 4.75,0.5 7,1.5 l 1.75,-3.75 c -2.5,-1.5 -5.5,-2 -8.75,-2 -9.5,0 -13.75,5.25 -13.75,17 0,11.75 4.25,17 13.75,17 3.25,0 6.25,-0.5 8.75,-2 L 237,245.75 c -2.25,1.25 -4.5,1.5 -7,1.5 -6.5,0 -9,-3 -9,-13 0,-10 2.25,-12.5 9,-12.5 z m 24.25,-9.25 c 2,0 3,-0.75 3,-2.75 0,-2 -1.25,-2.75 -3,-2.75 -2,0 -3,0.75 -3,2.75 0,2 1,2.75 3,2.75 z m 2.25,5.75 -4.75,0.75 v 20.75 c 0,4.25 0.25,8 1.25,11.25 h 4.5 c -1,-3.5 -1,-7.25 -1,-11 z m 40.75,17.25 v 0.5 l -21.75,1.75 c 0.25,7.75 3.5,10 9.5,10 3.25,0 6.25,-0.75 9.25,-2.5 l 1.75,3.5 c -3.25,2.25 -7,3 -11,3 -8.5,0 -14.25,-3.5 -14.25,-17 0,-14.25 6.5,-17 13.5,-17 8.25,-0.25 13,3.75 13,17.75 z m -4.5,-3 c -0.25,-8.25 -3.25,-11 -8.25,-11 -5.5,0 -9,3 -9,11.75 V 234 Z m 33,-15 c -5.5,0 -8.75,1.75 -10.75,5.25 -0.25,-1.75 -0.75,-3.25 -1.25,-4.75 l -4,1 c 1,3.5 1.25,7.5 1.25,11.25 V 251 h 4.75 v -23 c 2,-4.25 4.5,-6.5 9.25,-6.5 6.75,0 7.25,4.5 7.25,11.75 V 251 H 337 v -18.75 c -0.25,-7.5 -1.75,-14.75 -11.25,-14.75 z m 32.75,-9.75 -4.75,0.75 v 10 h -5.5 v 4 h 5.5 v 13 c 0,7.25 0.5,12.5 5.75,16.5 l 3.25,-2.75 c -4,-3.75 -4,-7 -4,-12.5 V 222.5 h 6.75 l 0.5,-4 h -7.25 v -10.75 z m 21.5,4.75 c 2,0 3,-0.75 3,-2.75 0,-2 -1.25,-2.75 -3,-2.75 -2,0 -3,0.75 -3,2.75 0,2 1.25,2.75 3,2.75 z m 2.5,5.75 -4.75,0.75 v 20.75 c 0,4.25 0.25,8 1.25,11.25 h 4.5 c -1,-3.5 -1,-7.25 -1,-11 z m 27,-9.25 c 0.75,0 1.75,0.25 2.75,0.5 l 0.75,-4 c -1.25,-0.25 -2.5,-0.5 -3.75,-0.5 -7,0 -9.25,4 -9.25,9.5 0,1.5 0.25,3 0.5,4.5 H 395 v 4 h 5.5 v 28 h 4.75 v -28 h 7 l 0.5,-4 h -7.5 c -0.5,-1.25 -0.5,-3 -0.5,-4.25 -0.5,-4 0.5,-5.75 4.75,-5.75 z m 18,3.5 c 2,0 3,-0.75 3,-2.75 0,-2 -1.25,-2.75 -3,-2.75 -2,0 -3,0.75 -3,2.75 0,2 1,2.75 3,2.75 z m 2.25,5.75 L 425,219 v 20.75 c 0,4.25 0.25,8 1.25,11.25 h 4.5 c -1,-3.5 -1,-7.25 -1,-11 z m 28.25,3.5 c 2.25,0 4.75,0.5 7,1.5 l 1.75,-3.75 c -2.5,-1.5 -5.5,-2 -8.75,-2 -9.5,0 -13.75,5.25 -13.75,17 0,11.75 4.25,17 13.75,17 3.25,0 6.25,-0.5 8.75,-2 L 465,245.75 c -2.25,1.25 -4.5,1.5 -7,1.5 -6.5,0 -9,-3 -9,-13 0,-10 2.25,-12.5 9,-12.5 z m 57.25,-11.25 c 3.5,0 7,0.75 10.25,2.5 l 2,-4 c -3.5,-2.25 -8,-2.75 -12.5,-2.75 -10.25,0 -17.25,5.25 -17.25,23 0,17.75 7.25,23 17.25,23 4.5,0 9,-0.5 12.5,-2.75 l -2,-4 c -3.25,2 -6.75,2.5 -10.25,2.5 -7.75,0 -12.75,-3 -12.75,-18.5 0,-15.5 5.25,-19 12.75,-19 z m 51.25,24.25 c 0,11.75 -4,17 -14.25,17 -10.25,0 -14.25,-5.5 -14.25,-17 0,-11.75 4,-17 14.25,-17 10.25,-0.25 14.25,5.25 14.25,17 z m -4.75,0 c 0,-8.25 -1.5,-13 -9.5,-13 -8,0 -9.5,5 -9.5,13 0,8 1.5,13 9.5,13 8,0 9.5,-5 9.5,-13 z m 53.5,-17.25 c -5.5,0 -8.75,1.75 -11.25,5.75 -1.5,-3.5 -4.25,-5.75 -9.25,-5.75 -5.25,0 -8.5,1.75 -10.5,5.25 C 584,221 583.5,219.5 583,218 l -4,1 c 1,3.5 1.25,7.5 1.25,11.25 V 251 H 585 v -23 c 2,-4.25 4.25,-6.5 8.75,-6.5 5.75,0 7,3.5 7,8.25 V 251 h 4.75 v -23 c 2,-4.25 4.25,-6.5 8.75,-6.5 6.5,0 7,4.5 7,11.75 V 251 H 626 v -18.75 c 0,-7.5 -1.5,-14.75 -10.75,-14.75 z m 51.75003,17.25 c 0,14.25 -6.75,17 -13.25,17 -3.25,0 -6,-0.5 -8.50003,-2 0.25,2.25 0.25,4.25 0.25,6.25 v 4.75 h -4.75 v -30.5 c 0,-4 -0.25,-7.75 -1.25,-11.25 l 4,-1 c 0.5,1.5 1,3.25 1.25,4.75 2.00003,-3.5 5.25003,-5.25 10.50003,-5.25 8.25,0 11.75,5.75 11.75,17.25 z m -4.75,0 c 0,-8 -1.5,-13.25 -7.75,-13.25 -4.75,0 -7,2.5 -9.25003,6.5 v 17.75 c 2.50003,1.5 5.25003,2 8.00003,2 5.75,0 9,-2.25 9,-13 z m 44,-16.5 -4.75,0.75 v 22.25 c -2,4.25 -4.5,6.5 -9.25,6.5 -6.75,0 -7.25,-4.5 -7.25,-11.75 v -17.75 l -4.75,0.75 v 18 c 0,7.75 1.5,14.75 11,14.75 5.5,0 8.75,-1.75 10.75,-5.25 0.25,1.75 0.75,3.25 1.25,4.75 l 4,-1 c -1,-3.5 -1.25,-7.5 -1.25,-11.25 v -20.75 z m 22.25,-10.5 -4.75,0.75 v 10 h -5.5 v 4 h 5.5 v 13 c 0,7.25 0.5,12.5 5.75,16.5 l 3.25,-2.75 c -4,-3.75 -4,-7 -4,-12.5 V 222.5 h 6.75 l 0.5,-4 h -7.25 v -10.75 z m 21.5,4.75 c 2,0 3,-0.75 3,-2.75 0,-2 -1.25,-2.75 -3,-2.75 -2,0 -3,0.75 -3,2.75 0,2 1,2.75 3,2.75 z m 2.25,5.75 -4.75,0.75 v 20.75 c 0,4.25 0.25,8 1.25,11.25 h 4.5 c -1,-3.5 -1,-7.25 -1,-11 z m 30.25,-0.75 c -5.5,0 -8.75,1.75 -10.75,5.25 -0.25,-1.75 -0.75,-3.25 -1.25,-4.75 l -4,1 c 1,3.5 1.25,7.5 1.25,11.25 V 251 h 4.75 v -23 c 2,-4.25 4.5,-6.5 9.25,-6.5 6.75,0 7.25,4.5 7.25,11.75 V 251 h 4.75 v -18.75 c -0.25,-7.5 -1.75,-14.75 -11.25,-14.75 z m 38,0 c 4.5,0 8.75,0.5 12.75,2 v 29 c 0,9 -4.75,12.75 -12.5,12.75 -3,0 -6.25,-0.5 -9,-1.75 l 1.25,-3.75 c 2.25,1.25 5,1.75 8,1.75 4.75,0 7.75,-2.25 7.75,-9 v -2.25 c -1.75,3.25 -5,4.5 -10,4.5 -8.25,0 -11.75,-5.5 -11.75,-16.75 0,-13.25 6,-16.5 13.5,-16.5 z m 8.25,5.25 c -2.5,-1 -5.5,-1.25 -8.25,-1.25 -5.5,0 -8.75,2.5 -8.75,12.75 0,7.75 1.5,12.75 7.75,12.75 4.75,0 7,-2.25 9.25,-6.25 z"
   id="path3"
   style="stroke-width:2.5" />
</svg>
