<svg width="32" height="32" viewBox="0 0 32 32" fill="none" xmlns="http://www.w3.org/2000/svg">
<g id="Component 42">
<path id="Vector" d="M30.6004 18.7999C30.4953 18.8787 30.3758 18.936 30.2486 18.9686C30.1213 19.0012 29.989 19.0084 29.859 18.9898C29.729 18.9713 29.6039 18.9273 29.4909 18.8604C29.3779 18.7935 29.2792 18.705 29.2004 18.5999C28.5976 17.7897 27.8131 17.1324 26.9099 16.6808C26.0068 16.2292 25.0102 15.996 24.0004 15.9999C23.8037 15.9999 23.6115 15.9419 23.4476 15.8332C23.2837 15.7244 23.1556 15.5698 23.0791 15.3886C23.0272 15.2656 23.0005 15.1334 23.0005 14.9999C23.0005 14.8664 23.0272 14.7342 23.0791 14.6111C23.1556 14.43 23.2837 14.2754 23.4476 14.1666C23.6115 14.0579 23.8037 13.9999 24.0004 13.9999C24.5615 13.9998 25.1113 13.8424 25.5874 13.5456C26.0635 13.2487 26.4469 12.8243 26.6938 12.3204C26.9408 11.8166 27.0416 11.2537 26.9846 10.6955C26.9277 10.1373 26.7154 9.60624 26.3717 9.16268C26.0281 8.71911 25.567 8.3808 25.0408 8.18617C24.5145 7.99154 23.9442 7.94839 23.3947 8.06163C22.8451 8.17486 22.3384 8.43994 21.9319 8.82676C21.5255 9.21358 21.2357 9.70662 21.0954 10.2499C21.0625 10.3771 21.005 10.4966 20.926 10.6016C20.847 10.7066 20.748 10.7949 20.6349 10.8617C20.5217 10.9284 20.3965 10.9722 20.2664 10.9906C20.1363 11.0089 20.0038 11.0015 19.8766 10.9686C19.7494 10.9358 19.6299 10.8783 19.5249 10.7992C19.42 10.7202 19.3316 10.6213 19.2648 10.5081C19.1981 10.395 19.1543 10.2697 19.136 10.1397C19.1176 10.0096 19.125 9.87712 19.1579 9.7499C19.3526 8.99654 19.7204 8.29902 20.2321 7.71284C20.7438 7.12665 21.3853 6.66799 22.1054 6.37334C22.8256 6.07868 23.6046 5.95618 24.3804 6.01556C25.1563 6.07495 25.9075 6.31459 26.5745 6.71541C27.2414 7.11624 27.8056 7.66719 28.2221 8.32442C28.6386 8.98165 28.896 9.72703 28.9738 10.5012C29.0516 11.2755 28.9476 12.0571 28.6701 12.7841C28.3926 13.511 27.9493 14.1632 27.3754 14.6886C28.7351 15.2774 29.9172 16.2117 30.8041 17.3986C30.8829 17.504 30.9402 17.6238 30.9726 17.7513C31.005 17.8788 31.0119 18.0114 30.993 18.1415C30.9741 18.2717 30.9296 18.3969 30.8623 18.5098C30.7949 18.6228 30.7059 18.7214 30.6004 18.7999ZM23.8654 26.4999C23.9377 26.6137 23.9863 26.741 24.0082 26.8741C24.0301 27.0072 24.0248 27.1433 23.9928 27.2743C23.9607 27.4053 23.9024 27.5284 23.8215 27.6363C23.7406 27.7442 23.6387 27.8346 23.5219 27.9021C23.4051 27.9696 23.2759 28.0128 23.142 28.0291C23.0082 28.0453 22.8724 28.0343 22.7428 27.9968C22.6133 27.9592 22.4927 27.8958 22.3883 27.8104C22.2839 27.725 22.1979 27.6194 22.1354 27.4999C21.5054 26.4332 20.6083 25.5492 19.5324 24.9352C18.4565 24.3211 17.2392 23.9981 16.0004 23.9981C14.7616 23.9981 13.5442 24.3211 12.4683 24.9352C11.3925 25.5492 10.4953 26.4332 9.86538 27.4999C9.80286 27.6194 9.71682 27.725 9.61243 27.8104C9.50803 27.8958 9.38744 27.9592 9.25792 27.9968C9.12839 28.0343 8.9926 28.0453 8.85871 28.0291C8.72483 28.0128 8.59562 27.9696 8.47885 27.9021C8.36209 27.8346 8.26018 27.7442 8.17926 27.6363C8.09835 27.5284 8.0401 27.4053 8.00801 27.2743C7.97592 27.1433 7.97066 27.0072 7.99255 26.8741C8.01444 26.741 8.06303 26.6137 8.13538 26.4999C9.10488 24.8341 10.5831 23.5232 12.3529 22.7599C11.357 21.9974 10.6252 20.9421 10.2601 19.7422C9.89509 18.5423 9.91525 17.2581 10.3178 16.0703C10.7203 14.8824 11.4849 13.8506 12.5042 13.1197C13.5235 12.3889 14.7462 11.9959 16.0004 11.9959C17.2546 11.9959 18.4773 12.3889 19.4965 13.1197C20.5158 13.8506 21.2805 14.8824 21.683 16.0703C22.0855 17.2581 22.1057 18.5423 21.7406 19.7422C21.3756 20.9421 20.6437 21.9974 19.6479 22.7599C21.4176 23.5232 22.8959 24.8341 23.8654 26.4999ZM16.0004 21.9999C16.7915 21.9999 17.5649 21.7653 18.2227 21.3258C18.8805 20.8863 19.3931 20.2615 19.6959 19.5306C19.9986 18.7997 20.0779 17.9955 19.9235 17.2195C19.7692 16.4436 19.3882 15.7309 18.8288 15.1715C18.2694 14.6121 17.5567 14.2311 16.7807 14.0768C16.0048 13.9224 15.2006 14.0016 14.4696 14.3044C13.7387 14.6071 13.114 15.1198 12.6745 15.7776C12.235 16.4354 12.0004 17.2088 12.0004 17.9999C12.0004 19.0608 12.4218 20.0782 13.172 20.8283C13.9221 21.5785 14.9395 21.9999 16.0004 21.9999ZM9.00038 14.9999C9.00038 14.7347 8.89502 14.4803 8.70749 14.2928C8.51995 14.1053 8.2656 13.9999 8.00038 13.9999C7.43929 13.9998 6.88946 13.8424 6.41334 13.5456C5.93722 13.2487 5.5539 12.8243 5.30692 12.3204C5.05994 11.8166 4.95919 11.2537 5.01613 10.6955C5.07306 10.1373 5.2854 9.60624 5.62901 9.16268C5.97263 8.71911 6.43375 8.3808 6.96 8.18617C7.48626 7.99154 8.05654 7.94839 8.60609 8.06163C9.15563 8.17486 9.66241 8.43994 10.0688 8.82676C10.4753 9.21358 10.7651 9.70662 10.9054 10.2499C10.9717 10.5068 11.1373 10.7269 11.3659 10.8617C11.5945 10.9965 11.8672 11.035 12.1241 10.9686C12.3811 10.9023 12.6011 10.7367 12.7359 10.5081C12.8707 10.2796 12.9092 10.0068 12.8429 9.7499C12.6482 8.99654 12.2803 8.29902 11.7686 7.71284C11.2569 7.12665 10.6155 6.66799 9.89532 6.37334C9.17516 6.07868 8.39617 5.95618 7.62033 6.01556C6.84449 6.07495 6.09321 6.31459 5.42629 6.71541C4.75936 7.11624 4.19519 7.66719 3.77866 8.32442C3.36212 8.98165 3.10473 9.72703 3.02697 10.5012C2.9492 11.2755 3.05319 12.0571 3.33068 12.7841C3.60817 13.511 4.0515 14.1632 4.62538 14.6886C3.26698 15.278 2.08627 16.2122 1.20038 17.3986C1.04108 17.6108 0.972598 17.8776 1.00999 18.1403C1.04738 18.4029 1.18758 18.64 1.39975 18.7993C1.61193 18.9586 1.87869 19.0271 2.14136 18.9897C2.40403 18.9523 2.64108 18.8121 2.80038 18.5999C3.40311 17.7897 4.18765 17.1324 5.09083 16.6808C5.99401 16.2292 6.9906 15.996 8.00038 15.9999C8.2656 15.9999 8.51995 15.8945 8.70749 15.707C8.89502 15.5195 9.00038 15.2651 9.00038 14.9999Z" fill="#1C1C16"/>
</g>
</svg>
