<svg width="32" height="32" viewBox="0 0 32 32" fill="none" xmlns="http://www.w3.org/2000/svg">
<g id="Component 42">
<path id="Vector" d="M22.0002 28.9998C22.0002 29.265 21.8948 29.5193 21.7073 29.7069C21.5197 29.8944 21.2654 29.9998 21.0002 29.9998H11.0002C10.7349 29.9998 10.4806 29.8944 10.2931 29.7069C10.1055 29.5193 10.0002 29.265 10.0002 28.9998C10.0002 28.7346 10.1055 28.4802 10.2931 28.2927C10.4806 28.1051 10.7349 27.9998 11.0002 27.9998H21.0002C21.2654 27.9998 21.5197 28.1051 21.7073 28.2927C21.8948 28.4802 22.0002 28.7346 22.0002 28.9998ZM27.0002 12.9998C27.0045 14.6668 26.6279 16.3128 25.8991 17.8122C25.1704 19.3115 24.1087 20.6245 22.7952 21.651C22.5496 21.8393 22.3502 22.0812 22.2125 22.3583C22.0747 22.6354 22.0021 22.9403 22.0002 23.2498V23.9998C22.0002 24.5302 21.7894 25.0389 21.4144 25.414C21.0393 25.7891 20.5306 25.9998 20.0002 25.9998H12.0002C11.4697 25.9998 10.961 25.7891 10.586 25.414C10.2109 25.0389 10.0002 24.5302 10.0002 23.9998V23.2498C9.99996 22.944 9.92965 22.6424 9.79465 22.368C9.65965 22.0937 9.46355 21.854 9.22141 21.6673C7.91133 20.647 6.85049 19.342 6.11916 17.8512C5.38783 16.3604 5.00518 14.7228 5.00016 13.0623C4.96766 7.10353 9.78266 2.14352 15.7352 1.99977C17.2018 1.96443 18.6608 2.22284 20.0261 2.7598C21.3914 3.29675 22.6355 4.1014 23.6852 5.12639C24.7349 6.15137 25.5689 7.37598 26.1382 8.72814C26.7075 10.0803 27.0006 11.5327 27.0002 12.9998ZM25.0002 12.9998C25.0005 11.7994 24.7607 10.611 24.2949 9.50463C23.8291 8.39828 23.1466 7.3963 22.2877 6.55766C21.4288 5.71903 20.4108 5.06069 19.2936 4.62141C18.1765 4.18212 16.9827 3.97076 15.7827 3.99977C10.9077 4.11477 6.97391 8.17352 7.00016 13.0485C7.00464 14.4068 7.31803 15.7462 7.9166 16.9655C8.51518 18.1847 9.38327 19.2518 10.4552 20.086C10.937 20.4606 11.3267 20.9404 11.5945 21.4888C11.8623 22.0371 12.001 22.6395 12.0002 23.2498V23.9998H15.0002V18.4135L11.2927 14.7073C11.105 14.5196 10.9996 14.2651 10.9996 13.9998C10.9996 13.7344 11.105 13.4799 11.2927 13.2923C11.4803 13.1046 11.7348 12.9992 12.0002 12.9992C12.2655 12.9992 12.52 13.1046 12.7077 13.2923L16.0002 16.586L19.2927 13.2923C19.3856 13.1994 19.4959 13.1257 19.6173 13.0754C19.7387 13.0251 19.8688 12.9992 20.0002 12.9992C20.1316 12.9992 20.2617 13.0251 20.3831 13.0754C20.5045 13.1257 20.6148 13.1994 20.7077 13.2923C20.8006 13.3852 20.8743 13.4955 20.9246 13.6169C20.9748 13.7383 21.0007 13.8684 21.0007 13.9998C21.0007 14.1312 20.9748 14.2613 20.9246 14.3827C20.8743 14.5041 20.8006 14.6144 20.7077 14.7073L17.0002 18.4135V23.9998H20.0002V23.2498C20.0013 22.6377 20.1423 22.034 20.4125 21.4848C20.6826 20.9356 21.0748 20.4555 21.5589 20.081C22.634 19.2408 23.503 18.1661 24.0994 16.9388C24.6958 15.7116 25.0039 14.3643 25.0002 12.9998Z" fill="#1C1C16"/>
</g>
</svg>
