<?xml version="1.0" encoding="UTF-8" standalone="no"?>
<!-- Created with Inkscape (http://www.inkscape.org/) -->

<svg
   width="3.174993mm"
   height="4.2333531mm"
   viewBox="0 0 3.174993 4.2333531"
   version="1.1"
   id="svg1"
   xmlns="http://www.w3.org/2000/svg"
   xmlns:svg="http://www.w3.org/2000/svg">
  <defs
     id="defs1" />
  <g
     id="layer1"
     transform="translate(-94.82625,-82.530005)">
    <path
       d="m 96.891184,84.782819 -1.763683,1.924129 c -0.01639,0.01789 -0.03584,0.03207 -0.05725,0.04175 -0.02141,0.0097 -0.04436,0.01466 -0.06753,0.01466 -0.02317,0 -0.04612,-0.005 -0.06753,-0.01466 -0.02141,-0.0097 -0.04086,-0.02387 -0.05725,-0.04175 -0.01639,-0.01786 -0.02939,-0.0391 -0.03825,-0.06244 -0.0089,-0.02336 -0.01343,-0.04839 -0.01343,-0.07369 0,-0.02527 0.0046,-0.05032 0.01343,-0.07366 0.0089,-0.02336 0.02187,-0.04458 0.03825,-0.06247 l 1.639122,-1.788001 -1.639123,-1.788025 c -0.03309,-0.03611 -0.05169,-0.08507 -0.05169,-0.136134 0,-0.05106 0.01859,-0.100028 0.05169,-0.136133 0.03309,-0.0361 0.07798,-0.05639 0.12478,-0.05639 0.0468,0 0.09169,0.02029 0.124781,0.05639 l 1.763683,1.924137 c 0.0164,0.01789 0.02942,0.0391 0.03829,0.06247 0.0089,0.02336 0.01344,0.04839 0.01344,0.07369 0,0.02527 -0.0045,0.05032 -0.01344,0.07366 -0.0089,0.02336 -0.02188,0.04458 -0.03829,0.06247 z"
       fill="#a0c9ff"
       id="path1"
       style="stroke-width:0.264583" />
    <path
       d="m 97.949517,84.782819 -1.763686,1.924129 c -0.01638,0.01789 -0.03582,0.03207 -0.05726,0.04175 -0.02141,0.0097 -0.04434,0.01466 -0.06752,0.01466 -0.02318,0 -0.04612,-0.005 -0.06752,-0.01466 -0.02143,-0.0097 -0.04088,-0.02387 -0.05726,-0.04175 -0.01638,-0.01786 -0.02939,-0.0391 -0.03826,-0.06244 -0.0089,-0.02336 -0.01344,-0.04839 -0.01344,-0.07369 0,-0.02527 0.0046,-0.05032 0.01344,-0.07366 0.0089,-0.02336 0.02188,-0.04458 0.03826,-0.06247 l 1.639121,-1.788001 -1.63912,-1.788025 c -0.0331,-0.03611 -0.0517,-0.08507 -0.0517,-0.136134 0,-0.05106 0.0186,-0.100028 0.0517,-0.136133 0.0331,-0.0361 0.07797,-0.05639 0.124778,-0.05639 0.04681,0 0.09168,0.02029 0.124777,0.05639 l 1.763686,1.924137 c 0.0164,0.01789 0.02942,0.0391 0.03829,0.06247 0.0089,0.02336 0.01344,0.04839 0.01344,0.07369 0,0.02527 -0.0046,0.05032 -0.01344,0.07366 -0.0089,0.02336 -0.02188,0.04458 -0.03829,0.06247 z"
       fill="#a0c9ff"
       id="path2"
       style="stroke-width:0.264583" />
  </g>
</svg>
