<svg width="32" height="32" viewBox="0 0 32 32" fill="none" xmlns="http://www.w3.org/2000/svg">
<g id="Component 42">
<path id="Vector" d="M28.6098 3.27352C28.4549 3.13973 28.2664 3.05075 28.0646 3.01617C27.8629 2.98159 27.6555 3.00271 27.4648 3.07727L2.13233 12.991C1.77331 13.1306 1.46936 13.3831 1.26623 13.7104C1.06311 14.0377 0.971807 14.4221 1.00607 14.8058C1.04034 15.1895 1.19831 15.5516 1.45622 15.8378C1.71413 16.1239 2.058 16.3185 2.43608 16.3923L8.99983 17.681V24.9998C8.99854 25.3984 9.117 25.7883 9.33988 26.1188C9.56276 26.4493 9.87977 26.7053 10.2498 26.8535C10.6193 27.0044 11.0257 27.0406 11.416 26.9575C11.8064 26.8743 12.1627 26.6756 12.4386 26.3873L15.6036 23.1048L20.6248 27.4998C20.9871 27.8211 21.4543 27.9989 21.9386 27.9998C22.1508 27.9996 22.3617 27.9663 22.5636 27.901C22.8935 27.7963 23.1903 27.607 23.4243 27.352C23.6583 27.0969 23.8214 26.785 23.8973 26.4473L28.9711 4.37477C29.0165 4.17571 29.0068 3.96805 28.9432 3.77405C28.8795 3.58005 28.7643 3.40702 28.6098 3.27352ZM20.9673 7.77352L9.76858 15.7935L3.56858 14.5773L20.9673 7.77352ZM10.9998 24.9998V19.0648L14.0986 21.7823L10.9998 24.9998ZM21.9411 25.9998L11.6061 16.9373L26.4811 6.27602L21.9411 25.9998Z" fill="#1C1C16"/>
</g>
</svg>
