<?xml version="1.0" encoding="UTF-8" standalone="no"?>
<!-- Created with Inkscape (http://www.inkscape.org/) -->

<svg
   width="6.0854101mm"
   height="9.5250015mm"
   viewBox="0 0 6.0854101 9.5250015"
   version="1.1"
   id="svg1"
   xmlns="http://www.w3.org/2000/svg"
   xmlns:svg="http://www.w3.org/2000/svg">
  <defs
     id="defs1" />
  <g
     id="layer1"
     transform="translate(-88.37085,-49.477079)">
    <path
       d="m 92.427769,53.899409 h -0.676143 v -2.721433 h 0.338085 c 0.358643,0 0.702601,0.143362 0.95623,0.398544 0.253604,0.255183 0.396082,0.601298 0.396082,0.962163 0,0.09022 0.03561,0.176742 0.09901,0.240559 0.06339,0.06379 0.14941,0.09962 0.239051,0.09962 0.08967,0 0.175657,-0.03583 0.239077,-0.09962 0.06339,-0.06382 0.09901,-0.150336 0.09901,-0.240559 -5.55e-4,-0.541144 -0.214444,-1.059974 -0.59473,-1.442627 -0.380286,-0.382651 -0.895932,-0.597874 -1.433724,-0.598438 h -0.338085 v -0.680357 c 0,-0.09022 -0.03561,-0.176746 -0.09903,-0.240542 -0.06339,-0.06379 -0.149384,-0.09964 -0.239051,-0.09964 -0.08967,0 -0.175657,0.03584 -0.239051,0.09964 -0.06342,0.0638 -0.09903,0.150322 -0.09903,0.240542 v 0.680357 h -0.338074 c -0.537982,0 -1.053933,0.215043 -1.434346,0.597816 -0.380412,0.382775 -0.594124,0.90193 -0.594124,1.443249 0,0.541337 0.213712,1.060476 0.594124,1.443276 0.380413,0.382772 0.896364,0.597799 1.434346,0.597799 h 0.338074 v 2.721425 h -0.676151 c -0.358655,0 -0.702624,-0.143351 -0.95623,-0.398542 -0.253609,-0.255191 -0.396084,-0.601292 -0.396084,-0.962157 0,-0.09022 -0.03562,-0.176742 -0.09902,-0.240559 -0.0634,-0.06379 -0.149392,-0.09962 -0.239056,-0.09962 -0.08966,0 -0.175657,0.03582 -0.239059,0.09962 -0.0634,0.06382 -0.09902,0.150336 -0.09902,0.240559 5.6e-4,0.541152 0.214453,1.059974 0.594744,1.442614 0.380291,0.382667 0.895916,0.597879 1.433729,0.598461 h 0.676151 v 0.68035 c 0,0.09022 0.03561,0.176741 0.09903,0.240532 0.06339,0.06379 0.149383,0.09964 0.239051,0.09964 0.08967,0 0.175657,-0.03585 0.239051,-0.09964 0.06342,-0.06379 0.09903,-0.150309 0.09903,-0.240532 v -0.68035 h 0.676142 c 0.538004,0 1.053942,-0.215053 1.43436,-0.597826 0.380418,-0.382773 0.594122,-0.901938 0.594122,-1.443249 0,-0.541338 -0.213704,-1.060477 -0.594122,-1.443276 -0.380418,-0.382773 -0.896355,-0.597799 -1.434359,-0.597799 z m -1.690386,0 c -0.358656,0 -0.702622,-0.143352 -0.956231,-0.398542 -0.253608,-0.255191 -0.396083,-0.601292 -0.396083,-0.962184 0,-0.360865 0.142475,-0.70698 0.396083,-0.962163 0.253609,-0.255182 0.597575,-0.398544 0.956231,-0.398544 h 0.338074 v 2.721433 z m 1.690386,3.401774 h -0.676143 v -2.721425 h 0.676143 c 0.358669,0 0.702627,0.143378 0.956231,0.398542 0.253629,0.255191 0.396081,0.601292 0.396081,0.962184 0,0.360865 -0.142452,0.706966 -0.396081,0.962157 -0.253604,0.255191 -0.597562,0.398542 -0.956231,0.398542 z"
       fill="#444444"
       id="path1"
       style="fill:#000000;stroke-width:0.264583" />
  </g>
</svg>
