<?xml version="1.0" encoding="UTF-8" standalone="no"?>
<svg
   viewBox="0 0 512 512"
   version="1.1"
   id="svg1"
   width="512"
   height="512"
   sodipodi:docname="Globe.svg"
   inkscape:version="1.4.2 (2aeb623e1d, 2025-05-12)"
   inkscape:export-filename="../c87a74d1/Globe.png"
   inkscape:export-xdpi="96"
   inkscape:export-ydpi="96"
   xmlns:inkscape="http://www.inkscape.org/namespaces/inkscape"
   xmlns:sodipodi="http://sodipodi.sourceforge.net/DTD/sodipodi-0.dtd"
   xmlns="http://www.w3.org/2000/svg"
   xmlns:svg="http://www.w3.org/2000/svg">
  <sodipodi:namedview
     id="namedview1"
     pagecolor="#ffffff"
     bordercolor="#000000"
     borderopacity="0.25"
     inkscape:showpageshadow="2"
     inkscape:pageopacity="0.0"
     inkscape:pagecheckerboard="0"
     inkscape:deskcolor="#d1d1d1"
     inkscape:zoom="0.48194607"
     inkscape:cx="255.21528"
     inkscape:cy="255.21528"
     inkscape:window-width="1648"
     inkscape:window-height="961"
     inkscape:window-x="0"
     inkscape:window-y="0"
     inkscape:window-maximized="1"
     inkscape:current-layer="svg1" />
  <defs
     id="defs1" />
  <!--!Font Awesome Free 6.7.2 by @fontawesome - https://fontawesome.com License - https://fontawesome.com/license/free Copyright 2025 Fonticons, Inc.-->
  <path
     d="m 352,256 c 0,22.2 -1.2,43.6 -3.3,64 H 163.4 c -2.2,-20.4 -3.3,-41.8 -3.3,-64 0,-22.2 1.2,-43.6 3.3,-64 h 185.3 c 2.2,20.4 3.3,41.8 3.3,64 z m 28.8,-64 h 123.1 c 5.3,20.5 8.1,41.9 8.1,64 0,22.1 -2.8,43.5 -8.1,64 H 380.8 c 2.1,-20.6 3.2,-42 3.2,-64 0,-22 -1.1,-43.4 -3.2,-64 z M 493.4,160 H 376.7 C 366.7,96.100002 346.9,42.600002 321.4,8.4000024 399.7,29.100002 463.4,85.900002 493.3,160 Z m -149.1,0 H 167.7 c 6.1,-36.4 15.5,-68.599998 27,-94.699998 10.5,-23.6 22.2,-40.7 33.5,-51.5 C 239.4,3.2000019 248.7,1.8607483e-6 256,1.8607483e-6 c 7.3,0 16.6,3.2000000392517 27.8,13.8000001392517 11.3,10.8 23,27.9 33.5,51.5 11.6,26 20.9,58.199998 27,94.699998 z m -209,0 H 18.600002 C 48.600002,85.900002 112.2,29.100002 190.6,8.4000024 165.1,42.600002 145.3,96.100002 135.3,160 Z M 8.1000024,192 H 131.2 c -2.1,20.6 -3.2,42 -3.2,64 0,22 1.1,43.4 3.2,64 H 8.1000024 C 2.8000019,299.5 1.8607483e-6,278.1 1.8607483e-6,256 1.8607483e-6,233.9 2.8000019,212.5 8.1000024,192 Z M 194.7,446.6 c -11.6,-26 -20.9,-58.2 -27,-94.6 h 176.6 c -6.1,36.4 -15.5,68.6 -27,94.6 -10.5,23.6 -22.2,40.7 -33.5,51.5 -11.2,10.7 -20.5,13.9 -27.8,13.9 -7.3,0 -16.6,-3.2 -27.8,-13.8 -11.3,-10.8 -23,-27.9 -33.5,-51.5 z M 135.3,352 c 10,63.9 29.8,117.4 55.3,151.6 C 112.2,482.9 48.600002,426.1 18.600002,352 Z m 358.1,0 c -30,74.1 -93.6,130.9 -171.9,151.6 25.5,-34.2 45.2,-87.7 55.3,-151.6 h 116.7 z"
     id="path1" />
  <rect
     style="fill:none;stroke:#000000;stroke-width:3.94312;stroke-dasharray:none;stroke-opacity:1"
     id="rect1"
     width="508.05688"
     height="508.05688"
     x="1.97156"
     y="1.97156"
     ry="64"
     rx="64" />
</svg>
