<svg width="32" height="32" viewBox="0 0 32 32" fill="none" xmlns="http://www.w3.org/2000/svg">
<g id="Component 42">
<path id="Vector" d="M27.4138 13.5848L17.4138 3.58483C17.0387 3.21005 16.5302 2.99951 16 2.99951C15.4698 2.99951 14.9613 3.21005 14.5863 3.58483L4.58626 13.5848C4.39964 13.7701 4.25171 13.9906 4.15107 14.2335C4.05042 14.4764 3.99908 14.7369 4.00001 14.9998V26.9998C4.00001 27.2651 4.10537 27.5194 4.29291 27.7069C4.48044 27.8945 4.7348 27.9998 5.00001 27.9998H13C13.2652 27.9998 13.5196 27.8945 13.7071 27.7069C13.8947 27.5194 14 27.2651 14 26.9998V19.9998H18V26.9998C18 27.2651 18.1054 27.5194 18.2929 27.7069C18.4804 27.8945 18.7348 27.9998 19 27.9998H27C27.2652 27.9998 27.5196 27.8945 27.7071 27.7069C27.8947 27.5194 28 27.2651 28 26.9998V14.9998C28.0009 14.7369 27.9496 14.4764 27.849 14.2335C27.7483 13.9906 27.6004 13.7701 27.4138 13.5848ZM26 25.9998H20V18.9998C20 18.7346 19.8947 18.4803 19.7071 18.2927C19.5196 18.1052 19.2652 17.9998 19 17.9998H13C12.7348 17.9998 12.4804 18.1052 12.2929 18.2927C12.1054 18.4803 12 18.7346 12 18.9998V25.9998H6.00001V14.9998L16 4.99983L26 14.9998V25.9998Z" fill="#1C1C16"/>
</g>
</svg>
