<svg width="64" height="64" viewBox="0 0 64 64" fill="none" xmlns="http://www.w3.org/2000/svg">
<path d="M32 6C26.8577 6 21.8309 7.52487 17.5552 10.3818C13.2795 13.2387 9.94702 17.2994 7.97914 22.0502C6.01127 26.8011 5.49638 32.0288 6.49959 37.0723C7.50281 42.1159 9.97907 46.7486 13.6152 50.3848C17.2514 54.0209 21.8842 56.4972 26.9277 57.5004C31.9712 58.5036 37.1989 57.9887 41.9498 56.0209C46.7007 54.053 50.7613 50.7205 53.6182 46.4448C56.4751 42.1691 58 37.1423 58 32C57.9927 25.1066 55.2511 18.4976 50.3767 13.6233C45.5024 8.74889 38.8934 6.00728 32 6ZM42.1375 33.645L29.1375 42.645C28.8374 42.8525 28.4862 42.974 28.122 42.9963C27.7578 43.0185 27.3945 42.9407 27.0713 42.7713C26.7482 42.6019 26.4775 42.3472 26.2887 42.035C26.0998 41.7228 26 41.3649 26 41V23C26 22.6351 26.0998 22.2772 26.2887 21.965C26.4775 21.6528 26.7482 21.3981 27.0713 21.2287C27.3945 21.0593 27.7578 20.9815 28.122 21.0037C28.4862 21.026 28.8374 21.1475 29.1375 21.355L42.1375 30.355C42.4036 30.539 42.6211 30.7848 42.7713 31.0713C42.9215 31.3578 43 31.6765 43 32C43 32.3235 42.9215 32.6422 42.7713 32.9287C42.6211 33.2152 42.4036 33.461 42.1375 33.645Z" fill="#FEF9EC"/>
</svg>
