<svg width="32" height="32" viewBox="0 0 32 32" fill="none" xmlns="http://www.w3.org/2000/svg">
<g id="Component 42">
<path id="Vector" d="M15.2923 13.7073C15.3852 13.8003 15.4955 13.874 15.6169 13.9244C15.7383 13.9747 15.8684 14.0006 15.9998 14.0006C16.1312 14.0006 16.2614 13.9747 16.3828 13.9244C16.5041 13.874 16.6144 13.8003 16.7073 13.7073L21.7073 8.70731C21.8003 8.61444 21.874 8.50415 21.9244 8.38275C21.9747 8.26135 22.0006 8.13123 22.0006 7.99981C22.0006 7.86839 21.9747 7.73827 21.9244 7.61687C21.874 7.49547 21.8003 7.38518 21.7073 7.29231L16.7073 2.29231C16.6144 2.19933 16.5041 2.12557 16.3828 2.07525C16.2614 2.02493 16.1312 1.99902 15.9998 1.99902C15.8684 1.99902 15.7383 2.02493 15.6169 2.07525C15.4955 2.12557 15.3852 2.19933 15.2923 2.29231L10.2923 7.29231C10.1993 7.38518 10.1256 7.49547 10.0753 7.61687C10.0249 7.73827 9.99902 7.86839 9.99902 7.99981C9.99902 8.13123 10.0249 8.26135 10.0753 8.38275C10.1256 8.50415 10.1993 8.61444 10.2923 8.70731L15.2923 13.7073ZM15.9998 4.41356L19.5861 7.99981L15.9998 11.5861L12.4136 7.99981L15.9998 4.41356ZM16.7073 18.2886C16.6144 18.1956 16.5041 18.1218 16.3828 18.0715C16.2614 18.0212 16.1312 17.9953 15.9998 17.9953C15.8684 17.9953 15.7383 18.0212 15.6169 18.0715C15.4955 18.1218 15.3852 18.1956 15.2923 18.2886L10.2923 23.2886C10.1993 23.3814 10.1256 23.4917 10.0753 23.6131C10.0249 23.7345 9.99902 23.8646 9.99902 23.9961C9.99902 24.1275 10.0249 24.2576 10.0753 24.379C10.1256 24.5004 10.1993 24.6107 10.2923 24.7036L15.2923 29.7036C15.3852 29.7965 15.4955 29.8703 15.6169 29.9206C15.7383 29.9709 15.8684 29.9968 15.9998 29.9968C16.1312 29.9968 16.2614 29.9709 16.3828 29.9206C16.5041 29.8703 16.6144 29.7965 16.7073 29.7036L21.7073 24.7036C21.8003 24.6107 21.874 24.5004 21.9244 24.379C21.9747 24.2576 22.0006 24.1275 22.0006 23.9961C22.0006 23.8646 21.9747 23.7345 21.9244 23.6131C21.874 23.4917 21.8003 23.3814 21.7073 23.2886L16.7073 18.2886ZM15.9998 27.5861L12.4136 23.9998L15.9998 20.4136L19.5861 23.9998L15.9998 27.5861ZM29.7073 15.2923L24.7073 10.2923C24.6144 10.1993 24.5041 10.1256 24.3827 10.0753C24.2614 10.0249 24.1312 9.99902 23.9998 9.99902C23.8684 9.99902 23.7383 10.0249 23.6169 10.0753C23.4955 10.1256 23.3852 10.1993 23.2923 10.2923L18.2923 15.2923C18.1993 15.3852 18.1256 15.4955 18.0752 15.6169C18.0249 15.7383 17.999 15.8684 17.999 15.9998C17.999 16.1312 18.0249 16.2614 18.0752 16.3828C18.1256 16.5041 18.1993 16.6144 18.2923 16.7073L23.2923 21.7073C23.3852 21.8003 23.4955 21.874 23.6169 21.9244C23.7383 21.9747 23.8684 22.0006 23.9998 22.0006C24.1312 22.0006 24.2614 21.9747 24.3827 21.9244C24.5041 21.874 24.6144 21.8003 24.7073 21.7073L29.7073 16.7073C29.8003 16.6144 29.874 16.5041 29.9244 16.3828C29.9747 16.2614 30.0006 16.1312 30.0006 15.9998C30.0006 15.8684 29.9747 15.7383 29.9244 15.6169C29.874 15.4955 29.8003 15.3852 29.7073 15.2923ZM23.9998 19.5861L20.4136 15.9998L23.9998 12.4136L27.5861 15.9998L23.9998 19.5861ZM13.7073 15.2923L8.70731 10.2923C8.61444 10.1993 8.50415 10.1256 8.38275 10.0753C8.26135 10.0249 8.13123 9.99902 7.99981 9.99902C7.86839 9.99902 7.73827 10.0249 7.61687 10.0753C7.49547 10.1256 7.38518 10.1993 7.29231 10.2923L2.29231 15.2923C2.19933 15.3852 2.12557 15.4955 2.07525 15.6169C2.02493 15.7383 1.99902 15.8684 1.99902 15.9998C1.99902 16.1312 2.02493 16.2614 2.07525 16.3828C2.12557 16.5041 2.19933 16.6144 2.29231 16.7073L7.29231 21.7073C7.38518 21.8003 7.49547 21.874 7.61687 21.9244C7.73827 21.9747 7.86839 22.0006 7.99981 22.0006C8.13123 22.0006 8.26135 21.9747 8.38275 21.9244C8.50415 21.874 8.61444 21.8003 8.70731 21.7073L13.7073 16.7073C13.8003 16.6144 13.874 16.5041 13.9244 16.3828C13.9747 16.2614 14.0006 16.1312 14.0006 15.9998C14.0006 15.8684 13.9747 15.7383 13.9244 15.6169C13.874 15.4955 13.8003 15.3852 13.7073 15.2923ZM7.99981 19.5861L4.41356 15.9998L7.99981 12.4136L11.5861 15.9998L7.99981 19.5861Z" fill="#1C1C16"/>
</g>
</svg>
