<?xml version="1.0" encoding="UTF-8" standalone="no"?>
<svg
   viewBox="0 0 512 512"
   version="1.1"
   id="svg1"
   sodipodi:docname="Python.svg"
   width="512"
   height="512"
   inkscape:version="1.4.2 (2aeb623e1d, 2025-05-12)"
   inkscape:export-filename="../3ef976f3/Python.png"
   inkscape:export-xdpi="96"
   inkscape:export-ydpi="96"
   xmlns:inkscape="http://www.inkscape.org/namespaces/inkscape"
   xmlns:sodipodi="http://sodipodi.sourceforge.net/DTD/sodipodi-0.dtd"
   xmlns="http://www.w3.org/2000/svg"
   xmlns:svg="http://www.w3.org/2000/svg">
  <defs
     id="defs1" />
  <sodipodi:namedview
     id="namedview1"
     pagecolor="#ffffff"
     bordercolor="#000000"
     borderopacity="0.25"
     inkscape:showpageshadow="2"
     inkscape:pageopacity="0.0"
     inkscape:pagecheckerboard="0"
     inkscape:deskcolor="#d1d1d1"
     inkscape:zoom="0.5"
     inkscape:cx="284"
     inkscape:cy="286"
     inkscape:window-width="1648"
     inkscape:window-height="961"
     inkscape:window-x="0"
     inkscape:window-y="0"
     inkscape:window-maximized="1"
     inkscape:current-layer="svg1"
     showgrid="false" />
  <!--!Font Awesome Free 6.7.2 by @fontawesome - https://fontawesome.com License - https://fontawesome.com/license/free Copyright 2025 Fonticons, Inc.-->
  <path
     d="m 502.61336,192.56633 c -8.79972,-35.31308 -25.4849,-61.94074 -61.02662,-61.94074 h -45.82711 v 54.16958 c 0,42.0557 -35.656,77.48306 -76.34041,77.48306 H 197.36598 c -33.37036,0 -61.02662,28.57045 -61.02662,62.05502 v 116.33888 c 0,33.14173 28.79908,52.56964 61.02662,62.05503 38.62733,11.3139 75.769,13.37097 122.05324,0 30.74187,-8.91398 61.02662,-26.85623 61.02662,-62.05503 V 394.15944 H 258.50688 v -15.54233 h 183.07986 c 35.54172,0 48.68416,-24.79915 61.02662,-61.94074 12.79959,-38.2844 12.22818,-75.08315 0,-124.11004 z M 327.07612,425.12981 c 12.68531,0 22.97069,10.39964 22.97069,23.19921 0,12.91384 -10.28538,23.31348 -22.97069,23.31348 -12.57103,0 -22.9707,-10.51392 -22.9707,-23.31348 0.11428,-12.91385 10.39967,-23.19921 22.9707,-23.19921 z M 191.76616,246.96447 H 313.8194 c 33.94177,0 61.02662,-27.99904 61.02662,-62.05502 V 68.456284 c 0,-33.141728 -27.88482,-57.940881 -61.02662,-63.5406886 -40.91298,-6.742627 -85.3687,-6.399782 -122.05324,0.114281 -51.65549,9.1425446 -61.02662,28.2276076 -61.02662,63.5406896 v 46.512694 h 122.16752 v 15.54233 H 84.91243 c -35.541723,0 -66.626444,21.3707 -76.3404186,61.94074 -11.199642,46.51269 -11.65677,75.54027 0,124.11004 8.6854366,36.11305 29.3704896,61.94074 64.9122126,61.94074 h 41.941516 v -55.76952 c 0,-40.34148 34.85603,-75.88312 76.34042,-75.88312 z m -7.6569,-162.96586 c -12.68531,0 -22.9707,-10.399645 -22.9707,-23.199211 0.11429,-12.913844 10.28539,-23.313489 22.9707,-23.313489 12.57103,0 22.97069,10.513927 22.97069,23.313489 0,12.799566 -10.28538,23.199211 -22.97069,23.199211 z"
     id="path1"
     style="stroke-width:4.57128;stroke-dasharray:none" />
  <rect
     style="fill:none;stroke:#000000;stroke-width:4.54351;stroke-dasharray:none;stroke-opacity:1"
     id="rect1"
     width="507.45648"
     height="507.45648"
     x="2.2717576"
     y="2.2717605"
     ry="64"
     rx="64" />
</svg>
