<?xml version="1.0" encoding="UTF-8" standalone="no"?>
<svg
   viewBox="0 0 18 17.999933"
   version="1.1"
   id="svg1"
   width="18"
   height="17.999933"
   xmlns="http://www.w3.org/2000/svg"
   xmlns:svg="http://www.w3.org/2000/svg">
  <defs
     id="defs1" />
  <!--!Font Awesome Free 6.7.2 by @fontawesome - https://fontawesome.com License - https://fontawesome.com/license/free Copyright 2025 Fonticons, Inc.-->
  <path
     d="M 7e-7,1.2855759 C 7e-7,0.5744915 0.5745557,0 1.2857159,0 10.51875,0 18,7.4804339 18,16.712463 c 0,0.711085 -0.574555,1.285576 -1.285715,1.285576 -0.71116,0 -1.285715,-0.574491 -1.285715,-1.285576 C 15.42857,8.9026019 9.0964309,2.5711519 1.2857159,2.5711519 0.5745557,2.5711519 7e-7,1.9966599 7e-7,1.2855759 Z m 0,14.1413121 a 2.5714283,2.5711482 0 1 1 5.1428552,0 2.5714283,2.5711482 0 1 1 -5.1428552,0 z M 1.2857159,5.1422979 c 6.39241,0 11.5714291,5.1784531 11.5714291,11.5701651 0,0.711085 -0.574555,1.285576 -1.285715,1.285576 -0.71116,0 -1.285715,-0.574491 -1.285715,-1.285576 0,-4.969549 -4.0299091,-8.9990191 -8.9999991,-8.9990191 C 0.5745557,7.7134439 7e-7,7.1389529 7e-7,6.4278679 c 0,-0.711079 0.574555,-1.28557 1.2857152,-1.28557 z"
     id="path1"
     style="stroke-width:0.0401763" />
</svg>
