<svg width="32" height="32" viewBox="0 0 32 32" fill="none" xmlns="http://www.w3.org/2000/svg">
<g id="Component 42">
<path id="Vector" d="M27.981 5.89001C27.9514 5.40242 27.7443 4.94253 27.3989 4.59712C27.0535 4.2517 26.5936 4.04464 26.106 4.01501C24.5335 3.92126 20.5147 4.06501 17.1797 7.39876L16.586 8.00001H9.29474C9.03109 7.99853 8.76978 8.04948 8.526 8.14991C8.28222 8.25034 8.06084 8.39824 7.87474 8.58501L3.58724 12.875C3.3243 13.1378 3.1398 13.4686 3.05443 13.8304C2.96906 14.1922 2.98621 14.5706 3.10396 14.9232C3.2217 15.2758 3.43538 15.5886 3.72102 15.8265C4.00665 16.0644 4.35293 16.218 4.72099 16.27L9.52974 16.9413L15.056 22.4675L15.7272 27.2788C15.7789 27.6468 15.9324 27.9932 16.1705 28.2786C16.4087 28.5639 16.7219 28.777 17.0747 28.8938C17.2803 28.9624 17.4955 28.9975 17.7122 28.9975C17.9746 28.998 18.2345 28.9466 18.477 28.8462C18.7194 28.7458 18.9395 28.5984 19.1247 28.4125L23.4147 24.125C23.6015 23.9389 23.7494 23.7175 23.8498 23.4738C23.9503 23.23 24.0012 22.9687 23.9997 22.705V15.4138L24.596 14.8175C27.931 11.4825 28.0747 7.46376 27.981 5.89001ZM9.29474 10H14.586L9.64474 14.94L4.99974 14.2925L9.29474 10ZM18.596 8.81876C19.5569 7.85193 20.7131 7.10127 21.9872 6.61691C23.2614 6.13255 24.6242 5.92565 25.9847 6.01001C26.0724 7.37124 25.8676 8.73545 25.3842 10.011C24.9008 11.2865 24.15 12.4438 23.1822 13.405L15.9997 20.585L11.4147 16L18.596 8.81876ZM21.9997 22.705L17.7085 27L17.0597 22.3538L21.9997 17.4138V22.705ZM12.7297 23.8925C12.1672 25.125 10.286 28 4.99974 28C4.73453 28 4.48017 27.8947 4.29264 27.7071C4.1051 27.5196 3.99974 27.2652 3.99974 27C3.99974 21.7138 6.87474 19.8325 8.10724 19.2688C8.22675 19.2143 8.35581 19.1838 8.48708 19.1792C8.61834 19.1746 8.74922 19.1959 8.87226 19.2418C8.9953 19.2878 9.10808 19.3576 9.20416 19.4471C9.30024 19.5367 9.37775 19.6443 9.43224 19.7638C9.48674 19.8833 9.51717 20.0123 9.52179 20.1436C9.52641 20.2749 9.50513 20.4057 9.45916 20.5288C9.4132 20.6518 9.34345 20.7646 9.2539 20.8607C9.16435 20.9568 9.05675 21.0343 8.93724 21.0888C8.13349 21.455 6.35974 22.6338 6.04724 25.9525C9.36599 25.64 10.5472 23.8663 10.911 23.0625C10.9655 22.943 11.043 22.8354 11.1391 22.7459C11.2352 22.6563 11.3479 22.5866 11.471 22.5406C11.594 22.4946 11.7249 22.4734 11.8562 22.478C11.9874 22.4826 12.1165 22.513 12.236 22.5675C12.3555 22.622 12.4631 22.6995 12.5526 22.7956C12.6422 22.8917 12.7119 23.0045 12.7579 23.1275C12.8039 23.2505 12.8252 23.3814 12.8205 23.5127C12.8159 23.6439 12.7855 23.773 12.731 23.8925H12.7297Z" fill="#1C1C16"/>
</g>
</svg>
