<?xml version="1.0" encoding="UTF-8" standalone="no"?>
<svg
   viewBox="0 0 540.10345 540.10345"
   version="1.1"
   id="svg1"
   sodipodi:docname="Tools.svg"
   width="540.10345"
   height="540.10345"
   inkscape:version="1.4.2 (2aeb623e1d, 2025-05-12)"
   xmlns:inkscape="http://www.inkscape.org/namespaces/inkscape"
   xmlns:sodipodi="http://sodipodi.sourceforge.net/DTD/sodipodi-0.dtd"
   xmlns="http://www.w3.org/2000/svg"
   xmlns:svg="http://www.w3.org/2000/svg">
  <defs
     id="defs1" />
  <sodipodi:namedview
     id="namedview1"
     pagecolor="#ffffff"
     bordercolor="#000000"
     borderopacity="0.25"
     inkscape:showpageshadow="2"
     inkscape:pageopacity="0.0"
     inkscape:pagecheckerboard="0"
     inkscape:deskcolor="#d1d1d1"
     inkscape:zoom="0.34570313"
     inkscape:cx="271.9096"
     inkscape:cy="271.9096"
     inkscape:window-width="1648"
     inkscape:window-height="961"
     inkscape:window-x="0"
     inkscape:window-y="0"
     inkscape:window-maximized="1"
     inkscape:current-layer="svg1" />
  <!--!Font Awesome Free 6.7.2 by @fontawesome - https://fontawesome.com License - https://fontawesome.com/license/free Copyright 2025 Fonticons, Inc.-->
  <path
     d="M 91.568983,18.909802 C 82.010238,11.505441 68.426757,12.405971 59.773577,20.910981 L 19.526227,60.934558 C 10.973665,69.439567 10.0681,82.947524 17.413241,92.553182 L 97.907942,196.61448 c 4.527828,5.90348 11.671738,9.40555 19.117498,9.40555 h 54.43454 l 109.67403,109.06424 c -14.7909,29.01709 -10.06184,65.43854 14.38843,89.65281 l 112.69258,112.06601 c 12.5773,12.50736 33.00282,12.50736 45.58012,0 l 64.39577,-64.03772 c 12.57729,-12.50737 12.57729,-32.81933 0,-45.3267 L 405.49832,295.37265 C 381.14867,271.15839 344.52358,266.35556 315.34425,281.06422 L 205.67022,171.99998 v -54.13189 c 0,-7.50441 -3.52164,-14.50854 -9.45812,-19.011194 z M 32.505997,410.24032 c -12.778533,12.70749 -20.023056,30.01768 -20.023056,48.02829 0,37.5221 30.587986,67.94002 68.319876,67.94002 18.111308,0 35.518293,-7.20424 48.296823,-19.91172 L 247.62809,388.42747 c -7.84823,-20.91232 -9.05565,-43.6257 -3.62226,-65.13837 L 181.92429,261.55274 Z M 527.64903,157.99173 c 0,-10.50618 -1.10681,-20.7122 -3.21978,-30.51797 -2.41485,-11.20661 -16.19957,-14.10831 -24.34966,-6.00354 l -64.29514,63.93767 c -3.01855,3.00176 -7.1439,4.70276 -11.36988,4.70276 l -57.75494,-0.10006 c -8.85441,0 -16.09894,-7.20424 -16.09894,-16.00942 v -57.43384 c 0,-4.20247 1.71051,-8.30489 4.72906,-11.30666 l 64.29514,-63.937665 c 8.15009,-8.104775 5.23216,-21.812849 -6.0371,-24.214264 -9.96122,-2.101238 -20.22429,-3.201886 -30.78922,-3.201886 -79.99161,0 -144.89046,64.538017 -144.89046,144.084875 v 0.80047 l 85.82747,85.35028 c 36.22261,-9.10536 76.26873,0.5003 104.64311,28.71692 l 15.79709,15.70925 c 49.303,-23.01356 83.51325,-72.84291 83.51325,-130.57692 z M 68.829231,446.16148 c 0,-13.26265 10.811612,-24.01413 24.14841,-24.01413 13.336809,0 24.148419,10.75148 24.148419,24.01413 0,13.26265 -10.81161,24.01413 -24.148419,24.01413 -13.336798,0 -24.14841,-10.75148 -24.14841,-24.01413 z"
     id="path1"
     sodipodi:nodetypes="ccsccscccsssssccscccsssccccssssccsssscssccscssssss"
     style="stroke-width:1.00338" />
  <rect
     style="fill:none;fill-opacity:1;stroke:#000000;stroke-width:4;stroke-dasharray:none"
     id="rect1"
     width="536.10345"
     height="536.10345"
     x="2"
     y="2"
     rx="20.619362"
     ry="20.619362" />
</svg>
