<?xml version="1.0" encoding="utf-8"?>
<!-- Generator: Adobe Illustrator 22.1.0, SVG Export Plug-In . SVG Version: 6.00 Build 0)  -->
<svg version="1.1" id="Layer_1" xmlns="http://www.w3.org/2000/svg" xmlns:xlink="http://www.w3.org/1999/xlink" x="0px" y="0px"
	 viewBox="0 0 500 500" style="enable-background:new 0 0 500 500;" xml:space="preserve">
<style type="text/css">
	.st0{fill:#FFFFFF;}
</style>
<path class="st0" d="M445.4,362.1c-0.6,1.7-10.1,34.4-33.2,68.2c-20,29.3-40.7,58.4-73.5,59c-32.1,0.6-42.5-19.1-79.2-19.1
	c-36.7,0-48.3,18.5-78.6,19.6c-31.6,1.2-55.6-31.6-75.8-60.7c-41.2-59.6-72.7-168.4-30.4-241.9c21-36.5,58.6-59.6,99.3-60.2
	c31-0.6,60.3,20.9,79.3,20.9c18.7,0,52.2-25,91.7-22.1c15.5,1.1,59.5,5.8,87.9,47.7c-2.3,1.4-52.4,30.6-51.9,91.3
	C381.7,337.7,444.7,361.9,445.4,362.1z M320.6,86.6c16.8-20.3,28.1-48.5,25-76.6c-24.2,1-53.4,16.1-70.7,36.4
	c-15.5,18-29.1,46.7-25.4,74.2C276.3,122.7,303.8,106.9,320.6,86.6z"/>
</svg>
