<?xml version="1.0" encoding="utf-8"?>
<!-- Generator: Adobe Illustrator 22.1.0, SVG Export Plug-In . SVG Version: 6.00 Build 0)  -->
<svg version="1.1" id="Mode_Isolation" xmlns="http://www.w3.org/2000/svg" xmlns:xlink="http://www.w3.org/1999/xlink" x="0px"
	 y="0px" viewBox="0 0 324 324.1" style="enable-background:new 0 0 324 324.1;" xml:space="preserve">
<style type="text/css">
	.st0{fill:#F7F187;}
	.st1{fill:#FFFFFF;}
	.st2{fill:none;}
	.st3{fill:#050C4E;}
</style>
<circle class="st0" cx="162" cy="162" r="162"/>
<g>
	<path class="st1" d="M75.2,202.9c0,0.8-0.7,1.5-1.5,1.5H62.3l3.3,3.3c0.2,0.2,0.2,0.5,0,0.7c-0.1,0.1-0.2,0.1-0.4,0.1
		s-0.3,0-0.4-0.1l-3.3-3.3v11.4c0,0.8-0.7,1.5-1.5,1.5s-1.5-0.7-1.5-1.5v-11.4l-3.3,3.3c-0.1,0.1-0.2,0.1-0.4,0.1s-0.3,0-0.4-0.1
		c-0.2-0.2-0.2-0.5,0-0.7l3.3-3.3H46.5c-0.8,0-1.5-0.7-1.5-1.5s0.7-1.5,1.5-1.5h11.4l-3.3-3.3c-0.2-0.2-0.2-0.5,0-0.7s0.5-0.2,0.7,0
		l3.3,3.3v-11.4c0-0.8,0.7-1.5,1.5-1.5s1.5,0.7,1.5,1.5v11.4l3.3-3.3c0.2-0.2,0.5-0.2,0.7,0s0.2,0.5,0,0.7l-3.3,3.3h11.4
		C74.5,201.4,75.2,202,75.2,202.9z"/>
	<path class="st1" d="M122.1,138.6c0,0.8-0.7,1.5-1.5,1.5h-7.5l1.7,1.7c0.4,0.4,0.4,1,0,1.4c-0.2,0.2-0.5,0.3-0.7,0.3
		s-0.5-0.1-0.7-0.3l-1.7-1.7v7.5c0,0.8-0.7,1.5-1.5,1.5s-1.5-0.7-1.5-1.5v-7.5l-1.7,1.7c-0.2,0.2-0.5,0.3-0.7,0.3s-0.5-0.1-0.7-0.3
		c-0.4-0.4-0.4-1,0-1.4l1.7-1.7h-7.5c-0.8,0-1.5-0.7-1.5-1.5s0.7-1.5,1.5-1.5h7.5l-1.7-1.7c-0.4-0.4-0.4-1,0-1.4s1-0.4,1.4,0
		l1.7,1.7v-7.5c0-0.8,0.7-1.5,1.5-1.5s1.5,0.7,1.5,1.5v7.5l1.7-1.7c0.4-0.4,1-0.4,1.4,0s0.4,1,0,1.4l-1.7,1.7h7.5
		C121.5,137.1,122.1,137.8,122.1,138.6z"/>
	<path class="st1" d="M75.2,94.4c0,0.8-0.7,1.5-1.5,1.5h-8.2l2.1,2.1c0.2,0.2,0.2,0.5,0,0.7c-0.1,0.1-0.2,0.1-0.4,0.1
		s-0.3,0-0.4-0.1l-2.1-2.1v8.2c0,0.8-0.7,1.5-1.5,1.5s-1.5-0.7-1.5-1.5v-8.2l-2.1,2.1c-0.1,0.1-0.2,0.1-0.4,0.1s-0.3,0-0.4-0.1
		c-0.2-0.2-0.2-0.5,0-0.7l2.1-2.1h-8.2c-0.8,0-1.5-0.7-1.5-1.5s0.7-1.5,1.5-1.5h8.2L59,90.8c-0.2-0.2-0.2-0.5,0-0.7s0.5-0.2,0.7,0
		l2.1,2.1V84c0-0.8,0.7-1.5,1.5-1.5s1.5,0.7,1.5,1.5v8.2l2.1-2.1c0.2-0.2,0.5-0.2,0.7,0s0.2,0.5,0,0.7l-2.1,2.1h8.2
		C74.5,92.9,75.2,93.6,75.2,94.4z"/>
	<path class="st1" d="M282.1,189.3c0,0.8-0.7,1.5-1.5,1.5h-13.5l3.9,3.9c0.6,0.6,0.6,1.5,0,2.1c-0.3,0.3-0.7,0.4-1.1,0.4
		s-0.8-0.1-1.1-0.4l-3.9-3.9v13.5c0,0.8-0.7,1.5-1.5,1.5s-1.5-0.7-1.5-1.5v-13.5l-3.9,3.9c-0.3,0.3-0.7,0.4-1.1,0.4
		s-0.8-0.1-1.1-0.4c-0.6-0.6-0.6-1.5,0-2.1l3.9-3.9h-13.5c-0.8,0-1.5-0.7-1.5-1.5s0.7-1.5,1.5-1.5h13.5l-3.9-3.9
		c-0.6-0.6-0.6-1.5,0-2.1s1.5-0.6,2.1,0l3.9,3.9v-13.5c0-0.8,0.7-1.5,1.5-1.5s1.5,0.7,1.5,1.5v13.5l3.9-3.9c0.6-0.6,1.5-0.6,2.1,0
		s0.6,1.5,0,2.1l-3.9,3.9h13.5C281.5,187.8,282.1,188.5,282.1,189.3z"/>
	<circle class="st2" cx="162" cy="162" r="162"/>
	<path class="st3" d="M152.5,248.6c-0.2,0-0.3,0-0.5,0v-102h30.6v6.6h69.9l-26.7-33.9l26.7-33.9h-63.9v-6.6H146v2.2v65.6v102
		c-36.9,0.7-72.7,7.3-106.5,19.4c1.5,1.7,3,3.3,4.5,5c34-11.9,70.5-18.4,108.5-18.4c43.2,0,84.6,8.4,122.4,23.6
		c1.6-1.6,3.2-3.1,4.7-4.8C239.8,257.1,196.8,248.6,152.5,248.6z M240.1,91.4l-22,27.9l22,27.9h-51.5v-0.6V91.4H240.1z M182.6,85.4
		v55.2H152V84.8h30.6V85.4z"/>
</g>
</svg>
