<?xml version="1.0" encoding="utf-8"?>
<!-- Generator: Adobe Illustrator 19.0.0, SVG Export Plug-In . SVG Version: 6.00 Build 0)  -->
<svg version="1.1" xmlns="http://www.w3.org/2000/svg" xmlns:xlink="http://www.w3.org/1999/xlink" x="0px" y="0px"
	 viewBox="-250 373.9 95 95" style="enable-background:new -250 373.9 95 95;" xml:space="preserve">
<style type="text/css">
	.st0{fill:#F7F187;}
</style>
<g id="Calque_1">
	<path class="st0" d="M-177.9,419.6l-22.9-22.9c-0.9-1-2.5-1-3.5,0c-1,0.9-1,2.5,0,3.5l18.7,18.7h-39.9c-1.4,0-2.5,1.1-2.5,2.5
		s1.1,2.5,2.5,2.5h39.9l-18.7,18.7c-1,0.9-1,2.5,0,3.5c0.5,0.5,1.1,0.7,1.8,0.7s1.3-0.2,1.8-0.7l24.7-24.7L-177.9,419.6z
		 M-177.9,419.6l-22.9-22.9c-0.9-1-2.5-1-3.5,0c-1,0.9-1,2.5,0,3.5l18.7,18.7h-39.9c-1.4,0-2.5,1.1-2.5,2.5s1.1,2.5,2.5,2.5h39.9
		l-18.7,18.7c-1,0.9-1,2.5,0,3.5c0.5,0.5,1.1,0.7,1.8,0.7s1.3-0.2,1.8-0.7l24.7-24.7L-177.9,419.6z M-177.9,419.6l-22.9-22.9
		c-0.9-1-2.5-1-3.5,0c-1,0.9-1,2.5,0,3.5l18.7,18.7h-39.9c-1.4,0-2.5,1.1-2.5,2.5s1.1,2.5,2.5,2.5h39.9l-18.7,18.7
		c-1,0.9-1,2.5,0,3.5c0.5,0.5,1.1,0.7,1.8,0.7s1.3-0.2,1.8-0.7l24.7-24.7L-177.9,419.6z M-202.5,373.9c-26.2,0-47.5,21.3-47.5,47.5
		s21.3,47.5,47.5,47.5s47.5-21.3,47.5-47.5S-176.3,373.9-202.5,373.9z M-202.5,463.9c-23.4,0-42.5-19.1-42.5-42.5
		s19.1-42.5,42.5-42.5S-160,398-160,421.4S-179.1,463.9-202.5,463.9z M-200.8,396.7c-0.9-1-2.5-1-3.5,0c-1,0.9-1,2.5,0,3.5
		l18.7,18.7h-39.9c-1.4,0-2.5,1.1-2.5,2.5s1.1,2.5,2.5,2.5h39.9l-18.7,18.7c-1,0.9-1,2.5,0,3.5c0.5,0.5,1.1,0.7,1.8,0.7
		s1.3-0.2,1.8-0.7l24.7-24.7l-1.9-1.8L-200.8,396.7z"/>
	<path class="st0" d="M-202.5,378.9c-23.4,0-42.5,19.1-42.5,42.5s19.1,42.5,42.5,42.5s42.5-19.1,42.5-42.5S-179.1,378.9-202.5,378.9
		z M-200.7,446.1c-0.5,0.5-1.1,0.7-1.8,0.7s-1.3-0.2-1.8-0.7c-1-1-1-2.6,0-3.5l18.7-18.7h-39.9c-1.4,0-2.5-1.1-2.5-2.5
		s1.1-2.5,2.5-2.5h39.9l-18.7-18.7c-1-1-1-2.6,0-3.5c1-1,2.6-1,3.5,0l22.9,22.9l1.9,1.8L-200.7,446.1z"/>
</g>
<g id="Calque_2">
	<path d="M-176,421.4l-1.8,1.8l0,0l-22.9,22.9c-0.5,0.5-1.1,0.7-1.8,0.7s-1.3-0.2-1.8-0.7c-1-1-1-2.6,0-3.5l18.7-18.7h-39.9
		c-1.4,0-2.5-1.1-2.5-2.5c0-1.4,1.1-2.5,2.5-2.5h39.9l-18.7-18.7c-1-1-1-2.6,0-3.5c1-1,2.6-1,3.5,0l22.9,22.9l0,0L-176,421.4z"/>
</g>
</svg>
