<?xml version="1.0" encoding="utf-8"?>
<!-- Generator: Adobe Illustrator 19.0.0, SVG Export Plug-In . SVG Version: 6.00 Build 0)  -->
<svg version="1.1" id="Calque_1" xmlns="http://www.w3.org/2000/svg" xmlns:xlink="http://www.w3.org/1999/xlink" x="0px" y="0px"
	 viewBox="-250 373.9 95 95" style="enable-background:new -250 373.9 95 95;" xml:space="preserve">
<style type="text/css">
	.st0{fill:#F7F187;}
</style>
<path class="st0" d="M-250,421.4c0,26.2,21.3,47.5,47.5,47.5s47.5-21.3,47.5-47.5c0-26.2-21.3-47.5-47.5-47.5S-250,395.2-250,421.4z
	 M-245,421.4c0-23.4,19.1-42.5,42.5-42.5S-160,398-160,421.4c0,23.4-19.1,42.5-42.5,42.5S-245,444.8-245,421.4z M-227.2,419.6
	L-227.2,419.6l23-23c1-1,2.6-1,3.5,0c1,1,1,2.6,0,3.5l-18.7,18.8h39.9c1.4,0,2.5,1.1,2.5,2.5c0,1.4-1.2,2.5-2.5,2.5h-39.9l18.7,18.7
	c1,1,1,2.6,0,3.5c-0.5,0.5-1.1,0.7-1.8,0.7c-0.7,0-1.3-0.2-1.8-0.7l-22.9-22.9l0,0l-1.8-1.8L-227.2,419.6z"/>
</svg>
