<?xml version="1.0" encoding="utf-8"?>
<!-- Generator: Adobe Illustrator 21.0.2, SVG Export Plug-In . SVG Version: 6.00 Build 0)  -->
<svg version="1.1" id="Calque_1" xmlns="http://www.w3.org/2000/svg" xmlns:xlink="http://www.w3.org/1999/xlink" x="0px" y="0px"
	 viewBox="0 0 95 95" style="enable-background:new 0 0 95 95;" xml:space="preserve">
<style type="text/css">
	.st0{fill:#231F20;}
</style>
<path class="st0" d="M0,47.5C0,73.7,21.3,95,47.5,95S95,73.7,95,47.5S73.7,0,47.5,0C21.3,0,0,21.3,0,47.5z M5,47.5
	C5,24.1,24.1,5,47.5,5S90,24.1,90,47.5S70.9,90,47.5,90S5,70.9,5,47.5z M22.8,45.7C22.8,45.7,22.8,45.7,22.8,45.7l23-23
	c1-1,2.6-1,3.5,0c1,1,1,2.6,0,3.5L30.6,45h39.9c1.4,0,2.5,1.1,2.5,2.5S71.8,50,70.5,50H30.6l18.7,18.7c1,1,1,2.6,0,3.5
	c-0.5,0.5-1.1,0.7-1.8,0.7s-1.3-0.2-1.8-0.7L22.8,49.3c0,0,0,0,0,0L21,47.5L22.8,45.7z"/>
</svg>
