<?xml version="1.0" encoding="utf-8"?>
<!-- Generator: Adobe Illustrator 21.0.2, SVG Export Plug-In . SVG Version: 6.00 Build 0)  -->
<svg version="1.1" id="Calque_1" xmlns="http://www.w3.org/2000/svg" xmlns:xlink="http://www.w3.org/1999/xlink" x="0px" y="0px"
	 viewBox="0 0 250 250" style="enable-background:new 0 0 250 250;" xml:space="preserve">
<style type="text/css">
	.st0{fill-rule:evenodd;clip-rule:evenodd;fill:#181616;}
</style>
<path class="st0" d="M125,12.8c-63.5,0-115,51.5-115,115c0,50.8,32.9,93.9,78.6,109.1c5.8,1.1,7.8-2.5,7.8-5.5
	c0-2.7-0.1-10-0.2-19.6c-32,6.9-38.7-15.4-38.7-15.4c-5.2-13.3-12.8-16.8-12.8-16.8c-10.4-7.1,0.8-7,0.8-7
	c11.5,0.8,17.6,11.9,17.6,11.9c10.3,17.6,26.9,12.5,33.5,9.6c1-7.4,4-12.5,7.3-15.4c-25.5-2.9-52.4-12.8-52.4-56.8
	c0-12.6,4.5-22.8,11.8-30.9c-1.2-2.9-5.1-14.6,1.1-30.4c0,0,9.7-3.1,31.6,11.8c9.2-2.6,19-3.8,28.8-3.9c9.8,0,19.6,1.3,28.8,3.9
	c22-14.9,31.6-11.8,31.6-11.8c6.3,15.8,2.3,27.5,1.1,30.4c7.4,8,11.8,18.3,11.8,30.9c0,44.2-26.9,53.9-52.5,56.7
	c4.1,3.6,7.8,10.6,7.8,21.3c0,15.4-0.1,27.8-0.1,31.5c0,3.1,2.1,6.7,7.9,5.5c45.7-15.2,78.6-58.3,78.6-109.1
	C240,64.3,188.5,12.8,125,12.8z"/>
</svg>
