<?xml version="1.0" encoding="utf-8"?>
<!-- Generator: Adobe Illustrator 21.0.2, SVG Export Plug-In . SVG Version: 6.00 Build 0)  -->
<svg version="1.1" id="Calque_1" xmlns="http://www.w3.org/2000/svg" xmlns:xlink="http://www.w3.org/1999/xlink" x="0px" y="0px"
	 viewBox="0 0 197.8 161.7" style="enable-background:new 0 0 197.8 161.7;" xml:space="preserve">
<style type="text/css">
	.st0{fill:#30302F;}
	.st1{fill:#FFFFFF;}
	.st2{fill:#F7F187;}
</style>
<g>
	<path class="st0" d="M1,101.6l-1-1.8C11.8,93.4,23.4,89.8,34.5,89c0.1,0.7,0.2,1.3,0.3,2C23.9,91.7,12.6,95.3,1,101.6z M1,76.1
		c12-6.6,23.7-10.2,34.8-10.7c0.2-0.7,0.4-1.4,0.5-2c-11.6,0.4-23.8,4.1-36.3,11L1,76.1z M0,105l1,1.8c12-6.6,23.7-10.1,34.8-10.7
		c-0.2-0.7-0.3-1.3-0.5-2C24,94.7,12.1,98.3,0,105z M197.8,61.6l-1.4-1.4c-4.1,4-14.9,13.1-33.2,18.2c0,0.7,0,1.4,0.1,2.1
		C182.4,75.2,193.6,65.8,197.8,61.6z M1,71c12.6-6.9,24.8-10.5,36.3-10.7c0.2-0.7,0.5-1.4,0.7-2c-12.1,0.1-24.9,3.8-38,11L1,71z
		 M34.1,75.7c0.1-0.7,0.1-1.4,0.2-2c-11,0.8-22.5,4.4-34.3,10.9l1,1.8C12.4,80.1,23.5,76.5,34.1,75.7z M35.1,68.5
		c-11.3,0.6-23,4.3-35.1,10.9l1,1.8c11.6-6.4,23-9.9,33.8-10.6C34.9,69.9,35,69.2,35.1,68.5z M33.9,80.8c0-0.7,0-1.3,0.1-2
		c-10.9,0.8-22.3,4.4-34,10.8l1,1.8C12.3,85.2,23.4,81.7,33.9,80.8z M34.1,85.9c-0.1-0.7-0.1-1.3-0.1-2c-10.9,0.8-22.3,4.4-34,10.8
		l1,1.8C12.4,90.3,23.5,86.7,34.1,85.9z M162,94c-0.2,0.7-0.3,1.5-0.5,2.2c17.4-4.5,29.3-13.3,36.3-20.2l-1.4-1.4
		C189.7,81.1,178.5,89.5,162,94z M160.6,99.4c-0.2,0.8-0.5,1.5-0.7,2.2c18.3-4.4,30.7-13.5,37.9-20.6l-1.4-1.4
		C189.5,86.4,177.9,95,160.6,99.4z M162.9,88.6c-0.1,0.7-0.2,1.4-0.3,2.2c16.9-4.6,28.3-13.2,35.2-20l-1.4-1.4
		C189.8,75.9,178.9,84.1,162.9,88.6z M163.3,83.4c0,0.7-0.1,1.4-0.1,2.1c16.5-4.6,27.8-13.1,34.7-19.8l-1.4-1.4
		C189.9,70.7,179.1,78.8,163.3,83.4z M0,64.1l1,1.8C14.2,58.6,27.1,55,39.3,55.1c0.3-0.7,0.6-1.3,0.9-2C27.4,52.8,13.9,56.5,0,64.1z
		 M155,121.1c-2.2,0.4-4.3,0.7-6.4,0.9c-0.6,0.8-1.3,1.5-1.9,2.2c2.9-0.3,5.8-0.6,8.7-1.2c20.9-3.9,34.7-13.9,42.5-21.6l-1.4-1.4
		C188.8,107.6,175.4,117.4,155,121.1z M155,116c-0.8,0.1-1.5,0.3-2.2,0.4c-0.5,0.8-1,1.5-1.6,2.3c1.4-0.2,2.8-0.4,4.2-0.7
		c20.9-3.9,34.7-13.9,42.5-21.6l-1.4-1.4C188.8,102.5,175.4,112.2,155,116z M156.1,110.7c-0.4,0.8-0.8,1.5-1.2,2.3
		c0.2,0,0.3-0.1,0.5-0.1C176.2,109,190,99,197.8,91.3l-1.4-1.4C188.9,97.2,175.8,106.8,156.1,110.7z M158.7,105
		c-0.3,0.8-0.6,1.5-1,2.2c19.5-4.2,32.6-13.7,40.1-21.1l-1.4-1.4C189.3,91.8,177,100.8,158.7,105z"/>
	<path class="st1" d="M98.6,14.2c-36.8,0-66.7,29.9-66.7,66.7s29.9,66.7,66.7,66.7s66.7-29.9,66.7-66.7S135.4,14.2,98.6,14.2z
		 M98.6,109.2c-12.5,0-24.2,5.3-32.5,14.2c-12.8-9.8-21.1-25.2-21.1-42.6c0-29.5,24-53.6,53.6-53.6s53.6,24,53.6,53.6
		c0,17.3-8.3,32.8-21.1,42.6C122.8,114.5,111.2,109.2,98.6,109.2z M98.6,111.2c11.9,0,22.9,5,30.8,13.4c-8.7,6.2-19.4,9.8-30.8,9.8
		s-22.1-3.6-30.8-9.8C75.7,116.2,86.8,111.2,98.6,111.2z M98.6,136.4c12,0,23.1-3.8,32.2-10.3c1.5,1.8,2.9,3.8,4.1,5.8
		c-10.3,7.3-22.8,11.6-36.3,11.6s-26.1-4.3-36.3-11.6c1.2-2.1,2.6-4,4.1-5.8C75.5,132.6,86.7,136.4,98.6,136.4z M136.6,130.8
		c-1.2-2.1-2.6-4-4.2-5.8c13.2-10.2,21.8-26.1,21.8-44c0-30.6-24.9-55.6-55.6-55.6S43.1,50.2,43.1,80.9c0,17.9,8.5,33.9,21.8,44
		c-1.5,1.8-2.9,3.8-4.2,5.8c-15-11.5-24.8-29.6-24.8-49.9c0-34.6,28.1-62.7,62.7-62.7s62.7,28.1,62.7,62.7
		C161.4,101.2,151.6,119.3,136.6,130.8z"/>
	<path class="st2" d="M124.7,59.6c1.2,1.5,1,3.7-0.5,4.9l-18.4,15c0.1,0.4,0.1,0.9,0.1,1.4c0,4-3.3,7.3-7.3,7.3
		c-4,0-7.3-3.3-7.3-7.3c0-4,3.3-7.3,7.3-7.3c1,0,1.9,0.2,2.7,0.5l18.4-15C121.3,57.9,123.5,58.1,124.7,59.6z M52.1,82.5H58v-2h-5.9
		V82.5z M140.5,80.5v2h5.9v-2H140.5z M57.9,59l5.1,2.9l1-1.7l-5.1-2.9L57.9,59z M74.6,41.6l2.9,5.1l1.7-1l-2.9-5.1L74.6,41.6z
		 M99.8,34.9l-2,0l0,5.9l2,0L99.8,34.9z M123,41.7l-1.7-1l-2.9,5.1l1.7,1L123,41.7z M133.6,60.4l1,1.7l5.1-2.9l-1-1.7L133.6,60.4z"
		/>
</g>
</svg>
