<?xml version="1.0" encoding="utf-8"?>
<!-- Generator: Adobe Illustrator 21.0.2, SVG Export Plug-In . SVG Version: 6.00 Build 0)  -->
<svg version="1.1" id="Calque_1" xmlns="http://www.w3.org/2000/svg" xmlns:xlink="http://www.w3.org/1999/xlink" x="0px" y="0px"
	 viewBox="0 0 197.8 161.7" style="enable-background:new 0 0 197.8 161.7;" xml:space="preserve">
<style type="text/css">
	.st0{fill:#30302F;}
	.st1{fill:#FFFFFF;}
	.st2{fill:#F7F187;}
</style>
<g>
	<path class="st0" d="M0.9,101.2l-1-1.8c9.8-5.4,19.5-8.8,28.8-10.2c0.5,0.6,1,1.2,1.6,1.8C20.9,92.2,11,95.6,0.9,101.2z M27.1,86.4
		c-0.3-0.6-0.5-1.3-0.7-1.9C17.8,86.1,9,89.4,0,94.3l1,1.8C9.9,91.2,18.6,87.9,27.1,86.4z M35.4,94.1c-0.3-0.1-0.7-0.3-1-0.4
		C23.4,94.4,11.8,98,0,104.5l1,1.8c12-6.6,23.7-10.2,34.8-10.7c-0.1-0.6-0.3-1.2-0.4-1.8C35.4,93.9,35.4,94,35.4,94.1z M35,70.1
		C35,70.1,35,70.1,35,70.1C35,70.1,35,70.1,35,70.1C35,70.1,35,70.1,35,70.1z M25.8,81.5c0-0.4,0-0.7,0-1.1c0-0.3,0-0.6,0-0.9
		C17.4,81.1,8.8,84.4,0,89.2l1,1.8C9.4,86.3,17.8,83.2,25.8,81.5z M197.8,61.1l-1.4-1.4c-3.5,3.4-11.9,10.5-25.6,15.7
		c0.1,0.7,0.2,1.3,0.3,2C185.5,72.1,194.2,64.7,197.8,61.1z M163.5,79.9c0-0.7,0-1.3-0.1-2C163.5,78.6,163.5,79.2,163.5,79.9
		C163.5,79.9,163.5,79.9,163.5,79.9z M0.9,75.6C13.1,69,24.8,65.4,36.1,64.9c0.2-0.7,0.4-1.3,0.6-2c-11.7,0.4-24,4.1-36.6,11
		L0.9,75.6z M32.3,68.3C21.9,69.3,11.1,72.9,0,79l1,1.8c9.8-5.4,19.4-8.7,28.6-10.1C30.4,69.8,31.3,69,32.3,68.3z M163.5,82.9
		c0,0.7,0,1.3-0.1,2C163.4,84.2,163.4,83.5,163.5,82.9C163.5,82.9,163.5,82.9,163.5,82.9z M26.4,76.3c0.2-0.8,0.5-1.5,0.8-2.2
		c-8.8,1.6-18,4.9-27.3,10l1,1.8C9.6,81.1,18.1,77.9,26.4,76.3z M171,80.3c-0.1,0.8-0.3,1.6-0.5,2.4c12.6-4.8,21.6-11.7,27.4-17.4
		l-1.4-1.4C191,69.2,182.6,75.6,171,80.3z M159,104.5c-0.3,0.8-0.6,1.5-0.9,2.3c19.3-4.2,32.2-13.7,39.7-21l-1.4-1.4
		C189.3,91.3,177.1,100.2,159,104.5z M156.5,110.1c-0.4,0.8-0.8,1.5-1.2,2.3c0,0,0,0,0,0c20.9-3.9,34.7-13.9,42.5-21.6l-1.4-1.4
		C189,96.7,176,106.1,156.5,110.1z M160.9,98.9c-0.2,0.8-0.4,1.5-0.7,2.2c18.1-4.4,30.3-13.5,37.6-20.6l-1.4-1.4
		C189.5,85.9,178,94.5,160.9,98.9z M162.3,93.4c-0.1,0.7-0.3,1.5-0.5,2.2c17.3-4.6,29-13.3,36-20.2l-1.4-1.4
		C189.7,80.6,178.6,88.9,162.3,93.4z M168.7,86.3c-0.8,1.2-1.7,2.2-2.8,3.1c15-4.8,25.4-12.6,31.9-19l-1.4-1.4
		C190.6,74.6,181.6,81.6,168.7,86.3z M0.9,70.5c12.7-6.9,25-10.5,36.7-10.7c0.2-0.7,0.5-1.4,0.7-2c-12.2,0.1-25.1,3.8-38.4,11
		L0.9,70.5z M154.9,115.6c-0.6,0.1-1.2,0.2-1.7,0.3c-0.5,0.8-1,1.5-1.5,2.3c0,0,0,0,0,0c0.2-0.3,0.5-0.7,0.7-1
		c0.3,0.2,0.6,0.5,0.9,0.8c0.7-0.1,1.4-0.2,2-0.3c20.9-3.9,34.7-13.9,42.5-21.6l-1.4-1.4C188.8,102,175.3,111.8,154.9,115.6z
		 M0,63.6l1,1.8c13.4-7.3,26.4-10.9,38.7-10.8c0.3-0.7,0.6-1.3,0.9-2C27.6,52.3,14,56,0,63.6z M147.2,123.8
		C147.2,123.8,147.2,123.8,147.2,123.8c0.7-0.7,1.3-1.5,1.9-2.2c0,0,0,0,0,0C148.5,122.3,147.9,123,147.2,123.8z M156.1,120.4
		c0.6,0.5,1.1,1.1,1.7,1.7c19.5-4.2,32.4-13.7,40-21.1l-1.4-1.4C188.9,107,175.9,116.5,156.1,120.4z"/>
	<path class="st1" d="M95.5,79.3h5.9v3h-5.9V79.3z M134.2,49.5c1.7,0,6.5,0.6,10.4,4.9c2.8,3.1,4.3,7.2,4.3,11.5v28.4
		c0,9-6.5,16.3-14.6,16.4c-10.9,2.6-22,4-33.1,4.2c-0.8,0-1.5,0-2.3,0c-11.9,0-23.8-1.4-35.4-4.2c-1.7,0-6.5-0.6-10.3-4.9
		c-2.8-3.1-4.3-7.2-4.3-11.5V66c0-9,6.5-16.3,14.6-16.4C74.5,47.2,85.8,46,97,45.8C109.5,45.7,121.9,47,134.2,49.5z M133.9,53.5
		l-0.4,0c-12-2.5-24.2-3.8-36.4-3.6c-11,0.1-22.2,1.3-33,3.6l-0.4,0c-6,0-10.9,5.6-10.9,12.4v28.4c0,3.4,1.2,6.5,3.3,8.9
		c2.9,3.3,6.6,3.6,7.6,3.6h0.2l0.2,0.1c12.1,2.9,24.5,4.3,36.9,4.1c10.9-0.2,21.8-1.5,32.4-4.1l0.2-0.1h0.2c6,0,10.9-5.6,10.9-12.4
		V66c0-3.4-1.2-6.5-3.3-8.9C138.6,53.8,135,53.5,133.9,53.5z M172.1,78.2c0,5.4-2.9,10.5-7.5,13.3c-5.1,31.8-32.7,56.1-65.9,56.1
		c-32.2,0-59.1-22.9-65.4-53.3c-5.2-2.6-8.6-8-8.6-13.9c0-6,3.5-11.5,8.9-14C40.3,36.5,67,14.1,98.8,14.1
		c31.1,0,57.2,21.3,64.6,50.1C168.7,66.9,172.1,72.2,172.1,78.2z M33,91.7c-0.6-3.5-0.9-7.2-0.9-10.9c0-4.1,0.4-8,1.1-11.9
		c-3.9,2.4-6.4,6.7-6.4,11.5C26.8,85,29.2,89.3,33,91.7z M161.5,80.8c0-34.6-28.1-62.7-62.7-62.7S36.1,46.3,36.1,80.8
		c0,34.6,28.1,62.7,62.7,62.7S161.5,115.4,161.5,80.8z M170.1,78.2c0-4.6-2.4-8.8-6.1-11.3c1,4.5,1.5,9.2,1.5,13.9
		c0,2.7-0.2,5.3-0.5,7.9C168.2,86.2,170.1,82.4,170.1,78.2z"/>
	<path class="st2" d="M97.5,65.5L65,95c-0.6,0.5-1.3,0.8-2,0.8c-0.8,0-1.6-0.3-2.2-1c-1.1-1.2-1-3.1,0.2-4.2L93.5,61
		c1.2-1.1,3.1-1,4.2,0.2C98.9,62.5,98.8,64.4,97.5,65.5z M89,78.6L70,95.8c-1.2,1.1-1.3,3-0.2,4.2c0.6,0.7,1.4,1,2.2,1
		c0.7,0,1.4-0.3,2-0.8l19-17.2c1.2-1.1,1.3-3,0.2-4.2C92.1,77.6,90.2,77.5,89,78.6z"/>
</g>
</svg>
