<?xml version="1.0" encoding="utf-8"?>
<!-- Generator: Adobe Illustrator 21.0.2, SVG Export Plug-In . SVG Version: 6.00 Build 0)  -->
<svg version="1.1" id="Calque_1" xmlns="http://www.w3.org/2000/svg" xmlns:xlink="http://www.w3.org/1999/xlink" x="0px" y="0px"
	 viewBox="0 0 197.8 161.7" style="enable-background:new 0 0 197.8 161.7;" xml:space="preserve">
<style type="text/css">
	.st0{fill:#30302F;}
	.st1{fill:#FFFFFF;}
	.st2{fill:none;stroke:#F7F187;stroke-width:2;stroke-miterlimit:10;}
	.st3{fill:#F7F187;}
</style>
<g>
	<path class="st0" d="M0.9,89.7L0,88c10.9-6,21.5-9.5,31.8-10.6c0,0.7,0,1.3-0.1,2C21.8,80.5,11.5,84,0.9,89.7z M31.8,84.5
		c0-0.7,0-1.3-0.1-2C21.5,83.6,10.8,87.2,0,93.1l1,1.8C11.5,89.1,21.8,85.6,31.8,84.5z M32.2,89.6c-0.1-0.7-0.2-1.3-0.2-2
		c-10.3,1.1-21,4.6-32,10.6l1,1.8C11.7,94.1,22.2,90.6,32.2,89.6z M196.4,77.9c-6.7,6.6-17.8,14.9-34.1,19.4
		c-0.2,0.7-0.4,1.5-0.6,2.2c17.3-4.5,29.1-13.3,36.1-20.2L196.4,77.9z M32.2,72.2C21.8,73.3,11,76.8,0,82.9l1,1.8
		c10.7-5.8,21.1-9.3,31-10.4C32,73.6,32.1,72.9,32.2,72.2z M197.8,59.9l-1.4-1.4c-4,3.9-14.5,12.7-32.2,17.9c0,0.7,0.1,1.4,0.1,2.1
		C182.7,73.2,193.7,64,197.8,59.9z M164.3,83.5c15.9-4.7,26.8-12.9,33.5-19.5l-1.4-1.4c-6.4,6.3-16.9,14.2-32.1,18.8
		C164.3,82.1,164.3,82.8,164.3,83.5z M196.4,72.8c-6.5,6.4-17.3,14.5-33,19.1c-0.1,0.7-0.2,1.5-0.4,2.2
		c16.6-4.6,27.9-13.1,34.8-19.8L196.4,72.8z M196.4,67.7c-6.5,6.3-17,14.2-32.3,18.9c-0.1,0.7-0.1,1.4-0.2,2.2
		c16.1-4.7,27.2-13,33.9-19.6L196.4,67.7z M155.3,114.3c-0.5,0.8-0.9,1.5-1.4,2.3c0.5-0.1,0.9-0.2,1.4-0.2
		c20.9-3.9,34.7-13.9,42.5-21.6l-1.4-1.4C188.8,100.8,175.5,110.4,155.3,114.3z M0,103.3l1,1.8c11.1-6,21.8-9.6,32.1-10.5
		c-0.1-0.7-0.3-1.3-0.4-2C22.2,93.6,11.2,97.2,0,103.3z M154.9,119.5c-1.1,0.2-2.3,0.4-3.4,0.6c-0.6,0.8-1.1,1.5-1.7,2.3
		c1.8-0.2,3.6-0.5,5.5-0.8c20.9-3.9,34.7-13.9,42.5-21.6l-1.4-1.4C188.8,105.9,175.3,115.7,154.9,119.5z M160.6,102.9
		c-0.3,0.8-0.6,1.5-0.9,2.3c18.4-4.4,30.8-13.5,38.1-20.7l-1.4-1.4C189.5,89.9,177.8,98.5,160.6,102.9z M0.9,64.2
		c12.7-6.9,25-10.5,36.6-10.7c0.3-0.7,0.6-1.4,1-2c-12.3,0-25.2,3.7-38.5,11L0.9,64.2z M158.3,108.6c-0.4,0.8-0.7,1.5-1.1,2.3
		c19.8-4.1,33-13.7,40.6-21.2l-1.4-1.4C189.2,95.3,176.8,104.4,158.3,108.6z M0.9,79.5c10.9-6,21.6-9.5,31.8-10.5
		c0.1-0.7,0.2-1.4,0.4-2.1C22.4,68,11.3,71.6,0,77.8L0.9,79.5z M0.9,74.4c11.3-6.2,22.4-9.7,32.9-10.6c0.2-0.7,0.4-1.4,0.6-2
		C23.4,62.6,11.8,66.2,0,72.7L0.9,74.4z M0.9,69.3c11.9-6.5,23.5-10.1,34.5-10.7c0.2-0.7,0.5-1.4,0.8-2c-11.6,0.5-23.8,4.1-36.3,11
		L0.9,69.3z"/>
	<path class="st1" d="M191.2,32c-3.5-6.5-16.5-7.4-36.7-2.3c-2.8,0.7-5.6,1.5-8.6,2.4C133.5,20,116.6,12.5,98,12.5
		c-37.7,0-68.4,30.7-68.4,68.4c0,4.2,0.4,8.3,1.1,12.3c-2.6,2.1-5,4.1-7.3,6.2C8,113.2,1.4,124.5,4.8,131c2,3.7,7,5.6,14.7,5.6
		c8,0,18.7-2,31.7-6c12.2,11.5,28.7,18.6,46.8,18.6c37.7,0,68.4-30.7,68.4-68.4c0-3.8-0.3-7.5-0.9-11.1
		C185.8,53.2,195.2,39.5,191.2,32z M98,16.5c16.7,0,32,6.4,43.5,17c-0.1,0-0.2,0.1-0.3,0.1c-0.3,0.1-0.5,0.2-0.8,0.3
		c-1,0.3-1.9,0.6-2.9,1c-0.2,0.1-0.4,0.1-0.6,0.2c-3,1-6,2.1-9.1,3.3c-0.4,0.2-0.8,0.3-1.2,0.5c-0.7,0.3-1.4,0.5-2.1,0.8
		c-0.7,0.3-1.4,0.5-2.1,0.8c-0.6,0.2-1.2,0.5-1.8,0.7c-0.8,0.3-1.7,0.7-2.5,1c-0.5,0.2-1,0.4-1.5,0.6c-1,0.4-2,0.9-3.1,1.3
		c-0.3,0.2-0.7,0.3-1,0.5c-2.9,1.3-5.7,2.6-8.6,3.9c-0.2,0.1-0.5,0.2-0.7,0.3c-1.2,0.6-2.4,1.1-3.5,1.7c-0.4,0.2-0.8,0.4-1.2,0.6
		c-1,0.5-2.1,1-3.1,1.5c-0.4,0.2-0.9,0.4-1.3,0.7c-1,0.5-2.1,1.1-3.1,1.6c-0.4,0.2-0.8,0.4-1.3,0.6c-1.4,0.7-2.9,1.5-4.3,2.3
		c-1.4,0.8-2.9,1.5-4.3,2.3c-0.4,0.2-0.8,0.4-1.2,0.7c-1,0.6-2,1.1-3.1,1.7c-0.4,0.2-0.9,0.5-1.3,0.7c-1,0.6-2,1.2-3,1.7
		c-0.4,0.2-0.8,0.4-1.1,0.7c-1.2,0.7-2.4,1.4-3.5,2.1c-0.2,0.1-0.3,0.2-0.5,0.3c-1.4,0.8-2.8,1.7-4.1,2.5c-0.1,0.1-0.2,0.1-0.3,0.2
		c-1.2,0.7-2.3,1.5-3.5,2.2c-0.4,0.3-0.8,0.5-1.2,0.8c-0.9,0.5-1.7,1.1-2.6,1.6c-0.5,0.3-1,0.6-1.5,1c-0.7,0.5-1.4,1-2.2,1.4
		c-0.5,0.4-1.1,0.7-1.6,1.1c-0.6,0.4-1.2,0.8-1.8,1.2c-2.5,1.7-5,3.4-7.3,5.2c-0.2,0.2-0.5,0.3-0.7,0.5c-0.8,0.6-1.6,1.2-2.4,1.8
		c-0.2,0.2-0.5,0.3-0.7,0.5c-0.8,0.6-1.6,1.2-2.4,1.8c-0.2,0.2-0.4,0.3-0.6,0.5c-0.1,0-0.1,0.1-0.2,0.1c-0.5-3.1-0.7-6.2-0.7-9.4
		C33.7,45.4,62.5,16.5,98,16.5z M6.6,130.1c-3-5.6,3.7-16.3,18.2-29.3c2-1.8,4.1-3.6,6.4-5.5c2.8,13,9.3,24.6,18.4,33.7
		C26,136.1,10,136.6,6.6,130.1z M98,145.2c-31.5,0-57.8-22.8-63.3-52.7c0.4-0.3,0.8-0.6,1.1-0.9c0.1-0.1,0.3-0.2,0.4-0.3
		c0.8-0.6,1.7-1.3,2.5-1.9c0.2-0.1,0.3-0.2,0.5-0.4c0.8-0.6,1.7-1.3,2.6-1.9c0.1-0.1,0.3-0.2,0.4-0.3c2.5-1.8,5.2-3.7,7.9-5.5
		c0.5-0.3,0.9-0.6,1.4-0.9c0.6-0.4,1.2-0.8,1.8-1.2c0.6-0.4,1.3-0.8,1.9-1.3c0.5-0.4,1.1-0.7,1.6-1.1c0.8-0.5,1.6-1,2.3-1.5
		c0.5-0.3,0.9-0.6,1.4-0.9c1.1-0.7,2.1-1.3,3.2-2c0.2-0.1,0.4-0.2,0.6-0.4c1.3-0.8,2.7-1.6,4-2.4c0.2-0.1,0.5-0.3,0.7-0.4
		c1.1-0.7,2.2-1.3,3.4-2c0.4-0.2,0.8-0.5,1.2-0.7c1-0.6,2-1.1,2.9-1.7c0.4-0.3,0.9-0.5,1.3-0.8c1-0.6,2-1.1,3-1.7
		c0.4-0.2,0.8-0.5,1.2-0.7c1.4-0.8,2.8-1.5,4.2-2.3c1.4-0.8,2.9-1.5,4.3-2.2c0.4-0.2,0.8-0.4,1.2-0.6c1-0.5,2.1-1.1,3.1-1.6
		c0.5-0.2,0.9-0.5,1.4-0.7c1-0.5,2-1,3.1-1.5c0.4-0.2,0.8-0.4,1.3-0.6c1.1-0.6,2.3-1.1,3.4-1.6c0.3-0.1,0.6-0.3,0.8-0.4
		c2.9-1.3,5.7-2.6,8.5-3.9c0.4-0.2,0.8-0.4,1.2-0.5c0.9-0.4,1.9-0.8,2.8-1.2c0.6-0.2,1.1-0.5,1.7-0.7c0.8-0.3,1.5-0.6,2.3-0.9
		c0.7-0.3,1.3-0.5,2-0.8c0.6-0.2,1.2-0.5,1.8-0.7c0.8-0.3,1.5-0.6,2.3-0.9c0.2-0.1,0.4-0.1,0.6-0.2c3.3-1.3,6.6-2.5,9.8-3.6
		c0.1,0,0.2-0.1,0.3-0.1c1-0.3,2-0.7,3-1c0.2-0.1,0.4-0.1,0.6-0.2c0.5-0.2,0.9-0.3,1.4-0.4c11.9,11.7,19.2,27.9,19.2,45.8
		C162.4,116.3,133.5,145.2,98,145.2z M165,67.5c-2.6-13-8.8-24.6-17.6-33.8c2.6-0.8,5.1-1.4,7.5-2.1c19-4.8,31.5-4.3,34.5,1.3
		C192.8,39.3,183.7,52.2,165,67.5z"/>
	<path class="st2" d="M183.7,62.1"/>
	<path class="st3" d="M113.4,28c-5.1,2.5-10.2,5.1-15.2,7.8c-5.6,3-11.2,6.1-16.6,9.2l-1-1.7c5.4-3.1,11-6.2,16.7-9.2
		c5.1-2.7,10.2-5.3,15.3-7.8L113.4,28z M29.6,128c-3.8,0-6.9,3.1-6.9,6.9s3.1,6.9,6.9,6.9c3.8,0,6.9-3.1,6.9-6.9S33.4,128,29.6,128z
		 M109.9,39.5c-4.2,0-7.6,3.4-7.6,7.6c0,4.2,3.4,7.6,7.6,7.6c4.2,0,7.6-3.4,7.6-7.6C117.5,42.9,114.1,39.5,109.9,39.5z M187.1,87.1
		c-4.2,0-7.6,3.4-7.6,7.6s3.4,7.6,7.6,7.6c4.2,0,7.6-3.4,7.6-7.6S191.3,87.1,187.1,87.1z"/>
</g>
</svg>
