<?xml version="1.0" encoding="utf-8"?>
<!-- Generator: Adobe Illustrator 21.0.2, SVG Export Plug-In . SVG Version: 6.00 Build 0)  -->
<svg version="1.1" id="Calque_1" xmlns="http://www.w3.org/2000/svg" xmlns:xlink="http://www.w3.org/1999/xlink" x="0px" y="0px"
	 viewBox="0 0 250 250" style="enable-background:new 0 0 250 250;" xml:space="preserve">
<g>
	<path d="M65.5,40.7c0,14.2-10.7,25.6-27.9,25.6h-0.3C20.7,66.3,10,54.9,10,40.7c0-14.5,11-25.6,27.9-25.6
		C54.8,15.1,65.2,26.2,65.5,40.7L65.5,40.7z M12.9,234.9h49.3V86.6H12.9V234.9z M183.2,83.1c-26.1,0-37.8,14.3-44.4,24.5v0.5h-0.3
		c0.1-0.1,0.3-0.3,0.3-0.5v-21H89.5c0.7,13.9,0,148.3,0,148.3h49.3v-82.9c0-4.4,0.3-8.8,1.7-12c3.5-8.8,11.7-18.1,25.3-18.1
		c17.9,0,25,13.6,25,33.6v79.4H240v-85C240,104.3,215.7,83.1,183.2,83.1L183.2,83.1z M183.2,83.1"/>
</g>
</svg>
