<?xml version="1.0" encoding="utf-8"?>
<!-- Generator: Adobe Illustrator 22.1.0, SVG Export Plug-In . SVG Version: 6.00 Build 0)  -->
<svg version="1.1" id="Layer_1" xmlns="http://www.w3.org/2000/svg" xmlns:xlink="http://www.w3.org/1999/xlink" x="0px" y="0px"
	 viewBox="0 0 500 500" style="enable-background:new 0 0 500 500;" xml:space="preserve">
<style type="text/css">
	.st0{fill:#FFFFFF;}
</style>
<path class="st0" d="M245.1,123.7c-2.7,0.9-2.7-4.2-7.8-2.9C245.1,117.3,247.8,122.8,245.1,123.7z M215.5,125.5
	c2.9-0.1,1.1-4.9,6.3-5.4C213.3,119.4,212.7,125.6,215.5,125.5z M410.6,452.4c-15.5,7.8-35.8,25.1-43.3,32.3
	c-5.6,5.3-28.9,8-41.9,1.3c-15.4-7.9-7.2-20.3-30.9-20.8c-11.8-0.3-23.3-0.4-34.8-0.2c-10.1,0.1-20.3,0.5-30.7,1
	c-35.6,0.3-39.1,23.6-61.8,22.8c-15.5-0.6-35.2-12.8-68.8-19.9c-23.7-4.9-46.4-6.1-51.2-16.6c-4.8-10.4,6-22.1,6.7-32.5
	c0.9-13.5-10.3-32-2-39.1c6.8-5.9,21.7-1.6,31.4-7c10.2-5.7,14.3-10.4,14.3-22.8c3.8,12.7-0.2,23.3-8.6,28.4
	c-5,3.1-14.3,4.6-22.1,3.9c-6.1-0.6-9.8,0.4-11.7,2.7c-2.4,3-1.6,8.3,1.4,15.3c3,7,6.6,11.5,6.1,20.1c-0.5,8.6-9.9,18.8-8.4,26
	c0.6,2.7,3.3,5.1,9.8,6.9c10.8,3,30.2,5.8,49.3,10.5c21.2,5.2,43.2,15,56.8,13.1c40.7-5.7,17.5-49.4,10.9-59.7
	c-34.4-54.1-57.2-89.6-75.3-75.5c-4.8,3.7-4.9-9.2-4.7-14.2c0.8-17.8,9.8-24,15.2-37.9c10.1-25.9,17.9-55.6,33.5-71
	c11.6-14.8,29.6-39.2,33.1-52.1c-2.9-28-3.8-57.4-4.2-83.2c-0.5-27.5,3.9-51.5,34.9-68.4c7.5-4.1,17.4-5.6,27.8-5.7
	c18.6-0.2,39.1,5,52.2,14.7c20.9,15.5,34.1,48.5,32.5,72.2c-1.2,18.3,2.1,37.4,7.9,57.1c7,23.4,18.1,39.8,35.7,58.5
	c21.2,22.5,37.7,66.8,42.4,94.9c4.4,26.2-1.4,42.5-7.1,43.3c-8.6,1.2-13.9,28.5-40.8,27.2c-17.1-0.8-18.8-10.9-23.6-19.6
	c-7.6-13.8-15.4-9.5-18.5,4.9c-1.6,7.4-0.4,17.9,1.9,26.1c4.8,16.8,3.2,32.8,0.3,52.1c-5.5,37.1,25.9,44.1,47.1,26.5
	c20.9-17.4,25.4-20.2,51.8-29.2c39.9-13.6,26.5-25.7,5-32.9c-19.2-6.5-20-39-13.1-45.1c1.5,34.9,19.7,40,27.4,44.7
	C475.4,425.8,430,442.6,410.6,452.4z M319.5,173c3.1,0.5,5.5-3.5,4.7-7.3c-1-5.2-5-3.3-9.1-5.9c-5.2-3.3-6.2-8.8-8.1-6.7
	C301.4,159,314,172.1,319.5,173z M273,53.5c2.6,2.1,4-2.9,9.2-4.7c1.3-0.5,7.5,0.2,8.7-2.7c0.5-1.3-3.2-2.7-5.4-4.9
	c-2.2-2.1-4.4-4-6.4-3.8c-5.3,0.3-2.7,6.1-3.6,8.7C274.5,49,270.5,51.5,273,53.5z M143.9,252.7c1.3,0.2,5.2-3.1,6.6-6.8
	c1.6-4.4,2.9-7,0.6-7.7c-2.3-0.7-1.9,4-4.1,7.9C145,249.5,140.3,252.2,143.9,252.7z M321.8,350.2c3.6-4.3,7.9-4.8,13.6-4.9
	c0.8-21.3,34-19.7,44.8-10.8c0-5-10.4-9.4-14.6-11.5c7.2-24,3.8-33.6-1-56.4c-3.6-17.3-19.4-40.6-31.8-47.9
	c3.1,2.7,9,10.7,15.3,22.4c10.8,20,21.4,49.7,14.3,74.6c-2.7,9.5-9,10.7-13.2,11.2c-19,2-7.8-22.4-15.7-56.1
	c-8.8-37.4-17.8-40.2-20.1-43.1c-10.9-48.6-23-43.8-26.4-62.2c-3-16.3,14.2-29.7-9.3-34.3c-7.1-1.4-17.4-8.7-21.4-9.2
	c-4.1-0.5-6-26.8,8.8-27.9c14.8-1.1,17.6,16.7,14.7,23.7c-4.2,7,0.3,9.6,7.6,7.3c6-1.9,2.1-17.4,3.6-19.8
	c-3.9-22.3-13.2-25.6-22.9-27.4c-36.9,2.8-20.3,43.7-24.1,39.7c-5.2-5.5-20.9-0.3-20.9-3.8c0.4-20.8-6.6-32.9-16.3-33.2
	c-10.7-0.3-15.1,14.7-15.8,23.1c-0.6,8.1,4.8,25,8.8,23.7c2.6-0.8,7.1-6.1,2.3-6.1c-2.5,0-6.2-5.8-6.6-12.8
	c-0.4-7,2.2-14.1,11.3-13.7c10.7,0.4,10.6,21.3,9.4,22.1c-3.4,2.4-7.8,6.9-8.3,7.7c-3.4,5.7-10.2,7.1-12.7,9.6
	c-4.8,4.8-5.7,10.1-2.1,12.2c12.2,7,8.2,14.8,25.3,15.5c11.2,0.5,19.7-1.7,27.3-4.1c5.9-1.8,25-5.9,29.1-12.9c1.7-3,3.9-3.1,5.4-2.2
	c2.6,1.5,3.1,6.4-3.5,8.2c-9.5,2.6-19,7.6-27.4,10.9c-8.4,3.4-11,4.7-18.9,6.1c-17.7,3.2-30.8-6.4-18.9,5.1
	c3.9,3.8,7.7,6.2,17.9,5.8c22.4-0.9,47.4-27.7,49.8-15.7c0.5,2.5-7.1,5.8-13,8.8c-20.9,10.3-35.7,30.7-49.1,23.6
	c-12-6.3-24-36.1-23.7-22.7c0.3,20.5-27.1,38.9-14.5,62.3c-8.2,2.2-26.8,41.6-29.5,62.1c-1.5,11.6,1.1,26.2-1.7,34.3
	c-4,11.8-22.4-11.2-16.5-39.4c1-5,0.2-6-1.2-3.7c-7.5,13.2-3.3,31.6,2.5,44.5c2.6,5.6,8.6,8,13,13c9.6,10.7,46.4,38,53,44.6
	c8.1,7.9,5.8,26.1-11.3,27.9c8.8,16.6,17.4,18.2,17.2,45.3c10-5.3,6-17,1.8-24.7c-2.9-5.3-6.7-7.7-5.9-8.9c0.6-0.9,5.7-5.3,8.8-1.9
	c9.1,10.1,26.2,12,44.6,9.7c18.4-2.3,38.1-8.7,47.2-23.4c4.3-6.9,7.3-9.3,9.3-8.1c2,1.2,2.8,6.1,2.6,13.9
	c-0.2,8.6-3.9,17.6-6.1,24.8c-2.5,8.1-3.3,13.9,4.6,14.2c2.3-15,6.5-29.9,7.7-44.9C320.8,397.7,308.5,366,321.8,350.2z M209.2,108.3
	c-0.6,3.3-0.3,5.4,2,5.4c0.4,0,0.8-0.1,0.9-0.9c1.1-6.6-2.3-11.5-3.8-11.9c-3.3-0.8-2.9,3.9-1.1,3.5
	C208.2,104.1,209.6,105.9,209.2,108.3z M269.8,99.1c-3.3,0.3-2.4,2-0.7,2.5c2.2,0.6,4.2,4.4,4.7,8.4c0,0.4,2.8-0.6,2.8-1.5
	C276.8,102,271.3,99,269.8,99.1z"/>
</svg>
