<?xml version="1.0" encoding="UTF-8" standalone="no"?>
<!-- Generator: Adobe Illustrator 22.1.0, SVG Export Plug-In . SVG Version: 6.00 Build 0)  -->

<svg
   xmlns:dc="http://purl.org/dc/elements/1.1/"
   xmlns:cc="http://creativecommons.org/ns#"
   xmlns:rdf="http://www.w3.org/1999/02/22-rdf-syntax-ns#"
   xmlns:svg="http://www.w3.org/2000/svg"
   xmlns="http://www.w3.org/2000/svg"
   xmlns:sodipodi="http://sodipodi.sourceforge.net/DTD/sodipodi-0.dtd"
   xmlns:inkscape="http://www.inkscape.org/namespaces/inkscape"
   version="1.1"
   id="Layer_1"
   x="0px"
   y="0px"
   viewBox="0 0 500 500"
   style="enable-background:new 0 0 500 500;"
   xml:space="preserve"
   sodipodi:docname="Microsoft-Windows-logo.svg"
   inkscape:version="0.92.4 (unknown)"><metadata
   id="metadata11"><rdf:RDF><cc:Work
       rdf:about=""><dc:format>image/svg+xml</dc:format><dc:type
         rdf:resource="http://purl.org/dc/dcmitype/StillImage" /></cc:Work></rdf:RDF></metadata><defs
   id="defs9" /><sodipodi:namedview
   pagecolor="#ffffff"
   bordercolor="#666666"
   borderopacity="1"
   objecttolerance="10"
   gridtolerance="10"
   guidetolerance="10"
   inkscape:pageopacity="0"
   inkscape:pageshadow="2"
   inkscape:window-width="2560"
   inkscape:window-height="1376"
   id="namedview7"
   showgrid="false"
   inkscape:zoom="0.472"
   inkscape:cx="254.23729"
   inkscape:cy="250"
   inkscape:window-x="0"
   inkscape:window-y="27"
   inkscape:window-maximized="1"
   inkscape:current-layer="Layer_1" />
<style
   type="text/css"
   id="style2">
	.st0{fill:#3D3D3D;}
</style>
<path
   class="st0"
   d="M489.1,10v3.5v224.2c-85.8,0-173.4,1.8-259.3,1.8c0-63.1,0-127.9,0-190.9C315.7,34.5,403.3,22.3,489.1,10z   M10.9,241.2c64.8,0,129.6-1.8,196.2-1.8c0-63.1,0-124.4,0-187.4C140.5,59,75.7,67.8,10.9,78.3C10.9,78.3,10.9,241.2,10.9,241.2z   M10.9,260.5v162.9c64.8,8.8,129.6,17.5,196.2,26.3c0-63.1,0-126.1,0-189.2C140.5,262.3,75.7,260.5,10.9,260.5z M229.9,453.2  c85.8,12.3,173.4,22.8,259.3,36.8v-10.5V262.3c-85.8,0-173.4,0-259.3,0C229.9,327.1,229.9,390.1,229.9,453.2z"
   id="path4"
   style="fill:#ffffff" />
</svg>