<?xml version="1.0" encoding="utf-8"?>
<!-- Generator: Adobe Illustrator 22.1.0, SVG Export Plug-In . SVG Version: 6.00 Build 0)  -->
<svg version="1.1" id="Layer_1" xmlns="http://www.w3.org/2000/svg" xmlns:xlink="http://www.w3.org/1999/xlink" x="0px" y="0px"
	 viewBox="0 0 500 500" style="enable-background:new 0 0 500 500;" xml:space="preserve">
<style type="text/css">
	.st0{fill:#3D3D3D;}
</style>
<path class="st0" d="M489.1,10v3.5v224.2c-85.8,0-173.4,1.8-259.3,1.8c0-63.1,0-127.9,0-190.9C315.7,34.5,403.3,22.3,489.1,10z
	 M10.9,241.2c64.8,0,129.6-1.8,196.2-1.8c0-63.1,0-124.4,0-187.4C140.5,59,75.7,67.8,10.9,78.3C10.9,78.3,10.9,241.2,10.9,241.2z
	 M10.9,260.5v162.9c64.8,8.8,129.6,17.5,196.2,26.3c0-63.1,0-126.1,0-189.2C140.5,262.3,75.7,260.5,10.9,260.5z M229.9,453.2
	c85.8,12.3,173.4,22.8,259.3,36.8v-10.5V262.3c-85.8,0-173.4,0-259.3,0C229.9,327.1,229.9,390.1,229.9,453.2z"/>
</svg>
