<?xml version="1.0" encoding="utf-8"?>
<!-- Generator: Adobe Illustrator 22.1.0, SVG Export Plug-In . SVG Version: 6.00 Build 0)  -->
<svg version="1.1" id="Layer_1" xmlns="http://www.w3.org/2000/svg" xmlns:xlink="http://www.w3.org/1999/xlink" x="0px" y="0px"
	 viewBox="0 0 500 500" style="enable-background:new 0 0 500 500;" xml:space="preserve">
<style type="text/css">
	.st0{fill:#FFFFFF;}
</style>
<path class="st0" d="M396.4,250c27.3-25.3,44.4-61.4,44.4-101.5C440.7,72.1,378.6,10,302.2,10C237.5,10,183,54.6,167.9,114.8
	C105.8,128.5,59.3,183.9,59.3,250c0,66.1,46.6,121.5,108.6,135.2C183,445.4,237.5,490,302.2,490c76.4,0,138.5-62.1,138.5-138.5
	C440.7,311.4,423.6,275.3,396.4,250z M302.2,65.7c45.7,0,82.8,37.1,82.8,82.8c0,30.2-16.3,56.6-40.5,71.1c-4.1-1.3-8.2-2.4-12.4-3.3
	c-12.8-50.9-53.8-90.6-105.3-101.7C239.8,85.8,268.7,65.7,302.2,65.7z M260,280.4c4.3,1.4,8.7,2.6,13.2,3.5
	c-9.6,21.3-28,37.9-50.6,45C228.4,308.4,242,291.1,260,280.4z M222.6,171c22.6,7.1,41,23.7,50.6,45c-4.5,1-8.9,2.1-13.2,3.5
	C242,208.9,228.4,191.6,222.6,171z M115,250c0-34.4,21.1-64,51.1-76.5c5.5,29.9,20.6,56.5,42.1,76.5c-21.5,19.9-36.6,46.5-42.1,76.5
	C136.1,314,115,284.4,115,250z M302.2,434.3c-33.6,0-62.5-20.1-75.4-48.9c51.5-11,92.5-50.8,105.3-101.7c4.2-0.9,8.3-2,12.4-3.3
	c24.2,14.5,40.5,40.9,40.5,71.1C385,397.1,347.9,434.3,302.2,434.3z"/>
</svg>
