<?xml version="1.0" encoding="utf-8"?>
<!-- Generator: Adobe Illustrator 21.0.2, SVG Export Plug-In . SVG Version: 6.00 Build 0)  -->
<svg version="1.1" id="Calque_1" xmlns="http://www.w3.org/2000/svg" xmlns:xlink="http://www.w3.org/1999/xlink" x="0px" y="0px"
	 viewBox="0 0 250 250" style="enable-background:new 0 0 250 250;" xml:space="preserve">
<style type="text/css">
	.st0{fill:#231F20;}
</style>
<path class="st0" d="M213.1,79.8c0.1,2,0.1,3.9,0.1,5.9c0,60.1-45.7,129.3-129.3,129.3c-25.7,0-49.6-7.5-69.7-20.4
	c3.6,0.4,7.2,0.6,10.8,0.6c21.3,0,40.9-7.3,56.5-19.5c-19.9-0.4-36.7-13.5-42.5-31.6c2.8,0.5,5.6,0.8,8.6,0.8c4.1,0,8.2-0.6,12-1.6
	c-20.8-4.2-36.5-22.5-36.5-44.6c0-0.2,0-0.4,0-0.6c6.1,3.4,13.1,5.4,20.6,5.7c-12.2-8.2-20.2-22.1-20.2-37.8
	c0-8.3,2.2-16.1,6.2-22.9c22.4,27.5,55.9,45.6,93.7,47.5c-0.8-3.3-1.2-6.8-1.2-10.4c0-25.1,20.4-45.5,45.5-45.5
	c13.1,0,24.9,5.5,33.2,14.4c10.4-2,20.1-5.8,28.9-11c-3.4,10.6-10.6,19.5-20,25.1c9.2-1.1,18-3.5,26.1-7.2
	C229.7,65.4,222,73.4,213.1,79.8z"/>
</svg>
